<svg xmlns="http://www.w3.org/2000/svg" width="156" height="132" viewBox="0 0 156 132" fill="none"><g clip-path="url(#clip0_81_1078)"><path d="M118.173 73.7602C138.221 73.7602 154.473 57.5081 154.473 37.4602C154.473 17.4122 138.221 1.16016 118.173 1.16016C98.1251 1.16016 81.873 17.4122 81.873 37.4602C81.873 57.5081 98.1251 73.7602 118.173 73.7602Z" fill="#50E191"></path><path d="M1.19561 122.977V127.767C1.17561 128.987 2.16561 130.337 3.46561 130.337H111.456C112.766 130.337 113.746 129.257 113.726 128.037V122.977" stroke="#0F2832" stroke-width="2" stroke-miterlimit="10"></path><path d="M103.213 97.9688H11.7131C10.7331 97.9688 9.86313 98.5987 9.55313 99.5187L1.31313 122.309C0.823127 123.779 1.92313 125.299 3.47313 125.299H111.463C113.013 125.299 114.103 123.779 113.623 122.309L105.383 99.5187C105.073 98.5887 104.203 97.9688 103.223 97.9688H103.213Z" stroke="#0F2832" stroke-width="2" stroke-miterlimit="10"></path><path d="M74.1184 120.706L73.0584 112.956C73.0184 112.646 72.7484 112.406 72.4384 112.406H42.4884C42.1684 112.406 41.9084 112.636 41.8684 112.956L40.8084 120.706C40.7584 121.086 41.0484 121.426 41.4284 121.426H73.4884C73.8684 121.426 74.1684 121.086 74.1084 120.706H74.1184Z" stroke="#0F2832" stroke-width="2" stroke-miterlimit="10"></path><path d="M75.7823 32.6953H12.3823C11.1023 32.6953 10.0723 33.7253 10.0723 35.0053V95.6653C10.0723 96.9453 11.1023 97.9753 12.3823 97.9753H102.542C103.822 97.9753 104.852 96.9453 104.852 95.6653V78.2953" stroke="#0F2832" stroke-width="2" stroke-miterlimit="10"></path><path d="M118.174 74.7188C97.6338 74.7188 80.9238 58.0088 80.9238 37.4688C80.9238 16.9287 97.6338 0.21875 118.174 0.21875C138.714 0.21875 155.424 16.9287 155.424 37.4688C155.424 58.0088 138.714 74.7188 118.174 74.7188ZM118.174 2.12875C98.6838 2.12875 82.8238 17.9887 82.8238 37.4787C82.8238 56.9688 98.6838 72.8288 118.174 72.8288C137.664 72.8288 153.524 56.9688 153.524 37.4787C153.524 17.9887 137.664 2.12875 118.174 2.12875Z" fill="#0F2832"></path><path d="M118.171 74.7188C106.691 74.7188 97.3613 58.0088 97.3613 37.4688C97.3613 16.9287 106.691 0.21875 118.171 0.21875C129.651 0.21875 138.981 16.9287 138.981 37.4688C138.981 58.0088 129.641 74.7188 118.171 74.7188ZM118.171 2.12875C107.741 2.12875 99.2613 17.9887 99.2613 37.4787C99.2613 56.9688 107.741 72.8288 118.171 72.8288C128.601 72.8288 137.081 56.9688 137.081 37.4787C137.081 17.9887 128.591 2.12875 118.171 2.12875Z" fill="#0F2832"></path><path d="M154.473 36.5156H81.873V38.4256H154.473V36.5156Z" fill="#0F2832"></path><path d="M119.131 1.16797H117.221V73.768H119.131V1.16797Z" fill="#0F2832"></path></g><defs><clipPath id="clip0_81_1078"><rect width="155.23" height="131.13" fill="white" transform="translate(0.195312 0.210938)"></rect></clipPath></defs></svg>