<svg xmlns="http://www.w3.org/2000/svg" width="122" height="102" viewBox="0 0 122 102" fill="none"><g clip-path="url(#clip0_81_1068)"><path d="M50.0872 26.8733H112.587C116.707 26.8733 120.047 30.2133 120.047 34.3333V77.7433C120.047 81.8633 116.707 85.2033 112.587 85.2033H109.227V88.3933V99.1233C109.227 100.433 107.637 101.093 106.707 100.163L91.7372 85.1933H50.0772C45.9572 85.1933 42.6172 81.8533 42.6172 77.7333V34.3233C42.6172 30.2033 45.9572 26.8633 50.0772 26.8633L50.0872 26.8733Z" stroke="#0F2832" stroke-width="2" stroke-linecap="round" stroke-linejoin="round"></path><path d="M88.4046 0.8125H10.3046C5.15461 0.8125 0.974609 4.9925 0.974609 10.1425V64.3925C0.974609 69.5425 5.15461 73.7225 10.3046 73.7225H14.5046V91.1225C14.5046 92.7625 16.4846 93.5825 17.6546 92.4225L36.3546 73.7225H88.4146C93.5646 73.7225 97.7446 69.5425 97.7446 64.3925V10.1425C97.7446 4.9925 93.5646 0.8125 88.4146 0.8125H88.4046Z" fill="#A38AFF"></path><path d="M57.4612 22.0152C59.5212 23.8452 60.5512 26.3652 60.5512 29.5852C60.5512 32.8052 59.5312 35.1852 57.4812 36.8552C55.4412 38.5252 52.7312 39.3652 49.3512 39.3652L49.1612 43.1152H43.1812L42.9412 34.8452H45.1312C47.9512 34.8452 50.1212 34.4752 51.6512 33.7252C53.1712 32.9752 53.9412 31.6152 53.9412 29.6352C53.9412 28.2052 53.5312 27.0752 52.7012 26.2252C51.8712 25.3852 50.7512 24.9652 49.3212 24.9652C47.8912 24.9652 46.6712 25.3752 45.8412 26.1852C45.0112 26.9952 44.6012 28.1152 44.6012 29.5452H38.1812C38.1512 27.5652 38.5712 25.7952 39.4412 24.2452C40.3212 22.6852 41.6112 21.4752 43.3112 20.5952C45.0112 19.7152 47.0212 19.2852 49.3212 19.2852C52.6912 19.2852 55.4112 20.2052 57.4712 22.0352L57.4612 22.0152ZM43.1112 53.5852C42.3112 52.8252 41.9212 51.8752 41.9212 50.7352C41.9212 49.5952 42.3212 48.6552 43.1112 47.8852C43.9012 47.1252 44.9212 46.7452 46.1512 46.7452C47.3812 46.7452 48.3412 47.1252 49.1212 47.8852C49.9012 48.6452 50.2912 49.5952 50.2912 50.7352C50.2912 51.8752 49.9012 52.8152 49.1212 53.5852C48.3412 54.3452 47.3512 54.7252 46.1512 54.7252C44.9512 54.7252 43.9012 54.3452 43.1112 53.5852Z" fill="#ECECF9"></path></g><defs><clipPath id="clip0_81_1068"><rect width="120.07" height="100.79" fill="white" transform="translate(0.976562 0.802734)"></rect></clipPath></defs></svg>