<svg xmlns="http://www.w3.org/2000/svg" width="93" height="24" viewBox="0 0 93 24" fill="none"><g id="Woo_logo_color 1" clip-path="url(#clip0_81_1246)"><g id="Group"><path id="Vector" fill-rule="evenodd" clip-rule="evenodd" d="M39.1054 0C36.9328 0 35.518 0.707368 34.2549 3.08211L28.4949 13.9453V4.29474C28.4949 1.41474 27.1307 0 24.6044 0C22.078 0 21.017 0.858947 19.7538 3.28421L14.297 13.9453V4.39579C14.297 1.31368 13.0338 0 9.95173 0H3.68647C1.31173 0 -0.00195312 1.11158 -0.00195312 3.13263C-0.00195312 5.15368 1.2612 6.36632 3.58542 6.36632H6.16226V18.5432C6.16226 21.9789 8.48647 24 11.8212 24C15.1559 24 16.6717 22.6863 18.3391 19.6042L21.977 12.7832V18.5432C21.977 21.9284 24.2002 24 27.5854 24C30.9707 24 32.2338 22.8379 34.1538 19.6042L42.5412 5.45684C44.3601 2.37474 43.097 0 39.0549 0C39.0549 0 39.0549 0 39.1054 0Z" fill="#873EFF"></path><path id="Vector_2" fill-rule="evenodd" clip-rule="evenodd" d="M54.8707 0C47.9991 0 42.7949 5.10316 42.7949 12.0253C42.7949 18.9474 48.0497 24 54.8707 24C61.6918 24 66.896 18.8968 66.9465 12.0253C66.9465 5.10316 61.6918 0 54.8707 0ZM54.8707 16.6232C52.2939 16.6232 50.5254 14.7032 50.5254 12.0253C50.5254 9.34737 52.2939 7.37684 54.8707 7.37684C57.4476 7.37684 59.216 9.34737 59.216 12.0253C59.216 14.7032 57.4981 16.6232 54.8707 16.6232Z" fill="#873EFF"></path><path id="Vector_3" fill-rule="evenodd" clip-rule="evenodd" d="M80.6891 0C73.868 0 68.6133 5.10316 68.6133 12.0253C68.6133 18.9474 73.868 24 80.6891 24C87.5101 24 92.7649 18.8968 92.7649 12.0253C92.7649 5.15368 87.5101 0 80.6891 0ZM80.6891 16.6232C78.0617 16.6232 76.3943 14.7032 76.3943 12.0253C76.3943 9.34737 78.1122 7.37684 80.6891 7.37684C83.2659 7.37684 85.0343 9.34737 85.0343 12.0253C85.0343 14.7032 83.3164 16.6232 80.6891 16.6232Z" fill="#873EFF"></path></g></g><defs><clipPath id="clip0_81_1246"><rect width="92.7663" height="24" fill="white"></rect></clipPath></defs></svg>