<svg xmlns="http://www.w3.org/2000/svg" width="128" height="102" viewBox="0 0 128 102" fill="none"><g clip-path="url(#clip0_81_1053)"><path d="M54.0584 89.6723L52.4384 82.1423C53.7084 81.3323 54.9384 80.4323 56.0884 79.4023C57.2384 78.3623 58.2584 77.2323 59.1984 76.0523L66.5084 78.4423C68.2284 79.0023 70.0784 78.0623 70.6384 76.3423L74.6184 64.1523C75.1784 62.4323 74.2384 60.5823 72.5184 60.0223L65.2384 57.6423C65.1184 54.5623 64.4484 51.4923 63.2884 48.5723L69.6384 42.8523C70.9784 41.6423 71.0884 39.5723 69.8784 38.2323L61.2884 28.7023C60.0784 27.3623 58.0084 27.2523 56.6684 28.4623L50.3184 34.1823C47.5284 32.7323 44.5484 31.7523 41.4984 31.3123L39.8784 23.8123C39.4984 22.0523 37.7684 20.9323 35.9984 21.3123L23.4384 24.0123C21.6784 24.3923 20.5584 26.1223 20.9384 27.8923L22.5584 35.4223C21.2884 36.2323 20.0584 37.1323 18.9084 38.1723C17.7584 39.2123 16.7384 40.3423 15.7984 41.5223L8.48839 39.1323C6.76839 38.5723 4.91839 39.5123 4.35839 41.2323L0.388392 53.4123C-0.171608 55.1323 0.768392 56.9823 2.48839 57.5423L9.76839 59.9223C9.89839 63.0123 10.5584 66.0723 11.7184 68.9923L5.36839 74.7123C4.02839 75.9223 3.91839 77.9923 5.12839 79.3323L13.7184 88.8623C14.9284 90.2023 16.9984 90.3123 18.3384 89.1023L24.6884 83.3823C27.4784 84.8323 30.4584 85.8123 33.5084 86.2523L35.1284 93.7523C35.5084 95.5123 37.2384 96.6323 39.0084 96.2523L51.5684 93.5523C53.3284 93.1723 54.4484 91.4423 54.0684 89.6723H54.0584ZM25.8484 69.2823C20.0484 62.8523 20.5584 52.9323 26.9984 47.1323C33.4284 41.3323 43.3484 41.8423 49.1484 48.2823C54.9484 54.7223 54.4384 64.6323 47.9984 70.4323C41.5684 76.2323 31.6484 75.7223 25.8484 69.2923V69.2823Z" fill="#D78CFF"></path><path d="M120.789 29.2314L115.669 31.2314C114.949 30.4314 114.179 29.6714 113.319 28.9714C112.459 28.2714 111.539 27.6914 110.609 27.1614L111.449 21.7414C111.649 20.4714 110.779 19.2714 109.499 19.0714L100.459 17.6614C99.1887 17.4614 97.9887 18.3314 97.7887 19.6114L96.9487 25.0114C94.7887 25.4514 92.7087 26.2714 90.7787 27.4214L86.0187 23.6014C85.0087 22.7914 83.5487 22.9514 82.7387 23.9614L77.0087 31.1014C76.1987 32.1114 76.3587 33.5714 77.3687 34.3814L82.1287 38.2014C81.4287 40.3314 81.0787 42.5414 81.1187 44.7414L76.0187 46.7314C74.8187 47.2014 74.2287 48.5514 74.6987 49.7514L78.0387 58.2814C78.5087 59.4814 79.8587 60.0714 81.0587 59.6014L86.1687 57.6014C86.8887 58.4014 87.6587 59.1614 88.5187 59.8614C89.3787 60.5614 90.2987 61.1414 91.2287 61.6714L90.3787 67.0914C90.1787 68.3614 91.0487 69.5614 92.3287 69.7614L101.369 71.1714C102.639 71.3714 103.839 70.5014 104.039 69.2214L104.879 63.8214C107.039 63.3814 109.119 62.5614 111.049 61.4114L115.809 65.2314C116.819 66.0414 118.279 65.8814 119.089 64.8714L124.819 57.7314C125.629 56.7214 125.469 55.2614 124.459 54.4514L119.699 50.6314C120.399 48.5014 120.749 46.2914 120.709 44.0914L125.809 42.1014C127.009 41.6314 127.599 40.2814 127.129 39.0814L123.789 30.5514C123.319 29.3514 121.969 28.7614 120.769 29.2314H120.789ZM109.659 51.4314C105.789 56.2514 98.7487 57.0214 93.9287 53.1514C89.1087 49.2814 88.3387 42.2414 92.2087 37.4214C96.0787 32.6014 103.119 31.8314 107.939 35.7014C112.759 39.5714 113.529 46.6114 109.659 51.4314Z" fill="#D78CFF"></path><path d="M49.4048 14.6817L47.7148 13.5217C56.3648 0.901685 73.5348 -2.98832 86.7948 4.67168L85.7748 6.44168C73.4248 -0.678315 57.4548 2.93168 49.4048 14.6817Z" fill="#0F2832"></path><path d="M46.2656 3.72102L48.3056 3.54102L49.2156 13.601L59.1956 11.961L59.5256 13.991L47.3756 15.981L46.2656 3.72102Z" fill="#0F2832"></path><path d="M76.1778 101.743C71.1678 101.743 66.1078 100.473 61.5078 97.8225L62.5278 96.0525C74.8778 103.173 90.8478 99.5625 98.8978 87.8125L100.588 88.9725C94.9378 97.2225 85.6378 101.743 76.1678 101.743H76.1778Z" fill="#0F2832"></path><path d="M102.037 98.7717L99.9971 98.9617L99.0871 88.8917L89.1171 90.5317L88.7871 88.5117L100.937 86.5117L102.037 98.7717Z" fill="#0F2832"></path></g><defs><clipPath id="clip0_81_1053"><rect width="127.08" height="100.99" fill="white" transform="translate(0.230469 0.751953)"></rect></clipPath></defs></svg>