<svg xmlns="http://www.w3.org/2000/svg" width="96" height="96" viewBox="0 0 96 96" fill="none" data-inject-url="https://www.globalpayments.com/-/media/feature/gpn/enterprise-components/iconography/toy.svg?rev=6ae5c832eefb43e0b0e924535115500d"><mask id="path-2-inside-1_15_5847--inject-12" fill="white"><path d="M0 48C0 21.4903 21.4903 0 48 0V0C74.5097 0 96 21.4903 96 48V48C96 74.5097 74.5097 96 48 96V96C21.4903 96 0 74.5097 0 48V48Z"></path></mask><rect width="100%" height="100%" x="0" y="0" rx="100%" ry="100%" fill="#2668FF"></rect><path d="M69 47C75.6274 47 81 41.6274 81 35C81 28.3726 75.6274 23 69 23C62.3726 23 57 28.3726 57 35C57 41.6274 62.3726 47 69 47Z" fill="#14E8FF"></path><path d="M31 62.7799C31 62.7799 32.5 60.2799 35.5 57.2799C42.5 59.2799 53.5 55.2799 61.5 55.7799C65.0186 58.5776 66.5 61.7799 66.5 61.7799M27 60.2799C27 60.2799 29 57.2799 31.5 55.2799C26 51.7799 26.5 39.2799 35 39.2799H36M70 59.7799C70 59.7799 68.5 56.7799 65 52.7799C67 47.2799 65.5 38.7799 65.5 38.7799C65.5 38.7799 68.5 39.2799 71 41.2799C73.5 43.2799 78 38.7799 75.5 34.2799C74 30.7799 71.5 26.7799 71.5 26.7799L73.5 22.2799L68.5 23.2799C68.5 23.2799 65 26.7799 62 26.7799C56.5 26.7799 58 39.2799 53.5 39.2799" stroke="white" stroke-width="3" stroke-linejoin="round"></path><path d="M32 39.2798C32 39.2798 30 34.7798 26 34.7798C22 34.7798 18.5 39.2798 21 43.7798C23.5 48.2798 18 52.2798 18 52.2798C18 52.2798 22.5 56.7798 28.5 51.7798" stroke="white" stroke-width="3" stroke-linejoin="round"></path><path d="M21.0294 63.2505C22.1341 62.1457 23.9258 62.0806 25.2094 62.9711C28.9667 65.5779 37.2967 70.2798 48.5 70.2798C59.7033 70.2798 68.0333 65.5779 71.7906 62.9711C73.0742 62.0806 74.8659 62.1457 75.9706 63.2505V63.2505C77.099 64.3788 77.1021 66.1771 75.8509 67.1675C71.8786 70.3116 62.4952 76.2798 48.5 76.2798C34.5048 76.2798 25.1214 70.3116 21.1491 67.1675C19.8979 66.1771 19.901 64.3788 21.0294 63.2505V63.2505Z" stroke="white" stroke-width="3" stroke-linejoin="round"></path><path d="M39 39.2798H51V43.2798C51 46.5935 48.3137 49.2798 45 49.2798C41.6863 49.2798 39 46.5935 39 43.2798V39.2798Z" stroke="white" stroke-width="3" stroke-linejoin="round"></path><path d="M45 50.2798L45 53.2798" stroke="white" stroke-width="3" stroke-miterlimit="10" stroke-linecap="round"></path><path d="M74 32.7798L68 38.2798" stroke="white" stroke-width="3" stroke-miterlimit="10" stroke-linecap="round"></path><path d="M67.125 31.2798L67.125 31.5298" stroke="white" stroke-width="3" stroke-miterlimit="10" stroke-linecap="round"></path><path d="M67.5002 22.7797C53.5 15.7798 50 32.2798 50 34.2797" stroke="white" stroke-width="3" stroke-miterlimit="10" stroke-linecap="square"></path></svg>