<svg xmlns="http://www.w3.org/2000/svg" width="96" height="96" viewBox="0 0 96 96" fill="none" data-inject-url="https://www.globalpayments.com/-/media/feature/gpn/enterprise-components/iconography/online-store-ecommerce-shopping-1.svg?rev=ea5d9d66cff54058832f720473072025"><g clip-path="url(#clip0_1_2855--inject-2)"><mask id="path-2-inside-1_1_2855--inject-2" fill="white"><path d="M0 48C0 21.4903 21.4903 0 48 0C74.5097 0 96 21.4903 96 48C96 74.5097 74.5097 96 48 96C21.4903 96 0 74.5097 0 48Z"></path></mask><rect width="100%" height="100%" x="0" y="0" rx="100%" ry="100%" fill="#2668FF"></rect><path d="M48 57C54.6274 57 60 51.6274 60 45C60 38.3726 54.6274 33 48 33C41.3726 33 36 38.3726 36 45C36 51.6274 41.3726 57 48 57Z" fill="#14E8FF"></path><path d="M54 63H42V72H54V63Z" stroke="white" stroke-width="3" stroke-linecap="round" stroke-linejoin="round"></path><path d="M36 72H60" stroke="white" stroke-width="3" stroke-miterlimit="10"></path><path d="M24 28.5H72V25.5H24V28.5ZM73.5 30V60H76.5V30H73.5ZM72 61.5H24V64.5H72V61.5ZM22.5 60V30H19.5V60H22.5ZM24 61.5C23.1716 61.5 22.5 60.8284 22.5 60H19.5C19.5 62.4853 21.5147 64.5 24 64.5V61.5ZM73.5 60C73.5 60.8284 72.8284 61.5 72 61.5V64.5C74.4853 64.5 76.5 62.4853 76.5 60H73.5ZM72 28.5C72.8284 28.5 73.5 29.1716 73.5 30H76.5C76.5 27.5147 74.4853 25.5 72 25.5V28.5ZM24 25.5C21.5147 25.5 19.5 27.5147 19.5 30H22.5C22.5 29.1716 23.1716 28.5 24 28.5V25.5Z" fill="white"></path></g><defs><clipPath id="clip0_1_2855--inject-2"><rect width="96" height="96" fill="white"></rect></clipPath></defs></svg>