<svg xmlns="http://www.w3.org/2000/svg" width="96" height="96" viewBox="0 0 96 96" fill="none" data-inject-url="https://www.globalpayments.com/-/media/feature/gpn/enterprise-components/iconography/food-truck.svg?rev=9dbef19310c640c2a1b2661151fee6c8"><mask id="path-2-inside-1_15_5832--inject-4" fill="white"><path d="M0 48C0 21.4903 21.4903 0 48 0V0C74.5097 0 96 21.4903 96 48V48C96 74.5097 74.5097 96 48 96V96C21.4903 96 0 74.5097 0 48V48Z"></path></mask><rect width="100%" height="100%" x="0" y="0" rx="100%" ry="100%" fill="#2668FF"></rect><path d="M27 52C33.6274 52 39 46.6274 39 40C39 33.3726 33.6274 28 27 28C20.3726 28 15 33.3726 15 40C15 46.6274 20.3726 52 27 52Z" fill="#14E8FF"></path><path d="M54.4 57.6V38.8571C54.4 37.3423 55.628 36.1143 57.1429 36.1143H66.9638C67.9566 36.1143 68.8719 36.6508 69.3569 37.517L74.4635 46.6358C74.7991 47.2352 75.2444 47.7662 75.776 48.2012L78.994 50.8341C79.6307 51.355 80 52.1343 80 52.9569V59.4286C80 60.6909 78.9767 61.7143 77.7143 61.7143" stroke="white" stroke-width="3" stroke-linecap="round" stroke-linejoin="round"></path><path d="M18.7429 61.7143V61.7143C17.228 61.7143 16 60.4863 16 58.9714V29.9714C16 28.3146 17.3431 26.9714 19 26.9714H57.5943C58.9472 26.9714 60.1327 27.8769 60.4886 29.1821L61.2571 32" stroke="white" stroke-width="3" stroke-linecap="round" stroke-linejoin="round"></path><path d="M58.9714 40.6857H66.2857L69.9429 48H58.9714V40.6857Z" stroke="white" stroke-width="3" stroke-linejoin="round"></path><path d="M24.2286 49.8286L46.1714 49.8286" stroke="white" stroke-width="3" stroke-miterlimit="10" stroke-linecap="round"></path><path d="M24.2286 34.2857L46.1714 34.2857" stroke="white" stroke-width="3" stroke-miterlimit="10" stroke-linecap="round"></path><path d="M37.0286 61.7143L59.8857 61.7143" stroke="white" stroke-width="3" stroke-miterlimit="10" stroke-linecap="round"></path><path d="M24.2286 49.8286L24.2286 34.2857" stroke="white" stroke-width="3" stroke-miterlimit="10" stroke-linecap="round"></path><path d="M46.1714 49.8286V34.2857" stroke="white" stroke-width="3" stroke-miterlimit="10" stroke-linecap="round"></path><path d="M69.0286 69.0286C72.0583 69.0286 74.5143 66.5725 74.5143 63.5429C74.5143 60.5132 72.0583 58.0571 69.0286 58.0571C65.9989 58.0571 63.5429 60.5132 63.5429 63.5429C63.5429 66.5725 65.9989 69.0286 69.0286 69.0286Z" stroke="white" stroke-width="3" stroke-miterlimit="10" stroke-linecap="round"></path><path d="M27.8857 69.0286C30.9154 69.0286 33.3714 66.5725 33.3714 63.5429C33.3714 60.5132 30.9154 58.0571 27.8857 58.0571C24.856 58.0571 22.4 60.5132 22.4 63.5429C22.4 66.5725 24.856 69.0286 27.8857 69.0286Z" stroke="white" stroke-width="3" stroke-miterlimit="10" stroke-linecap="round"></path><path d="M38.8571 34.2857H46.1714V37.0286C46.1714 39.0484 44.5341 40.6857 42.5143 40.6857V40.6857C40.4945 40.6857 38.8571 39.0484 38.8571 37.0286V34.2857Z" stroke="white" stroke-width="3" stroke-linejoin="round"></path><path d="M31.5429 34.2857H38.8571V37.0286C38.8571 39.0484 37.2198 40.6857 35.2 40.6857V40.6857C33.1802 40.6857 31.5429 39.0484 31.5429 37.0286V34.2857Z" stroke="white" stroke-width="3" stroke-linejoin="round"></path><path d="M24.2286 34.2857H31.5429V37.0286C31.5429 39.0484 29.9055 40.6857 27.8857 40.6857V40.6857C25.8659 40.6857 24.2286 39.0484 24.2286 37.0286V34.2857Z" stroke="white" stroke-width="3" stroke-linejoin="round"></path></svg>