<svg xmlns="http://www.w3.org/2000/svg" width="96" height="96" viewBox="0 0 96 96" fill="none" data-inject-url="https://www.globalpayments.com/-/media/feature/gpn/enterprise-components/iconography/gift.svg?rev=ad01e04fbbb04ef0a941abe604d85ca1"><g clip-path="url(#clip0_1_8186--inject-1)"><mask id="path-2-inside-1_1_8186--inject-1" fill="white"><path d="M0 48C0 21.4903 21.4903 0 48 0C74.5097 0 96 21.4903 96 48C96 74.5097 74.5097 96 48 96C21.4903 96 0 74.5097 0 48Z"></path></mask><rect width="100%" height="100%" x="0" y="0" rx="100%" ry="100%" fill="#2668FF"></rect><path d="M48 60C54.6274 60 60 54.6274 60 48C60 41.3726 54.6274 36 48 36C41.3726 36 36 41.3726 36 48C36 54.6274 41.3726 60 48 60Z" fill="#14E8FF"></path><path d="M38.6857 26.0933L24.3721 34.3589V61.6421L47.9977 75.2837L71.6233 61.6421V34.3589L47.9977 20.7173L44.4073 22.7813" stroke="white" stroke-width="3" stroke-linejoin="round"></path><path d="M47.9971 75.2827V47.9995L71.6227 34.3579" stroke="white" stroke-width="3" stroke-linejoin="round"></path><path d="M47.9985 47.9995L24.3633 34.3579" stroke="white" stroke-width="3" stroke-linejoin="round"></path><path d="M55.4297 28.9538L59.0873 26.8418" stroke="white" stroke-width="3" stroke-linejoin="round"></path><path d="M35.0947 41.1738V67.1322" stroke="white" stroke-width="3" stroke-linejoin="round"></path><path d="M60.3249 68.1699V41.1747L48.2385 33.1011L35.4609 40.4835" stroke="white" stroke-width="3" stroke-linejoin="round"></path><path d="M47.9986 33.1014C45.8368 32.2697 43.7574 31.2381 41.7874 30.0198C40.7686 29.2118 39.9587 28.171 39.4258 26.9849C38.8929 25.7988 38.6526 24.5021 38.725 23.2038C39.0034 20.871 40.8274 20.1318 42.7954 21.5526C44.7634 22.9734 47.9986 33.1014 47.9986 33.1014Z" stroke="white" stroke-width="3" stroke-linejoin="round"></path><path d="M47.9971 33.0912C49.9585 34.4925 52.0329 35.7287 54.1987 36.7872C56.1763 37.5072 57.5491 35.9615 57.2707 33.3216C56.9923 30.6816 55.1779 27.9456 53.2003 27.216C51.2227 26.4864 47.9971 33.0912 47.9971 33.0912Z" stroke="white" stroke-width="3" stroke-linejoin="round"></path></g><defs><clipPath id="clip0_1_8186--inject-1"><rect width="96" height="96" fill="white"></rect></clipPath></defs></svg>