<svg xmlns="http://www.w3.org/2000/svg" width="96" height="96" viewBox="0 0 96 96" fill="none" data-inject-url="https://www.globalpayments.com/-/media/feature/gpn/enterprise-components/iconography/couch.svg?rev=36b0135f4aba4c0586430e469f8d370d"><mask id="path-2-inside-1_15_5846--inject-8" fill="white"><path d="M0 48C0 21.4903 21.4903 0 48 0V0C74.5097 0 96 21.4903 96 48V48C96 74.5097 74.5097 96 48 96V96C21.4903 96 0 74.5097 0 48V48Z"></path></mask><rect width="100%" height="100%" x="0" y="0" rx="100%" ry="100%" fill="#2668FF"></rect><path d="M72 69C78.6274 69 84 63.6274 84 57C84 50.3726 78.6274 45 72 45C65.3726 45 60 50.3726 60 57C60 63.6274 65.3726 69 72 69Z" fill="#14E8FF"></path><path d="M15 42.2857C15 41.1811 15.8954 40.2857 17 40.2857H22.7714C23.876 40.2857 24.7714 41.1811 24.7714 42.2857V51.0857H72.0857V42.2857C72.0857 41.1811 72.9811 40.2857 74.0857 40.2857H79.8571C80.9617 40.2857 81.8571 41.1811 81.8571 42.2857V52.8C81.8571 56.1137 79.1708 58.8 75.8571 58.8H21C17.6863 58.8 15 56.1137 15 52.8V42.2857Z" stroke="white" stroke-width="3" stroke-linejoin="round"></path><path d="M47.9143 34V40.2857M47.9143 34C47.9143 31.7909 46.1235 30 43.9143 30H24.1429C21.9337 30 20.1429 31.7909 20.1429 34V36.1714M47.9143 34C47.9143 31.7909 49.7052 30 51.9143 30H72.7143C74.9234 30 76.7143 31.7909 76.7143 34V35.6571M23.7429 58.8H31.4572L27.0669 64.5073C26.5924 65.1242 25.8582 65.4857 25.0799 65.4857C23.3933 65.4857 22.1879 63.8537 22.6839 62.2416L23.7429 58.8ZM73.5203 58.8H65.4L70.0209 64.9458C70.52 65.6095 71.3021 66 72.1325 66C73.9029 66 75.1723 64.2927 74.6624 62.5973L73.5203 58.8Z" stroke="white" stroke-width="3" stroke-linejoin="round"></path><line x1="30.9" y1="44.9571" x2="65.9572" y2="44.9571" stroke="white" stroke-width="3" stroke-linecap="round"></line></svg>