<svg xmlns="http://www.w3.org/2000/svg" width="96" height="96" viewBox="0 0 96 96" fill="none" data-inject-url="https://www.globalpayments.com/-/media/feature/gpn/enterprise-components/iconography/jewelry.svg?rev=14662eb89fd24dbdae9008533968231d"><mask id="path-2-inside-1_1_4304--inject-6" fill="white"><path d="M0 48C0 21.4903 21.4903 0 48 0C74.5097 0 96 21.4903 96 48C96 74.5097 74.5097 96 48 96C21.4903 96 0 74.5097 0 48Z"></path></mask><rect width="100%" height="100%" x="0" y="0" rx="100%" ry="100%" fill="#2668FF"></rect><path d="M48 60C54.6274 60 60 54.6274 60 48C60 41.3726 54.6274 36 48 36C41.3726 36 36 41.3726 36 48C36 54.6274 41.3726 60 48 60Z" fill="#14E8FF"></path><path d="M48.711 71.6404L58.1295 42.8553M36.7199 38.8243L47.4575 71.6685M36.7199 38.8243L29.5583 30.7895M36.7199 38.8243L48.0796 27.7429M51.117 30.6967L58.4922 37.8953C58.6149 38.0196 58.7621 38.1171 58.9244 38.1816C59.0867 38.2461 59.2606 38.2763 59.4352 38.2702C59.6098 38.2641 59.7812 38.2218 59.9386 38.1461C60.0961 38.0704 60.2361 37.9628 60.3499 37.8302L69.3225 27.7429M76.7159 38.8243H19.4521C19.409 38.8265 19.366 38.8167 19.3281 38.7959C19.2902 38.7751 19.259 38.7441 19.2377 38.7065C19.2165 38.6688 19.2061 38.626 19.2079 38.5828C19.2097 38.5396 19.2236 38.4978 19.2478 38.462L26.8458 27H69.3221L76.9202 38.462C76.9445 38.4978 76.9582 38.5396 76.96 38.5828C76.9618 38.626 76.9515 38.6688 76.9303 38.7065C76.9091 38.7441 76.8777 38.7751 76.8398 38.7959C76.8019 38.8167 76.759 38.8265 76.7159 38.8243ZM19.0994 39.4746L48.0796 74L77.0691 39.4746C77.1158 39.4168 77.1454 39.3472 77.1547 39.2735C77.164 39.1998 77.1525 39.125 77.1216 39.0575C77.0907 38.99 77.0417 38.9324 76.9799 38.8912C76.9181 38.85 76.846 38.8269 76.7718 38.8244H19.3966C19.3207 38.8231 19.2463 38.844 19.1821 38.8845C19.1179 38.9249 19.0669 38.9832 19.0354 39.0522C19.0038 39.1212 18.993 39.198 19.0044 39.273C19.0158 39.348 19.0488 39.418 19.0994 39.4746Z" stroke="white" stroke-width="3" stroke-miterlimit="10" stroke-linecap="round" stroke-linejoin="round"></path></svg>