<svg xmlns="http://www.w3.org/2000/svg" width="96" height="96" viewBox="0 0 96 96" fill="none" data-inject-url="https://www.globalpayments.com/-/media/feature/gpn/enterprise-components/iconography/dog-bone.svg?rev=30b5ccd72be4402ab758897de349cedd"><mask id="path-2-inside-1_15_5841--inject-7" fill="white"><path d="M0 48C0 21.4903 21.4903 0 48 0V0C74.5097 0 96 21.4903 96 48V48C96 74.5097 74.5097 96 48 96V96C21.4903 96 0 74.5097 0 48V48Z"></path></mask><rect width="100%" height="100%" x="0" y="0" rx="100%" ry="100%" fill="#2668FF"></rect><path d="M59 39C65.6274 39 71 33.6274 71 27C71 20.3726 65.6274 15 59 15C52.3726 15 47 20.3726 47 27C47 33.6274 52.3726 39 59 39Z" fill="#14E8FF"></path><path d="M53.2424 32.9706L54.2962 34.038C54.5805 33.7573 54.7411 33.3749 54.7424 32.9754C54.7436 32.5759 54.5855 32.1924 54.303 31.9099L53.2424 32.9706ZM66.5897 29.5227L65.1477 29.1099C64.9977 29.6339 65.1437 30.198 65.5291 30.5834C65.9145 30.9688 66.4786 31.1148 67.0025 30.9648L66.5897 29.5227ZM64.2025 41.8094C63.6167 41.2236 62.667 41.2236 62.0812 41.8094C61.4954 42.3952 61.4954 43.3449 62.0812 43.9307L64.2025 41.8094ZM35.446 48.4326L34.3785 49.4864L36.4862 51.6213L37.5537 50.5674L35.446 48.4326ZM54.303 31.9099C51.7646 29.3715 51.7646 25.2559 54.303 22.7175L52.1817 20.5962C48.4717 24.3062 48.4717 30.3212 52.1817 34.0312L54.303 31.9099ZM54.303 22.7175C56.8414 20.1791 60.957 20.1791 63.4954 22.7175L65.6167 20.5962C61.9068 16.8862 55.8917 16.8862 52.1817 20.5962L54.303 22.7175ZM63.4954 22.7175C65.2245 24.4466 65.7778 26.9086 65.1477 29.1099L68.0318 29.9355C68.9498 26.7287 68.1473 23.1268 65.6167 20.5962L63.4954 22.7175ZM73.3949 41.8094C70.8565 44.3478 66.7409 44.3478 64.2025 41.8094L62.0812 43.9307C65.7912 47.6407 71.8063 47.6407 75.5162 43.9307L73.3949 41.8094ZM73.3949 32.617C75.9333 35.1554 75.9333 39.271 73.3949 41.8094L75.5162 43.9307C79.2262 40.2207 79.2262 34.2057 75.5162 30.4957L73.3949 32.617ZM67.0025 30.9648C69.2039 30.3346 71.6658 30.8879 73.3949 32.617L75.5162 30.4957C72.9857 27.9651 69.3838 27.1626 66.1769 28.0806L67.0025 30.9648ZM52.1885 31.9031L35.446 48.4326L37.5537 50.5674L54.2962 34.038L52.1885 31.9031Z" fill="white"></path><path d="M42.8701 63.1422L41.809 62.0819C41.2236 62.6678 41.2238 63.6172 41.8094 64.2028L42.8701 63.1422ZM29.5227 66.59L30.9648 67.0028C31.1148 66.4789 30.9687 65.9148 30.5834 65.5294C30.198 65.144 29.6339 64.998 29.1099 65.1479L29.5227 66.59ZM31.9099 54.3033C32.4957 54.8891 33.4454 54.8891 34.0312 54.3033C34.617 53.7175 34.617 52.7678 34.0312 52.182L31.9099 54.3033ZM60.5609 47.5603L61.6211 46.4992L59.499 44.3787L58.4388 45.4397L60.5609 47.5603ZM41.8094 64.2028C44.3478 66.7412 44.3478 70.8568 41.8094 73.3952L43.9307 75.5165C47.6407 71.8066 47.6407 65.7915 43.9307 62.0815L41.8094 64.2028ZM41.8094 73.3952C39.271 75.9336 35.1554 75.9336 32.617 73.3952L30.4957 75.5165C34.2057 79.2265 40.2207 79.2265 43.9307 75.5165L41.8094 73.3952ZM32.617 73.3952C30.8879 71.6661 30.3346 69.2042 30.9648 67.0028L28.0806 66.1772C27.1626 69.3841 27.9651 72.986 30.4957 75.5165L32.617 73.3952ZM22.7175 54.3033C25.2559 51.7649 29.3715 51.7649 31.9099 54.3033L34.0312 52.182C30.3212 48.472 24.3062 48.472 20.5962 52.182L22.7175 54.3033ZM22.7175 63.4957C20.1791 60.9573 20.1791 56.8417 22.7175 54.3033L20.5962 52.182C16.8862 55.892 16.8862 61.9071 20.5962 65.617L22.7175 63.4957ZM29.1099 65.1479C26.9086 65.7781 24.4466 65.2248 22.7175 63.4957L20.5962 65.617C23.1268 68.1476 26.7287 68.9501 29.9355 68.0321L29.1099 65.1479ZM43.9311 64.2024L60.5609 47.5603L58.4388 45.4397L41.809 62.0819L43.9311 64.2024Z" fill="white"></path></svg>