<svg xmlns="http://www.w3.org/2000/svg" width="40" height="40" viewBox="0 0 40 40" fill="none"><path d="M0 20C0 8.95431 8.95431 0 20 0C31.0457 0 40 8.95431 40 20C40 31.0457 31.0457 40 20 40C8.95431 40 0 31.0457 0 20Z" fill="#004400"/><mask id="mask0_5442_48418" style="mask-type:alpha" maskUnits="userSpaceOnUse" x="11" y="11" width="9" height="9"><path d="M11 11.001H19.3956V19.3941H11V11.001Z" fill="white"/></mask><g mask="url(#mask0_5442_48418)"><path fill-rule="evenodd" clip-rule="evenodd" d="M19.3954 15.1961C19.3954 12.8792 17.515 11.001 15.1966 11.001C12.8788 11.001 10.9998 12.8797 10.9998 15.1961C10.9998 17.5127 12.8807 19.3941 15.1996 19.3941H19.3954V15.1961Z" fill="#B6FB6F"/></g><mask id="mask1_5442_48418" style="mask-type:alpha" maskUnits="userSpaceOnUse" x="21" y="11" width="9" height="9"><path d="M21 11.001H29.3955V19.3941H21V11.001Z" fill="white"/></mask><g mask="url(#mask1_5442_48418)"><path fill-rule="evenodd" clip-rule="evenodd" d="M21 15.1951C21 12.8782 22.8804 11 25.1987 11C27.5166 11 29.3956 12.8787 29.3956 15.1951C29.3956 17.5118 27.5147 19.3931 25.1958 19.3931H21V15.1951Z" fill="#B6FB6F"/></g><mask id="mask2_5442_48418" style="mask-type:alpha" maskUnits="userSpaceOnUse" x="21" y="20" width="9" height="10"><path d="M21 20.6094H29.3956V29.0011H21V20.6094Z" fill="white"/></mask><g mask="url(#mask2_5442_48418)"><path fill-rule="evenodd" clip-rule="evenodd" d="M21 24.8047C21 27.1233 22.8799 29.0012 25.199 29.0012C27.5158 29.0012 29.3956 27.1233 29.3956 24.8047C29.3956 22.4878 27.5134 20.6094 25.195 20.6094H21V24.8047Z" fill="#B6FB6F"/></g><mask id="mask3_5442_48418" style="mask-type:alpha" maskUnits="userSpaceOnUse" x="11" y="20" width="9" height="10"><path d="M11.0002 20.6094H19.3959V29.0011H11.0002V20.6094Z" fill="white"/></mask><g mask="url(#mask3_5442_48418)"><path fill-rule="evenodd" clip-rule="evenodd" d="M19.3959 24.8047C19.3959 27.1233 17.516 29.0012 15.1969 29.0012C12.8801 29.0012 11.0002 27.1233 11.0002 24.8047C11.0002 22.4878 12.8825 20.6094 15.2009 20.6094H19.3959V24.8047ZM15.1971 27.8173C16.8632 27.8173 18.219 26.4661 18.219 24.805V21.7938H15.2011C13.5342 21.7938 12.1784 23.1447 12.1784 24.805C12.1779 26.4658 13.5324 27.8173 15.1971 27.8173Z" fill="#B6FB6F"/></g></svg>