<svg xmlns="http://www.w3.org/2000/svg" fill="none" height="24" viewBox="0 0 82 24" width="82"><g fill="#fff"><path d="m7.78298 3.90188c-2.87161-.00284-4.83144 1.42014-4.8329 3.66805-.0052 5.38177 12.20212 2.54367 12.19472 10.36287-.003 3.1971-2.8768 5.3474-7.38034 5.3431-3.98102-.0036-6.52552-1.3986-7.76446-2.413l1.27446-1.5502c1.01101.8243 2.96711 2.2186 6.49147 2.2222 3.32827.0028 5.35317-1.4511 5.35537-3.6042.0059-6.2045-12.234652-3.0815-12.22725-10.33066.002959-3.26091 2.84422-5.44207 6.89113-5.43848 5.25402.00503 6.65432 3.14034 7.17462 4.69182l-1.9583.47316c-.2931-1.07766-1.5965-3.42105-5.21852-3.42466z"></path><path d="m38.6156 8.33038-4.7463 14.81072-2.415-.0022-3.5784-11.2726c-.0977-.3482-.2279-.8867-.2598-1.0762h-.0651c-.0325.1895-.1636.728-.262 1.0762l-3.6657 11.2662-2.415-.0022-4.881-14.81926 2.2188.00213 3.5459 11.71633c.1628.5385.3582 1.013.3907 1.1716h.0652c.0325-.1579.2294-.7279.3604-1.1709l3.6665-11.70982 2.056.00213 3.6435 11.65309c.1303.443.2598 1.0769.2924 1.2349h.0651c.0652-.158.1969-.6964.393-1.2341l3.5681-11.64602z"></path><path d="m53.4262 14.896c-.0012.7912-.0994 1.2665-.0994 1.2665l-11.8129-.0108c.1599 3.3557 2.3447 5.5419 5.8032 5.5454 2.2189.0022 3.6887-.9146 4.5376-1.9269l1.2389 1.1092c-1.4047 1.6764-3.5266 2.4346-5.9089 2.4324-4.7315-.0043-7.6986-3.0146-7.6942-7.5413.0044-4.5583 3.0093-7.5946 7.3175-7.59099 4.1112.0036 6.6215 2.79139 6.6182 6.71649zm-11.8464-.1688 9.8227.0087v-.1264c.003-2.9759-1.8229-4.81315-4.5968-4.81604-2.8057-.00213-4.864 1.95864-5.2259 4.93374z"></path><path d="m56.2458.811768 1.9581.001437-.0215 22.349195-1.9581-.0014z"></path><path d="m62.1184.817017 1.9586.001437-.0214 22.349146-1.9587-.0014z"></path><path d="m81.3176 23.1845c-.0327 0-.5877.158-1.2082.1573-1.3382-.0014-2.3166-.6354-2.3149-2.2178l.0005-.7596h-.0649c-.5556 1.1078-2.1568 2.9738-5.7788 2.9702-3.2307-.0029-5.0239-1.5558-5.0216-3.9301.0028-3.3241 3.5288-4.4606 9.7948-4.5181l.9463-.0309.0006-1.1393c.0022-2.3743-1.5623-3.89494-4.3362-3.89779-2.4798-.00218-4.1127 1.13579-4.1149 3.03549-.0006.443.0971.728.162.8551l-1.8604.3152s-.1953-.5385-.1948-1.2665c.0029-2.6909 2.3867-4.55613 6.0414-4.55329 3.9161.00361 6.296 2.12659 6.2931 5.48229l-.0067 6.743c-.0006.8551.2924 1.2034 1.0106 1.2041.1959 0 .424-.0316.555-.0632zm-3.6496-5.0055.0023-1.9314-.9469.0309c-5.1238.0589-7.7674.8796-7.7696 3.0636-.0011 1.456 1.1072 2.375 3.4244 2.3771 3.7851.0043 5.2881-2.5904 5.2898-3.5402z"></path></g></svg>