<svg xmlns="http://www.w3.org/2000/svg" xmlns:xlink="http://www.w3.org/1999/xlink" id="PAX-Logo-Color-Footer" width="200" height="104.183" viewBox="0 0 200 104.183"><defs><clipPath id="clip-path"><rect id="Rectangle_7336" data-name="Rectangle 7336" width="200" height="104.183" fill="#a7b0b5"></rect></clipPath></defs><g id="Group_87671" data-name="Group 87671" transform="translate(0 0)" clip-path="url(#clip-path)"><path id="Path_54874" data-name="Path 54874" d="M25.75,15.848C49.3-3.047,72.4-2.93,81.325,5.233c-.765.071-1.52.159-2.26.265q-.649.092-1.3.2C70.932-.407,53.293,8.109,31.4,25.212,8.586,43.042,1.083,58.681,7.241,66.353s25.6,2.98,47.489-15.675c15.162-12.924,23.716-25.434,25.5-34.452a42.836,42.836,0,0,1,5.418-1.689c1.249,11.7-6.62,29.9-25.611,44.743C35.778,78.238,13.536,81.554,4.149,69.544s-3.122-33.861,21.6-53.7" transform="translate(0 -0.001)" fill="#11a1f2" fill-rule="evenodd"></path><path id="Path_54875" data-name="Path 54875" d="M206.089,105.508C230.9,85.909,255.074,84.8,262.6,95.1s.377,34.386-23.305,53.772c-21.855,17.89-43,21.382-53.426,12.343l-.15-.131c-.137-.122-.274-.245-.407-.372l-.039-.037q-.234-.223-.46-.454.446-.039.892-.087h0q.262-.028.523-.06h0q.287-.035.574-.073h0l.26-.036h0l.052-.007h0l.156-.022h0l.1-.015h0l.052-.008h0l.1-.016h0l.052-.008h0l.1-.016h0l.052-.008h0l.052-.008h0l.259-.042h0l.051-.009h0l.051-.009h0a8.593,8.593,0,0,0,.793.482l.013.007q.194.1.394.2l.042.02q.185.087.376.165l.073.03q.178.072.36.137l.1.037q.171.059.346.112l.124.037.005,0h0c9.053,2.635,25.389-6.044,43.045-20.948,25.725-21.717,32.491-40.4,23.4-45.479-7.072-3.954-23.73,2.242-45.966,19.584-16.24,12.666-25.705,25.068-27.146,34.393a31.648,31.648,0,0,1-4.38.774c-1.495-12.21,7.069-28.609,26.354-43.843" transform="translate(-161.189 -79.596)" fill="#07055b" fill-rule="evenodd"></path><path id="Path_54876" data-name="Path 54876" d="M913.257,630.079a15.635,15.635,0,0,0,4.24-1.5,16.844,16.844,0,0,0,6.44-5.6c.441-.71,1.351-3.994-.176-6.056-1.757-2.373-5.1-2.92-6.265-3.041-.262-.027-.414-.033-.414-.033l-3.826.034-19.709.173L884.258,638l9.838.072,3.335-7.724,14.043-.088a10.12,10.12,0,0,0,1.783-.178m-14.825-3.72,3.209-8.1s10.084.076,11.306.076c.107,0,.209,0,.31,0,4.28.118,2.925,4.455,1.371,5.8a9.775,9.775,0,0,1-1.371,1,8.532,8.532,0,0,1-3.384,1.218Z" transform="translate(-793.751 -551.014)" fill="#a7b0b5"></path><path id="Path_54877" data-name="Path 54877" d="M1166.389,614.547l-2.054,1.832-17.724,15.81-4.24,3.782-2.874,2.564h9.855l4.092-4.813,10.89.053,4.957.024v4.813l10.313-.077-.153-24.065Zm2.817,15.311-4.87-.063-4.913-.063,4.913-4.738,3.359-3.24h1.554Z" transform="translate(-1022.866 -551.577)" fill="#a7b0b5"></path><path id="Path_54878" data-name="Path 54878" d="M1589.094,613.729h-12.6l-8.08,6.827-6.044-6.636h-11.452l10.879,11.995-14.315,12h12.279l7.38-6.189,5.6,6.253,11.706-.128-10.561-11.421Z" transform="translate(-1389.094 -550.911)" fill="#a7b0b5"></path><path id="Path_54879" data-name="Path 54879" d="M182.217,905.3l-.466,2.536h2.737l-.19,1.057h-2.737l-.49,2.632h3.079l-.2,1.069h-4.379l1.549-8.363H185.5l-.2,1.069Z" transform="translate(-161.19 -811.675)" fill="#07055b"></path><path id="Path_54880" data-name="Path 54880" d="M250.053,920.757a2.069,2.069,0,0,1,.565,1.6,4.647,4.647,0,0,1-.069.661l-.73,3.905h-1.289l.692-3.7a4.11,4.11,0,0,0,.054-.481,1.346,1.346,0,0,0-.33-1.009,1.28,1.28,0,0,0-.958-.349,1.788,1.788,0,0,0-1.257.475,2.318,2.318,0,0,0-.668,1.364l-.692,3.7h-1.289l.692-3.7a4.146,4.146,0,0,0,.054-.481,1.348,1.348,0,0,0-.33-1.009,1.281,1.281,0,0,0-.958-.349,1.787,1.787,0,0,0-1.257.475,2.32,2.32,0,0,0-.668,1.364v-.036l-.692,3.737h-1.3l1.222-6.621h1.3l-.139.769a2.77,2.77,0,0,1,.918-.643,2.724,2.724,0,0,1,1.1-.234,2.376,2.376,0,0,1,1.289.336,1.74,1.74,0,0,1,.741.973,2.773,2.773,0,0,1,1.055-.955,2.875,2.875,0,0,1,1.363-.355,2.169,2.169,0,0,1,1.575.565" transform="translate(-215.098 -826.007)" fill="#07055b"></path><path id="Path_54881" data-name="Path 54881" d="M355.369,920.5a2.978,2.978,0,0,1,1.346-.312,2.465,2.465,0,0,1,1.272.325,2.151,2.151,0,0,1,.851.925,3.012,3.012,0,0,1,.283,1.406,4.208,4.208,0,0,1-.081.733,4.7,4.7,0,0,1-.721,1.784,3.945,3.945,0,0,1-1.287,1.226,3.092,3.092,0,0,1-1.576.439,2.3,2.3,0,0,1-1.221-.306,2.274,2.274,0,0,1-.779-.763l-.756,4.109h-1.3l1.8-9.769h1.3l-.177.973a3.544,3.544,0,0,1,1.045-.769m2.4,2.583a1.672,1.672,0,0,0-.428-1.256,1.512,1.512,0,0,0-1.127-.451,2.045,2.045,0,0,0-.98.264,2.53,2.53,0,0,0-.852.769,2.913,2.913,0,0,0-.488,1.19,2.519,2.519,0,0,0-.054.493,1.733,1.733,0,0,0,.428,1.274,1.467,1.467,0,0,0,1.115.469,2.032,2.032,0,0,0,.991-.27,2.553,2.553,0,0,0,.852-.787,3.016,3.016,0,0,0,.488-1.2,2.536,2.536,0,0,0,.054-.493" transform="translate(-315.432 -826.007)" fill="#07055b"></path><path id="Path_54882" data-name="Path 54882" d="M436.629,926.681a2.346,2.346,0,0,1-.924-.985,3.032,3.032,0,0,1-.311-1.454,4.3,4.3,0,0,1,.532-2.043,3.907,3.907,0,0,1,1.394-1.466,3.665,3.665,0,0,1,1.954-.541,2.75,2.75,0,0,1,1.408.355,2.452,2.452,0,0,1,.946.985,2.939,2.939,0,0,1,.323,1.46,4.192,4.192,0,0,1-.549,2.043,3.974,3.974,0,0,1-1.417,1.46,3.724,3.724,0,0,1-1.96.535,2.723,2.723,0,0,1-1.4-.349m2.775-1.2a2.738,2.738,0,0,0,.868-1.033,3.181,3.181,0,0,0,.332-1.376,1.717,1.717,0,0,0-.423-1.28,1.479,1.479,0,0,0-1.11-.451,1.941,1.941,0,0,0-1.187.391,2.66,2.66,0,0,0-.828,1.045,3.445,3.445,0,0,0-.315,1.4,1.732,1.732,0,0,0,.394,1.25,1.384,1.384,0,0,0,1.07.445,2.023,2.023,0,0,0,1.2-.391" transform="translate(-390.83 -826.007)" fill="#07055b"></path><path id="Path_54883" data-name="Path 54883" d="M520.9,921.249l-3.172,6.621h-1.369l-.348-4.891-2.184,4.891h-1.368l-.74-6.621h1.323l.341,5.323,2.305-5.323h1.357l.307,5.3,2.271-5.3Z" transform="translate(-459.347 -826.955)" fill="#07055b"></path><path id="Path_54884" data-name="Path 54884" d="M607.327,920.889a2.484,2.484,0,0,1,.669,1.875,4.633,4.633,0,0,1-.069.661,5.973,5.973,0,0,1-.171.649h-4.8a2.033,2.033,0,0,0-.016.252,1.51,1.51,0,0,0,.4,1.13,1.439,1.439,0,0,0,1.082.421,1.847,1.847,0,0,0,1.647-.925h1.4a3.835,3.835,0,0,1-1.3,1.5,3.394,3.394,0,0,1-1.96.583,2.8,2.8,0,0,1-1.374-.324,2.224,2.224,0,0,1-.907-.931,2.9,2.9,0,0,1-.306-1.424,4.412,4.412,0,0,1,.081-.745,4.558,4.558,0,0,1,.727-1.8,3.752,3.752,0,0,1,1.327-1.2,3.584,3.584,0,0,1,1.712-.421,2.5,2.5,0,0,1,1.864.7m-.666,1.887a1.331,1.331,0,0,0-.4-1.045,1.5,1.5,0,0,0-1.071-.385,1.933,1.933,0,0,0-1.263.469,2.43,2.43,0,0,0-.786,1.274h3.49q.027-.216.028-.312" transform="translate(-540.037 -826.007)" fill="#07055b"></path><path id="Path_54885" data-name="Path 54885" d="M674.284,920.528a2.188,2.188,0,0,1,1.186-.336l-.264,1.418h-.331a1.8,1.8,0,0,0-1.216.4,2.391,2.391,0,0,0-.662,1.37l-.655,3.545h-1.3l1.222-6.621h1.3l-.214,1.166a3.114,3.114,0,0,1,.934-.937" transform="translate(-602.358 -826.007)" fill="#07055b"></path><path id="Path_54886" data-name="Path 54886" d="M718.019,898.17l-1.222,6.621h-1.3l1.222-6.621Zm-.973-1.081a.708.708,0,0,1-.185-.517,1.018,1.018,0,0,1,.315-.727.961.961,0,0,1,.7-.306.632.632,0,0,1,.492.2.721.721,0,0,1,.179.517,1.028,1.028,0,0,1-.309.727.944.944,0,0,1-.69.306.648.648,0,0,1-.5-.2" transform="translate(-642.263 -803.876)" fill="#07055b"></path><path id="Path_54887" data-name="Path 54887" d="M752.569,920.751a2.076,2.076,0,0,1,.559,1.6,4.843,4.843,0,0,1-.068.661l-.73,3.905h-1.289l.692-3.7a4.119,4.119,0,0,0,.054-.481,1.348,1.348,0,0,0-.33-1.009,1.281,1.281,0,0,0-.958-.348,1.787,1.787,0,0,0-1.257.475,2.32,2.32,0,0,0-.668,1.364v-.036l-.692,3.737h-1.3L747.8,920.3h1.3l-.139.769a2.9,2.9,0,0,1,.929-.643,2.724,2.724,0,0,1,1.1-.234,2.162,2.162,0,0,1,1.57.559" transform="translate(-670.167 -826.007)" fill="#07055b"></path><path id="Path_54888" data-name="Path 54888" d="M822.961,920.5a1.808,1.808,0,0,1,.734.763l.177-.961h1.311l-1.235,6.729a4.263,4.263,0,0,1-.667,1.628,3.5,3.5,0,0,1-1.263,1.124,3.637,3.637,0,0,1-1.729.409,3.494,3.494,0,0,1-1.455-.282,2,2,0,0,1-.933-.811,2.084,2.084,0,0,1-.252-1.25h1.289a1.132,1.132,0,0,0,.476.835,1.8,1.8,0,0,0,1.1.319,2.013,2.013,0,0,0,1.366-.5,2.461,2.461,0,0,0,.755-1.466l.2-1.106a3.539,3.539,0,0,1-1.04.787,2.9,2.9,0,0,1-1.34.318,2.4,2.4,0,0,1-1.271-.336,2.241,2.241,0,0,1-.856-.955,3.074,3.074,0,0,1-.289-1.424,4.057,4.057,0,0,1,.081-.733,4.547,4.547,0,0,1,.721-1.767,3.868,3.868,0,0,1,1.293-1.2,3.19,3.19,0,0,1,1.581-.427,2.385,2.385,0,0,1,1.243.307m.359,2.614a1.713,1.713,0,0,0-.428-1.268,1.478,1.478,0,0,0-1.115-.463,2.07,2.07,0,0,0-.985.258,2.513,2.513,0,0,0-.846.757,2.865,2.865,0,0,0-.488,1.184,2.521,2.521,0,0,0-.054.492,1.771,1.771,0,0,0,.428,1.292,1.458,1.458,0,0,0,1.115.475,2.033,2.033,0,0,0,.986-.264,2.527,2.527,0,0,0,.846-.775,2.967,2.967,0,0,0,.489-1.2,2.531,2.531,0,0,0,.054-.493" transform="translate(-733.952 -826.007)" fill="#07055b"></path><path id="Path_54889" data-name="Path 54889" d="M938.92,904.74a2.746,2.746,0,0,1,1.218,1.142,3.449,3.449,0,0,1,.4,1.766,4.992,4.992,0,0,1-.1.9,5.337,5.337,0,0,1-.928,2.211,4.559,4.559,0,0,1-1.736,1.436,5.307,5.307,0,0,1-2.313.5h-2.589l1.548-8.352h2.589a4.269,4.269,0,0,1,1.909.4m-.979,6.08a3.956,3.956,0,0,0,1.163-2.271,4.908,4.908,0,0,0,.082-.781,2.26,2.26,0,0,0-.586-1.712,2.425,2.425,0,0,0-1.791-.607h-1.289l-1.146,6.2h1.289a3.228,3.228,0,0,0,2.278-.829" transform="translate(-837.391 -811.78)" fill="#07055b"></path><path id="Path_54890" data-name="Path 54890" d="M1016.064,898.17l-1.222,6.621h-1.3l1.222-6.621Zm-.974-1.081a.708.708,0,0,1-.185-.517,1.018,1.018,0,0,1,.315-.727.961.961,0,0,1,.7-.306.632.632,0,0,1,.493.2.722.722,0,0,1,.179.517,1.029,1.029,0,0,1-.309.727.944.944,0,0,1-.69.306.649.649,0,0,1-.5-.2" transform="translate(-909.802 -803.876)" fill="#07055b"></path><path id="Path_54891" data-name="Path 54891" d="M1047.027,920.5a1.809,1.809,0,0,1,.734.763l.177-.961h1.311l-1.235,6.729a4.261,4.261,0,0,1-.667,1.628,3.5,3.5,0,0,1-1.263,1.124,3.636,3.636,0,0,1-1.729.409,3.493,3.493,0,0,1-1.455-.282,2,2,0,0,1-.933-.811,2.084,2.084,0,0,1-.252-1.25H1043a1.133,1.133,0,0,0,.476.835,1.8,1.8,0,0,0,1.1.319,2.013,2.013,0,0,0,1.366-.5,2.46,2.46,0,0,0,.755-1.466l.2-1.106a3.541,3.541,0,0,1-1.04.787,2.9,2.9,0,0,1-1.34.318,2.4,2.4,0,0,1-1.272-.336,2.24,2.24,0,0,1-.856-.955,3.072,3.072,0,0,1-.289-1.424,4.068,4.068,0,0,1,.081-.733,4.55,4.55,0,0,1,.721-1.767,3.868,3.868,0,0,1,1.293-1.2,3.19,3.19,0,0,1,1.581-.427,2.385,2.385,0,0,1,1.244.307m.359,2.614a1.714,1.714,0,0,0-.428-1.268,1.478,1.478,0,0,0-1.115-.463,2.07,2.07,0,0,0-.985.258,2.513,2.513,0,0,0-.846.757,2.867,2.867,0,0,0-.488,1.184,2.526,2.526,0,0,0-.054.492,1.771,1.771,0,0,0,.428,1.292,1.458,1.458,0,0,0,1.115.475,2.033,2.033,0,0,0,.985-.264,2.527,2.527,0,0,0,.846-.775,2.968,2.968,0,0,0,.489-1.2,2.535,2.535,0,0,0,.054-.493" transform="translate(-935.084 -826.007)" fill="#07055b"></path><path id="Path_54892" data-name="Path 54892" d="M1124.366,898.17l-1.222,6.621h-1.3l1.222-6.621Zm-.974-1.081a.709.709,0,0,1-.185-.517,1.018,1.018,0,0,1,.315-.727.961.961,0,0,1,.7-.306.632.632,0,0,1,.493.2.722.722,0,0,1,.179.517,1.029,1.029,0,0,1-.309.727.943.943,0,0,1-.689.306.649.649,0,0,1-.5-.2" transform="translate(-1007.019 -803.876)" fill="#07055b"></path><path id="Path_54893" data-name="Path 54893" d="M1159.026,911.594a2.151,2.151,0,0,0-.027.216.426.426,0,0,0,.142.367.806.806,0,0,0,.489.114h.8l-.214,1.142h-1.026a1.787,1.787,0,0,1-1.146-.318,1.2,1.2,0,0,1-.381-1.015,2.72,2.72,0,0,1,.055-.5l.68-3.665h-.741l.2-1.118h.753l.3-1.646h1.312l-.3,1.646h1.517l-.2,1.118h-1.528Z" transform="translate(-1039.162 -812.518)" fill="#07055b"></path><path id="Path_54894" data-name="Path 54894" d="M1197.845,921.814a3.867,3.867,0,0,1,1.292-1.2,3.19,3.19,0,0,1,1.581-.427,2.316,2.316,0,0,1,1.238.307,2,2,0,0,1,.74.763l.177-.961h1.311l-1.222,6.621h-1.311l.188-.985a3.438,3.438,0,0,1-1.046.781,3,3,0,0,1-1.357.312,2.345,2.345,0,0,1-1.254-.336,2.253,2.253,0,0,1-.85-.955,3.076,3.076,0,0,1-.289-1.424,4.08,4.08,0,0,1,.081-.733,4.545,4.545,0,0,1,.721-1.767m4.476,1.3a1.713,1.713,0,0,0-.428-1.268,1.478,1.478,0,0,0-1.115-.463,2.069,2.069,0,0,0-.985.258,2.512,2.512,0,0,0-.846.757,2.863,2.863,0,0,0-.488,1.184,2.516,2.516,0,0,0-.054.492,1.772,1.772,0,0,0,.428,1.292,1.459,1.459,0,0,0,1.115.475,2.032,2.032,0,0,0,.985-.264,2.527,2.527,0,0,0,.846-.775,2.965,2.965,0,0,0,.489-1.2,2.526,2.526,0,0,0,.054-.493" transform="translate(-1074.52 -826.007)" fill="#07055b"></path><path id="Path_54895" data-name="Path 54895" d="M1276.211,899.06l-1.649,8.892h-1.3l1.649-8.892Z" transform="translate(-1142.938 -807.038)" fill="#07055b"></path><path id="Path_54896" data-name="Path 54896" d="M1345.564,908.032a2.89,2.89,0,0,1-1.082.919,3.622,3.622,0,0,1-1.671.354h-1.437l-.629,3.389h-1.3l1.548-8.352h2.737a2.577,2.577,0,0,1,1.8.559,1.846,1.846,0,0,1,.59,1.46,3.606,3.606,0,0,1-.054.469,3.021,3.021,0,0,1-.506,1.2m-1.377-.168a1.687,1.687,0,0,0,.548-1.034,1.878,1.878,0,0,0,.04-.348.989.989,0,0,0-.3-.787,1.367,1.367,0,0,0-.947-.282h-1.437l-.517,2.824h1.437a1.745,1.745,0,0,0,1.175-.372" transform="translate(-1202.346 -811.78)" fill="#07055b"></path><path id="Path_54897" data-name="Path 54897" d="M1409.208,921.814a3.869,3.869,0,0,1,1.292-1.2,3.19,3.19,0,0,1,1.581-.427,2.317,2.317,0,0,1,1.238.307,2,2,0,0,1,.739.763l.177-.961h1.311l-1.222,6.621h-1.312l.188-.985a3.439,3.439,0,0,1-1.046.781,3,3,0,0,1-1.357.312,2.345,2.345,0,0,1-1.254-.336,2.253,2.253,0,0,1-.85-.955,3.074,3.074,0,0,1-.289-1.424,4.068,4.068,0,0,1,.081-.733,4.546,4.546,0,0,1,.721-1.767m4.477,1.3a1.714,1.714,0,0,0-.428-1.268,1.478,1.478,0,0,0-1.115-.463,2.069,2.069,0,0,0-.985.258,2.511,2.511,0,0,0-.846.757,2.865,2.865,0,0,0-.488,1.184,2.507,2.507,0,0,0-.054.492,1.771,1.771,0,0,0,.428,1.292,1.458,1.458,0,0,0,1.115.475,2.033,2.033,0,0,0,.985-.264,2.527,2.527,0,0,0,.846-.775,2.965,2.965,0,0,0,.489-1.2,2.526,2.526,0,0,0,.054-.493" transform="translate(-1264.25 -826.007)" fill="#07055b"></path><path id="Path_54898" data-name="Path 54898" d="M1485.576,921.249l.836,5.047,2.768-5.047h1.346l-5.644,9.733h-1.346l1.87-3.22-1.278-6.513Z" transform="translate(-1331.69 -826.955)" fill="#07055b"></path><path id="Path_54899" data-name="Path 54899" d="M1561.568,920.757a2.069,2.069,0,0,1,.565,1.6,4.65,4.65,0,0,1-.068.661l-.73,3.905h-1.289l.692-3.7a4.139,4.139,0,0,0,.054-.481,1.347,1.347,0,0,0-.33-1.009,1.28,1.28,0,0,0-.957-.349,1.788,1.788,0,0,0-1.257.475,2.32,2.32,0,0,0-.668,1.364l-.692,3.7H1555.6l.692-3.7a4.167,4.167,0,0,0,.054-.481,1.348,1.348,0,0,0-.33-1.009,1.281,1.281,0,0,0-.958-.349,1.787,1.787,0,0,0-1.257.475,2.321,2.321,0,0,0-.669,1.364v-.036l-.692,3.737h-1.3l1.222-6.621h1.3l-.139.769a2.771,2.771,0,0,1,.918-.643,2.724,2.724,0,0,1,1.1-.234,2.375,2.375,0,0,1,1.289.336,1.74,1.74,0,0,1,.741.973,2.773,2.773,0,0,1,1.055-.955,2.874,2.874,0,0,1,1.363-.355,2.169,2.169,0,0,1,1.575.565" transform="translate(-1392.375 -826.007)" fill="#07055b"></path><path id="Path_54900" data-name="Path 54900" d="M1675.277,920.889a2.484,2.484,0,0,1,.669,1.875,4.615,4.615,0,0,1-.069.661,5.943,5.943,0,0,1-.171.649h-4.8a2.07,2.07,0,0,0-.016.252,1.509,1.509,0,0,0,.4,1.13,1.439,1.439,0,0,0,1.082.421,1.847,1.847,0,0,0,1.647-.925h1.4a3.833,3.833,0,0,1-1.3,1.5,3.394,3.394,0,0,1-1.96.583,2.8,2.8,0,0,1-1.374-.324,2.227,2.227,0,0,1-.907-.931,2.9,2.9,0,0,1-.306-1.424,4.417,4.417,0,0,1,.081-.745,4.561,4.561,0,0,1,.727-1.8,3.752,3.752,0,0,1,1.327-1.2,3.584,3.584,0,0,1,1.712-.421,2.5,2.5,0,0,1,1.864.7m-.666,1.887a1.331,1.331,0,0,0-.4-1.045,1.5,1.5,0,0,0-1.071-.385,1.933,1.933,0,0,0-1.263.469,2.429,2.429,0,0,0-.786,1.274h3.49q.026-.216.028-.312" transform="translate(-1498.678 -826.007)" fill="#07055b"></path><path id="Path_54901" data-name="Path 54901" d="M1744.979,920.751a2.075,2.075,0,0,1,.559,1.6,4.792,4.792,0,0,1-.068.661l-.729,3.905h-1.289l.692-3.7a4.105,4.105,0,0,0,.054-.481,1.348,1.348,0,0,0-.33-1.009,1.281,1.281,0,0,0-.958-.348,1.788,1.788,0,0,0-1.257.475,2.322,2.322,0,0,0-.668,1.364v-.036l-.692,3.737h-1.3l1.222-6.621h1.3l-.139.769a2.9,2.9,0,0,1,.929-.643,2.725,2.725,0,0,1,1.1-.234,2.162,2.162,0,0,1,1.57.559" transform="translate(-1560.999 -826.007)" fill="#07055b"></path><path id="Path_54902" data-name="Path 54902" d="M1819.073,911.594a2.146,2.146,0,0,0-.026.216.426.426,0,0,0,.142.367.806.806,0,0,0,.488.114h.8l-.214,1.142h-1.026a1.788,1.788,0,0,1-1.146-.318,1.2,1.2,0,0,1-.381-1.015,2.709,2.709,0,0,1,.055-.5l.68-3.665h-.741l.2-1.118h.753l.3-1.646h1.311l-.3,1.646h1.517l-.2,1.118h-1.528Z" transform="translate(-1631.651 -812.518)" fill="#07055b"></path><path id="Path_54903" data-name="Path 54903" d="M1857.293,926.8a1.95,1.95,0,0,1-.832-.661,1.608,1.608,0,0,1-.291-.979,2.038,2.038,0,0,1,.027-.264h1.266a.867.867,0,0,0,.249.757,1.17,1.17,0,0,0,.861.3,1.8,1.8,0,0,0,.9-.2.669.669,0,0,0,.364-.6.62.62,0,0,0-.281-.541,4.653,4.653,0,0,0-.922-.456,8.706,8.706,0,0,1-.973-.469,2.029,2.029,0,0,1-.64-.595,1.546,1.546,0,0,1-.257-.943,1.725,1.725,0,0,1,.332-1.016,2.114,2.114,0,0,1,.89-.685,3.242,3.242,0,0,1,1.3-.246,2.814,2.814,0,0,1,1.177.234,1.855,1.855,0,0,1,.8.661,1.675,1.675,0,0,1,.274.979,2.055,2.055,0,0,1-.016.252h-1.232a.861.861,0,0,0-.244-.757,1.18,1.18,0,0,0-.856-.288,1.348,1.348,0,0,0-.8.216.7.7,0,0,0-.313.589.684.684,0,0,0,.3.595,4.771,4.771,0,0,0,.938.487,7.4,7.4,0,0,1,.938.457,2.032,2.032,0,0,1,.617.577,1.472,1.472,0,0,1,.246.9,1.665,1.665,0,0,1-.354,1.027,2.17,2.17,0,0,1-.941.673,3.667,3.667,0,0,1-1.35.234,2.9,2.9,0,0,1-1.182-.234" transform="translate(-1666.183 -826.007)" fill="#07055b"></path></g></svg>