<svg xmlns="http://www.w3.org/2000/svg" width="80" height="80" viewBox="0 0 80 80"><g transform="translate(1 5)"><rect width="80" height="80" transform="translate(-1 -5)" fill="none"></rect><path d="M10.309,54.529C8.01,50.6,5.825,46.892,3.673,43.167,2.747,41.567,1.9,39.92,1,38.307a6.764,6.764,0,0,1-.02-7.041c1.978-3.522,3.872-7.1,5.98-10.541,2.5-4.09,4.778-8.309,7.211-12.438,1.008-1.711,2.047-3.407,3.149-5.059A6.717,6.717,0,0,1,23.172,0Q39.314,0,55.455,0C57.908,0,59.54,1.4,60.84,3.269a84.772,84.772,0,0,1,5.132,8.647c2.732,5.145,5.978,9.99,8.694,15.142.7,1.333,1.441,2.646,2.159,3.971A6.525,6.525,0,0,1,76.81,37.7q-2.966,5.283-5.994,10.532-3.233,5.6-6.525,11.173c-1.182,2-2.471,3.944-3.606,5.972a6.974,6.974,0,0,1-6.05,3.676c-3.349.174-6.713.052-10.071.038a3.023,3.023,0,0,1-.812-.264,3.5,3.5,0,0,1,1.229-2.518,36.49,36.49,0,0,1,9.974-8.429,8.848,8.848,0,0,0,1.368-.9c1.683-1.442,1.474-3.406-.46-4.537a4.841,4.841,0,0,0-3.581-.4,39.46,39.46,0,0,0-7.137,2.576,7.465,7.465,0,0,1-1.351.479c-.8.162-1.356-.133-1.41-1.026-.037-.615-.036-1.233-.036-1.849q0-14.7,0-29.4c0-.616-.006-1.234-.053-1.848a1.406,1.406,0,0,0-.851-1.317,7.1,7.1,0,0,0-4.429-.007c-.68.213-.814.867-.819,1.519q-.01,1.439-.012,2.878,0,11-.006,22a11.874,11.874,0,0,1-.132,2.043.959.959,0,0,1-1.037.814.871.871,0,0,1-.883-.934c-.042-.615-.045-1.232-.046-1.849,0-3.153.019-6.306-.011-9.458-.019-1.989-.471-2.425-2.4-2.508-3.746-.162-4.09.172-4.093,3.988,0,2.742,0,5.483,0,8.225a10.976,10.976,0,0,1-.1,1.637.925.925,0,0,1-.97.876.955.955,0,0,1-.937-.923,12.515,12.515,0,0,1-.086-1.639c-.009-2.947.019-5.895-.016-8.842-.021-1.793-.544-2.31-2.306-2.453a12.2,12.2,0,0,0-1.233-.014c-2.1.044-2.567.467-2.591,2.536-.033,2.81-.009,5.62-.011,8.43,0,.48,0,.96-.018,1.439-.033.732-.218,1.445-1.088,1.48-.986.039-.988-.77-.993-1.463-.016-2.193.009-4.387-.016-6.58-.027-2.373-.566-2.906-2.9-2.964-.205,0-.411,0-.617,0-2.482.014-2.963.472-2.981,3.038-.028,3.769,0,7.539-.017,11.309a3.689,3.689,0,0,1-.381,2.3M36.093,14.611a3.63,3.63,0,0,0-.264-.818c-.9-1.605-1.818-3.2-2.746-4.788a2.176,2.176,0,0,0-1.051-.94,1.591,1.591,0,0,0-1.732.191,1.43,1.43,0,0,0-.565,1.637,28.147,28.147,0,0,0,3.38,6.043,1.741,1.741,0,0,0,2.977-1.325m7.565,1.824a1.733,1.733,0,0,0,1.408-.983c.935-1.584,1.883-3.162,2.746-4.785a1.81,1.81,0,0,0-.541-2.528,1.663,1.663,0,0,0-2.311.638,32.213,32.213,0,0,0-3.122,5.265c-.632,1.205.232,2.39,1.819,2.393m7.3,7.841q1.639,0,3.278,0c1.064,0,1.668-.457,1.662-1.594s-.35-1.609-1.588-1.645c-2.184-.063-4.371-.059-6.555,0a1.445,1.445,0,0,0-1.6,1.673,1.5,1.5,0,0,0,1.73,1.57c1.024-.014,2.048,0,3.073-.005m-24.123-.007c1.1,0,2.191.01,3.286,0a1.372,1.372,0,0,0,1.522-1.527c.023-1.139-.349-1.659-1.543-1.695-2.189-.065-4.382-.014-6.573-.02-1.127,0-1.331.7-1.333,1.633s.239,1.624,1.353,1.616c1.1-.009,2.191,0,3.286,0" transform="translate(0 0.001)" fill="#2a7de1"></path><path d="M55.258,155.209a4.971,4.971,0,0,1-2.552.3c-3.217.024-6.435,0-9.652.023a6.386,6.386,0,0,1-5.53-2.614,29.672,29.672,0,0,1-3.332-5.35c4.721-4.2,18.937.939,21.065,7.643" transform="translate(-20.129 -85.976)" fill="#21ba8c"></path></g></svg>