<svg xmlns="http://www.w3.org/2000/svg" width="250.328" height="674.406" viewBox="0 0 250.328 674.406"><g id="Group_87970" data-name="Group 87970" transform="translate(0)"><g id="Group_87968" data-name="Group 87968" transform="translate(0 0.007)" style="isolation: isolate"><path id="Path_55114" data-name="Path 55114" d="M126.829,280.1l-73.56-73.562h65.556s26.664,26.661,47.884,47.882a36.316,36.316,0,0,1,0,51.361l-47.882,47.882H53.269Z" transform="translate(-53.269 320.74)" fill="#f0f8fd"></path><path id="Path_55115" data-name="Path 55115" d="M126.829,211.357,53.269,137.8h65.556s26.664,26.661,47.884,47.882a36.315,36.315,0,0,1,0,51.361l-47.882,47.882H53.269Z" transform="translate(-53.269 213.989)" fill="#f0f8fd"></path><path id="Path_55116" data-name="Path 55116" d="M126.829,142.3,53.269,68.742h65.556s26.664,26.661,47.884,47.882a36.315,36.315,0,0,1,0,51.361l-47.882,47.882H53.269Z" transform="translate(-53.269 106.749)" fill="#f0f8fd"></path><path id="Path_55117" data-name="Path 55117" d="M126.829,73.565,53.269,0h65.556s26.664,26.661,47.884,47.882a36.315,36.315,0,0,1,0,51.361l-47.882,47.882H53.269Z" transform="translate(-53.269 -0.003)" fill="#f0f8fd"></path></g><g id="Group_87969" data-name="Group 87969" transform="translate(126.251 0)" style="isolation: isolate"><path id="Path_55118" data-name="Path 55118" d="M176.281,280.094l-73.56-73.562h65.556s26.664,26.661,47.884,47.882a36.315,36.315,0,0,1,0,51.361l-47.882,47.882H102.721Z" transform="translate(-102.721 320.745)" fill="#f0f8fd"></path><path id="Path_55119" data-name="Path 55119" d="M176.281,211.355l-73.56-73.562h65.556s26.664,26.661,47.884,47.882a36.315,36.315,0,0,1,0,51.361l-47.882,47.882H102.721Z" transform="translate(-102.721 213.993)" fill="#f0f8fd"></path><path id="Path_55120" data-name="Path 55120" d="M176.281,142.3l-73.56-73.562h65.556s26.664,26.661,47.884,47.882a36.315,36.315,0,0,1,0,51.361l-47.882,47.882H102.721Z" transform="translate(-102.721 106.752)" fill="#f0f8fd"></path><path id="Path_55121" data-name="Path 55121" d="M176.281,73.562,102.721,0h65.556s26.664,26.661,47.884,47.882a36.315,36.315,0,0,1,0,51.361l-47.882,47.882H102.721Z" transform="translate(-102.721)" fill="#f0f8fd"></path></g></g></svg>