<svg xmlns="http://www.w3.org/2000/svg" width="345" height="240" viewBox="0 0 345 240" fill="none"><g clip-path="url(#clip0_11728_70609)"><rect width="345" height="72" fill="black"/><path d="M27.766 30.85H29.418L33.24 41H31.7L30.902 38.802H26.24L25.456 41H24L27.766 30.85ZM26.674 37.584H30.454L28.55 32.292L26.674 37.584ZM39.4425 30.85H40.7165V41H39.4425V39.866C39.2092 40.2673 38.8919 40.5893 38.4905 40.832C38.0892 41.0653 37.5852 41.182 36.9785 41.182C36.5305 41.182 36.1152 41.098 35.7325 40.93C35.3499 40.7527 35.0139 40.496 34.7245 40.16C34.4352 39.824 34.2065 39.4133 34.0385 38.928C33.8799 38.4427 33.8005 37.8873 33.8005 37.262C33.8005 36.646 33.8799 36.0953 34.0385 35.61C34.2065 35.1247 34.4352 34.714 34.7245 34.378C35.0139 34.042 35.3499 33.7853 35.7325 33.608C36.1152 33.4307 36.5305 33.342 36.9785 33.342C37.5852 33.342 38.0892 33.4633 38.4905 33.706C38.8919 33.9393 39.2092 34.2567 39.4425 34.658V30.85ZM39.4985 37.262C39.4985 36.7673 39.4379 36.3427 39.3165 35.988C39.1952 35.624 39.0319 35.33 38.8265 35.106C38.6212 34.8727 38.3832 34.7047 38.1125 34.602C37.8512 34.49 37.5805 34.434 37.3005 34.434C36.6192 34.434 36.0965 34.6813 35.7325 35.176C35.3685 35.6613 35.1865 36.3567 35.1865 37.262C35.1865 38.1673 35.3685 38.8673 35.7325 39.362C36.0965 39.8473 36.6192 40.09 37.3005 40.09C37.5805 40.09 37.8512 40.0387 38.1125 39.936C38.3832 39.824 38.6212 39.656 38.8265 39.432C39.0319 39.1987 39.1952 38.9047 39.3165 38.55C39.4379 38.186 39.4985 37.7567 39.4985 37.262ZM45.1768 39.236L47.2208 33.468H48.5368L45.6948 41H44.5608L41.7188 33.468H43.1328L45.1768 39.236ZM54.0356 37.374C53.4569 37.43 52.9342 37.5 52.4676 37.584C52.0009 37.6587 51.6042 37.7567 51.2776 37.878C50.9509 37.99 50.6989 38.1393 50.5216 38.326C50.3442 38.5033 50.2556 38.7227 50.2556 38.984C50.2556 39.3387 50.3816 39.628 50.6336 39.852C50.8949 40.0667 51.2542 40.174 51.7116 40.174C52.0102 40.174 52.2996 40.1367 52.5796 40.062C52.8596 39.978 53.1069 39.8427 53.3216 39.656C53.5362 39.46 53.7089 39.1987 53.8396 38.872C53.9702 38.5453 54.0356 38.13 54.0356 37.626V37.374ZM51.4316 41.182C51.0769 41.182 50.7409 41.1307 50.4236 41.028C50.1156 40.9347 49.8402 40.7993 49.5976 40.622C49.3642 40.4353 49.1776 40.2113 49.0376 39.95C48.9069 39.6793 48.8416 39.376 48.8416 39.04C48.8416 38.592 48.9629 38.2187 49.2056 37.92C49.4482 37.612 49.7889 37.36 50.2276 37.164C50.6756 36.9587 51.2122 36.7953 51.8376 36.674C52.4629 36.5527 53.1629 36.45 53.9376 36.366V36.156C53.9376 35.8013 53.8909 35.5073 53.7976 35.274C53.7136 35.0407 53.5922 34.8587 53.4336 34.728C53.2749 34.588 53.0882 34.49 52.8736 34.434C52.6589 34.378 52.4302 34.35 52.1876 34.35C51.5996 34.35 51.1562 34.4853 50.8576 34.756C50.5589 35.0173 50.3956 35.3813 50.3676 35.848H49.0516C49.0796 35.4467 49.1869 35.0873 49.3736 34.77C49.5602 34.4527 49.7982 34.1867 50.0876 33.972C50.3769 33.7573 50.7036 33.594 51.0676 33.482C51.4316 33.37 51.8096 33.314 52.2016 33.314C53.2469 33.314 54.0122 33.5567 54.4976 34.042C54.9829 34.5273 55.2209 35.3113 55.2116 36.394L55.1976 38.158C55.1882 38.7927 55.1976 39.3387 55.2256 39.796C55.2629 40.244 55.3189 40.6453 55.3936 41H54.1056C54.0869 40.86 54.0682 40.6967 54.0496 40.51C54.0309 40.3233 54.0169 40.118 54.0076 39.894C53.7742 40.286 53.4522 40.5987 53.0416 40.832C52.6402 41.0653 52.1036 41.182 51.4316 41.182ZM58.3699 34.602C58.5846 34.2473 58.8832 33.9487 59.2659 33.706C59.6579 33.4633 60.1712 33.342 60.8059 33.342C61.2632 33.342 61.6459 33.412 61.9539 33.552C62.2712 33.692 62.5279 33.8927 62.7239 34.154C62.9199 34.406 63.0599 34.7093 63.1439 35.064C63.2372 35.4187 63.2839 35.8107 63.2839 36.24V41H62.0099V36.618C62.0099 36.3287 61.9912 36.0533 61.9539 35.792C61.9166 35.5307 61.8419 35.302 61.7299 35.106C61.6179 34.9007 61.4499 34.742 61.2259 34.63C61.0112 34.5087 60.7219 34.448 60.3579 34.448C59.7419 34.448 59.2566 34.658 58.9019 35.078C58.5472 35.4887 58.3699 36.1 58.3699 36.912V41H57.0959V33.468H58.3699V34.602ZM68.2696 33.342C68.7363 33.342 69.1516 33.4213 69.5156 33.58C69.8796 33.7293 70.1923 33.93 70.4536 34.182C70.715 34.434 70.9203 34.7187 71.0696 35.036C71.2283 35.3533 71.331 35.6707 71.3776 35.988H70.0896C69.9963 35.54 69.7816 35.176 69.4456 34.896C69.119 34.6067 68.699 34.462 68.1856 34.462C67.887 34.462 67.607 34.518 67.3456 34.63C67.0936 34.742 66.8696 34.9147 66.6736 35.148C66.487 35.372 66.3376 35.6567 66.2256 36.002C66.1136 36.3473 66.0576 36.758 66.0576 37.234C66.0576 37.71 66.1136 38.1253 66.2256 38.48C66.3376 38.8347 66.4916 39.1287 66.6876 39.362C66.8836 39.5953 67.1076 39.7727 67.3596 39.894C67.621 40.006 67.8963 40.062 68.1856 40.062C68.4656 40.062 68.713 40.02 68.9276 39.936C69.1516 39.852 69.343 39.74 69.5016 39.6C69.6696 39.46 69.805 39.3013 69.9076 39.124C70.0196 38.9373 70.099 38.746 70.1456 38.55H71.4616C71.3963 38.9047 71.2703 39.2407 71.0836 39.558C70.897 39.8753 70.659 40.1553 70.3696 40.398C70.0896 40.6407 69.7583 40.832 69.3756 40.972C69.0023 41.112 68.5916 41.182 68.1436 41.182C67.593 41.182 67.103 41.084 66.6736 40.888C66.2443 40.692 65.8803 40.4213 65.5816 40.076C65.283 39.7307 65.0543 39.32 64.8956 38.844C64.7463 38.3587 64.6716 37.8267 64.6716 37.248C64.6716 36.688 64.751 36.17 64.9096 35.694C65.0776 35.218 65.3156 34.8073 65.6236 34.462C65.9316 34.1073 66.305 33.832 66.7436 33.636C67.1916 33.44 67.7003 33.342 68.2696 33.342ZM76.1049 41.182C75.4983 41.182 74.9663 41.084 74.5089 40.888C74.0609 40.6827 73.6829 40.4027 73.3749 40.048C73.0669 39.6933 72.8336 39.278 72.6749 38.802C72.5256 38.326 72.4509 37.808 72.4509 37.248C72.4509 36.6507 72.5396 36.114 72.7169 35.638C72.9036 35.1527 73.1556 34.742 73.4729 34.406C73.7996 34.0607 74.1823 33.7993 74.6209 33.622C75.0596 33.4353 75.5403 33.342 76.0629 33.342C76.6416 33.342 77.1549 33.454 77.6029 33.678C78.0603 33.902 78.4383 34.21 78.7369 34.602C79.0356 34.994 79.2503 35.4513 79.3809 35.974C79.5209 36.4967 79.5723 37.0567 79.5349 37.654H73.8369C73.8369 38.0273 73.8929 38.3633 74.0049 38.662C74.1263 38.9607 74.2896 39.2127 74.4949 39.418C74.7003 39.6233 74.9383 39.782 75.2089 39.894C75.4796 40.006 75.7689 40.062 76.0769 40.062C76.6649 40.062 77.1129 39.95 77.4209 39.726C77.7289 39.4927 77.9623 39.1893 78.1209 38.816H79.4369C79.3529 39.1427 79.2176 39.4507 79.0309 39.74C78.8443 40.02 78.6109 40.2673 78.3309 40.482C78.0603 40.6967 77.7383 40.8693 77.3649 41C76.9916 41.1213 76.5716 41.182 76.1049 41.182ZM76.0629 34.434C75.4189 34.434 74.8963 34.6207 74.4949 34.994C74.0936 35.358 73.8789 35.8807 73.8509 36.562H78.1909C78.1816 36.3007 78.1303 36.044 78.0369 35.792C77.9436 35.5307 77.8083 35.302 77.6309 35.106C77.4536 34.9007 77.2343 34.7373 76.9729 34.616C76.7116 34.4947 76.4083 34.434 76.0629 34.434ZM89.1176 37.374C88.5389 37.43 88.0163 37.5 87.5496 37.584C87.0829 37.6587 86.6863 37.7567 86.3596 37.878C86.0329 37.99 85.7809 38.1393 85.6036 38.326C85.4263 38.5033 85.3376 38.7227 85.3376 38.984C85.3376 39.3387 85.4636 39.628 85.7156 39.852C85.9769 40.0667 86.3363 40.174 86.7936 40.174C87.0923 40.174 87.3816 40.1367 87.6616 40.062C87.9416 39.978 88.1889 39.8427 88.4036 39.656C88.6183 39.46 88.7909 39.1987 88.9216 38.872C89.0523 38.5453 89.1176 38.13 89.1176 37.626V37.374ZM86.5136 41.182C86.1589 41.182 85.8229 41.1307 85.5056 41.028C85.1976 40.9347 84.9223 40.7993 84.6796 40.622C84.4463 40.4353 84.2596 40.2113 84.1196 39.95C83.9889 39.6793 83.9236 39.376 83.9236 39.04C83.9236 38.592 84.0449 38.2187 84.2876 37.92C84.5303 37.612 84.8709 37.36 85.3096 37.164C85.7576 36.9587 86.2943 36.7953 86.9196 36.674C87.5449 36.5527 88.2449 36.45 89.0196 36.366V36.156C89.0196 35.8013 88.9729 35.5073 88.8796 35.274C88.7956 35.0407 88.6743 34.8587 88.5156 34.728C88.3569 34.588 88.1703 34.49 87.9556 34.434C87.7409 34.378 87.5123 34.35 87.2696 34.35C86.6816 34.35 86.2383 34.4853 85.9396 34.756C85.6409 35.0173 85.4776 35.3813 85.4496 35.848H84.1336C84.1616 35.4467 84.2689 35.0873 84.4556 34.77C84.6423 34.4527 84.8803 34.1867 85.1696 33.972C85.4589 33.7573 85.7856 33.594 86.1496 33.482C86.5136 33.37 86.8916 33.314 87.2836 33.314C88.3289 33.314 89.0943 33.5567 89.5796 34.042C90.0649 34.5273 90.3029 35.3113 90.2936 36.394L90.2796 38.158C90.2703 38.7927 90.2796 39.3387 90.3076 39.796C90.3449 40.244 90.4009 40.6453 90.4756 41H89.1876C89.1689 40.86 89.1503 40.6967 89.1316 40.51C89.1129 40.3233 89.0989 40.118 89.0896 39.894C88.8563 40.286 88.5343 40.5987 88.1236 40.832C87.7223 41.0653 87.1856 41.182 86.5136 41.182ZM93.4519 41H92.1779V33.468H93.4519V34.602C93.6666 34.2473 93.9559 33.9487 94.3199 33.706C94.6839 33.4633 95.1506 33.342 95.7199 33.342C96.2986 33.342 96.7606 33.4587 97.1059 33.692C97.4606 33.9253 97.7219 34.252 97.8899 34.672C98.1886 34.2053 98.5526 33.8693 98.9819 33.664C99.4113 33.4493 99.8919 33.342 100.424 33.342C100.863 33.342 101.236 33.412 101.544 33.552C101.852 33.692 102.104 33.8927 102.3 34.154C102.496 34.406 102.636 34.7093 102.72 35.064C102.813 35.4187 102.86 35.8107 102.86 36.24V41H101.586V36.618C101.586 36.3287 101.567 36.0533 101.53 35.792C101.493 35.5307 101.413 35.302 101.292 35.106C101.18 34.9007 101.017 34.742 100.802 34.63C100.597 34.5087 100.321 34.448 99.9759 34.448C99.4253 34.448 98.9819 34.658 98.6459 35.078C98.3193 35.4887 98.1559 36.1 98.1559 36.912V41H96.8819V36.618C96.8819 36.3287 96.8633 36.0533 96.8259 35.792C96.7886 35.5307 96.7093 35.302 96.5879 35.106C96.4759 34.9007 96.3126 34.742 96.0979 34.63C95.8926 34.5087 95.6173 34.448 95.2719 34.448C94.7213 34.448 94.2779 34.658 93.9419 35.078C93.6153 35.4887 93.4519 36.1 93.4519 36.912V41ZM105.638 37.262C105.638 37.766 105.694 38.1953 105.806 38.55C105.927 38.9047 106.086 39.194 106.282 39.418C106.487 39.642 106.725 39.8053 106.996 39.908C107.266 40.0107 107.551 40.062 107.85 40.062C108.148 40.062 108.433 40.006 108.704 39.894C108.974 39.782 109.208 39.614 109.404 39.39C109.609 39.1567 109.768 38.8673 109.88 38.522C110.001 38.1673 110.062 37.7473 110.062 37.262C110.062 36.758 110.001 36.3287 109.88 35.974C109.768 35.6193 109.609 35.33 109.404 35.106C109.208 34.882 108.974 34.7187 108.704 34.616C108.433 34.5133 108.148 34.462 107.85 34.462C107.551 34.462 107.266 34.5133 106.996 34.616C106.725 34.7093 106.487 34.868 106.282 35.092C106.086 35.316 105.927 35.6053 105.806 35.96C105.694 36.3147 105.638 36.7487 105.638 37.262ZM104.28 37.262C104.28 36.5807 104.378 35.9927 104.574 35.498C104.779 35.0033 105.05 34.5973 105.386 34.28C105.722 33.9627 106.104 33.7293 106.534 33.58C106.963 33.4213 107.402 33.342 107.85 33.342C108.298 33.342 108.736 33.4213 109.166 33.58C109.595 33.7293 109.978 33.9627 110.314 34.28C110.65 34.5973 110.916 35.0033 111.112 35.498C111.317 35.9927 111.42 36.5807 111.42 37.262C111.42 37.9433 111.317 38.5313 111.112 39.026C110.916 39.5207 110.65 39.9267 110.314 40.244C109.978 40.5613 109.595 40.7993 109.166 40.958C108.736 41.1073 108.298 41.182 107.85 41.182C107.402 41.182 106.963 41.1073 106.534 40.958C106.104 40.7993 105.722 40.5613 105.386 40.244C105.05 39.9267 104.779 39.5207 104.574 39.026C104.378 38.5313 104.28 37.9433 104.28 37.262ZM117.608 39.922C117.393 40.2767 117.099 40.5753 116.726 40.818C116.362 41.0607 115.867 41.182 115.242 41.182C114.803 41.182 114.43 41.112 114.122 40.972C113.823 40.832 113.576 40.636 113.38 40.384C113.193 40.1227 113.053 39.8147 112.96 39.46C112.876 39.1053 112.834 38.7133 112.834 38.284V33.468H114.108V37.906C114.108 38.1953 114.122 38.4707 114.15 38.732C114.187 38.9933 114.262 39.2267 114.374 39.432C114.486 39.628 114.644 39.7867 114.85 39.908C115.064 40.02 115.344 40.076 115.69 40.076C116.296 40.076 116.768 39.8707 117.104 39.46C117.44 39.04 117.608 38.424 117.608 37.612V33.468H118.882V41H117.608V39.922ZM122.177 34.602C122.391 34.2473 122.69 33.9487 123.073 33.706C123.465 33.4633 123.978 33.342 124.613 33.342C125.07 33.342 125.453 33.412 125.761 33.552C126.078 33.692 126.335 33.8927 126.531 34.154C126.727 34.406 126.867 34.7093 126.951 35.064C127.044 35.4187 127.091 35.8107 127.091 36.24V41H125.817V36.618C125.817 36.3287 125.798 36.0533 125.761 35.792C125.723 35.5307 125.649 35.302 125.537 35.106C125.425 34.9007 125.257 34.742 125.033 34.63C124.818 34.5087 124.529 34.448 124.165 34.448C123.549 34.448 123.063 34.658 122.709 35.078C122.354 35.4887 122.177 36.1 122.177 36.912V41H120.903V33.468H122.177V34.602ZM129.36 31.578H130.634V33.468H132.062V34.49H130.634V38.956C130.634 39.152 130.639 39.3153 130.648 39.446C130.667 39.5673 130.7 39.6653 130.746 39.74C130.802 39.8147 130.882 39.866 130.984 39.894C131.087 39.922 131.232 39.936 131.418 39.936H132.062V41H131.138C130.774 41 130.476 40.9767 130.242 40.93C130.018 40.874 129.841 40.7807 129.71 40.65C129.58 40.51 129.486 40.3187 129.43 40.076C129.384 39.824 129.36 39.502 129.36 39.11V34.49H128.17V33.468H129.36V31.578Z" fill="white"/><rect width="345" height="168" transform="translate(0 72)" fill="black"/><path d="M34.176 101.048V103.384C36.352 103.555 38.0693 104.28 39.328 105.56C40.608 106.84 41.2373 108.536 41.216 110.648H38.208C38.1867 109.816 38.0587 109.112 37.824 108.536C37.6107 107.96 37.312 107.48 36.928 107.096C36.5653 106.712 36.1387 106.424 35.648 106.232C35.1787 106.019 34.688 105.88 34.176 105.816V113.752L34.656 113.88C35.5307 114.115 36.3947 114.392 37.248 114.712C38.1013 115.032 38.8587 115.448 39.52 115.96C40.2027 116.472 40.7467 117.101 41.152 117.848C41.5573 118.595 41.76 119.523 41.76 120.632C41.76 121.72 41.5573 122.669 41.152 123.48C40.7467 124.291 40.2027 124.973 39.52 125.528C38.8373 126.083 38.0267 126.52 37.088 126.84C36.1707 127.139 35.2 127.32 34.176 127.384V130.104H32.416V127.384C31.3067 127.299 30.2933 127.043 29.376 126.616C28.48 126.189 27.7013 125.645 27.04 124.984C26.4 124.301 25.8987 123.512 25.536 122.616C25.1947 121.699 25.0347 120.707 25.056 119.64H28.064C28.0853 120.493 28.2133 121.24 28.448 121.88C28.704 122.499 29.0347 123.032 29.44 123.48C29.8453 123.907 30.304 124.248 30.816 124.504C31.328 124.739 31.8613 124.888 32.416 124.952V116.28L31.712 116.088C30.8373 115.853 30.0267 115.544 29.28 115.16C28.5547 114.776 27.9253 114.317 27.392 113.784C26.8587 113.229 26.432 112.6 26.112 111.896C25.8133 111.171 25.664 110.36 25.664 109.464C25.664 108.547 25.856 107.736 26.24 107.032C26.624 106.307 27.1253 105.688 27.744 105.176C28.3627 104.664 29.0773 104.259 29.888 103.96C30.6987 103.661 31.5413 103.469 32.416 103.384V101.048H34.176ZM38.752 121.08C38.752 120.397 38.6453 119.832 38.432 119.384C38.2187 118.915 37.9093 118.52 37.504 118.2C37.12 117.88 36.64 117.613 36.064 117.4C35.5093 117.165 34.88 116.952 34.176 116.76V124.984C34.7733 124.941 35.3493 124.835 35.904 124.664C36.4587 124.472 36.9493 124.216 37.376 123.896C37.8027 123.576 38.1333 123.181 38.368 122.712C38.624 122.243 38.752 121.699 38.752 121.08ZM28.672 109.432C28.672 110.392 28.9707 111.181 29.568 111.8C30.1867 112.419 31.1253 112.909 32.384 113.272L32.416 113.304V105.784C31.9467 105.827 31.488 105.933 31.04 106.104C30.592 106.253 30.1867 106.477 29.824 106.776C29.4827 107.075 29.2053 107.448 28.992 107.896C28.7787 108.323 28.672 108.835 28.672 109.432ZM60.9573 124.312V127H46.3013V124.312H52.5093V109.176H46.3333V107.16C47.2293 107.139 48.0399 107.085 48.7653 107C49.4906 106.915 50.1413 106.765 50.7173 106.552C51.3146 106.339 51.8373 106.04 52.2853 105.656C52.7333 105.251 53.1173 104.728 53.4373 104.088H55.4213V124.312H60.9573ZM81.2048 115.384C81.2048 112.163 80.6714 109.763 79.6048 108.184C78.5381 106.605 77.0981 105.816 75.2848 105.816C73.4501 105.816 71.9994 106.605 70.9328 108.184C69.8874 109.763 69.3648 112.163 69.3648 115.384C69.3648 118.627 69.8874 121.037 70.9328 122.616C71.9994 124.195 73.4501 124.984 75.2848 124.984C77.1194 124.984 78.5594 124.195 79.6048 122.616C80.6714 121.037 81.2048 118.627 81.2048 115.384ZM84.3088 115.384C84.3088 117.219 84.1274 118.883 83.7648 120.376C83.4021 121.848 82.8474 123.107 82.1007 124.152C81.3754 125.197 80.4368 126.008 79.2848 126.584C78.1541 127.139 76.8208 127.416 75.2848 127.416C73.7488 127.416 72.4048 127.139 71.2528 126.584C70.1221 126.008 69.1834 125.197 68.4368 124.152C67.7114 123.107 67.1674 121.848 66.8048 120.376C66.4421 118.883 66.2608 117.219 66.2608 115.384C66.2608 113.549 66.4421 111.896 66.8048 110.424C67.1674 108.931 67.7114 107.672 68.4368 106.648C69.1834 105.603 70.1221 104.803 71.2528 104.248C72.4048 103.672 73.7488 103.384 75.2848 103.384C76.8208 103.384 78.1541 103.672 79.2848 104.248C80.4368 104.803 81.3754 105.603 82.1007 106.648C82.8474 107.672 83.4021 108.931 83.7648 110.424C84.1274 111.896 84.3088 113.549 84.3088 115.384ZM88.2363 123.32H91.9163V127.256L89.9643 131.448H88.1083L89.8043 127H88.2363V123.32ZM110.736 115.384C110.736 112.163 110.203 109.763 109.136 108.184C108.069 106.605 106.629 105.816 104.816 105.816C102.981 105.816 101.531 106.605 100.464 108.184C99.4187 109.763 98.896 112.163 98.896 115.384C98.896 118.627 99.4187 121.037 100.464 122.616C101.531 124.195 102.981 124.984 104.816 124.984C106.651 124.984 108.091 124.195 109.136 122.616C110.203 121.037 110.736 118.627 110.736 115.384ZM113.84 115.384C113.84 117.219 113.659 118.883 113.296 120.376C112.933 121.848 112.379 123.107 111.632 124.152C110.907 125.197 109.968 126.008 108.816 126.584C107.685 127.139 106.352 127.416 104.816 127.416C103.28 127.416 101.936 127.139 100.784 126.584C99.6533 126.008 98.7147 125.197 97.968 124.152C97.2427 123.107 96.6987 121.848 96.336 120.376C95.9733 118.883 95.792 117.219 95.792 115.384C95.792 113.549 95.9733 111.896 96.336 110.424C96.6987 108.931 97.2427 107.672 97.968 106.648C98.7147 105.603 99.6533 104.803 100.784 104.248C101.936 103.672 103.28 103.384 104.816 103.384C106.352 103.384 107.685 103.672 108.816 104.248C109.968 104.803 110.907 105.603 111.632 106.648C112.379 107.672 112.933 108.931 113.296 110.424C113.659 111.896 113.84 113.549 113.84 115.384ZM132.424 115.384C132.424 112.163 131.89 109.763 130.824 108.184C129.757 106.605 128.317 105.816 126.504 105.816C124.669 105.816 123.218 106.605 122.152 108.184C121.106 109.763 120.584 112.163 120.584 115.384C120.584 118.627 121.106 121.037 122.152 122.616C123.218 124.195 124.669 124.984 126.504 124.984C128.338 124.984 129.778 124.195 130.824 122.616C131.89 121.037 132.424 118.627 132.424 115.384ZM135.528 115.384C135.528 117.219 135.346 118.883 134.984 120.376C134.621 121.848 134.066 123.107 133.319 124.152C132.594 125.197 131.656 126.008 130.504 126.584C129.373 127.139 128.04 127.416 126.504 127.416C124.968 127.416 123.624 127.139 122.472 126.584C121.341 126.008 120.402 125.197 119.656 124.152C118.93 123.107 118.386 121.848 118.024 120.376C117.661 118.883 117.48 117.219 117.48 115.384C117.48 113.549 117.661 111.896 118.024 110.424C118.386 108.931 118.93 107.672 119.656 106.648C120.402 105.603 121.341 104.803 122.472 104.248C123.624 103.672 124.968 103.384 126.504 103.384C128.04 103.384 129.373 103.672 130.504 104.248C131.656 104.803 132.594 105.603 133.319 106.648C134.066 107.672 134.621 108.931 134.984 110.424C135.346 111.896 135.528 113.549 135.528 115.384ZM154.111 115.384C154.111 112.163 153.578 109.763 152.511 108.184C151.444 106.605 150.004 105.816 148.191 105.816C146.356 105.816 144.906 106.605 143.839 108.184C142.794 109.763 142.271 112.163 142.271 115.384C142.271 118.627 142.794 121.037 143.839 122.616C144.906 124.195 146.356 124.984 148.191 124.984C150.026 124.984 151.466 124.195 152.511 122.616C153.578 121.037 154.111 118.627 154.111 115.384ZM157.215 115.384C157.215 117.219 157.034 118.883 156.671 120.376C156.308 121.848 155.754 123.107 155.007 124.152C154.282 125.197 153.343 126.008 152.191 126.584C151.06 127.139 149.727 127.416 148.191 127.416C146.655 127.416 145.311 127.139 144.159 126.584C143.028 126.008 142.09 125.197 141.343 124.152C140.618 123.107 140.074 121.848 139.711 120.376C139.348 118.883 139.167 117.219 139.167 115.384C139.167 113.549 139.348 111.896 139.711 110.424C140.074 108.931 140.618 107.672 141.343 106.648C142.09 105.603 143.028 104.803 144.159 104.248C145.311 103.672 146.655 103.384 148.191 103.384C149.727 103.384 151.06 103.672 152.191 104.248C153.343 104.803 154.282 105.603 155.007 106.648C155.754 107.672 156.308 108.931 156.671 110.424C157.034 111.896 157.215 113.549 157.215 115.384Z" fill="white"/><path d="M24.672 141.52C24.672 141.104 24.768 140.748 24.96 140.452C25.16 140.148 25.412 139.9 25.716 139.708C26.02 139.516 26.356 139.376 26.724 139.288C27.1 139.192 27.464 139.144 27.816 139.144C28.208 139.144 28.584 139.192 28.944 139.288C29.304 139.376 29.628 139.516 29.916 139.708C30.212 139.9 30.464 140.148 30.672 140.452C30.88 140.748 31.028 141.104 31.116 141.52H29.928C29.856 141.272 29.744 141.064 29.592 140.896C29.44 140.72 29.264 140.58 29.064 140.476C28.864 140.364 28.652 140.288 28.428 140.248C28.204 140.2 27.984 140.176 27.768 140.176C27.6 140.176 27.408 140.196 27.192 140.236C26.984 140.276 26.784 140.348 26.592 140.452C26.4 140.548 26.24 140.68 26.112 140.848C25.984 141.008 25.92 141.208 25.92 141.448C25.92 141.832 26.052 142.128 26.316 142.336C26.588 142.544 26.928 142.692 27.336 142.78L28.344 143.008C28.68 143.08 29.02 143.172 29.364 143.284C29.708 143.388 30.02 143.536 30.3 143.728C30.588 143.92 30.82 144.164 30.996 144.46C31.18 144.748 31.272 145.112 31.272 145.552C31.272 145.976 31.18 146.352 30.996 146.68C30.812 147 30.568 147.272 30.264 147.496C29.96 147.712 29.608 147.876 29.208 147.988C28.808 148.1 28.392 148.156 27.96 148.156C27.448 148.156 26.984 148.088 26.568 147.952C26.152 147.816 25.792 147.624 25.488 147.376C25.184 147.128 24.936 146.828 24.744 146.476C24.56 146.124 24.44 145.732 24.384 145.3H25.584C25.696 145.9 25.956 146.356 26.364 146.668C26.772 146.972 27.312 147.124 27.984 147.124C28.632 147.124 29.132 146.988 29.484 146.716C29.836 146.444 30.012 146.092 30.012 145.66C30.012 145.436 29.964 145.24 29.868 145.072C29.78 144.904 29.652 144.76 29.484 144.64C29.316 144.52 29.116 144.42 28.884 144.34C28.66 144.26 28.412 144.188 28.14 144.124L27.06 143.896C26.764 143.832 26.472 143.74 26.184 143.62C25.896 143.5 25.64 143.344 25.416 143.152C25.192 142.96 25.012 142.732 24.876 142.468C24.74 142.196 24.672 141.88 24.672 141.52ZM35.4153 148.156C34.8953 148.156 34.4393 148.072 34.0473 147.904C33.6633 147.728 33.3393 147.488 33.0753 147.184C32.8113 146.88 32.6113 146.524 32.4753 146.116C32.3473 145.708 32.2833 145.264 32.2833 144.784C32.2833 144.272 32.3593 143.812 32.5113 143.404C32.6713 142.988 32.8873 142.636 33.1593 142.348C33.4393 142.052 33.7673 141.828 34.1433 141.676C34.5193 141.516 34.9313 141.436 35.3793 141.436C35.8753 141.436 36.3153 141.532 36.6993 141.724C37.0913 141.916 37.4153 142.18 37.6713 142.516C37.9273 142.852 38.1113 143.244 38.2233 143.692C38.3433 144.14 38.3873 144.62 38.3553 145.132H33.4713C33.4713 145.452 33.5193 145.74 33.6153 145.996C33.7193 146.252 33.8593 146.468 34.0353 146.644C34.2113 146.82 34.4153 146.956 34.6473 147.052C34.8793 147.148 35.1273 147.196 35.3913 147.196C35.8953 147.196 36.2793 147.1 36.5433 146.908C36.8073 146.708 37.0073 146.448 37.1433 146.128H38.2713C38.1993 146.408 38.0833 146.672 37.9233 146.92C37.7633 147.16 37.5633 147.372 37.3233 147.556C37.0913 147.74 36.8153 147.888 36.4953 148C36.1753 148.104 35.8153 148.156 35.4153 148.156ZM35.3793 142.372C34.8273 142.372 34.3793 142.532 34.0353 142.852C33.6913 143.164 33.5073 143.612 33.4833 144.196H37.2033C37.1953 143.972 37.1513 143.752 37.0713 143.536C36.9913 143.312 36.8753 143.116 36.7233 142.948C36.5713 142.772 36.3833 142.632 36.1593 142.528C35.9353 142.424 35.6753 142.372 35.3793 142.372ZM40.7333 148H39.6413V139.3H40.7333V148ZM45.1536 148.156C44.6336 148.156 44.1776 148.072 43.7856 147.904C43.4016 147.728 43.0776 147.488 42.8136 147.184C42.5496 146.88 42.3496 146.524 42.2136 146.116C42.0856 145.708 42.0216 145.264 42.0216 144.784C42.0216 144.272 42.0976 143.812 42.2496 143.404C42.4096 142.988 42.6256 142.636 42.8976 142.348C43.1776 142.052 43.5056 141.828 43.8816 141.676C44.2576 141.516 44.6696 141.436 45.1176 141.436C45.6136 141.436 46.0536 141.532 46.4376 141.724C46.8296 141.916 47.1536 142.18 47.4096 142.516C47.6656 142.852 47.8496 143.244 47.9616 143.692C48.0816 144.14 48.1256 144.62 48.0936 145.132H43.2096C43.2096 145.452 43.2576 145.74 43.3536 145.996C43.4576 146.252 43.5976 146.468 43.7736 146.644C43.9496 146.82 44.1536 146.956 44.3856 147.052C44.6176 147.148 44.8656 147.196 45.1296 147.196C45.6336 147.196 46.0176 147.1 46.2816 146.908C46.5456 146.708 46.7456 146.448 46.8816 146.128H48.0096C47.9376 146.408 47.8216 146.672 47.6616 146.92C47.5016 147.16 47.3016 147.372 47.0616 147.556C46.8296 147.74 46.5536 147.888 46.2336 148C45.9136 148.104 45.5536 148.156 45.1536 148.156ZM45.1176 142.372C44.5656 142.372 44.1176 142.532 43.7736 142.852C43.4296 143.164 43.2456 143.612 43.2216 144.196H46.9416C46.9336 143.972 46.8896 143.752 46.8096 143.536C46.7296 143.312 46.6136 143.116 46.4616 142.948C46.3096 142.772 46.1216 142.632 45.8976 142.528C45.6736 142.424 45.4136 142.372 45.1176 142.372ZM52.0782 141.436C52.4782 141.436 52.8342 141.504 53.1462 141.64C53.4582 141.768 53.7262 141.94 53.9502 142.156C54.1742 142.372 54.3502 142.616 54.4782 142.888C54.6142 143.16 54.7022 143.432 54.7422 143.704H53.6382C53.5582 143.32 53.3742 143.008 53.0862 142.768C52.8062 142.52 52.4462 142.396 52.0062 142.396C51.7502 142.396 51.5102 142.444 51.2862 142.54C51.0702 142.636 50.8782 142.784 50.7102 142.984C50.5502 143.176 50.4222 143.42 50.3262 143.716C50.2302 144.012 50.1822 144.364 50.1822 144.772C50.1822 145.18 50.2302 145.536 50.3262 145.84C50.4222 146.144 50.5542 146.396 50.7222 146.596C50.8902 146.796 51.0822 146.948 51.2982 147.052C51.5222 147.148 51.7582 147.196 52.0062 147.196C52.2462 147.196 52.4582 147.16 52.6422 147.088C52.8342 147.016 52.9982 146.92 53.1342 146.8C53.2782 146.68 53.3942 146.544 53.4822 146.392C53.5782 146.232 53.6462 146.068 53.6862 145.9H54.8142C54.7582 146.204 54.6502 146.492 54.4902 146.764C54.3302 147.036 54.1262 147.276 53.8782 147.484C53.6382 147.692 53.3542 147.856 53.0262 147.976C52.7062 148.096 52.3542 148.156 51.9702 148.156C51.4982 148.156 51.0782 148.072 50.7102 147.904C50.3422 147.736 50.0302 147.504 49.7742 147.208C49.5182 146.912 49.3222 146.56 49.1862 146.152C49.0582 145.736 48.9942 145.28 48.9942 144.784C48.9942 144.304 49.0622 143.86 49.1982 143.452C49.3422 143.044 49.5462 142.692 49.8102 142.396C50.0742 142.092 50.3942 141.856 50.7702 141.688C51.1542 141.52 51.5902 141.436 52.0782 141.436ZM56.3596 139.924H57.4516V141.544H58.6756V142.42H57.4516V146.248C57.4516 146.416 57.4556 146.556 57.4636 146.668C57.4796 146.772 57.5076 146.856 57.5476 146.92C57.5956 146.984 57.6636 147.028 57.7516 147.052C57.8396 147.076 57.9636 147.088 58.1236 147.088H58.6756V148H57.8836C57.5716 148 57.3156 147.98 57.1156 147.94C56.9236 147.892 56.7716 147.812 56.6596 147.7C56.5476 147.58 56.4676 147.416 56.4196 147.208C56.3796 146.992 56.3596 146.716 56.3596 146.38V142.42H55.3396V141.544H56.3596V139.924ZM62.5793 148.156C62.0593 148.156 61.6033 148.072 61.2113 147.904C60.8273 147.728 60.5033 147.488 60.2393 147.184C59.9753 146.88 59.7753 146.524 59.6393 146.116C59.5113 145.708 59.4473 145.264 59.4473 144.784C59.4473 144.272 59.5233 143.812 59.6753 143.404C59.8353 142.988 60.0513 142.636 60.3233 142.348C60.6033 142.052 60.9313 141.828 61.3073 141.676C61.6833 141.516 62.0953 141.436 62.5433 141.436C63.0393 141.436 63.4793 141.532 63.8633 141.724C64.2553 141.916 64.5793 142.18 64.8353 142.516C65.0913 142.852 65.2753 143.244 65.3873 143.692C65.5073 144.14 65.5513 144.62 65.5193 145.132H60.6353C60.6353 145.452 60.6833 145.74 60.7793 145.996C60.8833 146.252 61.0233 146.468 61.1993 146.644C61.3753 146.82 61.5793 146.956 61.8113 147.052C62.0433 147.148 62.2913 147.196 62.5553 147.196C63.0593 147.196 63.4433 147.1 63.7073 146.908C63.9713 146.708 64.1713 146.448 64.3073 146.128H65.4353C65.3633 146.408 65.2473 146.672 65.0873 146.92C64.9273 147.16 64.7273 147.372 64.4873 147.556C64.2553 147.74 63.9793 147.888 63.6593 148C63.3393 148.104 62.9793 148.156 62.5793 148.156ZM62.5433 142.372C61.9913 142.372 61.5433 142.532 61.1993 142.852C60.8553 143.164 60.6713 143.612 60.6473 144.196H64.3673C64.3593 143.972 64.3153 143.752 64.2353 143.536C64.1553 143.312 64.0393 143.116 63.8873 142.948C63.7353 142.772 63.5473 142.632 63.3233 142.528C63.0993 142.424 62.8393 142.372 62.5433 142.372ZM71.256 139.3H72.348V148H71.256V147.028C71.056 147.372 70.784 147.648 70.44 147.856C70.096 148.056 69.664 148.156 69.144 148.156C68.76 148.156 68.404 148.084 68.076 147.94C67.748 147.788 67.46 147.568 67.212 147.28C66.964 146.992 66.768 146.64 66.624 146.224C66.488 145.808 66.42 145.332 66.42 144.796C66.42 144.268 66.488 143.796 66.624 143.38C66.768 142.964 66.964 142.612 67.212 142.324C67.46 142.036 67.748 141.816 68.076 141.664C68.404 141.512 68.76 141.436 69.144 141.436C69.664 141.436 70.096 141.54 70.44 141.748C70.784 141.948 71.056 142.22 71.256 142.564V139.3ZM71.304 144.796C71.304 144.372 71.252 144.008 71.148 143.704C71.044 143.392 70.904 143.14 70.728 142.948C70.552 142.748 70.348 142.604 70.116 142.516C69.892 142.42 69.66 142.372 69.42 142.372C68.836 142.372 68.388 142.584 68.076 143.008C67.764 143.424 67.608 144.02 67.608 144.796C67.608 145.572 67.764 146.172 68.076 146.596C68.388 147.012 68.836 147.22 69.42 147.22C69.66 147.22 69.892 147.176 70.116 147.088C70.348 146.992 70.552 146.848 70.728 146.656C70.904 146.456 71.044 146.204 71.148 145.9C71.252 145.588 71.304 145.22 71.304 144.796ZM80.9987 144.892C80.5027 144.94 80.0547 145 79.6547 145.072C79.2547 145.136 78.9147 145.22 78.6347 145.324C78.3547 145.42 78.1387 145.548 77.9867 145.708C77.8347 145.86 77.7587 146.048 77.7587 146.272C77.7587 146.576 77.8667 146.824 78.0827 147.016C78.3067 147.2 78.6147 147.292 79.0067 147.292C79.2627 147.292 79.5107 147.26 79.7507 147.196C79.9907 147.124 80.2027 147.008 80.3867 146.848C80.5707 146.68 80.7187 146.456 80.8307 146.176C80.9427 145.896 80.9987 145.54 80.9987 145.108V144.892ZM78.7667 148.156C78.4627 148.156 78.1747 148.112 77.9027 148.024C77.6387 147.944 77.4027 147.828 77.1947 147.676C76.9947 147.516 76.8347 147.324 76.7147 147.1C76.6027 146.868 76.5467 146.608 76.5467 146.32C76.5467 145.936 76.6507 145.616 76.8587 145.36C77.0667 145.096 77.3587 144.88 77.7347 144.712C78.1187 144.536 78.5787 144.396 79.1147 144.292C79.6507 144.188 80.2507 144.1 80.9147 144.028V143.848C80.9147 143.544 80.8747 143.292 80.7947 143.092C80.7227 142.892 80.6187 142.736 80.4827 142.624C80.3467 142.504 80.1867 142.42 80.0027 142.372C79.8187 142.324 79.6227 142.3 79.4147 142.3C78.9107 142.3 78.5307 142.416 78.2747 142.648C78.0187 142.872 77.8787 143.184 77.8547 143.584H76.7267C76.7507 143.24 76.8427 142.932 77.0027 142.66C77.1627 142.388 77.3667 142.16 77.6147 141.976C77.8627 141.792 78.1427 141.652 78.4547 141.556C78.7667 141.46 79.0907 141.412 79.4267 141.412C80.3227 141.412 80.9787 141.62 81.3947 142.036C81.8107 142.452 82.0147 143.124 82.0067 144.052L81.9947 145.564C81.9867 146.108 81.9947 146.576 82.0187 146.968C82.0507 147.352 82.0987 147.696 82.1627 148H81.0587C81.0427 147.88 81.0267 147.74 81.0107 147.58C80.9947 147.42 80.9827 147.244 80.9747 147.052C80.7747 147.388 80.4987 147.656 80.1467 147.856C79.8027 148.056 79.3427 148.156 78.7667 148.156ZM88.0138 139.3H89.1058V148H88.0138V147.028C87.8138 147.372 87.5418 147.648 87.1978 147.856C86.8538 148.056 86.4218 148.156 85.9018 148.156C85.5178 148.156 85.1618 148.084 84.8338 147.94C84.5058 147.788 84.2178 147.568 83.9698 147.28C83.7218 146.992 83.5258 146.64 83.3818 146.224C83.2458 145.808 83.1778 145.332 83.1778 144.796C83.1778 144.268 83.2458 143.796 83.3818 143.38C83.5258 142.964 83.7218 142.612 83.9698 142.324C84.2178 142.036 84.5058 141.816 84.8338 141.664C85.1618 141.512 85.5178 141.436 85.9018 141.436C86.4218 141.436 86.8538 141.54 87.1978 141.748C87.5418 141.948 87.8138 142.22 88.0138 142.564V139.3ZM88.0618 144.796C88.0618 144.372 88.0098 144.008 87.9058 143.704C87.8018 143.392 87.6618 143.14 87.4858 142.948C87.3098 142.748 87.1058 142.604 86.8738 142.516C86.6498 142.42 86.4178 142.372 86.1778 142.372C85.5938 142.372 85.1458 142.584 84.8338 143.008C84.5218 143.424 84.3658 144.02 84.3658 144.796C84.3658 145.572 84.5218 146.172 84.8338 146.596C85.1458 147.012 85.5938 147.22 86.1778 147.22C86.4178 147.22 86.6498 147.176 86.8738 147.088C87.1058 146.992 87.3098 146.848 87.4858 146.656C87.6618 146.456 87.8018 146.204 87.9058 145.9C88.0098 145.588 88.0618 145.22 88.0618 144.796ZM92.9288 146.488L94.6808 141.544H95.8088L93.3728 148H92.4008L89.9648 141.544H91.1768L92.9288 146.488ZM100.522 144.892C100.026 144.94 99.5781 145 99.1781 145.072C98.7781 145.136 98.4381 145.22 98.1581 145.324C97.8781 145.42 97.6621 145.548 97.5101 145.708C97.3581 145.86 97.2821 146.048 97.2821 146.272C97.2821 146.576 97.3901 146.824 97.6061 147.016C97.8301 147.2 98.1381 147.292 98.5301 147.292C98.7861 147.292 99.0341 147.26 99.2741 147.196C99.5141 147.124 99.7261 147.008 99.9101 146.848C100.094 146.68 100.242 146.456 100.354 146.176C100.466 145.896 100.522 145.54 100.522 145.108V144.892ZM98.2901 148.156C97.9861 148.156 97.6981 148.112 97.4261 148.024C97.1621 147.944 96.9261 147.828 96.7181 147.676C96.5181 147.516 96.3581 147.324 96.2381 147.1C96.1261 146.868 96.0701 146.608 96.0701 146.32C96.0701 145.936 96.1741 145.616 96.3821 145.36C96.5901 145.096 96.8821 144.88 97.2581 144.712C97.6421 144.536 98.1021 144.396 98.6381 144.292C99.1741 144.188 99.7741 144.1 100.438 144.028V143.848C100.438 143.544 100.398 143.292 100.318 143.092C100.246 142.892 100.142 142.736 100.006 142.624C99.8701 142.504 99.7101 142.42 99.5261 142.372C99.3421 142.324 99.1461 142.3 98.9381 142.3C98.4341 142.3 98.0541 142.416 97.7981 142.648C97.5421 142.872 97.4021 143.184 97.3781 143.584H96.2501C96.2741 143.24 96.3661 142.932 96.5261 142.66C96.6861 142.388 96.8901 142.16 97.1381 141.976C97.3861 141.792 97.6661 141.652 97.9781 141.556C98.2901 141.46 98.6141 141.412 98.9501 141.412C99.8461 141.412 100.502 141.62 100.918 142.036C101.334 142.452 101.538 143.124 101.53 144.052L101.518 145.564C101.51 146.108 101.518 146.576 101.542 146.968C101.574 147.352 101.622 147.696 101.686 148H100.582C100.566 147.88 100.55 147.74 100.534 147.58C100.518 147.42 100.506 147.244 100.498 147.052C100.298 147.388 100.022 147.656 99.6701 147.856C99.3261 148.056 98.8661 148.156 98.2901 148.156ZM104.237 142.516C104.421 142.212 104.677 141.956 105.005 141.748C105.341 141.54 105.781 141.436 106.325 141.436C106.717 141.436 107.045 141.496 107.309 141.616C107.581 141.736 107.801 141.908 107.969 142.132C108.137 142.348 108.257 142.608 108.329 142.912C108.409 143.216 108.449 143.552 108.449 143.92V148H107.357V144.244C107.357 143.996 107.341 143.76 107.309 143.536C107.277 143.312 107.213 143.116 107.117 142.948C107.021 142.772 106.877 142.636 106.685 142.54C106.501 142.436 106.253 142.384 105.941 142.384C105.413 142.384 104.997 142.564 104.693 142.924C104.389 143.276 104.237 143.8 104.237 144.496V148H103.145V141.544H104.237V142.516ZM112.723 141.436C113.123 141.436 113.479 141.504 113.791 141.64C114.103 141.768 114.371 141.94 114.595 142.156C114.819 142.372 114.995 142.616 115.123 142.888C115.259 143.16 115.347 143.432 115.387 143.704H114.283C114.203 143.32 114.019 143.008 113.731 142.768C113.451 142.52 113.091 142.396 112.651 142.396C112.395 142.396 112.155 142.444 111.931 142.54C111.715 142.636 111.523 142.784 111.355 142.984C111.195 143.176 111.067 143.42 110.971 143.716C110.875 144.012 110.827 144.364 110.827 144.772C110.827 145.18 110.875 145.536 110.971 145.84C111.067 146.144 111.199 146.396 111.367 146.596C111.535 146.796 111.727 146.948 111.943 147.052C112.167 147.148 112.403 147.196 112.651 147.196C112.891 147.196 113.103 147.16 113.287 147.088C113.479 147.016 113.643 146.92 113.779 146.8C113.923 146.68 114.039 146.544 114.127 146.392C114.223 146.232 114.291 146.068 114.331 145.9H115.459C115.403 146.204 115.295 146.492 115.135 146.764C114.975 147.036 114.771 147.276 114.523 147.484C114.283 147.692 113.999 147.856 113.671 147.976C113.351 148.096 112.999 148.156 112.615 148.156C112.143 148.156 111.723 148.072 111.355 147.904C110.987 147.736 110.675 147.504 110.419 147.208C110.163 146.912 109.967 146.56 109.831 146.152C109.703 145.736 109.639 145.28 109.639 144.784C109.639 144.304 109.707 143.86 109.843 143.452C109.987 143.044 110.191 142.692 110.455 142.396C110.719 142.092 111.039 141.856 111.415 141.688C111.799 141.52 112.235 141.436 112.723 141.436ZM119.439 148.156C118.919 148.156 118.463 148.072 118.071 147.904C117.687 147.728 117.363 147.488 117.099 147.184C116.835 146.88 116.635 146.524 116.499 146.116C116.371 145.708 116.307 145.264 116.307 144.784C116.307 144.272 116.383 143.812 116.535 143.404C116.695 142.988 116.911 142.636 117.183 142.348C117.463 142.052 117.791 141.828 118.167 141.676C118.543 141.516 118.955 141.436 119.403 141.436C119.899 141.436 120.339 141.532 120.723 141.724C121.115 141.916 121.439 142.18 121.695 142.516C121.951 142.852 122.135 143.244 122.247 143.692C122.367 144.14 122.411 144.62 122.379 145.132H117.495C117.495 145.452 117.543 145.74 117.639 145.996C117.743 146.252 117.883 146.468 118.059 146.644C118.235 146.82 118.439 146.956 118.671 147.052C118.903 147.148 119.151 147.196 119.415 147.196C119.919 147.196 120.303 147.1 120.567 146.908C120.831 146.708 121.031 146.448 121.167 146.128H122.295C122.223 146.408 122.107 146.672 121.947 146.92C121.787 147.16 121.587 147.372 121.347 147.556C121.115 147.74 120.839 147.888 120.519 148C120.199 148.104 119.839 148.156 119.439 148.156ZM119.403 142.372C118.851 142.372 118.403 142.532 118.059 142.852C117.715 143.164 117.531 143.612 117.507 144.196H121.227C121.219 143.972 121.175 143.752 121.095 143.536C121.015 143.312 120.899 143.116 120.747 142.948C120.595 142.772 120.407 142.632 120.183 142.528C119.959 142.424 119.699 142.372 119.403 142.372ZM130.592 144.892C130.096 144.94 129.648 145 129.248 145.072C128.848 145.136 128.508 145.22 128.228 145.324C127.948 145.42 127.732 145.548 127.58 145.708C127.428 145.86 127.352 146.048 127.352 146.272C127.352 146.576 127.46 146.824 127.676 147.016C127.9 147.2 128.208 147.292 128.6 147.292C128.856 147.292 129.104 147.26 129.344 147.196C129.584 147.124 129.796 147.008 129.98 146.848C130.164 146.68 130.312 146.456 130.424 146.176C130.536 145.896 130.592 145.54 130.592 145.108V144.892ZM128.36 148.156C128.056 148.156 127.768 148.112 127.496 148.024C127.232 147.944 126.996 147.828 126.788 147.676C126.588 147.516 126.428 147.324 126.308 147.1C126.196 146.868 126.14 146.608 126.14 146.32C126.14 145.936 126.244 145.616 126.452 145.36C126.66 145.096 126.952 144.88 127.328 144.712C127.712 144.536 128.172 144.396 128.708 144.292C129.244 144.188 129.844 144.1 130.508 144.028V143.848C130.508 143.544 130.468 143.292 130.388 143.092C130.316 142.892 130.212 142.736 130.076 142.624C129.94 142.504 129.78 142.42 129.596 142.372C129.412 142.324 129.216 142.3 129.008 142.3C128.504 142.3 128.124 142.416 127.868 142.648C127.612 142.872 127.472 143.184 127.448 143.584H126.32C126.344 143.24 126.436 142.932 126.596 142.66C126.756 142.388 126.96 142.16 127.208 141.976C127.456 141.792 127.736 141.652 128.048 141.556C128.36 141.46 128.684 141.412 129.02 141.412C129.916 141.412 130.572 141.62 130.988 142.036C131.404 142.452 131.608 143.124 131.6 144.052L131.588 145.564C131.58 146.108 131.588 146.576 131.612 146.968C131.644 147.352 131.692 147.696 131.756 148H130.652C130.636 147.88 130.62 147.74 130.604 147.58C130.588 147.42 130.576 147.244 130.568 147.052C130.368 147.388 130.092 147.656 129.74 147.856C129.396 148.056 128.936 148.156 128.36 148.156ZM134.308 148H133.216V141.544H134.308V142.516C134.492 142.212 134.74 141.956 135.052 141.748C135.364 141.54 135.764 141.436 136.252 141.436C136.748 141.436 137.144 141.536 137.44 141.736C137.744 141.936 137.968 142.216 138.112 142.576C138.368 142.176 138.68 141.888 139.048 141.712C139.416 141.528 139.828 141.436 140.284 141.436C140.66 141.436 140.98 141.496 141.244 141.616C141.508 141.736 141.724 141.908 141.892 142.132C142.06 142.348 142.18 142.608 142.252 142.912C142.332 143.216 142.372 143.552 142.372 143.92V148H141.28V144.244C141.28 143.996 141.264 143.76 141.232 143.536C141.2 143.312 141.132 143.116 141.028 142.948C140.932 142.772 140.792 142.636 140.608 142.54C140.432 142.436 140.196 142.384 139.9 142.384C139.428 142.384 139.048 142.564 138.76 142.924C138.48 143.276 138.34 143.8 138.34 144.496V148H137.248V144.244C137.248 143.996 137.232 143.76 137.2 143.536C137.168 143.312 137.1 143.116 136.996 142.948C136.9 142.772 136.76 142.636 136.576 142.54C136.4 142.436 136.164 142.384 135.868 142.384C135.396 142.384 135.016 142.564 134.728 142.924C134.448 143.276 134.308 143.8 134.308 144.496V148ZM144.753 144.796C144.753 145.228 144.801 145.596 144.897 145.9C145.001 146.204 145.137 146.452 145.305 146.644C145.481 146.836 145.685 146.976 145.917 147.064C146.149 147.152 146.393 147.196 146.649 147.196C146.905 147.196 147.149 147.148 147.381 147.052C147.613 146.956 147.813 146.812 147.981 146.62C148.157 146.42 148.293 146.172 148.389 145.876C148.493 145.572 148.545 145.212 148.545 144.796C148.545 144.364 148.493 143.996 148.389 143.692C148.293 143.388 148.157 143.14 147.981 142.948C147.813 142.756 147.613 142.616 147.381 142.528C147.149 142.44 146.905 142.396 146.649 142.396C146.393 142.396 146.149 142.44 145.917 142.528C145.685 142.608 145.481 142.744 145.305 142.936C145.137 143.128 145.001 143.376 144.897 143.68C144.801 143.984 144.753 144.356 144.753 144.796ZM143.589 144.796C143.589 144.212 143.673 143.708 143.841 143.284C144.017 142.86 144.249 142.512 144.537 142.24C144.825 141.968 145.153 141.768 145.521 141.64C145.889 141.504 146.265 141.436 146.649 141.436C147.033 141.436 147.409 141.504 147.777 141.64C148.145 141.768 148.473 141.968 148.761 142.24C149.049 142.512 149.277 142.86 149.445 143.284C149.621 143.708 149.709 144.212 149.709 144.796C149.709 145.38 149.621 145.884 149.445 146.308C149.277 146.732 149.049 147.08 148.761 147.352C148.473 147.624 148.145 147.828 147.777 147.964C147.409 148.092 147.033 148.156 146.649 148.156C146.265 148.156 145.889 148.092 145.521 147.964C145.153 147.828 144.825 147.624 144.537 147.352C144.249 147.08 144.017 146.732 143.841 146.308C143.673 145.884 143.589 145.38 143.589 144.796ZM155.012 147.076C154.828 147.38 154.576 147.636 154.256 147.844C153.944 148.052 153.52 148.156 152.984 148.156C152.608 148.156 152.288 148.096 152.024 147.976C151.768 147.856 151.556 147.688 151.388 147.472C151.228 147.248 151.108 146.984 151.028 146.68C150.956 146.376 150.92 146.04 150.92 145.672V141.544H152.012V145.348C152.012 145.596 152.024 145.832 152.048 146.056C152.08 146.28 152.144 146.48 152.24 146.656C152.336 146.824 152.472 146.96 152.648 147.064C152.832 147.16 153.072 147.208 153.368 147.208C153.888 147.208 154.292 147.032 154.58 146.68C154.868 146.32 155.012 145.792 155.012 145.096V141.544H156.104V148H155.012V147.076ZM158.929 142.516C159.113 142.212 159.369 141.956 159.697 141.748C160.033 141.54 160.473 141.436 161.017 141.436C161.409 141.436 161.737 141.496 162.001 141.616C162.273 141.736 162.493 141.908 162.661 142.132C162.829 142.348 162.949 142.608 163.021 142.912C163.101 143.216 163.141 143.552 163.141 143.92V148H162.049V144.244C162.049 143.996 162.033 143.76 162.001 143.536C161.969 143.312 161.905 143.116 161.809 142.948C161.713 142.772 161.569 142.636 161.377 142.54C161.193 142.436 160.945 142.384 160.633 142.384C160.105 142.384 159.689 142.564 159.385 142.924C159.081 143.276 158.929 143.8 158.929 144.496V148H157.837V141.544H158.929V142.516ZM165.086 139.924H166.178V141.544H167.402V142.42H166.178V146.248C166.178 146.416 166.182 146.556 166.19 146.668C166.206 146.772 166.234 146.856 166.274 146.92C166.322 146.984 166.39 147.028 166.478 147.052C166.566 147.076 166.69 147.088 166.85 147.088H167.402V148H166.61C166.298 148 166.042 147.98 165.842 147.94C165.65 147.892 165.498 147.812 165.386 147.7C165.274 147.58 165.194 147.416 165.146 147.208C165.106 146.992 165.086 146.716 165.086 146.38V142.42H164.066V141.544H165.086V139.924Z" fill="white" fill-opacity="0.5"/><path d="M300.505 139.3H306.409V140.356H301.729V142.996H306.133V144.052H301.729V146.944H306.409V148H300.505V139.3ZM312.322 139.3H313.414V148H312.322V147.028C312.122 147.372 311.85 147.648 311.506 147.856C311.162 148.056 310.73 148.156 310.21 148.156C309.826 148.156 309.47 148.084 309.142 147.94C308.814 147.788 308.526 147.568 308.278 147.28C308.03 146.992 307.834 146.64 307.69 146.224C307.554 145.808 307.486 145.332 307.486 144.796C307.486 144.268 307.554 143.796 307.69 143.38C307.834 142.964 308.03 142.612 308.278 142.324C308.526 142.036 308.814 141.816 309.142 141.664C309.47 141.512 309.826 141.436 310.21 141.436C310.73 141.436 311.162 141.54 311.506 141.748C311.85 141.948 312.122 142.22 312.322 142.564V139.3ZM312.37 144.796C312.37 144.372 312.318 144.008 312.214 143.704C312.11 143.392 311.97 143.14 311.794 142.948C311.618 142.748 311.414 142.604 311.182 142.516C310.958 142.42 310.726 142.372 310.486 142.372C309.902 142.372 309.454 142.584 309.142 143.008C308.83 143.424 308.674 144.02 308.674 144.796C308.674 145.572 308.83 146.172 309.142 146.596C309.454 147.012 309.902 147.22 310.486 147.22C310.726 147.22 310.958 147.176 311.182 147.088C311.414 146.992 311.618 146.848 311.794 146.656C311.97 146.456 312.11 146.204 312.214 145.9C312.318 145.588 312.37 145.22 312.37 144.796ZM316.229 141.544V148H315.137V141.544H316.229ZM316.229 139.3V140.62H315.137V139.3H316.229ZM318.274 139.924H319.366V141.544H320.59V142.42H319.366V146.248C319.366 146.416 319.37 146.556 319.378 146.668C319.394 146.772 319.422 146.856 319.462 146.92C319.51 146.984 319.578 147.028 319.666 147.052C319.754 147.076 319.878 147.088 320.038 147.088H320.59V148H319.798C319.486 148 319.23 147.98 319.03 147.94C318.838 147.892 318.686 147.812 318.574 147.7C318.462 147.58 318.382 147.416 318.334 147.208C318.294 146.992 318.274 146.716 318.274 146.38V142.42H317.254V141.544H318.274V139.924Z" fill="white"/><g clip-path="url(#clip1_11728_70609)"><rect width="297" height="16" transform="translate(24 168)" fill="white" fill-opacity="0.1"/><path d="M24 176H171.958" stroke="white" stroke-width="16"/><path d="M171.958 176H172.958" stroke="#1A1A1A" stroke-width="16"/></g><path d="M176.833 159.5C181.528 159.5 185.333 163.306 185.333 168V184C185.333 188.694 181.528 192.5 176.833 192.5C172.139 192.5 168.333 188.694 168.333 184V168C168.333 163.306 172.139 159.5 176.833 159.5Z" fill="white"/><path d="M176.833 159.5C181.528 159.5 185.333 163.306 185.333 168V184C185.333 188.694 181.528 192.5 176.833 192.5C172.139 192.5 168.333 188.694 168.333 184V168C168.333 163.306 172.139 159.5 176.833 159.5Z" stroke="#1A1A1A"/><path d="M178.583 178.75V179.5H177.833V178.75H178.583ZM175.833 178.75V179.5H175.083V178.75H175.833ZM178.583 175.575V176.375H177.833V175.575H178.583ZM175.833 175.575V176.375H175.083V175.575H175.833ZM178.583 172.5V173.25H177.833V172.5H178.583ZM175.833 172.5V173.25H175.083V172.5H175.833Z" fill="white" stroke="white"/><path d="M27.816 202.268V203.144C28.632 203.208 29.276 203.48 29.748 203.96C30.228 204.44 30.464 205.076 30.456 205.868H29.328C29.32 205.556 29.272 205.292 29.184 205.076C29.104 204.86 28.992 204.68 28.848 204.536C28.712 204.392 28.552 204.284 28.368 204.212C28.192 204.132 28.008 204.08 27.816 204.056V207.032L27.996 207.08C28.324 207.168 28.648 207.272 28.968 207.392C29.288 207.512 29.572 207.668 29.82 207.86C30.076 208.052 30.28 208.288 30.432 208.568C30.584 208.848 30.66 209.196 30.66 209.612C30.66 210.02 30.584 210.376 30.432 210.68C30.28 210.984 30.076 211.24 29.82 211.448C29.564 211.656 29.26 211.82 28.908 211.94C28.564 212.052 28.2 212.12 27.816 212.144V213.164H27.156V212.144C26.74 212.112 26.36 212.016 26.016 211.856C25.68 211.696 25.388 211.492 25.14 211.244C24.9 210.988 24.712 210.692 24.576 210.356C24.448 210.012 24.388 209.64 24.396 209.24H25.524C25.532 209.56 25.58 209.84 25.668 210.08C25.764 210.312 25.888 210.512 26.04 210.68C26.192 210.84 26.364 210.968 26.556 211.064C26.748 211.152 26.948 211.208 27.156 211.232V207.98L26.892 207.908C26.564 207.82 26.26 207.704 25.98 207.56C25.708 207.416 25.472 207.244 25.272 207.044C25.072 206.836 24.912 206.6 24.792 206.336C24.68 206.064 24.624 205.76 24.624 205.424C24.624 205.08 24.696 204.776 24.84 204.512C24.984 204.24 25.172 204.008 25.404 203.816C25.636 203.624 25.904 203.472 26.208 203.36C26.512 203.248 26.828 203.176 27.156 203.144V202.268H27.816ZM29.532 209.78C29.532 209.524 29.492 209.312 29.412 209.144C29.332 208.968 29.216 208.82 29.064 208.7C28.92 208.58 28.74 208.48 28.524 208.4C28.316 208.312 28.08 208.232 27.816 208.16V211.244C28.04 211.228 28.256 211.188 28.464 211.124C28.672 211.052 28.856 210.956 29.016 210.836C29.176 210.716 29.3 210.568 29.388 210.392C29.484 210.216 29.532 210.012 29.532 209.78ZM25.752 205.412C25.752 205.772 25.864 206.068 26.088 206.3C26.32 206.532 26.672 206.716 27.144 206.852L27.156 206.864V204.044C26.98 204.06 26.808 204.1 26.64 204.164C26.472 204.22 26.32 204.304 26.184 204.416C26.056 204.528 25.952 204.668 25.872 204.836C25.792 204.996 25.752 205.188 25.752 205.412ZM37.319 207.644C37.319 206.436 37.119 205.536 36.719 204.944C36.319 204.352 35.779 204.056 35.099 204.056C34.411 204.056 33.867 204.352 33.467 204.944C33.075 205.536 32.879 206.436 32.879 207.644C32.879 208.86 33.075 209.764 33.467 210.356C33.867 210.948 34.411 211.244 35.099 211.244C35.787 211.244 36.327 210.948 36.719 210.356C37.119 209.764 37.319 208.86 37.319 207.644ZM38.483 207.644C38.483 208.332 38.415 208.956 38.279 209.516C38.143 210.068 37.935 210.54 37.655 210.932C37.383 211.324 37.031 211.628 36.599 211.844C36.175 212.052 35.675 212.156 35.099 212.156C34.523 212.156 34.019 212.052 33.587 211.844C33.163 211.628 32.811 211.324 32.531 210.932C32.259 210.54 32.055 210.068 31.919 209.516C31.783 208.956 31.715 208.332 31.715 207.644C31.715 206.956 31.783 206.336 31.919 205.784C32.055 205.224 32.259 204.752 32.531 204.368C32.811 203.976 33.163 203.676 33.587 203.468C34.019 203.252 34.523 203.144 35.099 203.144C35.675 203.144 36.175 203.252 36.599 203.468C37.031 203.676 37.383 203.976 37.655 204.368C37.935 204.752 38.143 205.224 38.279 205.784C38.415 206.336 38.483 206.956 38.483 207.644Z" fill="white"/><path d="M274.168 202.268V203.144C274.984 203.208 275.628 203.48 276.1 203.96C276.58 204.44 276.816 205.076 276.808 205.868H275.68C275.672 205.556 275.624 205.292 275.536 205.076C275.456 204.86 275.344 204.68 275.2 204.536C275.064 204.392 274.904 204.284 274.72 204.212C274.544 204.132 274.36 204.08 274.168 204.056V207.032L274.348 207.08C274.676 207.168 275 207.272 275.32 207.392C275.64 207.512 275.924 207.668 276.172 207.86C276.428 208.052 276.632 208.288 276.784 208.568C276.936 208.848 277.012 209.196 277.012 209.612C277.012 210.02 276.936 210.376 276.784 210.68C276.632 210.984 276.428 211.24 276.172 211.448C275.916 211.656 275.612 211.82 275.26 211.94C274.916 212.052 274.552 212.12 274.168 212.144V213.164H273.508V212.144C273.092 212.112 272.712 212.016 272.368 211.856C272.032 211.696 271.74 211.492 271.492 211.244C271.252 210.988 271.064 210.692 270.928 210.356C270.8 210.012 270.74 209.64 270.748 209.24H271.876C271.884 209.56 271.932 209.84 272.02 210.08C272.116 210.312 272.24 210.512 272.392 210.68C272.544 210.84 272.716 210.968 272.908 211.064C273.1 211.152 273.3 211.208 273.508 211.232V207.98L273.244 207.908C272.916 207.82 272.612 207.704 272.332 207.56C272.06 207.416 271.824 207.244 271.624 207.044C271.424 206.836 271.264 206.6 271.144 206.336C271.032 206.064 270.976 205.76 270.976 205.424C270.976 205.08 271.048 204.776 271.192 204.512C271.336 204.24 271.524 204.008 271.756 203.816C271.988 203.624 272.256 203.472 272.56 203.36C272.864 203.248 273.18 203.176 273.508 203.144V202.268H274.168ZM275.884 209.78C275.884 209.524 275.844 209.312 275.764 209.144C275.684 208.968 275.568 208.82 275.416 208.7C275.272 208.58 275.092 208.48 274.876 208.4C274.668 208.312 274.432 208.232 274.168 208.16V211.244C274.392 211.228 274.608 211.188 274.816 211.124C275.024 211.052 275.208 210.956 275.368 210.836C275.528 210.716 275.652 210.568 275.74 210.392C275.836 210.216 275.884 210.012 275.884 209.78ZM272.104 205.412C272.104 205.772 272.216 206.068 272.44 206.3C272.672 206.532 273.024 206.716 273.496 206.852L273.508 206.864V204.044C273.332 204.06 273.16 204.1 272.992 204.164C272.824 204.22 272.672 204.304 272.536 204.416C272.408 204.528 272.304 204.668 272.224 204.836C272.144 204.996 272.104 205.188 272.104 205.412ZM281.583 203.144C281.983 203.144 282.351 203.196 282.687 203.3C283.031 203.396 283.323 203.54 283.563 203.732C283.811 203.924 284.003 204.164 284.139 204.452C284.275 204.732 284.343 205.056 284.343 205.424C284.343 205.928 284.219 206.42 283.971 206.9C283.731 207.372 283.403 207.84 282.987 208.304C282.571 208.76 282.087 209.212 281.535 209.66C280.991 210.1 280.415 210.54 279.807 210.98H284.583V212H278.319V211.016C279.087 210.448 279.771 209.92 280.371 209.432C280.979 208.936 281.491 208.468 281.907 208.028C282.323 207.58 282.639 207.156 282.855 206.756C283.079 206.348 283.191 205.952 283.191 205.568C283.191 205.112 283.047 204.748 282.759 204.476C282.479 204.196 282.079 204.056 281.559 204.056C281.327 204.056 281.099 204.092 280.875 204.164C280.651 204.228 280.451 204.34 280.275 204.5C280.107 204.652 279.967 204.852 279.855 205.1C279.751 205.348 279.695 205.652 279.687 206.012H278.559C278.551 205.58 278.615 205.188 278.751 204.836C278.895 204.484 279.099 204.184 279.363 203.936C279.627 203.68 279.947 203.484 280.323 203.348C280.699 203.212 281.119 203.144 281.583 203.144ZM291.803 207.644C291.803 206.436 291.603 205.536 291.203 204.944C290.803 204.352 290.263 204.056 289.583 204.056C288.895 204.056 288.351 204.352 287.951 204.944C287.559 205.536 287.363 206.436 287.363 207.644C287.363 208.86 287.559 209.764 287.951 210.356C288.351 210.948 288.895 211.244 289.583 211.244C290.271 211.244 290.811 210.948 291.203 210.356C291.603 209.764 291.803 208.86 291.803 207.644ZM292.967 207.644C292.967 208.332 292.899 208.956 292.763 209.516C292.627 210.068 292.419 210.54 292.139 210.932C291.867 211.324 291.515 211.628 291.083 211.844C290.659 212.052 290.159 212.156 289.583 212.156C289.007 212.156 288.503 212.052 288.071 211.844C287.647 211.628 287.295 211.324 287.015 210.932C286.743 210.54 286.539 210.068 286.403 209.516C286.267 208.956 286.199 208.332 286.199 207.644C286.199 206.956 286.267 206.336 286.403 205.784C286.539 205.224 286.743 204.752 287.015 204.368C287.295 203.976 287.647 203.676 288.071 203.468C288.503 203.252 289.007 203.144 289.583 203.144C290.159 203.144 290.659 203.252 291.083 203.468C291.515 203.676 291.867 203.976 292.139 204.368C292.419 204.752 292.627 205.224 292.763 205.784C292.899 206.336 292.967 206.956 292.967 207.644ZM294.44 210.62H295.82V212.096L295.088 213.668H294.392L295.028 212H294.44V210.62ZM302.878 207.644C302.878 206.436 302.678 205.536 302.278 204.944C301.878 204.352 301.338 204.056 300.658 204.056C299.97 204.056 299.426 204.352 299.026 204.944C298.634 205.536 298.438 206.436 298.438 207.644C298.438 208.86 298.634 209.764 299.026 210.356C299.426 210.948 299.97 211.244 300.658 211.244C301.346 211.244 301.886 210.948 302.278 210.356C302.678 209.764 302.878 208.86 302.878 207.644ZM304.042 207.644C304.042 208.332 303.974 208.956 303.838 209.516C303.702 210.068 303.494 210.54 303.214 210.932C302.942 211.324 302.59 211.628 302.158 211.844C301.734 212.052 301.234 212.156 300.658 212.156C300.082 212.156 299.578 212.052 299.146 211.844C298.722 211.628 298.37 211.324 298.09 210.932C297.818 210.54 297.614 210.068 297.478 209.516C297.342 208.956 297.274 208.332 297.274 207.644C297.274 206.956 297.342 206.336 297.478 205.784C297.614 205.224 297.818 204.752 298.09 204.368C298.37 203.976 298.722 203.676 299.146 203.468C299.578 203.252 300.082 203.144 300.658 203.144C301.234 203.144 301.734 203.252 302.158 203.468C302.59 203.676 302.942 203.976 303.214 204.368C303.494 204.752 303.702 205.224 303.838 205.784C303.974 206.336 304.042 206.956 304.042 207.644ZM311.01 207.644C311.01 206.436 310.81 205.536 310.41 204.944C310.01 204.352 309.47 204.056 308.79 204.056C308.102 204.056 307.558 204.352 307.158 204.944C306.766 205.536 306.57 206.436 306.57 207.644C306.57 208.86 306.766 209.764 307.158 210.356C307.558 210.948 308.102 211.244 308.79 211.244C309.478 211.244 310.018 210.948 310.41 210.356C310.81 209.764 311.01 208.86 311.01 207.644ZM312.174 207.644C312.174 208.332 312.106 208.956 311.97 209.516C311.834 210.068 311.626 210.54 311.346 210.932C311.074 211.324 310.722 211.628 310.29 211.844C309.866 212.052 309.366 212.156 308.79 212.156C308.214 212.156 307.71 212.052 307.278 211.844C306.854 211.628 306.502 211.324 306.222 210.932C305.95 210.54 305.746 210.068 305.61 209.516C305.474 208.956 305.406 208.332 305.406 207.644C305.406 206.956 305.474 206.336 305.61 205.784C305.746 205.224 305.95 204.752 306.222 204.368C306.502 203.976 306.854 203.676 307.278 203.468C307.71 203.252 308.214 203.144 308.79 203.144C309.366 203.144 309.866 203.252 310.29 203.468C310.722 203.676 311.074 203.976 311.346 204.368C311.626 204.752 311.834 205.224 311.97 205.784C312.106 206.336 312.174 206.956 312.174 207.644ZM319.143 207.644C319.143 206.436 318.943 205.536 318.543 204.944C318.143 204.352 317.603 204.056 316.923 204.056C316.235 204.056 315.691 204.352 315.291 204.944C314.899 205.536 314.703 206.436 314.703 207.644C314.703 208.86 314.899 209.764 315.291 210.356C315.691 210.948 316.235 211.244 316.923 211.244C317.611 211.244 318.151 210.948 318.543 210.356C318.943 209.764 319.143 208.86 319.143 207.644ZM320.307 207.644C320.307 208.332 320.239 208.956 320.103 209.516C319.967 210.068 319.759 210.54 319.479 210.932C319.207 211.324 318.855 211.628 318.423 211.844C317.999 212.052 317.499 212.156 316.923 212.156C316.347 212.156 315.843 212.052 315.411 211.844C314.987 211.628 314.635 211.324 314.355 210.932C314.083 210.54 313.879 210.068 313.743 209.516C313.607 208.956 313.539 208.332 313.539 207.644C313.539 206.956 313.607 206.336 313.743 205.784C313.879 205.224 314.083 204.752 314.355 204.368C314.635 203.976 314.987 203.676 315.411 203.468C315.843 203.252 316.347 203.144 316.923 203.144C317.499 203.144 317.999 203.252 318.423 203.468C318.855 203.676 319.207 203.976 319.479 204.368C319.759 204.752 319.967 205.224 320.103 205.784C320.239 206.336 320.307 206.956 320.307 207.644Z" fill="white"/></g><defs><clipPath id="clip0_11728_70609"><path d="M0 16C0 7.16344 7.16344 0 16 0H329C337.837 0 345 7.16345 345 16V224C345 232.837 337.837 240 329 240H16C7.16345 240 0 232.837 0 224V16Z" fill="white"/></clipPath><clipPath id="clip1_11728_70609"><rect width="297" height="16" fill="white" transform="translate(24 168)"/></clipPath></defs></svg>