<svg xmlns="http://www.w3.org/2000/svg" width="90" height="83" viewBox="0 0 90 83" fill="none"><g clip-path="url(#clip0_8956_26890)"><path d="M23.4959 76.6985H3.23828V82.9641H23.4959V76.6985Z" fill="#FFA564"></path><path d="M21.076 65.5664H0.818359V71.832H21.076V65.5664Z" fill="#FFA564"></path><path d="M23.4959 54.4346H3.23828V60.7002H23.4959V54.4346Z" fill="#FFA564"></path><path d="M55.7498 76.6985H35.4922V82.9641H55.7498V76.6985Z" fill="#FFA564"></path><path d="M55.7498 65.5664H35.4922V71.832H55.7498V65.5664Z" fill="#FFA564"></path><path d="M58.3709 54.4346H38.1133V60.7002H58.3709V54.4346Z" fill="#FFA564"></path><path d="M55.7498 43.3025H35.4922V49.5681H55.7498V43.3025Z" fill="#FFA564"></path><path d="M87.992 76.6985H67.7344V82.9641H87.992V76.6985Z" fill="#FFA564"></path><path d="M86.7849 65.5664H66.5273V71.832H86.7849V65.5664Z" fill="#FFA564"></path><path d="M87.992 54.4346H67.7344V60.7002H87.992V54.4346Z" fill="#FFA564"></path><path d="M89.531 43.3025H69.2734V49.5681H89.531V43.3025Z" fill="#FFA564"></path><path d="M87.992 32.1794H67.7344V38.445H87.992V32.1794Z" fill="#FFA564"></path><path d="M87.992 21.0474H67.7344V27.313H87.992V21.0474Z" fill="#FFA564"></path><path d="M9.09372 51.3805L7.54492 49.8317L34.8161 22.5517L46.5817 34.3261L76.4401 2.1709L77.9977 3.7285L46.5817 37.4325L34.8161 25.6669L9.09372 51.3805Z" fill="#0F2832"></path><path d="M66.5312 1.25573L66.6105 3.39413L77.1881 2.99813L76.8097 13.5757L78.9569 13.6461L79.4144 0.771729L66.5312 1.25573Z" fill="#0F2832"></path></g><defs><clipPath id="clip0_8956_26890"><rect width="88.7216" height="82.192" fill="white" transform="translate(0.818359 0.771973)"></rect></clipPath></defs></svg>