<svg xmlns="http://www.w3.org/2000/svg" width="106" height="106" viewBox="0 0 106 106" fill="none"><g clip-path="url(#clip0_8918_22619)"><path d="M76.0292 61.9363C89.0008 61.9363 99.5164 51.4207 99.5164 38.4491C99.5164 25.4775 89.0008 14.9619 76.0292 14.9619C63.0576 14.9619 52.542 25.4775 52.542 38.4491C52.542 51.4207 63.0576 61.9363 76.0292 61.9363Z" fill="#50E191"></path><path d="M42.6864 78.4536H69.6936C72.5976 78.4536 74.2608 75.1448 72.5272 72.8128L72.2544 72.452C69.5704 68.8528 65.3464 66.732 60.8584 66.732H49.172C49.172 66.732 44.728 58.8472 33.5872 58.8472H22.3496" stroke="#0F2832" stroke-width="1.76" stroke-linecap="round" stroke-linejoin="round"></path><path d="M3.97609 53.9985L19.3497 55.3449C20.6521 55.4593 21.6553 56.5505 21.6553 57.8529L21.7961 92.6833C21.7081 95.2529 19.8601 97.4265 17.3257 97.9193L11.7113 99.0105L10.8841 103.472L4.02889 104.247C2.53289 104.414 1.21289 103.243 1.21289 101.739V56.5065C1.21289 55.0193 2.48009 53.8577 3.95849 53.9897L3.97609 53.9985Z" stroke="#0F2832" stroke-width="1.76" stroke-linecap="round" stroke-linejoin="round"></path><path d="M15.2571 93.7219C16.6568 93.7219 17.7915 92.5872 17.7915 91.1875C17.7915 89.7878 16.6568 88.6531 15.2571 88.6531C13.8573 88.6531 12.7227 89.7878 12.7227 91.1875C12.7227 92.5872 13.8573 93.7219 15.2571 93.7219Z" fill="#0F2832"></path><path d="M51.5036 38.4493C61.7632 38.4493 70.0804 30.1321 70.0804 19.8725C70.0804 9.61277 61.7632 1.29565 51.5036 1.29565C41.2439 1.29565 32.9268 9.61277 32.9268 19.8725C32.9268 30.1321 41.2439 38.4493 51.5036 38.4493Z" stroke="#0F2832" stroke-width="1.76" stroke-linecap="round" stroke-linejoin="round"></path><path d="M72.9933 76.1656C82.3037 73.728 93.3829 67.5768 97.6157 65.1744C99.1205 64.3208 101.013 64.3824 102.394 65.4296C103.107 65.9664 103.679 66.6792 104.057 67.4976C104.559 68.5888 104.665 69.9352 104.057 70.9736C99.3405 79.1224 66.1557 95.9216 57.6637 95.9216C54.0733 95.9216 35.0653 94.2144 21.8037 86.3648" stroke="#0F2832" stroke-width="1.76" stroke-linecap="round" stroke-linejoin="round"></path></g><defs><clipPath id="clip0_8918_22619"><rect width="105.002" height="104.738" fill="white" transform="translate(0.350586 0.415527)"></rect></clipPath></defs></svg>