<svg xmlns="http://www.w3.org/2000/svg" width="56" height="56" viewBox="0 0 56 56" fill="none"><path d="M28 7C22.4305 7 17.089 9.21249 13.1508 13.1508C9.21249 17.089 7 22.4305 7 28C7 33.5695 9.21249 38.911 13.1508 42.8492C17.089 46.7875 22.4305 49 28 49C33.5695 49 38.911 46.7875 42.8492 42.8492C46.7875 38.911 49 33.5695 49 28C49 26.8333 48.9067 25.6667 48.6967 24.5C48.0667 23.3333 46.6667 23.3333 46.6667 23.3333H42V21C42 18.6667 39.6667 18.6667 39.6667 18.6667H35V16.3333C35 14 32.6667 14 32.6667 14H30.3333V9.33333C30.3333 7 28 7 28 7ZM22.1667 14C23.0949 14 23.9852 14.3687 24.6415 15.0251C25.2979 15.6815 25.6667 16.5717 25.6667 17.5C25.6667 18.4283 25.2979 19.3185 24.6415 19.9749C23.9852 20.6313 23.0949 21 22.1667 21C21.2384 21 20.3482 20.6313 19.6918 19.9749C19.0354 19.3185 18.6667 18.4283 18.6667 17.5C18.6667 16.5717 19.0354 15.6815 19.6918 15.0251C20.3482 14.3687 21.2384 14 22.1667 14ZM15.1667 23.3333C16.0949 23.3333 16.9852 23.7021 17.6415 24.3585C18.2979 25.0148 18.6667 25.9051 18.6667 26.8333C18.6667 27.7616 18.2979 28.6518 17.6415 29.3082C16.9852 29.9646 16.0949 30.3333 15.1667 30.3333C14.2384 30.3333 13.3482 29.9646 12.6918 29.3082C12.0354 28.6518 11.6667 27.7616 11.6667 26.8333C11.6667 25.9051 12.0354 25.0148 12.6918 24.3585C13.3482 23.7021 14.2384 23.3333 15.1667 23.3333ZM26.8333 25.6667C27.7616 25.6667 28.6518 26.0354 29.3082 26.6918C29.9646 27.3482 30.3333 28.2384 30.3333 29.1667C30.3333 30.0949 29.9646 30.9852 29.3082 31.6415C28.6518 32.2979 27.7616 32.6667 26.8333 32.6667C25.9051 32.6667 25.0148 32.2979 24.3585 31.6415C23.7021 30.9852 23.3333 30.0949 23.3333 29.1667C23.3333 28.2384 23.7021 27.3482 24.3585 26.6918C25.0148 26.0354 25.9051 25.6667 26.8333 25.6667ZM38.5 30.3333C39.4283 30.3333 40.3185 30.7021 40.9749 31.3585C41.6312 32.0148 42 32.9051 42 33.8333C42 34.7616 41.6312 35.6518 40.9749 36.3082C40.3185 36.9646 39.4283 37.3333 38.5 37.3333C37.5717 37.3333 36.6815 36.9646 36.0251 36.3082C35.3687 35.6518 35 34.7616 35 33.8333C35 32.9051 35.3687 32.0148 36.0251 31.3585C36.6815 30.7021 37.5717 30.3333 38.5 30.3333ZM25.6667 37.3333C26.5949 37.3333 27.4852 37.7021 28.1415 38.3585C28.7979 39.0148 29.1667 39.9051 29.1667 40.8333C29.1667 41.7616 28.7979 42.6518 28.1415 43.3082C27.4852 43.9646 26.5949 44.3333 25.6667 44.3333C24.7384 44.3333 23.8482 43.9646 23.1918 43.3082C22.5354 42.6518 22.1667 41.7616 22.1667 40.8333C22.1667 39.9051 22.5354 39.0148 23.1918 38.3585C23.8482 37.7021 24.7384 37.3333 25.6667 37.3333Z" fill="#FFB400"></path></svg>