<svg xmlns="http://www.w3.org/2000/svg" width="165" height="144" viewBox="0 0 165 144" fill="none"><g clip-path="url(#clip0_9014_35764)"><path d="M90.3664 94.6516C110.061 94.6516 126.027 78.6857 126.027 58.9908C126.027 39.2958 110.061 23.33 90.3664 23.33C70.6715 23.33 54.7056 39.2958 54.7056 58.9908C54.7056 78.6857 70.6715 94.6516 90.3664 94.6516Z" fill="#8AD8FF"></path><path d="M77.3408 13.2019C96.417 13.2021 111.881 28.6667 111.881 47.7429C111.881 66.819 96.4169 82.2828 77.3408 82.283C58.2646 82.283 42.8 66.8191 42.7998 47.7429C42.7998 28.6666 58.2645 13.2019 77.3408 13.2019Z" stroke="#0F2832" stroke-width="2.24"></path><path d="M69.5403 60.9762L69.5403 34.3024L92.6399 47.6393L69.5403 60.9762Z" stroke="#0F2832" stroke-width="2.24"></path><path d="M139.452 79.0742L150.148 108.788C154.796 121.713 148.087 135.948 135.162 140.607C129.473 142.657 123.492 142.489 118.205 140.562L113.893 138.501L102.85 133.215L99.6469 131.692L99.5909 131.647L80.2485 120.469C77.6389 118.957 76.7429 115.62 78.2549 113.01L79.1397 111.476C80.6405 108.866 83.9781 107.97 86.5877 109.482L99.0981 116.717L81.9285 69.0166C80.9093 66.183 82.3765 63.0694 85.2101 62.0502L86.8789 61.4454C89.7125 60.4262 92.8261 61.8934 93.8453 64.727L101.249 85.2902C100.229 82.4566 101.708 79.3318 104.541 78.3126L106.21 77.7078C109.044 76.6886 112.157 78.1558 113.177 80.9894L114.319 84.1814C113.3 81.3478 114.778 78.2118 117.612 77.1926L119.269 76.599C122.103 75.5798 125.239 77.0582 126.258 79.8918L127.513 83.3862C126.493 80.5526 127.961 77.439 130.794 76.4198L132.463 75.815C135.297 74.7958 138.433 76.2518 139.452 79.0966V79.0742Z" fill="white" stroke="#0F2832" stroke-width="2.24" stroke-linecap="round" stroke-linejoin="round"></path><path d="M101.237 85.2783L106.703 100.466" stroke="#0F2832" stroke-width="2.24" stroke-linecap="round" stroke-linejoin="round"></path><path d="M114.319 84.1714L118.642 96.1666" stroke="#0F2832" stroke-width="2.24" stroke-linecap="round" stroke-linejoin="round"></path><path d="M127.513 83.3751L130.571 91.8759" stroke="#0F2832" stroke-width="2.24" stroke-linecap="round" stroke-linejoin="round"></path></g><defs><clipPath id="clip0_9014_35764"><rect width="164.102" height="142.71" fill="white" transform="translate(0.0947266 0.484009)"></rect></clipPath></defs></svg>