<svg width="83" height="148" viewBox="0 0 83 148" fill="none" xmlns="http://www.w3.org/2000/svg"><path d="M58.5221 56.5768C60.0841 46.952 53.548 37.8833 43.9232 36.3212C34.2984 34.7592 25.2297 41.2953 23.6677 50.9201C22.1056 60.5449 28.6418 69.6136 38.2666 71.1757C47.8913 72.7377 56.9601 66.2016 58.5221 56.5768Z" fill="#8AD8FF"></path><path d="M13.9463 103.251V88.93C13.9463 79.2689 21.7692 71.4033 31.473 71.4033H50.7524C60.4135 71.4033 68.2791 79.2262 68.2791 88.93V103.251H13.9463Z" fill="#8AD8FF"></path><path d="M41.0914 140.27C45.3234 140.228 48.786 136.808 48.7433 132.618C48.7433 130.566 47.9311 128.643 46.4776 127.189C45.0242 125.779 43.1005 124.966 41.0486 124.966C36.8166 124.966 33.3967 128.386 33.3967 132.618C33.3967 134.67 34.2089 136.594 35.6624 138.047C37.1158 139.458 39.0395 140.27 41.0914 140.27ZM41.0914 127.66C42.4166 127.66 43.6563 128.173 44.5967 129.113C45.5372 130.054 46.0502 131.293 46.0502 132.618C46.0502 135.312 43.8273 137.534 41.0914 137.534C39.7662 137.534 38.5265 137.021 37.586 136.081C36.6456 135.141 36.1326 133.901 36.1326 132.576C36.1326 129.883 38.3555 127.66 41.0914 127.66Z" fill="#0F2832"></path><path d="M82.8562 120.222V110.647L82.8135 8.69241C82.8135 6.6405 82.0013 4.67408 80.5478 3.22065C79.0944 1.76721 77.128 0.955002 75.0761 0.955002L8.38904 0.997749C4.11423 0.997749 0.651631 4.46034 0.651631 8.73515V21.4741H0.608887L0.651631 120.265H0.694382V139.929C0.694382 141.981 1.5066 143.947 2.96003 145.401C4.41347 146.854 6.37988 147.666 8.43179 147.666L75.1188 147.624C77.1707 147.624 79.1371 146.811 80.5906 145.358C82.044 143.905 82.8562 141.938 82.8562 139.886V120.222ZM3.34476 24.21L80.0348 24.1245L80.0776 117.486L3.38751 117.529L3.34476 62.3413V24.21ZM3.34476 8.73515C3.34476 5.99928 5.56766 3.73363 8.34629 3.73363L75.0333 3.69088C76.4013 3.69088 77.641 4.20385 78.5814 5.14431C79.5219 6.08477 80.0348 7.36721 80.0348 8.69241V21.3886L3.34476 21.4741V8.73515ZM80.0776 139.886C80.0776 141.211 79.5646 142.494 78.6242 143.434C77.6837 144.375 76.4013 144.888 75.0761 144.888L8.38904 144.931C7.06385 144.931 5.7814 144.418 4.84095 143.477C3.90049 142.537 3.38751 141.254 3.38751 139.929V120.265L80.0776 120.222V139.886Z" fill="#0F2832"></path></svg>