<svg xmlns="http://www.w3.org/2000/svg" width="143" height="64" viewBox="0 0 143 64" fill="none"><g clip-path="url(#clip0_9014_36096)"><path d="M65.9822 0.477051H72.4364C75.4837 0.477051 77.6513 2.00208 77.6513 4.76371C77.6513 6.33444 76.6517 7.52533 75.6264 8.04796C77.2 8.64483 78.4852 9.97852 78.4852 12.2175C78.4852 15.3133 76.1748 17.1468 72.6735 17.1468H65.9822V0.477051ZM72.2194 7.00271C73.8872 7.00271 74.7211 6.28874 74.7211 5.00075C74.7211 3.71275 73.8872 3.00164 72.1737 3.00164H69.0779V7.00271H72.2223H72.2194ZM72.3393 14.408C74.4584 14.408 75.4608 13.5969 75.4608 12.0519C75.4608 10.5069 74.4584 9.67009 72.3393 9.67009H69.0751V14.4108H72.3393V14.408Z" fill="black"></path><path d="M90.2255 9.43266V17.1492H87.3439V15.3643C86.8441 16.5552 85.4619 17.3406 83.7484 17.3406C81.3666 17.3406 79.7473 15.8155 79.7473 13.745C79.7473 11.4118 81.5579 9.95814 84.2482 9.95814H86.4643C87.0612 9.95814 87.3468 9.62401 87.3468 9.14708C87.3468 7.97903 86.4415 7.14797 84.8936 7.14797C83.3457 7.14797 82.4176 8.12468 82.369 9.19563H79.7502C79.893 6.81383 81.9178 4.95752 85.0364 4.95752C88.155 4.95752 90.2284 6.71959 90.2284 9.43552L90.2255 9.43266ZM87.3439 12.0743V11.883H84.6537C83.4143 11.883 82.5832 12.5741 82.5832 13.6194C82.5832 14.5504 83.3429 15.1701 84.4395 15.1701C86.2758 15.1701 87.3468 13.8821 87.3468 12.0743H87.3439Z" fill="black"></path><path d="M91.8647 0H94.772V17.1495H91.8647V0Z" fill="black"></path><path d="M101.489 1.52539V5.14663H104.822V7.59982H101.489V12.8403C101.489 14.0541 102.132 14.6738 103.225 14.6738H104.822V17.1527H102.891C100.272 17.1527 98.559 15.6277 98.559 12.9603V7.60268H96.2029V5.14949H98.559V1.52539H101.489Z" fill="black"></path><path d="M109.251 0V3.26426H106.107V0H109.251ZM106.201 5.14627H109.128V17.1495H106.201V5.14627Z" fill="black"></path><path d="M110.628 11.1466C110.628 7.7167 112.987 4.95508 116.725 4.95508C119.75 4.95508 122.206 6.7657 122.466 9.52732H119.561C119.347 8.33643 118.182 7.47967 116.799 7.47967C114.778 7.47967 113.678 9.05039 113.678 11.1466C113.678 13.2428 114.797 14.8135 116.848 14.8135C118.227 14.8135 119.301 14.0282 119.587 12.8373H122.54C122.16 15.4561 119.827 17.3381 116.728 17.3381C112.99 17.3381 110.631 14.5765 110.631 11.1466H110.628Z" fill="black"></path><path d="M65.9822 21.4731H77.0801V24.1891H69.1265V28.4272H75.5094V31.1403H69.1265V38.1428H65.9822V21.4731Z" fill="black"></path><path d="M81.8635 20.9995V24.2609H78.7192V20.9995H81.8635ZM78.8163 26.1429H81.7436V38.1461H78.8163V26.1429Z" fill="black"></path><path d="M83.4116 26.1426H86.3388V28.0018C87.0071 26.6909 88.3636 25.9541 90.0771 25.9541C92.7902 25.9541 94.5551 27.9075 94.5551 30.7177V38.1487H91.625V31.3374C91.625 29.6953 90.6255 28.5501 89.1233 28.5501C87.4812 28.5501 86.336 29.8381 86.336 31.5973V38.1458H83.4087V26.1426H83.4116Z" fill="black"></path><path d="M100.698 22.5215V26.1399H104.031V28.5931H100.698V33.8307C100.698 35.0473 101.341 35.667 102.434 35.667H104.031V38.1431H102.1C99.4815 38.1431 97.768 36.618 97.768 33.9507V28.5931H95.4119V26.1399H97.768V22.5215H100.698Z" fill="black"></path><path d="M116.294 34.1447C115.843 36.6921 113.604 38.3342 110.651 38.3342C106.721 38.3342 104.528 35.2385 104.528 32.097C104.528 28.9555 106.481 25.9512 110.411 25.9512C114.341 25.9512 116.245 28.8813 116.245 31.74C116.245 32.1427 116.223 32.4997 116.2 32.7396H107.341C107.555 34.6673 108.794 35.9067 110.651 35.9067C112.15 35.9067 113.127 35.287 113.438 34.1447H116.297H116.294ZM107.412 30.809H113.315C113.198 29.284 112.147 28.1445 110.411 28.1445C108.769 28.1445 107.721 29.0012 107.412 30.809Z" fill="black"></path><path d="M117.625 32.1427C117.625 28.7128 119.984 25.9512 123.722 25.9512C126.746 25.9512 129.202 27.7618 129.462 30.5234H126.558C126.344 29.3325 125.179 28.4758 123.796 28.4758C121.774 28.4758 120.675 30.0493 120.675 32.1427C120.675 34.236 121.794 35.8096 123.845 35.8096C125.224 35.8096 126.298 35.0243 126.584 33.8334H129.537C129.157 36.4522 126.824 38.3342 123.725 38.3342C119.987 38.3342 117.628 35.5726 117.628 32.1427H117.625Z" fill="black"></path><path d="M130.987 20.9995H133.895V28.0021C134.56 26.6913 135.942 25.9544 137.659 25.9544C140.349 25.9544 142.114 27.9079 142.114 30.718V38.149H139.206V31.3378C139.206 29.6956 138.184 28.5504 136.682 28.5504C135.063 28.5504 133.895 29.8384 133.895 31.5976V38.1461H130.987V20.9995Z" fill="black"></path><path d="M65.9822 42.4727H71.3883C76.0091 42.4727 79.9359 45.2343 79.9359 50.8089C79.9359 56.3836 76.0091 59.1452 71.3883 59.1452H65.9822V42.4755V42.4727ZM71.1256 56.4064C74.0072 56.4064 76.7459 54.93 76.7459 50.8089C76.7459 46.6879 74.0072 45.1886 71.1256 45.1886H69.1265V56.4064H71.1256Z" fill="black"></path><path d="M91.6991 51.4287V59.1452H88.8176V57.3603C88.3178 58.5512 86.9355 59.3366 85.222 59.3366C82.8402 59.3366 81.2209 57.8115 81.2209 55.741C81.2209 53.4078 83.0316 51.9542 85.7218 51.9542H87.938C88.5348 51.9542 88.8204 51.62 88.8204 51.1431C88.8204 49.975 87.9151 49.144 86.3672 49.144C84.8193 49.144 83.8912 50.1207 83.8426 51.1916H81.2238C81.3666 48.8099 83.3914 46.9507 86.51 46.9507C89.6286 46.9507 91.702 48.7128 91.702 51.4287H91.6991ZM88.8176 54.0732V53.8819H86.1273C84.8879 53.8819 84.0568 54.5701 84.0568 55.6182C84.0568 56.5464 84.8165 57.1661 85.9131 57.1661C87.7495 57.1661 88.8204 55.881 88.8204 54.0704L88.8176 54.0732Z" fill="black"></path><path d="M99.367 58.5741L97.5078 64.0031H94.7205L96.4112 59.1453L92.0303 47.1421H95.0061L97.7934 55.3813L100.555 47.1421H103.557L99.3641 58.5741H99.367Z" fill="black"></path><path d="M103.628 55.1442H106.295C106.415 56.2865 107.295 57.0005 108.606 57.0005C109.748 57.0005 110.511 56.4293 110.511 55.7153C110.511 53.048 103.939 55.5983 103.939 50.5234C103.939 48.4272 105.773 46.9507 108.249 46.9507C111.059 46.9507 112.989 48.5014 113.107 50.8347H110.439C110.274 49.7152 109.248 49.144 108.32 49.144C107.272 49.144 106.581 49.6209 106.581 50.4291C106.581 53.0251 113.249 50.1664 113.249 55.5983C113.249 57.8601 111.413 59.3366 108.606 59.3366C105.798 59.3366 103.771 57.7173 103.628 55.147V55.1442Z" fill="black"></path><path d="M50.6831 14.9278L35.29 0.459961H0V59.2794H35.29L50.6831 51.0916V36.6952L35.5841 23.7838H50.6831V14.9278ZM19.914 9.46451L34.3075 22.7643H19.914V9.46451ZM35.6612 46.1624H19.914V32.5828L35.6612 46.1624Z" fill="#6EF6FF"></path></g><defs><clipPath id="clip0_9014_36096"><rect width="142.111" height="64" fill="white"></rect></clipPath></defs></svg>