<svg xmlns="http://www.w3.org/2000/svg" width="122" height="116" viewBox="0 0 122 116" fill="none"><g clip-path="url(#clip0_6043_29877)"><path d="M112.296 63.8391C112.296 52.1091 102.786 42.5891 91.0456 42.5891C90.9756 42.5891 90.9156 42.5891 90.8456 42.5891C85.2356 42.5291 79.6056 44.6391 75.3156 48.9291L36.1756 86.1091C34.5456 87.7391 34.5456 90.3891 36.1756 92.0191L37.6756 93.5091C38.9856 94.8291 40.9456 95.0891 42.5156 94.2891L42.5456 94.5491L42.0856 95.0091C40.4556 96.6391 40.4556 99.2891 42.0856 100.919L43.5856 102.419C44.9256 103.759 46.9556 103.999 48.5356 103.119L49.1856 103.639C48.8656 104.989 49.2456 106.469 50.2956 107.519L51.7956 109.019C53.4256 110.649 56.0756 110.649 57.7056 109.019L58.9956 107.729H59.2256C58.3456 109.319 58.5856 111.359 59.9256 112.699L61.4256 114.199C63.0556 115.829 65.6956 115.829 67.3356 114.199L71.2956 110.239L105.946 79.5491C110.226 75.2691 112.336 69.6391 112.276 64.0291C112.276 63.9591 112.276 63.8991 112.276 63.8291L112.296 63.8391Z" fill="#8AD8FF"></path><path d="M98.5725 33.4863C101.743 41.3063 100.162 50.6063 93.8125 56.9463" stroke="#0F2832" stroke-width="2" stroke-linecap="round" stroke-linejoin="round"></path><path d="M77.4455 41.2239C76.9955 41.7239 74.1155 44.7939 69.4355 44.7939C65.1055 44.7939 62.3555 42.1539 61.8255 41.6339L56.7055 46.7539C54.0355 49.4239 50.2655 50.6739 46.5355 50.1239L46.1555 50.0639C43.7455 49.7139 42.7655 46.7539 44.4855 45.0339L63.1855 26.3339C69.5255 19.9939 78.8255 18.4039 86.6455 21.5739" stroke="#0F2832" stroke-width="2" stroke-linecap="round" stroke-linejoin="round"></path><path d="M31.4606 70.9245C29.8306 72.5545 27.1806 72.5545 25.5506 70.9245L24.0506 69.4245C22.4206 67.7945 22.4206 65.1445 24.0506 63.5145L33.0906 54.4745C34.7206 52.8445 37.3706 52.8445 39.0006 54.4745L40.5006 55.9745C42.1306 57.6045 42.1306 60.2545 40.5006 61.8845" stroke="#0F2832" stroke-width="2" stroke-linecap="round" stroke-linejoin="round"></path><path d="M78.6681 49.5742L91.8881 62.7942C93.9081 64.8142 93.9081 68.0842 91.8881 70.0942L91.7881 70.1942C89.7681 72.2142 86.4981 72.2142 84.4881 70.1942L76.0781 61.7842" stroke="#0F2832" stroke-width="2" stroke-linecap="round" stroke-linejoin="round"></path><path d="M80.5013 66.209L88.1413 73.849C90.1613 75.869 90.1613 79.139 88.1413 81.149L88.0413 81.249C86.0213 83.269 82.7512 83.269 80.7412 81.249L72.2812 72.789" stroke="#0F2832" stroke-width="2" stroke-linecap="round" stroke-linejoin="round"></path><path d="M71.4062 71.9316L79.8662 80.3916C81.8862 82.4116 81.8862 85.6816 79.8662 87.6916L79.7662 87.7916C77.7462 89.8116 74.4762 89.8116 72.4662 87.7916" stroke="#0F2832" stroke-width="2" stroke-linecap="round" stroke-linejoin="round"></path><path d="M69.1716 84.5117L72.1216 87.4617C74.1416 89.4817 74.1416 92.7517 72.1216 94.7617L72.0216 94.8617C70.0016 96.8817 66.7316 96.8817 64.7216 94.8617L61.1016 91.2417" stroke="#0F2832" stroke-width="2" stroke-linecap="round" stroke-linejoin="round"></path><path d="M37.3669 79.8221C35.7369 81.4521 33.0869 81.4521 31.4569 79.8221L29.9569 78.3221C28.3269 76.6921 28.3269 74.0421 29.9569 72.4121L31.2069 71.1621" stroke="#0F2832" stroke-width="2" stroke-linecap="round" stroke-linejoin="round"></path><path d="M35.3594 67.0207L40.4994 61.8807C42.1294 60.2507 44.7794 60.2507 46.4094 61.8807L47.9094 63.3807C49.5394 65.0107 49.5394 67.6607 47.9094 69.2907L43.1394 74.0607" stroke="#0F2832" stroke-width="2" stroke-linecap="round" stroke-linejoin="round"></path><path d="M38.1795 79.0117C36.5495 80.6417 36.5495 83.2917 38.1795 84.9217L39.6795 86.4217C41.3095 88.0517 43.9595 88.0517 45.5895 86.4217L47.3795 84.6317" stroke="#0F2832" stroke-width="2" stroke-linecap="round" stroke-linejoin="round"></path><path d="M47.9062 69.2791C49.5362 67.6491 52.1862 67.6491 53.8162 69.2791L55.3162 70.7791C56.9462 72.4091 56.9462 75.0591 55.3162 76.6891L51.8162 80.1891" stroke="#0F2832" stroke-width="2" stroke-linecap="round" stroke-linejoin="round"></path><path d="M55.3106 76.6952C56.9406 75.0652 59.5906 75.0652 61.2206 76.6952L62.7206 78.1952C64.3506 79.8252 64.3506 82.4752 62.7206 84.1052L55.2106 91.6152C53.5806 93.2452 50.9306 93.2452 49.3006 91.6152L47.8006 90.1152C46.1706 88.4852 46.1706 85.8352 47.8006 84.2052" stroke="#0F2832" stroke-width="2" stroke-linecap="round" stroke-linejoin="round"></path><path d="M31.6084 1.95344L39.9384 11.8834C40.6484 12.7234 40.5884 13.9634 39.8184 14.7434L19.2084 35.5134C17.6284 36.9934 15.2384 37.1834 13.4484 35.9734L9.46837 33.2934L6.32837 35.4534L1.79837 31.8434C0.808369 31.0534 0.728369 29.5734 1.61837 28.6834L28.4784 1.81344C29.3584 0.933443 30.8084 0.993443 31.6084 1.95344Z" stroke="#0F2832" stroke-width="2" stroke-linecap="round" stroke-linejoin="round"></path><path d="M16.2237 32.8713C17.4001 32.8713 18.3538 31.9177 18.3538 30.7413C18.3538 29.565 17.4001 28.6113 16.2237 28.6113C15.0474 28.6113 14.0938 29.565 14.0938 30.7413C14.0938 31.9177 15.0474 32.8713 16.2237 32.8713Z" fill="#0F2832"></path><path d="M90.3935 3.89485L82.0635 13.8249C81.3535 14.6649 81.4135 15.9048 82.1835 16.6848L102.793 37.4548C104.373 38.9348 106.763 39.1249 108.553 37.9149L112.533 35.2349L115.673 37.3949L120.203 33.7848C121.193 32.9948 121.273 31.5148 120.383 30.6248L93.5135 3.75485C92.6335 2.87485 91.1835 2.93485 90.3835 3.89485H90.3935Z" stroke="#0F2832" stroke-width="2" stroke-linecap="round" stroke-linejoin="round"></path><path d="M105.771 34.8049C106.947 34.8049 107.901 33.8513 107.901 32.6749C107.901 31.4986 106.947 30.5449 105.771 30.5449C104.594 30.5449 103.641 31.4986 103.641 32.6749C103.641 33.8513 104.594 34.8049 105.771 34.8049Z" fill="#0F2832"></path><path d="M33.2266 21.5C41.0466 18.33 50.3466 19.91 56.6866 26.26" stroke="#0F2832" stroke-width="2" stroke-linecap="round" stroke-linejoin="round"></path><path d="M26.0585 56.878C19.7185 50.538 18.1285 41.238 21.2985 33.418" stroke="#0F2832" stroke-width="2" stroke-linecap="round" stroke-linejoin="round"></path></g><defs><clipPath id="clip0_6043_29877"><rect width="122.01" height="115.24" fill="white" transform="translate(0 0.191406)"></rect></clipPath></defs></svg>