<svg xmlns="http://www.w3.org/2000/svg" width="132" height="84" viewBox="0 0 132 84" fill="none"><path d="M36.2135 28.2494C37.3369 26.8442 38.0993 24.9574 37.8982 23.0293C36.2536 23.1111 34.2467 24.1143 33.0848 25.5206C32.0415 26.7249 31.1182 28.6907 31.3589 30.5379C33.205 30.6981 35.0495 29.6151 36.2135 28.2494Z" fill="black"></path><path d="M37.8783 30.8994C35.1973 30.7397 32.9178 32.421 31.6374 32.421C30.3564 32.421 28.3958 30.9798 26.2752 31.0187C23.5152 31.0592 20.9541 32.6198 19.5535 35.1018C16.6727 40.067 18.7933 47.4322 21.5947 51.4761C22.9552 53.4768 24.5947 55.6796 26.7551 55.6005C28.7963 55.5204 29.5964 54.2788 32.0775 54.2788C34.5569 54.2788 35.2775 55.6005 37.4383 55.5605C39.679 55.5204 41.0798 53.5588 42.4403 51.5562C44.0009 49.2756 44.6398 47.0735 44.68 46.9526C44.6398 46.9125 40.3593 45.2704 40.3196 40.3464C40.2792 36.2235 43.6803 34.2624 43.8404 34.1408C41.9197 31.3001 38.9187 30.9798 37.8783 30.8994Z" fill="black"></path><path d="M61.2223 25.3203C67.0495 25.3203 71.1072 29.3371 71.1072 35.1851C71.1072 41.0541 66.966 45.0917 61.0762 45.0917H54.6243V55.352H49.9629V25.3203L61.2223 25.3203ZM54.6243 41.1789H59.973C64.0315 41.1789 66.3414 38.9939 66.3414 35.206C66.3414 31.4185 64.0315 29.254 59.9939 29.254H54.6243V41.1789Z" fill="black"></path><path d="M72.3242 49.1295C72.3242 45.2998 75.2587 42.9482 80.4621 42.6568L86.4555 42.3031V40.6175C86.4555 38.1824 84.8112 36.7256 82.0646 36.7256C79.4625 36.7256 77.8391 37.974 77.4441 39.9306H73.1985C73.4482 35.9761 76.8195 33.0625 82.2308 33.0625C87.5377 33.0625 90.9299 35.8721 90.9299 40.2634V55.3521H86.6217V51.7516H86.5181C85.2488 54.1867 82.4805 55.7266 79.6086 55.7266C75.3213 55.7266 72.3242 53.0627 72.3242 49.1295ZM86.4555 47.1524V45.4251L81.065 45.7578C78.3802 45.9453 76.8612 47.1315 76.8612 49.0046C76.8612 50.9191 78.4429 52.1679 80.8571 52.1679C83.9995 52.1679 86.4555 50.0034 86.4555 47.1524Z" fill="black"></path><path d="M94.9966 63.4056V59.7634C95.329 59.8465 96.078 59.8465 96.453 59.8465C98.534 59.8465 99.658 58.9725 100.344 56.7249C100.344 56.6832 100.74 55.393 100.74 55.3721L92.832 33.457H97.7014L103.238 51.2722H103.321L108.857 33.457H113.602L105.402 56.4957C103.529 61.8031 101.365 63.5096 96.8279 63.5096C96.453 63.5096 95.329 63.4678 94.9966 63.4056Z" fill="black"></path></svg>