<svg xmlns="http://www.w3.org/2000/svg" width="218" height="48" viewBox="0 0 218 48" fill="none"><g clip-path="url(#clip0_7647_176990)"><path d="M0 0.359155H0.123467L12.9741 0.347656L23.1155 16.3565L33.3648 0.359155H46.2772L28.8897 26.4385L28.8641 45.5258H17.3457L17.3471 26.4441L0 0.359155Z" fill="black"></path><path d="M52.3125 0.347656H64.309L64.2702 28.6949C64.2702 28.6949 64.3104 36.5089 73.7485 36.5089C83.1866 36.5089 82.9712 28.6602 82.9712 28.6602L82.8979 0.347656H95.0866V28.6602C95.0866 28.6602 95.236 47.9402 73.6997 47.9402C52.1633 47.9402 52.3125 28.5799 52.3125 28.5799V0.347656Z" fill="black"></path><path d="M105.693 0.355469H117.151L131.603 20.8944L146.034 0.355469H157.473L157.475 45.7334L146.053 45.7275L146.142 19.0346L132.784 38.3117L130.395 38.3073L117.229 19.0864L117.226 45.7246L105.693 45.7275V0.355469Z" fill="#FBE147"></path><path d="M177.625 45.7275L180.339 38.6264L200.279 38.5876L202.924 45.7275H215.65L196.811 0.355469H184.264L165 45.729L177.625 45.7275ZM190.301 11.6647L196.559 28.5502H184.061L190.301 11.6647Z" fill="#FBE147"></path></g><defs><clipPath id="clip0_7647_176990"><rect width="217.043" height="48" fill="white"></rect></clipPath></defs></svg>