<svg xmlns="http://www.w3.org/2000/svg" width="100%" viewBox="0 0 128 128" blink-animation=""><path d="m100,36c-9.95,0-18,8.23-18,18.37,0,13.31,13.64,32.8,17.17,37.22.22.27.52.4.83.4s.61-.13.83-.4c3.53-4.42,17.17-23.92,17.17-37.22,0-10.14-8.05-18.37-18-18.37Zm0,53.4c-4.33-5.73-16-23.28-16-35.03,0-9.03,7.18-16.37,16-16.37s16,7.34,16,16.37c0,11.74-11.66,29.29-16,35.03Z"></path><path d="m100,41.42c-6.98,0-12.65,5.66-12.65,12.65s5.66,12.65,12.65,12.65,12.65-5.66,12.65-12.65-5.66-12.65-12.65-12.65Zm9.28,7.45h-2c-.41-1.45-.99-2.76-1.7-3.85,1.54.95,2.81,2.28,3.7,3.85Zm-10.28,8.13h-4.75c-.16-.94-.25-1.92-.25-2.94,0-1.11.1-2.18.29-3.19h4.71v6.13Zm2-6.13h4.71c.19,1.01.29,2.09.29,3.19,0,1.02-.09,2-.25,2.94h-4.75v-6.13Zm4.21-2h-4.21v-5.28c1.78.56,3.32,2.56,4.21,5.28Zm-6.21-5.28v5.28h-4.21c.88-2.72,2.42-4.72,4.21-5.28Zm-4.58,1.43c-.71,1.1-1.29,2.4-1.7,3.85h-2c.89-1.58,2.16-2.9,3.7-3.85Zm-5.06,9.05c0-1.11.17-2.18.49-3.19h2.42c-.17,1.02-.27,2.09-.27,3.19,0,1.01.08,2,.23,2.94h-2.45c-.27-.94-.42-1.92-.42-2.94Zm1.13,4.75h2.1c.42,1.63,1.04,3.09,1.83,4.3-1.68-1.04-3.04-2.53-3.93-4.3Zm4.17,0h4.34v5.74c-1.88-.59-3.49-2.79-4.34-5.74Zm6.34,5.74v-5.74h4.34c-.85,2.95-2.46,5.15-4.34,5.74Zm4.58-1.44c.78-1.21,1.41-2.67,1.83-4.3h2.1c-.89,1.77-2.25,3.26-3.93,4.3Zm2.19-6.1c.14-.94.23-1.93.23-2.94,0-1.1-.1-2.17-.27-3.19h2.42c.32,1.01.49,2.08.49,3.19,0,1.02-.15,2.01-.42,2.94h-2.45Z"></path><path d="m17,40c-1.66,0-3,1.34-3,3s1.34,3,3,3,3-1.34,3-3-1.34-3-3-3Zm0,4c-.55,0-1-.45-1-1s.45-1,1-1,1,.45,1,1-.45,1-1,1Z"></path><path d="m25,40c-1.66,0-3,1.34-3,3s1.34,3,3,3,3-1.34,3-3-1.34-3-3-3Zm0,4c-.55,0-1-.45-1-1s.45-1,1-1,1,.45,1,1-.45,1-1,1Z"></path><path d="m33,40c-1.66,0-3,1.34-3,3s1.34,3,3,3,3-1.34,3-3-1.34-3-3-3Zm0,4c-.55,0-1-.45-1-1s.45-1,1-1,1,.45,1,1-.45,1-1,1Z"></path><path d="m68,36H16c-4.42,0-8,3.58-8,8v40c0,4.42,3.58,8,8,8h52c4.42,0,8-3.58,8-8v-40c0-4.42-3.58-8-8-8Zm6,48c0,3.31-2.69,6-6,6H16c-3.31,0-6-2.69-6-6v-34h64v34Zm0-36H10v-4c0-3.31,2.69-6,6-6h52c3.31,0,6,2.69,6,6v4Z"></path><g><path d="m51.97,83.83c-.06,0-.11,0-.17,0-1.29-.06-2.37-.81-2.94-1.5l.77-.64c.44.52,1.25,1.1,2.22,1.14.86.04,1.73-.36,2.55-1.18l.71.71c-.98.98-2.03,1.47-3.13,1.47Z"></path><path d="m65.97,83.83c-.06,0-.11,0-.17,0-1.29-.06-2.37-.81-2.94-1.5l.77-.64c.44.52,1.25,1.1,2.22,1.14.86.04,1.73-.36,2.55-1.18l.71.71c-.98.98-2.03,1.47-3.13,1.47Z"></path></g><g><circle cx="52" cy="82" r="4"></circle><circle cx="66" cy="82" r="4"></circle></g></svg>