<svg xmlns="http://www.w3.org/2000/svg" aria-labelledby="field-media-image-title-0--3" width="100%" viewBox="0 0 32 32" fill="none"><path d="M16 32C24.8366 32 32 24.8366 32 16C32 7.16344 24.8366 0 16 0C7.16344 0 0 7.16344 0 16C0 24.8366 7.16344 32 16 32ZM25.3482 6L17.9027 14.6547H17.9025L26.0002 26.4395H20.0447L14.5917 18.5037L7.7645 26.4395H6L13.8082 17.3637L6 6H11.9555L17.119 13.5148L23.5838 6H25.3482ZM14.6948 16.3322L15.486 17.4637L15.4862 17.4635V17.464L20.8747 25.1715H23.5847L16.9813 15.7262L16.1902 14.5947L11.1102 7.32817H8.40017L14.6948 16.3322Z" fill="currentColor"></path></svg>