<svg xmlns="http://www.w3.org/2000/svg" width="100%" viewBox="0 0 130 28" fill="none"><path fill-rule="evenodd" clip-rule="evenodd" d="M52.1562 2.93365C52.1562 1.47598 53.3317 0.294441 54.7814 0.294441C56.2312 0.294441 57.4067 1.47598 57.4067 2.93365C57.4067 4.39132 56.2312 5.5731 54.7814 5.5731C53.3317 5.5731 52.1562 4.39132 52.1562 2.93365ZM51.019 7.7111H49.2316C46.8149 7.7111 45.5673 9.25045 44.8737 10.1504C44.6088 10.4939 44.2249 10.466 44.2249 9.96708V7.93563C44.2249 7.81153 44.125 7.7111 44.0016 7.7111H40.618C40.4948 7.7111 40.3948 7.81153 40.3948 7.93563V27.6274C40.3948 27.7513 40.4948 27.852 40.618 27.852H44.2314C44.3547 27.852 44.4546 27.7513 44.4546 27.6274V15.9078C44.4546 12.8708 46.2694 11.4015 49.2343 11.4015L51.019 11.401C51.1423 11.401 51.2422 11.3006 51.2422 11.1767V7.93563C51.2422 7.81153 51.1423 7.7111 51.019 7.7111ZM56.5788 7.7111H52.9839C52.8606 7.7111 52.7607 7.81153 52.7607 7.93563V27.6274C52.7607 27.7513 52.8606 27.852 52.9839 27.852H56.5788C56.7021 27.852 56.802 27.7513 56.802 27.6274V7.93563C56.802 7.81153 56.7021 7.7111 56.5788 7.7111ZM70.1101 10.8822V7.93548C70.1101 7.81161 70.0102 7.71117 69.8869 7.71117L65.8568 7.71045V5.69136C65.8568 5.14896 65.9918 4.73882 66.2699 4.43752C66.5432 4.1409 66.9168 3.99678 67.4124 3.99678H69.9141C69.915 3.99678 69.916 3.99666 69.917 3.99654C69.918 3.99642 69.919 3.99629 69.92 3.99629H70.1178C70.2411 3.99629 70.341 3.89586 70.341 3.77198V3.58616V0.717208V0.530893C70.341 0.406771 70.2411 0.306335 70.1178 0.306335H69.9141H69.2956H67.1344C63.5928 0.306335 61.797 1.89874 61.797 5.03939V7.71117H58.5081C58.3848 7.71117 58.2849 7.81161 58.2849 7.93548V10.8822C58.2849 11.0061 58.3848 11.1067 58.5081 11.1067L61.797 11.1112V26.5898V27.4412V27.6275C61.797 27.7514 61.8969 27.8518 62.0203 27.8518H62.2241H65.4482H65.633C65.7564 27.8518 65.8562 27.7514 65.8562 27.6275V27.4478C65.8562 27.4454 65.8568 27.4434 65.8568 27.4412V11.1107L69.8869 11.1067C70.0102 11.1067 70.1101 11.0061 70.1101 10.8822ZM28.8997 11.1772C25.191 11.1772 23.7311 14.4592 23.7311 15.9626L33.975 15.9633C33.975 14.4592 32.9615 11.1772 28.8997 11.1772ZM19.4485 17.7527C19.4485 14.0718 21.138 7.48672 28.8997 7.48672C36.6351 7.48672 38.094 13.943 38.3126 16.4085C38.3965 17.3556 38.2966 19.0511 38.2966 19.0511C38.2898 19.1699 38.1919 19.2628 38.0736 19.2628L23.7308 19.2626C23.7308 23.3748 27.3067 24.3096 28.8997 24.3096C32.4302 24.3096 33.4082 21.9946 33.5646 21.6244C33.5709 21.6095 33.5758 21.5978 33.5796 21.5894C33.6157 21.5092 33.6947 21.4591 33.7821 21.4591H37.6894C37.7938 21.4591 37.8668 21.5218 37.8421 21.66C37.7006 22.3537 36.2212 28 28.8997 28C23.6204 28 19.4485 24.5218 19.4485 17.7527ZM115.385 15.9626C115.385 14.4592 116.845 11.1772 120.554 11.1772C124.615 11.1772 125.629 14.4592 125.629 15.9633L115.385 15.9626ZM129.966 16.4085C129.748 13.943 128.289 7.48672 120.554 7.48672C112.792 7.48672 111.102 14.0718 111.102 17.7527C111.102 24.5218 115.274 28 120.554 28C127.875 28 129.354 22.3537 129.496 21.66C129.521 21.5218 129.448 21.4591 129.343 21.4591H125.436C125.348 21.4591 125.27 21.5092 125.234 21.5894C125.231 21.5949 125.228 21.602 125.224 21.6104L125.218 21.6245C125.062 21.9946 124.084 24.3096 120.554 24.3096C118.96 24.3096 115.384 23.3748 115.384 19.2626L129.728 19.2628C129.846 19.2628 129.944 19.1699 129.95 19.0511C129.95 19.0511 130.05 17.3556 129.966 16.4085ZM85.282 18.1595L85.2835 18.1377C85.2835 18.1273 85.2842 18.117 85.2842 18.1066C85.2879 17.9898 85.2901 17.8721 85.2901 17.7527C85.2901 17.6357 85.2879 17.5202 85.2842 17.4057C85.2828 17.3523 85.2798 17.2997 85.2769 17.2468L85.2755 17.2184L85.2733 17.168C85.2718 17.1346 85.2703 17.1007 85.2682 17.0679C85.2645 17.0068 85.2594 16.9465 85.2543 16.8861L85.2514 16.8556L85.2477 16.814C85.2455 16.7868 85.2433 16.7595 85.2411 16.7325C85.2346 16.6681 85.2265 16.6047 85.2192 16.541L85.2185 16.5401V16.5392C85.2134 16.4902 85.2075 16.4412 85.201 16.393C85.1966 16.3614 85.1915 16.3302 85.1871 16.2989V16.2979L85.1798 16.2541C85.1696 16.1827 85.1586 16.1111 85.1462 16.041C85.144 16.0319 85.1426 16.0229 85.1411 16.0138C85.1389 16.0047 85.1374 15.9957 85.136 15.9865C84.9169 14.808 84.4656 13.8001 83.785 12.9779C83.0461 12.0841 82.0931 11.5202 80.943 11.2925L80.9371 11.2914L80.9262 11.2893C80.9203 11.2884 80.9145 11.2874 80.9094 11.2863C80.8283 11.2708 80.7458 11.2569 80.6633 11.2446C80.6443 11.242 80.6253 11.2395 80.6056 11.2371L80.5552 11.2307C80.4917 11.2226 80.4282 11.2145 80.3632 11.2083C80.3157 11.2038 80.2675 11.2004 80.2193 11.1972L80.1843 11.1947L80.1427 11.1917C80.1105 11.1893 80.0784 11.1869 80.0463 11.1854C79.9367 11.1802 79.8265 11.1772 79.714 11.1772C79.6023 11.1772 79.4935 11.1802 79.3854 11.1851C79.3248 11.188 79.2649 11.1927 79.2058 11.1974L79.205 11.1975L79.1861 11.1989C79.1707 11.2002 79.1546 11.2014 79.1393 11.2024C79.1189 11.2039 79.0992 11.2053 79.0794 11.2071C77.6701 11.3423 76.5192 11.9393 75.651 12.9873C74.8397 13.9672 74.3512 15.202 74.1935 16.6676C74.1927 16.6794 74.1913 16.6908 74.1898 16.7027C74.181 16.7881 74.1737 16.875 74.1672 16.9619C74.165 16.993 74.162 17.0242 74.1599 17.0553C74.1547 17.135 74.1511 17.2159 74.1474 17.2969C74.1467 17.3121 74.146 17.3273 74.1453 17.3424C74.1445 17.3623 74.1431 17.3823 74.1423 17.4022C74.1387 17.518 74.1372 17.6344 74.1372 17.7527C74.1372 17.8731 74.1387 17.992 74.1431 18.1097C74.1431 18.1157 74.1431 18.1216 74.1438 18.1274C74.1438 18.1302 74.1438 18.1333 74.1438 18.1362C74.1445 18.1389 74.1445 18.1417 74.1445 18.1445C74.2088 19.9166 74.7141 21.3834 75.651 22.5084C76.5207 23.554 77.6759 24.1485 79.0904 24.2809C79.0919 24.2812 79.0926 24.2813 79.094 24.2814L79.097 24.2815L79.0999 24.2817C79.1955 24.2906 79.2912 24.2972 79.3883 24.3017C79.4957 24.3066 79.6037 24.3096 79.714 24.3096C79.825 24.3096 79.9345 24.3066 80.0426 24.3017C80.104 24.2988 80.1638 24.2941 80.2244 24.2895L80.2449 24.2879C80.2712 24.2859 80.2975 24.2843 80.323 24.2823C80.3325 24.2816 80.342 24.2808 80.3515 24.28C81.7696 24.1462 82.9234 23.5552 83.7858 22.5178C84.6504 21.4779 85.1447 20.136 85.2623 18.5218L85.2645 18.4967C85.2652 18.4846 85.266 18.4721 85.2667 18.4599C85.2725 18.374 85.2762 18.2867 85.2806 18.199C85.2806 18.1859 85.2813 18.1727 85.282 18.1595ZM89.3407 17.2246C89.3465 17.3983 89.3502 17.5737 89.3502 17.7527C89.3502 17.9316 89.3465 18.107 89.3407 18.2807C89.3399 18.3015 89.3392 18.3222 89.3385 18.343C89.2187 21.5929 88.1066 23.9296 86.4708 25.4894C84.8775 27.0613 82.7649 27.9009 80.1814 27.9907C80.0258 27.9968 79.8695 28.0001 79.714 28.0001C79.5585 28.0001 79.4029 27.9968 79.2481 27.9907C76.4747 27.8964 74.2511 26.9528 72.6373 25.1792C72.5865 25.1236 72.5379 25.0663 72.4895 25.0091L72.4502 24.9628C72.4378 24.9484 72.4253 24.9342 72.4131 24.9199L72.3942 24.8976L72.3732 24.8733C72.3597 24.8576 72.346 24.8419 72.3327 24.826C72.3269 24.8191 72.3211 24.8121 72.3154 24.8051C71.119 23.3736 70.3048 21.4246 70.1185 18.8868C70.118 18.8789 70.1175 18.8712 70.1167 18.8634C70.1045 18.6936 70.0951 18.5213 70.0886 18.3464L70.0863 18.2758C70.0809 18.1038 70.0771 17.9299 70.0771 17.7527C70.0771 17.5772 70.0806 17.405 70.0863 17.2344L70.0864 17.2323C70.0871 17.2044 70.0879 17.176 70.0891 17.148C70.0951 16.984 70.104 16.8226 70.1153 16.6632C70.1172 16.6333 70.1197 16.6035 70.122 16.5736C70.1345 16.4107 70.1489 16.2496 70.1666 16.0917L70.1693 16.0687L70.1721 16.0457C70.1905 15.8851 70.2114 15.7269 70.2351 15.5712C70.236 15.5659 70.2367 15.5604 70.2374 15.5551C70.2382 15.5494 70.239 15.5437 70.2398 15.5381C70.2645 15.3784 70.2924 15.2218 70.3223 15.067L70.3343 15.0049C70.3649 14.8521 70.398 14.7016 70.4336 14.5538L70.4405 14.5256L70.4474 14.4975C70.4847 14.346 70.5243 14.1967 70.5667 14.0504L70.5696 14.0409C70.5719 14.0334 70.5743 14.0259 70.5764 14.0183C70.6661 13.714 70.7665 13.4213 70.8776 13.1401C70.881 13.1317 70.8842 13.1233 70.8874 13.1149L70.8878 13.1139C70.8909 13.1058 70.8941 13.0976 70.8973 13.0894C70.9474 12.9651 70.9997 12.8434 71.0537 12.7235C71.0697 12.6877 71.0859 12.6514 71.1024 12.6159C71.1492 12.5152 71.1975 12.4165 71.2471 12.3193C71.2775 12.259 71.3086 12.1993 71.3403 12.1401C71.3453 12.1305 71.3507 12.1211 71.356 12.1115C71.7105 11.4524 72.1367 10.8463 72.6375 10.298C74.2526 8.52983 76.4769 7.5894 79.2518 7.49591C79.4051 7.48976 79.5592 7.4865 79.714 7.4865C79.8695 7.4865 80.0251 7.48998 80.1806 7.49613C82.7722 7.58621 84.8892 8.4336 86.4847 10.0198C88.1124 11.5839 89.2187 13.9211 89.3385 17.1624C89.3392 17.1827 89.3399 17.203 89.3407 17.2233V17.2246ZM101.182 7.48918C98.6606 7.48672 96.6773 9.20913 95.9624 10.194C95.7178 10.5316 95.2533 10.4825 95.2533 9.91932V7.93556C95.2533 7.81146 95.1533 7.71103 95.0306 7.71103H91.6467C91.5233 7.71103 91.424 7.81146 91.424 7.93556V27.6274C91.424 27.7514 91.5233 27.8519 91.6467 27.8519H95.2607C95.3841 27.8519 95.4834 27.7514 95.4834 27.6274V15.9314C95.4834 13.6623 96.8555 11.1771 100.263 11.1771C104.178 11.1771 105.08 14.1952 105.08 15.7912V27.6274C105.08 27.7514 105.18 27.8519 105.304 27.8519H108.917C109.04 27.8519 109.14 27.7514 109.14 27.6274V16.2907C109.14 11.4501 106.523 7.49461 101.182 7.48918ZM15.5265 7.7111H19.6498C19.752 7.7111 19.824 7.81153 19.7921 7.90871L13.5102 27.699C13.4796 27.7903 13.3944 27.852 13.2985 27.852H6.77097C6.6753 27.852 6.59034 27.7905 6.55945 27.6997L0.274112 7.90871C0.242222 7.81153 0.314224 7.7111 0.416372 7.7111H4.52795C4.6144 7.7111 4.69064 7.76805 4.7153 7.85148L9.657 23.9364C9.78085 24.3061 10.3011 24.3056 10.4244 23.936L15.3392 7.85177C15.3638 7.76834 15.4401 7.7111 15.5265 7.7111Z" fill="currentColor"></path></svg>