<svg xmlns="http://www.w3.org/2000/svg" xmlns:xlink="http://www.w3.org/1999/xlink" version="1.1" id="Layer_1" x="0px" y="0px" viewBox="0 0 579.9 245.9" xml:space="preserve"><style type="text/css">
	.st0{fill:#58595B;}
	.st1{fill:#0066A6;}
	.st2{fill:#ED1C24;}
	.st3{fill:#46A748;}
	.st4{fill:#FFC20E;}</style><path d="M173.1,119.7c0,2-0.6,3.7-1.8,5.1s-3,2.1-5.2,2.1h-36.9V120c0-2,0.6-3.7,1.8-5.1s3-2.1,5.2-2.1h29.9  c2,0,3.6,0.6,5,1.8C172.4,115.8,173.1,117.5,173.1,119.7 M188.8,119.8c0-4.2-0.8-7.7-2.3-10.6s-3.4-5.3-5.7-7.1  c-2.3-1.8-4.7-3.1-7.4-3.9S168.3,97,166,97h-29.9c-4.2,0-7.7,0.8-10.6,2.3s-5.3,3.4-7.1,5.7c-1.8,2.3-3.1,4.7-3.9,7.4  c-0.8,2.7-1.2,5.1-1.2,7.4V143c0,4.2,0.8,7.7,2.3,10.6c1.5,2.9,3.4,5.3,5.7,7.1c2.3,1.8,4.7,3.1,7.4,3.9c2.7,0.8,5.1,1.2,7.4,1.2  H186V150h-49.8c-2,0-3.7-0.6-5.1-1.8c-1.4-1.2-2.1-2.9-2.1-5.2v-0.4h36.9c4.2,0,7.7-0.8,10.6-2.3c2.9-1.5,5.3-3.4,7.1-5.7  s3.1-4.7,3.9-7.4C188.4,124.6,188.8,122.1,188.8,119.8"></path><path d="M553.9,142.7c0,2.2-0.6,3.8-1.7,5c-1.1,1.1-2.8,1.7-5,1.7h-29.8c-2.2,0-3.9-0.6-5-1.7c-1.2-1.1-1.7-2.8-1.7-5  v-22.4c0-2.2,0.6-3.8,1.7-4.9c1.1-1.1,2.8-1.7,5-1.7h29.8c2.2,0,3.8,0.6,5,1.7c1.1,1.1,1.7,2.8,1.7,5.1V142.7z M570.5,120.2  c0-2.3-0.4-4.9-1.2-7.6s-2.2-5.2-4-7.6c-1.8-2.3-4.2-4.2-7.2-5.8c-3-1.5-6.6-2.3-10.8-2.3h-29.9c-2.3,0-4.8,0.4-7.5,1.2  c-2.7,0.8-5.2,2.1-7.6,4c-2.3,1.8-4.3,4.3-5.8,7.2c-1.5,2.9-2.3,6.6-2.3,10.8v22.4c0,4.3,0.8,7.9,2.3,10.9c1.6,3,3.5,5.4,5.8,7.2  s4.8,3.2,7.6,4c2.7,0.8,5.2,1.2,7.5,1.2h29.9c1.6,0,3.2-0.2,5-0.5c1.8-0.4,3.5-0.9,5.2-1.7s3.4-1.8,4.9-3c1.6-1.2,3-2.7,4.1-4.4  c1.2-1.7,2.1-3.7,2.9-6c0.7-2.3,1.1-4.8,1.1-7.7V120.2z M464.9,142.7c0,2.2-0.6,3.8-1.7,5s-2.8,1.7-5,1.7h-29.8  c-2.2,0-3.9-0.6-5-1.7c-1.1-1.1-1.7-2.8-1.7-5v-22.4c0-2.2,0.6-3.8,1.7-4.9c1.2-1.1,2.8-1.7,5-1.7h29.8c2.2,0,3.8,0.6,5,1.7  c1.1,1.1,1.7,2.8,1.7,5.1V142.7z M481.5,120.2c0-2.3-0.4-4.9-1.2-7.6c-0.8-2.7-2.2-5.2-4-7.6c-1.8-2.3-4.2-4.2-7.2-5.8  c-3-1.5-6.6-2.3-10.8-2.3h-29.9c-2.3,0-4.8,0.4-7.5,1.2c-2.7,0.8-5.2,2.1-7.6,4c-2.3,1.8-4.3,4.3-5.8,7.2c-1.6,2.9-2.3,6.6-2.3,10.8  v22.4c0,4.3,0.8,7.9,2.3,10.9c1.6,3,3.5,5.4,5.8,7.2s4.8,3.2,7.6,4c2.7,0.8,5.2,1.2,7.5,1.2h29.9c1.6,0,3.2-0.2,5-0.5  c1.8-0.4,3.5-0.9,5.2-1.7s3.4-1.8,4.9-3c1.6-1.2,3-2.7,4.1-4.4c1.2-1.7,2.1-3.7,2.9-6c0.7-2.3,1.1-4.8,1.1-7.7V120.2z M383,97  c-0.8,2.9-1.9,6.2-3.5,9.9c-1.6,3.7-3.4,7.5-5.6,11.3s-4.7,7.6-7.6,11.2c-2.8,3.7-5.9,6.9-9.2,9.8c-3.3,2.9-6.8,5.2-10.5,6.9  s-7.6,2.6-11.6,2.6V74.5h-16.6v83.3c0,1.1,0.2,2.2,0.6,3.2s1,1.9,1.8,2.6c0.8,0.7,1.7,1.3,2.7,1.8c1,0.4,2.1,0.6,3.3,0.6  c6.7,0,12.9-0.9,18.6-2.7s11-4.3,15.9-7.5s9.3-6.9,13.3-11.3c4-4.4,7.6-9.1,10.9-14.2c3.3-5.1,6.1-10.5,8.6-16.2  c2.5-5.6,4.7-11.4,6.6-17.2L383,97L383,97z"></path><path d="M251.5,120.3c-4.2,0-7.7,0.8-10.6,2.3c-2.9,1.5-5.3,3.4-7.1,5.7c-1.8,2.3-3.1,4.7-3.9,7.4  c-0.8,2.7-1.2,5.1-1.2,7.4c0,4.2,0.8,7.7,2.3,10.6c1.5,2.9,3.4,5.3,5.7,7.1s4.7,3.1,7.4,3.9c2.7,0.8,5.1,1.2,7.4,1.2h29.9  c4.2,0,7.7-0.8,10.6-2.3s5.3-3.4,7.1-5.7c1.8-2.3,3.1-4.7,3.9-7.4s1.2-5.1,1.2-7.4v-23.3c0-4.2-0.8-7.7-2.3-10.6s-3.4-5.3-5.7-7.1  c-2.3-1.8-4.7-3.1-7.4-3.9c-2.7-0.8-5.1-1.2-7.4-1.2h-50v15.8h49.8c2,0,3.7,0.6,5.1,1.8c1.4,1.2,2.1,3,2.1,5.2v0.5L251.5,120.3z   M288.5,143c0,2-0.6,3.7-1.8,5.1c-1.2,1.4-3,2.1-5.2,2.1h-29.9c-2,0-3.6-0.6-5-1.8s-2.1-2.9-2.1-5.1c0-2,0.6-3.7,1.8-5.1  c1.2-1.4,3-2.1,5.2-2.1h37V143z"></path><path d="M84.2,127.7c0,3.3-0.5,6.2-1.6,8.9c-1,2.7-2.5,4.9-4.4,6.8c-1.9,1.9-4.2,3.4-6.9,4.4c-2.7,1-5.6,1.6-8.8,1.6H26  V91.1h36.5c3.2,0,6.2,0.5,8.8,1.6s4.9,2.5,6.9,4.4c1.9,1.9,3.4,4.2,4.4,6.8c1,2.7,1.6,5.6,1.6,8.9C84.2,112.8,84.2,127.7,84.2,127.7  z M100.8,127.7v-14.9c0-5.5-1-10.6-2.9-15.3c-1.9-4.7-4.6-8.7-8-12.1s-7.4-6-12.1-7.9s-9.7-2.9-15.2-2.9H17.8  c-1.2,0-2.3,0.2-3.3,0.6s-1.9,1-2.6,1.8s-1.3,1.7-1.7,2.7S9.6,81.8,9.6,83v74.7c0,1.2,0.2,2.3,0.6,3.3c0.4,1,1,1.9,1.7,2.6  c0.7,0.7,1.6,1.3,2.6,1.8c1,0.4,2.1,0.6,3.3,0.6h44.7c5.5,0,10.6-1,15.2-2.9c4.7-1.9,8.7-4.6,12.1-7.9c3.4-3.4,6.1-7.4,8-12.1  S100.8,133.3,100.8,127.7"></path><path d="M217.3,97h-16.6v75.5c0,2.2-0.6,3.8-1.7,5c-1.1,1.1-2.8,1.7-5,1.7h-29.9v16.6H194c1.6,0,3.2-0.2,5-0.5  c1.7-0.4,3.5-0.9,5.2-1.7s3.4-1.8,4.9-3c1.6-1.2,3-2.7,4.1-4.4c1.2-1.7,2.1-3.7,2.9-6c0.7-2.3,1.1-4.8,1.1-7.7V97H217.3z"></path><path d="M139.9,69.3c-3.3,0.7-8.7,3.8-14.1,7.3l13.6,0.3l-20.6,4.5c-5.6,3.9-10,7.3-10,7.3s36.7-11.8,64-9.4l13.2-8  C186.1,71.2,148.4,67.4,139.9,69.3"></path><path d="M219.9,66.2c3.6,5.8,1,15.9-6.2,19.9c-6.9,3.8-15.8,2.4-18.4-3.5c-3-7-0.1-14.8,7-19.1  C209.2,59.2,216.3,60.4,219.9,66.2"></path><path d="M557.3,229.6c0.3,0.5,0.7,0.8,1.1,1.1c0.5,0.3,1,0.5,1.6,0.6s1.2,0.2,1.8,0.2c0.5,0,1,0,1.5-0.1s1-0.2,1.4-0.4  s0.8-0.5,1.1-0.8c0.3-0.4,0.4-0.8,0.4-1.4c0-0.8-0.3-1.4-0.9-1.8c-0.6-0.4-1.3-0.7-2.2-1c-0.9-0.2-1.9-0.5-2.9-0.7s-2-0.5-2.9-0.9  s-1.6-0.9-2.2-1.5c-0.6-0.7-0.9-1.6-0.9-2.8c0-0.9,0.2-1.7,0.6-2.4c0.4-0.7,1-1.2,1.6-1.6c0.7-0.4,1.4-0.7,2.2-0.9s1.6-0.3,2.4-0.3  c1,0,2,0.1,2.9,0.3s1.7,0.5,2.3,0.9c0.7,0.4,1.2,1,1.6,1.8c0.4,0.7,0.6,1.7,0.7,2.8h-3c0-0.6-0.2-1.1-0.5-1.5s-0.6-0.7-1-0.9  s-0.8-0.4-1.3-0.5s-1-0.2-1.5-0.2s-0.9,0-1.4,0.1s-0.9,0.2-1.3,0.4c-0.4,0.2-0.7,0.4-0.9,0.7s-0.4,0.7-0.4,1.2s0.2,1,0.6,1.3  c0.4,0.3,0.8,0.6,1.4,0.9c0.6,0.2,1.2,0.4,1.9,0.6c0.7,0.2,1.4,0.3,2.1,0.5c0.8,0.2,1.5,0.4,2.2,0.6c0.7,0.2,1.4,0.6,1.9,0.9  c0.6,0.4,1,0.9,1.4,1.5c0.3,0.6,0.5,1.3,0.5,2.2c0,1.1-0.2,2-0.7,2.8c-0.5,0.7-1.1,1.3-1.8,1.8c-0.7,0.4-1.6,0.8-2.5,0.9  c-0.9,0.2-1.9,0.3-2.8,0.3c-1,0-2-0.1-2.9-0.3s-1.7-0.6-2.5-1c-0.7-0.5-1.3-1.1-1.7-1.9c-0.4-0.8-0.7-1.8-0.7-2.9h3  C556.9,228.5,557,229.1,557.3,229.6 M538.1,215.3v2.9h0.1c1.3-2.2,3.2-3.3,6-3.3c1.2,0,2.2,0.2,3,0.5s1.5,0.8,2,1.4  c0.5,0.6,0.8,1.3,1,2.1s0.3,1.7,0.3,2.7v12.1h-3v-12.4c0-1.1-0.3-2-1-2.7s-1.6-1-2.7-1c-0.9,0-1.7,0.1-2.4,0.4  c-0.7,0.3-1.2,0.7-1.7,1.2c-0.4,0.5-0.8,1.1-1,1.8s-0.3,1.5-0.3,2.3v10.4h-3v-18.4H538.1z M514.4,220.7c0.4-1.2,1-2.2,1.7-3.1  c0.8-0.9,1.7-1.5,2.8-2s2.4-0.7,3.8-0.7c1.5,0,2.8,0.2,3.9,0.7c1.1,0.5,2,1.2,2.8,2c0.8,0.9,1.3,1.9,1.7,3.1  c0.4,1.2,0.6,2.4,0.6,3.8s-0.2,2.6-0.6,3.8c-0.4,1.2-0.9,2.2-1.7,3c-0.8,0.9-1.7,1.5-2.8,2s-2.4,0.7-3.9,0.7c-1.4,0-2.7-0.2-3.8-0.7  s-2-1.2-2.8-2c-0.8-0.9-1.3-1.9-1.7-3c-0.4-1.2-0.6-2.4-0.6-3.8S514,221.9,514.4,220.7 M517.5,227.5c0.3,0.9,0.7,1.6,1.2,2.2  c0.5,0.6,1.1,1,1.8,1.3s1.4,0.5,2.2,0.5s1.5-0.2,2.2-0.5s1.3-0.8,1.8-1.3c0.5-0.6,0.9-1.3,1.2-2.2s0.4-1.9,0.4-3s-0.1-2.1-0.4-3  c-0.3-0.9-0.7-1.6-1.2-2.2c-0.5-0.6-1.1-1-1.8-1.4c-0.7-0.3-1.4-0.5-2.2-0.5s-1.5,0.2-2.2,0.5s-1.3,0.8-1.8,1.4  c-0.5,0.6-0.9,1.3-1.2,2.2s-0.4,1.9-0.4,3C517,225.6,517.2,226.6,517.5,227.5 M510.2,233.7h-3v-18.4h3V233.7z M507.1,208.3h3v3.7h-3  V208.3z M503.6,215.3v2.7H500v11.4c0,0.4,0,0.6,0.1,0.9c0.1,0.2,0.2,0.4,0.3,0.5c0.2,0.1,0.4,0.2,0.7,0.2c0.3,0,0.7,0.1,1.2,0.1h1.4  v2.7h-2.3c-0.8,0-1.5-0.1-2-0.2c-0.6-0.1-1-0.3-1.4-0.6c-0.3-0.3-0.6-0.7-0.8-1.2c-0.2-0.5-0.2-1.2-0.2-2.1V218h-3.1v-2.7h3.1v-5.5  h3v5.5H503.6z M488.4,233.7v-2.9h-0.1c-0.6,1.1-1.5,2-2.5,2.5s-2.2,0.8-3.5,0.8c-1.2,0-2.2-0.2-3-0.5s-1.5-0.8-2-1.4  c-0.5-0.6-0.8-1.3-1-2.1s-0.3-1.7-0.3-2.7v-12.1h3v12.4c0,1.1,0.3,2,1,2.7s1.6,1,2.7,1c0.9,0,1.7-0.1,2.4-0.4  c0.7-0.3,1.2-0.7,1.7-1.2c0.4-0.5,0.8-1.1,1-1.8s0.3-1.5,0.3-2.3v-10.4h3v18.4H488.4z M471.3,233.7h-3v-25.4h3V233.7z M447.3,220.7  c0.4-1.2,0.9-2.2,1.7-3.1c0.8-0.9,1.7-1.5,2.8-2c1.1-0.5,2.4-0.7,3.8-0.7c1.5,0,2.8,0.2,3.9,0.7s2,1.2,2.8,2  c0.8,0.9,1.3,1.9,1.7,3.1c0.4,1.2,0.6,2.4,0.6,3.8s-0.2,2.6-0.6,3.8s-0.9,2.2-1.7,3c-0.8,0.9-1.7,1.5-2.8,2  c-1.1,0.5-2.4,0.7-3.9,0.7c-1.4,0-2.7-0.2-3.8-0.7c-1.1-0.5-2.1-1.2-2.8-2c-0.8-0.9-1.3-1.9-1.7-3c-0.4-1.2-0.6-2.4-0.6-3.8  S446.9,221.9,447.3,220.7 M450.4,227.5c0.3,0.9,0.7,1.6,1.2,2.2c0.5,0.6,1.1,1,1.8,1.3c0.7,0.3,1.4,0.5,2.2,0.5  c0.8,0,1.5-0.2,2.2-0.5s1.3-0.8,1.8-1.3c0.5-0.6,0.9-1.3,1.2-2.2c0.3-0.9,0.4-1.9,0.4-3s-0.2-2.1-0.4-3c-0.3-0.9-0.7-1.6-1.2-2.2  c-0.5-0.6-1.1-1-1.8-1.4c-0.7-0.3-1.4-0.5-2.2-0.5c-0.8,0-1.5,0.2-2.2,0.5s-1.3,0.8-1.8,1.4c-0.5,0.6-0.9,1.3-1.2,2.2  c-0.3,0.9-0.4,1.9-0.4,3C449.9,225.6,450.1,226.6,450.4,227.5 M437.9,211.8c-1.1-0.8-2.6-1.2-4.3-1.2c-0.7,0-1.4,0.1-2.1,0.2  c-0.7,0.1-1.3,0.4-1.8,0.7s-1,0.8-1.3,1.3c-0.3,0.6-0.5,1.2-0.5,2.1c0,0.8,0.2,1.4,0.7,1.9s1.1,0.9,1.8,1.2c0.8,0.3,1.6,0.6,2.6,0.8  s2,0.4,3,0.7c1,0.2,2,0.5,3,0.8s1.8,0.8,2.6,1.3c0.8,0.5,1.4,1.2,1.8,2.1c0.5,0.8,0.7,1.9,0.7,3.1c0,1.4-0.3,2.5-0.9,3.5  s-1.4,1.7-2.3,2.3s-2,1-3.2,1.3s-2.3,0.4-3.5,0.4c-1.4,0-2.8-0.2-4-0.5c-1.3-0.4-2.4-0.9-3.3-1.6c-1-0.7-1.7-1.6-2.3-2.8  c-0.6-1.1-0.8-2.5-0.8-4h3.2c0,1.1,0.2,2,0.6,2.8s1,1.4,1.6,1.9c0.7,0.5,1.5,0.9,2.4,1.1c0.9,0.2,1.8,0.4,2.8,0.4  c0.8,0,1.5-0.1,2.3-0.2c0.8-0.1,1.5-0.4,2.1-0.7s1.1-0.8,1.5-1.4c0.4-0.6,0.6-1.4,0.6-2.3c0-0.9-0.2-1.6-0.7-2.1s-1.1-1-1.8-1.3  c-0.8-0.3-1.6-0.6-2.6-0.8s-2-0.4-3-0.7c-1-0.2-2-0.5-3-0.8s-1.8-0.7-2.6-1.2c-0.8-0.5-1.4-1.1-1.8-1.9c-0.5-0.8-0.7-1.7-0.7-2.9  c0-1.3,0.3-2.4,0.8-3.3c0.5-0.9,1.2-1.7,2.1-2.3s1.8-1.1,2.9-1.4c1.1-0.3,2.2-0.4,3.4-0.4c1.3,0,2.5,0.2,3.6,0.5s2.1,0.8,2.9,1.5  s1.5,1.5,2,2.5s0.8,2.2,0.8,3.6H440C439.7,213.9,439,212.6,437.9,211.8 M406.6,232.5c-1.4,1-3.1,1.6-5.2,1.6c-1.5,0-2.7-0.2-3.8-0.7  c-1.1-0.5-2-1.1-2.7-2s-1.3-1.9-1.7-3.1c-0.4-1.2-0.6-2.5-0.6-3.9s0.2-2.7,0.6-3.8c0.4-1.2,1-2.2,1.8-3c0.8-0.9,1.7-1.5,2.7-2  c1.1-0.5,2.2-0.7,3.5-0.7c1.6,0,3,0.3,4.1,1s1.9,1.5,2.6,2.6c0.7,1,1.1,2.2,1.4,3.4c0.2,1.2,0.4,2.4,0.3,3.5h-13.7  c0,0.8,0.1,1.6,0.3,2.3c0.2,0.7,0.6,1.4,1,1.9c0.5,0.6,1.1,1,1.8,1.3c0.7,0.3,1.6,0.5,2.6,0.5c1.3,0,2.3-0.3,3.1-0.9  c0.8-0.6,1.4-1.5,1.6-2.7h3C408.9,229.9,408,231.5,406.6,232.5 M405.9,220.7c-0.3-0.6-0.6-1.2-1.1-1.7s-1-0.8-1.6-1.1  s-1.3-0.4-2.1-0.4c-0.8,0-1.5,0.1-2.1,0.4c-0.6,0.3-1.2,0.6-1.6,1.1s-0.8,1-1.1,1.7c-0.3,0.6-0.4,1.3-0.5,2h10.5  C406.3,222,406.2,221.3,405.9,220.7 M384.1,215.3v3.9h0.1c0.7-1.5,1.6-2.6,2.7-3.3s2.4-1,4.1-1v3.2c-1.2,0-2.2,0.2-3.1,0.5  s-1.5,0.8-2.1,1.5c-0.5,0.6-0.9,1.4-1.1,2.3s-0.4,2-0.4,3.1v8.2h-3v-18.4H384.1z M371.1,224.8c-0.6,0.1-1.3,0.2-1.9,0.3  c-0.7,0.1-1.4,0.2-2,0.3c-0.7,0.1-1.3,0.3-1.8,0.5s-1,0.6-1.3,1s-0.5,1-0.5,1.8c0,0.5,0.1,0.9,0.3,1.3c0.2,0.3,0.5,0.6,0.8,0.8  s0.7,0.4,1.1,0.5s0.9,0.1,1.3,0.1c1,0,1.8-0.1,2.6-0.4c0.7-0.3,1.3-0.6,1.7-1c0.5-0.4,0.8-0.9,1-1.4s0.3-0.9,0.3-1.4v-3.1  C372.2,224.5,371.7,224.7,371.1,224.8 M375.3,234.1c-0.8,0-1.4-0.2-1.9-0.7c-0.5-0.4-0.7-1.2-0.7-2.1c-0.8,1-1.8,1.7-2.9,2.1  c-1.1,0.4-2.3,0.7-3.6,0.7c-0.8,0-1.6-0.1-2.3-0.3c-0.7-0.2-1.4-0.5-1.9-0.9c-0.6-0.4-1-1-1.3-1.6c-0.3-0.7-0.5-1.4-0.5-2.4  s0.2-1.9,0.5-2.6c0.4-0.7,0.8-1.2,1.4-1.6c0.6-0.4,1.2-0.7,2-0.9c0.7-0.2,1.5-0.4,2.3-0.5c0.8-0.2,1.6-0.3,2.4-0.4  c0.7-0.1,1.4-0.2,2-0.4s1-0.4,1.4-0.7c0.3-0.3,0.5-0.7,0.5-1.3c0-0.7-0.1-1.2-0.4-1.6c-0.2-0.4-0.6-0.7-1-0.9s-0.8-0.4-1.3-0.4  c-0.5-0.1-1-0.1-1.4-0.1c-1.3,0-2.3,0.2-3.2,0.7c-0.9,0.5-1.3,1.4-1.4,2.8h-3c0-1.1,0.3-2.1,0.7-2.9c0.4-0.8,1-1.4,1.7-1.9  s1.5-0.8,2.5-1c0.9-0.2,1.9-0.3,2.9-0.3c0.8,0,1.7,0.1,2.5,0.2c0.8,0.1,1.6,0.4,2.2,0.7c0.7,0.4,1.2,0.9,1.6,1.5  c0.4,0.7,0.6,1.5,0.6,2.6v9.5c0,0.7,0,1.2,0.1,1.6c0.1,0.3,0.4,0.5,0.8,0.5c0.3,0,0.6-0.1,0.9-0.2v2.3  C377,233.9,376.3,234.1,375.3,234.1 M348.2,233.7l-3.7-14.6h-0.1l-3.7,14.6h-3.3l-5.9-18.4h3.3l4.2,15h0.1l3.7-15h3.3l3.8,15h0.1  l4.1-15h3.1l-5.9,18.4H348.2z M328.8,215.3v2.7h-3.7v11.4c0,0.4,0,0.6,0.1,0.9c0.1,0.2,0.2,0.4,0.3,0.5c0.2,0.1,0.4,0.2,0.7,0.2  c0.3,0,0.7,0.1,1.2,0.1h1.4v2.7h-2.3c-0.8,0-1.5-0.1-2-0.2c-0.6-0.1-1-0.3-1.4-0.6c-0.3-0.3-0.6-0.7-0.8-1.2  c-0.2-0.5-0.2-1.2-0.2-2.1V218H319v-2.7h3.1v-5.5h3v5.5H328.8z M307.6,218v-2.7h3.1v-2.7c0-1.5,0.4-2.6,1.3-3.4  c0.9-0.8,2.1-1.2,3.8-1.2c0.3,0,0.6,0,1,0.1c0.4,0,0.7,0.1,1,0.2v2.6c-0.3-0.1-0.5-0.2-0.9-0.2c-0.3,0-0.6-0.1-0.9-0.1  c-0.7,0-1.3,0.1-1.7,0.4c-0.4,0.3-0.6,0.8-0.6,1.6v2.6h3.6v2.7h-3.6v15.7h-3V218H307.6z M287.5,220.7c0.4-1.2,0.9-2.2,1.7-3.1  c0.8-0.9,1.7-1.5,2.8-2c1.1-0.5,2.4-0.7,3.8-0.7c1.5,0,2.8,0.2,3.9,0.7s2,1.2,2.8,2c0.8,0.9,1.3,1.9,1.7,3.1  c0.4,1.2,0.6,2.4,0.6,3.8s-0.2,2.6-0.6,3.8s-0.9,2.2-1.7,3c-0.8,0.9-1.7,1.5-2.8,2c-1.1,0.5-2.4,0.7-3.9,0.7c-1.4,0-2.7-0.2-3.8-0.7  c-1.1-0.5-2-1.2-2.8-2c-0.8-0.9-1.3-1.9-1.7-3c-0.4-1.2-0.6-2.4-0.6-3.8S287.1,221.9,287.5,220.7 M290.6,227.5  c0.3,0.9,0.7,1.6,1.2,2.2c0.5,0.6,1.1,1,1.8,1.3c0.7,0.3,1.4,0.5,2.2,0.5c0.8,0,1.5-0.2,2.2-0.5s1.3-0.8,1.8-1.3  c0.5-0.6,0.9-1.3,1.2-2.2c0.3-0.9,0.4-1.9,0.4-3s-0.2-2.1-0.4-3c-0.3-0.9-0.7-1.6-1.2-2.2c-0.5-0.6-1.1-1-1.8-1.4  c-0.7-0.3-1.4-0.5-2.2-0.5c-0.8,0-1.5,0.2-2.2,0.5s-1.3,0.8-1.8,1.4c-0.5,0.6-0.9,1.3-1.2,2.2c-0.3,0.9-0.4,1.9-0.4,3  C290.1,225.6,290.3,226.6,290.6,227.5 M277.1,211.8c-1.1-0.8-2.6-1.2-4.3-1.2c-0.7,0-1.4,0.1-2.1,0.2c-0.7,0.1-1.3,0.4-1.8,0.7  s-1,0.8-1.3,1.3c-0.3,0.6-0.5,1.2-0.5,2.1c0,0.8,0.2,1.4,0.7,1.9s1.1,0.9,1.8,1.2c0.8,0.3,1.6,0.6,2.6,0.8s2,0.4,3,0.7  c1,0.2,2,0.5,3,0.8s1.8,0.8,2.6,1.3c0.8,0.5,1.4,1.2,1.8,2.1c0.5,0.8,0.7,1.9,0.7,3.1c0,1.4-0.3,2.5-0.9,3.5s-1.4,1.7-2.3,2.3  c-1,0.6-2,1-3.2,1.3s-2.3,0.4-3.5,0.4c-1.4,0-2.8-0.2-4-0.5c-1.3-0.4-2.4-0.9-3.3-1.6c-1-0.7-1.7-1.6-2.3-2.8  c-0.6-1.1-0.8-2.5-0.8-4h3.2c0,1.1,0.2,2,0.6,2.8s1,1.4,1.6,1.9c0.7,0.5,1.5,0.9,2.4,1.1c0.9,0.2,1.8,0.4,2.8,0.4  c0.8,0,1.5-0.1,2.3-0.2c0.8-0.1,1.5-0.4,2.1-0.7s1.1-0.8,1.5-1.4c0.4-0.6,0.6-1.4,0.6-2.3c0-0.9-0.2-1.6-0.7-2.1s-1.1-1-1.8-1.3  s-1.6-0.6-2.6-0.8s-2-0.4-3-0.7c-1-0.2-2-0.5-3-0.8s-1.8-0.7-2.6-1.2c-0.8-0.5-1.4-1.1-1.8-1.9c-0.5-0.8-0.7-1.7-0.7-2.9  c0-1.3,0.3-2.4,0.8-3.3c0.5-0.9,1.2-1.7,2.1-2.3s1.8-1.1,2.9-1.4c1.1-0.3,2.2-0.4,3.4-0.4c1.3,0,2.5,0.2,3.6,0.5s2.1,0.8,2.9,1.5  s1.5,1.5,2,2.5s0.8,2.2,0.8,3.6H279C278.8,213.9,278.2,212.6,277.1,211.8 M250.6,215.3v2.7H247v11.4c0,0.4,0,0.6,0.1,0.9  c0.1,0.2,0.2,0.4,0.3,0.5c0.2,0.1,0.4,0.2,0.7,0.2s0.7,0.1,1.2,0.1h1.4v2.7h-2.3c-0.8,0-1.4-0.1-2-0.2c-0.6-0.1-1-0.3-1.4-0.6  c-0.3-0.3-0.6-0.7-0.8-1.2s-0.2-1.2-0.2-2.1V218h-3.1v-2.7h3.1v-5.5h3v5.5H250.6z M225.9,215.3v2.9h0.1c1.3-2.2,3.2-3.3,6-3.3  c1.2,0,2.2,0.2,3,0.5s1.5,0.8,2,1.4c0.5,0.6,0.8,1.3,1,2.1s0.3,1.7,0.3,2.7v12.1h-3v-12.4c0-1.1-0.3-2-1-2.7s-1.6-1-2.7-1  c-0.9,0-1.7,0.1-2.4,0.4c-0.7,0.3-1.2,0.7-1.7,1.2c-0.4,0.5-0.8,1.1-1,1.8s-0.3,1.5-0.3,2.3v10.4h-3v-18.4H225.9z M217,232.5  c-1.4,1-3.1,1.6-5.2,1.6c-1.5,0-2.7-0.2-3.8-0.7s-2-1.1-2.7-2s-1.3-1.9-1.7-3.1c-0.4-1.2-0.6-2.5-0.6-3.9s0.2-2.7,0.6-3.8  c0.4-1.2,1-2.2,1.8-3c0.8-0.9,1.7-1.5,2.7-2c1.1-0.5,2.2-0.7,3.5-0.7c1.6,0,3,0.3,4.1,1s1.9,1.5,2.6,2.6c0.6,1,1.1,2.2,1.4,3.4  c0.2,1.2,0.3,2.4,0.3,3.5h-13.8c0,0.8,0.1,1.6,0.3,2.3s0.6,1.4,1,1.9c0.5,0.6,1.1,1,1.8,1.3s1.6,0.5,2.6,0.5c1.3,0,2.3-0.3,3.1-0.9  c0.8-0.6,1.4-1.5,1.6-2.7h3C219.2,229.9,218.3,231.5,217,232.5 M216.2,220.7c-0.3-0.6-0.6-1.2-1.1-1.7s-1-0.8-1.6-1.1  s-1.3-0.4-2.1-0.4s-1.5,0.1-2.1,0.4c-0.6,0.3-1.2,0.6-1.6,1.1c-0.5,0.5-0.8,1-1.1,1.7c-0.3,0.6-0.4,1.3-0.5,2h10.6  C216.7,222,216.5,221.3,216.2,220.7 M176.5,215.3v2.7h0.1c1.4-2.1,3.4-3.1,5.9-3.1c1.1,0,2.2,0.2,3.1,0.7c0.9,0.5,1.6,1.3,2,2.4  c0.6-1,1.4-1.8,2.4-2.3s2.1-0.8,3.3-0.8c0.9,0,1.8,0.1,2.5,0.3s1.4,0.5,1.9,0.9s0.9,1,1.2,1.7s0.4,1.5,0.4,2.4v13.5h-3v-12  c0-0.6,0-1.1-0.1-1.6s-0.3-0.9-0.5-1.3c-0.3-0.4-0.6-0.7-1.1-0.9s-1.1-0.3-1.8-0.3c-1.5,0-2.7,0.4-3.5,1.3c-0.9,0.9-1.3,2-1.3,3.4  v11.4h-3v-12c0-0.6-0.1-1.1-0.2-1.6c-0.1-0.5-0.3-0.9-0.6-1.3c-0.3-0.4-0.6-0.7-1-0.9s-1-0.3-1.7-0.3c-0.9,0-1.6,0.2-2.3,0.5  c-0.6,0.4-1.1,0.8-1.5,1.3s-0.7,1-0.9,1.5s-0.3,1-0.3,1.3v11.4h-3v-18.4h3V215.3z M162.1,238.4c-0.3,0.6-0.7,1.1-1.1,1.5  c-0.4,0.4-0.9,0.7-1.4,0.9s-1.1,0.3-1.8,0.3c-0.4,0-0.7,0-1.1-0.1c-0.4,0-0.7-0.1-1-0.2V238c0.3,0.1,0.6,0.2,0.9,0.3  c0.3,0.1,0.6,0.1,0.9,0.1c0.6,0,1.1-0.1,1.5-0.4c0.4-0.3,0.7-0.7,1-1.2l1.2-3.1l-7.3-18.3h3.4l5.4,15h0.1l5.2-15h3.2l-8,20.8  C162.7,237,162.4,237.8,162.1,238.4 M146.7,224.8c-0.6,0.1-1.3,0.2-1.9,0.3c-0.7,0.1-1.4,0.2-2,0.3c-0.7,0.1-1.3,0.3-1.8,0.5  s-1,0.6-1.3,1s-0.5,1-0.5,1.8c0,0.5,0.1,0.9,0.3,1.3c0.2,0.3,0.5,0.6,0.8,0.8s0.7,0.4,1.1,0.5c0.4,0.1,0.9,0.1,1.3,0.1  c1,0,1.8-0.1,2.6-0.4c0.7-0.3,1.3-0.6,1.7-1s0.8-0.9,1-1.4s0.3-0.9,0.3-1.4v-3.1C147.8,224.5,147.3,224.7,146.7,224.8 M150.9,234.1  c-0.8,0-1.4-0.2-1.9-0.7c-0.5-0.4-0.7-1.2-0.7-2.1c-0.8,1-1.8,1.7-2.9,2.1c-1.1,0.4-2.3,0.7-3.6,0.7c-0.8,0-1.6-0.1-2.3-0.3  s-1.4-0.5-1.9-0.9c-0.6-0.4-1-1-1.3-1.6c-0.3-0.7-0.5-1.4-0.5-2.4s0.2-1.9,0.5-2.6c0.4-0.7,0.8-1.2,1.4-1.6c0.6-0.4,1.2-0.7,2-0.9  c0.7-0.2,1.5-0.4,2.3-0.5c0.8-0.2,1.6-0.3,2.4-0.4c0.7-0.1,1.4-0.2,2-0.4s1-0.4,1.4-0.7c0.3-0.3,0.5-0.7,0.5-1.3  c0-0.7-0.1-1.2-0.4-1.6c-0.2-0.4-0.6-0.7-1-0.9s-0.8-0.4-1.3-0.4c-0.5-0.1-1-0.1-1.4-0.1c-1.3,0-2.3,0.2-3.2,0.7s-1.3,1.4-1.4,2.8  h-3c0-1.1,0.3-2.1,0.7-2.9c0.4-0.8,1-1.4,1.7-1.9s1.5-0.8,2.5-1c0.9-0.2,1.9-0.3,2.9-0.3c0.8,0,1.7,0.1,2.5,0.2  c0.8,0.1,1.6,0.4,2.2,0.7c0.7,0.4,1.2,0.9,1.6,1.5c0.4,0.7,0.6,1.5,0.6,2.6v9.5c0,0.7,0,1.2,0.1,1.6c0.1,0.3,0.4,0.5,0.8,0.5  c0.3,0,0.6-0.1,0.9-0.2v2.3C152.6,233.9,151.8,234.1,150.9,234.1 M125.4,208.3c2.6,0,4.5,0.7,5.8,2s2,3.2,2,5.5c0,2.4-0.7,4.2-2,5.5  s-3.3,2-5.8,2h-7.7v10.4h-3.4v-25.4H125.4z M124.3,220.5c1.9,0,3.3-0.4,4.2-1.2s1.3-2,1.3-3.5s-0.4-2.7-1.3-3.5  c-0.9-0.8-2.3-1.2-4.2-1.2h-6.6v9.3L124.3,220.5L124.3,220.5z"></path><path d="M274.9,54.7v5l4.4-2.2c0.1,0,5.7-2.8,11-2.8c3.9,0,8.6,3.8,10,5.3l2.1,2.2c0,0-3.3-18.3,3.2-31.8  c7.2-15,21.3-25.3,21.3-25.3S277.1,9.3,274.9,54.7"></path><path d="M302.4,62.1c0,0,3.7-7.6,12.1-7.5c8.1,0.2,11.1,5.6,12.4,7.8V5c0,0-14.1,10.3-21.3,25.3  C299.2,43.8,302.5,62.1,302.4,62.1"></path><path d="M351.4,62.1c0,0-3.7-7.6-12.1-7.5c-8.1,0.2-11.1,5.6-12.4,7.8V5c0,0,14.1,10.3,21.3,25.3  C354.6,43.8,351.4,62.1,351.4,62.1"></path><path d="M378.9,54.7v5l-4.4-2.2c-0.1,0-5.7-2.8-11-2.8c-3.9,0-8.6,3.8-10,5.3l-2.1,2.2c0,0,3.3-18.3-3.2-31.8  C341,15.2,326.9,5,326.9,5S376.7,9.3,378.9,54.7"></path></svg>