<svg xmlns="http://www.w3.org/2000/svg" xmlns:xlink="http://www.w3.org/1999/xlink" viewBox="0 0 1050 281" width="1050" height="281" preserveAspectRatio="xMidYMid meet"><defs><clipPath id="__lottie_element_2"><rect width="1050" height="281" x="0" y="0"></rect></clipPath></defs><g clip-path="url(#__lottie_element_2)"><g transform="matrix(7.130090236663818,0,0,7.130090236663818,220,196.5)" opacity="1" fill="rgb(255,255,255)" font-size="36" font-family="Filson Soft" font-style="normal" font-weight="700" aria-label="PPT" style="display: block;"><g stroke-linecap="butt" stroke-linejoin="round" stroke-miterlimit="4" transform="matrix(1,0,0,1,0,0)" opacity="1" style="display: inherit;"><g><g transform="matrix(1,0,0,1,0,0)" opacity="1" style="display: block;"><path d=" M13.38,-13.2 C13.38,-13.2 8.59,-13.2 8.59,-13.2 C8.59,-13.2 8.59,-20.52 8.59,-20.52 C8.59,-20.52 13.38,-20.52 13.38,-20.52 C15.41,-20.52 16.75,-18.93 16.75,-16.82 C16.75,-14.79 15.41,-13.2 13.38,-13.2z M14.14,-25.38 C14.14,-25.38 4.6,-25.38 4.6,-25.38 C3.48,-25.38 2.83,-24.76 2.83,-23.64 C2.83,-23.64 2.83,-1.74 2.83,-1.74 C2.83,-0.62 3.48,0 4.6,0 C4.6,0 6.85,0 6.85,0 C7.98,0 8.59,-0.62 8.59,-1.74 C8.59,-1.74 8.59,-8.63 8.59,-8.63 C8.59,-8.63 14.14,-8.63 14.14,-8.63 C19.54,-8.63 22.55,-12.25 22.55,-16.86 C22.55,-21.43 19.58,-25.38 14.14,-25.38z"></path><g opacity="1" transform="matrix(0.36000001430511475,0,0,0.36000001430511475,0,0)"></g></g></g></g><g stroke-linecap="butt" stroke-linejoin="round" stroke-miterlimit="4" transform="matrix(1,0,0,1,23.328001022338867,0)" opacity="1" style="display: inherit;"><g><g transform="matrix(1,0,0,1,0,0)" opacity="1" style="display: block;"><path d=" M13.38,-13.2 C13.38,-13.2 8.59,-13.2 8.59,-13.2 C8.59,-13.2 8.59,-20.52 8.59,-20.52 C8.59,-20.52 13.38,-20.52 13.38,-20.52 C15.41,-20.52 16.75,-18.93 16.75,-16.82 C16.75,-14.79 15.41,-13.2 13.38,-13.2z M14.14,-25.38 C14.14,-25.38 4.6,-25.38 4.6,-25.38 C3.48,-25.38 2.83,-24.76 2.83,-23.64 C2.83,-23.64 2.83,-1.74 2.83,-1.74 C2.83,-0.62 3.48,0 4.6,0 C4.6,0 6.85,0 6.85,0 C7.98,0 8.59,-0.62 8.59,-1.74 C8.59,-1.74 8.59,-8.63 8.59,-8.63 C8.59,-8.63 14.14,-8.63 14.14,-8.63 C19.54,-8.63 22.55,-12.25 22.55,-16.86 C22.55,-21.43 19.58,-25.38 14.14,-25.38z"></path><g opacity="1" transform="matrix(0.36000001430511475,0,0,0.36000001430511475,0,0)"></g></g></g></g><g stroke-linecap="butt" stroke-linejoin="round" stroke-miterlimit="4" transform="matrix(1,0,0,1,46.65599822998047,0)" opacity="1" style="display: inherit;"><g><g transform="matrix(1,0,0,1,0,0)" opacity="1" style="display: block;"><path d=" M19.76,-25.38 C19.76,-25.38 2.43,-25.38 2.43,-25.38 C1.31,-25.38 0.69,-24.76 0.69,-23.64 C0.69,-23.64 0.69,-22.26 0.69,-22.26 C0.69,-21.14 1.31,-20.52 2.43,-20.52 C2.43,-20.52 8.23,-20.52 8.23,-20.52 C8.23,-20.52 8.23,-1.74 8.23,-1.74 C8.23,-0.62 8.85,0 9.97,0 C9.97,0 12.15,0 12.15,0 C13.27,0 13.89,-0.62 13.89,-1.74 C13.89,-1.74 13.89,-20.52 13.89,-20.52 C13.89,-20.52 19.76,-20.52 19.76,-20.52 C20.88,-20.52 21.54,-21.14 21.54,-22.26 C21.54,-22.26 21.54,-23.64 21.54,-23.64 C21.54,-24.76 20.88,-25.38 19.76,-25.38z"></path><g opacity="1" transform="matrix(0.36000001430511475,0,0,0.36000001430511475,0,0)"></g></g></g></g></g><g transform="matrix(1,0,0,1,630,144.5)" opacity="1" style="display: block;"><g opacity="1" transform="matrix(0.9025852680206299,0.43051108717918396,-0.43051108717918396,0.9025852680206299,111.52155303955078,52.92649841308594)"><path fill="rgb(255,80,0)" fill-opacity="1" d=" M18,-60.400001525878906 C18,-60.400001525878906 18,-19.599998474121094 18,-19.599998474121094 C18,-9.66579818725586 9.934200286865234,-1.5999984741210938 0,-1.5999984741210938 C0,-1.5999984741210938 0,-1.5999984741210938 0,-1.5999984741210938 C-9.934200286865234,-1.5999984741210938 -18,-9.66579818725586 -18,-19.599998474121094 C-18,-19.599998474121094 -18,-60.400001525878906 -18,-60.400001525878906 C-18,-70.33419799804688 -9.934200286865234,-78.4000015258789 0,-78.4000015258789 C0,-78.4000015258789 0,-78.4000015258789 0,-78.4000015258789 C9.934200286865234,-78.4000015258789 18,-70.33419799804688 18,-60.400001525878906z"></path><path stroke-linecap="round" stroke-linejoin="round" fill-opacity="0" stroke="rgb(255,255,255)" stroke-opacity="1" stroke-width="0" d=" M18,-60.400001525878906 C18,-60.400001525878906 18,-19.599998474121094 18,-19.599998474121094 C18,-9.66579818725586 9.934200286865234,-1.5999984741210938 0,-1.5999984741210938 C0,-1.5999984741210938 0,-1.5999984741210938 0,-1.5999984741210938 C-9.934200286865234,-1.5999984741210938 -18,-9.66579818725586 -18,-19.599998474121094 C-18,-19.599998474121094 -18,-60.400001525878906 -18,-60.400001525878906 C-18,-70.33419799804688 -9.934200286865234,-78.4000015258789 0,-78.4000015258789 C0,-78.4000015258789 0,-78.4000015258789 0,-78.4000015258789 C9.934200286865234,-78.4000015258789 18,-70.33419799804688 18,-60.400001525878906z"></path></g></g><g transform="matrix(1,0,0,1,696,144.5)" opacity="1" style="display: block;"><g opacity="1" transform="matrix(0.894934356212616,0.4461978077888489,-0.4461978077888489,0.894934356212616,119.14385223388672,36.07709503173828)"><path fill="rgb(255,80,0)" fill-opacity="1" d=" M18,-82.4000015258789 C18,-82.4000015258789 18,-1.5999984741210938 18,-1.5999984741210938 C18,8.33420181274414 9.934200286865234,16.400001525878906 0,16.400001525878906 C0,16.400001525878906 0,16.400001525878906 0,16.400001525878906 C-9.934200286865234,16.400001525878906 -18,8.33420181274414 -18,-1.5999984741210938 C-18,-1.5999984741210938 -18,-82.4000015258789 -18,-82.4000015258789 C-18,-92.33419799804688 -9.934200286865234,-100.4000015258789 0,-100.4000015258789 C0,-100.4000015258789 0,-100.4000015258789 0,-100.4000015258789 C9.934200286865234,-100.4000015258789 18,-92.33419799804688 18,-82.4000015258789z"></path><path stroke-linecap="round" stroke-linejoin="round" fill-opacity="0" stroke="rgb(255,255,255)" stroke-opacity="1" stroke-width="0" d=" M18,-82.4000015258789 C18,-82.4000015258789 18,-1.5999984741210938 18,-1.5999984741210938 C18,8.33420181274414 9.934200286865234,16.400001525878906 0,16.400001525878906 C0,16.400001525878906 0,16.400001525878906 0,16.400001525878906 C-9.934200286865234,16.400001525878906 -18,8.33420181274414 -18,-1.5999984741210938 C-18,-1.5999984741210938 -18,-82.4000015258789 -18,-82.4000015258789 C-18,-92.33419799804688 -9.934200286865234,-100.4000015258789 0,-100.4000015258789 C0,-100.4000015258789 0,-100.4000015258789 0,-100.4000015258789 C9.934200286865234,-100.4000015258789 18,-92.33419799804688 18,-82.4000015258789z"></path></g></g><g transform="matrix(1,0,0,1,762.5,144.5)" opacity="1" style="display: block;"><g opacity="1" transform="matrix(0.894934356212616,0.4461978077888489,-0.4461978077888489,0.894934356212616,130.07687377929688,17.349937438964844)" style="mix-blend-mode: lighten;"><path fill="rgb(255,80,0)" fill-opacity="1" d=" M18,-103.9000015258789 C18,-103.9000015258789 18,19.900001525878906 18,19.900001525878906 C18,29.83420181274414 9.934200286865234,37.900001525878906 0,37.900001525878906 C0,37.900001525878906 0,37.900001525878906 0,37.900001525878906 C-9.934200286865234,37.900001525878906 -18,29.83420181274414 -18,19.900001525878906 C-18,19.900001525878906 -18,-103.9000015258789 -18,-103.9000015258789 C-18,-113.83419799804688 -9.934200286865234,-121.9000015258789 0,-121.9000015258789 C0,-121.9000015258789 0,-121.9000015258789 0,-121.9000015258789 C9.934200286865234,-121.9000015258789 18,-113.83419799804688 18,-103.9000015258789z"></path><path stroke-linecap="round" stroke-linejoin="round" fill-opacity="0" stroke="rgb(255,255,255)" stroke-opacity="1" stroke-width="0" d=" M18,-103.9000015258789 C18,-103.9000015258789 18,19.900001525878906 18,19.900001525878906 C18,29.83420181274414 9.934200286865234,37.900001525878906 0,37.900001525878906 C0,37.900001525878906 0,37.900001525878906 0,37.900001525878906 C-9.934200286865234,37.900001525878906 -18,29.83420181274414 -18,19.900001525878906 C-18,19.900001525878906 -18,-103.9000015258789 -18,-103.9000015258789 C-18,-113.83419799804688 -9.934200286865234,-121.9000015258789 0,-121.9000015258789 C0,-121.9000015258789 0,-121.9000015258789 0,-121.9000015258789 C9.934200286865234,-121.9000015258789 18,-113.83419799804688 18,-103.9000015258789z"></path></g></g><g transform="matrix(1,0,0,1,830,144.5)" opacity="1" style="display: block;"><g opacity="1" transform="matrix(0.894934356212616,0.4461978077888489,-0.4461978077888489,0.894934356212616,136.65682983398438,-0.5487518310546875)"><path fill="rgb(255,80,0)" fill-opacity="1" d=" M18,-123.4000015258789 C18,-123.4000015258789 18,39.400001525878906 18,39.400001525878906 C18,49.33420181274414 9.934200286865234,57.400001525878906 0,57.400001525878906 C0,57.400001525878906 0,57.400001525878906 0,57.400001525878906 C-9.934200286865234,57.400001525878906 -18,49.33420181274414 -18,39.400001525878906 C-18,39.400001525878906 -18,-123.4000015258789 -18,-123.4000015258789 C-18,-133.33419799804688 -9.934200286865234,-141.39999389648438 0,-141.39999389648438 C0,-141.39999389648438 0,-141.39999389648438 0,-141.39999389648438 C9.934200286865234,-141.39999389648438 18,-133.33419799804688 18,-123.4000015258789z"></path><path stroke-linecap="round" stroke-linejoin="round" fill-opacity="0" stroke="rgb(255,255,255)" stroke-opacity="1" stroke-width="0" d=" M18,-123.4000015258789 C18,-123.4000015258789 18,39.400001525878906 18,39.400001525878906 C18,49.33420181274414 9.934200286865234,57.400001525878906 0,57.400001525878906 C0,57.400001525878906 0,57.400001525878906 0,57.400001525878906 C-9.934200286865234,57.400001525878906 -18,49.33420181274414 -18,39.400001525878906 C-18,39.400001525878906 -18,-123.4000015258789 -18,-123.4000015258789 C-18,-133.33419799804688 -9.934200286865234,-141.39999389648438 0,-141.39999389648438 C0,-141.39999389648438 0,-141.39999389648438 0,-141.39999389648438 C9.934200286865234,-141.39999389648438 18,-133.33419799804688 18,-123.4000015258789z"></path></g></g><g transform="matrix(1.673819899559021,-0.20551924407482147,0.20551924407482147,1.673819899559021,10.5,224.5)" opacity="1" fill="rgb(255,80,0)" font-size="128" font-family="Gochi Hand" font-style="normal" font-weight="400" aria-label="my" style="display: block;"><g stroke-linecap="butt" stroke-linejoin="round" stroke-miterlimit="4" transform="matrix(1,0,0,1,0.0000013732910701946821,0)" opacity="1" style="display: inherit;"><g><g transform="matrix(1,0,0,1,0,0)" opacity="1" style="display: block;"><path d=" M11,4.34 C11.13,4.82 11.35,5.21 11.69,5.5 C12.02,5.79 12.5,6.01 13.13,6.16 C13.75,6.3 14.58,6.37 15.62,6.37 C16.75,6.37 17.79,6.29 18.75,6.12 C19.71,5.96 20.55,5.65 21.28,5.19 C22.01,4.73 22.57,4.1 22.97,3.31 C23.36,2.52 23.56,1.5 23.56,0.25 C23.56,-0.58 23.54,-1.38 23.5,-2.16 C23.46,-2.93 23.44,-3.71 23.44,-4.5 C23.44,-9.13 23.67,-13.31 24.13,-17.06 C24.58,-20.81 25.2,-24.02 25.97,-26.69 C26.74,-29.35 27.61,-31.42 28.59,-32.88 C29.57,-34.33 30.58,-35.06 31.62,-35.06 C32.42,-35.06 33.23,-34.63 34.06,-33.75 C34.9,-32.87 35.71,-31.66 36.5,-30.09 C37.29,-28.53 38.04,-26.7 38.75,-24.59 C39.46,-22.49 40.1,-20.2 40.69,-17.72 C41.27,-15.24 41.76,-12.63 42.16,-9.91 C42.55,-7.18 42.83,-4.44 43,-1.69 C43.08,-0.1 43.53,1.02 44.34,1.69 C45.16,2.35 46.63,2.69 48.75,2.69 C50.58,2.69 52.14,2.27 53.41,1.44 C54.68,0.6 55.44,-0.6 55.69,-2.19 C56.6,-7.85 57.56,-12.51 58.56,-16.16 C59.56,-19.8 60.52,-22.68 61.44,-24.78 C62.35,-26.88 63.22,-28.33 64.03,-29.13 C64.84,-29.92 65.52,-30.31 66.06,-30.31 C67.14,-30.31 68.14,-29.5 69.03,-27.87 C69.93,-26.25 70.75,-23.88 71.5,-20.78 C72.25,-17.68 72.95,-13.86 73.59,-9.34 C74.24,-4.82 74.83,0.33 75.38,6.12 C75.5,7.21 76,8.08 76.88,8.75 C77.75,9.42 78.96,9.75 80.5,9.75 C82.87,9.75 84.75,9.3 86.12,8.41 C87.5,7.51 88.19,5.94 88.19,3.69 C87.39,-4.4 86.41,-11.38 85.22,-17.28 C84.03,-23.18 82.64,-28.05 81.03,-31.91 C79.43,-35.76 77.59,-38.61 75.53,-40.47 C73.47,-42.32 71.17,-43.25 68.62,-43.25 C67.25,-43.25 65.81,-42.98 64.31,-42.44 C62.81,-41.9 61.34,-41.03 59.91,-39.84 C58.47,-38.66 57.08,-37.11 55.75,-35.22 C54.42,-33.32 53.25,-31.02 52.25,-28.31 C52.04,-27.73 51.82,-27.34 51.59,-27.16 C51.37,-26.97 51.15,-26.87 50.94,-26.87 C50.73,-26.87 50.54,-26.97 50.37,-27.16 C50.21,-27.34 50.02,-27.77 49.81,-28.44 C48.27,-34.27 46.14,-38.73 43.41,-41.81 C40.68,-44.9 37.35,-46.44 33.44,-46.44 C32.15,-46.44 30.91,-46.29 29.72,-46 C28.53,-45.71 27.38,-45.2 26.28,-44.47 C25.18,-43.74 24.14,-42.75 23.19,-41.5 C22.23,-40.25 21.33,-38.67 20.5,-36.75 C19.92,-35.38 19.4,-34.69 18.94,-34.69 C18.52,-34.69 18.19,-35.46 17.94,-37 C17.73,-38.08 17.53,-39.01 17.34,-39.78 C17.16,-40.55 16.96,-41.29 16.75,-42 C16.54,-42.58 16.18,-43 15.66,-43.25 C15.13,-43.5 14.52,-43.62 13.81,-43.62 C12.94,-43.62 11.97,-43.46 10.91,-43.12 C9.84,-42.79 8.85,-42.34 7.94,-41.78 C7.02,-41.22 6.26,-40.56 5.66,-39.81 C5.05,-39.06 4.75,-38.29 4.75,-37.5 C4.75,-36.96 5.01,-35.6 5.53,-33.44 C6.05,-31.27 6.66,-28.44 7.34,-24.94 C8.03,-21.44 8.7,-17.34 9.34,-12.66 C9.99,-7.97 10.46,-2.85 10.75,2.69 C10.79,3.31 10.87,3.86 11,4.34z"></path><g opacity="1" transform="matrix(1.2799999713897705,0,0,1.2799999713897705,0,0)"></g></g></g></g><g stroke-linecap="butt" stroke-linejoin="round" stroke-miterlimit="4" transform="matrix(1,0,0,1,90.87999725341797,0)" opacity="1" style="display: inherit;"><g><g transform="matrix(1,0,0,1,0,0)" opacity="1" style="display: block;"><path d=" M36,1.13 C37.5,0.75 38.98,0.13 40.44,-0.75 C40.98,-1.08 41.46,-1.32 41.88,-1.47 C42.29,-1.61 42.63,-1.69 42.87,-1.69 C43.33,-1.69 43.65,-1.53 43.81,-1.22 C43.98,-0.91 44.06,-0.38 44.06,0.38 C44.06,1.13 44.06,2.35 44.06,4.06 C44.06,5.77 44.08,7.76 44.13,10.03 C44.17,12.3 44.2,14.76 44.22,17.41 C44.24,20.05 44.29,22.66 44.38,25.22 C44.46,27.78 44.54,30.2 44.62,32.47 C44.71,34.74 44.81,36.67 44.94,38.25 C45.02,39.46 45.38,40.43 46.03,41.16 C46.68,41.88 47.54,42.25 48.62,42.25 C49.88,42.25 51.06,42.09 52.19,41.78 C53.31,41.47 54.29,41.04 55.12,40.5 C55.96,39.96 56.62,39.33 57.13,38.63 C57.63,37.92 57.88,37.17 57.88,36.38 C57.88,35.75 57.79,34.63 57.63,33 C57.46,31.37 57.28,29.5 57.09,27.38 C56.91,25.25 56.73,23.03 56.56,20.72 C56.4,18.41 56.31,16.27 56.31,14.31 C56.31,13.23 56.31,12.23 56.31,11.31 C56.31,10.4 56.33,9.43 56.38,8.41 C56.42,7.38 56.47,6.23 56.53,4.94 C56.59,3.65 56.68,2.1 56.78,0.31 C56.88,-1.48 57.02,-3.64 57.19,-6.16 C57.35,-8.68 57.54,-11.67 57.75,-15.12 C57.83,-16.5 58.03,-17.76 58.34,-18.91 C58.66,-20.05 58.99,-21.22 59.34,-22.41 C59.7,-23.59 60.01,-24.86 60.28,-26.22 C60.55,-27.57 60.69,-29.17 60.69,-31 C60.69,-33.13 60.55,-34.91 60.28,-36.34 C60.01,-37.78 59.56,-38.95 58.94,-39.84 C58.31,-40.74 57.5,-41.38 56.5,-41.78 C55.5,-42.18 54.29,-42.37 52.88,-42.37 C51.62,-42.37 50.59,-42.29 49.78,-42.12 C48.97,-41.96 48.31,-41.65 47.81,-41.19 C47.31,-40.73 46.94,-40.1 46.69,-39.31 C46.44,-38.52 46.27,-37.5 46.19,-36.25 C45.94,-33.37 45.68,-30.51 45.41,-27.66 C45.14,-24.8 44.9,-21.9 44.69,-18.94 C44.6,-18.19 44.49,-17.52 44.34,-16.94 C44.2,-16.35 43.92,-15.75 43.5,-15.12 C42.33,-13.5 40.96,-12.24 39.38,-11.34 C37.79,-10.45 36.1,-10 34.31,-10 C31.81,-10 29.45,-10.87 27.22,-12.62 C24.99,-14.37 22.97,-16.88 21.16,-20.13 C19.34,-23.38 17.77,-27.31 16.44,-31.94 C15.1,-36.56 14.06,-41.75 13.31,-47.5 C12.94,-50.21 11.1,-51.56 7.81,-51.56 C5.19,-51.56 3.29,-50.95 2.12,-49.72 C0.96,-48.49 0.38,-46.46 0.38,-43.62 C0.38,-39.96 0.79,-36.29 1.63,-32.62 C2.46,-28.96 3.6,-25.45 5.06,-22.09 C6.52,-18.74 8.23,-15.61 10.19,-12.72 C12.15,-9.82 14.27,-7.31 16.56,-5.19 C18.85,-3.06 21.25,-1.38 23.75,-0.16 C26.25,1.07 28.75,1.69 31.25,1.69 C32.92,1.69 34.5,1.5 36,1.13z"></path><g opacity="1" transform="matrix(1.2799999713897705,0,0,1.2799999713897705,0,0)"></g></g></g></g></g></g></svg>