<svg xmlns="http://www.w3.org/2000/svg" xmlns:xlink="http://www.w3.org/1999/xlink" version="1.1" id="Layer_1" x="0px" y="0px" viewBox="0 0 106.5 40" xml:space="preserve"><style type="text/css">
	.st0{fill:#61A810;}
	.st1{enable-background:new    ;}
	.st2{fill:#CACACA;}
	.st3{fill:#FFFFFF;}</style><title>pdf-icon</title><desc>Created with Sketch.</desc><g id="Internal-Page" transform="translate(-1349.000000, -397.000000)"><g id="Card" transform="translate(865.000000, 218.000000)"><g id="pdf-icon" transform="translate(484.000000, 179.000000)"><circle id="Oval-2" cx="20" cy="20" r="20"></circle><g><path d="M50,12.5h5.8c4.7,0,7.9,3.2,7.9,7.4V20c0,4.2-3.2,7.4-7.9,7.4H50V12.5z M55.8,24.4c2.7,0,4.4-1.8,4.4-4.4      v-0.1c0-2.7-1.8-4.4-4.4-4.4h-2.5v8.9C53.2,24.4,55.8,24.4,55.8,24.4z"></path><path d="M70.6,12.4h3L80,27.4h-3.5L75.1,24h-6.3l-1.3,3.4h-3.4L70.6,12.4z M74,21.2l-2-4.8l-2,4.8H74z"></path><path d="M83.8,15.6h-4.5v-3h12.3v3h-4.5v11.8h-3.2L83.8,15.6L83.8,15.6z"></path><path d="M97.2,12.4h3l6.3,14.9h-3.5l-1.4-3.4h-6.3l-1.4,3.4h-3.4L97.2,12.4z M100.7,21.2l-2-4.8l-2,4.8H100.7z"></path></g><g id="computer-rkC-RqUEM" transform="translate(10.000000, 9.000000)"><path id="Shape_5_" d="M9.5,5C13.7,5,18,4.1,18,2.5S13.7,0,9.5,0S1,0.9,1,2.5S5.3,5,9.5,5z"></path><path id="Shape_4_" d="M9.5,11c4.2,0,8.5-0.9,8.5-2.6v-3C18,5.2,17.8,5,17.6,5c-0.2,0-0.4,0.2-0.4,0.4      c0,0.8-3,1.9-7.8,1.9S1.7,6.1,1.7,5.4C1.7,5.2,1.6,5,1.4,5S1,5.2,1,5.4v3C1,10.1,5.3,11,9.5,11z"></path><path id="Shape_3_" d="M18.6,18.6h-4.9v-0.4c0-0.2-0.2-0.4-0.4-0.4H9.9v-2.1c4.2,0,8.4-0.9,8.4-2.5v-2.9      c0-0.2-0.2-0.4-0.4-0.4s-0.4,0.2-0.4,0.4c0,0.7-3.1,1.8-8,1.8s-8-1.1-8-1.8c0-0.2-0.2-0.4-0.4-0.4s-0.4,0.2-0.4,0.4v2.9      c0,1.6,4.1,2.4,8.4,2.5v2.1H5.7c-0.2,0-0.4,0.2-0.4,0.4v0.4H0.4C0.2,18.6,0,18.8,0,19s0.2,0.4,0.4,0.4h4.9v0.4      c0,0.2,0.2,0.4,0.4,0.4h7.6c0.2,0,0.4-0.2,0.4-0.4v-0.4h4.9c0.2,0,0.4-0.2,0.4-0.4S18.8,18.6,18.6,18.6z"></path></g></g></g></g></svg>