<svg xmlns="http://www.w3.org/2000/svg" xmlns:xlink="http://www.w3.org/1999/xlink" version="1.1" id="Layer_1" x="0px" y="0px" viewBox="0 0 603.1 122.5" xml:space="preserve"><style type="text/css">
	.st0{fill:#E87200;}
	.st1{fill:#888B8D;}
	.st2{fill:#3D3935;}</style><path d="M166.6,112.5h-31.8v-9.7c-5.1,1.8-10.5,2.7-15.9,2.7c-12,0-23.4-4.5-32.3-12.7c-9.8-9-15.4-21.8-15.4-35  s5.6-26,15.4-35c8.8-8.2,20.3-12.7,32.3-12.7c26.3,0,47.7,21.4,47.7,47.7V112.5z M119,48.2c-5.4,0-9.8,4.4-9.8,9.8  c0,5.4,4.4,9.8,9.8,9.8c5.4,0,9.8-4.4,9.8-9.8C128.7,52.6,124.4,48.2,119,48.2"></path><path d="M291,70.3c-1.6,2.4-3.4,3.7-5.5,3.9c-2.4-0.1-4.2-0.8-5.4-2.1c-1.2-1.3-1.8-3.1-1.8-5.5V47h-10v22.1  c0,3.6,1.2,6.7,3.6,9.4c2.4,2.7,5.8,4.1,10.3,4.1c3.3,0,6.2-1.1,8.7-3.2v1.8c0,2.9-0.7,5-2,6.6c-1.3,1.5-3.6,2.3-6.6,2.3  c-2.5-0.2-5.2-1.4-8.1-3.6l-4.6,5.3c4,3.8,8.6,5.8,13.5,5.9l2.1-0.2c4.3-0.2,8-2,11-5.3c3.1-3.3,4.6-7.5,4.6-12.5V47h-10V70.3z"></path><path d="M362.5,47c-3.3,0-6.2,1.1-8.6,3.2V47h-10v35.7h10V60c1.5-2.9,3.2-4.4,5.3-4.5c2.4,0.1,4.2,0.8,5.4,2.1  c1.2,1.3,1.8,3.1,1.8,5.5v19.6h10V60.5c0-3.6-1.2-6.7-3.6-9.4C370.5,48.4,367.1,47,362.5,47"></path><path d="M402.4,70.3c-1.6,2.4-3.4,3.7-5.5,3.9c-2.4-0.1-4.2-0.8-5.4-2.1c-1.2-1.3-1.8-3.1-1.8-5.5V47h-10v22.1  c0,3.6,1.2,6.7,3.6,9.4c2.4,2.7,5.8,4.1,10.3,4.1c3.3,0,6.2-1.1,8.7-3.2v1.8c0,2.9-0.7,5-2,6.6c-1.3,1.5-3.6,2.3-6.6,2.3  c-2.5-0.2-5.2-1.4-8.1-3.6l-4.6,5.3c4,3.8,8.6,5.8,13.5,5.9l2.1-0.2c4.3-0.2,8-2,11-5.3c3.1-3.3,4.6-7.5,4.6-12.5V47h-10V70.3z"></path><polygon points="447.3,68.4 442.2,47 434.8,47 429.5,68 424,47 414.6,47 424.1,82.6 433,82.6 438.4,64.8 443.7,82.6   452.6,82.6 462.2,47 452.8,47 "></polygon><path d="M483.2,47c-3.3,0-6.2,1.1-8.6,3.2v-21h-10v53.5h10V58.5c1.5-1.9,3.2-3,5.3-3.1c2.4,0.1,4.2,0.8,5.4,2.1  c1.2,1.3,1.8,3.1,1.8,5.5v19.6h10V60.5c0-3.6-1.2-6.7-3.6-9.4C491.2,48.4,487.8,47,483.2,47"></path><path d="M510.4,61.2c0-1.9,0.7-3.4,2.1-4.5c1.4-1.1,3.1-1.6,5-1.6c1.9,0,3.6,0.5,5,1.6c1.4,1.1,2.1,2.6,2.1,4.5H510.4z   M517.5,47c-5.2,0-9.5,1.7-12.8,5c-3.3,3.3-5,7.6-5,12.8c0,5.2,1.7,9.5,5,12.8c3.3,3.3,7.6,5,12.8,5c7.1,0,12-1.8,14.6-5.3l-5.7-5.7  c-2.6,1.9-5.6,2.9-8.9,2.9c-1.9,0-3.6-0.5-5-1.6c-1.4-1.1-2.3-2.6-2.5-4.5h24.6v-3.6c0-5.2-1.5-9.5-4.6-12.8  C526.9,48.7,522.7,47,517.5,47"></path><path d="M560.1,47.3c-1-0.2-2.2-0.3-3.3-0.3c-3.7,0-6.8,1.3-9.3,3.9v-4h-10v35.7h10V60.7c1.6-3.4,3.6-5.1,6.1-5.3  c2.2,0.1,3.8,0.6,5,1.7L560.1,47.3z"></path><path d="M569.5,61.2c0-1.9,0.7-3.4,2.1-4.5c1.4-1.1,3.1-1.6,5-1.6c1.9,0,3.6,0.5,5,1.6c1.4,1.1,2.1,2.6,2.1,4.5H569.5z   M593.7,64.8c0-5.2-1.5-9.5-4.6-12.8c-3.1-3.3-7.3-5-12.5-5c-5.2,0-9.5,1.7-12.8,5c-3.3,3.3-5,7.6-5,12.8c0,5.2,1.7,9.5,5,12.8  c3.3,3.3,7.6,5,12.8,5c7.1,0,12-1.8,14.6-5.3l-5.7-5.7c-2.6,1.9-5.6,2.9-8.9,2.9c-1.9,0-3.6-0.5-5-1.6c-1.4-1.1-2.3-2.6-2.5-4.5  h24.6V64.8z"></path><path d="M209.5,74.4c-0.3,0-0.5-0.1-0.8-0.1c0,0,0,0,0,0c-5-0.4-8.9-4.5-8.9-9.6c0-5.3,4.3-9.7,9.7-9.7s9.7,4.3,9.7,9.7  C219.2,70.1,214.9,74.4,209.5,74.4 M209.1,46.9c-2.6,0-5.2,1-7.8,2.9v-2.9h-10v50.6l10,0V79.7c1.7,1.7,4.3,2.7,7.8,2.9  c5.5,0,9.8-1.8,13-5.3c3.2-3.6,4.8-7.7,4.8-12.5c0-4.8-1.6-8.9-4.8-12.5C218.9,48.7,214.6,46.9,209.1,46.9"></path><path d="M247.2,74.3C247.2,74.4,247.2,74.4,247.2,74.3C247.2,74.4,247.2,74.4,247.2,74.3c-0.3,0-0.6,0.1-0.8,0.1  c-5.3,0-9.7-4.3-9.7-9.7c0-5.4,4.3-9.7,9.7-9.7c5.4,0,9.7,4.3,9.7,9.7C256.1,69.8,252.2,73.9,247.2,74.3 M254.7,49.8  c-2.7-1.9-5.3-2.9-7.8-2.9c-5.5,0-9.8,1.8-13,5.3c-3.2,3.6-4.8,7.7-4.8,12.5c0,4.8,1.6,8.9,4.8,12.5c3.2,3.6,7.5,5.3,13,5.3  c3.6-0.2,6.2-1.2,7.8-2.9v2.9l10,0V47h-10V49.8z"></path><path d="M321.4,74.4c-5.4,0-9.7-4.3-9.7-9.7c0-5.4,4.3-9.7,9.7-9.7c5.4,0,9.7,4.3,9.7,9.7  C331.1,70.1,326.8,74.4,321.4,74.4 M329.7,49.8c-2.7-1.9-5.3-2.9-7.8-2.9c-5.5,0-9.8,1.8-13,5.3c-3.2,3.6-4.8,7.7-4.8,12.5  c0,4.8,1.6,8.9,4.8,12.5c3.2,3.6,7.5,5.3,13,5.3c3.6-0.2,6.2-1.2,7.8-2.9v2.9l10,0V47h-10V49.8z"></path><path d="M9.3,57.7C9.3,31.4,30.7,10,57,10c12,0,23.4,4.5,32.3,12.7c9.8,9,15.4,21.8,15.4,35s-5.6,26-15.4,35  c-8.8,8.2-20.3,12.7-32.3,12.7c-5.4,0-10.8-0.9-15.9-2.7v9.7H9.3V57.7z M56.9,47.9c-5.4,0-9.8,4.4-9.8,9.8c0,5.4,4.4,9.8,9.8,9.8  c5.4,0,9.8-4.4,9.8-9.8C66.7,52.3,62.3,47.9,56.9,47.9"></path><path d="M86.6,92.8c-9.8-9-15.4-21.8-15.4-35s5.6-26,15.4-35c0.5-0.4,1.5-1.3,1.5-1.3l0,0c0.4,0.3,0.8,0.7,1.1,1  c9.8,9,15.4,21.8,15.4,35s-5.6,26-15.4,35c0,0-1.5,1.3-1.5,1.3L86.6,92.8z"></path></svg>