<svg xmlns="http://www.w3.org/2000/svg" xmlns:xlink="http://www.w3.org/1999/xlink" version="1.1" id="Layer_1" x="0px" y="0px" viewBox="0 0 979.1 181.1" xml:space="preserve"><style type="text/css">
	.st0{fill:#FEB81F;}
	.st1{fill:#450143;}</style><g><g><path d="M979.1,149.1c-6.1,0-13.2-0.1-19.6-0.1c0-3.6-0.1-7.2,0-11.5c-1.9,2.6-3.3,5.1-5.2,7    c-7.8,7.6-17.1,7.6-26.5,4.1c-9-3.4-14.1-10.5-14.7-20.2c-0.9-14.5,8-24.1,24.2-26.3c7.1-1,14.1-1.8,21.2-2.6    c0.5-6.4-2-10.5-8.5-12.4c-10-2.9-19.7-1.8-29.2,2.2c-1.1,0.4-2.7,0.9-4.8,1.7c1.4-5.5,2.8-10.9,4.1-16.3c0.3-1.3,1.3-1.9,2.4-2.3    c14.2-5.6,28.4-6.5,42.5,0.3c7.8,3.7,13.5,10.8,14,18.4C979.1,110.4,979.1,129.8,979.1,149.1z M958.6,113.1    c-6.5,0.6-12.9,0.8-19.1,2.9c-4.2,1.5-5.8,4.6-5.7,8.9c0.1,4.3,2.3,7.2,6.3,8.7c7.1,2.7,14.8-0.7,17.5-7.9    C959.1,121.7,959.5,117.7,958.6,113.1z"></path><path d="M282.9,131.2c0-9.3,0-17.9,0-26.9c-9.9,0-19.5,0-29.7,0c1.5-6.6,2.8-12.7,4.2-19.2c7.8,0,15.4,0,23.1,0    c7.6,0,15.2,0,23.4,0c0,6,0,11.4,0,16.9c0,13.5,0,31.2,0,44.7c0,0,0.4-0.1-2.7,0.8c-24.2,6.6-47.9,6.5-70.1-6.1    c-18.8-10.7-27.9-31.7-24.6-53.9c4-26.8,20.4-42.5,49.7-47.3c14.4-2.3,28.5-1.4,42.3,3.7c3.1,1.1,4.2,1.6,4.2,1.6    c-1.5,5-3.9,14.6-5.3,20c-5.3-1.6-9.9-4-15-5c-14.4-2.8-28.3-1.9-40.8,6.3C230,74.4,227,86.2,228.3,99.2    c1.3,13.6,8.7,23.2,21.2,28.6C260.1,132.3,271.2,133.3,282.9,131.2z"></path><path d="M516.6,91.2c-2.4,4.2-3.2,8.5-4.6,12.5c-3,8.8-6,17.7-8.7,26.6c-0.8,2.7-1.2,3.7-1.2,3.7    c-5.1,0.2-13.9,0-19.8,0c-4.9-17.7-9.9-35.3-14.9-53.1c11.6-1.3,20.7,6.3,26.1,21c1.9-1.7,9.5-27.8,12.7-38.7    c1-3.3,1.2-4.2,1.2-4.2c4,0,12.7,0,17.3,0c4.5,14.2,9.1,28.9,13.7,43.5c1.1-2.8,1.8-4.8,2.4-6.8c5.5-20.2,10.9-40.5,16.4-60.7    c3.8-14.1,13.7-22.4,26.9-22.1c-2.5,9-4.9,18-7.4,26.9c-8.3,29.8-16.7,59.6-25,89.4c-1,3.6-1.3,4.5-1.3,4.5    c-5.2-0.1-15.5-0.2-19.6-0.2c0,0-3.6-9.2-5.1-13.8C522.8,110.3,519.8,101,516.6,91.2z"></path><path d="M666.1,149.1c-7,0-13.5,0-20.3,0c0-37.9,0-75.6,0-113.7c6.6,0,13.1,0,20,0c0,14.8,0,29.6,0,45.4    c2.3-2.6,3.8-4.6,5.7-6.2c8.5-7.2,18.3-8.4,28.5-4.7c9.8,3.6,15.1,11.6,15.4,21.5c0.8,19.1,0.2,38.2,0.2,57.6    c-6.6,0-20.4,0.1-20.4,0.1c-0.2-14.7,0.1-35.1-0.3-49.8c-0.2-8.1-4.7-12.4-12.3-13.1c-7.4-0.7-13.5,3.4-15.7,10.4    c-0.9,3.1-1.1,6.2-1.1,9.4C666.1,120.2,666.1,134.4,666.1,149.1z"></path><path d="M416.1,152.4c-25.7-0.3-42.5-17.5-42.3-42.9c0.3-24.8,16.5-42,42.7-42c26.7,0,43,17.8,42.7,43    C459,135.8,441.6,152.7,416.1,152.4z M416.4,85.2c-13,0.1-22.4,10.7-22.2,25c0.3,14.4,9.3,24.4,22.2,24.5    c12.9,0.1,22.4-10.4,22.4-24.8C438.8,95.4,429.4,85,416.4,85.2z"></path><path d="M761.5,87c-12,0-23.1,0-34.8,0c1.8-6.3,4.9-17.7,4.9-17.7c19.2,0,61.7,0.1,63,0    c-11.9,20.3-24.4,41.7-36.7,62.6c12.7,0,24.8,0,37.2,0c-2.7,9.5-4.9,17.5-4.9,17.5c-20.5,0-43,0-65,0    C737.5,128.2,749.2,108.1,761.5,87z"></path><path d="M90.4,0c49.8,0.1,90.8,41.3,90.4,90.8c-0.4,50-40.8,90.3-90.4,90.3c-49.8,0-90.5-40.9-90.3-90.8    C0.2,40.5,40.8-0.1,90.4,0z M175.5,91c0.7-46.4-37.2-85.2-84-86C44.7,4.2,5.7,42.3,5,89.6c-0.7,46.8,37.1,85.7,84.1,86.5    C136.3,176.9,174.8,138.9,175.5,91z"></path><path d="M591,86c-4,0-7.3,0-10.4,0l0.1-5.2c6.5-7.6,17.4-20.6,23.7-28.3c0,0,0,0,6.5,0c0,5.1,0,10.5,0,16.6    c7.5,0,14.6,0,21.8,0c0,5.8,0,10.9,0,16.7c-7,0-14,0-21.4,0c0,12.3-0.5,23.9,0.2,35.5c0.5,9.2,7,12.7,17,10.5    c1.6-0.4,3.1-0.9,5.2-1.5c0,5.1,0,9.7,0,14.3c0,2.6-2,3.4-3.9,3.9c-9.4,2.7-18.8,2.9-27.7-1.8c-7.4-4-10.9-10.7-11.1-18.9    C590.8,114.1,591,100.5,591,86z"></path><path d="M842.3,149c0-38.1,0-75.7,0-113.7c6.6,0,13,0,19.8,0c0,37.8,0,75.6,0,113.7C855.5,149,849.1,149,842.3,149z"></path><path d="M899.9,149.3c-1.1,0-13.6,0-19.5,0c0-38,0-75.8,0-113.9c6.2,0,12.6,0,19.5,0    C899.9,73.1,899.9,111.1,899.9,149.3z"></path><path d="M367.5,92.3c-3-0.7-5.3-1.3-7.8-1.7c-9-1.5-15.8,3.1-17.7,12.1c-1.5,6.9-0.8,14-0.9,20.9    c-0.1,8.6,0,17.3,0,26.2c-6.8,0-13.2,0-20,0c0-26.5,0-52.9,0-79.5c6.2,0,12.1,0,18.6,0c0,4.8,0,9.7,0,15.2    c4-11.9,16.8-18.3,25.9-16.2c3.8,0.9,6.1,1.7,6.1,1.7C370.3,77,368.6,86.7,367.5,92.3z"></path><path d="M824.2,69.6c0,26.6,0,52.9,0,79.4c-6.6,0-13,0-19.8,0c0-26.4,0-52.7,0-79.4C810.8,69.6,817.2,69.6,824.2,69.6    z"></path><rect x="481.4" y="143.4" width="69.5" height="8.7"></rect><path d="M824.6,35.5c0,6.8,0,13.6,0,20.7c-6.7,0-13.3,0-20.2,0c0-6.8,0-13.5,0-20.7C810.9,35.5,817.6,35.5,824.6,35.5    z"></path><path d="M175.5,91c-0.7,47.9-39.3,85.9-86.4,85.1c-47-0.8-84.7-39.7-84.1-86.5C5.7,42.3,44.7,4.2,91.5,5    C138.4,5.8,176.2,44.6,175.5,91z"></path><path d="M83.1,95.1c-1.8,3.3-2.5,6.5-3.5,9.7c-2.3,6.8-4.6,13.6-6.7,20.5c-0.6,2.1-0.9,2.8-0.9,2.8    c-4,0.1-10.7,0-15.3,0c-3.8-13.6-7.6-27.3-11.5-41c8.9-1,16,4.9,20.2,16.2c1.5-1.3,7.4-21.5,9.8-29.9c0.7-2.5,0.9-3.2,0.9-3.2    c3.1,0,9.8,0,13.4,0c3.5,11,7,22.3,10.6,33.6c0.9-2.1,1.4-3.7,1.9-5.3c4.3-15.6,8.4-31.3,12.7-46.9c3-10.9,10.6-17.3,20.8-17.1    c-1.9,7-3.8,13.9-5.7,20.8c-6.4,23-12.9,46-19.3,69.1c-0.8,2.8-1,3.5-1,3.5c-4-0.1-12-0.2-15.1-0.1c0,0-2.8-7.1-4-10.7    C87.9,109.9,85.5,102.7,83.1,95.1z"></path><rect x="55.9" y="135.4" width="53.7" height="6.7"></rect></g></g></svg>