<svg xmlns="http://www.w3.org/2000/svg" xmlns:xlink="http://www.w3.org/1999/xlink" version="1.1" id="Layer_1" x="0px" y="0px" viewBox="0 0 126 35.1" xml:space="preserve"><style type="text/css">
	.st0{fill:#FFFFFF;}
	.st1{fill:#D3202C;}</style><g><path d="M76.6,26.6c-0.4,0-0.7-0.1-1-0.2c-0.2-0.1-0.3-0.2-0.4-0.3c-0.2-0.2-0.3-0.4-0.4-0.7c-0.1-0.3-0.1-0.7-0.1-1.2   l0,0v0V8.6c0-1.6-1.3-2.9-2.9-2.9h-0.2h-0.1V6c0,7.8,0,8.8,0,18.2c0,1.7,0.4,3,1.2,4c0.4,0.5,0.9,0.8,1.5,1c0.6,0.2,1.3,0.3,2,0.3   c0.3,0,0.6,0,0.9,0l0.2,0l0.1,0v-0.3v-2.6l-0.4,0C76.9,26.6,76.8,26.6,76.6,26.6z"></path><path d="M95.4,20.8c0-2.5-0.9-4.8-2.4-6.4c-1.6-1.6-3.8-2.6-6.4-2.6h0l0,0h0c-2.6,0-4.8,1-6.3,2.6   c-1.5,1.6-2.4,3.9-2.4,6.4l0,0l0,0l0,0v0v0c0,2.5,0.9,4.8,2.4,6.4s3.8,2.6,6.3,2.6h0l0,0l0,0h0c2.6,0,4.8-1,6.4-2.6   C94.5,25.6,95.3,23.3,95.4,20.8L95.4,20.8L95.4,20.8L95.4,20.8L95.4,20.8z M92.1,20.8c0,2.1-0.7,3.6-1.7,4.6c-1,1-2.4,1.5-3.8,1.5   c-1.4,0-2.8-0.5-3.8-1.5c-1-1-1.7-2.5-1.7-4.6c0-2.1,0.7-3.6,1.7-4.5c1-1,2.4-1.5,3.8-1.5l0,0c1.4,0,2.8,0.5,3.8,1.5   C91.4,17.3,92.1,18.7,92.1,20.8z"></path><path d="M110.5,12.1c-1.8,0-3.4,1.1-4,2.8l-3,8.5l0,0c-0.1,0.4-0.3,1-0.4,1.6c0,0.1,0,0.2,0,0.2c0-0.1,0-0.2,0-0.2   c-0.1-0.3-0.1-0.6-0.2-0.9c-0.1-0.3-0.1-0.5-0.2-0.7l-3-8.5c-0.6-1.7-2.2-2.8-4-2.8h-0.5l6.2,17.4h3.6l6.2-17.4L110.5,12.1   L110.5,12.1z"></path><path d="M126,18.9c0-2.4-0.9-4.2-2.3-5.4l0,0c-1.4-1.2-3.2-1.7-5.1-1.7c-2.3,0-4.7,0.8-6.4,2.3l-0.3,0.2l0.2,0.3   c0.6,0.6,1.3,1,2.1,1c0.4,0,0.8-0.1,1.1-0.2c1-0.4,2.1-0.7,3.1-0.7l0,0l0,0c1.2,0,2.3,0.3,3.1,1c0.4,0.3,0.7,0.8,0.9,1.3   c0.2,0.5,0.3,1.1,0.3,1.8c-1.2-0.5-2.4-0.9-3.7-0.9v0l-0.1,0c-0.1,0-0.1,0-0.2,0l0,0h0c-2.6,0-4.6,0.7-5.9,1.9   c-1.3,1.1-2,2.7-2,4.2v0l0,0v0c0,1.5,0.7,3,1.9,4.1c1.3,1.1,3.2,1.8,5.7,1.8c0,0,0.1,0,0.1,0h0l0,0h0c1.6,0,3.2-0.5,4.5-1.5   c0.4,0.7,1.2,1.2,2,1.2h0.8V18.9L126,18.9z M119,20.6L119,20.6c1.3,0,2.7,0.3,3.8,0.9c0,1.2,0,2.4,0,3.7c-0.5,0.5-1.1,0.9-1.8,1.2   c-0.8,0.3-1.6,0.4-2.3,0.4l0,0l0,0h0c-1.6,0-2.8-0.4-3.6-1c-0.8-0.6-1.1-1.3-1.1-2c0-0.8,0.4-1.5,1.2-2.1   C116,21,117.3,20.6,119,20.6z"></path></g><g><path d="M24.4,9.6c-1-0.6-2.2-0.8-3.4-0.8c-1.9,0-3.9,0.7-5.4,1.9L15,11.1l0.4,0.5c0.5,0.6,1.2,0.9,1.9,0.9   c0.3,0,0.7-0.1,1-0.2c0.8-0.3,1.7-0.5,2.5-0.5c0.5,0,0.9,0.1,1.3,0.2c0.6,0.2,1.1,0.5,1.4,1c0.3,0.4,0.4,0.8,0.5,1.4   c-0.9-0.4-1.8-0.6-2.8-0.6l0,0c0,0-0.1,0-0.1,0c-2.2,0-3.9,0.6-5,1.6c-1.2,1-1.8,2.3-1.8,3.6c0,1.3,0.6,2.6,1.7,3.6   c1.1,1,2.8,1.6,4.9,1.5c0,0,0.1,0,0.1,0h0h0c0.7,0,1.5-0.1,2.2-0.4c0.5-0.2,0.9-0.4,1.3-0.7c0.4,0.5,1,0.9,1.7,0.9h1v-8.9   c0-1-0.2-1.9-0.5-2.7C26.3,11,25.4,10.1,24.4,9.6z M21.3,16.5c0.5,0,1.1,0.1,1.6,0.2c0.4,0.1,0.8,0.3,1.2,0.5c0,0.9,0,1.8,0,2.7   c-0.3,0.3-0.8,0.6-1.3,0.8C22.3,20.9,21.6,21,21,21c-1.3,0-2.2-0.3-2.7-0.7c-0.3-0.2-0.5-0.4-0.6-0.7c-0.1-0.2-0.2-0.5-0.2-0.7   c0-0.3,0.1-0.5,0.2-0.8c0.2-0.4,0.6-0.8,1.2-1.1C19.5,16.7,20.3,16.5,21.3,16.5z"></path><path d="M38.2,9.4c-1-0.4-2-0.6-3.2-0.6h0h0c-1.7,0-3.6,0.2-5.4,0.8l-0.4,0.1v16.7c0,1.5,1.2,2.7,2.7,2.7h0.6v-5.4   c0.8,0.3,1.7,0.4,2.6,0.4c1.2,0,2.3-0.3,3.3-0.7c1.4-0.7,2.5-1.7,3.3-3c0.7-1.3,1.1-2.7,1.1-4.1v0c0-1.9-0.7-3.8-2-5.1   C39.9,10.4,39.1,9.8,38.2,9.4z M39.3,16.2c0,1.1-0.4,2.3-1.2,3.2c-0.4,0.5-0.8,0.8-1.4,1.1c-0.5,0.3-1.2,0.4-1.9,0.4   c-0.8,0-1.7-0.1-2.6-0.4V12c0.8-0.2,1.7-0.3,2.6-0.3c0.7,0,1.4,0.1,1.9,0.4c0.8,0.4,1.4,1,1.9,1.7C39.1,14.5,39.3,15.3,39.3,16.2   L39.3,16.2z"></path><path d="M55.7,11.1c-0.7-0.7-1.5-1.3-2.4-1.7c-1-0.4-2-0.6-3.2-0.6h0h0c-1.7,0-3.6,0.2-5.4,0.8l-0.4,0.1v16.7   c0,1.5,1.2,2.7,2.7,2.7h0.6v-5.4c0.8,0.3,1.7,0.4,2.6,0.4c1.2,0,2.3-0.3,3.3-0.7c1.4-0.7,2.5-1.7,3.3-3c0.7-1.3,1.1-2.7,1.1-4.1v0   C57.7,14.3,57,12.5,55.7,11.1z M54.5,16.2c0,1.1-0.4,2.3-1.2,3.2c-0.4,0.5-0.8,0.8-1.4,1.1c-0.5,0.3-1.2,0.4-1.9,0.4   c-0.8,0-1.7-0.1-2.6-0.4V12c0.8-0.2,1.7-0.3,2.6-0.3c0.7,0,1.4,0.1,1.9,0.4c0.8,0.4,1.4,1,1.9,1.7C54.2,14.5,54.5,15.3,54.5,16.2   L54.5,16.2z"></path></g><path d="M65.4,30.5c0,2.5-2.1,4.6-4.6,4.6H4.6C2.1,35.1,0,33,0,30.5V4.6C0,2.1,2.1,0,4.6,0h56.1c2.6,0,4.6,2.1,4.6,4.6  V30.5z M62.7,5.4c0-1.3-1-2.3-2.3-2.3H12.2c-1.3,0-2.3,1-2.3,2.3v25.1c0,1.3,1,2.3,2.3,2.3h48.2c1.3,0,2.3-1,2.3-2.3L62.7,5.4  L62.7,5.4z M4.9,14.3c-1.9,0-3.4,1.5-3.4,3.4c0,1.9,1.5,3.4,3.4,3.4c1.9,0,3.4-1.5,3.4-3.4C8.3,15.8,6.8,14.3,4.9,14.3z"></path></svg>