<svg xmlns="http://www.w3.org/2000/svg" xmlns:xlink="http://www.w3.org/1999/xlink" version="1.1" id="Layer_1" x="0px" y="0px" viewBox="0 0 184.4 112.5" xml:space="preserve"><style type="text/css">
	.st0{fill:#BCBEC0;}</style><g><g><g><path d="M18.8,105c-1.4,0-2.9-0.3-4.2-1c-4.7-2.3-6.5-8-4.2-12.6l9.8-19.6c2.3-4.7,8-6.5,12.6-4.2     c4.7,2.3,6.5,8,4.2,12.6l-9.8,19.6C25.6,103.1,22.3,105,18.8,105z"></path></g><g><path d="M54.6,105c-1.4,0-2.9-0.3-4.2-1c-4.7-2.3-6.5-8-4.2-12.6L65.8,52c2.3-4.7,8-6.5,12.6-4.2     c4.7,2.3,6.5,8,4.2,12.6L63.1,99.8C61.4,103.1,58.1,105,54.6,105z"></path></g><g><path d="M90.5,105c-1.4,0-2.9-0.3-4.2-1c-4.7-2.3-6.5-8-4.2-12.6l29.5-58.9c2.3-4.7,8-6.5,12.6-4.2     c4.7,2.3,6.5,8,4.2,12.6L98.9,99.8C97.2,103.1,93.9,105,90.5,105z"></path></g><g><path d="M126.3,105c-1.4,0-2.9-0.3-4.2-1c-4.7-2.3-6.5-8-4.2-12.6l39.3-78.6c2.3-4.7,8-6.5,12.6-4.2     c4.7,2.3,6.5,8,4.2,12.6l-39.3,78.6C133.1,103.1,129.7,105,126.3,105z"></path></g></g></g></svg>