<svg xmlns="http://www.w3.org/2000/svg" xmlns:xlink="http://www.w3.org/1999/xlink" version="1.1" id="Layer_1" x="0px" y="0px" viewBox="0 0 47 47" xml:space="preserve"><style type="text/css">
	.st0{fill:#FF5000;}
	.st1{fill:#FFFFFF;}</style><polygon points="47,47 47,0 0,0 "></polygon><path id="Icon_metro-pin" d="M35.5,10.5l-6.2,6.1c-0.7,0.7-0.7,2,0,2.8c0.7,0.8,2,0.8,2.8,0.1l0-0.1l6.1-6.2  c0.7-0.7,0.7-2-0.1-2.7C37.3,9.8,36.2,9.8,35.5,10.5z M29.4,15.3l4.8-4.7l-4.8-3.3l-3.2,3.3L29.4,15.3L29.4,15.3z M42,23.1L36.9,16  l-2,2.1L42,23.1L42,23.1z M27,4l-4.1,4.1c-0.6,0.7-0.5,1.5,0.1,2.1c0.5,0.4,1.4,0.5,2,0L29,6.1c0.6-0.6,0.7-1.5,0.1-2  s-1.5-0.7-2-0.1C27,4,27,4,27,4L27,4z"></path></svg>