<svg xmlns="http://www.w3.org/2000/svg" width="110" height="106" viewBox="0 0 110 106" fill="none"><g clip-path="url(#clip0_8918_22548)"><mask id="mask0_8918_22548" style="mask-type:luminance" maskUnits="userSpaceOnUse" x="0" y="0" width="110" height="106"><path d="M109.686 0.881836H0.398438V105.514H109.686V0.881836Z" fill="white"></path></mask><g mask="url(#mask0_8918_22548)"><path d="M51.9399 12.419L5.40546 33.6358L31.0487 89.9206L77.5831 68.7038L66.4863 44.3366L83.1975 81.015C84.1391 83.083 83.2239 85.5118 81.1559 86.4534L42.1015 104.256C40.0335 105.197 37.5959 104.291 36.6543 102.223L1.64786 25.3814C0.706257 23.3134 1.62146 20.8846 3.68946 19.943L42.7439 2.13183C44.8119 1.19023 47.2495 2.09663 48.1911 4.16463L57.0263 23.5686M53.8935 89.1902C52.9607 87.1574 53.8671 84.7462 55.9087 83.8134C57.9503 82.8806 60.3527 83.7782 61.2855 85.8198C62.2183 87.8614 61.3119 90.2638 59.2703 91.1966C57.2287 92.1294 54.8263 91.2318 53.8935 89.1902Z" stroke="#0F2832" stroke-width="1.76" stroke-miterlimit="10"></path><path d="M45.8408 37.6574L46.3512 56.4718C46.492 61.479 50.6632 65.4302 55.6704 65.2982L100.85 64.0662C105.857 63.9342 109.808 59.7542 109.676 54.747L109.166 35.9326L45.8408 37.6574Z" fill="#8AD8FF"></path><path d="M108.734 28.7781C107.696 24.7829 104.018 21.8877 99.7144 22.0021L54.5264 23.2341C50.2232 23.3485 46.712 26.4461 45.8848 30.4941L108.726 28.7869L108.734 28.7781Z" fill="#8AD8FF"></path></g></g><defs><clipPath id="clip0_8918_22548"><rect width="109.287" height="104.632" fill="white" transform="translate(0.397461 0.88208)"></rect></clipPath></defs></svg>