<svg xmlns="http://www.w3.org/2000/svg" width="120" height="93" viewBox="0 0 120 93" fill="none"><g clip-path="url(#clip0_8902_26562)"><path d="M36.6323 92.1699C16.7513 92.1699 0.569336 75.9879 0.569336 56.1069C0.569336 36.2259 16.7513 20.0439 36.6323 20.0439C56.5133 20.0439 72.6953 36.2259 72.6953 56.1069C72.6953 75.9879 56.5133 92.1699 36.6323 92.1699ZM36.6323 21.8889C17.7683 21.8889 2.41434 37.2339 2.41434 56.1069C2.41434 74.9799 17.7683 90.3249 36.6323 90.3249C55.4963 90.3249 70.8503 74.9709 70.8503 56.1069C70.8503 37.2429 55.4963 21.8889 36.6323 21.8889Z" fill="#0F2832"></path><path d="M36.632 92.1699C25.526 92.1699 16.481 75.9879 16.481 56.1069C16.481 36.2259 25.517 20.0439 36.632 20.0439C47.747 20.0439 56.783 36.2259 56.783 56.1069C56.783 75.9879 47.747 92.1699 36.632 92.1699ZM36.632 21.8889C26.543 21.8889 18.326 37.2429 18.326 56.1069C18.326 74.9709 26.534 90.3249 36.632 90.3249C46.73 90.3249 54.938 74.9709 54.938 56.1069C54.938 37.2429 46.73 21.8889 36.632 21.8889Z" fill="#0F2832"></path><path d="M71.7678 55.1799H1.48682V57.0249H71.7678V55.1799Z" fill="#0F2832"></path><path d="M37.5496 20.9619H35.7046V91.2429H37.5496V20.9619Z" fill="#0F2832"></path><path d="M44.6958 16.7679V38.9889C44.6958 44.9109 49.4928 49.7079 55.4148 49.7079H108.785C114.698 49.7079 119.504 44.9109 119.504 38.9889V16.7679H44.6958Z" fill="#A38AFF"></path><path d="M119.207 8.29901C118.109 3.54701 113.861 0.0100098 108.776 0.0100098H55.4061C50.3211 0.0100098 46.0731 3.55601 44.9751 8.29901H119.198H119.207Z" fill="#A38AFF"></path></g><defs><clipPath id="clip0_8902_26562"><rect width="118.926" height="92.16" fill="white" transform="translate(0.568359 0.0100098)"></rect></clipPath></defs></svg>