<svg xmlns="http://www.w3.org/2000/svg" width="108" height="108" viewBox="0 0 108 108" fill="none"><g clip-path="url(#clip0_8902_26444)"><path d="M77.5518 63.1394C90.8182 63.1394 101.573 52.3848 101.573 39.1184C101.573 25.852 90.8182 15.0974 77.5518 15.0974C64.2853 15.0974 53.5308 25.852 53.5308 39.1184C53.5308 52.3848 64.2853 63.1394 77.5518 63.1394Z" fill="#50E191"></path><path d="M43.4518 80.0325H71.0728C74.0428 80.0325 75.7438 76.6485 73.9708 74.2635L73.6918 73.8945C70.9468 70.2135 66.6268 68.0445 62.0368 68.0445H50.0848C50.0848 68.0445 45.5398 59.9805 34.1458 59.9805H22.6528" stroke="#0F2832" stroke-width="1.8" stroke-linecap="round" stroke-linejoin="round"></path><path d="M3.86164 55.0214L19.5846 56.3984C20.9166 56.5154 21.9426 57.6314 21.9426 58.9634L22.0866 94.5854C21.9966 97.2134 20.1066 99.4364 17.5146 99.9404L11.7726 101.056L10.9266 105.619L3.91564 106.411C2.38564 106.582 1.03564 105.385 1.03564 103.846V57.5864C1.03564 56.0654 2.33164 54.8774 3.84364 55.0124L3.86164 55.0214Z" stroke="#0F2832" stroke-width="1.8" stroke-linecap="round" stroke-linejoin="round"></path><path d="M15.3977 95.6474C16.8292 95.6474 17.9897 94.487 17.9897 93.0554C17.9897 91.6239 16.8292 90.4634 15.3977 90.4634C13.9661 90.4634 12.8057 91.6239 12.8057 93.0554C12.8057 94.487 13.9661 95.6474 15.3977 95.6474Z" fill="#0F2832"></path><path d="M52.4697 39.1185C62.9626 39.1185 71.4687 30.6123 71.4687 20.1195C71.4687 9.62663 62.9626 1.12048 52.4697 1.12048C41.9768 1.12048 33.4707 9.62663 33.4707 20.1195C33.4707 30.6123 41.9768 39.1185 52.4697 39.1185Z" stroke="#0F2832" stroke-width="1.8" stroke-linecap="round" stroke-linejoin="round"></path><path d="M74.4468 77.6925C83.9688 75.1995 95.2998 68.9085 99.6288 66.4515C101.168 65.5785 103.103 65.6415 104.516 66.7125C105.245 67.2615 105.83 67.9905 106.217 68.8275C106.73 69.9435 106.838 71.3205 106.217 72.3825C101.393 80.7165 67.4538 97.8975 58.7688 97.8975C55.0968 97.8975 35.6568 96.1515 22.0938 88.1235" stroke="#0F2832" stroke-width="1.8" stroke-linecap="round" stroke-linejoin="round"></path></g><defs><clipPath id="clip0_8902_26444"><rect width="107.388" height="107.118" fill="white" transform="translate(0.152832 0.220459)"></rect></clipPath></defs></svg>