<svg xmlns="http://www.w3.org/2000/svg" width="92" height="85" viewBox="0 0 92 85" fill="none"><g clip-path="url(#clip0_8956_26379)"><path d="M24.0085 78.4869H3.29053V84.8949H24.0085V78.4869Z" fill="#FFA564"></path><path d="M21.5334 67.1019H0.81543V73.5099H21.5334V67.1019Z" fill="#FFA564"></path><path d="M24.0085 55.7169H3.29053V62.1249H24.0085V55.7169Z" fill="#FFA564"></path><path d="M56.9934 78.4869H36.2754V84.8949H56.9934V78.4869Z" fill="#FFA564"></path><path d="M56.9934 67.1019H36.2754V73.5099H56.9934V67.1019Z" fill="#FFA564"></path><path d="M59.6755 55.7169H38.9575V62.1249H59.6755V55.7169Z" fill="#FFA564"></path><path d="M56.9934 44.3319H36.2754V50.7399H56.9934V44.3319Z" fill="#FFA564"></path><path d="M89.9695 78.4869H69.2515V84.8949H89.9695V78.4869Z" fill="#FFA564"></path><path d="M88.7366 67.1019H68.0186V73.5099H88.7366V67.1019Z" fill="#FFA564"></path><path d="M89.9695 55.7169H69.2515V62.1249H89.9695V55.7169Z" fill="#FFA564"></path><path d="M91.5444 44.3319H70.8264V50.7399H91.5444V44.3319Z" fill="#FFA564"></path><path d="M89.9695 32.9559H69.2515V39.3639H89.9695V32.9559Z" fill="#FFA564"></path><path d="M89.9695 21.5709H69.2515V27.9789H89.9695V21.5709Z" fill="#FFA564"></path><path d="M9.27589 52.5939L7.69189 51.0099L35.5829 23.1099L47.6159 35.1519L78.1529 2.26587L79.7459 3.85887L47.6159 38.3289L35.5829 26.2959L9.27589 52.5939Z" fill="#0F2832"></path><path d="M68.019 1.32996L68.1 3.51696L78.918 3.11196L78.531 13.93L80.727 14.002L81.195 0.834961L68.019 1.32996Z" fill="#0F2832"></path></g><defs><clipPath id="clip0_8956_26379"><rect width="90.738" height="84.06" fill="white" transform="translate(0.81543 0.834961)"></rect></clipPath></defs></svg>