<svg xmlns="http://www.w3.org/2000/svg" width="112" height="108" viewBox="0 0 112 108" fill="none"><g clip-path="url(#clip0_8902_26500)"><mask id="mask0_8902_26500" style="mask-type:luminance" maskUnits="userSpaceOnUse" x="0" y="0" width="112" height="108"><path d="M111.928 0.69751H0.156982V107.708H111.928V0.69751Z" fill="white"></path></mask><g mask="url(#mask0_8902_26500)"><path d="M52.8701 12.4965L5.27809 34.1955L31.5041 91.7595L79.0961 70.0605L67.7471 45.1395L84.8381 82.6515C85.8011 84.7665 84.8651 87.2505 82.7501 88.2135L42.8081 106.42C40.6931 107.383 38.2001 106.456 37.2371 104.341L1.43509 25.7535C0.472086 23.6385 1.40809 21.1545 3.52309 20.1915L43.4651 1.97549C45.5801 1.01249 48.0731 1.93949 49.0361 4.05449L58.0721 23.8995M54.8681 91.0125C53.9141 88.9335 54.8411 86.4675 56.9291 85.5135C59.0171 84.5595 61.4741 85.4775 62.4281 87.5655C63.3821 89.6535 62.4551 92.1105 60.3671 93.0645C58.2791 94.0185 55.8221 93.1005 54.8681 91.0125Z" stroke="#0F2832" stroke-width="1.8" stroke-miterlimit="10"></path><path d="M46.6328 38.3086L47.1548 57.5506C47.2988 62.6716 51.5648 66.7126 56.6858 66.5776L102.892 65.3176C108.013 65.1826 112.054 60.9076 111.919 55.7866L111.397 36.5446L46.6328 38.3086Z" fill="#8AD8FF"></path><path d="M110.956 29.2275C109.894 25.1415 106.132 22.1805 101.731 22.2975L55.5165 23.5575C51.1155 23.6745 47.5245 26.8425 46.6785 30.9825L110.947 29.2365L110.956 29.2275Z" fill="#8AD8FF"></path></g></g><defs><clipPath id="clip0_8902_26500"><rect width="111.771" height="107.01" fill="white" transform="translate(0.157227 0.69751)"></rect></clipPath></defs></svg>