<svg xmlns="http://www.w3.org/2000/svg" width="118" height="91" viewBox="0 0 118 91" fill="none"><g clip-path="url(#clip0_8918_22642)"><path d="M36.1473 90.1441C16.7081 90.1441 0.885742 74.3216 0.885742 54.8825C0.885742 35.4432 16.7081 19.6208 36.1473 19.6208C55.5865 19.6208 71.4089 35.4432 71.4089 54.8825C71.4089 74.3216 55.5865 90.1441 36.1473 90.1441ZM36.1473 21.4248C17.7025 21.4248 2.68974 36.4289 2.68974 54.8825C2.68974 73.336 17.7025 88.34 36.1473 88.34C54.5921 88.34 69.6049 73.3272 69.6049 54.8825C69.6049 36.4377 54.5921 21.4248 36.1473 21.4248Z" fill="#0F2832"></path><path d="M36.1466 90.1441C25.2874 90.1441 16.4434 74.3216 16.4434 54.8825C16.4434 35.4432 25.2786 19.6208 36.1466 19.6208C47.0146 19.6208 55.8498 35.4432 55.8498 54.8825C55.8498 74.3216 47.0146 90.1441 36.1466 90.1441ZM36.1466 21.4248C26.2818 21.4248 18.2474 36.4377 18.2474 54.8825C18.2474 73.3272 26.273 88.34 36.1466 88.34C46.0202 88.34 54.0458 73.3272 54.0458 54.8825C54.0458 36.4377 46.0202 21.4248 36.1466 21.4248Z" fill="#0F2832"></path><path d="M70.5014 53.9758H1.78223V55.7798H70.5014V53.9758Z" fill="#0F2832"></path><path d="M37.0433 20.5186H35.2393V89.2378H37.0433V20.5186Z" fill="#0F2832"></path><path d="M44.0332 16.418V38.1452C44.0332 43.9356 48.7236 48.626 54.514 48.626H106.698C112.48 48.626 117.179 43.9356 117.179 38.1452V16.418H44.0332Z" fill="#A38AFF"></path><path d="M116.889 8.13703C115.815 3.49063 111.662 0.0322266 106.69 0.0322266H54.5058C49.5338 0.0322266 45.3802 3.49943 44.3066 8.13703H116.88H116.889Z" fill="#A38AFF"></path></g><defs><clipPath id="clip0_8918_22642"><rect width="116.283" height="90.112" fill="white" transform="translate(0.887695 0.0319824)"></rect></clipPath></defs></svg>