<svg width="248" height="160" viewBox="0 0 248 160" fill="none" xmlns="http://www.w3.org/2000/svg"><mask id="mask0_433_10504" style="mask-type:luminance" maskUnits="userSpaceOnUse" x="0" y="0" width="248" height="160"><path d="M248 0H0V160H248V0Z" fill="white"></path></mask><g mask="url(#mask0_433_10504)"><path d="M248 0H0V160H248V0Z" fill="#9CCDE6"></path><mask id="mask1_433_10504" style="mask-type:luminance" maskUnits="userSpaceOnUse" x="0" y="0" width="248" height="160"><path d="M248 0H0V160H248V0Z" fill="white"></path></mask><g mask="url(#mask1_433_10504)"><path d="M64.6379 -48.1357H-41.8916V8.23819L-14.0481 16.0026C-8.42288 17.5709 -2.47416 17.5487 3.13932 15.9393L15.6275 12.3583C25.1607 9.62485 35.028 8.23819 44.9456 8.23819H84.9046C93.8095 8.23819 102.137 12.6514 107.135 20.0219C113.625 29.5903 124.435 35.321 135.997 35.321H248.548V-48.1357H64.6403H64.6379Z" fill="#BDE7FB"></path><path d="M245.836 145.547H196.576C183.578 145.547 171.114 140.983 161.935 132.862L161.233 132.241C152.238 124.281 140.023 119.808 127.285 119.808C117.71 119.808 108.528 123.17 101.767 129.153L101.739 129.178C95.8716 134.369 87.9047 137.287 79.5959 137.287C73.0193 137.287 66.4825 136.404 60.2082 134.666L0 118V168H361V145.547H245.836Z" fill="white"></path><path d="M144.356 77.9088C144.863 77.2946 145.092 76.4964 144.985 75.7064L144.884 74.9609C144.683 73.4628 143.863 72.116 142.627 71.2475L141.491 70.4492L94.1226 102.501L87.6312 93.7998L86.5059 98.1427C85.7545 101.043 85.751 104.086 86.4977 106.988L91.9107 128.04L90.4514 141.978L51.1113 183.177L95.2069 183.373L120.839 144.26C124.538 138.616 126.576 132.045 126.722 125.299L126.975 113.548C127.009 111.964 127.569 110.435 128.568 109.203L140.213 94.8325C140.943 93.9311 141.42 92.8551 141.6 91.7087C141.755 90.7217 141.962 89.4746 142.173 88.4102C142.459 86.9732 142.023 85.4904 141.02 84.4225L140.601 83.9771C140.215 83.568 140.196 82.9362 140.554 82.5025L144.354 77.9088H144.356Z" fill="#B98C6E"></path><path d="M94.1231 102.499L79.3199 82.6581L68.7224 83.1786L71.8263 72.615L69.3553 69.3025L59.4893 65.1003L86.1794 56.5353L177.543 44.5781L175.962 47.1241L94.1231 102.499Z" fill="#F36E44"></path><path d="M79.3193 82.6581L107.772 81.3476L177.543 44.5781L176.496 46.2637L111.318 85.1841L83.9224 88.8284L79.3193 82.6581Z" fill="#C03627"></path><path d="M71.8264 72.615L176.16 45.306L177.544 44.5781L69.3555 69.3025L71.8264 72.615Z" fill="#C03627"></path><path d="M128.512 72.3956L127.313 71.0488L119.844 74.9849L110.563 96.1284C109.906 97.6264 109.007 99.006 107.902 100.211L103.582 104.927C102.841 105.734 101.505 105.075 101.696 103.996L103.024 96.4777L94.1236 102.499L87.6322 93.7981L86.0779 99.7961C85.6078 101.611 85.6055 103.514 86.0732 105.33L91.0947 124.86C91.6351 126.962 91.7957 129.143 91.5706 131.301L91.0853 135.934C90.6751 139.851 88.9766 143.522 86.2572 146.371L51.1123 183.177L95.2078 183.372L121.985 142.512C124.935 138.01 126.562 132.769 126.678 127.386L126.992 112.866C127.017 111.732 126.612 110.63 125.86 109.782C124.314 108.038 123.501 105.765 123.593 103.436L123.71 100.435C123.752 99.3647 123.972 98.3098 124.362 97.3111L127.463 89.3592C127.858 88.3476 128.133 87.2938 128.283 86.2178L129.675 76.2227C129.869 74.8384 129.443 73.44 128.514 72.3956" fill="#DCAB84"></path><path d="M127.425 73.4598L126.067 71.7051L121.129 74.3085L120.064 78.1156C119.894 78.7252 120.255 79.3558 120.868 79.5152L125.377 80.6956C126.521 80.9945 127.674 80.2443 127.865 79.0768L128.251 76.7102C128.439 75.5591 128.14 74.3823 127.426 73.4598" fill="#F2C5A6"></path><path d="M85.0727 140.406L112.172 151.031C116.825 152.855 118.884 158.299 116.603 162.746L106.019 183.372H48.8975L85.0739 140.406H85.0727Z" fill="#662B16"></path></g></g></svg>