<svg xmlns="http://www.w3.org/2000/svg" width="177" height="145" viewBox="0 0 177 145" fill="none"><path d="M47.3688 -31.5977C21.2076 -31.5977 0 -10.3841 0 15.7862C0 41.9474 21.2076 63.1609 47.3688 63.1609C47.3688 63.1609 47.1396 80.7617 32.8408 106.094C31.2525 111.17 34.0838 116.575 39.1627 118.154C42.7664 119.288 46.5584 118.186 49.0071 115.621C81.8855 79.6598 94.7554 37.3359 94.7554 15.7862C94.7554 -10.3841 73.5482 -31.5977 47.3688 -31.5977Z" fill="#E5EFF4"></path><path d="M155.613 -31.5977C129.452 -31.5977 108.244 -10.3838 108.244 15.7862C108.244 41.9474 129.452 63.1609 155.613 63.1609C155.613 63.1609 155.384 80.7617 141.085 106.094C139.497 111.17 142.329 116.575 147.407 118.154C151.011 119.288 154.803 118.186 157.251 115.621C190.13 79.6598 203 37.3359 203 15.7862C203 -10.3841 181.793 -31.5977 155.613 -31.5977Z" fill="#E5EFF4"></path></svg>