<svg aria-hidden="true" xmlns="http://www.w3.org/2000/svg" width="48" height="48" viewBox="0 0 48 48" fill="none"><path fill-rule="evenodd" clip-rule="evenodd" d="M14.7071 13.2929C14.3166 12.9024 13.6834 12.9024 13.2929 13.2929C12.9024 13.6834 12.9024 14.3166 13.2929 14.7071L22.5858 24L13.2929 33.2929C12.9024 33.6834 12.9024 34.3166 13.2929 34.7071C13.6834 35.0976 14.3166 35.0976 14.7071 34.7071L24 25.4142L33.2929 34.7071C33.6834 35.0976 34.3166 35.0976 34.7071 34.7071C35.0976 34.3166 35.0976 33.6834 34.7071 33.2929L25.4142 24L34.7071 14.7071C35.0976 14.3166 35.0976 13.6834 34.7071 13.2929C34.3166 12.9024 33.6834 12.9024 33.2929 13.2929L24 22.5858L14.7071 13.2929Z" fill="#0F2832"></path></svg>