<svg xmlns="http://www.w3.org/2000/svg" width="289" height="64" viewBox="0 0 289 64" fill="none"><path d="M66.8672 43.825L79.4532 29.4683H67.3148V20.3711H94.5669V27.0722L82.3627 41.238H95.0079V50.3418H66.8672V43.825Z" fill="#14171B"></path><path d="M99.0798 48.5399C97.0787 46.9206 96.0781 44.5245 96.0781 41.3649C96.0781 38.1591 97.1445 35.6972 99.2707 33.966C101.397 32.2414 104.57 31.3725 108.789 31.3725H116.563V30.8064C116.563 29.6281 116.07 28.7592 115.076 28.2128C114.088 27.6664 112.39 27.39 109.987 27.39C106.512 27.39 103.056 27.9297 99.7446 28.9698V21.8277C101.305 21.1957 103.22 20.6889 105.498 20.3071C107.775 19.9253 110.079 19.7344 112.39 19.7344C117.281 19.7344 121.086 20.7349 123.804 22.7361C126.523 24.7372 127.879 27.7849 127.879 31.8727V50.337H117.511L116.945 47.9343C114.667 49.9552 111.251 50.9689 106.702 50.9689C103.622 50.9755 101.081 50.1593 99.0798 48.5399ZM116.563 41.615V37.8827H110.81C109.461 37.8827 108.467 38.1328 107.841 38.6397C107.216 39.1465 106.893 39.9233 106.893 40.9765C106.893 42.9974 108.177 44.0111 110.751 44.0111C113.147 44.0177 115.089 43.2146 116.563 41.615Z" fill="#14171B"></path><path d="M135.628 48.6666C134.048 47.1263 133.258 44.6709 133.258 41.3006V7.72266H145.146V39.9709C145.146 40.853 145.324 41.4652 145.686 41.8075C146.041 42.1432 146.647 42.3144 147.489 42.3144C148.714 42.3144 149.747 42.1432 150.59 41.8075V49.7132C149.543 50.1477 148.451 50.4768 147.331 50.694C146.298 50.8849 145.001 50.9771 143.441 50.9771C139.808 50.9771 137.207 50.2069 135.628 48.6666Z" fill="#14171B"></path><path d="M154.213 48.5399C152.211 46.9206 151.211 44.5245 151.211 41.3649C151.211 38.1591 152.277 35.6972 154.404 33.966C156.53 32.2414 159.703 31.3725 163.922 31.3725H171.703V30.8064C171.703 29.6281 171.209 28.7592 170.215 28.2128C169.221 27.6664 167.529 27.39 165.127 27.39C161.651 27.39 158.195 27.9297 154.884 28.9698V21.8277C156.444 21.1957 158.36 20.6889 160.637 20.3071C162.915 19.9253 165.219 19.7344 167.529 19.7344C172.42 19.7344 176.225 20.7349 178.944 22.7361C181.662 24.7372 183.025 27.7849 183.018 31.8727V50.337H172.651L172.084 47.9343C169.807 49.9552 166.397 50.9689 161.842 50.9689C158.755 50.9755 156.214 50.1593 154.213 48.5399ZM171.696 41.615V37.8827H165.943C164.593 37.8827 163.599 38.1328 162.974 38.6397C162.342 39.1465 162.026 39.9233 162.026 40.9765C162.026 42.9974 163.31 44.0111 165.884 44.0111C168.28 44.0177 170.222 43.2146 171.696 41.615Z" fill="#14171B"></path><path d="M215.2 46.9245C212.837 49.6234 209.486 50.9728 205.148 50.9728C201.225 50.9728 197.901 50.0249 195.156 48.1292V63.9999H189.969V20.3702H194.399L194.781 23.5299C196.17 22.2265 197.703 21.2655 199.362 20.6533C201.028 20.0411 202.976 19.7383 205.214 19.7383C209.598 19.7383 212.949 20.9495 215.266 23.3719C217.583 25.7943 218.741 29.6451 218.741 34.9112C218.741 40.2234 217.557 44.2257 215.2 46.9245ZM211.185 43.9229C212.764 42.0073 213.554 38.999 213.554 34.9112C213.554 30.988 212.817 28.1772 211.343 26.4723C209.868 24.7674 207.38 23.9117 203.878 23.9117C200.297 23.9117 197.387 25.1163 195.149 27.5189V43.8307C197.381 45.8121 200.251 46.806 203.746 46.7995C207.123 46.7995 209.605 45.8384 211.185 43.9229Z" fill="#14171B"></path><path d="M247.26 46.927C245.944 48.3225 244.305 49.3757 242.488 49.9945C240.612 50.6462 238.328 50.9753 235.629 50.9753C232.594 50.9753 230.073 50.1986 228.072 48.6385C226.071 47.0784 225.07 44.8469 225.07 41.9374C225.07 39.0278 226.018 36.7437 227.914 35.0783C229.81 33.4129 232.719 32.5769 236.643 32.5769H247.076V30.7469C247.076 29.0617 246.846 27.7452 246.378 26.7973C245.911 25.8494 245.068 25.1648 243.851 24.7435C242.626 24.3223 240.855 24.1116 238.538 24.1116C235.142 24.0919 231.765 24.6514 228.546 25.7573V21.4588C231.541 20.32 235.102 19.7539 239.23 19.7539C243.528 19.7539 246.734 20.6294 248.84 22.3804C250.947 24.1314 252 26.9224 252 30.7601V50.3631H247.636L247.26 46.927ZM236.761 36.5594C234.444 36.5594 232.765 36.9938 231.732 37.8561C230.698 38.7185 230.185 40.0811 230.185 41.9374C230.185 43.6686 230.751 44.8995 231.89 45.6368C233.029 46.374 234.714 46.7427 236.945 46.7427C241.204 46.7427 244.575 45.2879 247.063 42.3784V36.5594H236.761Z" fill="#14171B"></path><path d="M261.797 20.3672L272.231 44.5188L282.98 20.3672H288.292L275.706 49.0082C274.482 51.8321 273.343 54.1097 272.29 55.8344C271.237 57.5656 269.98 58.9348 268.525 59.9419C267.07 60.9557 265.332 61.4625 263.305 61.4625C261.323 61.4625 259.599 61.1861 258.118 60.6397V56.4663C259.355 56.9008 260.659 57.1114 261.975 57.0982C263.364 57.0982 264.477 56.8547 265.293 56.3742C266.116 55.887 266.82 55.1959 267.412 54.2875C268.005 53.3791 268.742 51.9572 269.624 50.0219L256.406 20.3672H261.797Z" fill="#14171B"></path><path d="M41.2085 0C44.5525 0 47.8899 0.309383 51.1746 0.934732C55.7956 1.80364 59.4029 5.41092 60.2718 10.0319C60.8906 13.3167 61.2066 16.654 61.2066 19.998C61.2066 23.342 60.8972 26.6728 60.2784 29.9575C59.4161 34.5785 55.8022 38.1924 51.1812 39.0547C47.8965 39.6735 44.5591 39.9894 41.2151 39.9894C37.8711 39.9894 34.5338 39.6735 31.249 39.0547C26.628 38.1858 23.0207 34.5719 22.1518 29.9575C20.9077 23.3749 20.9077 16.6211 22.1518 10.0385C23.0142 5.4175 26.628 1.80364 31.249 0.934732C34.5272 0.315965 37.8646 0 41.2085 0Z" fill="#37517E"></path><path d="M19.982 19.9922C23.326 19.9922 26.6633 20.3016 29.9481 20.9269C34.5691 21.7958 38.1764 25.4031 39.0453 30.0241C39.664 33.3088 39.98 36.6462 39.98 39.9902C39.98 43.3342 39.6706 46.665 39.0518 49.9497C38.1895 54.5707 34.5757 58.1846 29.9547 59.0469C26.6699 59.6657 23.3325 59.9816 19.9886 59.9816C16.6446 59.9816 13.3072 59.6657 10.0225 59.0469C5.40146 58.178 1.79418 54.5641 0.925275 49.9497C-0.318842 43.3671 -0.318842 36.6133 0.925275 30.0307C1.7876 25.4097 5.40146 21.7958 10.0225 20.9269C13.3072 20.3082 16.638 19.9988 19.982 19.9922Z" fill="#42B4E7"></path></svg>