<svg xmlns="http://www.w3.org/2000/svg" width="104" height="23" viewBox="0 0 104 23" fill="none"><g clip-path="url(#clip0_7772_192956)"><path d="M0 0.171526H0.0591612L6.21674 0.166016L11.0762 7.83692L15.9873 0.171526H22.1745L13.843 12.6679L13.8307 21.8139H8.31146L8.31215 12.6706L0 0.171526Z" fill="black"></path><path d="M25.0664 0.166016H30.8147L30.7961 13.7491C30.7961 13.7491 30.8154 17.4933 35.3378 17.4933C39.8602 17.4933 39.757 13.7325 39.757 13.7325L39.7219 0.166016H45.5623V13.7325C45.5623 13.7325 45.6339 22.9708 35.3144 22.9708C24.9949 22.9708 25.0664 13.694 25.0664 13.694V0.166016Z" fill="black"></path><path d="M50.6445 0.171875H56.1348L63.0595 10.0134L69.9744 0.171875H75.4558L75.4565 21.9154L69.9834 21.9126L70.026 9.12231L63.6256 18.3592L62.4809 18.3571L56.172 9.1471L56.1706 21.9112L50.6445 21.9126V0.171875Z" fill="#FBE147"></path><path d="M85.1121 21.9126L86.4122 18.51L95.9668 18.4914L97.2346 21.9126H103.332L94.3055 0.171875H88.293L79.0625 21.9133L85.1121 21.9126ZM91.1857 5.59089L94.1844 13.6818H88.196L91.1857 5.59089Z" fill="#FBE147"></path></g><defs><clipPath id="clip0_7772_192956"><rect width="104" height="23" fill="white"></rect></clipPath></defs></svg>