<svg xmlns="http://www.w3.org/2000/svg" width="32" height="32" viewBox="0 0 32 32" fill="none"><path fill-rule="evenodd" clip-rule="evenodd" d="M16 32C24.8366 32 32 24.8366 32 16C32 7.16344 24.8366 0 16 0C7.16344 0 0 7.16344 0 16C0 24.8366 7.16344 32 16 32Z" fill="#0F2832"></path><path d="M23.7839 11.2168C22.8852 11.0246 22.0714 10.5504 21.4611 9.8632C20.8509 9.17606 20.4761 8.31195 20.3913 7.39685V7H17.2912V19.3032C17.2893 19.8479 17.1168 20.3783 16.7979 20.8198C16.479 21.2614 16.0297 21.5919 15.5133 21.765C14.9968 21.9381 14.4391 21.945 13.9186 21.7848C13.398 21.6245 12.9407 21.3052 12.6109 20.8717C12.2761 20.4309 12.0903 19.8949 12.0806 19.3415C12.0709 18.788 12.2377 18.2458 12.5569 17.7936C12.8761 17.3413 13.3311 17.0025 13.8558 16.8262C14.3805 16.6499 14.9478 16.6454 15.4753 16.8132V13.6636C14.299 13.501 13.1013 13.7101 12.0497 14.2618C10.9982 14.8134 10.1453 15.6799 9.61044 16.74C9.07559 17.8002 8.88549 19.0011 9.06674 20.1746C9.24799 21.3482 9.79152 22.4357 10.6213 23.2852C11.4126 24.0948 12.4273 24.6503 13.5357 24.8808C14.6442 25.1112 15.7961 25.0061 16.8446 24.5789C17.893 24.1516 18.7904 23.4217 19.4221 22.4822C20.0538 21.5427 20.3913 20.4362 20.3913 19.3041V13.0175C21.6442 13.9132 23.1464 14.3935 24.6865 14.3907V11.3104C24.3832 11.3108 24.0807 11.2794 23.7839 11.2168Z" fill="white"></path></svg>