<svg xmlns="http://www.w3.org/2000/svg" xmlns:xlink="http://www.w3.org/1999/xlink" version="1.1" id="Layer_1" x="0px" y="0px" viewBox="0 0 60 60" xml:space="preserve"><style type="text/css">
	.st0{fill:#F7F7F7;}
	.st1{fill:#595959;}
	.st2{fill:#9AD8F5;}</style><circle cx="30" cy="30" r="30"></circle><g><g><path d="M33.29,30.55c0-0.98,0.63-1.61,1.58-1.6c0.92,0.01,1.54,0.66,1.54,1.62c0,0.95-0.64,1.6-1.57,1.6    C33.92,32.16,33.29,31.5,33.29,30.55z"></path><path d="M22.26,29.05c0.85,0,1.47,0.61,1.48,1.46c0,0.89-0.62,1.55-1.47,1.56c-0.86,0-1.52-0.63-1.55-1.43    C20.68,29.68,21.38,29.01,22.26,29.05z"></path></g><path d="M29.85,37.39c0-2.04,0-4.08,0-6.12c0-0.38-0.01-0.75-0.03-1.13c-0.06-1.09-1.18-1.33-1.85-0.92   c-0.46,0.28-0.65,0.71-0.65,1.23c-0.01,0.84-0.01,1.68,0,2.52c0,0.18-0.05,0.24-0.23,0.23c-0.23-0.01-0.47,0-0.71,0   c-0.39,0-0.39,0-0.39-0.38c0-2.97,0-5.93,0-8.9c0-0.01,0-0.02,0-0.04v-0.26h-0.61l0,0c-2.57,0.01-5.15,0-7.72,0   c-2.65,0-5.31,0-7.96-0.01v0H9.33v0.22v0.3v12.05h0.38c5.32,0,10.65,0,15.97,0c0.73,0,1.45,0.08,2.15,0.28   c0.68,0.2,1.28,0.54,1.82,0.99c0.05,0.04,0.09,0.14,0.16,0.12C29.9,37.57,29.85,37.46,29.85,37.39z M15.91,33.08   c-0.72,0.22-1.44,0.31-2.13-0.11c-0.52-0.32-0.71-0.84-0.73-1.42c-0.02-0.75-0.01-1.51,0-2.26c0-0.2-0.06-0.26-0.25-0.25   c-0.2,0.01-0.39,0-0.59,0c-0.11,0-0.16-0.04-0.15-0.15c0-0.27,0-0.55,0-0.82c0-0.11,0.04-0.16,0.15-0.15c0.2,0,0.41-0.01,0.61,0   c0.2,0.02,0.24-0.07,0.23-0.25c-0.01-0.32,0-0.64-0.01-0.96c0-0.15,0.05-0.2,0.2-0.21c0.26-0.01,0.53-0.05,0.79-0.08   c0.28-0.04,0.33,0,0.33,0.29c0,0.31,0.01,0.63-0.01,0.94c-0.01,0.2,0.04,0.28,0.26,0.27c0.33-0.02,0.66,0,0.99-0.01   c0.18-0.01,0.23,0.06,0.22,0.23c-0.01,0.23-0.01,0.46,0,0.68c0.01,0.16-0.06,0.23-0.22,0.22c-0.33-0.01-0.66,0.01-0.99-0.01   c-0.22-0.01-0.31,0.05-0.3,0.29c0.02,0.31,0,0.63,0,1.03c0.02,0.34-0.03,0.76,0.04,1.18c0.06,0.33,0.25,0.52,0.58,0.53   c0.2,0.01,0.39,0.01,0.58-0.08c0.11-0.05,0.16-0.02,0.2,0.1c0.08,0.27,0.17,0.54,0.25,0.81C16,32.97,16.02,33.05,15.91,33.08z    M17.86,33.2c-0.29-0.02-0.58-0.01-0.87,0c-0.13,0-0.18-0.05-0.18-0.18c0-1.66,0-3.31,0-4.97c0-0.15,0.07-0.18,0.2-0.18   c0.29,0.01,0.58,0.01,0.87,0c0.17-0.01,0.21,0.05,0.21,0.22c-0.01,0.82,0,1.63,0,2.45c0,0.81,0,1.62,0,2.42   C18.1,33.14,18.05,33.21,17.86,33.2z M17.44,27.17c-0.44-0.01-0.76-0.33-0.76-0.76c0-0.47,0.3-0.78,0.81-0.76   c0.45,0.02,0.74,0.31,0.74,0.76C18.22,26.85,17.88,27.18,17.44,27.17z M24.23,32.62c-0.6,0.59-1.35,0.77-2.18,0.68   c-0.43-0.05-0.82-0.17-1.17-0.43c-0.09-0.06-0.16-0.14-0.26-0.23c-0.06,0.09-0.03,0.18-0.04,0.26c0,0.75-0.01,1.51,0,2.26   c0,0.17-0.03,0.26-0.23,0.24c-0.28-0.02-0.56-0.01-0.85,0c-0.15,0-0.21-0.04-0.21-0.2c0-2.37,0-4.74,0-7.1   c0-0.16,0.07-0.23,0.22-0.23c0.26,0,0.52,0,0.78,0c0.16,0,0.24,0.07,0.23,0.23c0,0.15,0.02,0.29,0.07,0.45   c0.17-0.08,0.26-0.25,0.4-0.35c0.73-0.5,1.51-0.54,2.33-0.25c0.93,0.33,1.46,1.05,1.65,1.98C25.18,30.94,24.99,31.88,24.23,32.62z"></path><path d="M50.67,32.09c0-1.34,0-2.67,0-4.01l0.01,0v-4.46h-4.61c-5.19,0-10.38,0-15.57,0.01   c-0.76,0-1.45-0.19-2.12-0.52c-0.37-0.18-0.7-0.43-1.04-0.72c0,2.08,0,4.11,0,6.21c0.11-0.12,0.19-0.2,0.27-0.28   c0.84-0.77,2.35-0.66,3.05,0.24c0.4,0.52,0.49,1.14,0.49,1.78c0,1.88,0,3.75,0,5.63c0,0.18,0.05,0.24,0.24,0.24   c5.65,0,11.3,0,16.95,0l0,0h2.34L50.67,32.09L50.67,32.09z M37.5,33.2c-0.27-0.01-0.55-0.01-0.82,0c-0.16,0.01-0.2-0.05-0.21-0.19   c-0.01-0.17-0.02-0.34-0.04-0.54c-0.67,0.86-1.53,1.03-2.49,0.81c-1.01-0.22-1.64-0.87-1.87-1.87c-0.22-0.99-0.15-1.96,0.54-2.78   c0.76-0.9,2.35-1.14,3.31-0.52c0.18,0.12,0.32,0.27,0.47,0.45c0.08-0.18,0.05-0.34,0.06-0.5c0.01-0.13,0.04-0.18,0.18-0.18   c0.3,0.01,0.6,0.01,0.89,0c0.18-0.01,0.2,0.07,0.2,0.22c-0.01,1,0,2.01,0,3.01c0,0.62-0.01,1.24,0,1.86   C37.73,33.17,37.68,33.21,37.5,33.2z M43.86,33.04c0,0.12-0.03,0.17-0.16,0.17c-0.28-0.01-0.56-0.01-0.85,0   c-0.13,0-0.18-0.03-0.19-0.17c-0.01-0.16-0.03-0.33-0.06-0.54c-0.12,0.1-0.21,0.17-0.3,0.25c-1.06,0.93-3.19,0.76-3.61-1.27   c-0.06-0.26-0.09-0.52-0.09-0.79c0-0.85,0.01-1.69,0-2.54c0-0.21,0.06-0.27,0.26-0.26c0.27,0.02,0.53,0.02,0.8,0   c0.19-0.01,0.25,0.04,0.25,0.25c-0.01,0.8-0.01,1.6,0,2.4c0,0.1,0,0.2,0.01,0.31c0.06,0.75,0.51,1.21,1.21,1.25   c0.68,0.03,1.26-0.44,1.39-1.12c0.03-0.18,0.04-0.36,0.04-0.54c0-0.78,0-1.55,0-2.33c0-0.17,0.05-0.21,0.21-0.21   c0.3,0.01,0.6,0.01,0.89,0c0.14,0,0.19,0.03,0.19,0.18C43.85,29.73,43.85,31.39,43.86,33.04z M47.11,33.38   c-0.83,0-1.58-0.21-2.2-0.78c-0.12-0.11-0.17-0.2-0.05-0.35c0.15-0.19,0.29-0.39,0.42-0.6c0.07-0.11,0.12-0.13,0.23-0.04   c0.47,0.38,1.03,0.56,1.62,0.63c0.27,0.03,0.53-0.03,0.77-0.18c0.19-0.12,0.29-0.28,0.28-0.51c-0.02-0.23-0.17-0.34-0.37-0.41   c-0.27-0.1-0.56-0.09-0.84-0.12c-0.45-0.05-0.9-0.14-1.3-0.38c-1-0.59-1-1.93-0.01-2.53c0.93-0.56,2.48-0.49,3.35,0.14   c0.17,0.12,0.21,0.21,0.04,0.37c-0.17,0.17-0.32,0.36-0.47,0.55c-0.06,0.08-0.1,0.09-0.19,0.02c-0.47-0.37-1.01-0.44-1.58-0.36   c-0.13,0.02-0.25,0.06-0.36,0.11c-0.16,0.08-0.25,0.21-0.25,0.39c0,0.18,0.08,0.31,0.24,0.4c0.24,0.13,0.5,0.16,0.77,0.18   c0.37,0.02,0.73,0.07,1.09,0.18c0.7,0.21,1.1,0.67,1.15,1.3c0.06,0.77-0.27,1.36-0.93,1.67C48.08,33.32,47.6,33.39,47.11,33.38z"></path></g></svg>