<svg xmlns="http://www.w3.org/2000/svg" width="96" height="96" viewBox="0 0 96 96" fill="none" data-inject-url="https://www.globalpayments.com/-/media/feature/gpn/enterprise-components/iconography/hospitality-or-lodging.svg?rev=ca3241215d5541b7935ffb803bc8f1e2"><g clip-path="url(#clip0_1_3942--inject-12)"><mask id="path-2-inside-1_1_3942--inject-12" fill="white"><path d="M0 48C0 21.4903 21.4903 0 48 0C74.5097 0 96 21.4903 96 48C96 74.5097 74.5097 96 48 96C21.4903 96 0 74.5097 0 48Z"></path></mask><rect width="100%" height="100%" x="0" y="0" rx="100%" ry="100%" fill="#2668FF"></rect><path d="M48 60C54.6274 60 60 54.6274 60 48C60 41.3726 54.6274 36 48 36C41.3726 36 36 41.3726 36 48C36 54.6274 41.3726 60 48 60Z" fill="#14E8FF"></path><path d="M77.3086 55.7183H18.7006C15.3233 55.7183 12.5854 58.4561 12.5854 61.8335V61.8431C12.5854 65.2204 15.3233 67.9583 18.7006 67.9583H77.3086C80.686 67.9583 83.4239 65.2204 83.4239 61.8431V61.8335C83.4239 58.4561 80.686 55.7183 77.3086 55.7183Z" stroke="white" stroke-width="3" stroke-miterlimit="10"></path><path d="M16.3213 56.4007C16.3213 47.9986 19.659 39.9407 25.6001 33.9996C31.5413 28.0584 39.5992 24.7207 48.0013 24.7207C56.4033 24.7207 64.4613 28.0584 70.4024 33.9996C76.3436 39.9407 79.6813 47.9986 79.6813 56.4007" stroke="white" stroke-width="3" stroke-miterlimit="10"></path><path d="M28.2539 40.5981C30.1784 38.1229 32.5487 36.0293 35.2427 34.4253" stroke="white" stroke-width="3" stroke-miterlimit="10"></path><path d="M25.3247 45.4172C26.118 43.7127 27.1002 42.1026 28.2527 40.6172" stroke="white" stroke-width="3" stroke-miterlimit="10" stroke-linecap="round"></path><path d="M48 24.7014V20.6982" stroke="white" stroke-width="3" stroke-miterlimit="10" stroke-linecap="round"></path></g><defs><clipPath id="clip0_1_3942--inject-12"><rect width="96" height="96" fill="white"></rect></clipPath></defs></svg>