<svg xmlns="http://www.w3.org/2000/svg" width="96" height="96" viewBox="0 0 96 96" fill="none" data-inject-url="https://www.globalpayments.com/-/media/feature/gpn/enterprise-components/iconography/food-and-beverage.svg?rev=07454276f59b460ab30f76e1d80b693f"><g clip-path="url(#clip0_1_4078--inject-10)"><mask id="path-2-inside-1_1_4078--inject-10" fill="white"><path d="M0 48C0 21.4903 21.4903 0 48 0C74.5097 0 96 21.4903 96 48C96 74.5097 74.5097 96 48 96C21.4903 96 0 74.5097 0 48Z"></path></mask><rect width="100%" height="100%" x="0" y="0" rx="100%" ry="100%" fill="#2668FF"></rect><path d="M60 69C66.6274 69 72 63.6274 72 57C72 50.3726 66.6274 45 60 45C53.3726 45 48 50.3726 48 57C48 63.6274 53.3726 69 60 69Z" fill="#14E8FF"></path><path d="M19.3833 57.3411C19.3833 52.1667 25.2681 47.9619 32.5353 47.9619C39.8025 47.9619 45.6873 52.1667 45.6873 57.3411" stroke="white" stroke-width="3" stroke-linejoin="round"></path><path d="M63.9561 57.8599C63.9561 65.6167 52.7721 71.9143 38.9961 71.9143C25.2201 71.9143 14.0361 65.6167 14.0361 57.8599H63.9561Z" stroke="white" stroke-width="3" stroke-linejoin="round"></path><path d="M57.1216 43.1994L55.7776 30.5178C55.7413 30.1806 55.7762 29.8396 55.8802 29.5168C55.9842 29.194 56.1549 28.8967 56.3812 28.6441C56.6075 28.3916 56.8843 28.1894 57.1938 28.0508C57.5033 27.9121 57.8385 27.8401 58.1776 27.8394H77.944C78.2831 27.8401 78.6183 27.9121 78.9278 28.0508C79.2373 28.1894 79.5141 28.3916 79.7404 28.6441C79.9667 28.8967 80.1374 29.194 80.2414 29.5168C80.3454 29.8396 80.3803 30.1806 80.344 30.5178L76.168 69.753C76.104 70.347 75.8224 70.8963 75.3775 71.2951C74.9326 71.694 74.3559 71.914 73.7584 71.913H62.4016C61.8058 71.9117 61.2314 71.6905 60.7885 71.2919C60.3456 70.8934 60.0654 70.3454 60.0016 69.753L59.5216 65.8362" stroke="white" stroke-width="3" stroke-linejoin="round"></path><path d="M56.5342 37.689H79.5742" stroke="white" stroke-width="3" stroke-linejoin="round"></path><path d="M36.7676 45.0435C37.035 44.4717 37.4595 43.9876 37.9914 43.6476C38.5234 43.3077 39.1411 43.1259 39.7724 43.1235C41.4716 43.1235 43.4108 44.4867 42.9788 46.3683C43.4915 45.9702 44.0968 45.7085 44.7382 45.6078C45.3795 45.507 46.0359 45.5705 46.646 45.7923C47.7308 46.1859 49.0364 47.6067 48.4604 50.0835C48.62 49.5492 48.8848 49.0522 49.2392 48.6217C49.5936 48.1911 50.0305 47.8358 50.5241 47.5764C51.0178 47.3171 51.5583 47.159 52.1139 47.1114C52.6695 47.0639 53.229 47.1278 53.7596 47.2995C54.8039 47.7864 55.6223 48.6543 56.0471 49.7253C56.472 50.7963 56.471 51.9892 56.0444 53.0595C56.7076 52.7785 57.4377 52.6942 58.1476 52.8168C58.8574 52.9393 59.517 53.2636 60.0476 53.7507C60.5795 54.2742 60.9629 54.9296 61.1586 55.6498C61.3543 56.37 61.3551 57.1293 61.1612 57.8499" stroke="white" stroke-width="3" stroke-linejoin="round"></path></g><defs><clipPath id="clip0_1_4078--inject-10"><rect width="96" height="96" fill="white"></rect></clipPath></defs></svg>