<svg xmlns="http://www.w3.org/2000/svg" width="96" height="96" viewBox="0 0 96 96" fill="none" data-inject-url="https://www.globalpayments.com/-/media/feature/gpn/enterprise-components/iconography/connect.svg?rev=32912c318d474567b32f051fb1ffaa72"><g clip-path="url(#clip0_1_5102--inject-5)"><mask id="path-2-inside-1_1_5102--inject-5" fill="white"><path d="M0 48C0 21.4903 21.4903 0 48 0C74.5097 0 96 21.4903 96 48C96 74.5097 74.5097 96 48 96C21.4903 96 0 74.5097 0 48Z"></path></mask><rect width="100%" height="100%" x="0" y="0" rx="100%" ry="100%" fill="#2668FF"></rect><path d="M72 75C78.6274 75 84 69.6274 84 63C84 56.3726 78.6274 51 72 51C65.3726 51 60 56.3726 60 63C60 69.6274 65.3726 75 72 75Z" fill="#14E8FF"></path><path d="M59.2135 74.3747C55.6205 75.9721 51.7311 76.7946 47.799 76.7885C41.7908 76.7971 35.9386 74.8757 31.1045 71.3074" stroke="white" stroke-width="3" stroke-miterlimit="10"></path><path d="M65.2764 26.5748C68.6111 29.2088 71.3051 32.5646 73.1557 36.3898C75.0062 40.2151 75.9651 44.4102 75.9603 48.6595C75.9603 49.1966 75.9603 49.7271 75.9214 50.2577" stroke="white" stroke-width="3" stroke-miterlimit="10"></path><path d="M19.9951 44.2014C20.7839 39.2868 22.8595 34.6685 26.011 30.8157C29.1626 26.963 33.2778 24.0131 37.9385 22.2656" stroke="white" stroke-width="3" stroke-miterlimit="10"></path><path d="M41.9951 12.7991C41.9951 11.3723 42.5615 10.0038 43.5698 8.99425C44.5781 7.98473 45.9459 7.41675 47.3727 7.41504V7.41504C48.8006 7.41504 50.17 7.98229 51.1797 8.99199C52.1894 10.0017 52.7566 11.3711 52.7566 12.7991V18.6814" stroke="white" stroke-width="3" stroke-miterlimit="10"></path><path d="M72.5943 73.7533C79.2878 73.7533 84.714 68.3272 84.714 61.6336C84.714 54.9401 79.2878 49.5139 72.5943 49.5139C65.9008 49.5139 60.4746 54.9401 60.4746 61.6336C60.4746 68.3272 65.9008 73.7533 72.5943 73.7533Z" stroke="white" stroke-width="3" stroke-miterlimit="10"></path><path d="M23.5665 74.0314C30.26 74.0314 35.6862 68.6052 35.6862 61.9117C35.6862 55.2182 30.26 49.792 23.5665 49.792C16.873 49.792 11.4468 55.2182 11.4468 61.9117C11.4468 68.6052 16.873 74.0314 23.5665 74.0314Z" stroke="white" stroke-width="3" stroke-miterlimit="10"></path><path d="M25.8311 61.4395H28.4131" stroke="white" stroke-width="3" stroke-linecap="round" stroke-linejoin="round"></path><path d="M23.209 53.6873V61.4397H25.8298" stroke="white" stroke-width="3" stroke-miterlimit="10"></path><path d="M73.7461 63.135L78.0235 57.8804" stroke="white" stroke-width="3" stroke-linecap="round" stroke-linejoin="round"></path><path d="M67.5093 63.2382L70.182 65.6325C70.2962 65.7348 70.4299 65.8129 70.575 65.8622C70.7202 65.9115 70.8738 65.931 71.0267 65.9195C71.1796 65.908 71.3285 65.8658 71.4647 65.7954C71.6008 65.7249 71.7215 65.6277 71.8192 65.5096L73.7605 63.1411" stroke="white" stroke-width="3" stroke-miterlimit="10"></path><path d="M35.6719 28.3347C35.6804 31.3354 36.8761 34.2106 38.9979 36.3324C41.1197 38.4542 43.995 39.65 46.9957 39.6585H48.2315C51.2322 39.65 54.1075 38.4542 56.2293 36.3324C58.3511 34.2106 59.5468 31.3354 59.5553 28.3347V28.3347C59.5522 26.6548 59.1755 24.9966 58.4525 23.4801C57.7295 21.9637 56.6785 20.627 55.3753 19.5668C54.9173 19.1964 54.3466 18.9933 53.7576 18.991H41.4632C40.8741 18.9933 40.3035 19.1964 39.8455 19.5668C38.5435 20.6276 37.4935 21.9646 36.7717 23.481C36.0499 24.9974 35.6743 26.6553 35.6719 28.3347Z" stroke="white" stroke-width="3" stroke-miterlimit="10"></path><path d="M47.5923 26.5751C48.1856 26.5751 48.6665 26.0941 48.6665 25.5009C48.6665 24.9076 48.1856 24.4266 47.5923 24.4266C46.999 24.4266 46.5181 24.9076 46.5181 25.5009C46.5181 26.0941 46.999 26.5751 47.5923 26.5751Z" fill="white" stroke="white" stroke-width="3" stroke-miterlimit="10"></path><path d="M47.9995 33.5996L47.9995 27.8396" stroke="white" stroke-width="3" stroke-miterlimit="10"></path></g><defs><clipPath id="clip0_1_5102--inject-5"><rect width="96" height="96" fill="white"></rect></clipPath></defs></svg>