<svg xmlns="http://www.w3.org/2000/svg" width="96" height="96" viewBox="0 0 96 96" fill="none" data-inject-url="https://www.globalpayments.com/-/media/feature/gpn/enterprise-components/iconography/beer.svg?rev=b27507f336984c5daf6bafa2a685e0f9"><mask id="path-2-inside-1_15_5827--inject-3" fill="white"><path d="M0 48C0 21.4903 21.4903 0 48 0V0C74.5097 0 96 21.4903 96 48V48C96 74.5097 74.5097 96 48 96V96C21.4903 96 0 74.5097 0 48V48Z"></path></mask><rect width="100%" height="100%" x="0" y="0" rx="100%" ry="100%" fill="#2668FF"></rect><path d="M68 67C74.6274 67 80 61.6274 80 55C80 48.3726 74.6274 43 68 43C61.3726 43 56 48.3726 56 55C56 61.6274 61.3726 67 68 67Z" fill="#14E8FF"></path><path d="M25 33.7101C25 33.7101 25 33.7101 25 33.7101C25 33.7101 25 25.6429 33.4863 25.2082C34.4342 25.1597 35.3466 24.7581 36.0143 24.0836C40.6544 19.3967 45.1452 21.0723 47.4333 22.5108C48.4493 23.1495 49.7301 23.3843 50.9263 23.2881C52.0249 23.1997 53.3822 23.3615 54.4044 24.3673C55.3248 25.273 56.369 26.1288 57.6603 26.1285C59.7019 26.128 62 26.637 62 30.2101C62 32.4563 60.6882 33.3907 59.2432 33.7386C57.3676 34.1902 55.5 35.552 55.5 37.4813V42.7101C55.5 43.8147 54.6046 44.7101 53.5 44.7101V44.7101C52.3954 44.7101 51.5 43.8147 51.5 42.7101V37.8969C51.5 37.7725 51.4929 37.649 51.4662 37.5275C51.3072 36.8045 50.4809 34.1802 46.8642 34.1669C46.2991 34.1648 45.7698 34.4087 45.2874 34.7029C43.1965 35.978 40.9685 35.9125 39.2189 35.501C37.4339 35.0813 35.2644 35.745 33.865 36.9299C33.3296 37.3832 32.6855 37.81 31.9242 38.1319C30.3982 38.7773 29 40.0531 29 41.7099C29 43.8454 29 46.1325 29 47.712C29 48.8166 28.1046 49.7101 27 49.7101V49.7101C25.8954 49.7101 25 48.8147 25 47.7101V33.7101Z" stroke="white" stroke-width="3" stroke-linejoin="round"></path><path d="M60 37.2101V71.7101C60 73.367 58.6569 74.7101 57 74.7101H32C30.3431 74.7101 29 73.367 29 71.7101V53.2101" stroke="white" stroke-width="3" stroke-linejoin="round"></path><path d="M60 64L66 64L66 47L60 47" stroke="white" stroke-width="3" stroke-linejoin="round"></path><path d="M60 42L68 42C69.6569 42 71 43.3431 71 45L71 66C71 67.6569 69.6569 69 68 69H60" stroke="white" stroke-width="3" stroke-linejoin="round"></path><path d="M36 64.7101L36 42.7101" stroke="white" stroke-width="3" stroke-miterlimit="10" stroke-linecap="round"></path><path d="M45 64.7101L45 40.7101" stroke="white" stroke-width="3" stroke-miterlimit="10" stroke-linecap="round"></path><path d="M53 64.7101V50.7101" stroke="white" stroke-width="3" stroke-miterlimit="10" stroke-linecap="round"></path><path d="M56 69.7101H33" stroke="white" stroke-width="3" stroke-miterlimit="10" stroke-linecap="round"></path></svg>