<svg xmlns="http://www.w3.org/2000/svg" width="96" height="96" viewBox="0 0 96 96" fill="none" data-inject-url="https://www.globalpayments.com/-/media/feature/gpn/enterprise-components/iconography/wine-glass.svg?rev=442545a9cc6949f8b9ce426ce2a6aa3e"><mask id="path-2-inside-1_15_5831--inject-8" fill="white"><path d="M0 48C0 21.4903 21.4903 0 48 0V0C74.5097 0 96 21.4903 96 48V48C96 74.5097 74.5097 96 48 96V96C21.4903 96 0 74.5097 0 48V48Z"></path></mask><rect width="100%" height="100%" x="0" y="0" rx="100%" ry="100%" fill="#2668FF"></rect><path d="M54 57C60.6274 57 66 51.6274 66 45C66 38.3726 60.6274 33 54 33C47.3726 33 42 38.3726 42 45C42 51.6274 47.3726 57 54 57Z" fill="#14E8FF"></path><path d="M63 41C63 49.2843 56.2843 56 48 56C39.7157 56 33 49.2843 33 41C33 32.7157 38 19 38 19H58C58 19 63 34.5619 63 41Z" stroke="white" stroke-width="3" stroke-linejoin="round"></path><path d="M62.5 36.5C54.9627 36.5 48.6049 42.0041 37.5 41.5078" stroke="white" stroke-width="3" stroke-miterlimit="10" stroke-linecap="round"></path><path d="M48 56L48 78" stroke="white" stroke-width="3" stroke-miterlimit="10" stroke-linecap="round"></path><path d="M57 78H39" stroke="white" stroke-width="3" stroke-miterlimit="10" stroke-linecap="round"></path></svg>