<svg viewBox="0 0 48 48" fill="currentColor" id="dls-multi-channel__outline"><path d="M38 6a3 3 0 0 1 3 3v6h3.154c1.17 0 1.688.107 2.126.308l.185.092a2.72 2.72 0 0 1 1.134 1.134l.092.185c.202.439.308.956.308 2.126v19.308c0 1.17-.107 1.688-.308 2.126l-.092.185a2.72 2.72 0 0 1-1.134 1.134l-.185.092c-.439.202-.956.308-2.126.308h-9.308c-1.17 0-1.688-.107-2.126-.308l-.185-.092a2.72 2.72 0 0 1-1.134-1.134l-.092-.185c-.187-.407-.293-.883-.307-1.885L31 36l-5.06.002c.36 1.203.867 2.247 1.323 3.078l.62 1.081c.474.811-.101 1.756-.983 1.834l-.117.005H14.217c-.947 0-1.594-.993-1.1-1.839l.355-.609c.513-.893 1.159-2.107 1.591-3.551L3 36a3 3 0 0 1-3-3V9a3 3 0 0 1 3-3h35zm7 11.7H34v21.6h11V17.7zM22.839 36.002h-4.678a16.28 16.28 0 0 1-.874 2.643l-.155.355h6.737a16.49 16.49 0 0 1-1.029-2.998zM39.5 34a1.5 1.5 0 1 1 0 3 1.5 1.5 0 1 1 0-3zM38 9H3v24l28-.001V18.846c0-1.17.107-1.688.308-2.126l.092-.185a2.72 2.72 0 0 1 1.134-1.134l.185-.092c.407-.187.883-.293 1.885-.307L38 15V9z"></path></svg>