<svg viewBox="0 0 48 48" fill="currentColor" id="dls-feedback__outline"><path d="M42 3a3.01 3.01 0 0 1 2.995 2.824L45 6v27a3.01 3.01 0 0 1-2.824 2.995L42 36h-3v7.5a1.5 1.5 0 0 1-2.449 1.162l-.112-.101L27.88 36H6a3.01 3.01 0 0 1-2.995-2.824L3 33V6a3.01 3.01 0 0 1 2.824-2.995L6 3h36zm0 3H6v27h23.109l6.89 6.879V33h6V6zM13.5 24h12a1.5 1.5 0 0 1 .144 2.993L25.5 27h-12a1.5 1.5 0 0 1-.145-2.993L13.5 24h12-12zm0-6h21a1.5 1.5 0 0 1 .144 2.993L34.5 21h-21a1.5 1.5 0 0 1-.145-2.993L13.5 18h21-21zm0-6h21a1.5 1.5 0 0 1 .144 2.993L34.5 15h-21a1.5 1.5 0 0 1-.145-2.993L13.5 12h21-21z"></path></svg>