<svg viewBox="0 0 48 48" fill="currentColor" id="dls-cashback__filled"><path d="M24 1a22.343 22.343 0 0 1 16.242 7l.291.314.467.514V8a2 2 0 0 1 1.85-1.995L43 6a2 2 0 0 1 1.994 1.85l.005.15v6l-.005.15-.013.12-.026.15-.041.16-.03.089-.057.146-.077.154c-.047.084-.1.164-.158.24l-.077.096-.11.118-.068.064-.126.104-.152.106-.144.082-.153.07-.155.057-.149.041-.156.03-.15.017L43 16h-6a2 2 0 0 1-.149-3.995L37 12h1.478l-.904-.995a18.345 18.345 0 0 0-13.156-6L23.999 5C13.506 5 5 13.507 5 24s8.507 19 19 19c10.381 0 18.817-8.325 18.997-18.662L43 24v-1a2 2 0 0 1 3.995-.15L47 23v1c0 12.703-10.297 23-23 23S1 36.703 1 24 11.297 1 24 1zm-.089 9.5c.827 0 1.497.672 1.497 1.5v2.135a7.136 7.136 0 0 1 5.561 4.022l.173.388c.158.383.115.82-.116 1.164s-.685.584-1.098.582a1.22 1.22 0 0 1-1.023-.58l-.074-.153a5.219 5.219 0 0 0-5.198-3.164c-2.438 0-4.013 1.05-4.013 2.675 0 1.91 1.197 2.555 5.313 3.776l.595.177c3.887 1.187 6.122 2.578 6.122 5.766 0 2.934-2.511 5.065-6.242 5.46V36.3c0 .829-.67 1.5-1.497 1.5a1.498 1.498 0 0 1-1.497-1.5v-2.133a7.643 7.643 0 0 1-6.232-4.984l-.053-.147a1.242 1.242 0 0 1-.08-.392c-.004-.586.437-1.114 1.005-1.25a1.274 1.274 0 0 1 1.434.656l.063.155a5.633 5.633 0 0 0 5.695 3.753c2.913 0 4.653-1.127 4.653-3.014 0-1.852-1.136-2.722-5.062-3.88l-.549-.159-.793-.24c-3.357-1.047-5.627-2.268-5.627-5.413 0-2.722 2.27-4.773 5.546-5.19V12c0-.828.67-1.5 1.497-1.5z"></path></svg>