<svg viewBox="0 0 48 48" fill="currentColor" id="dls-calculator__outline"><path d="M39 12V3H9v9h30zm0 3H9v30h30V15zM9 0h30a3 3 0 0 1 3 3v42a3 3 0 0 1-3 3H9a3 3 0 0 1-3-3V3a3 3 0 0 1 3-3zm19.5 32h6a1.5 1.5 0 1 1 0 3h-6a1.5 1.5 0 1 1 0-3zm0 6h6a1.5 1.5 0 1 1 0 3h-6a1.5 1.5 0 1 1 0-3zm0-16h6a1.5 1.5 0 1 1 0 3h-6a1.5 1.5 0 1 1 0-3zM16 22v-2.5a1.5 1.5 0 1 1 3 0V22h2.5a1.5 1.5 0 1 1 0 3H19v2.5a1.5 1.5 0 1 1-3 0V25h-2.5a1.5 1.5 0 1 1 0-3H16zm1.5 12.461 2.039-2.039a1.442 1.442 0 0 1 2.039 2.039l-2.04 2.039 2.04 2.039a1.442 1.442 0 0 1-2.04 2.039l-2.038-2.04-2.039 2.04a1.442 1.442 0 0 1-2.039-2.04l2.04-2.038-2.04-2.039a1.442 1.442 0 0 1 2.04-2.039l2.038 2.039z"></path></svg>