<svg viewBox="0 0 48 48" fill="currentColor" id="dls-feedback__filled"><path d="M6 3h36a3.01 3.01 0 0 1 2.995 2.824L45 6v27a3.01 3.01 0 0 1-2.824 2.995L42 36h-3v7.5a1.5 1.5 0 0 1-2.449 1.162l-.112-.101L27.88 36H6a3.01 3.01 0 0 1-2.995-2.824L3 33V6a3.01 3.01 0 0 1 2.824-2.995L6 3h36H6zm19.5 21h-12a1.5 1.5 0 0 0-.144 2.993L13.5 27h12a1.5 1.5 0 0 0 .144-2.993L25.5 24zm9-6h-21a1.5 1.5 0 0 0-.144 2.993L13.5 21h21a1.5 1.5 0 0 0 .144-2.993L34.5 18zm0-6h-21a1.5 1.5 0 0 0-.144 2.993L13.5 15h21a1.5 1.5 0 0 0 .144-2.993L34.5 12z"></path></svg>