<svg viewBox="0 0 48 48" fill="currentColor" id="dls-activity__filled"><path d="M8 6a5 5 0 0 1 5 5c0 2.158-1.377 3.976-3.293 4.675l-.207.07v3.51c2.023.64 3.5 2.51 3.5 4.745 0 2.158-1.377 3.976-3.293 4.675l-.207.07v3.51c2.023.64 3.5 2.51 3.5 4.745a5 5 0 0 1-10 0c0-2.158 1.376-3.976 3.293-4.675l.207-.07v-3.51C4.477 28.106 3 26.236 3 24c0-2.158 1.376-3.976 3.293-4.675l.207-.07v-3.51C4.477 15.106 3 13.236 3 11a5 5 0 0 1 5-5zm10.5 29.5h13a1.5 1.5 0 0 1 .144 2.993l-.144.007h-13a1.5 1.5 0 0 1-.144-2.993l.144-.007h13-13zm0-13h25a1.5 1.5 0 0 1 .144 2.993l-.144.007h-25a1.5 1.5 0 0 1-.144-2.993l.144-.007h25-25zm0-13h16a1.5 1.5 0 0 1 .144 2.993l-.144.007h-16a1.5 1.5 0 0 1-.144-2.993L18.5 9.5h16-16z"></path></svg>