<svg viewBox="0 0 48 48" fill="currentColor" id="dls-alert__outline"><path d="M42 36.364c0-.583-.192-1.22-.49-1.665-2.485-3.977-3.603-10.099-3.603-13.176v-2.177c0-6.56-4.358-12.129-10.225-13.785.204-.48.318-1.007.318-1.56 0-2.206-1.794-4-4-4a4.004 4.004 0 0 0-3.687 5.55 13.718 13.718 0 0 0-6.018 3.487c-2.71 2.613-4.203 6.15-4.203 9.96v2.525c0 2.937-.975 9.106-3.578 13.137A3.19 3.19 0 0 0 6 36.364c0 3.573 6.094 4.913 12 5.374v.712c0 3.06 2.691 5.55 6 5.55s6-2.49 6-5.55v-.745c4.16-.345 9.158-1.159 11.041-3.083.816-.834.972-1.705.96-2.258zM24 3a1.001 1.001 0 1 1-1 1c0-.551.448-1 1-1zm3 39.45c0 1.406-1.346 2.55-3 2.55s-3-1.144-3-2.55V42h6v.45zm-2.957-3.493c-8.018 0-14.67-1.398-15.021-2.65 2.987-4.625 4.071-11.375 4.071-14.785v-2.524c0-2.988 1.166-5.759 3.304-7.82 1.993-1.993 4.73-3.136 7.51-3.136l.292.004c5.905.077 10.709 5.146 10.709 11.3v2.176c0 3.198 1.101 10.035 4.058 14.766l.036.096c-.4 1.19-7.021 2.572-14.959 2.572z"></path></svg>