<svg viewBox="0 0 48 48" fill="currentColor" id="dls-alert__filled"><path d="M24 0c2.206 0 4 1.794 4 4 0 .554-.114 1.081-.318 1.56 5.766 1.628 10.074 7.036 10.221 13.448l.004.338v2.177c0 2.982 1.05 8.82 3.375 12.797l.229.379c.296.445.489 1.082.489 1.665.013.553-.144 1.424-.96 2.258-1.827 1.867-6.59 2.689-10.671 3.05l-.37.032v.746c0 3.06-2.69 5.55-6 5.55-3.23 0-5.874-2.375-5.995-5.337L18 42.45v-.712l-.933-.08C11.469 41.13 6 39.747 6 36.363c0-.584.19-1.22.512-1.702 2.528-3.916 3.522-9.842 3.578-12.872l.002-.267v-2.525c0-3.81 1.492-7.348 4.202-9.96 1.668-1.669 3.764-2.86 6.019-3.488A4.004 4.004 0 0 1 24 0zm3 42h-6v.45c0 1.406 1.346 2.55 3 2.55 1.593 0 2.9-1.06 2.994-2.395L27 42.45V42z"></path></svg>