<svg viewBox="0 0 48 48" fill="currentColor" id="dls-cards-contactless__filled"><path d="M45 6a3 3 0 0 1 3 3v24a3 3 0 0 1-3 3h-3v3a3 3 0 0 1-3 3H3a3 3 0 0 1-3-3V15a3 3 0 0 1 3-3h3V9a3 3 0 0 1 3-3h36zM15 26H8a2 2 0 0 0-1.995 1.851L6 28v3a2 2 0 0 0 1.851 1.995L8 33h7a2 2 0 0 0 1.995-1.851L17 31v-3a2 2 0 0 0-1.851-1.995L15 26zM45 9H9v3h30a3 3 0 0 1 3 3v18h3V9zm-13.146 9.197a1.5 1.5 0 0 0 0 2.121 4.5 4.5 0 0 1 0 6.364 1.5 1.5 0 1 0 2.121 2.121 7.5 7.5 0 0 0 0-10.607 1.5 1.5 0 0 0-2.121 0zm-4.95 2.12a1.5 1.5 0 0 0-.103 2.007l.2.22a1.5 1.5 0 0 1 .006 1.9l-.2.22a1.5 1.5 0 0 0 2.219 2.014 4.5 4.5 0 0 0 0-6.364 1.5 1.5 0 0 0-2.121 0z"></path></svg>