<svg viewBox="0 0 48 48" fill="currentColor" id="dls-cards-contactless__outline"><path d="M45 6a3 3 0 0 1 3 3v24a3 3 0 0 1-3 3h-3v3a3 3 0 0 1-3 3H3a3 3 0 0 1-3-3V15a3 3 0 0 1 3-3h3V9a3 3 0 0 1 3-3h36zm-6 9H3v24h36V15zM15 25a3 3 0 0 1 3 3v3a3 3 0 0 1-3 3H9a3 3 0 0 1-3-3v-3a3 3 0 0 1 3-3h6zM45 9H9v3h30a3 3 0 0 1 3 3v18h3V9zM15 28H9v3h6v-3zm18.975-9.803a7.5 7.5 0 0 1 0 10.607 1.5 1.5 0 0 1-2.121-2.121 4.5 4.5 0 0 0 0-6.364 1.5 1.5 0 1 1 2.121-2.121zm-4.95 2.12a4.5 4.5 0 0 1 0 6.364 1.5 1.5 0 0 1-2.219-2.014l.097-.107A1.5 1.5 0 0 0 27 22.546l-.097-.107a1.5 1.5 0 0 1 2.121-2.121z"></path></svg>