<svg viewBox="0 0 48 48" fill="currentColor" id="dls-bank-mobile-landscape__outline"><path d="M45 6a3 3 0 0 1 3 3v30a3 3 0 0 1-3 3H3a3 3 0 0 1-3-3V9a3 3 0 0 1 3-3h42zm0 3H3v30h42V9zm-14.567 3.328.071.047 10.853 8c.644.474.34 1.469-.43 1.533h-3.435v11.3h3.435c.473 0 1.071.721 1.071 1.468 0 .762-.598 1.532-1.071 1.532H19.143c-.473 0-1.142-.785-1.142-1.532s.669-1.463 1.142-1.463l3.366-.004v-11.3h-3.366a.85.85 0 0 1-.57-1.483l.061-.049 10.853-8a.856.856 0 0 1 .945-.047zm-1.923 9.58h-3v11.305h3V21.908zm5.984 0h-3v11.305h3V21.908zM8 22a2 2 0 1 1 0 4 2 2 0 1 1 0-4z"></path></svg>