<svg viewBox="0 0 48 48" fill="currentColor" id="dls-calculator__filled"><path d="M9 0h30a3 3 0 0 1 3 3v42a3 3 0 0 1-3 3H9a3 3 0 0 1-3-3V3a3 3 0 0 1 3-3zm0 3v9h30V3H9zm19.5 29a1.5 1.5 0 1 0 0 3h6a1.5 1.5 0 1 0 0-3h-6zm0 6a1.5 1.5 0 1 0 0 3h6a1.5 1.5 0 1 0 0-3h-6zm0-16a1.5 1.5 0 1 0 0 3h6a1.5 1.5 0 1 0 0-3h-6zM16 22h-2.5a1.5 1.5 0 1 0 0 3H16v2.5a1.5 1.5 0 1 0 3 0V25h2.5a1.5 1.5 0 1 0 0-3H19v-2.5a1.5 1.5 0 1 0-3 0V22zm1.5 12.461-2.039-2.039a1.442 1.442 0 0 0-2.039 2.039l2.04 2.039-2.04 2.039a1.442 1.442 0 0 0 2.04 2.039l2.038-2.04 2.039 2.04a1.442 1.442 0 0 0 2.039-2.04l-2.04-2.038 2.04-2.039a1.442 1.442 0 0 0-2.04-2.039L17.5 34.461z"></path></svg>