<svg viewBox="0 0 48 48" fill="currentColor" id="dls-bank-mobile-landscape__filled"><path d="M45 6a3 3 0 0 1 3 3v30a3 3 0 0 1-3 3H3a3 3 0 0 1-3-3V9a3 3 0 0 1 3-3h42zm-14.567 6.328a.858.858 0 0 0-.837-.02l-.108.068-10.853 8-.061.049a.85.85 0 0 0 .458 1.477l.111.006h3.366v11.3l-3.366.004c-.473 0-1.142.716-1.142 1.463 0 .703.592 1.44 1.057 1.524l.085.008h21.784c.473 0 1.071-.77 1.071-1.532 0-.7-.526-1.377-.981-1.459l-.09-.008h-3.435v-11.3h3.435c.733-.061 1.044-.966.515-1.462l-.086-.071-10.853-8-.071-.047zm-1.923 9.58v11.305h-3V21.908h3zm5.984 0v11.305h-3V21.908h3zM8 22a2 2 0 1 0 0 4 2 2 0 1 0 0-4z"></path></svg>