<svg width="198" height="118" viewBox="0 0 198 118" fill="none" xmlns="http://www.w3.org/2000/svg"><rect x="0.334961" y="68.4487" width="8.90995" height="48.2622" rx="1.48499" fill="#02BCF5"></rect><rect x="34.4897" y="51.3711" width="8.90995" height="65.3397" rx="1.48499" fill="#02BCF5"></rect><rect x="68.6445" y="29.0962" width="8.90995" height="87.6145" rx="1.48499" fill="#02BCF5"></rect><rect x="85.7219" y="26.8687" width="8.90995" height="89.842" rx="1.48499" fill="#02BCF5"></rect><rect x="102.799" y="22.4141" width="8.90995" height="94.297" rx="1.48499" fill="#02BCF5"></rect><rect x="119.877" y="14.9888" width="8.90995" height="101.722" rx="1.48499" fill="#02BCF5"></rect><rect x="136.954" y="19.4438" width="8.90995" height="97.267" rx="1.48499" fill="#02BCF5"></rect><rect x="51.5671" y="39.4912" width="8.90995" height="77.2196" rx="1.48499" fill="#02BCF5"></rect><rect x="17.4124" y="58.7964" width="8.90995" height="57.9147" rx="1.48499" fill="#02BCF5"></rect><rect x="154.032" y="8.30664" width="8.90995" height="109.147" rx="1.48499" fill="#02BCF5"></rect><rect x="171.109" y="10.5342" width="8.90995" height="106.919" rx="1.48499" fill="#02BCF5"></rect><rect x="188.187" y="0.881348" width="8.90995" height="116.572" rx="1.48499" fill="#02BCF5"></rect></svg>