<svg width="198" height="146" viewBox="0 0 198 146" fill="none" xmlns="http://www.w3.org/2000/svg"><rect width="8.90995" height="57.9147" rx="1.48499" transform="matrix(-1 0 0 1 43.9683 87.8262)" fill="#635BFF"></rect><rect width="8.90995" height="77.2196" rx="1.48499" transform="matrix(-1 0 0 1 61.0459 68.5215)" fill="#635BFF"></rect><rect width="8.90995" height="77.2196" rx="1.48499" transform="matrix(-1 0 0 1 78.1233 68.5215)" fill="#635BFF"></rect><rect width="8.90995" height="92.0695" rx="1.48499" transform="matrix(-1 0 0 1 95.2007 53.6714)" fill="#635BFF"></rect><rect width="8.90995" height="106.919" rx="1.48499" transform="matrix(-1 0 0 1 112.278 38.8213)" fill="#635BFF"></rect><rect width="8.90995" height="121.027" rx="1.48499" transform="matrix(-1 0 0 1 129.355 24.7139)" fill="#635BFF"></rect><rect width="8.90995" height="121.027" rx="1.48499" transform="matrix(-1 0 0 1 146.433 24.7139)" fill="#635BFF"></rect><rect width="8.90995" height="109.147" rx="1.48499" transform="matrix(-1 0 0 1 163.51 36.5938)" fill="#635BFF"></rect><rect width="8.90995" height="126.224" rx="1.48499" transform="matrix(-1 0 0 1 180.588 19.5166)" fill="#635BFF"></rect><rect width="8.90995" height="145.529" rx="1.48499" transform="matrix(-1 0 0 1 197.665 0.211914)" fill="#635BFF"></rect><rect width="8.90995" height="53.4597" rx="1.48499" transform="matrix(-1 0 0 1 26.8911 92.2812)" fill="#635BFF"></rect><rect width="8.90995" height="48.2622" rx="1.48499" transform="matrix(-1 0 0 1 9.81348 97.4785)" fill="#635BFF"></rect></svg>