<svg xmlns="http://www.w3.org/2000/svg" fill="none" viewBox="0 0 204 44"><path fill="#00C4C4" d="M0 23a2 2 0 0 1 2-2h18a2 2 0 0 1 2 2v1H0v-1ZM52 21a1 1 0 0 1 1-1h20a1 1 0 0 1 1 1H52ZM78 19a2 2 0 0 1 2-2h18a2 2 0 0 1 2 2v2H78v-2ZM104 17a2 2 0 0 1 2-2h18a2 2 0 0 1 2 2v2h-22v-2ZM130 11a2 2 0 0 1 2-2h18a2 2 0 0 1 2 2v2h-22v-2ZM156 8a2 2 0 0 1 2-2h18a2 2 0 0 1 2 2v8h-22V8ZM182 2a2 2 0 0 1 2-2h18a2 2 0 0 1 2 2v6h-22V2ZM26 20a2 2 0 0 1 2-2h18a2 2 0 0 1 2 2v1H26v-1Z"></path><path fill="#0073E6" d="M0 24h22v11H0zM52 21h22v11H52zM78 21h22v9H78zM104 19h22v9h-22zM130 13h22v14h-22zM156 16h22v9h-22zM182 8h22v15h-22zM26 21h22v16H26z"></path><path fill="#96F" d="M0 35h22v4a2 2 0 0 1-2 2H2a2 2 0 0 1-2-2v-4ZM52 32h22v6a2 2 0 0 1-2 2H54a2 2 0 0 1-2-2v-6ZM78 30h22v6a2 2 0 0 1-2 2H80a2 2 0 0 1-2-2v-6ZM104 28h22v5a2 2 0 0 1-2 2h-18a2 2 0 0 1-2-2v-5ZM130 27h22v6a2 2 0 0 1-2 2h-18a2 2 0 0 1-2-2v-6ZM156 25h22v7a2 2 0 0 1-2 2h-18a2 2 0 0 1-2-2v-7ZM182 23h22v5a2 2 0 0 1-2 2h-18a2 2 0 0 1-2-2v-5ZM26 37h22v5a2 2 0 0 1-2 2H28a2 2 0 0 1-2-2v-5Z"></path></svg>