<svg xmlns="http://www.w3.org/2000/svg" width="96" height="96" viewBox="0 0 96 96" fill="none" data-inject-url="https://www.globalpayments.com/-/media/project/global-payments/corporate/corporate/iconography/invoice-dollar.svg?iar=0&amp;rev=dbd2f24d8ac74c358decb35e8d0d2136"><g clip-path="url(#clip0_4_5323--inject-2)"><mask id="path-2-inside-1_4_5323--inject-2" fill="white"><path d="M0 48C0 21.4903 21.4903 0 48 0C74.5097 0 96 21.4903 96 48C96 74.5097 74.5097 96 48 96C21.4903 96 0 74.5097 0 48Z"></path></mask><rect width="100%" height="100%" x="0" y="0" rx="100%" ry="100%" fill="#2668FF"></rect><path d="M60 42C66.6274 42 72 36.6274 72 30C72 23.3726 66.6274 18 60 18C53.3726 18 48 23.3726 48 30C48 36.6274 53.3726 42 60 42Z" fill="#14E8FF"></path><path d="M31.6641 50.0566H52.9096" stroke="white" stroke-width="3" stroke-linecap="round" stroke-linejoin="round"></path><path d="M47.4346 50.0566H60.1597" stroke="white" stroke-width="3" stroke-linejoin="round"></path><path d="M31.6641 57.0747H47.4646" stroke="white" stroke-width="3" stroke-linecap="round" stroke-linejoin="round"></path><path d="M31.6641 32.2896H39.2001" stroke="white" stroke-width="3" stroke-linecap="round" stroke-linejoin="round"></path><path d="M31.6641 37.7036H40.1601" stroke="white" stroke-width="3" stroke-linecap="round" stroke-linejoin="round"></path><path d="M47.2094 20.814L27.0155 20.814C26.7141 20.814 26.4156 20.8735 26.1372 20.9892C25.8589 21.1048 25.6061 21.2743 25.3934 21.4879C25.1807 21.7015 25.0124 21.9551 24.8979 22.2339C24.7835 22.5128 24.7253 22.8115 24.7266 23.113V69.0224L33.2672 78.2083H63.4163C64.0261 78.2083 64.6108 77.9661 65.042 77.5349C65.4731 77.1038 65.7153 76.519 65.7153 75.9093V49.0764" stroke="white" stroke-width="3" stroke-linejoin="round"></path><path d="M24.6973 69.0234H33.4496V78.2094" stroke="white" stroke-width="3" stroke-linecap="round" stroke-linejoin="round"></path><path d="M60 45C68.2843 45 75 38.2843 75 30C75 21.7157 68.2843 15 60 15C51.7157 15 45 21.7157 45 30C45 38.2843 51.7157 45 60 45Z" stroke="white" stroke-width="3" stroke-miterlimit="10"></path><path d="M64.5 24H58.5C56.8431 24 55.5 25.3431 55.5 27V27C55.5 28.6569 56.8431 30 58.5 30H61.5C63.1569 30 64.5 31.3431 64.5 33V33C64.5 34.6569 63.1569 36 61.5 36H55.5" stroke="white" stroke-width="3" stroke-linecap="round" stroke-linejoin="round"></path><path d="M61.5 22.5C61.5 21.6716 60.8284 21 60 21C59.1716 21 58.5 21.6716 58.5 22.5H61.5ZM58.5 22.5V24H61.5V22.5H58.5Z" fill="white"></path><path d="M58.5 37.5C58.5 38.3284 59.1716 39 60 39C60.8284 39 61.5 38.3284 61.5 37.5H58.5ZM58.5 36V37.5H61.5V36H58.5Z" fill="white"></path></g><defs><clipPath id="clip0_4_5323--inject-2"><rect width="96" height="96" fill="white"></rect></clipPath></defs></svg>