<svg xmlns="http://www.w3.org/2000/svg" width="96" height="96" viewBox="0 0 96 96" fill="none" data-inject-url="https://www.globalpayments.com/-/media/project/global-payments/corporate/corporate/iconography/dashboard.svg?iar=0&amp;rev=53a792df18824206a8009a1de4a475b8"><rect width="100%" height="100%" x="0" y="0" rx="100%" ry="100%" fill="#2668FF"></rect><path d="M68 46C74.6274 46 80 40.6274 80 34C80 27.3726 74.6274 22 68 22C61.3726 22 56 27.3726 56 34C56 40.6274 61.3726 46 68 46Z" fill="#14E8FF"></path><path d="M53.0979 67.4779H36.5571V76.0219H53.0979V67.4779Z" stroke="white" stroke-width="3" stroke-linecap="round" stroke-linejoin="round"></path><path d="M32.4702 76.0216H57.4398" stroke="white" stroke-width="3" stroke-miterlimit="10"></path><path d="M45.2811 28.7421H18.9901C17.7653 28.7421 16.7725 29.7349 16.7725 30.9597V65.2605C16.7725 66.4852 17.7653 67.4781 18.9901 67.4781H70.6861C71.9108 67.4781 72.9037 66.4852 72.9037 65.2605V56.4791" stroke="white" stroke-width="3" stroke-linecap="round" stroke-linejoin="round"></path><path d="M43.3854 39.8295C44.2138 39.8295 44.8854 40.501 44.8854 41.3295C44.8854 42.1579 44.2138 42.8295 43.3854 42.8295V39.8295ZM23.0425 39.8295H43.3854V42.8295H23.0425V39.8295Z" fill="white"></path><path d="M43.3854 44.6296C44.2138 44.6296 44.8854 45.3012 44.8854 46.1296C44.8854 46.9581 44.2138 47.6296 43.3854 47.6296V44.6296ZM23.0425 44.6296H43.3854V47.6296H23.0425V44.6296Z" fill="white"></path><path d="M28.7385 35.0295C29.5669 35.0295 30.2385 35.7011 30.2385 36.5295C30.2385 37.358 29.5669 38.0295 28.7385 38.0295V35.0295ZM23.0425 35.0295H28.7385V38.0295H23.0425V35.0295Z" fill="white"></path><path d="M24.0034 60.4788L33.5668 55.3042L38.9866 59.9353L50.7716 52.7662" stroke="white" stroke-width="3" stroke-linecap="round" stroke-linejoin="round"></path><path d="M49.5388 56.3872C49.3997 57.2039 49.9489 57.9787 50.7656 58.1178C51.5822 58.257 52.357 57.7077 52.4962 56.8911L49.5388 56.3872ZM51.8425 51.7967L53.3212 52.0487L53.5681 50.5994L52.1241 50.3234L51.8425 51.7967ZM47.3241 49.4058L45.8508 49.1242L45.2875 52.0708L46.7608 52.3525L47.3241 49.4058ZM52.4962 56.8911L53.3212 52.0487L50.3638 51.5448L49.5388 56.3872L52.4962 56.8911ZM52.1241 50.3234L47.3241 49.4058L46.7608 52.3525L51.5608 53.2701L52.1241 50.3234Z" fill="white"></path><circle cx="68.0005" cy="34" r="15.5" stroke="white" stroke-width="3"></circle><path d="M57.7476 35.8421L61.0735 39.0777C61.4664 39.4611 61.9936 39.6757 62.5425 39.6757C63.0914 39.6757 63.6186 39.4611 64.0115 39.0777L75.7436 27.6819" stroke="white" stroke-width="3" stroke-miterlimit="10"></path></svg>