<svg xmlns="http://www.w3.org/2000/svg" width="96" height="96" viewBox="0 0 96 96" fill="none" data-inject-url="https://www.globalpayments.com/-/media/feature/gpn/enterprise-components/iconography/mobile-payment-transfers-card-on-file.svg?rev=c61793fa820d4f8eae1fa56244427a70"><g clip-path="url(#clip0_1_7945--inject-4)"><mask id="path-2-inside-1_1_7945--inject-4" fill="white"><path d="M0 48C0 21.4903 21.4903 0 48 0C74.5097 0 96 21.4903 96 48C96 74.5097 74.5097 96 48 96C21.4903 96 0 74.5097 0 48Z"></path></mask><rect width="100%" height="100%" x="0" y="0" rx="100%" ry="100%" fill="#2668FF"></rect><path d="M75 54C81.6274 54 87 48.6274 87 42C87 35.3726 81.6274 30 75 30C68.3726 30 63 35.3726 63 42C63 48.6274 68.3726 54 75 54Z" fill="#14E8FF"></path><path fill-rule="evenodd" clip-rule="evenodd" d="M76.5 53.9072V63C76.5 63.8284 75.8284 64.5 75 64.5H36C35.1716 64.5 34.5 63.8284 34.5 63V37.5C34.5 36.6716 35.1716 36 36 36H64.6054C64.0683 36.9285 63.652 37.9357 63.3781 39H37.5V61.5H73.5V53.9072C73.9914 53.9684 74.492 54 75 54C75.508 54 76.0086 53.9684 76.5 53.9072Z" fill="white"></path><path d="M57 81V82.5C57.8284 82.5 58.5 81.8284 58.5 81H57ZM24 81H22.5C22.5 81.8284 23.1716 82.5 24 82.5V81ZM24 15V13.5C23.1716 13.5 22.5 14.1716 22.5 15H24ZM57 15H58.5C58.5 14.1716 57.8284 13.5 57 13.5V15ZM55.5 30C55.5 30.8284 56.1716 31.5 57 31.5C57.8284 31.5 58.5 30.8284 58.5 30H55.5ZM55.5 63V81H58.5V63H55.5ZM57 79.5H24V82.5H57V79.5ZM24 16.5H57V13.5H24V16.5ZM55.5 15V30H58.5V15H55.5ZM25.5 81V15H22.5V81H25.5Z" fill="white"></path><path d="M62.8696 55.5H64.3696V52.5H62.8696V55.5ZM42 55.5H62.8696V52.5H42V55.5Z" fill="white"></path><path d="M24 72H57" stroke="white" stroke-width="3" stroke-linejoin="round"></path><path d="M80.8335 50.7319C79.1068 51.8857 77.0767 52.5015 75 52.5015C72.2152 52.5015 69.5445 51.3952 67.5754 49.4261C65.6062 47.457 64.5 44.7862 64.5 42.0015C64.5 39.9248 65.1158 37.8947 66.2696 36.168C67.4233 34.4413 69.0632 33.0955 70.9818 32.3007C72.9004 31.506 75.0116 31.2981 77.0484 31.7032C79.0852 32.1084 80.9562 33.1084 82.4246 34.5768C83.8931 36.0453 84.8931 37.9162 85.2982 39.953C85.7034 41.9898 85.4955 44.101 84.7007 46.0196C83.906 47.9383 82.5602 49.5781 80.8335 50.7319Z" stroke="white" stroke-width="3"></path><path d="M73.5 46.5001L72.4394 47.5607L73.5001 48.6214L74.5607 47.5607L73.5 46.5001ZM83.5607 38.5607C84.1465 37.9749 84.1464 37.0251 83.5607 36.4393C82.9749 35.8536 82.0251 35.8536 81.4393 36.4393L83.5607 38.5607ZM67.9393 43.0607L72.4394 47.5607L74.5607 45.4394L70.0607 40.9394L67.9393 43.0607ZM74.5607 47.5607L83.5607 38.5607L81.4393 36.4393L72.4394 45.4394L74.5607 47.5607Z" fill="white"></path></g><defs><clipPath id="clip0_1_7945--inject-4"><rect width="96" height="96" fill="white"></rect></clipPath></defs></svg>