<svg xmlns="http://www.w3.org/2000/svg" width="96" height="96" viewBox="0 0 96 96" fill="none" data-inject-url="https://www.globalpayments.com/-/media/feature/gpn/enterprise-components/iconography/global-reach.svg?rev=c1b45a91228a422ba7a3efa769a29643"><g clip-path="url(#clip0_1_2589--inject-6)"><mask id="path-2-inside-1_1_2589--inject-6" fill="white"><path d="M0 48C0 21.4903 21.4903 0 48 0C74.5097 0 96 21.4903 96 48C96 74.5097 74.5097 96 48 96C21.4903 96 0 74.5097 0 48Z"></path></mask><rect width="100%" height="100%" x="0" y="0" rx="100%" ry="100%" fill="#2668FF"></rect><path d="M48 60C54.6274 60 60 54.6274 60 48C60 41.3726 54.6274 36 48 36C41.3726 36 36 41.3726 36 48C36 54.6274 41.3726 60 48 60Z" fill="#14E8FF"></path><path d="M48.0019 63.4564C56.538 63.4564 63.4579 56.5365 63.4579 48.0004C63.4579 39.4643 56.538 32.5444 48.0019 32.5444C39.4658 32.5444 32.5459 39.4643 32.5459 48.0004C32.5459 56.5365 39.4658 63.4564 48.0019 63.4564Z" stroke="white" stroke-width="3" stroke-miterlimit="10"></path><path d="M48.001 63.4564C52.0888 63.4564 55.4026 56.5365 55.4026 48.0004C55.4026 39.4643 52.0888 32.5444 48.001 32.5444C43.9132 32.5444 40.5994 39.4643 40.5994 48.0004C40.5994 56.5365 43.9132 63.4564 48.001 63.4564Z" stroke="white" stroke-width="3" stroke-miterlimit="10"></path><path d="M33.697 42.1626H62.305" stroke="white" stroke-width="3" stroke-miterlimit="10"></path><path d="M33.697 54.2681H62.305" stroke="white" stroke-width="3" stroke-miterlimit="10"></path><path d="M48 23.2411C50.4707 23.2411 52.4736 21.2382 52.4736 18.7675C52.4736 16.2968 50.4707 14.2939 48 14.2939C45.5293 14.2939 43.5264 16.2968 43.5264 18.7675C43.5264 21.2382 45.5293 23.2411 48 23.2411Z" stroke="white" stroke-width="3" stroke-linecap="round" stroke-linejoin="round"></path><path d="M48 81.706C50.4707 81.706 52.4736 79.7031 52.4736 77.2324C52.4736 74.7617 50.4707 72.7588 48 72.7588C45.5293 72.7588 43.5264 74.7617 43.5264 77.2324C43.5264 79.7031 45.5293 81.706 48 81.706Z" stroke="white" stroke-width="3" stroke-linecap="round" stroke-linejoin="round"></path><path d="M73.2978 66.6342C75.7685 66.6342 77.7714 64.6313 77.7714 62.1606C77.7714 59.6899 75.7685 57.687 73.2978 57.687C70.8271 57.687 68.8242 59.6899 68.8242 62.1606C68.8242 64.6313 70.8271 66.6342 73.2978 66.6342Z" stroke="white" stroke-width="3" stroke-linecap="round" stroke-linejoin="round"></path><path d="M22.705 66.6342C25.1757 66.6342 27.1786 64.6313 27.1786 62.1606C27.1786 59.6899 25.1757 57.687 22.705 57.687C20.2343 57.687 18.2314 59.6899 18.2314 62.1606C18.2314 64.6313 20.2343 66.6342 22.705 66.6342Z" stroke="white" stroke-width="3" stroke-linecap="round" stroke-linejoin="round"></path><path d="M73.2978 37.8427C75.7685 37.8427 77.7714 35.8398 77.7714 33.3691C77.7714 30.8984 75.7685 28.8955 73.2978 28.8955C70.8271 28.8955 68.8242 30.8984 68.8242 33.3691C68.8242 35.8398 70.8271 37.8427 73.2978 37.8427Z" stroke="white" stroke-width="3" stroke-linecap="round" stroke-linejoin="round"></path><path d="M22.705 37.8427C25.1757 37.8427 27.1786 35.8398 27.1786 33.3691C27.1786 30.8984 25.1757 28.8955 22.705 28.8955C20.2343 28.8955 18.2314 30.8984 18.2314 33.3691C18.2314 35.8398 20.2343 37.8427 22.705 37.8427Z" stroke="white" stroke-width="3" stroke-linecap="round" stroke-linejoin="round"></path><path d="M48 23.2412V28.1084" stroke="white" stroke-width="3" stroke-miterlimit="10" stroke-linecap="round"></path><path d="M48 67.1045V72.7589" stroke="white" stroke-width="3" stroke-miterlimit="10"></path><path d="M69.5324 35.7788L64.6172 38.5724" stroke="white" stroke-width="3" stroke-miterlimit="10"></path><path d="M30.1547 58.1279L27.1787 59.8175" stroke="white" stroke-width="3" stroke-miterlimit="10" stroke-linecap="round"></path><path d="M68.8243 59.7606L65.1475 57.687" stroke="white" stroke-width="3" stroke-miterlimit="10" stroke-linecap="round"></path><path d="M31.3652 38.6009L26.4404 35.8169" stroke="white" stroke-width="3" stroke-miterlimit="10"></path></g><defs><clipPath id="clip0_1_2589--inject-6"><rect width="96" height="96" fill="white"></rect></clipPath></defs></svg>