<svg xmlns="http://www.w3.org/2000/svg" width="96" height="96" viewBox="0 0 96 96" fill="none" data-inject-url="https://www.globalpayments.com/-/media/feature/gpn/enterprise-components/iconography/responsive-design.svg?rev=f1e357ae516749798a985130a1846ab8"><g clip-path="url(#clip0_1_9193--inject-5)"><mask id="path-2-inside-1_1_9193--inject-5" fill="white"><path d="M0 48C0 21.4903 21.4903 0 48 0C74.5097 0 96 21.4903 96 48C96 74.5097 74.5097 96 48 96C21.4903 96 0 74.5097 0 48Z"></path></mask><rect width="100%" height="100%" x="0" y="0" rx="100%" ry="100%" fill="#2668FF"></rect><path d="M45 60C51.6274 60 57 54.6274 57 48C57 41.3726 51.6274 36 45 36C38.3726 36 33 41.3726 33 48C33 54.6274 38.3726 60 45 60Z" fill="#14E8FF"></path><path d="M52.4399 66.624H37.4414V74.3714H52.4399V66.624Z" stroke="white" stroke-width="3" stroke-linecap="round" stroke-linejoin="round"></path><path d="M33.7324 74.3709H56.3738" stroke="white" stroke-width="3" stroke-miterlimit="10"></path><mask id="path-7-inside-2_1_9193--inject-5" fill="white"><path fill-rule="evenodd" clip-rule="evenodd" d="M58.5 30H21.5108C19.5719 30 18 31.5718 18 33.5108V64.6134C18 66.5523 19.5718 68.1242 21.5108 68.1242H68.3866C70.3256 68.1242 71.8974 66.5523 71.8974 64.6134V57.7368H68.8974V64.6134C68.8974 64.8955 68.6687 65.1242 68.3866 65.1242H21.5108C21.2287 65.1242 21 64.8955 21 64.6134V33.5108C21 33.2287 21.2287 33 21.5108 33H58.5V30Z"></path></mask><path d="M58.5 30H61.5C61.5 28.3431 60.1569 27 58.5 27V30ZM71.8974 57.7368H74.8974C74.8974 56.08 73.5543 54.7368 71.8974 54.7368V57.7368ZM68.8974 57.7368V54.7368C67.2406 54.7368 65.8974 56.08 65.8974 57.7368H68.8974ZM58.5 33V36C60.1569 36 61.5 34.6569 61.5 33H58.5ZM21.5108 33H58.5V27H21.5108V33ZM21 33.5108C21 33.2287 21.2287 33 21.5108 33V27C17.915 27 15 29.915 15 33.5108H21ZM21 64.6134V33.5108H15V64.6134H21ZM21.5108 65.1242C21.2287 65.1242 21 64.8955 21 64.6134H15C15 68.2092 17.915 71.1242 21.5108 71.1242V65.1242ZM68.3866 65.1242H21.5108V71.1242H68.3866V65.1242ZM68.8974 64.6134C68.8974 64.8955 68.6687 65.1242 68.3866 65.1242V71.1242C71.9824 71.1242 74.8974 68.2092 74.8974 64.6134H68.8974ZM68.8974 57.7368V64.6134H74.8974V57.7368H68.8974ZM71.8974 54.7368H68.8974V60.7368H71.8974V54.7368ZM71.8974 64.6134V57.7368H65.8974V64.6134H71.8974ZM68.3866 68.1242C70.3255 68.1242 71.8974 66.5524 71.8974 64.6134H65.8974C65.8974 63.2386 67.0119 62.1242 68.3866 62.1242V68.1242ZM21.5108 68.1242H68.3866V62.1242H21.5108V68.1242ZM18 64.6134C18 66.5523 19.5719 68.1242 21.5108 68.1242V62.1242C22.8856 62.1242 24 63.2386 24 64.6134H18ZM18 33.5108V64.6134H24V33.5108H18ZM21.5108 30C19.5719 30 18 31.5719 18 33.5108H24C24 34.8856 22.8856 36 21.5108 36V30ZM58.5 30H21.5108V36H58.5V30ZM61.5 33V30H55.5V33H61.5Z" fill="white" mask="url(#path-7-inside-2_1_9193--inject-5)"></path><mask id="path-9-inside-3_1_9193--inject-5" fill="white"><path d="M57 21C57 19.3431 58.3431 18 60 18H75C76.6569 18 78 19.3431 78 21V57C78 58.6569 76.6569 60 75 60H60C58.3431 60 57 58.6569 57 57V21Z"></path></mask><path d="M60 21H75V15H60V21ZM75 21V57H81V21H75ZM75 57H60V63H75V57ZM60 57V21H54V57H60ZM60 57H60H54C54 60.3137 56.6863 63 60 63V57ZM75 57V63C78.3137 63 81 60.3137 81 57H75ZM75 21V21H81C81 17.6863 78.3137 15 75 15V21ZM60 15C56.6863 15 54 17.6863 54 21H60L60 21V15Z" fill="white" mask="url(#path-9-inside-3_1_9193--inject-5)"></path></g><defs><clipPath id="clip0_1_9193--inject-5"><rect width="96" height="96" fill="white"></rect></clipPath></defs></svg>