<svg xmlns="http://www.w3.org/2000/svg" width="96" height="96" viewBox="0 0 96 96" fill="none" data-inject-url="https://www.globalpayments.com/-/media/project/global-payments/corporate/corporate/iconography/instant-approval.svg?iar=0&amp;rev=fcc9c42a19224a7ebd8bcac382ca8aa7"><g clip-path="url(#clip0_1_8267--inject-1)"><mask id="path-2-inside-1_1_8267--inject-1" fill="white"><path d="M0 48C0 21.4903 21.4903 0 48 0C74.5097 0 96 21.4903 96 48C96 74.5097 74.5097 96 48 96C21.4903 96 0 74.5097 0 48Z"></path></mask><rect width="100%" height="100%" x="0" y="0" rx="100%" ry="100%" fill="#2668FF"></rect><path d="M48 63C54.6274 63 60 57.6274 60 51C60 44.3726 54.6274 39 48 39C41.3726 39 36 44.3726 36 51C36 57.6274 41.3726 63 48 63Z" fill="#14E8FF"></path><path d="M48 24V18" stroke="white" stroke-width="3" stroke-miterlimit="10"></path><path d="M39 18H57" stroke="white" stroke-width="3" stroke-linecap="round" stroke-linejoin="round"></path><path d="M9 49.5C8.17157 49.5 7.5 50.1716 7.5 51C7.5 51.8284 8.17157 52.5 9 52.5L9 49.5ZM9 52.5L27 52.5L27 49.5L9 49.5L9 52.5Z" fill="white"></path><path d="M18 43.5C17.1716 43.5 16.5 44.1716 16.5 45C16.5 45.8284 17.1716 46.5 18 46.5L18 43.5ZM18 46.5L30 46.5L30 43.5L18 43.5L18 46.5Z" fill="white"></path><path d="M18 55.5C17.1716 55.5 16.5 56.1716 16.5 57C16.5 57.8284 17.1716 58.5 18 58.5L18 55.5ZM18 58.5L30 58.5L30 55.5L18 55.5L18 58.5Z" fill="white"></path><path d="M26.7934 65.1656C26.3326 64.4772 25.4009 64.2927 24.7125 64.7535C24.0241 65.2143 23.8395 66.146 24.3004 66.8344L26.7934 65.1656ZM73.5002 51C73.5002 65.0833 62.0835 76.5 48.0002 76.5V79.5C63.7403 79.5 76.5002 66.7401 76.5002 51H73.5002ZM48.0002 25.5C62.0835 25.5 73.5002 36.9167 73.5002 51H76.5002C76.5002 35.2599 63.7403 22.5 48.0002 22.5V25.5ZM26.7934 36.8344C31.3704 29.9967 39.1605 25.5 48.0002 25.5V22.5C38.1175 22.5 29.4105 27.5315 24.3004 35.1656L26.7934 36.8344ZM48.0002 76.5C39.1605 76.5 31.3704 72.0033 26.7934 65.1656L24.3004 66.8344C29.4105 74.4685 38.1175 79.5 48.0002 79.5V76.5Z" fill="white"></path><path d="M46.5 55.5001L45.4394 56.5607L46.5001 57.6214L47.5607 56.5607L46.5 55.5001ZM61.0607 43.0607C61.6464 42.4749 61.6464 41.5251 61.0607 40.9393C60.4749 40.3536 59.5251 40.3536 58.9393 40.9393L61.0607 43.0607ZM40.9393 52.0607L45.4394 56.5607L47.5607 54.4394L43.0607 49.9394L40.9393 52.0607ZM47.5607 56.5607L61.0607 43.0607L58.9393 40.9393L45.4394 54.4394L47.5607 56.5607Z" fill="white"></path></g><defs><clipPath id="clip0_1_8267--inject-1"><rect width="96" height="96" fill="white"></rect></clipPath></defs></svg>