<svg xmlns="http://www.w3.org/2000/svg" width="96" height="96" viewBox="0 0 96 96" fill="none" data-inject-url="https://www.globalpayments.com/-/media/feature/gpn/enterprise-components/iconography/mobile-synchronization.svg?rev=2fb780da884b48f985d1a1c7a4c1513c"><g clip-path="url(#clip0_1_8215--inject-7)"><mask id="path-2-inside-1_1_8215--inject-7" fill="white"><path d="M0 48C0 21.4903 21.4903 0 48 0C74.5097 0 96 21.4903 96 48C96 74.5097 74.5097 96 48 96C21.4903 96 0 74.5097 0 48Z"></path></mask><rect width="100%" height="100%" x="0" y="0" rx="100%" ry="100%" fill="#2668FF"></rect><path d="M46 55C52.6274 55 58 49.6274 58 43C58 36.3726 52.6274 31 46 31C39.3726 31 34 36.3726 34 43C34 49.6274 39.3726 55 46 55Z" fill="#14E8FF"></path><path d="M63.8994 24.4121C64.587 25.4262 64.94 26.63 64.9089 27.8548C64.9423 29.0693 64.606 30.2653 63.9447 31.2845" stroke="white" stroke-width="3" stroke-linecap="round" stroke-linejoin="round"></path><path d="M69.0322 33.0639C70.0056 31.484 70.521 29.6649 70.521 27.8093C70.521 25.9537 70.0056 24.1345 69.0322 22.5547" stroke="white" stroke-width="3" stroke-linecap="round" stroke-linejoin="round"></path><path d="M58.7764 26.0366C59.1719 26.5619 59.3771 27.2061 59.3583 27.8635C59.3395 28.5208 59.0978 29.1522 58.6729 29.654" stroke="white" stroke-width="3" stroke-linecap="round" stroke-linejoin="round"></path><path d="M44.8489 29.4652L21.3262 29.6011C20.4451 29.6045 19.601 29.956 18.978 30.5791C18.3549 31.2021 18.0034 32.0462 18 32.9273V77.8114C18.0034 78.6925 18.3549 79.5366 18.978 80.1596C19.601 80.7826 20.4451 81.1342 21.3262 81.1376H44.9072C45.7883 81.1342 46.6324 80.7826 47.2554 80.1596C47.8784 79.5366 48.23 78.6925 48.2334 77.8114V57.2395" stroke="white" stroke-width="3" stroke-miterlimit="10"></path><path d="M53.5726 64.4752L75.5747 64.3393C76.4558 64.3359 77.2998 63.9844 77.9228 63.3613C78.5459 62.7383 78.8974 61.8942 78.9008 61.0131V17.3262C78.8974 16.4451 78.5459 15.601 77.9228 14.978C77.2998 14.3549 76.4558 14.0034 75.5747 14H51.9678C51.0866 14.0034 50.2426 14.3549 49.6196 14.978C48.9965 15.601 48.645 16.4451 48.6416 17.3262V30.8186" stroke="white" stroke-width="3" stroke-miterlimit="10"></path><path d="M56.272 48.1098C57.2509 46.1478 57.7124 43.9683 57.6126 41.7779C57.5129 39.5875 56.8552 37.459 55.7021 35.5941C54.5489 33.7292 52.9385 32.1898 51.0235 31.1219C49.1085 30.054 46.9524 29.493 44.7598 29.4922" stroke="white" stroke-width="3" stroke-miterlimit="10"></path><path d="M35.8679 37.5737C34.8482 39.4551 34.3165 41.562 34.3213 43.7019C34.3213 50.8202 39.8024 56.6767 48.2344 56.1137" stroke="white" stroke-width="3" stroke-linecap="square" stroke-linejoin="bevel"></path><path d="M46.8281 45.1527L51.0732 40.3511" stroke="white" stroke-width="3" stroke-linecap="round" stroke-linejoin="round"></path><path d="M40.9277 43.8572L43.2315 46.4845C43.3853 46.65 43.5716 46.7819 43.7787 46.8721C43.9858 46.9623 44.2093 47.0089 44.4351 47.0089C44.661 47.0089 44.8845 46.9623 45.0916 46.8721C45.2987 46.7819 45.4849 46.65 45.6388 46.4845L46.8294 45.1256" stroke="white" stroke-width="3" stroke-miterlimit="10"></path><path d="M78.5963 58.0811H53.2939" stroke="white" stroke-width="3" stroke-miterlimit="10"></path><path d="M47.3911 74.3896H19.2803" stroke="white" stroke-width="3" stroke-miterlimit="10"></path><path d="M42.5706 56.01V66.131H24.4189V53.1562H37.9114" stroke="white" stroke-width="3" stroke-linecap="round" stroke-linejoin="round"></path></g><defs><clipPath id="clip0_1_8215--inject-7"><rect width="96" height="96" fill="white"></rect></clipPath></defs></svg>