<svg width="22" height="22" viewBox="0 0 22 22" fill="none" stroke-width="2" stroke-linecap="round" xmlns="http://www.w3.org/2000/svg"><title>globe</title><path d="M11 0.5C8.82441 0.5 6.69767 1.14514 4.88873 2.35383C3.07979 3.56253 1.66989 5.28049 0.83733 7.29048C0.00476613 9.30047 -0.213071 11.5122 0.211367 13.646C0.635804 15.7798 1.68345 17.7398 3.22183 19.2782C4.76021 20.8165 6.72022 21.8642 8.85401 22.2886C10.9878 22.7131 13.1995 22.4952 15.2095 21.6627C17.2195 20.8301 18.9375 19.4202 20.1462 17.6113C21.3549 15.8023 22 13.6756 22 11.5C21.9964 8.58372 20.8363 5.78792 18.7742 3.7258C16.7121 1.66368 13.9163 0.503603 11 0.5ZM7.70545 2.25619C6.8545 3.42255 6.23099 4.73884 5.86758 6.13614H2.72278C3.91542 4.33342 5.66544 2.97071 7.70545 2.25619ZM2.25991 7.10272H5.66337C5.37535 8.38643 5.21123 9.69482 5.17327 11.0099H1.19802C1.26309 9.65069 1.61083 8.31998 2.21906 7.10272H2.25991ZM1.19802 11.9901H5.17327C5.19543 13.3272 5.35049 14.6589 5.63614 15.9653H2.25991C1.62594 14.7314 1.26384 13.3758 1.19802 11.9901ZM2.83169 16.9455H5.88119C6.23784 18.3194 6.85229 19.613 7.69184 20.7574C5.70569 20.0395 4.0022 18.7034 2.83169 16.9455ZM10.5099 21.3156L9.61139 21.2339C8.25173 20.1532 7.29316 18.6482 6.88862 16.9592H10.5099V21.3156ZM10.5099 15.979H6.65718C6.34511 14.6762 6.17621 13.3432 6.15347 12.0037H10.5099V15.979ZM10.5099 11.0235H6.15347C6.1785 9.70747 6.34279 8.39778 6.64357 7.11634H10.5099V11.0235ZM10.5099 6.13614H6.90223C7.29672 4.42399 8.25575 2.89433 9.625 1.79332C9.92451 1.79332 10.2104 1.72525 10.5235 1.69802L10.5099 6.13614ZM20.802 11.0235H16.854C16.8078 9.703 16.6346 8.39 16.3366 7.10272H19.6993C20.3377 8.31298 20.7135 9.64441 20.802 11.0099V11.0235ZM19.2092 6.13614H16.1597C15.7982 4.74481 15.1794 3.43344 14.3354 2.2698C16.3328 3.00208 18.0416 4.35767 19.2092 6.13614ZM11.4901 1.69802C11.7896 1.69802 12.1163 1.69802 12.4158 1.79332C13.7851 2.89433 14.7441 4.42399 15.1386 6.13614H11.4901V1.69802ZM11.4901 7.14356H15.3837C15.6805 8.42571 15.8448 9.73499 15.8738 11.0507H11.4901V7.14356ZM11.4901 12.0309H15.8738C15.8427 13.3698 15.6739 14.7019 15.3701 16.0062H11.4901V12.0309ZM12.4158 21.2611C12.1163 21.2611 11.8032 21.3292 11.4901 21.3564V16.9455H15.0978C14.7021 18.6283 13.7588 20.1319 12.4158 21.2203V21.2611ZM14.3354 20.7846C15.1644 19.6407 15.7738 18.3528 16.1324 16.9864H19.1683C17.9942 18.7143 16.302 20.0252 14.3354 20.7302V20.7846ZM19.7809 16.0198H16.3366C16.6202 14.713 16.7752 13.3816 16.7995 12.0446H20.7475C20.691 13.4078 20.3477 14.7437 19.7401 15.9653L19.7809 16.0198Z" fill="currentColor" stroke="none"></path></svg>