<svg xmlns="http://www.w3.org/2000/svg" width="96" height="96" viewBox="0 0 96 96" fill="none" data-inject-url="https://www.globalpayments.com/-/media/feature/gpn/enterprise-components/iconography/book.svg?rev=6c6a6968e764465e9fea5ad2f21c14a1"><mask id="path-2-inside-1_15_5838--inject-3" fill="white"><path d="M0 48C0 21.4903 21.4903 0 48 0V0C74.5097 0 96 21.4903 96 48V48C96 74.5097 74.5097 96 48 96V96C21.4903 96 0 74.5097 0 48V48Z"></path></mask><rect width="100%" height="100%" x="0" y="0" rx="100%" ry="100%" fill="#2668FF"></rect><path d="M50 47C56.6274 47 62 41.6274 62 35C62 28.3726 56.6274 23 50 23C43.3726 23 38 28.3726 38 35C38 41.6274 43.3726 47 50 47Z" fill="#14E8FF"></path><path d="M40 41L60 41" stroke="white" stroke-width="3" stroke-miterlimit="10" stroke-linecap="round"></path><path d="M40 29V27.5C39.1716 27.5 38.5 28.1716 38.5 29H40ZM60 29H61.5C61.5 28.1716 60.8284 27.5 60 27.5V29ZM60 36V37.5C60.8284 37.5 61.5 36.8284 61.5 36H60ZM40 36H38.5C38.5 36.8284 39.1716 37.5 40 37.5V36ZM40 30.5H60V27.5H40V30.5ZM58.5 29V36H61.5V29H58.5ZM60 34.5H40V37.5H60V34.5ZM41.5 36V29H38.5V36H41.5Z" fill="white"></path><path d="M37 66H45V77L41 74L37 77V66Z" stroke="white" stroke-width="3" stroke-linejoin="round"></path><path d="M49 71H68C68 71 66 69 66 66C66 63 68 61 68 61H32C29.2386 61 27 63.2386 27 66V66C27 68.7614 29.2386 71 32 71H33" stroke="white" stroke-width="3" stroke-linecap="round" stroke-linejoin="round"></path><path d="M68 61V19H32V61" stroke="white" stroke-width="3" stroke-linecap="round" stroke-linejoin="round"></path><path d="M32 19H31C28.7909 19 27 20.7909 27 23V66" stroke="white" stroke-width="3" stroke-linecap="round" stroke-linejoin="round"></path><path d="M31.5 66H50.001" stroke="white" stroke-width="3" stroke-linecap="round" stroke-linejoin="round"></path></svg>