<svg xmlns="http://www.w3.org/2000/svg" width="96" height="96" viewBox="0 0 96 96" fill="none" data-inject-url="https://www.globalpayments.com/-/media/feature/gpn/enterprise-components/iconography/painting.svg?rev=dd6c5ca054c443fd96c5ed3e241cf4db"><mask id="path-2-inside-1_15_5848--inject-9" fill="white"><path d="M0 48C0 21.4903 21.4903 0 48 0V0C74.5097 0 96 21.4903 96 48V48C96 74.5097 74.5097 96 48 96V96C21.4903 96 0 74.5097 0 48V48Z"></path></mask><rect width="100%" height="100%" x="0" y="0" rx="100%" ry="100%" fill="#2668FF"></rect><path d="M52 53C58.6274 53 64 47.6274 64 41C64 34.3726 58.6274 29 52 29C45.3726 29 40 34.3726 40 41C40 47.6274 45.3726 53 52 53Z" fill="#14E8FF"></path><path d="M77.5488 65H62.1133L43.651 46.0761C42.0948 44.481 39.5352 44.4652 37.9594 46.041L23.7907 60.2097M53.0649 65H19.0004V32H77.5488V59.6774L64.9409 47.5043C63.3713 45.9888 60.8768 46.0107 59.3341 47.5534L55.7262 51.1613" stroke="white" stroke-width="3" stroke-linecap="round" stroke-linejoin="round"></path><circle cx="52.0002" cy="40.5161" r="4.25806" stroke="white" stroke-width="3"></circle></svg>