<svg xmlns="http://www.w3.org/2000/svg" width="96" height="96" viewBox="0 0 96 96" fill="none" data-inject-url="https://www.globalpayments.com/-/media/feature/gpn/enterprise-components/iconography/craft.svg?rev=ae7808eb15854bebacfcf6dd83ce9060"><mask id="path-2-inside-1_15_5842--inject-5" fill="white"><path d="M0 48C0 21.4903 21.4903 0 48 0V0C74.5097 0 96 21.4903 96 48V48C96 74.5097 74.5097 96 48 96V96C21.4903 96 0 74.5097 0 48V48Z"></path></mask><rect width="100%" height="100%" x="0" y="0" rx="100%" ry="100%" fill="#2668FF"></rect><path d="M55 64C61.6274 64 67 58.6274 67 52C67 45.3726 61.6274 40 55 40C48.3726 40 43 45.3726 43 52C43 58.6274 48.3726 64 55 64Z" fill="#14E8FF"></path><path d="M57.5 50L76.5 36L71.75 35.25" stroke="white" stroke-width="3" stroke-linecap="round" stroke-linejoin="round"></path><path d="M25.5 32.5L15 43.25H21.6875" stroke="white" stroke-width="3" stroke-linecap="round" stroke-linejoin="round"></path><path d="M27.5 54.5L25.5 32.5L33.6 37" stroke="white" stroke-width="3" stroke-linecap="round" stroke-linejoin="round"></path><path d="M54.5 72L53.6842 73.2587C54.1677 73.5722 54.7881 73.5808 55.2803 73.2811C55.7725 72.9813 56.0494 72.4261 55.9927 71.8526L54.5 72ZM27.5 54.5L26.2929 53.6095C26.0474 53.9423 25.9502 54.3618 26.0243 54.7686C26.0983 55.1755 26.3371 55.5338 26.6842 55.7587L27.5 54.5ZM51.9927 31.3526C51.9113 30.5282 51.177 29.9258 50.3526 30.0073C49.5282 30.0887 48.9258 30.823 49.0073 31.6474L51.9927 31.3526ZM55.3158 70.7413L28.3158 53.2413L26.6842 55.7587L53.6842 73.2587L55.3158 70.7413ZM28.7071 55.3905L51.2071 24.8905L48.7929 23.1095L26.2929 53.6095L28.7071 55.3905ZM49.0073 31.6474L53.0073 72.1474L55.9927 71.8526L51.9927 31.3526L49.0073 31.6474Z" fill="white"></path><path d="M50 24H81L56.5 42.2549" stroke="white" stroke-width="3" stroke-linecap="round" stroke-linejoin="round"></path><path d="M54 66L64 61.5L57.5 58.5" stroke="white" stroke-width="3" stroke-linecap="round" stroke-linejoin="round"></path><path d="M54 66L64.5 72L64.0833 67" stroke="white" stroke-width="3" stroke-linecap="round" stroke-linejoin="round"></path></svg>