<svg xmlns="http://www.w3.org/2000/svg" width="96" height="96" viewBox="0 0 96 96" fill="none" data-inject-url="https://www.globalpayments.com/-/media/feature/gpn/enterprise-components/iconography/cosmetics.svg?rev=1bf62086059a4af2a24ca1fdd3456473"><mask id="path-2-inside-1_15_5845--inject-11" fill="white"><path d="M0 48C0 21.4903 21.4903 0 48 0V0C74.5097 0 96 21.4903 96 48V48C96 74.5097 74.5097 96 48 96V96C21.4903 96 0 74.5097 0 48V48Z"></path></mask><rect width="100%" height="100%" x="0" y="0" rx="100%" ry="100%" fill="#2668FF"></rect><path d="M46 66C52.6274 66 58 60.6274 58 54C58 47.3726 52.6274 42 46 42C39.3726 42 34 47.3726 34 54C34 60.6274 39.3726 66 46 66Z" fill="#14E8FF"></path><path d="M55 27V25.5C54.1716 25.5 53.5 26.1716 53.5 27H55ZM61 27H62.5C62.5 26.1716 61.8284 25.5 61 25.5V27ZM61 33V34.5C61.8284 34.5 62.5 33.8284 62.5 33H61ZM55 33H53.5C53.5 33.8284 54.1716 34.5 55 34.5V33ZM55 28.5H61V25.5H55V28.5ZM59.5 27V33H62.5V27H59.5ZM61 31.5H55V34.5H61V31.5ZM56.5 33V27H53.5V33H56.5Z" fill="white"></path><path d="M51 22H64.0917C64.6839 22 65.263 22.1753 65.7558 22.5038L72.5 27H51V22Z" stroke="white" stroke-width="3" stroke-linejoin="round"></path><path d="M46 54.5V39C46 35.6863 48.6863 33 52 33H64C67.3137 33 70 35.6863 70 39V74H58" stroke="white" stroke-width="3" stroke-linejoin="round"></path><path d="M24 74V41C24 39.3431 25.3431 38 27 38H35C36.6569 38 38 39.3431 38 41V54.5M34 38V32C34 30.3431 32.6569 29 31 29C29.3431 29 28 30.3431 28 32V38H34Z" stroke="white" stroke-width="3" stroke-linejoin="round"></path><path d="M30 64C30 60.6863 32.6863 58 36 58H48C51.3137 58 54 60.6863 54 64V71C54 72.6569 52.6569 74 51 74H33C31.3431 74 30 72.6569 30 71V64Z" stroke="white" stroke-width="3" stroke-linejoin="round"></path><path d="M53 54.5V50C53 47.2386 55.2386 45 58 45V45C60.7614 45 63 47.2386 63 50V57C63 59.7614 60.7614 62 58 62V62" stroke="white" stroke-width="3" stroke-linejoin="round"></path><line x1="30" y1="64.5" x2="54" y2="64.5" stroke="white" stroke-width="3"></line><line x1="24" y1="47.5" x2="38" y2="47.5" stroke="white" stroke-width="3"></line></svg>