<svg xmlns="http://www.w3.org/2000/svg" width="96" height="96" viewBox="0 0 96 96" fill="none" data-inject-url="https://www.globalpayments.com/-/media/feature/gpn/enterprise-components/iconography/table-tennis.svg?rev=d672a038c9664b8794a9f3ef4fa539bd"><mask id="path-2-inside-1_15_5840--inject-10" fill="white"><path d="M0 48C0 21.4903 21.4903 0 48 0V0C74.5097 0 96 21.4903 96 48V48C96 74.5097 74.5097 96 48 96V96C21.4903 96 0 74.5097 0 48V48Z"></path></mask><rect width="100%" height="100%" x="0" y="0" rx="100%" ry="100%" fill="#2668FF"></rect><path d="M68 71C74.6274 71 80 65.6274 80 59C80 52.3726 74.6274 47 68 47C61.3726 47 56 52.3726 56 59C56 65.6274 61.3726 71 68 71Z" fill="#14E8FF"></path><path d="M74.7989 46.2193C75.8922 38.9118 73.7649 31.3888 68.3467 25.9706C58.9741 16.598 43.3033 17.0729 33.3449 27.0312C27.3835 32.9927 24.8206 41.0013 25.7344 48.4804C30.163 52.8406 29.4558 59.2046 25.9203 62.7401C24.9529 63.7075 18.1421 70.5183 18.1421 70.5183L23.7993 76.1754C23.7993 76.1754 30.8478 69.1269 31.5774 68.3972C35.113 64.8617 41.4382 64.1928 45.8271 68.5817C49.0216 68.9733 52.3129 68.7306 55.5002 67.8596" stroke="white" stroke-width="3" stroke-linecap="round" stroke-linejoin="round"></path><path d="M45.7194 68.3969L25.9204 48.5979" stroke="white" stroke-width="3" stroke-linecap="round"></path><circle cx="68.2194" cy="59.2193" r="9" stroke="white" stroke-width="3"></circle></svg>