<svg xmlns="http://www.w3.org/2000/svg" fill="var(--color-steel-blue)" viewBox="0 0 24 24"><path d="M6 23a2.9 2.9 0 0 1-2.125-.875A2.9 2.9 0 0 1 3 20q0-1.25.875-2.125A2.9 2.9 0 0 1 6 17q.35 0 .65.075t.575.2L8.65 15.5a4.34 4.34 0 0 1-.975-1.75 4.55 4.55 0 0 1-.125-1.95l-2.025-.675q-.425.625-1.075 1T3 12.5a2.9 2.9 0 0 1-2.125-.875A2.9 2.9 0 0 1 0 9.5q0-1.25.875-2.125A2.9 2.9 0 0 1 3 6.5q1.25 0 2.125.875T6 9.5v.2l2.025.7q.5-.9 1.338-1.525a4.3 4.3 0 0 1 1.887-.8V5.9a3.1 3.1 0 0 1-1.613-1.062A2.83 2.83 0 0 1 9 3q0-1.25.875-2.125A2.9 2.9 0 0 1 12 0q1.25 0 2.125.875T15 3a2.8 2.8 0 0 1-.65 1.838q-.65.787-1.6 1.062v2.175q1.05.175 1.887.8a4.8 4.8 0 0 1 1.338 1.525L18 9.7v-.2q0-1.25.875-2.125A2.9 2.9 0 0 1 21 6.5q1.25 0 2.125.875T24 9.5t-.875 2.125A2.9 2.9 0 0 1 21 12.5q-.8 0-1.462-.375a3 3 0 0 1-1.063-1l-2.025.675q.15.975-.125 1.938a4.56 4.56 0 0 1-.975 1.762l1.425 1.75q.275-.125.575-.187.3-.063.65-.063 1.25 0 2.125.875T21 20t-.875 2.125A2.9 2.9 0 0 1 18 23a2.9 2.9 0 0 1-2.125-.875A2.9 2.9 0 0 1 15 20q0-.5.162-.962a3.2 3.2 0 0 1 .438-.838l-1.425-1.775a4.4 4.4 0 0 1-2.187.575 4.4 4.4 0 0 1-2.188-.575L8.4 18.2q.275.375.438.838T9 20q0 1.25-.875 2.125A2.9 2.9 0 0 1 6 23M3 10.5q.424 0 .712-.287A.97.97 0 0 0 4 9.5a.97.97 0 0 0-.288-.713A.97.97 0 0 0 3 8.5a.97.97 0 0 0-.712.287A.97.97 0 0 0 2 9.5q0 .424.288.713.287.287.712.287M6 21q.424 0 .713-.288A.97.97 0 0 0 7 20a.97.97 0 0 0-.287-.712A.97.97 0 0 0 6 19a.97.97 0 0 0-.713.288A.97.97 0 0 0 5 20q0 .424.287.712Q5.576 21 6 21m6-17q.424 0 .713-.288A.97.97 0 0 0 13 3a.97.97 0 0 0-.287-.712A.97.97 0 0 0 12 2a.97.97 0 0 0-.713.288A.97.97 0 0 0 11 3q0 .424.287.712Q11.576 4 12 4m0 11q1.05 0 1.775-.725T14.5 12.5t-.725-1.775T12 10t-1.775.725T9.5 12.5t.725 1.775T12 15m6 6q.424 0 .712-.288A.97.97 0 0 0 19 20a.97.97 0 0 0-.288-.712A.97.97 0 0 0 18 19a.97.97 0 0 0-.712.288A.97.97 0 0 0 17 20q0 .424.288.712.287.288.712.288m3-10.5q.424 0 .712-.287A.97.97 0 0 0 22 9.5a.97.97 0 0 0-.288-.713A.97.97 0 0 0 21 8.5a.97.97 0 0 0-.712.287A.97.97 0 0 0 20 9.5q0 .424.288.713.287.287.712.287"></path></svg>