<svg xmlns="http://www.w3.org/2000/svg" viewBox="0 0 32 32"><path d="M31.333 32H.667a.65.65 0 0 1-.472-.204.7.7 0 0 1-.195-.492c0-.184.07-.361.195-.491a.65.65 0 0 1 .472-.204h30.666c.177 0 .347.073.472.203.125.131.195.308.195.492a.7.7 0 0 1-.195.492.65.65 0 0 1-.472.204"></path><path d="M6 32a.65.65 0 0 1-.471-.204.7.7 0 0 1-.196-.492v-6.26H2.667v6.26a.73.73 0 0 1-.2.488A.67.67 0 0 1 2 32a.65.65 0 0 1-.471-.204.7.7 0 0 1-.196-.492v-6.26c0-.37.14-.724.39-.984.25-.261.59-.408.944-.408h2.666c.354 0 .693.147.943.408.25.26.39.614.39.984v6.26a.73.73 0 0 1-.198.488A.67.67 0 0 1 6 32M14 32a.65.65 0 0 1-.472-.204.7.7 0 0 1-.195-.492V18.087h-2.666v13.217a.73.73 0 0 1-.2.488A.67.67 0 0 1 10 32a.65.65 0 0 1-.471-.204.7.7 0 0 1-.196-.492V18.087c0-.369.14-.723.39-.984.25-.26.59-.407.944-.407h2.666c.354 0 .693.146.943.407s.39.615.39.984v13.217a.73.73 0 0 1-.198.488A.67.67 0 0 1 14 32M22 32a.65.65 0 0 1-.471-.204.7.7 0 0 1-.196-.492V20.87h-2.666v10.434a.73.73 0 0 1-.2.488A.67.67 0 0 1 18 32a.65.65 0 0 1-.471-.204.7.7 0 0 1-.196-.492V20.87c0-.37.14-.723.39-.984s.59-.408.944-.408h2.666c.354 0 .693.147.943.408.25.26.39.615.39.984v10.434a.73.73 0 0 1-.198.488A.67.67 0 0 1 22 32M30 32a.65.65 0 0 1-.471-.204.7.7 0 0 1-.196-.492V11.13h-2.666v20.174a.73.73 0 0 1-.2.488A.67.67 0 0 1 26 32a.65.65 0 0 1-.471-.204.7.7 0 0 1-.196-.492V11.13c0-.369.14-.723.39-.983.25-.261.59-.408.944-.408h2.666c.354 0 .693.147.943.408.25.26.39.614.39.983v20.174a.73.73 0 0 1-.198.488A.67.67 0 0 1 30 32"></path><path fill="#F60" d="M4 15.304a.68.68 0 0 1-.646-.491.72.72 0 0 1 .051-.536.7.7 0 0 1 .168-.21l6.854-5.956c.435-.38.956-.64 1.513-.752a3.2 3.2 0 0 1 1.673.112l4.96 1.726a1.9 1.9 0 0 0 1.133.046c.373-.099.712-.308.974-.603L28.173.292a.67.67 0 0 1 .474-.206.64.64 0 0 1 .473.206.7.7 0 0 1 .197.494.72.72 0 0 1-.197.494l-7.493 8.417c-.435.49-.995.84-1.615 1.004-.62.166-1.272.14-1.879-.071l-4.96-1.726a1.9 1.9 0 0 0-1.007-.073c-.336.066-.65.22-.913.45L4.4 15.248a.66.66 0 0 1-.4.055"></path><path fill="#F60" d="M28.667 6.957a.65.65 0 0 1-.472-.204A.7.7 0 0 1 28 6.26V1.39h-4.667a.65.65 0 0 1-.471-.203.7.7 0 0 1-.195-.492c0-.185.07-.362.195-.492A.65.65 0 0 1 23.333 0h5.334c.177 0 .346.073.471.204a.7.7 0 0 1 .195.492V6.26a.7.7 0 0 1-.195.492.65.65 0 0 1-.471.204"></path></svg>