<svg xmlns="http://www.w3.org/2000/svg" width="20" height="20" fill="white" viewBox="0 0 16 16"><path d="M7 0a7 7 0 1 0 .001 14.001A7 7 0 0 0 7 0m0 12.813A5.813 5.813 0 0 1 7 1.188a5.813 5.813 0 0 1 0 11.625"></path><path d="M8.744 3.948A2.63 2.63 0 0 0 7 3.313c-.656 0-1.275.226-1.744.635-.487.427-.756 1-.756 1.615v.118c0 .069.056.125.125.125h.75a.125.125 0 0 0 .125-.125v-.119c0-.689.673-1.25 1.5-1.25s1.5.561 1.5 1.25c0 .486-.344.932-.877 1.136a1.75 1.75 0 0 0-1.125 1.654v.335c0 .07.057.126.125.126h.75a.125.125 0 0 0 .125-.126v-.354a.755.755 0 0 1 .483-.7c.922-.355 1.517-1.167 1.517-2.07.002-.615-.267-1.188-.754-1.615m-2.369 6.49a.625.625 0 1 0 1.25 0 .625.625 0 0 0-1.25 0"></path></svg>