<svg xmlns="http://www.w3.org/2000/svg" viewBox="0 0 32 32"><path d="M30.594 18.526H13.21a.64.64 0 0 1-.492-.246.94.94 0 0 1-.203-.596.94.94 0 0 1 .203-.595.64.64 0 0 1 .492-.247h17.383V1.684H6.954v5.053a.94.94 0 0 1-.204.595.64.64 0 0 1-.492.247.64.64 0 0 1-.492-.247.94.94 0 0 1-.203-.595V1.684c0-.446.146-.875.407-1.19C6.23.176 6.584 0 6.953 0h23.64c.37 0 .723.177.984.493s.407.745.407 1.191v15.158c0 .447-.146.875-.407 1.191-.26.316-.614.493-.983.493"></path><path d="M31.303 7.579a.65.65 0 0 1-.501-.253l-4.867-5.894a.94.94 0 0 1-.199-.59c0-.22.071-.432.199-.59a.7.7 0 0 1 .226-.184.6.6 0 0 1 .535 0 .7.7 0 0 1 .226.185l4.867 5.894c.096.118.16.267.186.429s.013.33-.04.482a.83.83 0 0 1-.251.375.6.6 0 0 1-.381.146M6.271 7.579a.65.65 0 0 1-.5-.253.94.94 0 0 1-.2-.59c0-.22.072-.431.2-.589L10.638.253a.7.7 0 0 1 .226-.185.6.6 0 0 1 .535 0 .7.7 0 0 1 .226.185c.067.075.12.167.156.268a.96.96 0 0 1 0 .642.8.8 0 0 1-.156.269L6.758 7.326a.7.7 0 0 1-.222.186.6.6 0 0 1-.265.067M26.435 18.526a.65.65 0 0 1-.5-.252.94.94 0 0 1-.199-.59c0-.22.071-.432.199-.59l4.867-5.894a.7.7 0 0 1 .226-.184.59.59 0 0 1 .535 0 .7.7 0 0 1 .226.184q.101.115.156.268a.96.96 0 0 1 0 .643.8.8 0 0 1-.156.268l-4.867 5.895a.7.7 0 0 1-.222.186.6.6 0 0 1-.265.066M4.867 22.737a.6.6 0 0 1-.376-.139.8.8 0 0 1-.25-.366 1 1 0 0 1-.016-.643.8.8 0 0 1 .364-.469l3.17-1.684c.435-.415.72-1.02.793-1.684l.5-3.605a.96.96 0 0 1 .279-.555l4.283-3.706a.74.74 0 0 0 .219-.29.9.9 0 0 0 .073-.383v-.96a1 1 0 0 0-.072-.388.8.8 0 0 0-.214-.302.6.6 0 0 0-.306-.146.57.57 0 0 0-.326.044L7.272 9.937c-1.352.581-2.61 1.448-3.712 2.56l-2.42 2.442a.62.62 0 0 1-.507.183.67.67 0 0 1-.467-.301.9.9 0 0 1-.133-.285 1 1 0 0 1 .046-.64.8.8 0 0 1 .17-.254l2.42-2.341c1.24-1.245 2.653-2.215 4.172-2.863l5.702-2.46c.314-.138.651-.182.983-.129.331.054.647.203.92.437s.496.543.649.903.231.76.23 1.165v.96c0 .4-.079.795-.229 1.152a2.5 2.5 0 0 1-.634.902l-4.06 3.504-.473 3.166a4.8 4.8 0 0 1-.51 1.595 3.95 3.95 0 0 1-.992 1.218L5.145 22.67a.6.6 0 0 1-.278.067M.695 32a.6.6 0 0 1-.324-.098.75.75 0 0 1-.246-.273 1 1 0 0 1-.107-.306 1 1 0 0 1 0-.332 1 1 0 0 1 .106-.307.8.8 0 0 1 .195-.233l3.115-2.527c.802-.637 1.74-.977 2.698-.977h9.86a.64.64 0 0 1 .491.247.94.94 0 0 1 .204.596.94.94 0 0 1-.204.595.64.64 0 0 1-.491.247h-9.86c-.688-.005-1.362.242-1.933.707l-3.115 2.526a.66.66 0 0 1-.39.135"></path><path d="M19.858 28.632h-3.866a.64.64 0 0 1-.491-.247.94.94 0 0 1-.204-.596.94.94 0 0 1 .204-.595.64.64 0 0 1 .491-.247h3.866c.147 0 .29-.055.409-.158a.86.86 0 0 0 .259-.414l2.461-8.96a.9.9 0 0 1 .136-.286.7.7 0 0 1 .215-.201.585.585 0 0 1 .532-.044.7.7 0 0 1 .236.164.9.9 0 0 1 .166.261 1 1 0 0 1 .036.645l-2.475 8.943a2.56 2.56 0 0 1-.756 1.253c-.355.312-.781.48-1.219.482"></path><path d="M22.264 23.579h-6.258a.64.64 0 0 1-.492-.247.94.94 0 0 1-.204-.595.94.94 0 0 1 .204-.596.64.64 0 0 1 .492-.246h6.258a.64.64 0 0 1 .491.246.94.94 0 0 1 .204.596.94.94 0 0 1-.204.595.64.64 0 0 1-.491.247"></path><path d="M17.383 23.579c-.738 0-1.445-.355-1.967-.987-.521-.631-.814-1.488-.814-2.381 0-.894.293-1.75.814-2.382.522-.632 1.23-.987 1.967-.987a.64.64 0 0 1 .492.247.94.94 0 0 1 .203.595.94.94 0 0 1-.203.596.64.64 0 0 1-.492.246c-.369 0-.723.178-.983.494a1.88 1.88 0 0 0-.408 1.19c0 .447.147.876.408 1.191.26.316.614.494.983.494a.64.64 0 0 1 .492.246.94.94 0 0 1 .203.596.94.94 0 0 1-.203.595.64.64 0 0 1-.492.247"></path><path d="M15.992 28.632c-.737 0-1.445-.355-1.966-.987-.522-.632-.815-1.488-.815-2.382 0-.893.293-1.75.815-2.382.521-.631 1.229-.986 1.966-.986a.64.64 0 0 1 .492.246.94.94 0 0 1 .204.596.94.94 0 0 1-.204.595.64.64 0 0 1-.492.247c-.369 0-.722.177-.983.493a1.88 1.88 0 0 0-.407 1.191c0 .447.146.875.407 1.191.26.316.614.493.983.493a.64.64 0 0 1 .492.247.94.94 0 0 1 .204.596.94.94 0 0 1-.204.595.64.64 0 0 1-.492.247"></path><path fill="#F60" d="M20.178 15.158a.64.64 0 0 1-.492-.247.94.94 0 0 1-.204-.595v-1.684a.94.94 0 0 1 .204-.596.64.64 0 0 1 .491-.246.64.64 0 0 1 .492.246.94.94 0 0 1 .204.596v1.684a.94.94 0 0 1-.204.595.64.64 0 0 1-.492.247M20.178 6.737a.64.64 0 0 1-.492-.247.94.94 0 0 1-.204-.595V4.21a.94.94 0 0 1 .204-.596.64.64 0 0 1 .491-.247.64.64 0 0 1 .492.247.94.94 0 0 1 .204.596v1.684a.94.94 0 0 1-.204.595.64.64 0 0 1-.492.247"></path><path fill="#F60" d="M21.555 13.474h-4.172a.64.64 0 0 1-.492-.247.94.94 0 0 1-.203-.595.94.94 0 0 1 .203-.596.64.64 0 0 1 .492-.246h4.172a.64.64 0 0 0 .491-.247.94.94 0 0 0 .204-.596.94.94 0 0 0-.204-.595.64.64 0 0 0-.491-.247h-2.782c-.553 0-1.083-.266-1.474-.74-.392-.473-.611-1.116-.611-1.786s.22-1.313.61-1.786c.392-.474.922-.74 1.476-.74h4.171a.64.64 0 0 1 .492.246.94.94 0 0 1 .204.596.94.94 0 0 1-.204.595.64.64 0 0 1-.492.247h-4.172a.64.64 0 0 0-.491.247.94.94 0 0 0-.204.595.94.94 0 0 0 .204.595.64.64 0 0 0 .491.247h2.782c.553 0 1.084.266 1.475.74.39.474.61 1.116.61 1.786s-.22 1.313-.61 1.787c-.391.473-.922.74-1.475.74"></path></svg>