<svg xmlns="http://www.w3.org/2000/svg" width="52" height="52" viewBox="0 0 52 52" fill="none" data-src="https://icm.aexp-static.com/Internet/Acquisition/US_en/AppContent/OneSite/Data/SVG/dls/dls-icon-check-banking-subnav.svg" xmlns:xlink="http://www.w3.org/1999/xlink" role="img"><path d="M48.75 11.375C49.579 11.375 50.3766 11.6917 50.9798 12.2604C51.5829 12.8291 51.946 13.6068 51.9946 14.4343L52 14.625V37.375C52 38.204 51.6833 39.0016 51.1146 39.6048C50.5459 40.2079 49.7682 40.5709 48.9407 40.6196L48.75 40.625H3.25C2.42102 40.625 1.62336 40.3083 1.02022 39.7396C0.417076 39.1709 0.0540501 38.3932 0.00541667 37.5657L5.04882e-09 37.375V14.625C-4.61735e-05 13.796 0.316686 12.9984 0.885391 12.3952C1.4541 11.7921 2.23178 11.4291 3.05933 11.3804L3.25 11.375H48.75ZM48.75 14.625H3.25V37.375H48.75V14.625ZM25.4583 30.875C25.8893 30.875 26.3026 31.0462 26.6074 31.351C26.9121 31.6557 27.0833 32.069 27.0833 32.5C27.0833 32.931 26.9121 33.3443 26.6074 33.649C26.3026 33.9538 25.8893 34.125 25.4583 34.125H8.125C7.69402 34.125 7.2807 33.9538 6.97595 33.649C6.6712 33.3443 6.5 32.931 6.5 32.5C6.5 32.069 6.6712 31.6557 6.97595 31.351C7.2807 31.0462 7.69402 30.875 8.125 30.875H25.4583ZM45.0244 28.1006C45.3087 28.385 45.4775 28.7647 45.4981 29.1663C45.5188 29.5679 45.3897 29.9628 45.136 30.2748L45.0244 30.3983L41.8123 33.6104C41.5184 33.9042 41.126 34.0785 40.711 34.0997C40.296 34.121 39.8878 33.9875 39.5655 33.7253L39.4377 33.6104L37.3739 31.5478L35.2744 33.6494C34.99 33.9337 34.6103 34.1025 34.2087 34.1231C33.8071 34.1438 33.4122 34.0147 33.1002 33.761L32.9767 33.6494C32.6923 33.365 32.5235 32.9853 32.5029 32.5837C32.4823 32.1821 32.6114 31.7872 32.8651 31.4752L32.9767 31.3517L36.1888 28.1396C36.4827 27.8458 36.8751 27.6715 37.2901 27.6503C37.7051 27.629 38.1132 27.7625 38.4356 28.0248L38.5634 28.1396L40.6261 30.2012L42.7267 28.1006C43.0314 27.7959 43.4447 27.6248 43.8755 27.6248C44.3064 27.6248 44.7197 27.7959 45.0244 28.1006V28.1006ZM15.7083 24.375C16.1393 24.375 16.5526 24.5462 16.8574 24.851C17.1621 25.1557 17.3333 25.569 17.3333 26C17.3333 26.431 17.1621 26.8443 16.8574 27.149C16.5526 27.4538 16.1393 27.625 15.7083 27.625H8.125C7.69402 27.625 7.2807 27.4538 6.97595 27.149C6.6712 26.8443 6.5 26.431 6.5 26C6.5 25.569 6.6712 25.1557 6.97595 24.851C7.2807 24.5462 7.69402 24.375 8.125 24.375H15.7083ZM27.625 17.875C28.056 17.875 28.4693 18.0462 28.774 18.351C29.0788 18.6557 29.25 19.069 29.25 19.5C29.25 19.931 29.0788 20.3443 28.774 20.649C28.4693 20.9538 28.056 21.125 27.625 21.125H8.125C7.69402 21.125 7.2807 20.9538 6.97595 20.649C6.6712 20.3443 6.5 19.931 6.5 19.5C6.5 19.069 6.6712 18.6557 6.97595 18.351C7.2807 18.0462 7.69402 17.875 8.125 17.875H27.625ZM43.875 17.875C44.306 17.875 44.7193 18.0462 45.0241 18.351C45.3288 18.6557 45.5 19.069 45.5 19.5C45.5 19.931 45.3288 20.3443 45.0241 20.649C44.7193 20.9538 44.306 21.125 43.875 21.125H37.375C36.944 21.125 36.5307 20.9538 36.226 20.649C35.9212 20.3443 35.75 19.931 35.75 19.5C35.75 19.069 35.9212 18.6557 36.226 18.351C36.5307 18.0462 36.944 17.875 37.375 17.875H43.875Z" fill="#006FCF"></path></svg>