<svg xmlns="http://www.w3.org/2000/svg" width="52" height="52" viewBox="0 0 52 52" data-src="https://icm.aexp-static.com/Internet/Acquisition/US_en/AppContent/OneSite/Data/SVG/dls/dls-icon-more.svg" xmlns:xlink="http://www.w3.org/1999/xlink" role="img"><path d="M26 23a3 3 0 1 0 0 6 3 3 0 0 0 0-6zM35 23a3 3 0 1 0 0 6 3 3 0 0 0 0-6zM17 23a3 3 0 1 0 0 6 3 3 0 0 0 0-6z"></path><path d="M26 2C12.745 2 2 12.745 2 26s10.745 24 24 24 24-10.745 24-24S39.255 2 26 2zm0 45C14.42 47 5 37.58 5 26S14.42 5 26 5s21 9.42 21 21-9.42 21-21 21z"></path></svg>