<svg xmlns="http://www.w3.org/2000/svg" width="52" height="52" viewBox="0 0 52 52" fill="none" data-src="https://icm.aexp-static.com/Internet/Acquisition/US_en/AppContent/OneSite/Data/SVG/dls/dls-icon-bank-subnav.svg" xmlns:xlink="http://www.w3.org/1999/xlink" role="img"><path fill-rule="evenodd" clip-rule="evenodd" d="M26.8168 3.47666C26.2556 3.14432 25.5501 3.17973 25.025 3.56658L25.0358 3.56874L4.4525 18.7354L4.33658 18.8286C3.23375 19.7927 3.9 21.6669 5.41667 21.6669H8.125V45.5002H4.875C3.97754 45.5002 3.25 46.2278 3.25 47.1252C3.25 48.0227 3.97754 48.7502 4.875 48.7502H47.125C48.0225 48.7502 48.75 48.0227 48.75 47.1252C48.75 46.2278 48.0225 45.5002 47.125 45.5002H43.875V21.6669H46.5833L46.7209 21.6604C48.1813 21.5391 48.7576 19.6324 47.5356 18.7332L26.9523 3.56658L26.8168 3.47666ZM37.375 21.6667H40.625V45.5H37.375V21.6667ZM34.125 21.6667H30.875V45.5H34.125V21.6667ZM24.375 45.5V21.6667H27.625V45.5H24.375ZM21.125 21.6667H17.875V45.5H21.125V21.6667ZM11.375 21.6667H14.625V45.5H11.375V21.6667ZM26.0006 6.89245L10.3606 18.4169H41.6396L26.0006 6.89245ZM28.1667 13.5417C28.1667 12.3451 27.1966 11.375 26 11.375C24.8034 11.375 23.8333 12.3451 23.8333 13.5417C23.8333 14.7383 24.8034 15.7084 26 15.7084C27.1966 15.7084 28.1667 14.7383 28.1667 13.5417Z" fill="#006FCF"></path></svg>