<svg xmlns="http://www.w3.org/2000/svg" width="52" height="52" viewBox="0 0 52 52" fill="none" data-src="https://icm.aexp-static.com/Internet/Acquisition/US_en/AppContent/OneSite/Data/SVG/dls/dls-icon-statement-ready-subnav.svg" xmlns:xlink="http://www.w3.org/1999/xlink" role="img"><path fill-rule="evenodd" clip-rule="evenodd" d="M32.5 0.0182957V0.000244141H9.75L9.55978 0.00578853C7.85994 0.105121 6.5 1.52656 6.5 3.25024V48.7501L6.50554 48.9403C6.60488 50.6402 8.02638 52.0001 9.75 52.0001H42.25L42.4402 51.9946C44.1401 51.8952 45.5 50.4738 45.5 48.7501V13.0002H45.4813L45.4629 12.8392C45.4119 12.5188 45.2742 12.2104 45.0271 11.9634L33.5368 0.472549L33.4084 0.358001C33.1422 0.146706 32.8231 0.0409659 32.5 0.0182957ZM9.75 3.25024H29.25V13.0001L29.2555 13.1903C29.3549 14.8902 30.7763 16.2501 32.5 16.2501H42.25V48.7501H9.75V3.25024ZM23.8522 31.7359L31.8136 22.247C32.3902 21.5604 33.4143 21.4694 34.103 22.047C34.7477 22.5876 34.867 23.5224 34.4043 24.2037L34.304 24.3364L25.2141 35.1692C24.9283 35.5097 24.5329 35.7038 24.1224 35.7427L23.9679 35.75L23.9536 35.7472L23.9436 35.75C23.5798 35.75 23.216 35.6285 22.9181 35.3856L22.7946 35.274L17.7948 30.2741C17.16 29.6399 17.16 28.6105 17.7948 27.9763C18.3899 27.3812 19.3309 27.344 19.9692 27.8647L20.0926 27.9763L23.8522 31.7359ZM32.5 13.0007V4.03216L41.4682 13.0007H32.5Z" fill="#006FCF"></path></svg>