<svg xmlns="http://www.w3.org/2000/svg" width="52" height="52" viewBox="0 0 52 52" data-src="https://icm.aexp-static.com/Internet/Acquisition/US_en/AppContent/OneSite/Data/SVG/dls/dls-icon-membership.svg" xmlns:xlink="http://www.w3.org/1999/xlink" role="img"><path d="M45.32 12.491l-17.258-9.94a4.198 4.198 0 0 0-4.124 0L6.68 12.491a4.132 4.132 0 0 0-2.064 3.57v19.88a4.13 4.13 0 0 0 2.065 3.568l17.257 9.94a4.138 4.138 0 0 0 4.125 0l17.255-9.94a4.128 4.128 0 0 0 2.066-3.569V16.06a4.131 4.131 0 0 0-2.065-3.569zm-.936 23.45c0 .397-.215.769-.563.968l-17.256 9.94a1.153 1.153 0 0 1-1.13 0L8.179 36.91c-.346-.199-.562-.57-.562-.969V16.06c0-.398.216-.77.562-.97l17.258-9.94a1.132 1.132 0 0 1 1.129 0l17.256 9.94c.347.2.563.572.563.97v19.88z"></path><path d="M35.164 28.488a149.274 149.274 0 0 0-4.338-2.524c-.038-.1-.09-.266-.15-.518 2.254-2.68 1.796-6.965 1.78-7.071C32.228 13.669 28.908 12 26.135 12h-.281c-2.775 0-6.097 1.67-6.317 6.277-.023.196-.48 4.472 1.759 7.153-.06.267-.108.435-.144.538-.663.37-2.472 1.39-4.33 2.52-2.288 1.389-2.708 3.099-2.818 4.59l-.01.132.014.132c.157 1.515 1.408 2.658 2.91 2.658h18.15c1.51 0 2.761-1.15 2.91-2.676l.012-.126-.009-.127c-.107-1.496-.527-3.21-2.817-4.583zM17.02 33.033c.097-.855.367-1.378 1.359-1.98 2.264-1.376 4.454-2.588 4.453-2.588.87-.45 1.22-1.445 1.457-2.708l.032-.117c.03-.105.051-.183.09-.372l.175-.865-.67-.574c-1.477-1.262-1.51-4.192-1.391-5.309.154-3.173 2.374-3.519 3.377-3.519h.003l.145.004.085-.005c1.177 0 3.177.458 3.333 3.618.108.948.084 3.943-1.399 5.211l-.617.528.105.805c.03.234.06.357.094.48.303 1.59.752 2.434 1.467 2.805a140.64 140.64 0 0 1 4.496 2.61c.989.592 1.252 1.089 1.349 1.943l-17.943.033z"></path></svg>