<svg viewBox="0 0 48 48" xmlns="http://www.w3.org/2000/svg" aria-hidden="false" role="img" width="1em" height="1em"><title>Search</title><path d="M44.56 42.44L32.174 30.053a16.5 16.5 0 00-1.007-22.22C27.945 4.61 23.723 3 19.5 3S11.055 4.61 7.833 7.833c-6.444 6.444-6.444 16.89 0 23.334A16.443 16.443 0 0019.5 36c3.753 0 7.503-1.28 10.553-3.826L42.44 44.56a1.496 1.496 0 002.12 0 1.5 1.5 0 000-2.121zM9.954 29.046A13.41 13.41 0 016 19.5a13.41 13.41 0 013.954-9.546A13.41 13.41 0 0119.5 6a13.41 13.41 0 019.546 3.954A13.41 13.41 0 0133 19.5a13.41 13.41 0 01-3.954 9.546A13.41 13.41 0 0119.5 33a13.41 13.41 0 01-9.546-3.954z"></path></svg>