<svg xmlns="http://www.w3.org/2000/svg" width="48" height="48" viewBox="0 0 48 48" data-src="https://icm.aexp-static.com/Internet/Acquisition/US_en/AppContent/OneSite/Data/SVG/dls/dls-icon-autopay.svg" xmlns:xlink="http://www.w3.org/1999/xlink" role="img"><path d="M46.2 21.8c.1.7.1 1.5.1 2.2 0 9-5.4 17-13.7 20.5s-17.8 1.7-24.2-4.6l-2-2v2.4c0 .5-.3 1-.7 1.3-.5.3-1 .3-1.5 0s-.7-.7-.7-1.3v-5.9c.1-.8.7-1.4 1.5-1.4h5.9c.8 0 1.5.7 1.5 1.5s-.7 1.5-1.5 1.5H8.5l2 2c5.6 5.4 13.9 7 21 4 7.2-3 11.9-10 11.9-17.8 0-.9 0-.9-.1-1.9-.1-.8.5-1.5 1.3-1.6.8-.3 1.5.3 1.6 1.1zM4.7 26c0 .4-.1.8-.3 1.1-.2.3-.6.5-1 .5h-.1c-.7 0-1.4-.6-1.4-1.3-.1-.8-.1-1.5-.1-2.3 0-9 5.4-17.1 13.6-20.5s17.8-1.7 24.2 4.6l2 2V7.7c0-.8.7-1.5 1.5-1.5s1.5.7 1.5 1.5v5.9c0 .8-.7 1.5-1.5 1.5h-5.9c-.8 0-1.5-.7-1.5-1.5s.7-1.5 1.5-1.5h2.4l-2-2c-5.6-5.4-13.9-7-21-4S4.6 16.2 4.6 24c0 .7.1 1.3.1 2z"></path><path d="M31.6 28.8c0 2.9-2.5 5.1-6.2 5.5v2.1c0 .8-.7 1.5-1.5 1.5s-1.5-.7-1.5-1.5v-2.1c-2.8-.4-5.3-2.3-6.2-5l-.1-.3c0-.1-.1-.3-.1-.4 0-.6.4-1.1 1-1.2.6-.1 1.2.1 1.4.7l.1.2c.8 2.4 3.2 3.9 5.7 3.8 2.9 0 4.7-1.1 4.7-3s-1.1-2.7-5.1-3.9c-4.1-1.2-7-2.3-7-5.8 0-2.7 2.3-4.8 5.5-5.2V12c0-.8.7-1.5 1.5-1.5s1.5.7 1.5 1.5v2.1c2.5.3 4.7 1.9 5.7 4.3l.1.1c.2.4.1.8-.1 1.2-.2.3-.7.6-1.1.6-.4 0-.8-.2-1-.6l-.1-.2c-.9-2.1-3-3.3-5.2-3.2-2.4 0-4 1.1-4 2.7 0 1.9 1.2 2.6 5.3 3.8 4.3 1.3 6.7 2.6 6.7 6z"></path></svg>