<svg xmlns="http://www.w3.org/2000/svg" width="52" height="52" viewBox="0 0 52 52" data-src="https://icm.aexp-static.com/Internet/Acquisition/US_en/AppContent/OneSite/Data/SVG/dls/dls-icon-cards.svg" xmlns:xlink="http://www.w3.org/1999/xlink" role="img"><path d="M45 6a3 3 0 0 1 3 3v24a3 3 0 0 1-3 3h-3v3a3 3 0 0 1-3 3H3a3 3 0 0 1-3-3V15a3 3 0 0 1 3-3h3V9a3 3 0 0 1 3-3h36zm-6 15H3v18h36V21zm-24 4a3 3 0 0 1 3 3v3a3 3 0 0 1-3 3H9a3 3 0 0 1-3-3v-3a3 3 0 0 1 3-3h6zM45 9H9v3h30a3 3 0 0 1 3 3v18h3V9zM15 28H9v3h6v-3zm24-13H3v3h36v-3z"></path></svg>