<svg xmlns="http://www.w3.org/2000/svg" width="52" height="52" viewBox="0 0 52 52" data-src="https://icm.aexp-static.com/Internet/Acquisition/US_en/AppContent/OneSite/Data/SVG/dls/dls-icon-card-swipe.svg" xmlns:xlink="http://www.w3.org/1999/xlink" role="img"><path d="M32 10.866V5c0-1.65-1.35-3-3-3H11C9.35 2 8 3.35 8 5v27c0 1.65 1.35 3 3 3h7.28c.326 2.936 1.113 6.504 3.607 8.77.054.05.13.112.22.187.355.293.577.509.658.644v1.766C22.765 48.047 24.178 50 26 50h15c1.654 0 3-1.346 3-3V24.046c.05-1.075-.572-5.492-12-13.18zM27 24c0-2.481-2.019-4.5-4.5-4.5S18 21.519 18 24v8h-2V5h13v27h-1.273L27 24zM11 5h2v27h-2V5zm30 42H26.112c-.151-.121-.345-.466-.347-.633V44.5c0-1.417-1.183-2.39-1.751-2.86l-.11-.091c-1.692-1.536-2.312-4.153-2.601-6.549a50.674 50.674 0 0 1-.237-2.651c-.008-.126-.016-.23-.025-.349-.013-.196-.027-.397-.041-.574V24c0-.827.673-1.5 1.5-1.5s1.5.673 1.5 1.5l1 11h4c1.65 0 3-1.35 3-3V14.513c8.076 5.749 8.913 8.904 8.994 9.376-.01.04.006.007.006.111v23z"></path></svg>