<svg xmlns="http://www.w3.org/2000/svg" width="52" height="52" viewBox="0 0 52 52" data-src="https://icm.aexp-static.com/Internet/Acquisition/US_en/AppContent/OneSite/Data/SVG/dls/dls-icon-fraud-protection.svg" xmlns:xlink="http://www.w3.org/1999/xlink" role="img"><path d="M12.027 10.522c.088-.056 8.85-5.66 19.035.054a1.502 1.502 0 0 0 2.043-.574 1.5 1.5 0 0 0-.575-2.042c-11.762-6.598-21.73-.22-22.149.054a1.5 1.5 0 1 0 1.646 2.508z"></path><path d="M5.65 21.216a1.5 1.5 0 0 0 2.086-.387c.05-.072 5.046-7.248 13.627-6.831h.001c.09 0 4.593.021 8.83 2.321a1.5 1.5 0 0 0 1.432-2.637c-4.957-2.69-10.08-2.68-10.2-2.683-10.118-.46-15.92 7.78-16.162 8.131a1.5 1.5 0 0 0 .386 2.086z"></path><path d="M14.137 22.603c.055-.043 5.613-4.261 11.983-1.651a1.5 1.5 0 1 0 1.137-2.777c-7.944-3.258-14.674 1.837-15.01 2.1-8.674 7.383-7.12 17.266-7.049 17.683a1.5 1.5 0 1 0 2.958-.5c-.014-.085-1.356-8.607 5.98-14.855z"></path><path d="M23.523 24.68a1.5 1.5 0 0 0-1.32-1.66c-.522-.06-.84-.062-.84-.062-.07-.006-.15.004-.218.014-7.07.948-8.946 6.626-8.994 6.785-2.62 6.864 1.662 15.737 1.846 16.111a1.499 1.499 0 0 0 2.006.687 1.5 1.5 0 0 0 .688-2.006c-.039-.08-3.89-8.084-1.709-13.804.013-.04 1.335-4.037 6.437-4.783.094.006.247.017.444.039a1.5 1.5 0 0 0 1.66-1.32z"></path><path d="M20.009 30.505a1.501 1.501 0 0 0-2.029.62c-2.007 3.775-.209 9.107-.13 9.332a1.499 1.499 0 0 0 2.837-.975c-.408-1.196-1.213-4.776-.058-6.949a1.5 1.5 0 0 0-.62-2.028zM44 26h-3v-2.993c0-3.308-2.691-6-6-6s-6 2.692-6 6V26h-3c-1.65 0-3 1.35-3 3v15c0 1.65 1.35 3 3 3h18c1.65 0 3-1.35 3-3V29c0-1.65-1.35-3-3-3zm-12-2.993c0-1.654 1.346-3 3-3s3 1.346 3 3v2.986h-6v-2.986zM44 44H26V29h18v15z"></path><path d="M33.5 35.916V39.5a1.5 1.5 0 0 0 3 0v-3.584c.457-.412.75-1.002.75-1.666a2.25 2.25 0 1 0-4.5 0c0 .664.293 1.254.75 1.666z"></path></svg>