<svg xmlns="http://www.w3.org/2000/svg" viewBox="0 0 48 48" data-src="https://icm.aexp-static.com/Internet/Acquisition/US_en/AppContent/OneSite/Data/SVG/dls/dls-icon-medal.svg" xmlns:xlink="http://www.w3.org/1999/xlink" role="img"><path fill="#006FCF" d="M24 1c9.94 0 18 8.06 18 18 0 3.438-.964 6.65-2.636 9.383l7.295 8.72c.768.918.163 2.308-1.043 2.393l-6.52.458-1.385 5.908a1.5 1.5 0 0 1-2.602.598l-8.07-9.717a18.12 18.12 0 0 1-6.08 0l-8.07 9.717c-.754.907-2.2.613-2.566-.47l-.036-.128-1.385-5.908-6.52-.458c-1.16-.082-1.765-1.373-1.122-2.29l.08-.104 7.295-8.72C6.964 25.65 6 22.438 6 19 6 9.06 14.06 1 24 1zM10.44 30.836l-4.968 5.94 4.74.333c.605.043 1.118.44 1.306 1l.037.132.95 4.053 5.305-6.388a18.03 18.03 0 0 1-7.371-5.071zm19.75 5.07l5.305 6.388.95-4.053a1.48 1.48 0 0 1 1.344-1.132l4.74-.333-4.968-5.94a18.03 18.03 0 0 1-7.371 5.071zM24 4C15.716 4 9 10.716 9 19s6.716 15 15 15 15-6.716 15-15S32.284 4 24 4zm1.146 4.71l2.707 5.472 6.052.877c1.048.152 1.466 1.437.708 2.174l-4.38 4.26 1.034 6.014a1.28 1.28 0 0 1-1.854 1.344L24 26.01l-5.413 2.84a1.28 1.28 0 0 1-1.854-1.344l1.034-6.014-4.38-4.26c-.758-.737-.34-2.022.708-2.174l6.052-.877 2.707-5.472a1.28 1.28 0 0 1 2.291 0zM24 12l-2.163 4.28-4.837.686 3.5 3.33L19.674 25 24 22.78 28.326 25l-.826-4.703 3.5-3.33-4.837-.686L24 12z"></path></svg>