<svg viewBox="0 0 48 48" xmlns="http://www.w3.org/2000/svg" aria-hidden="true" width="1em" height="1em"><path d="M45 41.92c-.204-2.764-1.019-4.793-4.204-6.654-4.653-2.758-9.09-5.149-9.09-5.149-.726-.367-1.195-2.22-1.437-3.461-.063-.25-.114-.396-.162-.764 4.848-4.045 3.83-12.733 3.83-12.733-.485-9.745-9.066-9.7-9.938-9.653-.824-.046-9.453-.092-9.938 9.653 0 0-1.018 8.688 3.83 12.733-.084.404-.112.443-.209.81-.242 1.242-.664 3.048-1.39 3.415 0 0-4.435 2.39-9.089 5.149C4.055 37.13 3.209 39.165 3 41.938a2.856 2.856 0 002.837 2.561h36.324a2.856 2.856 0 002.84-2.58z"></path></svg>