<svg viewBox="0 0 48 48" xmlns="http://www.w3.org/2000/svg" aria-hidden="true" width="1em" height="1em"><path d="M28.78 11.574l7.084-4.107c3.007-1.743 8.03-1.565 9.623 1.206s-.764 7.228-3.77 8.97L34.63 21.75l-2.536 19.04a3.42 3.42 0 01-1.67 2.509l-2.143 1.242c-1.634.947-3.722.375-4.667-1.27a3.458 3.458 0 01-.46-1.7l-.116-13.75-4.122 2.082-2.353 6.49c-.13.7-.56 1.327-1.183 1.687l-1.28.743a2.79 2.79 0 01-3.817-1.036 2.83 2.83 0 01-.347-1l-.163-6.88-5.758-4.73a2.87 2.87 0 01-.356-4.018c.213-.256.47-.472.756-.64l1.28-.743a2.437 2.437 0 012.046-.185l6.145 1.564 3.547-2.34-11.506-7.11a3.536 3.536 0 01-1.17-4.824c.303-.503.728-.92 1.234-1.215L8.1 4.457a3.39 3.39 0 012.999-.198l17.7 7.315z"></path></svg>