<svg fill="none" height="216" viewBox="0 0 440 216" width="440" xmlns="http://www.w3.org/2000/svg" xmlns:xlink="http://www.w3.org/1999/xlink"><clipPath id="a"><path d="m0 16c0-8.83655 7.16344-16 16-16h408c8.837 0 16 7.16344 16 16v184c0 8.837-7.163 16-16 16h-408c-8.83654 0-16-7.163-16-16z"/></clipPath><clipPath id="b"><path d="m24 152h392v8h-392z"/></clipPath><g clip-path="url(#a)"><path d="m0 16c0-8.83655 7.16344-16 16-16h408c8.837 0 16 7.16344 16 16v184c0 8.837-7.163 16-16 16h-408c-8.83654 0-16-7.163-16-16z" fill="#000"/><g fill="#fff"><path d="m33.716 37.766c-.112.56-.3033 1.0547-.574 1.484-.2613.42-.5833.7747-.966 1.064s-.8167.5087-1.302.658c-.4853.14-1.0033.21-1.554.21-.728 0-1.3767-.1307-1.946-.392s-1.0547-.6253-1.456-1.092c-.392-.4667-.6907-1.022-.896-1.666s-.308-1.3533-.308-2.128c0-.784.112-1.498.336-2.142s.5413-1.1947.952-1.652.9053-.812 1.484-1.064 1.2273-.378 1.946-.378c.5227 0 1.0173.0793 1.484.238.4667.1493.882.3687 1.246.658.3733.2893.686.6487.938 1.078.2613.42.448.9007.56 1.442h-1.386c-.0747-.3173-.196-.6113-.364-.882-.1587-.2707-.3593-.504-.602-.7s-.5273-.35-.854-.462-.6907-.168-1.092-.168c-.448 0-.868.0887-1.26.266-.3827.168-.7187.4247-1.008.77-.2893.336-.518.756-.686 1.26-.1587.504-.238 1.0827-.238 1.736 0 .644.0793 1.218.238 1.722s.3827.9333.672 1.288c.2893.3453.63.6113 1.022.798.392.1773.826.266 1.302.266.812 0 1.4607-.2053 1.946-.616.4947-.4107.8213-.9427.98-1.596zm6.2102-.392c-.5787.056-1.1013.126-1.568.21-.4667.0747-.8633.1727-1.19.294-.3267.112-.5787.2613-.756.448-.1773.1773-.266.3967-.266.658 0 .3547.126.644.378.868.2613.2147.6207.322 1.078.322.2987 0 .588-.0373.868-.112.28-.084.5273-.2193.742-.406.2147-.196.3873-.4573.518-.784s.196-.742.196-1.246zm-2.604 3.808c-.3547 0-.6907-.0513-1.008-.154-.308-.0933-.5833-.2287-.826-.406-.2333-.1867-.42-.4107-.56-.672-.1307-.2707-.196-.574-.196-.91 0-.448.1213-.8213.364-1.12.2427-.308.5833-.56 1.022-.756.448-.2053.9847-.3687 1.61-.49s1.3253-.224 2.1-.308v-.21c0-.3547-.0467-.6487-.14-.882-.084-.2333-.2053-.4153-.364-.546-.1587-.14-.3453-.238-.56-.294s-.4433-.084-.686-.084c-.588 0-1.0313.1353-1.33.406-.2987.2613-.462.6253-.49 1.092h-1.316c.028-.4013.1353-.7607.322-1.078s.4247-.5833.714-.798.616-.378.98-.49.742-.168 1.134-.168c1.0453 0 1.8107.2427 2.296.728s.7233 1.2693.714 2.352l-.014 1.764c-.0093.6347 0 1.1807.028 1.638.0373.448.0933.8493.168 1.204h-1.288c-.0187-.14-.0373-.3033-.056-.49s-.0327-.392-.042-.616c-.2333.392-.5553.7047-.966.938-.4013.2333-.938.35-1.61.35zm6.9383-7.714v1.19c.2333-.4013.5507-.7187.952-.952.4013-.2427.9053-.364 1.512-.364.448 0 .8633.0887 1.246.266s.7187.434 1.008.77.5133.7467.672 1.232c.168.4853.252 1.036.252 1.652 0 .6253-.084 1.1807-.252 1.666-.1587.4853-.3827.896-.672 1.232s-.6253.5927-1.008.77c-.3827.168-.798.252-1.246.252-.6067 0-1.1107-.1167-1.512-.35-.4013-.2427-.7187-.5647-.952-.966v3.584h-1.274v-9.982zm-.056 3.794c0 .4947.0607.924.182 1.288.1213.3547.2847.6487.49.882.2053.224.4387.392.7.504.2707.1027.546.154.826.154.6813 0 1.204-.2427 1.568-.728.364-.4947.546-1.1947.546-2.1s-.182-1.6007-.546-2.086c-.364-.4947-.8867-.742-1.568-.742-.28 0-.5553.056-.826.168-.2613.1027-.4947.2707-.7.504-.2053.224-.3687.518-.49.882-.1213.3547-.182.7793-.182 1.274zm8.4642-3.794v7.532h-1.274v-7.532zm0-2.618v1.54h-1.274v-1.54zm2.3849.728h1.274v1.89h1.428v1.022h-1.428v4.466c0 .196.0047.3593.014.49.0187.1213.0514.2193.098.294.056.0747.1354.126.238.154.1027.028.2474.042.434.042h.644v1.064h-.924c-.364 0-.6626-.0233-.896-.07-.224-.056-.4013-.1493-.532-.28-.1306-.14-.224-.3313-.28-.574-.0466-.252-.07-.574-.07-.966v-4.62h-1.19v-1.022h1.19zm8.9488 5.796c-.5787.056-1.1014.126-1.568.21-.4667.0747-.8634.1727-1.19.294-.3267.112-.5787.2613-.756.448-.1774.1773-.266.3967-.266.658 0 .3547.126.644.378.868.2613.2147.6206.322 1.078.322.2986 0 .588-.0373.868-.112.28-.084.5273-.2193.742-.406.2146-.196.3873-.4573.518-.784.1306-.3267.196-.742.196-1.246zm-2.604 3.808c-.3547 0-.6907-.0513-1.008-.154-.308-.0933-.5834-.2287-.826-.406-.2334-.1867-.42-.4107-.56-.672-.1307-.2707-.196-.574-.196-.91 0-.448.1213-.8213.364-1.12.2426-.308.5833-.56 1.022-.756.448-.2053.9846-.3687 1.61-.49.6253-.1213 1.3253-.224 2.1-.308v-.21c0-.3547-.0467-.6487-.14-.882-.084-.2333-.2054-.4153-.364-.546-.1587-.14-.3454-.238-.56-.294-.2147-.056-.4434-.084-.686-.084-.588 0-1.0314.1353-1.33.406-.2987.2613-.462.6253-.49 1.092h-1.316c.028-.4013.1353-.7607.322-1.078.1866-.3173.4246-.5833.714-.798.2893-.2147.616-.378.98-.49s.742-.168 1.134-.168c1.0453 0 1.8106.2427 2.296.728.4853.4853.7233 1.2693.714 2.352l-.014 1.764c-.0094.6347 0 1.1807.028 1.638.0373.448.0933.8493.168 1.204h-1.288c-.0187-.14-.0374-.3033-.056-.49-.0187-.1867-.0327-.392-.042-.616-.2334.392-.5554.7047-.966.938-.4014.2333-.938.35-1.61.35zm6.9383-.182h-1.274v-10.15h1.274zm6.5052-5.082c0 .6533.084 1.232.252 1.736.1773.504.4106.9287.7 1.274.2986.3453.6486.6067 1.05.784.4013.1773.8353.266 1.302.266.4573 0 .8866-.0887 1.288-.266.4106-.1773.7606-.4387 1.05-.784.2986-.3453.532-.77.7-1.274.1773-.504.266-1.0827.266-1.736s-.0887-1.232-.266-1.736c-.168-.504-.4014-.924-.7-1.26-.2894-.3453-.6394-.6067-1.05-.784-.4014-.1773-.8307-.266-1.288-.266-.4667 0-.9007.0887-1.302.266-.4014.1773-.7514.4387-1.05.784-.2894.336-.5227.756-.7 1.26-.168.504-.252 1.0827-.252 1.736zm8.064 0c0 .7653-.112 1.47-.336 2.114-.2147.644-.532 1.1993-.952 1.666-.4107.4667-.91.8307-1.498 1.092s-1.246.392-1.974.392-1.386-.1307-1.974-.392-1.092-.6253-1.512-1.092c-.4107-.4667-.728-1.022-.952-1.666-.2147-.644-.322-1.3487-.322-2.114s.1073-1.47.322-2.114c.224-.644.5413-1.1947.952-1.652.42-.4667.924-.8307 1.512-1.092s1.246-.392 1.974-.392 1.386.1307 1.974.392 1.0873.6253 1.498 1.092c.42.4573.7373 1.008.952 1.652.224.644.336 1.3487.336 2.114zm2.0471-2.996c0-.392.0234-.7187.07-.98.056-.2707.154-.4853.294-.644.1494-.1587.3547-.2707.616-.336.2707-.0747.6207-.112 1.05-.112h.658v1.064h-.63c-.168 0-.3033.014-.406.042-.1026.0187-.182.0653-.238.14-.056.0653-.0933.1587-.112.28-.0186.1213-.028.28-.028.476v.616h1.414v1.022h-1.414v6.51h-1.274v-6.51h-1.05v-1.022h1.05zm4.3887 0c0-.392.0234-.7187.07-.98.056-.2707.154-.4853.294-.644.1494-.1587.3547-.2707.616-.336.2707-.0747.6207-.112 1.05-.112h.658v1.064h-.63c-.168 0-.3033.014-.406.042-.1026.0187-.182.0653-.238.14-.056.0653-.0933.1587-.112.28-.0186.1213-.028.28-.028.476v.616h1.414v1.022h-1.414v6.51h-1.274v-6.51h-1.05v-1.022h1.05zm6.9293 8.26c-.6067 0-1.1387-.098-1.596-.294-.448-.2053-.826-.4853-1.134-.84s-.5414-.77-.7-1.246c-.1494-.476-.224-.994-.224-1.554 0-.5973.0886-1.134.266-1.61.1866-.4853.4386-.896.756-1.232.3266-.3453.7093-.6067 1.148-.784.4386-.1867.9193-.28 1.442-.28.5786 0 1.092.112 1.54.336.4573.224.8353.532 1.134.924.2986.392.5133.8493.644 1.372.14.5227.1913 1.0827.154 1.68h-5.698c0 .3733.056.7093.168 1.008.1213.2987.2846.5507.49.756.2053.2053.4433.364.714.476.2706.112.56.168.868.168.588 0 1.036-.112 1.344-.336.308-.2333.5413-.5367.7-.91h1.316c-.084.3267-.2194.6347-.406.924-.1867.28-.42.5273-.7.742-.2707.2147-.5927.3873-.966.518-.3734.1213-.7934.182-1.26.182zm-.042-6.748c-.644 0-1.1667.1867-1.568.56-.4014.364-.616.8867-.644 1.568h4.34c-.0094-.2613-.0607-.518-.154-.77-.0934-.2613-.2287-.49-.406-.686-.1774-.2053-.3967-.3687-.658-.49-.2614-.1213-.5647-.182-.91-.182zm8.724.364c-.13-.0187-.256-.0327-.378-.042-.121-.0093-.233-.014-.336-.014-.588 0-1.031.1773-1.33.532-.289.3547-.434.9473-.434 1.778v3.948h-1.274v-7.532h1.246v1.316c.187-.4293.462-.756.826-.98.374-.2333.808-.3593 1.302-.378h.182c.056 0 .122.0047.196.014z"/><path d="m362 36c0-4.4183 3.582-8 8-8h38c4.418 0 8 3.5817 8 8 0 4.4183-3.582 8-8 8h-38c-4.418 0-8-3.5817-8-8z" fill-opacity=".1"/><path d="m370.69 31.75h1.18l2.73 7.25h-1.1l-.57-1.57h-3.33l-.56 1.57h-1.04zm-.78 4.81h2.7l-1.36-3.78zm6.966 1.18 1.46-4.12h.94l-2.03 5.38h-.81l-2.03-5.38h1.01zm6.328-1.33c-.413.04-.787.09-1.12.15-.333.0533-.617.1233-.85.21-.233.08-.413.1867-.54.32-.127.1267-.19.2833-.19.47 0 .2533.09.46.27.62.187.1533.443.23.77.23.213 0 .42-.0267.62-.08.2-.06.377-.1567.53-.29.153-.14.277-.3267.37-.56s.14-.53.14-.89zm-1.86 2.72c-.253 0-.493-.0367-.72-.11-.22-.0667-.417-.1633-.59-.29-.167-.1333-.3-.2933-.4-.48-.093-.1933-.14-.41-.14-.65 0-.32.087-.5867.26-.8.173-.22.417-.4.73-.54.32-.1467.703-.2633 1.15-.35s.947-.16 1.5-.22v-.15c0-.2533-.033-.4633-.1-.63-.06-.1667-.147-.2967-.26-.39-.113-.1-.247-.17-.4-.21s-.317-.06-.49-.06c-.42 0-.737.0967-.95.29-.213.1867-.33.4467-.35.78h-.94c.02-.2867.097-.5433.23-.77s.303-.4167.51-.57.44-.27.7-.35.53-.12.81-.12c.747 0 1.293.1733 1.64.52s.517.9067.51 1.68l-.01 1.26c-.007.4533 0 .8433.02 1.17.027.32.067.6067.12.86h-.92c-.013-.1-.027-.2167-.04-.35s-.023-.28-.03-.44c-.167.28-.397.5033-.69.67-.287.1667-.67.25-1.15.25zm4.956-5.51v5.38h-.91v-5.38zm0-1.87v1.1h-.91v-1.1zm2.353 7.25h-.91v-7.25h.91zm4.844-2.59c-.413.04-.787.09-1.12.15-.333.0533-.617.1233-.85.21-.233.08-.413.1867-.54.32-.127.1267-.19.2833-.19.47 0 .2533.09.46.27.62.187.1533.443.23.77.23.213 0 .42-.0267.62-.08.2-.06.377-.1567.53-.29.153-.14.277-.3267.37-.56s.14-.53.14-.89zm-1.86 2.72c-.253 0-.493-.0367-.72-.11-.22-.0667-.417-.1633-.59-.29-.167-.1333-.3-.2933-.4-.48-.093-.1933-.14-.41-.14-.65 0-.32.087-.5867.26-.8.173-.22.417-.4.73-.54.32-.1467.703-.2633 1.15-.35s.947-.16 1.5-.22v-.15c0-.2533-.033-.4633-.1-.63-.06-.1667-.147-.2967-.26-.39-.113-.1-.247-.17-.4-.21s-.317-.06-.49-.06c-.42 0-.737.0967-.95.29-.213.1867-.33.4467-.35.78h-.94c.02-.2867.097-.5433.23-.77s.303-.4167.51-.57.44-.27.7-.35.53-.12.81-.12c.747 0 1.293.1733 1.64.52s.517.9067.51 1.68l-.01 1.26c-.007.4533 0 .8433.02 1.17.027.32.067.6067.12.86h-.92c-.013-.1-.027-.2167-.04-.35s-.023-.28-.03-.44c-.167.28-.397.5033-.69.67-.287.1667-.67.25-1.15.25zm4.916-2.8c0 .3533.043.66.13.92.087.2533.203.4633.35.63.147.16.313.28.5.36.193.0733.39.11.59.11.487 0 .86-.1733 1.12-.52.26-.3533.39-.8533.39-1.5s-.13-1.1433-.39-1.49c-.26-.3533-.633-.53-1.12-.53-.2 0-.397.04-.59.12-.187.0733-.353.1933-.5.36-.147.16-.263.37-.35.63-.087.2533-.13.5567-.13.91zm.04-4.58v2.72c.167-.2867.393-.5133.68-.68.287-.1733.647-.26 1.08-.26.32 0 .617.0633.89.19s.513.31.72.55.367.5333.48.88c.12.3467.18.74.18 1.18 0 .4467-.06.8433-.18 1.19-.113.3467-.273.64-.48.88s-.447.4233-.72.55c-.273.12-.57.18-.89.18-.433 0-.793-.0833-1.08-.25-.287-.1733-.513-.4033-.68-.69v.81h-.91v-7.25zm6.006 7.25h-.91v-7.25h.91zm3.683.13c-.433 0-.813-.07-1.14-.21-.32-.1467-.59-.3467-.81-.6s-.386-.55-.5-.89c-.106-.34-.16-.71-.16-1.11 0-.4267.064-.81.19-1.15.134-.3467.314-.64.54-.88.234-.2467.507-.4333.82-.56.314-.1333.657-.2 1.03-.2.414 0 .78.08 1.1.24.327.16.597.38.81.66.214.28.367.6067.46.98.1.3733.137.7733.11 1.2h-4.07c0 .2667.04.5067.12.72.087.2133.204.3933.35.54.147.1467.317.26.51.34.194.08.4.12.62.12.42 0 .74-.08.96-.24.22-.1667.387-.3833.5-.65h.94c-.06.2333-.156.4533-.29.66-.133.2-.3.3767-.5.53-.193.1533-.423.2767-.69.37-.266.0867-.566.13-.9.13zm-.03-4.82c-.46 0-.833.1333-1.12.4-.286.26-.44.6333-.46 1.12h3.1c-.006-.1867-.043-.37-.11-.55-.066-.1867-.163-.35-.29-.49-.126-.1467-.283-.2633-.47-.35-.186-.0867-.403-.13-.65-.13z" fill-opacity=".5"/><path d="m34.176 101.048v2.336c2.176.171 3.8933.896 5.152 2.176 1.28 1.28 1.9093 2.976 1.888 5.088h-3.008c-.0213-.832-.1493-1.536-.384-2.112-.2133-.576-.512-1.056-.896-1.44-.3627-.384-.7893-.672-1.28-.864-.4693-.213-.96-.352-1.472-.416v7.936l.48.128c.8747.235 1.7387.512 2.592.832s1.6107.736 2.272 1.248c.6827.512 1.2267 1.141 1.632 1.888s.608 1.675.608 2.784c0 1.088-.2027 2.037-.608 2.848s-.9493 1.493-1.632 2.048-1.4933.992-2.432 1.312c-.9173.299-1.888.48-2.912.544v2.72h-1.76v-2.72c-1.1093-.085-2.1227-.341-3.04-.768-.896-.427-1.6747-.971-2.336-1.632-.64-.683-1.1413-1.472-1.504-2.368-.3413-.917-.5013-1.909-.48-2.976h3.008c.0213.853.1493 1.6.384 2.24.256.619.5867 1.152.992 1.6.4053.427.864.768 1.376 1.024.512.235 1.0453.384 1.6.448v-8.672l-.704-.192c-.8747-.235-1.6853-.544-2.432-.928-.7253-.384-1.3547-.843-1.888-1.376-.5333-.555-.96-1.184-1.28-1.888-.2987-.725-.448-1.536-.448-2.432 0-.917.192-1.728.576-2.432.384-.725.8853-1.344 1.504-1.856s1.3333-.917 2.144-1.216 1.6533-.491 2.528-.576v-2.336zm4.576 20.032c0-.683-.1067-1.248-.32-1.696-.2133-.469-.5227-.864-.928-1.184-.384-.32-.864-.587-1.44-.8-.5547-.235-1.184-.448-1.888-.64v8.224c.5973-.043 1.1733-.149 1.728-.32.5547-.192 1.0453-.448 1.472-.768s.7573-.715.992-1.184c.256-.469.384-1.013.384-1.632zm-10.08-11.648c0 .96.2987 1.749.896 2.368.6187.619 1.5573 1.109 2.816 1.472l.032.032v-7.52c-.4693.043-.928.149-1.376.32-.448.149-.8533.373-1.216.672-.3413.299-.6187.672-.832 1.12-.2133.427-.32.939-.32 1.536zm24.9253 15.552c1.536 0 2.7946-.384 3.776-1.152.9813-.768 1.472-1.877 1.472-3.328 0-.832-.1814-1.525-.544-2.08-.3414-.576-.8107-1.035-1.408-1.376-.5974-.341-1.312-.587-2.144-.736-.8107-.149-1.6747-.224-2.592-.224h-.48v-2.656h.384c2.0266 0 3.5626-.299 4.608-.896 1.0453-.597 1.568-1.579 1.568-2.944 0-.619-.1174-1.163-.352-1.632-.2347-.469-.5654-.864-.992-1.184-.4054-.32-.8854-.555-1.44-.704-.5334-.171-1.1094-.256-1.728-.256-1.5574 0-2.7627.427-3.616 1.28-.832.832-1.312 1.909-1.44 3.232h-3.008c.0853-1.024.3306-1.963.736-2.816.4053-.853.9493-1.579 1.632-2.176.6826-.619 1.504-1.099 2.464-1.44.9813-.341 2.08-.512 3.296-.512 1.0026 0 1.952.107 2.848.32.9173.213 1.7173.555 2.4 1.024.704.469 1.2586 1.077 1.664 1.824.4053.747.608 1.653.608 2.72 0 1.195-.3307 2.272-.992 3.232-.64.939-1.568 1.653-2.784 2.144.8533.277 1.568.619 2.1439 1.024.5761.405 1.0241.864 1.3441 1.376.3413.512.576 1.067.704 1.664.1493.576.224 1.163.224 1.76 0 1.173-.2347 2.197-.704 3.072-.448.853-1.056 1.568-1.824 2.144s-1.664 1.013-2.688 1.312c-1.0027.277-2.0587.416-3.168.416-1.3654 0-2.5494-.192-3.552-.576-1.0027-.405-1.8454-.939-2.5281-1.6-.6613-.661-1.1733-1.429-1.5359-2.304-.3414-.896-.5547-1.824-.64-2.784h3.008c.1706 1.429.6826 2.592 1.536 3.488.8533.896 2.1013 1.344 3.744 1.344zm27.6075-9.6c0-3.221-.5334-5.621-1.6-7.2-1.0667-1.579-2.5067-2.368-4.32-2.368-1.8347 0-3.2854.789-4.352 2.368-1.0454 1.579-1.568 3.979-1.568 7.2 0 3.243.5226 5.653 1.568 7.232 1.0666 1.579 2.5173 2.368 4.352 2.368 1.8346 0 3.2746-.789 4.32-2.368 1.0666-1.579 1.6-3.989 1.6-7.232zm3.104 0c0 1.835-.1814 3.499-.544 4.992-.3627 1.472-.9174 2.731-1.6641 3.776-.7253 1.045-1.6639 1.856-2.8159 2.432-1.1307.555-2.464.832-4 .832s-2.88-.277-4.032-.832c-1.1307-.576-2.0694-1.387-2.816-2.432-.7254-1.045-1.2694-2.304-1.632-3.776-.3627-1.493-.544-3.157-.544-4.992s.1813-3.488.544-4.96c.3626-1.493.9066-2.752 1.632-3.776.7466-1.045 1.6853-1.845 2.816-2.4 1.152-.576 2.496-.864 4.032-.864s2.8693.288 4 .864c1.152.555 2.0906 1.355 2.8159 2.4.7467 1.024 1.3014 2.283 1.6641 3.776.3626 1.472.544 3.125.544 4.96zm3.9275 7.936h3.68v3.936l-1.952 4.192h-1.856l1.696-4.448h-1.568zm22.4997-7.936c0-3.221-.533-5.621-1.6-7.2s-2.507-2.368-4.32-2.368c-1.835 0-3.285.789-4.352 2.368-1.0453 1.579-1.568 3.979-1.568 7.2 0 3.243.5227 5.653 1.568 7.232 1.067 1.579 2.517 2.368 4.352 2.368s3.275-.789 4.32-2.368c1.067-1.579 1.6-3.989 1.6-7.232zm3.104 0c0 1.835-.181 3.499-.544 4.992-.363 1.472-.917 2.731-1.664 3.776-.725 1.045-1.664 1.856-2.816 2.432-1.131.555-2.464.832-4 .832s-2.88-.277-4.032-.832c-1.1307-.576-2.0693-1.387-2.816-2.432-.7253-1.045-1.2693-2.304-1.632-3.776-.3627-1.493-.544-3.157-.544-4.992s.1813-3.488.544-4.96c.3627-1.493.9067-2.752 1.632-3.776.7467-1.045 1.6853-1.845 2.816-2.4 1.152-.576 2.496-.864 4.032-.864s2.869.288 4 .864c1.152.555 2.091 1.355 2.816 2.4.747 1.024 1.301 2.283 1.664 3.776.363 1.472.544 3.125.544 4.96zm18.584 0c0-3.221-.534-5.621-1.6-7.2-1.067-1.579-2.507-2.368-4.32-2.368-1.835 0-3.286.789-4.352 2.368-1.046 1.579-1.568 3.979-1.568 7.2 0 3.243.522 5.653 1.568 7.232 1.066 1.579 2.517 2.368 4.352 2.368 1.834 0 3.274-.789 4.32-2.368 1.066-1.579 1.6-3.989 1.6-7.232zm3.104 0c0 1.835-.182 3.499-.544 4.992-.363 1.472-.918 2.731-1.665 3.776-.725 1.045-1.663 1.856-2.815 2.432-1.131.555-2.464.832-4 .832s-2.88-.277-4.032-.832c-1.131-.576-2.07-1.387-2.816-2.432-.726-1.045-1.27-2.304-1.632-3.776-.363-1.493-.544-3.157-.544-4.992s.181-3.488.544-4.96c.362-1.493.906-2.752 1.632-3.776.746-1.045 1.685-1.845 2.816-2.4 1.152-.576 2.496-.864 4.032-.864s2.869.288 4 .864c1.152.555 2.09 1.355 2.815 2.4.747 1.024 1.302 2.283 1.665 3.776.362 1.472.544 3.125.544 4.96zm18.583 0c0-3.221-.533-5.621-1.6-7.2s-2.507-2.368-4.32-2.368c-1.835 0-3.285.789-4.352 2.368-1.045 1.579-1.568 3.979-1.568 7.2 0 3.243.523 5.653 1.568 7.232 1.067 1.579 2.517 2.368 4.352 2.368s3.275-.789 4.32-2.368c1.067-1.579 1.6-3.989 1.6-7.232zm3.104 0c0 1.835-.181 3.499-.544 4.992-.363 1.472-.917 2.731-1.664 3.776-.725 1.045-1.664 1.856-2.816 2.432-1.131.555-2.464.832-4 .832s-2.88-.277-4.032-.832c-1.131-.576-2.069-1.387-2.816-2.432-.725-1.045-1.269-2.304-1.632-3.776-.363-1.493-.544-3.157-.544-4.992s.181-3.488.544-4.96c.363-1.493.907-2.752 1.632-3.776.747-1.045 1.685-1.845 2.816-2.4 1.152-.576 2.496-.864 4.032-.864s2.869.288 4 .864c1.152.555 2.091 1.355 2.816 2.4.747 1.024 1.301 2.283 1.664 3.776.363 1.472.544 3.125.544 4.96z"/><path d="m324 130 4.56-11.6h1.472l-4.576 11.6zm18.713-12.976v1.168c1.088.085 1.947.448 2.576 1.088.64.64.955 1.488.944 2.544h-1.504c-.011-.416-.075-.768-.192-1.056-.107-.288-.256-.528-.448-.72-.181-.192-.395-.336-.64-.432-.235-.107-.48-.176-.736-.208v3.968l.24.064c.437.117.869.256 1.296.416s.805.368 1.136.624c.341.256.613.571.816.944s.304.837.304 1.392c0 .544-.101 1.019-.304 1.424s-.475.747-.816 1.024-.747.496-1.216.656c-.459.149-.944.24-1.456.272v1.36h-.88v-1.36c-.555-.043-1.061-.171-1.52-.384-.448-.213-.837-.485-1.168-.816-.32-.341-.571-.736-.752-1.184-.171-.459-.251-.955-.24-1.488h1.504c.011.427.075.8.192 1.12.128.309.293.576.496.8.203.213.432.384.688.512.256.117.523.192.8.224v-4.336l-.352-.096c-.437-.117-.843-.272-1.216-.464-.363-.192-.677-.421-.944-.688-.267-.277-.48-.592-.64-.944-.149-.363-.224-.768-.224-1.216 0-.459.096-.864.288-1.216.192-.363.443-.672.752-.928s.667-.459 1.072-.608.827-.245 1.264-.288v-1.168zm2.288 10.016c0-.341-.053-.624-.16-.848-.107-.235-.261-.432-.464-.592-.192-.16-.432-.293-.72-.4-.277-.117-.592-.224-.944-.32v4.112c.299-.021.587-.075.864-.16.277-.096.523-.224.736-.384s.379-.357.496-.592c.128-.235.192-.507.192-.816zm-5.04-5.824c0 .48.149.875.448 1.184.309.309.779.555 1.408.736l.016.016v-3.76c-.235.021-.464.075-.688.16-.224.075-.427.187-.608.336-.171.149-.309.336-.416.56-.107.213-.16.469-.16.768zm16.143 7.44v1.344h-7.328v-1.344h3.104v-7.568h-3.088v-1.008c.448-.011.853-.037 1.216-.08.362-.043.688-.117.976-.224.298-.107.56-.256.784-.448.224-.203.416-.464.576-.784h.992v10.112zm10.123-4.464c0-1.611-.266-2.811-.8-3.6-.533-.789-1.253-1.184-2.16-1.184-.917 0-1.642.395-2.176 1.184-.522.789-.784 1.989-.784 3.6 0 1.621.262 2.827.784 3.616.534.789 1.259 1.184 2.176 1.184.918 0 1.638-.395 2.16-1.184.534-.789.8-1.995.8-3.616zm1.552 0c0 .917-.09 1.749-.272 2.496-.181.736-.458 1.365-.832 1.888-.362.523-.832.928-1.408 1.216-.565.277-1.232.416-2 .416s-1.44-.139-2.016-.416c-.565-.288-1.034-.693-1.408-1.216-.362-.523-.634-1.152-.816-1.888-.181-.747-.272-1.579-.272-2.496s.091-1.744.272-2.48c.182-.747.454-1.376.816-1.888.374-.523.843-.923 1.408-1.2.576-.288 1.248-.432 2.016-.432s1.435.144 2 .432c.576.277 1.046.677 1.408 1.2.374.512.651 1.141.832 1.888.182.736.272 1.563.272 2.48zm9.292 0c0-1.611-.267-2.811-.8-3.6s-1.253-1.184-2.16-1.184c-.917 0-1.643.395-2.176 1.184-.523.789-.784 1.989-.784 3.6 0 1.621.261 2.827.784 3.616.533.789 1.259 1.184 2.176 1.184s1.637-.395 2.16-1.184c.533-.789.8-1.995.8-3.616zm1.552 0c0 .917-.091 1.749-.272 2.496-.181.736-.459 1.365-.832 1.888-.363.523-.832.928-1.408 1.216-.565.277-1.232.416-2 .416s-1.44-.139-2.016-.416c-.565-.288-1.035-.693-1.408-1.216-.363-.523-.635-1.152-.816-1.888-.181-.747-.272-1.579-.272-2.496s.091-1.744.272-2.48c.181-.747.453-1.376.816-1.888.373-.523.843-.923 1.408-1.2.576-.288 1.248-.432 2.016-.432s1.435.144 2 .432c.576.277 1.045.677 1.408 1.2.373.512.651 1.141.832 1.888.181.736.272 1.563.272 2.48zm1.964 3.968h1.84v1.968l-.976 2.096h-.928l.848-2.224h-.784zm11.25-3.968c0-1.611-.267-2.811-.8-3.6-.534-.789-1.254-1.184-2.16-1.184-.918 0-1.643.395-2.176 1.184-.523.789-.784 1.989-.784 3.6 0 1.621.261 2.827.784 3.616.533.789 1.258 1.184 2.176 1.184.917 0 1.637-.395 2.16-1.184.533-.789.8-1.995.8-3.616zm1.552 0c0 .917-.091 1.749-.272 2.496-.182.736-.459 1.365-.832 1.888-.363.523-.832.928-1.408 1.216-.566.277-1.232.416-2 .416s-1.44-.139-2.016-.416c-.566-.288-1.035-.693-1.408-1.216-.363-.523-.635-1.152-.816-1.888-.182-.747-.272-1.579-.272-2.496s.09-1.744.272-2.48c.181-.747.453-1.376.816-1.888.373-.523.842-.923 1.408-1.2.576-.288 1.248-.432 2.016-.432s1.434.144 2 .432c.576.277 1.045.677 1.408 1.2.373.512.65 1.141.832 1.888.181.736.272 1.563.272 2.48zm9.292 0c0-1.611-.267-2.811-.8-3.6-.534-.789-1.254-1.184-2.16-1.184-.918 0-1.643.395-2.176 1.184-.523.789-.784 1.989-.784 3.6 0 1.621.261 2.827.784 3.616.533.789 1.258 1.184 2.176 1.184.917 0 1.637-.395 2.16-1.184.533-.789.8-1.995.8-3.616zm1.552 0c0 .917-.091 1.749-.272 2.496-.182.736-.459 1.365-.833 1.888-.362.523-.831.928-1.407 1.216-.566.277-1.232.416-2 .416s-1.44-.139-2.016-.416c-.566-.288-1.035-.693-1.408-1.216-.363-.523-.635-1.152-.816-1.888-.182-.747-.272-1.579-.272-2.496s.09-1.744.272-2.48c.181-.747.453-1.376.816-1.888.373-.523.842-.923 1.408-1.2.576-.288 1.248-.432 2.016-.432s1.434.144 2 .432c.576.277 1.045.677 1.407 1.2.374.512.651 1.141.833 1.888.181.736.272 1.563.272 2.48zm9.291 0c0-1.611-.266-2.811-.8-3.6-.533-.789-1.253-1.184-2.16-1.184-.917 0-1.642.395-2.176 1.184-.522.789-.784 1.989-.784 3.6 0 1.621.262 2.827.784 3.616.534.789 1.259 1.184 2.176 1.184.918 0 1.638-.395 2.16-1.184.534-.789.8-1.995.8-3.616zm1.552 0c0 .917-.09 1.749-.272 2.496-.181.736-.458 1.365-.832 1.888-.362.523-.832.928-1.408 1.216-.565.277-1.232.416-2 .416s-1.44-.139-2.016-.416c-.565-.288-1.034-.693-1.408-1.216-.362-.523-.634-1.152-.816-1.888-.181-.747-.272-1.579-.272-2.496s.091-1.744.272-2.48c.182-.747.454-1.376.816-1.888.374-.523.843-.923 1.408-1.2.576-.288 1.248-.432 2.016-.432s1.435.144 2 .432c.576.277 1.046.677 1.408 1.2.374.512.651 1.141.832 1.888.182.736.272 1.563.272 2.48z"/></g><g clip-path="url(#b)"><path d="m0 0h392v8h-392z" fill="#fff" fill-opacity=".1" transform="translate(24 152)"/><path d="m24 156h115.148" stroke="#fff" stroke-width="400"/><path d="m139.148 156h1" stroke="#1a1a1a" stroke-width="800"/></g><path d="m28.056 187.244c.576 0 1.048-.144 1.416-.432s.552-.704.552-1.248c0-.312-.068-.572-.204-.78-.128-.216-.304-.388-.528-.516s-.492-.22-.804-.276c-.304-.056-.628-.084-.972-.084h-.18v-.996h.144c.76 0 1.336-.112 1.728-.336s.588-.592.588-1.104c0-.232-.044-.436-.132-.612s-.212-.324-.372-.444c-.152-.12-.332-.208-.54-.264-.2-.064-.416-.096-.648-.096-.584 0-1.036.16-1.356.48-.312.312-.492.716-.54 1.212h-1.128c.032-.384.124-.736.276-1.056s.356-.592.612-.816c.256-.232.564-.412.924-.54.368-.128.78-.192 1.236-.192.376 0 .732.04 1.068.12.344.08.644.208.9.384.264.176.472.404.624.684s.228.62.228 1.02c0 .448-.124.852-.372 1.212-.24.352-.588.62-1.044.804.32.104.588.232.804.384s.384.324.504.516c.128.192.216.4.264.624.056.216.084.436.084.66 0 .44-.088.824-.264 1.152-.168.32-.396.588-.684.804s-.624.38-1.008.492c-.376.104-.772.156-1.188.156-.512 0-.956-.072-1.332-.216-.376-.152-.692-.352-.948-.6-.248-.248-.44-.536-.576-.864-.128-.336-.208-.684-.24-1.044h1.128c.064.536.256.972.576 1.308s.788.504 1.404.504zm10.3528-3.6c0-1.208-.2-2.108-.6-2.7s-.94-.888-1.62-.888c-.688 0-1.232.296-1.632.888-.392.592-.588 1.492-.588 2.7 0 1.216.196 2.12.588 2.712.4.592.944.888 1.632.888s1.228-.296 1.62-.888c.4-.592.6-1.496.6-2.712zm1.164 0c0 .688-.068 1.312-.204 1.872-.136.552-.344 1.024-.624 1.416-.272.392-.624.696-1.056.912-.424.208-.924.312-1.5.312s-1.08-.104-1.512-.312c-.424-.216-.776-.52-1.056-.912-.272-.392-.476-.864-.612-1.416-.136-.56-.204-1.184-.204-1.872s.068-1.308.204-1.86c.136-.56.34-1.032.612-1.416.28-.392.632-.692 1.056-.9.432-.216.936-.324 1.512-.324s1.076.108 1.5.324c.432.208.784.508 1.056.9.28.384.488.856.624 1.416.136.552.204 1.172.204 1.86zm3.0928.636c-.328 0-.616-.06-.864-.18-.24-.128-.44-.304-.6-.528s-.284-.488-.372-.792c-.08-.312-.12-.656-.12-1.032 0-.368.04-.708.12-1.02.088-.312.212-.58.372-.804s.36-.396.6-.516c.248-.128.536-.192.864-.192s.616.064.864.192c.248.12.452.292.612.516.168.224.292.492.372.804.088.312.132.652.132 1.02 0 .376-.044.72-.132 1.032-.08.304-.204.568-.372.792-.16.224-.364.4-.612.528-.248.12-.536.18-.864.18zm0-.66c.352 0 .616-.16.792-.48.184-.328.276-.792.276-1.392s-.092-1.064-.276-1.392c-.176-.328-.44-.492-.792-.492-.336 0-.596.164-.78.492-.176.328-.264.792-.264 1.392s.088 1.064.264 1.392c.184.32.444.48.78.48zm-.012 4.38 6-8.7h1.212l-6 8.7zm7.212.084c-.328 0-.616-.06-.864-.18-.24-.128-.44-.304-.6-.528s-.284-.488-.372-.792c-.08-.312-.12-.656-.12-1.032 0-.368.04-.708.12-1.02.088-.312.212-.58.372-.804s.36-.396.6-.516c.248-.128.536-.192.864-.192s.616.064.864.192c.248.12.452.292.612.516.168.224.292.492.372.804.088.312.132.652.132 1.02 0 .376-.044.72-.132 1.032-.08.304-.204.568-.372.792-.16.224-.364.4-.612.528-.248.12-.536.18-.864.18zm0-.66c.352 0 .616-.16.792-.48.184-.328.276-.792.276-1.392s-.092-1.064-.276-1.392c-.176-.328-.44-.492-.792-.492-.336 0-.596.164-.78.492-.176.328-.264.792-.264 1.392s.088 1.064.264 1.392c.184.32.444.48.78.48z" fill="#fff"/><path d="m63.452 184.328c-.112.008-.224.012-.336.012-.104 0-.212 0-.324 0h-1.536v3.66h-1.224v-8.7h2.76c.528 0 1.012.032 1.452.096.448.064.832.188 1.152.372s.568.44.744.768c.184.328.276.752.276 1.272 0 .688-.156 1.212-.468 1.572-.304.36-.724.612-1.26.756l2.016 3.864h-1.368zm-2.196-3.996v2.976h1.632c.32 0 .616-.012.888-.036.28-.032.52-.096.72-.192.208-.104.368-.252.48-.444.12-.2.18-.468.18-.804s-.06-.604-.18-.804c-.112-.2-.272-.348-.48-.444-.2-.104-.44-.172-.72-.204-.272-.032-.568-.048-.888-.048zm9.3819 7.824c-.52 0-.976-.084-1.368-.252-.384-.176-.708-.416-.972-.72s-.464-.66-.6-1.068c-.128-.408-.192-.852-.192-1.332 0-.512.076-.972.228-1.38.16-.416.376-.768.648-1.056.28-.296.608-.52.984-.672.376-.16.788-.24 1.236-.24.496 0 .936.096 1.32.288.392.192.716.456.972.792s.44.728.552 1.176c.12.448.164.928.132 1.44h-4.884c0 .32.048.608.144.864.104.256.244.472.42.648s.38.312.612.408.48.144.744.144c.504 0 .888-.096 1.152-.288.264-.2.464-.46.6-.78h1.128c-.072.28-.188.544-.348.792-.16.24-.36.452-.6.636-.232.184-.508.332-.828.444-.32.104-.68.156-1.08.156zm-.036-5.784c-.552 0-1 .16-1.344.48-.344.312-.528.76-.552 1.344h3.72c-.008-.224-.052-.444-.132-.66-.08-.224-.196-.42-.348-.588-.152-.176-.34-.316-.564-.42s-.484-.156-.78-.156zm8.7127-.828h1.092v8.556h-1.092v-3.072c-.2.344-.472.62-.816.828-.344.2-.776.3-1.296.3-.384 0-.74-.072-1.068-.216-.328-.152-.616-.372-.864-.66s-.444-.64-.588-1.056c-.136-.416-.204-.892-.204-1.428 0-.528.068-1 .204-1.416.144-.416.34-.768.588-1.056s.536-.508.864-.66.684-.228 1.068-.228c.52 0 .952.104 1.296.312.344.2.616.472.816.816zm.048 3.252c0-.424-.052-.788-.156-1.092-.104-.312-.244-.564-.42-.756-.176-.2-.38-.344-.612-.432-.224-.096-.456-.144-.696-.144-.584 0-1.032.212-1.344.636-.312.416-.468 1.012-.468 1.788s.156 1.376.468 1.8c.312.416.76.624 1.344.624.24 0 .472-.044.696-.132.232-.096.436-.24.612-.432.176-.2.316-.452.42-.756.104-.312.156-.68.156-1.104zm6.763 2.28c-.184.304-.436.56-.756.768-.312.208-.736.312-1.272.312-.376 0-.696-.06-.96-.18-.256-.12-.468-.288-.636-.504-.16-.224-.28-.488-.36-.792-.072-.304-.108-.64-.108-1.008v-4.128h1.092v3.804c0 .248.012.484.036.708.032.224.096.424.192.6.096.168.232.304.408.408.184.096.424.144.72.144.52 0 .924-.176 1.212-.528.288-.36.432-.888.432-1.584v-3.552h1.092v6.456h-1.092zm5.5123 1.08c-.52 0-.976-.084-1.368-.252-.384-.176-.708-.416-.972-.72s-.464-.66-.6-1.068c-.128-.408-.192-.852-.192-1.332 0-.512.076-.972.228-1.38.16-.416.376-.768.648-1.056.28-.296.608-.52.984-.672.376-.16.788-.24 1.236-.24.496 0 .936.096 1.32.288.392.192.716.456.972.792s.44.728.552 1.176c.12.448.164.928.132 1.44h-4.884c0 .32.048.608.144.864.104.256.244.472.42.648s.38.312.612.408.48.144.744.144c.504 0 .888-.096 1.152-.288.264-.2.464-.46.6-.78h1.128c-.072.28-.188.544-.348.792-.16.24-.36.452-.6.636-.232.184-.508.332-.828.444-.32.104-.68.156-1.08.156zm-.036-5.784c-.552 0-1 .16-1.344.48-.344.312-.528.76-.552 1.344h3.72c-.008-.224-.052-.444-.132-.66-.08-.224-.196-.42-.348-.588-.152-.176-.34-.316-.564-.42s-.484-.156-.78-.156zm8.0295 1.056c-.088-.384-.272-.656-.552-.816-.272-.168-.612-.252-1.02-.252-.168 0-.336.016-.504.048-.168.024-.32.072-.456.144-.128.064-.236.148-.324.252-.08.104-.12.228-.12.372 0 .256.088.448.264.576s.432.228.768.3l.912.18c.304.064.592.14.864.228.28.088.52.208.7196.36.208.144.372.324.492.54s.18.48.18.792c0 .32-.068.604-.204.852s-.324.46-.564.636c-.2396.168-.5236.296-.8516.384-.32.088-.672.132-1.056.132-.432 0-.82-.064-1.164-.192-.336-.128-.624-.296-.864-.504-.232-.208-.416-.448-.552-.72-.128-.272-.208-.548-.24-.828h1.152c.088.416.264.74.528.972.272.232.66.348 1.164.348.44 0 .808-.084 1.104-.252s.444-.404.444-.708c0-.16-.036-.3-.108-.42s-.172-.22-.3-.3c-.12-.088-.264-.156-.432-.204-.16-.056-.332-.104-.516-.144l-.96-.192c-.232-.048-.46-.112-.684-.192s-.428-.188-.612-.324c-.176-.136-.32-.304-.432-.504-.104-.208-.156-.464-.156-.768 0-.288.068-.54.204-.756.136-.224.32-.412.552-.564.24-.16.52-.28.84-.36s.664-.12 1.032-.12c.728 0 1.316.18 1.764.54.4476.36.7236.848.8276 1.464zm2.8726-3.504h1.092v1.62h1.224v.876h-1.224v3.828c0 .168.004.308.012.42.016.104.044.188.084.252.048.064.116.108.204.132s.212.036.372.036h.552v.912h-.792c-.312 0-.568-.02-.768-.06-.192-.048-.344-.128-.456-.24-.112-.12-.192-.284-.24-.492-.04-.216-.06-.492-.06-.828v-3.96h-1.02v-.876h1.02zm6.22 8.232c-.52 0-.976-.084-1.368-.252-.384-.176-.708-.416-.972-.72s-.464-.66-.6-1.068c-.128-.408-.192-.852-.192-1.332 0-.512.076-.972.228-1.38.16-.416.376-.768.648-1.056.28-.296.608-.52.984-.672.376-.16.788-.24 1.236-.24.496 0 .936.096 1.32.288.392.192.716.456.972.792s.44.728.552 1.176c.12.448.164.928.132 1.44h-4.884c0 .32.048.608.144.864.104.256.244.472.42.648s.38.312.612.408.48.144.744.144c.504 0 .888-.096 1.152-.288.264-.2.464-.46.6-.78h1.128c-.072.28-.188.544-.348.792-.16.24-.36.452-.6.636-.232.184-.508.332-.828.444-.32.104-.68.156-1.08.156zm-.036-5.784c-.552 0-1 .16-1.344.48-.344.312-.528.76-.552 1.344h3.72c-.008-.224-.052-.444-.132-.66-.08-.224-.196-.42-.348-.588-.152-.176-.34-.316-.564-.42s-.484-.156-.78-.156zm8.713-3.072h1.092v8.7h-1.092v-.972c-.2.344-.472.62-.816.828-.344.2-.776.3-1.296.3-.384 0-.74-.072-1.068-.216-.328-.152-.616-.372-.864-.66s-.444-.64-.588-1.056c-.136-.416-.204-.892-.204-1.428 0-.528.068-1 .204-1.416.144-.416.34-.768.588-1.056s.536-.508.864-.66.684-.228 1.068-.228c.52 0 .952.104 1.296.312.344.2.616.472.816.816zm.048 5.496c0-.424-.052-.788-.156-1.092-.104-.312-.244-.564-.42-.756-.176-.2-.38-.344-.612-.432-.224-.096-.456-.144-.696-.144-.584 0-1.032.212-1.344.636-.312.416-.468 1.012-.468 1.788s.156 1.376.468 1.8c.312.416.76.624 1.344.624.24 0 .472-.044.696-.132.232-.096.436-.24.612-.432.176-.2.316-.452.42-.756.104-.312.156-.68.156-1.104z" fill="#fff" fill-opacity=".5"/><path d="m334.927 179.3h1.416l3.276 8.7h-1.32l-.684-1.884h-3.996l-.672 1.884h-1.248zm-.936 5.772h3.24l-1.632-4.536zm8.36 1.416 1.752-4.944h1.128l-2.436 6.456h-.972l-2.436-6.456h1.212zm7.593-1.596c-.496.048-.944.108-1.344.18-.4.064-.74.148-1.02.252-.28.096-.496.224-.648.384-.152.152-.228.34-.228.564 0 .304.108.552.324.744.224.184.532.276.924.276.256 0 .504-.032.744-.096.24-.072.452-.188.636-.348.184-.168.332-.392.444-.672s.168-.636.168-1.068zm-2.232 3.264c-.304 0-.592-.044-.864-.132-.264-.08-.5-.196-.708-.348-.2-.16-.36-.352-.48-.576-.112-.232-.168-.492-.168-.78 0-.384.104-.704.312-.96.208-.264.5-.48.876-.648.384-.176.844-.316 1.38-.42s1.136-.192 1.8-.264v-.18c0-.304-.04-.556-.12-.756-.072-.2-.176-.356-.312-.468-.136-.12-.296-.204-.48-.252s-.38-.072-.588-.072c-.504 0-.884.116-1.14.348-.256.224-.396.536-.42.936h-1.128c.024-.344.116-.652.276-.924s.364-.5.612-.684.528-.324.84-.42.636-.144.972-.144c.896 0 1.552.208 1.968.624s.62 1.088.612 2.016l-.012 1.512c-.008.544 0 1.012.024 1.404.032.384.08.728.144 1.032h-1.104c-.016-.12-.032-.26-.048-.42s-.028-.336-.036-.528c-.2.336-.476.604-.828.804-.344.2-.804.3-1.38.3zm5.947-6.612v6.456h-1.092v-6.456zm0-2.244v1.32h-1.092v-1.32zm2.824 8.7h-1.092v-8.7h1.092zm5.813-3.108c-.496.048-.944.108-1.344.18-.4.064-.74.148-1.02.252-.28.096-.496.224-.648.384-.152.152-.228.34-.228.564 0 .304.108.552.324.744.224.184.532.276.924.276.256 0 .504-.032.744-.096.24-.072.452-.188.636-.348.184-.168.332-.392.444-.672s.168-.636.168-1.068zm-2.232 3.264c-.304 0-.592-.044-.864-.132-.264-.08-.5-.196-.708-.348-.2-.16-.36-.352-.48-.576-.112-.232-.168-.492-.168-.78 0-.384.104-.704.312-.96.208-.264.5-.48.876-.648.384-.176.844-.316 1.38-.42s1.136-.192 1.8-.264v-.18c0-.304-.04-.556-.12-.756-.072-.2-.176-.356-.312-.468-.136-.12-.296-.204-.48-.252s-.38-.072-.588-.072c-.504 0-.884.116-1.14.348-.256.224-.396.536-.42.936h-1.128c.024-.344.116-.652.276-.924s.364-.5.612-.684.528-.324.84-.42.636-.144.972-.144c.896 0 1.552.208 1.968.624s.62 1.088.612 2.016l-.012 1.512c-.008.544 0 1.012.024 1.404.032.384.08.728.144 1.032h-1.104c-.016-.12-.032-.26-.048-.42s-.028-.336-.036-.528c-.2.336-.476.604-.828.804-.344.2-.804.3-1.38.3zm5.899-3.36c0 .424.052.792.156 1.104.104.304.244.556.42.756.176.192.376.336.6.432.232.088.468.132.708.132.584 0 1.032-.208 1.344-.624.312-.424.468-1.024.468-1.8s-.156-1.372-.468-1.788c-.312-.424-.76-.636-1.344-.636-.24 0-.476.048-.708.144-.224.088-.424.232-.6.432-.176.192-.316.444-.42.756-.104.304-.156.668-.156 1.092zm.048-5.496v3.264c.2-.344.472-.616.816-.816.344-.208.776-.312 1.296-.312.384 0 .74.076 1.068.228s.616.372.864.66.44.64.576 1.056c.144.416.216.888.216 1.416 0 .536-.072 1.012-.216 1.428-.136.416-.328.768-.576 1.056s-.536.508-.864.66c-.328.144-.684.216-1.068.216-.52 0-.952-.1-1.296-.3-.344-.208-.616-.484-.816-.828v.972h-1.092v-8.7zm7.207 8.7h-1.092v-8.7h1.092zm4.42.156c-.52 0-.976-.084-1.368-.252-.384-.176-.708-.416-.972-.72s-.464-.66-.6-1.068c-.128-.408-.192-.852-.192-1.332 0-.512.076-.972.228-1.38.16-.416.376-.768.648-1.056.28-.296.608-.52.984-.672.376-.16.788-.24 1.236-.24.496 0 .936.096 1.32.288.392.192.716.456.972.792s.44.728.552 1.176c.12.448.164.928.132 1.44h-4.884c0 .32.048.608.144.864.104.256.244.472.42.648s.38.312.612.408.48.144.744.144c.504 0 .888-.096 1.152-.288.264-.2.464-.46.6-.78h1.128c-.072.28-.188.544-.348.792-.16.24-.36.452-.6.636-.232.184-.508.332-.828.444-.32.104-.68.156-1.08.156zm-.036-5.784c-.552 0-1 .16-1.344.48-.344.312-.528.76-.552 1.344h3.72c-.008-.224-.052-.444-.132-.66-.08-.224-.196-.42-.348-.588-.152-.176-.34-.316-.564-.42s-.484-.156-.78-.156z" fill="#fff" fill-opacity=".5"/><path d="m388.802 179.3h6.024v1.02c-1.08.872-1.94 1.964-2.58 3.276-.632 1.304-1 2.772-1.104 4.404h-1.32c.096-1.568.468-3.004 1.116-4.308.656-1.304 1.528-2.428 2.616-3.372h-4.752zm13.365 4.344c0-1.208-.2-2.108-.6-2.7s-.94-.888-1.62-.888c-.688 0-1.232.296-1.632.888-.392.592-.588 1.492-.588 2.7 0 1.216.196 2.12.588 2.712.4.592.944.888 1.632.888s1.228-.296 1.62-.888c.4-.592.6-1.496.6-2.712zm1.164 0c0 .688-.068 1.312-.204 1.872-.136.552-.344 1.024-.624 1.416-.272.392-.624.696-1.056.912-.424.208-.924.312-1.5.312s-1.08-.104-1.512-.312c-.424-.216-.776-.52-1.056-.912-.272-.392-.476-.864-.612-1.416-.136-.56-.204-1.184-.204-1.872s.068-1.308.204-1.86c.136-.56.34-1.032.612-1.416.28-.392.632-.692 1.056-.9.432-.216.936-.324 1.512-.324s1.076.108 1.5.324c.432.208.784.508 1.056.9.28.384.488.856.624 1.416.136.552.204 1.172.204 1.86zm3.092.636c-.328 0-.616-.06-.864-.18-.24-.128-.44-.304-.6-.528s-.284-.488-.372-.792c-.08-.312-.12-.656-.12-1.032 0-.368.04-.708.12-1.02.088-.312.212-.58.372-.804s.36-.396.6-.516c.248-.128.536-.192.864-.192s.616.064.864.192c.248.12.452.292.612.516.168.224.292.492.372.804.088.312.132.652.132 1.02 0 .376-.044.72-.132 1.032-.08.304-.204.568-.372.792-.16.224-.364.4-.612.528-.248.12-.536.18-.864.18zm0-.66c.352 0 .616-.16.792-.48.184-.328.276-.792.276-1.392s-.092-1.064-.276-1.392c-.176-.328-.44-.492-.792-.492-.336 0-.596.164-.78.492-.176.328-.264.792-.264 1.392s.088 1.064.264 1.392c.184.32.444.48.78.48zm-.012 4.38 6-8.7h1.212l-6 8.7zm7.212.084c-.328 0-.616-.06-.864-.18-.24-.128-.44-.304-.6-.528s-.284-.488-.372-.792c-.08-.312-.12-.656-.12-1.032 0-.368.04-.708.12-1.02.088-.312.212-.58.372-.804s.36-.396.6-.516c.248-.128.536-.192.864-.192s.616.064.864.192c.248.12.452.292.612.516.168.224.292.492.372.804.088.312.132.652.132 1.02 0 .376-.044.72-.132 1.032-.08.304-.204.568-.372.792-.16.224-.364.4-.612.528-.248.12-.536.18-.864.18zm0-.66c.352 0 .616-.16.792-.48.184-.328.276-.792.276-1.392s-.092-1.064-.276-1.392c-.176-.328-.44-.492-.792-.492-.336 0-.596.164-.78.492-.176.328-.264.792-.264 1.392s.088 1.064.264 1.392c.184.32.444.48.78.48z" fill="#fff"/></g></svg>