<svg xmlns="http://www.w3.org/2000/svg" width="346" height="216" viewBox="0 0 346 216" fill="none"><g clip-path="url(#clip0_11872_56708)"><path d="M0.5 16C0.5 7.16345 7.66344 0 16.5 0H329.5C338.337 0 345.5 7.16344 345.5 16V200C345.5 208.837 338.337 216 329.5 216H16.5C7.66345 216 0.5 208.837 0.5 200V16Z" fill="black"></path><path d="M34.216 37.766C34.104 38.326 33.9127 38.8207 33.642 39.25C33.3807 39.67 33.0587 40.0247 32.676 40.314C32.2933 40.6033 31.8593 40.8227 31.374 40.972C30.8887 41.112 30.3707 41.182 29.82 41.182C29.092 41.182 28.4433 41.0513 27.874 40.79C27.3047 40.5287 26.8193 40.1647 26.418 39.698C26.026 39.2313 25.7273 38.676 25.522 38.032C25.3167 37.388 25.214 36.6787 25.214 35.904C25.214 35.12 25.326 34.406 25.55 33.762C25.774 33.118 26.0913 32.5673 26.502 32.11C26.9127 31.6527 27.4073 31.298 27.986 31.046C28.5647 30.794 29.2133 30.668 29.932 30.668C30.4547 30.668 30.9493 30.7473 31.416 30.906C31.8827 31.0553 32.298 31.2747 32.662 31.564C33.0353 31.8533 33.348 32.2127 33.6 32.642C33.8613 33.062 34.048 33.5427 34.16 34.084H32.774C32.6993 33.7667 32.578 33.4727 32.41 33.202C32.2513 32.9313 32.0507 32.698 31.808 32.502C31.5653 32.306 31.2807 32.152 30.954 32.04C30.6273 31.928 30.2633 31.872 29.862 31.872C29.414 31.872 28.994 31.9607 28.602 32.138C28.2193 32.306 27.8833 32.5627 27.594 32.908C27.3047 33.244 27.076 33.664 26.908 34.168C26.7493 34.672 26.67 35.2507 26.67 35.904C26.67 36.548 26.7493 37.122 26.908 37.626C27.0667 38.13 27.2907 38.5593 27.58 38.914C27.8693 39.2593 28.21 39.5253 28.602 39.712C28.994 39.8893 29.428 39.978 29.904 39.978C30.716 39.978 31.3647 39.7727 31.85 39.362C32.3447 38.9513 32.6713 38.4193 32.83 37.766H34.216ZM40.4262 37.374C39.8475 37.43 39.3249 37.5 38.8582 37.584C38.3915 37.6587 37.9949 37.7567 37.6682 37.878C37.3415 37.99 37.0895 38.1393 36.9122 38.326C36.7349 38.5033 36.6462 38.7227 36.6462 38.984C36.6462 39.3387 36.7722 39.628 37.0242 39.852C37.2855 40.0667 37.6449 40.174 38.1022 40.174C38.4009 40.174 38.6902 40.1367 38.9702 40.062C39.2502 39.978 39.4975 39.8427 39.7122 39.656C39.9269 39.46 40.0995 39.1987 40.2302 38.872C40.3609 38.5453 40.4262 38.13 40.4262 37.626V37.374ZM37.8222 41.182C37.4675 41.182 37.1315 41.1307 36.8142 41.028C36.5062 40.9347 36.2309 40.7993 35.9882 40.622C35.7549 40.4353 35.5682 40.2113 35.4282 39.95C35.2975 39.6793 35.2322 39.376 35.2322 39.04C35.2322 38.592 35.3535 38.2187 35.5962 37.92C35.8389 37.612 36.1795 37.36 36.6182 37.164C37.0662 36.9587 37.6029 36.7953 38.2282 36.674C38.8535 36.5527 39.5535 36.45 40.3282 36.366V36.156C40.3282 35.8013 40.2815 35.5073 40.1882 35.274C40.1042 35.0407 39.9829 34.8587 39.8242 34.728C39.6655 34.588 39.4789 34.49 39.2642 34.434C39.0495 34.378 38.8209 34.35 38.5782 34.35C37.9902 34.35 37.5469 34.4853 37.2482 34.756C36.9495 35.0173 36.7862 35.3813 36.7582 35.848H35.4422C35.4702 35.4467 35.5775 35.0873 35.7642 34.77C35.9509 34.4527 36.1889 34.1867 36.4782 33.972C36.7675 33.7573 37.0942 33.594 37.4582 33.482C37.8222 33.37 38.2002 33.314 38.5922 33.314C39.6375 33.314 40.4029 33.5567 40.8882 34.042C41.3735 34.5273 41.6115 35.3113 41.6022 36.394L41.5882 38.158C41.5789 38.7927 41.5882 39.3387 41.6162 39.796C41.6535 40.244 41.7095 40.6453 41.7842 41H40.4962C40.4775 40.86 40.4589 40.6967 40.4402 40.51C40.4215 40.3233 40.4075 40.118 40.3982 39.894C40.1649 40.286 39.8429 40.5987 39.4322 40.832C39.0309 41.0653 38.4942 41.182 37.8222 41.182ZM44.7605 33.468V34.658C44.9938 34.2567 45.3112 33.9393 45.7125 33.706C46.1138 33.4633 46.6178 33.342 47.2245 33.342C47.6725 33.342 48.0878 33.4307 48.4705 33.608C48.8532 33.7853 49.1892 34.042 49.4785 34.378C49.7678 34.714 49.9918 35.1247 50.1505 35.61C50.3185 36.0953 50.4025 36.646 50.4025 37.262C50.4025 37.8873 50.3185 38.4427 50.1505 38.928C49.9918 39.4133 49.7678 39.824 49.4785 40.16C49.1892 40.496 48.8532 40.7527 48.4705 40.93C48.0878 41.098 47.6725 41.182 47.2245 41.182C46.6178 41.182 46.1138 41.0653 45.7125 40.832C45.3112 40.5893 44.9938 40.2673 44.7605 39.866V43.45H43.4865V33.468H44.7605ZM44.7045 37.262C44.7045 37.7567 44.7652 38.186 44.8865 38.55C45.0078 38.9047 45.1712 39.1987 45.3765 39.432C45.5818 39.656 45.8152 39.824 46.0765 39.936C46.3472 40.0387 46.6225 40.09 46.9025 40.09C47.5838 40.09 48.1065 39.8473 48.4705 39.362C48.8345 38.8673 49.0165 38.1673 49.0165 37.262C49.0165 36.3567 48.8345 35.6613 48.4705 35.176C48.1065 34.6813 47.5838 34.434 46.9025 34.434C46.6225 34.434 46.3472 34.49 46.0765 34.602C45.8152 34.7047 45.5818 34.8727 45.3765 35.106C45.1712 35.33 45.0078 35.624 44.8865 35.988C44.7652 36.3427 44.7045 36.7673 44.7045 37.262ZM53.1687 33.468V41H51.8947V33.468H53.1687ZM53.1687 30.85V32.39H51.8947V30.85H53.1687ZM55.5536 31.578H56.8276V33.468H58.2556V34.49H56.8276V38.956C56.8276 39.152 56.8323 39.3153 56.8416 39.446C56.8603 39.5673 56.893 39.6653 56.9396 39.74C56.9956 39.8147 57.075 39.866 57.1776 39.894C57.2803 39.922 57.425 39.936 57.6116 39.936H58.2556V41H57.3316C56.9676 41 56.669 40.9767 56.4356 40.93C56.2116 40.874 56.0343 40.7807 55.9036 40.65C55.773 40.51 55.6796 40.3187 55.6236 40.076C55.577 39.824 55.5536 39.502 55.5536 39.11V34.49H54.3636V33.468H55.5536V31.578ZM64.5024 37.374C63.9237 37.43 63.401 37.5 62.9344 37.584C62.4677 37.6587 62.071 37.7567 61.7444 37.878C61.4177 37.99 61.1657 38.1393 60.9884 38.326C60.811 38.5033 60.7224 38.7227 60.7224 38.984C60.7224 39.3387 60.8484 39.628 61.1004 39.852C61.3617 40.0667 61.721 40.174 62.1784 40.174C62.477 40.174 62.7664 40.1367 63.0464 40.062C63.3264 39.978 63.5737 39.8427 63.7884 39.656C64.003 39.46 64.1757 39.1987 64.3064 38.872C64.437 38.5453 64.5024 38.13 64.5024 37.626V37.374ZM61.8984 41.182C61.5437 41.182 61.2077 41.1307 60.8904 41.028C60.5824 40.9347 60.307 40.7993 60.0644 40.622C59.831 40.4353 59.6444 40.2113 59.5044 39.95C59.3737 39.6793 59.3084 39.376 59.3084 39.04C59.3084 38.592 59.4297 38.2187 59.6724 37.92C59.915 37.612 60.2557 37.36 60.6944 37.164C61.1424 36.9587 61.679 36.7953 62.3044 36.674C62.9297 36.5527 63.6297 36.45 64.4044 36.366V36.156C64.4044 35.8013 64.3577 35.5073 64.2644 35.274C64.1804 35.0407 64.059 34.8587 63.9004 34.728C63.7417 34.588 63.555 34.49 63.3404 34.434C63.1257 34.378 62.897 34.35 62.6544 34.35C62.0664 34.35 61.623 34.4853 61.3244 34.756C61.0257 35.0173 60.8624 35.3813 60.8344 35.848H59.5184C59.5464 35.4467 59.6537 35.0873 59.8404 34.77C60.027 34.4527 60.265 34.1867 60.5544 33.972C60.8437 33.7573 61.1704 33.594 61.5344 33.482C61.8984 33.37 62.2764 33.314 62.6684 33.314C63.7137 33.314 64.479 33.5567 64.9644 34.042C65.4497 34.5273 65.6877 35.3113 65.6784 36.394L65.6644 38.158C65.655 38.7927 65.6644 39.3387 65.6924 39.796C65.7297 40.244 65.7857 40.6453 65.8604 41H64.5724C64.5537 40.86 64.535 40.6967 64.5164 40.51C64.4977 40.3233 64.4837 40.118 64.4744 39.894C64.241 40.286 63.919 40.5987 63.5084 40.832C63.107 41.0653 62.5704 41.182 61.8984 41.182ZM68.8367 41H67.5627V30.85H68.8367V41ZM75.3419 35.918C75.3419 36.5713 75.4259 37.15 75.5939 37.654C75.7712 38.158 76.0045 38.5827 76.2939 38.928C76.5925 39.2733 76.9425 39.5347 77.3439 39.712C77.7452 39.8893 78.1792 39.978 78.6459 39.978C79.1032 39.978 79.5325 39.8893 79.9339 39.712C80.3445 39.5347 80.6945 39.2733 80.9839 38.928C81.2825 38.5827 81.5159 38.158 81.6839 37.654C81.8612 37.15 81.9499 36.5713 81.9499 35.918C81.9499 35.2647 81.8612 34.686 81.6839 34.182C81.5159 33.678 81.2825 33.258 80.9839 32.922C80.6945 32.5767 80.3445 32.3153 79.9339 32.138C79.5325 31.9607 79.1032 31.872 78.6459 31.872C78.1792 31.872 77.7452 31.9607 77.3439 32.138C76.9425 32.3153 76.5925 32.5767 76.2939 32.922C76.0045 33.258 75.7712 33.678 75.5939 34.182C75.4259 34.686 75.3419 35.2647 75.3419 35.918ZM83.4059 35.918C83.4059 36.6833 83.2939 37.388 83.0699 38.032C82.8552 38.676 82.5379 39.2313 82.1179 39.698C81.7072 40.1647 81.2079 40.5287 80.6199 40.79C80.0319 41.0513 79.3739 41.182 78.6459 41.182C77.9179 41.182 77.2599 41.0513 76.6719 40.79C76.0839 40.5287 75.5799 40.1647 75.1599 39.698C74.7492 39.2313 74.4319 38.676 74.2079 38.032C73.9932 37.388 73.8859 36.6833 73.8859 35.918C73.8859 35.1527 73.9932 34.448 74.2079 33.804C74.4319 33.16 74.7492 32.6093 75.1599 32.152C75.5799 31.6853 76.0839 31.3213 76.6719 31.06C77.2599 30.7987 77.9179 30.668 78.6459 30.668C79.3739 30.668 80.0319 30.7987 80.6199 31.06C81.2079 31.3213 81.7072 31.6853 82.1179 32.152C82.5379 32.6093 82.8552 33.16 83.0699 33.804C83.2939 34.448 83.4059 35.1527 83.4059 35.918ZM85.453 32.922C85.453 32.53 85.4764 32.2033 85.523 31.942C85.579 31.6713 85.677 31.4567 85.817 31.298C85.9664 31.1393 86.1717 31.0273 86.433 30.962C86.7037 30.8873 87.0537 30.85 87.483 30.85H88.141V31.914H87.511C87.343 31.914 87.2077 31.928 87.105 31.956C87.0024 31.9747 86.923 32.0213 86.867 32.096C86.811 32.1613 86.7737 32.2547 86.755 32.376C86.7364 32.4973 86.727 32.656 86.727 32.852V33.468H88.141V34.49H86.727V41H85.453V34.49H84.403V33.468H85.453V32.922ZM89.8417 32.922C89.8417 32.53 89.8651 32.2033 89.9117 31.942C89.9677 31.6713 90.0657 31.4567 90.2057 31.298C90.3551 31.1393 90.5604 31.0273 90.8217 30.962C91.0924 30.8873 91.4424 30.85 91.8717 30.85H92.5297V31.914H91.8997C91.7317 31.914 91.5964 31.928 91.4937 31.956C91.3911 31.9747 91.3117 32.0213 91.2557 32.096C91.1997 32.1613 91.1624 32.2547 91.1437 32.376C91.1251 32.4973 91.1157 32.656 91.1157 32.852V33.468H92.5297V34.49H91.1157V41H89.8417V34.49H88.7917V33.468H89.8417V32.922ZM96.771 41.182C96.1643 41.182 95.6323 41.084 95.175 40.888C94.727 40.6827 94.349 40.4027 94.041 40.048C93.733 39.6933 93.4996 39.278 93.341 38.802C93.1916 38.326 93.117 37.808 93.117 37.248C93.117 36.6507 93.2056 36.114 93.383 35.638C93.5696 35.1527 93.8216 34.742 94.139 34.406C94.4656 34.0607 94.8483 33.7993 95.287 33.622C95.7256 33.4353 96.2063 33.342 96.729 33.342C97.3076 33.342 97.821 33.454 98.269 33.678C98.7263 33.902 99.1043 34.21 99.403 34.602C99.7016 34.994 99.9163 35.4513 100.047 35.974C100.187 36.4967 100.238 37.0567 100.201 37.654H94.503C94.503 38.0273 94.559 38.3633 94.671 38.662C94.7923 38.9607 94.9556 39.2127 95.161 39.418C95.3663 39.6233 95.6043 39.782 95.875 39.894C96.1456 40.006 96.435 40.062 96.743 40.062C97.331 40.062 97.779 39.95 98.087 39.726C98.395 39.4927 98.6283 39.1893 98.787 38.816H100.103C100.019 39.1427 99.8836 39.4507 99.697 39.74C99.5103 40.02 99.277 40.2673 98.997 40.482C98.7263 40.6967 98.4043 40.8693 98.031 41C97.6576 41.1213 97.2376 41.182 96.771 41.182ZM96.729 34.434C96.085 34.434 95.5623 34.6207 95.161 34.994C94.7596 35.358 94.545 35.8807 94.517 36.562H98.857C98.8476 36.3007 98.7963 36.044 98.703 35.792C98.6096 35.5307 98.4743 35.302 98.297 35.106C98.1196 34.9007 97.9003 34.7373 97.639 34.616C97.3776 34.4947 97.0743 34.434 96.729 34.434ZM105.453 34.798C105.323 34.7793 105.197 34.7653 105.075 34.756C104.954 34.7467 104.842 34.742 104.739 34.742C104.151 34.742 103.708 34.9193 103.409 35.274C103.12 35.6287 102.975 36.2213 102.975 37.052V41H101.701V33.468H102.947V34.784C103.134 34.3547 103.409 34.028 103.773 33.804C104.147 33.5707 104.581 33.4447 105.075 33.426C105.141 33.426 105.201 33.426 105.257 33.426C105.313 33.426 105.379 33.4307 105.453 33.44V34.798Z" fill="white"></path><path d="M267.5 36C267.5 31.5817 271.082 28 275.5 28H313.5C317.918 28 321.5 31.5817 321.5 36V36C321.5 40.4183 317.918 44 313.5 44H275.5C271.082 44 267.5 40.4183 267.5 36V36Z" fill="white" fill-opacity="0.1"></path><path d="M276.19 31.75H277.37L280.1 39H279L278.43 37.43H275.1L274.54 39H273.5L276.19 31.75ZM275.41 36.56H278.11L276.75 32.78L275.41 36.56ZM282.376 37.74L283.836 33.62H284.776L282.746 39H281.936L279.906 33.62H280.916L282.376 37.74ZM288.704 36.41C288.291 36.45 287.917 36.5 287.584 36.56C287.251 36.6133 286.967 36.6833 286.734 36.77C286.501 36.85 286.321 36.9567 286.194 37.09C286.067 37.2167 286.004 37.3733 286.004 37.56C286.004 37.8133 286.094 38.02 286.274 38.18C286.461 38.3333 286.717 38.41 287.044 38.41C287.257 38.41 287.464 38.3833 287.664 38.33C287.864 38.27 288.041 38.1733 288.194 38.04C288.347 37.9 288.471 37.7133 288.564 37.48C288.657 37.2467 288.704 36.95 288.704 36.59V36.41ZM286.844 39.13C286.591 39.13 286.351 39.0933 286.124 39.02C285.904 38.9533 285.707 38.8567 285.534 38.73C285.367 38.5967 285.234 38.4367 285.134 38.25C285.041 38.0567 284.994 37.84 284.994 37.6C284.994 37.28 285.081 37.0133 285.254 36.8C285.427 36.58 285.671 36.4 285.984 36.26C286.304 36.1133 286.687 35.9967 287.134 35.91C287.581 35.8233 288.081 35.75 288.634 35.69V35.54C288.634 35.2867 288.601 35.0767 288.534 34.91C288.474 34.7433 288.387 34.6133 288.274 34.52C288.161 34.42 288.027 34.35 287.874 34.31C287.721 34.27 287.557 34.25 287.384 34.25C286.964 34.25 286.647 34.3467 286.434 34.54C286.221 34.7267 286.104 34.9867 286.084 35.32H285.144C285.164 35.0333 285.241 34.7767 285.374 34.55C285.507 34.3233 285.677 34.1333 285.884 33.98C286.091 33.8267 286.324 33.71 286.584 33.63C286.844 33.55 287.114 33.51 287.394 33.51C288.141 33.51 288.687 33.6833 289.034 34.03C289.381 34.3767 289.551 34.9367 289.544 35.71L289.534 36.97C289.527 37.4233 289.534 37.8133 289.554 38.14C289.581 38.46 289.621 38.7467 289.674 39H288.754C288.741 38.9 288.727 38.7833 288.714 38.65C288.701 38.5167 288.691 38.37 288.684 38.21C288.517 38.49 288.287 38.7133 287.994 38.88C287.707 39.0467 287.324 39.13 286.844 39.13ZM291.8 33.62V39H290.89V33.62H291.8ZM291.8 31.75V32.85H290.89V31.75H291.8ZM294.153 39H293.243V31.75H294.153V39ZM298.997 36.41C298.584 36.45 298.21 36.5 297.877 36.56C297.544 36.6133 297.26 36.6833 297.027 36.77C296.794 36.85 296.614 36.9567 296.487 37.09C296.36 37.2167 296.297 37.3733 296.297 37.56C296.297 37.8133 296.387 38.02 296.567 38.18C296.754 38.3333 297.01 38.41 297.337 38.41C297.55 38.41 297.757 38.3833 297.957 38.33C298.157 38.27 298.334 38.1733 298.487 38.04C298.64 37.9 298.764 37.7133 298.857 37.48C298.95 37.2467 298.997 36.95 298.997 36.59V36.41ZM297.137 39.13C296.884 39.13 296.644 39.0933 296.417 39.02C296.197 38.9533 296 38.8567 295.827 38.73C295.66 38.5967 295.527 38.4367 295.427 38.25C295.334 38.0567 295.287 37.84 295.287 37.6C295.287 37.28 295.374 37.0133 295.547 36.8C295.72 36.58 295.964 36.4 296.277 36.26C296.597 36.1133 296.98 35.9967 297.427 35.91C297.874 35.8233 298.374 35.75 298.927 35.69V35.54C298.927 35.2867 298.894 35.0767 298.827 34.91C298.767 34.7433 298.68 34.6133 298.567 34.52C298.454 34.42 298.32 34.35 298.167 34.31C298.014 34.27 297.85 34.25 297.677 34.25C297.257 34.25 296.94 34.3467 296.727 34.54C296.514 34.7267 296.397 34.9867 296.377 35.32H295.437C295.457 35.0333 295.534 34.7767 295.667 34.55C295.8 34.3233 295.97 34.1333 296.177 33.98C296.384 33.8267 296.617 33.71 296.877 33.63C297.137 33.55 297.407 33.51 297.687 33.51C298.434 33.51 298.98 33.6833 299.327 34.03C299.674 34.3767 299.844 34.9367 299.837 35.71L299.827 36.97C299.82 37.4233 299.827 37.8133 299.847 38.14C299.874 38.46 299.914 38.7467 299.967 39H299.047C299.034 38.9 299.02 38.7833 299.007 38.65C298.994 38.5167 298.984 38.37 298.977 38.21C298.81 38.49 298.58 38.7133 298.287 38.88C298 39.0467 297.617 39.13 297.137 39.13ZM302.053 36.33C302.053 36.6833 302.096 36.99 302.183 37.25C302.27 37.5033 302.386 37.7133 302.533 37.88C302.68 38.04 302.846 38.16 303.033 38.24C303.226 38.3133 303.423 38.35 303.623 38.35C304.11 38.35 304.483 38.1767 304.743 37.83C305.003 37.4767 305.133 36.9767 305.133 36.33C305.133 35.6833 305.003 35.1867 304.743 34.84C304.483 34.4867 304.11 34.31 303.623 34.31C303.423 34.31 303.226 34.35 303.033 34.43C302.846 34.5033 302.68 34.6233 302.533 34.79C302.386 34.95 302.27 35.16 302.183 35.42C302.096 35.6733 302.053 35.9767 302.053 36.33ZM302.093 31.75V34.47C302.26 34.1833 302.486 33.9567 302.773 33.79C303.06 33.6167 303.42 33.53 303.853 33.53C304.173 33.53 304.47 33.5933 304.743 33.72C305.016 33.8467 305.256 34.03 305.463 34.27C305.67 34.51 305.83 34.8033 305.943 35.15C306.063 35.4967 306.123 35.89 306.123 36.33C306.123 36.7767 306.063 37.1733 305.943 37.52C305.83 37.8667 305.67 38.16 305.463 38.4C305.256 38.64 305.016 38.8233 304.743 38.95C304.47 39.07 304.173 39.13 303.853 39.13C303.42 39.13 303.06 39.0467 302.773 38.88C302.486 38.7067 302.26 38.4767 302.093 38.19V39H301.183V31.75H302.093ZM308.099 39H307.189V31.75H308.099V39ZM311.782 39.13C311.349 39.13 310.969 39.06 310.642 38.92C310.322 38.7733 310.052 38.5733 309.832 38.32C309.612 38.0667 309.446 37.77 309.332 37.43C309.226 37.09 309.172 36.72 309.172 36.32C309.172 35.8933 309.236 35.51 309.362 35.17C309.496 34.8233 309.676 34.53 309.902 34.29C310.136 34.0433 310.409 33.8567 310.722 33.73C311.036 33.5967 311.379 33.53 311.752 33.53C312.166 33.53 312.532 33.61 312.852 33.77C313.179 33.93 313.449 34.15 313.662 34.43C313.876 34.71 314.029 35.0367 314.122 35.41C314.222 35.7833 314.259 36.1833 314.232 36.61H310.162C310.162 36.8767 310.202 37.1167 310.282 37.33C310.369 37.5433 310.486 37.7233 310.632 37.87C310.779 38.0167 310.949 38.13 311.142 38.21C311.336 38.29 311.542 38.33 311.762 38.33C312.182 38.33 312.502 38.25 312.722 38.09C312.942 37.9233 313.109 37.7067 313.222 37.44H314.162C314.102 37.6733 314.006 37.8933 313.872 38.1C313.739 38.3 313.572 38.4767 313.372 38.63C313.179 38.7833 312.949 38.9067 312.682 39C312.416 39.0867 312.116 39.13 311.782 39.13ZM311.752 34.31C311.292 34.31 310.919 34.4433 310.632 34.71C310.346 34.97 310.192 35.3433 310.172 35.83H313.272C313.266 35.6433 313.229 35.46 313.162 35.28C313.096 35.0933 312.999 34.93 312.872 34.79C312.746 34.6433 312.589 34.5267 312.402 34.44C312.216 34.3533 311.999 34.31 311.752 34.31Z" fill="white" fill-opacity="0.5"></path><path d="M34.676 101.048V103.384C36.852 103.555 38.5693 104.28 39.828 105.56C41.108 106.84 41.7373 108.536 41.716 110.648H38.708C38.6867 109.816 38.5587 109.112 38.324 108.536C38.1107 107.96 37.812 107.48 37.428 107.096C37.0653 106.712 36.6387 106.424 36.148 106.232C35.6787 106.019 35.188 105.88 34.676 105.816V113.752L35.156 113.88C36.0307 114.115 36.8947 114.392 37.748 114.712C38.6013 115.032 39.3587 115.448 40.02 115.96C40.7027 116.472 41.2467 117.101 41.652 117.848C42.0573 118.595 42.26 119.523 42.26 120.632C42.26 121.72 42.0573 122.669 41.652 123.48C41.2467 124.291 40.7027 124.973 40.02 125.528C39.3373 126.083 38.5267 126.52 37.588 126.84C36.6707 127.139 35.7 127.32 34.676 127.384V130.104H32.916V127.384C31.8067 127.299 30.7933 127.043 29.876 126.616C28.98 126.189 28.2013 125.645 27.54 124.984C26.9 124.301 26.3987 123.512 26.036 122.616C25.6947 121.699 25.5347 120.707 25.556 119.64H28.564C28.5853 120.493 28.7133 121.24 28.948 121.88C29.204 122.499 29.5347 123.032 29.94 123.48C30.3453 123.907 30.804 124.248 31.316 124.504C31.828 124.739 32.3613 124.888 32.916 124.952V116.28L32.212 116.088C31.3373 115.853 30.5267 115.544 29.78 115.16C29.0547 114.776 28.4253 114.317 27.892 113.784C27.3587 113.229 26.932 112.6 26.612 111.896C26.3133 111.171 26.164 110.36 26.164 109.464C26.164 108.547 26.356 107.736 26.74 107.032C27.124 106.307 27.6253 105.688 28.244 105.176C28.8627 104.664 29.5773 104.259 30.388 103.96C31.1987 103.661 32.0413 103.469 32.916 103.384V101.048H34.676ZM39.252 121.08C39.252 120.397 39.1453 119.832 38.932 119.384C38.7187 118.915 38.4093 118.52 38.004 118.2C37.62 117.88 37.14 117.613 36.564 117.4C36.0093 117.165 35.38 116.952 34.676 116.76V124.984C35.2733 124.941 35.8493 124.835 36.404 124.664C36.9587 124.472 37.4493 124.216 37.876 123.896C38.3027 123.576 38.6333 123.181 38.868 122.712C39.124 122.243 39.252 121.699 39.252 121.08ZM29.172 109.432C29.172 110.392 29.4707 111.181 30.068 111.8C30.6867 112.419 31.6253 112.909 32.884 113.272L32.916 113.304V105.784C32.4467 105.827 31.988 105.933 31.54 106.104C31.092 106.253 30.6867 106.477 30.324 106.776C29.9827 107.075 29.7053 107.448 29.492 107.896C29.2787 108.323 29.172 108.835 29.172 109.432ZM54.0973 124.984C55.6333 124.984 56.8919 124.6 57.8733 123.832C58.8546 123.064 59.3453 121.955 59.3453 120.504C59.3453 119.672 59.1639 118.979 58.8013 118.424C58.4599 117.848 57.9906 117.389 57.3933 117.048C56.7959 116.707 56.0813 116.461 55.2493 116.312C54.4386 116.163 53.5746 116.088 52.6573 116.088H52.1773V113.432H52.5613C54.5879 113.432 56.1239 113.133 57.1693 112.536C58.2146 111.939 58.7373 110.957 58.7373 109.592C58.7373 108.973 58.6199 108.429 58.3853 107.96C58.1506 107.491 57.8199 107.096 57.3933 106.776C56.9879 106.456 56.5079 106.221 55.9533 106.072C55.4199 105.901 54.8439 105.816 54.2253 105.816C52.6679 105.816 51.4626 106.243 50.6093 107.096C49.7773 107.928 49.2973 109.005 49.1693 110.328H46.1613C46.2466 109.304 46.4919 108.365 46.8973 107.512C47.3026 106.659 47.8466 105.933 48.5293 105.336C49.2119 104.717 50.0333 104.237 50.9933 103.896C51.9746 103.555 53.0733 103.384 54.2893 103.384C55.2919 103.384 56.2413 103.491 57.1373 103.704C58.0546 103.917 58.8546 104.259 59.5373 104.728C60.2413 105.197 60.7959 105.805 61.2013 106.552C61.6066 107.299 61.8093 108.205 61.8093 109.272C61.8093 110.467 61.4786 111.544 60.8173 112.504C60.1773 113.443 59.2493 114.157 58.0333 114.648C58.8866 114.925 59.6013 115.267 60.1772 115.672C60.7533 116.077 61.2013 116.536 61.5213 117.048C61.8626 117.56 62.0973 118.115 62.2253 118.712C62.3746 119.288 62.4493 119.875 62.4493 120.472C62.4493 121.645 62.2146 122.669 61.7453 123.544C61.2973 124.397 60.6893 125.112 59.9213 125.688C59.1533 126.264 58.2573 126.701 57.2333 127C56.2306 127.277 55.1746 127.416 54.0653 127.416C52.6999 127.416 51.5159 127.224 50.5133 126.84C49.5106 126.435 48.6679 125.901 47.9852 125.24C47.3239 124.579 46.8119 123.811 46.4493 122.936C46.1079 122.04 45.8946 121.112 45.8093 120.152H48.8173C48.9879 121.581 49.4999 122.744 50.3533 123.64C51.2066 124.536 52.4546 124.984 54.0973 124.984ZM81.7048 115.384C81.7048 112.163 81.1714 109.763 80.1048 108.184C79.0381 106.605 77.5981 105.816 75.7848 105.816C73.9501 105.816 72.4994 106.605 71.4328 108.184C70.3874 109.763 69.8648 112.163 69.8648 115.384C69.8648 118.627 70.3874 121.037 71.4328 122.616C72.4994 124.195 73.9501 124.984 75.7848 124.984C77.6194 124.984 79.0594 124.195 80.1048 122.616C81.1714 121.037 81.7048 118.627 81.7048 115.384ZM84.8088 115.384C84.8088 117.219 84.6274 118.883 84.2648 120.376C83.9021 121.848 83.3474 123.107 82.6007 124.152C81.8754 125.197 80.9368 126.008 79.7848 126.584C78.6541 127.139 77.3208 127.416 75.7848 127.416C74.2488 127.416 72.9048 127.139 71.7528 126.584C70.6221 126.008 69.6834 125.197 68.9368 124.152C68.2114 123.107 67.6674 121.848 67.3048 120.376C66.9421 118.883 66.7608 117.219 66.7608 115.384C66.7608 113.549 66.9421 111.896 67.3048 110.424C67.6674 108.931 68.2114 107.672 68.9368 106.648C69.6834 105.603 70.6221 104.803 71.7528 104.248C72.9048 103.672 74.2488 103.384 75.7848 103.384C77.3208 103.384 78.6541 103.672 79.7848 104.248C80.9368 104.803 81.8754 105.603 82.6007 106.648C83.3474 107.672 83.9021 108.931 84.2648 110.424C84.6274 111.896 84.8088 113.549 84.8088 115.384ZM88.7363 123.32H92.4163V127.256L90.4643 131.448H88.6083L90.3043 127H88.7363V123.32ZM111.236 115.384C111.236 112.163 110.703 109.763 109.636 108.184C108.569 106.605 107.129 105.816 105.316 105.816C103.481 105.816 102.031 106.605 100.964 108.184C99.9187 109.763 99.396 112.163 99.396 115.384C99.396 118.627 99.9187 121.037 100.964 122.616C102.031 124.195 103.481 124.984 105.316 124.984C107.151 124.984 108.591 124.195 109.636 122.616C110.703 121.037 111.236 118.627 111.236 115.384ZM114.34 115.384C114.34 117.219 114.159 118.883 113.796 120.376C113.433 121.848 112.879 123.107 112.132 124.152C111.407 125.197 110.468 126.008 109.316 126.584C108.185 127.139 106.852 127.416 105.316 127.416C103.78 127.416 102.436 127.139 101.284 126.584C100.153 126.008 99.2147 125.197 98.468 124.152C97.7427 123.107 97.1987 121.848 96.836 120.376C96.4733 118.883 96.292 117.219 96.292 115.384C96.292 113.549 96.4733 111.896 96.836 110.424C97.1987 108.931 97.7427 107.672 98.468 106.648C99.2147 105.603 100.153 104.803 101.284 104.248C102.436 103.672 103.78 103.384 105.316 103.384C106.852 103.384 108.185 103.672 109.316 104.248C110.468 104.803 111.407 105.603 112.132 106.648C112.879 107.672 113.433 108.931 113.796 110.424C114.159 111.896 114.34 113.549 114.34 115.384ZM132.924 115.384C132.924 112.163 132.39 109.763 131.324 108.184C130.257 106.605 128.817 105.816 127.004 105.816C125.169 105.816 123.718 106.605 122.652 108.184C121.606 109.763 121.084 112.163 121.084 115.384C121.084 118.627 121.606 121.037 122.652 122.616C123.718 124.195 125.169 124.984 127.004 124.984C128.838 124.984 130.278 124.195 131.324 122.616C132.39 121.037 132.924 118.627 132.924 115.384ZM136.028 115.384C136.028 117.219 135.846 118.883 135.484 120.376C135.121 121.848 134.566 123.107 133.819 124.152C133.094 125.197 132.156 126.008 131.004 126.584C129.873 127.139 128.54 127.416 127.004 127.416C125.468 127.416 124.124 127.139 122.972 126.584C121.841 126.008 120.902 125.197 120.156 124.152C119.43 123.107 118.886 121.848 118.524 120.376C118.161 118.883 117.98 117.219 117.98 115.384C117.98 113.549 118.161 111.896 118.524 110.424C118.886 108.931 119.43 107.672 120.156 106.648C120.902 105.603 121.841 104.803 122.972 104.248C124.124 103.672 125.468 103.384 127.004 103.384C128.54 103.384 129.873 103.672 131.004 104.248C132.156 104.803 133.094 105.603 133.819 106.648C134.566 107.672 135.121 108.931 135.484 110.424C135.846 111.896 136.028 113.549 136.028 115.384ZM154.611 115.384C154.611 112.163 154.078 109.763 153.011 108.184C151.944 106.605 150.504 105.816 148.691 105.816C146.856 105.816 145.406 106.605 144.339 108.184C143.294 109.763 142.771 112.163 142.771 115.384C142.771 118.627 143.294 121.037 144.339 122.616C145.406 124.195 146.856 124.984 148.691 124.984C150.526 124.984 151.966 124.195 153.011 122.616C154.078 121.037 154.611 118.627 154.611 115.384ZM157.715 115.384C157.715 117.219 157.534 118.883 157.171 120.376C156.808 121.848 156.254 123.107 155.507 124.152C154.782 125.197 153.843 126.008 152.691 126.584C151.56 127.139 150.227 127.416 148.691 127.416C147.155 127.416 145.811 127.139 144.659 126.584C143.528 126.008 142.59 125.197 141.843 124.152C141.118 123.107 140.574 121.848 140.211 120.376C139.848 118.883 139.667 117.219 139.667 115.384C139.667 113.549 139.848 111.896 140.211 110.424C140.574 108.931 141.118 107.672 141.843 106.648C142.59 105.603 143.528 104.803 144.659 104.248C145.811 103.672 147.155 103.384 148.691 103.384C150.227 103.384 151.56 103.672 152.691 104.248C153.843 104.803 154.782 105.603 155.507 106.648C156.254 107.672 156.808 108.931 157.171 110.424C157.534 111.896 157.715 113.549 157.715 115.384Z" fill="white"></path><path d="M229.5 130L234.06 118.4H235.532L230.956 130H229.5ZM248.213 117.024V118.192C249.301 118.277 250.16 118.64 250.789 119.28C251.429 119.92 251.744 120.768 251.733 121.824H250.229C250.218 121.408 250.154 121.056 250.037 120.768C249.93 120.48 249.781 120.24 249.589 120.048C249.408 119.856 249.194 119.712 248.949 119.616C248.714 119.509 248.469 119.44 248.213 119.408V123.376L248.453 123.44C248.89 123.557 249.322 123.696 249.749 123.856C250.176 124.016 250.554 124.224 250.885 124.48C251.226 124.736 251.498 125.051 251.701 125.424C251.904 125.797 252.005 126.261 252.005 126.816C252.005 127.36 251.904 127.835 251.701 128.24C251.498 128.645 251.226 128.987 250.885 129.264C250.544 129.541 250.138 129.76 249.669 129.92C249.21 130.069 248.725 130.16 248.213 130.192V131.552H247.333V130.192C246.778 130.149 246.272 130.021 245.813 129.808C245.365 129.595 244.976 129.323 244.645 128.992C244.325 128.651 244.074 128.256 243.893 127.808C243.722 127.349 243.642 126.853 243.653 126.32H245.157C245.168 126.747 245.232 127.12 245.349 127.44C245.477 127.749 245.642 128.016 245.845 128.24C246.048 128.453 246.277 128.624 246.533 128.752C246.789 128.869 247.056 128.944 247.333 128.976V124.64L246.981 124.544C246.544 124.427 246.138 124.272 245.765 124.08C245.402 123.888 245.088 123.659 244.821 123.392C244.554 123.115 244.341 122.8 244.181 122.448C244.032 122.085 243.957 121.68 243.957 121.232C243.957 120.773 244.053 120.368 244.245 120.016C244.437 119.653 244.688 119.344 244.997 119.088C245.306 118.832 245.664 118.629 246.069 118.48C246.474 118.331 246.896 118.235 247.333 118.192V117.024H248.213ZM250.501 127.04C250.501 126.699 250.448 126.416 250.341 126.192C250.234 125.957 250.08 125.76 249.877 125.6C249.685 125.44 249.445 125.307 249.157 125.2C248.88 125.083 248.565 124.976 248.213 124.88V128.992C248.512 128.971 248.8 128.917 249.077 128.832C249.354 128.736 249.6 128.608 249.813 128.448C250.026 128.288 250.192 128.091 250.309 127.856C250.437 127.621 250.501 127.349 250.501 127.04ZM245.461 121.216C245.461 121.696 245.61 122.091 245.909 122.4C246.218 122.709 246.688 122.955 247.317 123.136L247.333 123.152V119.392C247.098 119.413 246.869 119.467 246.645 119.552C246.421 119.627 246.218 119.739 246.037 119.888C245.866 120.037 245.728 120.224 245.621 120.448C245.514 120.661 245.461 120.917 245.461 121.216ZM261.604 128.656V130H254.276V128.656H257.38V121.088H254.292V120.08C254.74 120.069 255.145 120.043 255.508 120C255.87 119.957 256.196 119.883 256.484 119.776C256.782 119.669 257.044 119.52 257.268 119.328C257.492 119.125 257.684 118.864 257.844 118.544H258.836V128.656H261.604ZM271.727 124.192C271.727 122.581 271.461 121.381 270.927 120.592C270.394 119.803 269.674 119.408 268.767 119.408C267.85 119.408 267.125 119.803 266.591 120.592C266.069 121.381 265.807 122.581 265.807 124.192C265.807 125.813 266.069 127.019 266.591 127.808C267.125 128.597 267.85 128.992 268.767 128.992C269.685 128.992 270.405 128.597 270.927 127.808C271.461 127.019 271.727 125.813 271.727 124.192ZM273.279 124.192C273.279 125.109 273.189 125.941 273.007 126.688C272.826 127.424 272.549 128.053 272.175 128.576C271.813 129.099 271.343 129.504 270.767 129.792C270.202 130.069 269.535 130.208 268.767 130.208C267.999 130.208 267.327 130.069 266.751 129.792C266.186 129.504 265.717 129.099 265.343 128.576C264.981 128.053 264.709 127.424 264.527 126.688C264.346 125.941 264.255 125.109 264.255 124.192C264.255 123.275 264.346 122.448 264.527 121.712C264.709 120.965 264.981 120.336 265.343 119.824C265.717 119.301 266.186 118.901 266.751 118.624C267.327 118.336 267.999 118.192 268.767 118.192C269.535 118.192 270.202 118.336 270.767 118.624C271.343 118.901 271.813 119.301 272.175 119.824C272.549 120.336 272.826 120.965 273.007 121.712C273.189 122.448 273.279 123.275 273.279 124.192ZM282.571 124.192C282.571 122.581 282.304 121.381 281.771 120.592C281.238 119.803 280.518 119.408 279.611 119.408C278.694 119.408 277.968 119.803 277.435 120.592C276.912 121.381 276.651 122.581 276.651 124.192C276.651 125.813 276.912 127.019 277.435 127.808C277.968 128.597 278.694 128.992 279.611 128.992C280.528 128.992 281.248 128.597 281.771 127.808C282.304 127.019 282.571 125.813 282.571 124.192ZM284.123 124.192C284.123 125.109 284.032 125.941 283.851 126.688C283.67 127.424 283.392 128.053 283.019 128.576C282.656 129.099 282.187 129.504 281.611 129.792C281.046 130.069 280.379 130.208 279.611 130.208C278.843 130.208 278.171 130.069 277.595 129.792C277.03 129.504 276.56 129.099 276.187 128.576C275.824 128.053 275.552 127.424 275.371 126.688C275.19 125.941 275.099 125.109 275.099 124.192C275.099 123.275 275.19 122.448 275.371 121.712C275.552 120.965 275.824 120.336 276.187 119.824C276.56 119.301 277.03 118.901 277.595 118.624C278.171 118.336 278.843 118.192 279.611 118.192C280.379 118.192 281.046 118.336 281.611 118.624C282.187 118.901 282.656 119.301 283.019 119.824C283.392 120.336 283.67 120.965 283.851 121.712C284.032 122.448 284.123 123.275 284.123 124.192ZM286.087 128.16H287.927V130.128L286.951 132.224H286.023L286.871 130H286.087V128.16ZM297.337 124.192C297.337 122.581 297.07 121.381 296.537 120.592C296.003 119.803 295.283 119.408 294.377 119.408C293.459 119.408 292.734 119.803 292.201 120.592C291.678 121.381 291.417 122.581 291.417 124.192C291.417 125.813 291.678 127.019 292.201 127.808C292.734 128.597 293.459 128.992 294.377 128.992C295.294 128.992 296.014 128.597 296.537 127.808C297.07 127.019 297.337 125.813 297.337 124.192ZM298.889 124.192C298.889 125.109 298.798 125.941 298.617 126.688C298.435 127.424 298.158 128.053 297.785 128.576C297.422 129.099 296.953 129.504 296.377 129.792C295.811 130.069 295.145 130.208 294.377 130.208C293.609 130.208 292.937 130.069 292.361 129.792C291.795 129.504 291.326 129.099 290.953 128.576C290.59 128.053 290.318 127.424 290.137 126.688C289.955 125.941 289.865 125.109 289.865 124.192C289.865 123.275 289.955 122.448 290.137 121.712C290.318 120.965 290.59 120.336 290.953 119.824C291.326 119.301 291.795 118.901 292.361 118.624C292.937 118.336 293.609 118.192 294.377 118.192C295.145 118.192 295.811 118.336 296.377 118.624C296.953 118.901 297.422 119.301 297.785 119.824C298.158 120.336 298.435 120.965 298.617 121.712C298.798 122.448 298.889 123.275 298.889 124.192ZM308.181 124.192C308.181 122.581 307.914 121.381 307.381 120.592C306.847 119.803 306.127 119.408 305.221 119.408C304.303 119.408 303.578 119.803 303.045 120.592C302.522 121.381 302.261 122.581 302.261 124.192C302.261 125.813 302.522 127.019 303.045 127.808C303.578 128.597 304.303 128.992 305.221 128.992C306.138 128.992 306.858 128.597 307.381 127.808C307.914 127.019 308.181 125.813 308.181 124.192ZM309.733 124.192C309.733 125.109 309.642 125.941 309.461 126.688C309.279 127.424 309.002 128.053 308.628 128.576C308.266 129.099 307.797 129.504 307.221 129.792C306.655 130.069 305.989 130.208 305.221 130.208C304.453 130.208 303.781 130.069 303.205 129.792C302.639 129.504 302.17 129.099 301.797 128.576C301.434 128.053 301.162 127.424 300.981 126.688C300.799 125.941 300.709 125.109 300.709 124.192C300.709 123.275 300.799 122.448 300.981 121.712C301.162 120.965 301.434 120.336 301.797 119.824C302.17 119.301 302.639 118.901 303.205 118.624C303.781 118.336 304.453 118.192 305.221 118.192C305.989 118.192 306.655 118.336 307.221 118.624C307.797 118.901 308.266 119.301 308.628 119.824C309.002 120.336 309.279 120.965 309.461 121.712C309.642 122.448 309.733 123.275 309.733 124.192ZM319.024 124.192C319.024 122.581 318.758 121.381 318.224 120.592C317.691 119.803 316.971 119.408 316.064 119.408C315.147 119.408 314.422 119.803 313.888 120.592C313.366 121.381 313.104 122.581 313.104 124.192C313.104 125.813 313.366 127.019 313.888 127.808C314.422 128.597 315.147 128.992 316.064 128.992C316.982 128.992 317.702 128.597 318.224 127.808C318.758 127.019 319.024 125.813 319.024 124.192ZM320.576 124.192C320.576 125.109 320.486 125.941 320.304 126.688C320.123 127.424 319.846 128.053 319.472 128.576C319.11 129.099 318.64 129.504 318.064 129.792C317.499 130.069 316.832 130.208 316.064 130.208C315.296 130.208 314.624 130.069 314.048 129.792C313.483 129.504 313.014 129.099 312.64 128.576C312.278 128.053 312.006 127.424 311.824 126.688C311.643 125.941 311.552 125.109 311.552 124.192C311.552 123.275 311.643 122.448 311.824 121.712C312.006 120.965 312.278 120.336 312.64 119.824C313.014 119.301 313.483 118.901 314.048 118.624C314.624 118.336 315.296 118.192 316.064 118.192C316.832 118.192 317.499 118.336 318.064 118.624C318.64 118.901 319.11 119.301 319.472 119.824C319.846 120.336 320.123 120.965 320.304 121.712C320.486 122.448 320.576 123.275 320.576 124.192Z" fill="white"></path><g clip-path="url(#clip1_11872_56708)"><rect width="297" height="8" transform="translate(24.5 152)" fill="white" fill-opacity="0.1"></rect><path d="M24.5 156H111.5" stroke="white" stroke-width="400"></path><path d="M111.5 156H112.5" stroke="#1A1A1A" stroke-width="800"></path></g><path d="M28.556 187.244C29.132 187.244 29.604 187.1 29.972 186.812C30.34 186.524 30.524 186.108 30.524 185.564C30.524 185.252 30.456 184.992 30.32 184.784C30.192 184.568 30.016 184.396 29.792 184.268C29.568 184.14 29.3 184.048 28.988 183.992C28.684 183.936 28.36 183.908 28.016 183.908H27.836V182.912H27.98C28.74 182.912 29.316 182.8 29.708 182.576C30.1 182.352 30.296 181.984 30.296 181.472C30.296 181.24 30.252 181.036 30.164 180.86C30.076 180.684 29.952 180.536 29.792 180.416C29.64 180.296 29.46 180.208 29.252 180.152C29.052 180.088 28.836 180.056 28.604 180.056C28.02 180.056 27.568 180.216 27.248 180.536C26.936 180.848 26.756 181.252 26.708 181.748H25.58C25.612 181.364 25.704 181.012 25.856 180.692C26.008 180.372 26.212 180.1 26.468 179.876C26.724 179.644 27.032 179.464 27.392 179.336C27.76 179.208 28.172 179.144 28.628 179.144C29.004 179.144 29.36 179.184 29.696 179.264C30.04 179.344 30.34 179.472 30.596 179.648C30.86 179.824 31.068 180.052 31.22 180.332C31.372 180.612 31.448 180.952 31.448 181.352C31.448 181.8 31.324 182.204 31.076 182.564C30.836 182.916 30.488 183.184 30.032 183.368C30.352 183.472 30.62 183.6 30.836 183.752C31.052 183.904 31.22 184.076 31.34 184.268C31.468 184.46 31.556 184.668 31.604 184.892C31.66 185.108 31.688 185.328 31.688 185.552C31.688 185.992 31.6 186.376 31.424 186.704C31.256 187.024 31.028 187.292 30.74 187.508C30.452 187.724 30.116 187.888 29.732 188C29.356 188.104 28.96 188.156 28.544 188.156C28.032 188.156 27.588 188.084 27.212 187.94C26.836 187.788 26.52 187.588 26.264 187.34C26.016 187.092 25.824 186.804 25.688 186.476C25.56 186.14 25.48 185.792 25.448 185.432H26.576C26.64 185.968 26.832 186.404 27.152 186.74C27.472 187.076 27.94 187.244 28.556 187.244ZM38.9088 183.644C38.9088 182.436 38.7088 181.536 38.3088 180.944C37.9088 180.352 37.3688 180.056 36.6888 180.056C36.0008 180.056 35.4568 180.352 35.0568 180.944C34.6648 181.536 34.4688 182.436 34.4688 183.644C34.4688 184.86 34.6648 185.764 35.0568 186.356C35.4568 186.948 36.0008 187.244 36.6888 187.244C37.3768 187.244 37.9168 186.948 38.3088 186.356C38.7088 185.764 38.9088 184.86 38.9088 183.644ZM40.0728 183.644C40.0728 184.332 40.0048 184.956 39.8688 185.516C39.7328 186.068 39.5248 186.54 39.2448 186.932C38.9728 187.324 38.6208 187.628 38.1888 187.844C37.7648 188.052 37.2648 188.156 36.6888 188.156C36.1128 188.156 35.6088 188.052 35.1768 187.844C34.7528 187.628 34.4008 187.324 34.1208 186.932C33.8488 186.54 33.6448 186.068 33.5088 185.516C33.3728 184.956 33.3048 184.332 33.3048 183.644C33.3048 182.956 33.3728 182.336 33.5088 181.784C33.6448 181.224 33.8488 180.752 34.1208 180.368C34.4008 179.976 34.7528 179.676 35.1768 179.468C35.6088 179.252 36.1128 179.144 36.6888 179.144C37.2648 179.144 37.7648 179.252 38.1888 179.468C38.6208 179.676 38.9728 179.976 39.2448 180.368C39.5248 180.752 39.7328 181.224 39.8688 181.784C40.0048 182.336 40.0728 182.956 40.0728 183.644ZM43.1656 184.28C42.8376 184.28 42.5496 184.22 42.3016 184.1C42.0616 183.972 41.8616 183.796 41.7016 183.572C41.5416 183.348 41.4176 183.084 41.3296 182.78C41.2496 182.468 41.2096 182.124 41.2096 181.748C41.2096 181.38 41.2496 181.04 41.3296 180.728C41.4176 180.416 41.5416 180.148 41.7016 179.924C41.8616 179.7 42.0616 179.528 42.3016 179.408C42.5496 179.28 42.8376 179.216 43.1656 179.216C43.4936 179.216 43.7816 179.28 44.0296 179.408C44.2776 179.528 44.4816 179.7 44.6416 179.924C44.8096 180.148 44.9336 180.416 45.0136 180.728C45.1016 181.04 45.1456 181.38 45.1456 181.748C45.1456 182.124 45.1016 182.468 45.0136 182.78C44.9336 183.084 44.8096 183.348 44.6416 183.572C44.4816 183.796 44.2776 183.972 44.0296 184.1C43.7816 184.22 43.4936 184.28 43.1656 184.28ZM43.1656 183.62C43.5176 183.62 43.7816 183.46 43.9576 183.14C44.1416 182.812 44.2336 182.348 44.2336 181.748C44.2336 181.148 44.1416 180.684 43.9576 180.356C43.7816 180.028 43.5176 179.864 43.1656 179.864C42.8296 179.864 42.5696 180.028 42.3856 180.356C42.2096 180.684 42.1216 181.148 42.1216 181.748C42.1216 182.348 42.2096 182.812 42.3856 183.14C42.5696 183.46 42.8296 183.62 43.1656 183.62ZM43.1536 188L49.1536 179.3H50.3656L44.3656 188H43.1536ZM50.3656 188.084C50.0376 188.084 49.7496 188.024 49.5016 187.904C49.2616 187.776 49.0616 187.6 48.9016 187.376C48.7416 187.152 48.6176 186.888 48.5296 186.584C48.4496 186.272 48.4096 185.928 48.4096 185.552C48.4096 185.184 48.4496 184.844 48.5296 184.532C48.6176 184.22 48.7416 183.952 48.9016 183.728C49.0616 183.504 49.2616 183.332 49.5016 183.212C49.7496 183.084 50.0376 183.02 50.3656 183.02C50.6936 183.02 50.9816 183.084 51.2296 183.212C51.4776 183.332 51.6816 183.504 51.8416 183.728C52.0096 183.952 52.1336 184.22 52.2136 184.532C52.3016 184.844 52.3456 185.184 52.3456 185.552C52.3456 185.928 52.3016 186.272 52.2136 186.584C52.1336 186.888 52.0096 187.152 51.8416 187.376C51.6816 187.6 51.4776 187.776 51.2296 187.904C50.9816 188.024 50.6936 188.084 50.3656 188.084ZM50.3656 187.424C50.7176 187.424 50.9816 187.264 51.1576 186.944C51.3416 186.616 51.4336 186.152 51.4336 185.552C51.4336 184.952 51.3416 184.488 51.1576 184.16C50.9816 183.832 50.7176 183.668 50.3656 183.668C50.0296 183.668 49.7696 183.832 49.5856 184.16C49.4096 184.488 49.3216 184.952 49.3216 185.552C49.3216 186.152 49.4096 186.616 49.5856 186.944C49.7696 187.264 50.0296 187.424 50.3656 187.424Z" fill="white"></path><path d="M63.952 184.328C63.84 184.336 63.728 184.34 63.616 184.34C63.512 184.34 63.404 184.34 63.292 184.34H61.756V188H60.532V179.3H63.292C63.82 179.3 64.304 179.332 64.744 179.396C65.192 179.46 65.576 179.584 65.896 179.768C66.216 179.952 66.464 180.208 66.64 180.536C66.824 180.864 66.916 181.288 66.916 181.808C66.916 182.496 66.76 183.02 66.448 183.38C66.144 183.74 65.724 183.992 65.188 184.136L67.204 188H65.836L63.952 184.328ZM61.756 180.332V183.308H63.388C63.708 183.308 64.004 183.296 64.276 183.272C64.556 183.24 64.796 183.176 64.996 183.08C65.204 182.976 65.364 182.828 65.476 182.636C65.596 182.436 65.656 182.168 65.656 181.832C65.656 181.496 65.596 181.228 65.476 181.028C65.364 180.828 65.204 180.68 64.996 180.584C64.796 180.48 64.556 180.412 64.276 180.38C64.004 180.348 63.708 180.332 63.388 180.332H61.756ZM71.1379 188.156C70.6179 188.156 70.1619 188.072 69.7699 187.904C69.3859 187.728 69.0619 187.488 68.7979 187.184C68.5339 186.88 68.3339 186.524 68.1979 186.116C68.0699 185.708 68.0059 185.264 68.0059 184.784C68.0059 184.272 68.0819 183.812 68.2339 183.404C68.3939 182.988 68.6099 182.636 68.8819 182.348C69.1619 182.052 69.4899 181.828 69.8659 181.676C70.2419 181.516 70.6539 181.436 71.1019 181.436C71.5979 181.436 72.0379 181.532 72.4219 181.724C72.8139 181.916 73.1379 182.18 73.3939 182.516C73.6499 182.852 73.8339 183.244 73.9459 183.692C74.0659 184.14 74.1099 184.62 74.0779 185.132H69.1939C69.1939 185.452 69.2419 185.74 69.3379 185.996C69.4419 186.252 69.5819 186.468 69.7579 186.644C69.9339 186.82 70.1379 186.956 70.3699 187.052C70.6019 187.148 70.8499 187.196 71.1139 187.196C71.6179 187.196 72.0019 187.1 72.2659 186.908C72.5299 186.708 72.7299 186.448 72.8659 186.128H73.9939C73.9219 186.408 73.8059 186.672 73.6459 186.92C73.4859 187.16 73.2859 187.372 73.0459 187.556C72.8139 187.74 72.5379 187.888 72.2179 188C71.8979 188.104 71.5379 188.156 71.1379 188.156ZM71.1019 182.372C70.5499 182.372 70.1019 182.532 69.7579 182.852C69.4139 183.164 69.2299 183.612 69.2059 184.196H72.9259C72.9179 183.972 72.8739 183.752 72.7939 183.536C72.7139 183.312 72.5979 183.116 72.4459 182.948C72.2939 182.772 72.1059 182.632 71.8819 182.528C71.6579 182.424 71.3979 182.372 71.1019 182.372ZM79.8146 181.544H80.9066V190.1H79.8146V187.028C79.6146 187.372 79.3426 187.648 78.9986 187.856C78.6546 188.056 78.2226 188.156 77.7026 188.156C77.3186 188.156 76.9626 188.084 76.6346 187.94C76.3066 187.788 76.0186 187.568 75.7706 187.28C75.5226 186.992 75.3266 186.64 75.1826 186.224C75.0466 185.808 74.9786 185.332 74.9786 184.796C74.9786 184.268 75.0466 183.796 75.1826 183.38C75.3266 182.964 75.5226 182.612 75.7706 182.324C76.0186 182.036 76.3066 181.816 76.6346 181.664C76.9626 181.512 77.3186 181.436 77.7026 181.436C78.2226 181.436 78.6546 181.54 78.9986 181.748C79.3426 181.948 79.6146 182.22 79.8146 182.564V181.544ZM79.8626 184.796C79.8626 184.372 79.8106 184.008 79.7066 183.704C79.6026 183.392 79.4626 183.14 79.2866 182.948C79.1106 182.748 78.9066 182.604 78.6746 182.516C78.4506 182.42 78.2186 182.372 77.9786 182.372C77.3946 182.372 76.9466 182.584 76.6346 183.008C76.3226 183.424 76.1666 184.02 76.1666 184.796C76.1666 185.572 76.3226 186.172 76.6346 186.596C76.9466 187.012 77.3946 187.22 77.9786 187.22C78.2186 187.22 78.4506 187.176 78.6746 187.088C78.9066 186.992 79.1106 186.848 79.2866 186.656C79.4626 186.456 79.6026 186.204 79.7066 185.9C79.8106 185.588 79.8626 185.22 79.8626 184.796ZM86.6256 187.076C86.4416 187.38 86.1896 187.636 85.8696 187.844C85.5576 188.052 85.1336 188.156 84.5976 188.156C84.2216 188.156 83.9016 188.096 83.6376 187.976C83.3816 187.856 83.1696 187.688 83.0016 187.472C82.8416 187.248 82.7216 186.984 82.6416 186.68C82.5696 186.376 82.5336 186.04 82.5336 185.672V181.544H83.6256V185.348C83.6256 185.596 83.6376 185.832 83.6616 186.056C83.6936 186.28 83.7576 186.48 83.8536 186.656C83.9496 186.824 84.0856 186.96 84.2616 187.064C84.4456 187.16 84.6856 187.208 84.9816 187.208C85.5016 187.208 85.9056 187.032 86.1936 186.68C86.4816 186.32 86.6256 185.792 86.6256 185.096V181.544H87.7176V188H86.6256V187.076ZM92.1379 188.156C91.6179 188.156 91.1619 188.072 90.7699 187.904C90.3859 187.728 90.0619 187.488 89.7979 187.184C89.5339 186.88 89.3339 186.524 89.1979 186.116C89.0699 185.708 89.0059 185.264 89.0059 184.784C89.0059 184.272 89.0819 183.812 89.2339 183.404C89.3939 182.988 89.6099 182.636 89.8819 182.348C90.1619 182.052 90.4899 181.828 90.8659 181.676C91.2419 181.516 91.6539 181.436 92.1019 181.436C92.5979 181.436 93.0379 181.532 93.4219 181.724C93.8139 181.916 94.1379 182.18 94.3939 182.516C94.6499 182.852 94.8339 183.244 94.9459 183.692C95.0659 184.14 95.1099 184.62 95.0779 185.132H90.1939C90.1939 185.452 90.2419 185.74 90.3379 185.996C90.4419 186.252 90.5819 186.468 90.7579 186.644C90.9339 186.82 91.1379 186.956 91.3699 187.052C91.6019 187.148 91.8499 187.196 92.1139 187.196C92.6179 187.196 93.0019 187.1 93.2659 186.908C93.5299 186.708 93.7299 186.448 93.8659 186.128H94.9939C94.9219 186.408 94.8059 186.672 94.6459 186.92C94.4859 187.16 94.2859 187.372 94.0459 187.556C93.8139 187.74 93.5379 187.888 93.2179 188C92.8979 188.104 92.5379 188.156 92.1379 188.156ZM92.1019 182.372C91.5499 182.372 91.1019 182.532 90.7579 182.852C90.4139 183.164 90.2299 183.612 90.2059 184.196H93.9259C93.9179 183.972 93.8739 183.752 93.7939 183.536C93.7139 183.312 93.5979 183.116 93.4459 182.948C93.2939 182.772 93.1059 182.632 92.8819 182.528C92.6579 182.424 92.3979 182.372 92.1019 182.372ZM100.131 183.428C100.043 183.044 99.8594 182.772 99.5794 182.612C99.3074 182.444 98.9674 182.36 98.5594 182.36C98.3914 182.36 98.2234 182.376 98.0554 182.408C97.8874 182.432 97.7354 182.48 97.5994 182.552C97.4714 182.616 97.3634 182.7 97.2754 182.804C97.1954 182.908 97.1554 183.032 97.1554 183.176C97.1554 183.432 97.2434 183.624 97.4194 183.752C97.5954 183.88 97.8514 183.98 98.1874 184.052L99.0994 184.232C99.4034 184.296 99.6914 184.372 99.9634 184.46C100.243 184.548 100.483 184.668 100.683 184.82C100.891 184.964 101.055 185.144 101.175 185.36C101.295 185.576 101.355 185.84 101.355 186.152C101.355 186.472 101.287 186.756 101.151 187.004C101.015 187.252 100.827 187.464 100.587 187.64C100.347 187.808 100.063 187.936 99.7354 188.024C99.4154 188.112 99.0634 188.156 98.6794 188.156C98.2474 188.156 97.8594 188.092 97.5154 187.964C97.1794 187.836 96.8914 187.668 96.6514 187.46C96.4194 187.252 96.2354 187.012 96.0994 186.74C95.9714 186.468 95.8914 186.192 95.8594 185.912H97.0114C97.0994 186.328 97.2754 186.652 97.5394 186.884C97.8114 187.116 98.1994 187.232 98.7034 187.232C99.1434 187.232 99.5114 187.148 99.8074 186.98C100.103 186.812 100.251 186.576 100.251 186.272C100.251 186.112 100.215 185.972 100.143 185.852C100.071 185.732 99.9714 185.632 99.8434 185.552C99.7234 185.464 99.5794 185.396 99.4114 185.348C99.2514 185.292 99.0794 185.244 98.8954 185.204L97.9354 185.012C97.7034 184.964 97.4754 184.9 97.2514 184.82C97.0274 184.74 96.8234 184.632 96.6394 184.496C96.4634 184.36 96.3194 184.192 96.2074 183.992C96.1034 183.784 96.0514 183.528 96.0514 183.224C96.0514 182.936 96.1194 182.684 96.2554 182.468C96.3914 182.244 96.5754 182.056 96.8074 181.904C97.0474 181.744 97.3274 181.624 97.6474 181.544C97.9674 181.464 98.3114 181.424 98.6794 181.424C99.4074 181.424 99.9954 181.604 100.443 181.964C100.891 182.324 101.167 182.812 101.271 183.428H100.131ZM103.004 179.924H104.096V181.544H105.32V182.42H104.096V186.248C104.096 186.416 104.1 186.556 104.108 186.668C104.124 186.772 104.152 186.856 104.192 186.92C104.24 186.984 104.308 187.028 104.396 187.052C104.484 187.076 104.608 187.088 104.768 187.088H105.32V188H104.528C104.216 188 103.96 187.98 103.76 187.94C103.568 187.892 103.416 187.812 103.304 187.7C103.192 187.58 103.112 187.416 103.064 187.208C103.024 186.992 103.004 186.716 103.004 186.38V182.42H101.984V181.544H103.004V179.924ZM109.224 188.156C108.704 188.156 108.248 188.072 107.856 187.904C107.472 187.728 107.148 187.488 106.884 187.184C106.62 186.88 106.42 186.524 106.284 186.116C106.156 185.708 106.092 185.264 106.092 184.784C106.092 184.272 106.168 183.812 106.32 183.404C106.48 182.988 106.696 182.636 106.968 182.348C107.248 182.052 107.576 181.828 107.952 181.676C108.328 181.516 108.74 181.436 109.188 181.436C109.684 181.436 110.124 181.532 110.508 181.724C110.9 181.916 111.224 182.18 111.48 182.516C111.736 182.852 111.92 183.244 112.032 183.692C112.152 184.14 112.196 184.62 112.164 185.132H107.28C107.28 185.452 107.328 185.74 107.424 185.996C107.528 186.252 107.668 186.468 107.844 186.644C108.02 186.82 108.224 186.956 108.456 187.052C108.688 187.148 108.936 187.196 109.2 187.196C109.704 187.196 110.088 187.1 110.352 186.908C110.616 186.708 110.816 186.448 110.952 186.128H112.08C112.008 186.408 111.892 186.672 111.732 186.92C111.572 187.16 111.372 187.372 111.132 187.556C110.9 187.74 110.624 187.888 110.304 188C109.984 188.104 109.624 188.156 109.224 188.156ZM109.188 182.372C108.636 182.372 108.188 182.532 107.844 182.852C107.5 183.164 107.316 183.612 107.292 184.196H111.012C111.004 183.972 110.96 183.752 110.88 183.536C110.8 183.312 110.684 183.116 110.532 182.948C110.38 182.772 110.192 182.632 109.968 182.528C109.744 182.424 109.484 182.372 109.188 182.372ZM117.901 179.3H118.993V188H117.901V187.028C117.701 187.372 117.429 187.648 117.085 187.856C116.741 188.056 116.309 188.156 115.789 188.156C115.405 188.156 115.049 188.084 114.721 187.94C114.393 187.788 114.105 187.568 113.857 187.28C113.609 186.992 113.413 186.64 113.269 186.224C113.133 185.808 113.065 185.332 113.065 184.796C113.065 184.268 113.133 183.796 113.269 183.38C113.413 182.964 113.609 182.612 113.857 182.324C114.105 182.036 114.393 181.816 114.721 181.664C115.049 181.512 115.405 181.436 115.789 181.436C116.309 181.436 116.741 181.54 117.085 181.748C117.429 181.948 117.701 182.22 117.901 182.564V179.3ZM117.949 184.796C117.949 184.372 117.897 184.008 117.793 183.704C117.689 183.392 117.549 183.14 117.373 182.948C117.197 182.748 116.993 182.604 116.761 182.516C116.537 182.42 116.305 182.372 116.065 182.372C115.481 182.372 115.033 182.584 114.721 183.008C114.409 183.424 114.253 184.02 114.253 184.796C114.253 185.572 114.409 186.172 114.721 186.596C115.033 187.012 115.481 187.22 116.065 187.22C116.305 187.22 116.537 187.176 116.761 187.088C116.993 186.992 117.197 186.848 117.373 186.656C117.549 186.456 117.689 186.204 117.793 185.9C117.897 185.588 117.949 185.22 117.949 184.796Z" fill="white" fill-opacity="0.5"></path><path d="M240.427 179.3H241.843L245.119 188H243.799L243.115 186.116H239.119L238.447 188H237.199L240.427 179.3ZM239.491 185.072H242.731L241.099 180.536L239.491 185.072ZM247.851 186.488L249.603 181.544H250.731L248.295 188H247.323L244.887 181.544H246.099L247.851 186.488ZM255.444 184.892C254.948 184.94 254.5 185 254.1 185.072C253.7 185.136 253.36 185.22 253.08 185.324C252.8 185.42 252.584 185.548 252.432 185.708C252.28 185.86 252.204 186.048 252.204 186.272C252.204 186.576 252.312 186.824 252.528 187.016C252.752 187.2 253.06 187.292 253.452 187.292C253.708 187.292 253.956 187.26 254.196 187.196C254.436 187.124 254.648 187.008 254.832 186.848C255.016 186.68 255.164 186.456 255.276 186.176C255.388 185.896 255.444 185.54 255.444 185.108V184.892ZM253.212 188.156C252.908 188.156 252.62 188.112 252.348 188.024C252.084 187.944 251.848 187.828 251.64 187.676C251.44 187.516 251.28 187.324 251.16 187.1C251.048 186.868 250.992 186.608 250.992 186.32C250.992 185.936 251.096 185.616 251.304 185.36C251.512 185.096 251.804 184.88 252.18 184.712C252.564 184.536 253.024 184.396 253.56 184.292C254.096 184.188 254.696 184.1 255.36 184.028V183.848C255.36 183.544 255.32 183.292 255.24 183.092C255.168 182.892 255.064 182.736 254.928 182.624C254.792 182.504 254.632 182.42 254.448 182.372C254.264 182.324 254.068 182.3 253.86 182.3C253.356 182.3 252.976 182.416 252.72 182.648C252.464 182.872 252.324 183.184 252.3 183.584H251.172C251.196 183.24 251.288 182.932 251.448 182.66C251.608 182.388 251.812 182.16 252.06 181.976C252.308 181.792 252.588 181.652 252.9 181.556C253.212 181.46 253.536 181.412 253.872 181.412C254.768 181.412 255.424 181.62 255.84 182.036C256.256 182.452 256.46 183.124 256.452 184.052L256.44 185.564C256.432 186.108 256.44 186.576 256.464 186.968C256.496 187.352 256.544 187.696 256.608 188H255.504C255.488 187.88 255.472 187.74 255.456 187.58C255.44 187.42 255.428 187.244 255.42 187.052C255.22 187.388 254.944 187.656 254.592 187.856C254.248 188.056 253.788 188.156 253.212 188.156ZM259.159 181.544V188H258.067V181.544H259.159ZM259.159 179.3V180.62H258.067V179.3H259.159ZM261.983 188H260.891V179.3H261.983V188ZM267.796 184.892C267.3 184.94 266.852 185 266.452 185.072C266.052 185.136 265.712 185.22 265.432 185.324C265.152 185.42 264.936 185.548 264.784 185.708C264.632 185.86 264.556 186.048 264.556 186.272C264.556 186.576 264.664 186.824 264.88 187.016C265.104 187.2 265.412 187.292 265.804 187.292C266.06 187.292 266.308 187.26 266.548 187.196C266.788 187.124 267 187.008 267.184 186.848C267.368 186.68 267.516 186.456 267.628 186.176C267.74 185.896 267.796 185.54 267.796 185.108V184.892ZM265.564 188.156C265.26 188.156 264.972 188.112 264.7 188.024C264.436 187.944 264.2 187.828 263.992 187.676C263.792 187.516 263.632 187.324 263.512 187.1C263.4 186.868 263.344 186.608 263.344 186.32C263.344 185.936 263.448 185.616 263.656 185.36C263.864 185.096 264.156 184.88 264.532 184.712C264.916 184.536 265.376 184.396 265.912 184.292C266.448 184.188 267.048 184.1 267.712 184.028V183.848C267.712 183.544 267.672 183.292 267.592 183.092C267.52 182.892 267.416 182.736 267.28 182.624C267.144 182.504 266.984 182.42 266.8 182.372C266.616 182.324 266.42 182.3 266.212 182.3C265.708 182.3 265.328 182.416 265.072 182.648C264.816 182.872 264.676 183.184 264.652 183.584H263.524C263.548 183.24 263.64 182.932 263.8 182.66C263.96 182.388 264.164 182.16 264.412 181.976C264.66 181.792 264.94 181.652 265.252 181.556C265.564 181.46 265.888 181.412 266.224 181.412C267.12 181.412 267.776 181.62 268.192 182.036C268.608 182.452 268.812 183.124 268.804 184.052L268.792 185.564C268.784 186.108 268.792 186.576 268.816 186.968C268.848 187.352 268.896 187.696 268.96 188H267.856C267.84 187.88 267.824 187.74 267.808 187.58C267.792 187.42 267.78 187.244 267.772 187.052C267.572 187.388 267.296 187.656 266.944 187.856C266.6 188.056 266.14 188.156 265.564 188.156ZM271.463 184.796C271.463 185.22 271.515 185.588 271.619 185.9C271.723 186.204 271.863 186.456 272.039 186.656C272.215 186.848 272.415 186.992 272.639 187.088C272.871 187.176 273.107 187.22 273.347 187.22C273.931 187.22 274.379 187.012 274.691 186.596C275.003 186.172 275.159 185.572 275.159 184.796C275.159 184.02 275.003 183.424 274.691 183.008C274.379 182.584 273.931 182.372 273.347 182.372C273.107 182.372 272.871 182.42 272.639 182.516C272.415 182.604 272.215 182.748 272.039 182.948C271.863 183.14 271.723 183.392 271.619 183.704C271.515 184.008 271.463 184.372 271.463 184.796ZM271.511 179.3V182.564C271.711 182.22 271.983 181.948 272.327 181.748C272.671 181.54 273.103 181.436 273.623 181.436C274.007 181.436 274.363 181.512 274.691 181.664C275.019 181.816 275.307 182.036 275.555 182.324C275.803 182.612 275.995 182.964 276.131 183.38C276.275 183.796 276.347 184.268 276.347 184.796C276.347 185.332 276.275 185.808 276.131 186.224C275.995 186.64 275.803 186.992 275.555 187.28C275.307 187.568 275.019 187.788 274.691 187.94C274.363 188.084 274.007 188.156 273.623 188.156C273.103 188.156 272.671 188.056 272.327 187.856C271.983 187.648 271.711 187.372 271.511 187.028V188H270.419V179.3H271.511ZM278.718 188H277.626V179.3H278.718V188ZM283.138 188.156C282.618 188.156 282.162 188.072 281.77 187.904C281.386 187.728 281.062 187.488 280.798 187.184C280.534 186.88 280.334 186.524 280.198 186.116C280.07 185.708 280.006 185.264 280.006 184.784C280.006 184.272 280.082 183.812 280.234 183.404C280.394 182.988 280.61 182.636 280.882 182.348C281.162 182.052 281.49 181.828 281.866 181.676C282.242 181.516 282.654 181.436 283.102 181.436C283.598 181.436 284.038 181.532 284.422 181.724C284.814 181.916 285.138 182.18 285.394 182.516C285.65 182.852 285.834 183.244 285.946 183.692C286.066 184.14 286.11 184.62 286.078 185.132H281.194C281.194 185.452 281.242 185.74 281.338 185.996C281.442 186.252 281.582 186.468 281.758 186.644C281.934 186.82 282.138 186.956 282.37 187.052C282.602 187.148 282.85 187.196 283.114 187.196C283.618 187.196 284.002 187.1 284.266 186.908C284.53 186.708 284.73 186.448 284.866 186.128H285.994C285.922 186.408 285.806 186.672 285.646 186.92C285.486 187.16 285.286 187.372 285.046 187.556C284.814 187.74 284.538 187.888 284.218 188C283.898 188.104 283.538 188.156 283.138 188.156ZM283.102 182.372C282.55 182.372 282.102 182.532 281.758 182.852C281.414 183.164 281.23 183.612 281.206 184.196H284.926C284.918 183.972 284.874 183.752 284.794 183.536C284.714 183.312 284.598 183.116 284.446 182.948C284.294 182.772 284.106 182.632 283.882 182.528C283.658 182.424 283.398 182.372 283.102 182.372Z" fill="white" fill-opacity="0.5"></path><path d="M294.302 179.3H300.326V180.32C299.246 181.192 298.386 182.284 297.746 183.596C297.114 184.9 296.746 186.368 296.642 188H295.322C295.418 186.432 295.79 184.996 296.438 183.692C297.094 182.388 297.966 181.264 299.054 180.32H294.302V179.3ZM307.667 183.644C307.667 182.436 307.467 181.536 307.067 180.944C306.667 180.352 306.127 180.056 305.447 180.056C304.759 180.056 304.215 180.352 303.815 180.944C303.423 181.536 303.227 182.436 303.227 183.644C303.227 184.86 303.423 185.764 303.815 186.356C304.215 186.948 304.759 187.244 305.447 187.244C306.135 187.244 306.675 186.948 307.067 186.356C307.467 185.764 307.667 184.86 307.667 183.644ZM308.831 183.644C308.831 184.332 308.763 184.956 308.627 185.516C308.491 186.068 308.283 186.54 308.003 186.932C307.731 187.324 307.379 187.628 306.947 187.844C306.523 188.052 306.023 188.156 305.447 188.156C304.871 188.156 304.367 188.052 303.935 187.844C303.511 187.628 303.159 187.324 302.879 186.932C302.607 186.54 302.403 186.068 302.267 185.516C302.131 184.956 302.063 184.332 302.063 183.644C302.063 182.956 302.131 182.336 302.267 181.784C302.403 181.224 302.607 180.752 302.879 180.368C303.159 179.976 303.511 179.676 303.935 179.468C304.367 179.252 304.871 179.144 305.447 179.144C306.023 179.144 306.523 179.252 306.947 179.468C307.379 179.676 307.731 179.976 308.003 180.368C308.283 180.752 308.491 181.224 308.627 181.784C308.763 182.336 308.831 182.956 308.831 183.644ZM311.923 184.28C311.595 184.28 311.307 184.22 311.059 184.1C310.819 183.972 310.619 183.796 310.459 183.572C310.299 183.348 310.175 183.084 310.087 182.78C310.007 182.468 309.967 182.124 309.967 181.748C309.967 181.38 310.007 181.04 310.087 180.728C310.175 180.416 310.299 180.148 310.459 179.924C310.619 179.7 310.819 179.528 311.059 179.408C311.307 179.28 311.595 179.216 311.923 179.216C312.251 179.216 312.539 179.28 312.787 179.408C313.035 179.528 313.239 179.7 313.399 179.924C313.567 180.148 313.691 180.416 313.771 180.728C313.859 181.04 313.903 181.38 313.903 181.748C313.903 182.124 313.859 182.468 313.771 182.78C313.691 183.084 313.567 183.348 313.399 183.572C313.239 183.796 313.035 183.972 312.787 184.1C312.539 184.22 312.251 184.28 311.923 184.28ZM311.923 183.62C312.275 183.62 312.539 183.46 312.715 183.14C312.899 182.812 312.991 182.348 312.991 181.748C312.991 181.148 312.899 180.684 312.715 180.356C312.539 180.028 312.275 179.864 311.923 179.864C311.587 179.864 311.327 180.028 311.143 180.356C310.967 180.684 310.879 181.148 310.879 181.748C310.879 182.348 310.967 182.812 311.143 183.14C311.327 183.46 311.587 183.62 311.923 183.62ZM311.911 188L317.911 179.3H319.123L313.123 188H311.911ZM319.123 188.084C318.795 188.084 318.507 188.024 318.259 187.904C318.019 187.776 317.819 187.6 317.659 187.376C317.499 187.152 317.375 186.888 317.287 186.584C317.207 186.272 317.167 185.928 317.167 185.552C317.167 185.184 317.207 184.844 317.287 184.532C317.375 184.22 317.499 183.952 317.659 183.728C317.819 183.504 318.019 183.332 318.259 183.212C318.507 183.084 318.795 183.02 319.123 183.02C319.451 183.02 319.739 183.084 319.987 183.212C320.235 183.332 320.439 183.504 320.599 183.728C320.767 183.952 320.891 184.22 320.971 184.532C321.059 184.844 321.103 185.184 321.103 185.552C321.103 185.928 321.059 186.272 320.971 186.584C320.891 186.888 320.767 187.152 320.599 187.376C320.439 187.6 320.235 187.776 319.987 187.904C319.739 188.024 319.451 188.084 319.123 188.084ZM319.123 187.424C319.475 187.424 319.739 187.264 319.915 186.944C320.099 186.616 320.191 186.152 320.191 185.552C320.191 184.952 320.099 184.488 319.915 184.16C319.739 183.832 319.475 183.668 319.123 183.668C318.787 183.668 318.527 183.832 318.343 184.16C318.167 184.488 318.079 184.952 318.079 185.552C318.079 186.152 318.167 186.616 318.343 186.944C318.527 187.264 318.787 187.424 319.123 187.424Z" fill="white"></path></g><defs><clipPath id="clip0_11872_56708"><path d="M0.5 16C0.5 7.16345 7.66344 0 16.5 0H329.5C338.337 0 345.5 7.16344 345.5 16V200C345.5 208.837 338.337 216 329.5 216H16.5C7.66345 216 0.5 208.837 0.5 200V16Z" fill="white"></path></clipPath><clipPath id="clip1_11872_56708"><rect width="297" height="8" fill="white" transform="translate(24.5 152)"></rect></clipPath></defs></svg>