<svg xmlns="http://www.w3.org/2000/svg" width="346" height="216" viewBox="0 0 346 216" fill="none"><path d="M0.5 16C0.5 7.16345 7.66344 0 16.5 0H329.5C338.337 0 345.5 7.16344 345.5 16V200C345.5 208.837 338.337 216 329.5 216H16.5C7.66345 216 0.5 208.837 0.5 200V16Z" fill="#F5F5F5"></path><path d="M306.209 24.7373C304.907 24.2399 303.532 23.9903 302.146 24.0003C297.667 24.0003 294.504 26.367 294.481 29.7643C294.453 32.2602 296.729 33.6667 298.451 34.5006C300.218 35.358 300.808 35.8983 300.803 36.6647C300.792 37.8304 299.392 38.3589 298.09 38.3589C296.301 38.3589 295.324 38.0976 293.821 37.4428L293.263 37.1697L292.628 41.0809C293.717 41.5566 295.679 41.9648 297.706 42C302.468 42 305.582 39.648 305.618 36.0334C305.657 34.0396 304.425 32.5333 301.833 31.2883C300.257 30.4808 299.28 29.9405 299.28 29.1212C299.28 28.396 300.117 27.6208 301.867 27.6208C303.031 27.5912 304.188 27.8204 305.262 28.2932L305.682 28.4899L306.318 24.7109L306.209 24.7373ZM317.833 24.3174H314.333C313.244 24.3174 312.424 24.6316 311.948 25.765L305.218 41.7563H309.98L310.932 39.1341L316.744 39.14C316.881 39.7537 317.301 41.7563 317.301 41.7563H321.5L317.833 24.3174ZM288.039 24.1706H292.578L289.739 41.6183H285.206L288.039 24.1647V24.1706ZM276.519 33.7871L276.989 36.2096L281.424 24.3174H286.231L279.089 41.7328H274.293L270.374 26.9865C270.311 26.7434 270.162 26.5346 269.957 26.4022C268.544 25.6368 267.047 25.056 265.5 24.6727L265.562 24.3057H272.866C273.857 24.3468 274.655 24.6727 274.921 25.7826L276.516 33.7959L276.519 33.7871ZM312.233 35.5665L314.042 30.6863C314.02 30.7392 314.414 29.6792 314.644 29.0243L314.955 30.5307L316.004 35.5636H312.231L312.233 35.5665Z" fill="black" fill-opacity="0.5"></path><path d="M27.728 27.3H29.144L32.42 36H31.1L30.416 34.116H26.42L25.748 36H24.5L27.728 27.3ZM26.792 33.072H30.032L28.4 28.536L26.792 33.072ZM35.9845 29.436C36.3845 29.436 36.7405 29.504 37.0525 29.64C37.3645 29.768 37.6325 29.94 37.8565 30.156C38.0805 30.372 38.2565 30.616 38.3845 30.888C38.5205 31.16 38.6085 31.432 38.6485 31.704L37.5445 31.704C37.4645 31.32 37.2805 31.008 36.9925 30.768C36.7125 30.52 36.3525 30.396 35.9125 30.396C35.6565 30.396 35.4165 30.444 35.1925 30.54C34.9765 30.636 34.7845 30.784 34.6165 30.984C34.4565 31.176 34.3285 31.42 34.2325 31.716C34.1365 32.012 34.0885 32.364 34.0885 32.772C34.0885 33.18 34.1365 33.536 34.2325 33.84C34.3285 34.144 34.4605 34.396 34.6285 34.596C34.7965 34.796 34.9885 34.948 35.2045 35.052C35.4285 35.148 35.6645 35.196 35.9125 35.196C36.1525 35.196 36.3645 35.16 36.5485 35.088C36.7405 35.016 36.9045 34.92 37.0405 34.8C37.1845 34.68 37.3005 34.544 37.3885 34.392C37.4845 34.232 37.5525 34.068 37.5925 33.9H38.7205C38.6645 34.204 38.5565 34.492 38.3965 34.764C38.2365 35.036 38.0325 35.276 37.7845 35.484C37.5445 35.692 37.2605 35.856 36.9325 35.976C36.6125 36.096 36.2605 36.156 35.8765 36.156C35.4045 36.156 34.9845 36.072 34.6165 35.904C34.2485 35.736 33.9365 35.504 33.6805 35.208C33.4245 34.912 33.2285 34.56 33.0925 34.152C32.9645 33.736 32.9005 33.28 32.9005 32.784C32.9005 32.304 32.9685 31.86 33.1045 31.452C33.2485 31.044 33.4525 30.692 33.7165 30.396C33.9805 30.092 34.3005 29.856 34.6765 29.688C35.0605 29.52 35.4965 29.436 35.9845 29.436ZM41.0458 36H39.9538V29.544H41.0458V30.516C41.2298 30.212 41.4778 29.956 41.7898 29.748C42.1018 29.54 42.5018 29.436 42.9898 29.436C43.4858 29.436 43.8818 29.536 44.1778 29.736C44.4818 29.936 44.7058 30.216 44.8498 30.576C45.1058 30.176 45.4178 29.888 45.7858 29.712C46.1538 29.528 46.5658 29.436 47.0218 29.436C47.3978 29.436 47.7178 29.496 47.9818 29.616C48.2458 29.736 48.4618 29.908 48.6298 30.132C48.7978 30.348 48.9178 30.608 48.9898 30.912C49.0698 31.216 49.1098 31.552 49.1098 31.92V36H48.0178V32.244C48.0178 31.996 48.0018 31.76 47.9698 31.536C47.9378 31.312 47.8698 31.116 47.7658 30.948C47.6698 30.772 47.5298 30.636 47.3458 30.54C47.1698 30.436 46.9338 30.384 46.6378 30.384C46.1658 30.384 45.7858 30.564 45.4978 30.924C45.2178 31.276 45.0778 31.8 45.0778 32.496V36H43.9858V32.244C43.9858 31.996 43.9698 31.76 43.9378 31.536C43.9058 31.312 43.8378 31.116 43.7338 30.948C43.6378 30.772 43.4978 30.636 43.3138 30.54C43.1378 30.436 42.9018 30.384 42.6058 30.384C42.1338 30.384 41.7538 30.564 41.4658 30.924C41.1858 31.276 41.0458 31.8 41.0458 32.496V36ZM53.4348 36.156C52.9148 36.156 52.4588 36.072 52.0668 35.904C51.6828 35.728 51.3588 35.488 51.0948 35.184C50.8308 34.88 50.6308 34.524 50.4948 34.116C50.3668 33.708 50.3028 33.264 50.3028 32.784C50.3028 32.272 50.3788 31.812 50.5308 31.404C50.6908 30.988 50.9068 30.636 51.1788 30.348C51.4588 30.052 51.7868 29.828 52.1628 29.676C52.5388 29.516 52.9508 29.436 53.3988 29.436C53.8948 29.436 54.3348 29.532 54.7188 29.724C55.1108 29.916 55.4348 30.18 55.6908 30.516C55.9468 30.852 56.1308 31.244 56.2428 31.692C56.3628 32.14 56.4068 32.62 56.3748 33.132L51.4908 33.132C51.4908 33.452 51.5388 33.74 51.6348 33.996C51.7388 34.252 51.8788 34.468 52.0548 34.644C52.2308 34.82 52.4348 34.956 52.6668 35.052C52.8988 35.148 53.1468 35.196 53.4108 35.196C53.9148 35.196 54.2988 35.1 54.5628 34.908C54.8268 34.708 55.0268 34.448 55.1628 34.128H56.2908C56.2188 34.408 56.1028 34.672 55.9428 34.92C55.7828 35.16 55.5828 35.372 55.3428 35.556C55.1108 35.74 54.8348 35.888 54.5148 36C54.1948 36.104 53.8348 36.156 53.4348 36.156ZM53.3988 30.372C52.8468 30.372 52.3988 30.532 52.0548 30.852C51.7108 31.164 51.5268 31.612 51.5028 32.196L55.2228 32.196C55.2148 31.972 55.1708 31.752 55.0908 31.536C55.0108 31.312 54.8948 31.116 54.7428 30.948C54.5908 30.772 54.4028 30.632 54.1788 30.528C53.9548 30.424 53.6948 30.372 53.3988 30.372ZM61.9005 36H60.6765V27.3H61.9005V36ZM64.8935 30.516C65.0775 30.212 65.3335 29.956 65.6615 29.748C65.9975 29.54 66.4375 29.436 66.9815 29.436C67.3735 29.436 67.7015 29.496 67.9655 29.616C68.2375 29.736 68.4575 29.908 68.6255 30.132C68.7935 30.348 68.9135 30.608 68.9855 30.912C69.0655 31.216 69.1055 31.552 69.1055 31.92V36H68.0135V32.244C68.0135 31.996 67.9975 31.76 67.9655 31.536C67.9335 31.312 67.8695 31.116 67.7735 30.948C67.6775 30.772 67.5335 30.636 67.3415 30.54C67.1575 30.436 66.9095 30.384 66.5975 30.384C66.0695 30.384 65.6535 30.564 65.3495 30.924C65.0455 31.276 64.8935 31.8 64.8935 32.496V36H63.8015V29.544H64.8935V30.516ZM73.379 29.436C73.779 29.436 74.135 29.504 74.447 29.64C74.759 29.768 75.027 29.94 75.251 30.156C75.475 30.372 75.651 30.616 75.779 30.888C75.915 31.16 76.003 31.432 76.043 31.704H74.939C74.859 31.32 74.675 31.008 74.387 30.768C74.107 30.52 73.747 30.396 73.307 30.396C73.051 30.396 72.811 30.444 72.587 30.54C72.371 30.636 72.179 30.784 72.011 30.984C71.851 31.176 71.723 31.42 71.627 31.716C71.531 32.012 71.483 32.364 71.483 32.772C71.483 33.18 71.531 33.536 71.627 33.84C71.723 34.144 71.855 34.396 72.023 34.596C72.191 34.796 72.383 34.948 72.599 35.052C72.823 35.148 73.059 35.196 73.307 35.196C73.547 35.196 73.759 35.16 73.943 35.088C74.135 35.016 74.299 34.92 74.435 34.8C74.579 34.68 74.695 34.544 74.783 34.392C74.879 34.232 74.947 34.068 74.987 33.9H76.115C76.059 34.204 75.951 34.492 75.791 34.764C75.631 35.036 75.427 35.276 75.179 35.484C74.939 35.692 74.655 35.856 74.327 35.976C74.007 36.096 73.655 36.156 73.271 36.156C72.799 36.156 72.379 36.072 72.011 35.904C71.643 35.736 71.331 35.504 71.075 35.208C70.819 34.912 70.623 34.56 70.487 34.152C70.359 33.736 70.295 33.28 70.295 32.784C70.295 32.304 70.363 31.86 70.499 31.452C70.643 31.044 70.847 30.692 71.111 30.396C71.375 30.092 71.695 29.856 72.071 29.688C72.455 29.52 72.891 29.436 73.379 29.436ZM77.03 36V34.62H78.41V36H77.03Z" fill="black" fill-opacity="0.5"></path><path d="M25.172 181.52C25.172 181.104 25.268 180.748 25.46 180.452C25.66 180.148 25.912 179.9 26.216 179.708C26.52 179.516 26.856 179.376 27.224 179.288C27.6 179.192 27.964 179.144 28.316 179.144C28.708 179.144 29.084 179.192 29.444 179.288C29.804 179.376 30.128 179.516 30.416 179.708C30.712 179.9 30.964 180.148 31.172 180.452C31.38 180.748 31.528 181.104 31.616 181.52H30.428C30.356 181.272 30.244 181.064 30.092 180.896C29.94 180.72 29.764 180.58 29.564 180.476C29.364 180.364 29.152 180.288 28.928 180.248C28.704 180.2 28.484 180.176 28.268 180.176C28.1 180.176 27.908 180.196 27.692 180.236C27.484 180.276 27.284 180.348 27.092 180.452C26.9 180.548 26.74 180.68 26.612 180.848C26.484 181.008 26.42 181.208 26.42 181.448C26.42 181.832 26.552 182.128 26.816 182.336C27.088 182.544 27.428 182.692 27.836 182.78L28.844 183.008C29.18 183.08 29.52 183.172 29.864 183.284C30.208 183.388 30.52 183.536 30.8 183.728C31.088 183.92 31.32 184.164 31.496 184.46C31.68 184.748 31.772 185.112 31.772 185.552C31.772 185.976 31.68 186.352 31.496 186.68C31.312 187 31.068 187.272 30.764 187.496C30.46 187.712 30.108 187.876 29.708 187.988C29.308 188.1 28.892 188.156 28.46 188.156C27.948 188.156 27.484 188.088 27.068 187.952C26.652 187.816 26.292 187.624 25.988 187.376C25.684 187.128 25.436 186.828 25.244 186.476C25.06 186.124 24.94 185.732 24.884 185.3H26.084C26.196 185.9 26.456 186.356 26.864 186.668C27.272 186.972 27.812 187.124 28.484 187.124C29.132 187.124 29.632 186.988 29.984 186.716C30.336 186.444 30.512 186.092 30.512 185.66C30.512 185.436 30.464 185.24 30.368 185.072C30.28 184.904 30.152 184.76 29.984 184.64C29.816 184.52 29.616 184.42 29.384 184.34C29.16 184.26 28.912 184.188 28.64 184.124L27.56 183.896C27.264 183.832 26.972 183.74 26.684 183.62C26.396 183.5 26.14 183.344 25.916 183.152C25.692 182.96 25.512 182.732 25.376 182.468C25.24 182.196 25.172 181.88 25.172 181.52ZM37.2487 184.892C36.7527 184.94 36.3047 185 35.9047 185.072C35.5047 185.136 35.1647 185.22 34.8847 185.324C34.6047 185.42 34.3887 185.548 34.2367 185.708C34.0847 185.86 34.0087 186.048 34.0087 186.272C34.0087 186.576 34.1167 186.824 34.3327 187.016C34.5567 187.2 34.8647 187.292 35.2567 187.292C35.5127 187.292 35.7607 187.26 36.0007 187.196C36.2407 187.124 36.4527 187.008 36.6367 186.848C36.8207 186.68 36.9687 186.456 37.0807 186.176C37.1927 185.896 37.2487 185.54 37.2487 185.108V184.892ZM35.0167 188.156C34.7127 188.156 34.4247 188.112 34.1527 188.024C33.8887 187.944 33.6527 187.828 33.4447 187.676C33.2447 187.516 33.0847 187.324 32.9647 187.1C32.8527 186.868 32.7967 186.608 32.7967 186.32C32.7967 185.936 32.9007 185.616 33.1087 185.36C33.3167 185.096 33.6087 184.88 33.9847 184.712C34.3687 184.536 34.8287 184.396 35.3647 184.292C35.9007 184.188 36.5007 184.1 37.1647 184.028V183.848C37.1647 183.544 37.1247 183.292 37.0447 183.092C36.9727 182.892 36.8687 182.736 36.7327 182.624C36.5967 182.504 36.4367 182.42 36.2527 182.372C36.0687 182.324 35.8727 182.3 35.6647 182.3C35.1607 182.3 34.7807 182.416 34.5247 182.648C34.2687 182.872 34.1287 183.184 34.1047 183.584H32.9767C33.0007 183.24 33.0927 182.932 33.2527 182.66C33.4127 182.388 33.6167 182.16 33.8647 181.976C34.1127 181.792 34.3927 181.652 34.7047 181.556C35.0167 181.46 35.3407 181.412 35.6767 181.412C36.5727 181.412 37.2287 181.62 37.6447 182.036C38.0607 182.452 38.2647 183.124 38.2567 184.052L38.2447 185.564C38.2367 186.108 38.2447 186.576 38.2687 186.968C38.3007 187.352 38.3487 187.696 38.4127 188H37.3087C37.2927 187.88 37.2767 187.74 37.2607 187.58C37.2447 187.42 37.2327 187.244 37.2247 187.052C37.0247 187.388 36.7487 187.656 36.3967 187.856C36.0527 188.056 35.5927 188.156 35.0167 188.156ZM40.9638 188H39.8718V181.544H40.9638V182.516C41.1478 182.212 41.3958 181.956 41.7078 181.748C42.0198 181.54 42.4198 181.436 42.9078 181.436C43.4038 181.436 43.7998 181.536 44.0958 181.736C44.3998 181.936 44.6238 182.216 44.7678 182.576C45.0238 182.176 45.3358 181.888 45.7038 181.712C46.0718 181.528 46.4838 181.436 46.9398 181.436C47.3158 181.436 47.6358 181.496 47.8998 181.616C48.1638 181.736 48.3798 181.908 48.5478 182.132C48.7158 182.348 48.8358 182.608 48.9078 182.912C48.9878 183.216 49.0278 183.552 49.0278 183.92V188H47.9358V184.244C47.9358 183.996 47.9198 183.76 47.8878 183.536C47.8558 183.312 47.7878 183.116 47.6838 182.948C47.5878 182.772 47.4478 182.636 47.2638 182.54C47.0878 182.436 46.8518 182.384 46.5558 182.384C46.0838 182.384 45.7038 182.564 45.4158 182.924C45.1358 183.276 44.9958 183.8 44.9958 184.496V188H43.9038V184.244C43.9038 183.996 43.8878 183.76 43.8558 183.536C43.8238 183.312 43.7558 183.116 43.6518 182.948C43.5558 182.772 43.4158 182.636 43.2318 182.54C43.0558 182.436 42.8198 182.384 42.5238 182.384C42.0518 182.384 41.6718 182.564 41.3838 182.924C41.1038 183.276 40.9638 183.8 40.9638 184.496V188ZM54.9044 186.944H59.5004V188H53.6804V179.3H54.9044V186.944ZM62.9973 188.156C62.4773 188.156 62.0213 188.072 61.6293 187.904C61.2453 187.728 60.9213 187.488 60.6573 187.184C60.3933 186.88 60.1933 186.524 60.0573 186.116C59.9293 185.708 59.8653 185.264 59.8653 184.784C59.8653 184.272 59.9413 183.812 60.0933 183.404C60.2533 182.988 60.4693 182.636 60.7413 182.348C61.0213 182.052 61.3493 181.828 61.7253 181.676C62.1013 181.516 62.5133 181.436 62.9613 181.436C63.4573 181.436 63.8973 181.532 64.2813 181.724C64.6733 181.916 64.9973 182.18 65.2533 182.516C65.5093 182.852 65.6933 183.244 65.8053 183.692C65.9253 184.14 65.9693 184.62 65.9373 185.132H61.0533C61.0533 185.452 61.1013 185.74 61.1973 185.996C61.3013 186.252 61.4413 186.468 61.6173 186.644C61.7933 186.82 61.9973 186.956 62.2293 187.052C62.4613 187.148 62.7093 187.196 62.9733 187.196C63.4773 187.196 63.8613 187.1 64.1253 186.908C64.3893 186.708 64.5893 186.448 64.7253 186.128H65.8533C65.7813 186.408 65.6653 186.672 65.5053 186.92C65.3453 187.16 65.1453 187.372 64.9053 187.556C64.6733 187.74 64.3973 187.888 64.0773 188C63.7573 188.104 63.3973 188.156 62.9973 188.156ZM62.9613 182.372C62.4093 182.372 61.9613 182.532 61.6173 182.852C61.2733 183.164 61.0893 183.612 61.0653 184.196H64.7853C64.7773 183.972 64.7333 183.752 64.6533 183.536C64.5733 183.312 64.4573 183.116 64.3053 182.948C64.1533 182.772 63.9653 182.632 63.7413 182.528C63.5173 182.424 63.2573 182.372 62.9613 182.372ZM69.97 188.156C69.45 188.156 68.994 188.072 68.602 187.904C68.218 187.728 67.894 187.488 67.63 187.184C67.366 186.88 67.166 186.524 67.03 186.116C66.902 185.708 66.838 185.264 66.838 184.784C66.838 184.272 66.914 183.812 67.066 183.404C67.226 182.988 67.442 182.636 67.714 182.348C67.994 182.052 68.322 181.828 68.698 181.676C69.074 181.516 69.486 181.436 69.934 181.436C70.43 181.436 70.87 181.532 71.254 181.724C71.646 181.916 71.97 182.18 72.226 182.516C72.482 182.852 72.666 183.244 72.778 183.692C72.898 184.14 72.942 184.62 72.91 185.132H68.026C68.026 185.452 68.074 185.74 68.17 185.996C68.274 186.252 68.414 186.468 68.59 186.644C68.766 186.82 68.97 186.956 69.202 187.052C69.434 187.148 69.682 187.196 69.946 187.196C70.45 187.196 70.834 187.1 71.098 186.908C71.362 186.708 71.562 186.448 71.698 186.128H72.826C72.754 186.408 72.638 186.672 72.478 186.92C72.318 187.16 72.118 187.372 71.878 187.556C71.646 187.74 71.37 187.888 71.05 188C70.73 188.104 70.37 188.156 69.97 188.156ZM69.934 182.372C69.382 182.372 68.934 182.532 68.59 182.852C68.246 183.164 68.062 183.612 68.038 184.196H71.758C71.75 183.972 71.706 183.752 71.626 183.536C71.546 183.312 71.43 183.116 71.278 182.948C71.126 182.772 70.938 182.632 70.714 182.528C70.49 182.424 70.23 182.372 69.934 182.372Z" fill="black"></path><path d="M239.325 183.644C239.325 184.204 239.397 184.7 239.541 185.132C239.693 185.564 239.893 185.928 240.141 186.224C240.397 186.52 240.697 186.744 241.041 186.896C241.385 187.048 241.757 187.124 242.157 187.124C242.549 187.124 242.917 187.048 243.261 186.896C243.613 186.744 243.913 186.52 244.161 186.224C244.417 185.928 244.617 185.564 244.761 185.132C244.913 184.7 244.989 184.204 244.989 183.644C244.989 183.084 244.913 182.588 244.761 182.156C244.617 181.724 244.417 181.364 244.161 181.076C243.913 180.78 243.613 180.556 243.261 180.404C242.917 180.252 242.549 180.176 242.157 180.176C241.757 180.176 241.385 180.252 241.041 180.404C240.697 180.556 240.397 180.78 240.141 181.076C239.893 181.364 239.693 181.724 239.541 182.156C239.397 182.588 239.325 183.084 239.325 183.644ZM246.237 183.644C246.237 184.3 246.141 184.904 245.949 185.456C245.765 186.008 245.493 186.484 245.133 186.884C244.781 187.284 244.353 187.596 243.849 187.82C243.345 188.044 242.781 188.156 242.157 188.156C241.533 188.156 240.969 188.044 240.465 187.82C239.961 187.596 239.529 187.284 239.169 186.884C238.817 186.484 238.545 186.008 238.353 185.456C238.169 184.904 238.077 184.3 238.077 183.644C238.077 182.988 238.169 182.384 238.353 181.832C238.545 181.28 238.817 180.808 239.169 180.416C239.529 180.016 239.961 179.704 240.465 179.48C240.969 179.256 241.533 179.144 242.157 179.144C242.781 179.144 243.345 179.256 243.849 179.48C244.353 179.704 244.781 180.016 245.133 180.416C245.493 180.808 245.765 181.28 245.949 181.832C246.141 182.384 246.237 182.988 246.237 183.644ZM247.992 181.076C247.992 180.74 248.012 180.46 248.052 180.236C248.1 180.004 248.184 179.82 248.304 179.684C248.432 179.548 248.608 179.452 248.832 179.396C249.064 179.332 249.364 179.3 249.732 179.3H250.296V180.212H249.756C249.612 180.212 249.496 180.224 249.408 180.248C249.32 180.264 249.252 180.304 249.204 180.368C249.156 180.424 249.124 180.504 249.108 180.608C249.092 180.712 249.084 180.848 249.084 181.016V181.544H250.296V182.42H249.084V188H247.992V182.42H247.092V181.544H247.992V181.076ZM251.753 181.076C251.753 180.74 251.773 180.46 251.813 180.236C251.861 180.004 251.945 179.82 252.065 179.684C252.193 179.548 252.369 179.452 252.593 179.396C252.825 179.332 253.125 179.3 253.493 179.3H254.057V180.212H253.517C253.373 180.212 253.257 180.224 253.169 180.248C253.081 180.264 253.013 180.304 252.965 180.368C252.917 180.424 252.885 180.504 252.869 180.608C252.853 180.712 252.845 180.848 252.845 181.016V181.544H254.057V182.42H252.845V188H251.753V182.42H250.853V181.544H251.753V181.076ZM256.331 181.544V188H255.239V181.544H256.331ZM256.331 179.3V180.62H255.239V179.3H256.331ZM260.703 181.436C261.103 181.436 261.459 181.504 261.771 181.64C262.083 181.768 262.351 181.94 262.575 182.156C262.799 182.372 262.975 182.616 263.103 182.888C263.239 183.16 263.327 183.432 263.367 183.704H262.263C262.183 183.32 261.999 183.008 261.711 182.768C261.431 182.52 261.071 182.396 260.631 182.396C260.375 182.396 260.135 182.444 259.911 182.54C259.695 182.636 259.503 182.784 259.335 182.984C259.175 183.176 259.047 183.42 258.951 183.716C258.855 184.012 258.807 184.364 258.807 184.772C258.807 185.18 258.855 185.536 258.951 185.84C259.047 186.144 259.179 186.396 259.347 186.596C259.515 186.796 259.707 186.948 259.923 187.052C260.147 187.148 260.383 187.196 260.631 187.196C260.871 187.196 261.083 187.16 261.267 187.088C261.459 187.016 261.623 186.92 261.759 186.8C261.903 186.68 262.019 186.544 262.107 186.392C262.203 186.232 262.271 186.068 262.311 185.9H263.439C263.383 186.204 263.275 186.492 263.115 186.764C262.955 187.036 262.751 187.276 262.503 187.484C262.263 187.692 261.979 187.856 261.651 187.976C261.331 188.096 260.979 188.156 260.595 188.156C260.123 188.156 259.703 188.072 259.335 187.904C258.967 187.736 258.655 187.504 258.399 187.208C258.143 186.912 257.947 186.56 257.811 186.152C257.683 185.736 257.619 185.28 257.619 184.784C257.619 184.304 257.687 183.86 257.823 183.452C257.967 183.044 258.171 182.692 258.435 182.396C258.699 182.092 259.019 181.856 259.395 181.688C259.779 181.52 260.215 181.436 260.703 181.436ZM267.419 188.156C266.899 188.156 266.443 188.072 266.051 187.904C265.667 187.728 265.343 187.488 265.079 187.184C264.815 186.88 264.615 186.524 264.479 186.116C264.351 185.708 264.287 185.264 264.287 184.784C264.287 184.272 264.363 183.812 264.515 183.404C264.675 182.988 264.891 182.636 265.163 182.348C265.443 182.052 265.771 181.828 266.147 181.676C266.523 181.516 266.935 181.436 267.383 181.436C267.879 181.436 268.319 181.532 268.703 181.724C269.095 181.916 269.419 182.18 269.675 182.516C269.931 182.852 270.115 183.244 270.227 183.692C270.347 184.14 270.391 184.62 270.359 185.132H265.475C265.475 185.452 265.523 185.74 265.619 185.996C265.723 186.252 265.863 186.468 266.039 186.644C266.215 186.82 266.419 186.956 266.651 187.052C266.883 187.148 267.131 187.196 267.395 187.196C267.899 187.196 268.283 187.1 268.547 186.908C268.811 186.708 269.011 186.448 269.147 186.128H270.275C270.203 186.408 270.087 186.672 269.927 186.92C269.767 187.16 269.567 187.372 269.327 187.556C269.095 187.74 268.819 187.888 268.499 188C268.179 188.104 267.819 188.156 267.419 188.156ZM267.383 182.372C266.831 182.372 266.383 182.532 266.039 182.852C265.695 183.164 265.511 183.612 265.487 184.196H269.207C269.199 183.972 269.155 183.752 269.075 183.536C268.995 183.312 268.879 183.116 268.727 182.948C268.575 182.772 268.387 182.632 268.163 182.528C267.939 182.424 267.679 182.372 267.383 182.372ZM274.301 181.52C274.301 181.104 274.397 180.748 274.589 180.452C274.789 180.148 275.041 179.9 275.345 179.708C275.649 179.516 275.985 179.376 276.353 179.288C276.729 179.192 277.093 179.144 277.445 179.144C277.837 179.144 278.213 179.192 278.573 179.288C278.933 179.376 279.257 179.516 279.545 179.708C279.841 179.9 280.093 180.148 280.301 180.452C280.509 180.748 280.657 181.104 280.745 181.52H279.557C279.485 181.272 279.373 181.064 279.221 180.896C279.069 180.72 278.893 180.58 278.693 180.476C278.493 180.364 278.281 180.288 278.057 180.248C277.833 180.2 277.613 180.176 277.397 180.176C277.229 180.176 277.037 180.196 276.821 180.236C276.613 180.276 276.413 180.348 276.221 180.452C276.029 180.548 275.869 180.68 275.741 180.848C275.613 181.008 275.549 181.208 275.549 181.448C275.549 181.832 275.681 182.128 275.945 182.336C276.217 182.544 276.557 182.692 276.965 182.78L277.973 183.008C278.309 183.08 278.649 183.172 278.993 183.284C279.337 183.388 279.649 183.536 279.929 183.728C280.217 183.92 280.449 184.164 280.625 184.46C280.809 184.748 280.901 185.112 280.901 185.552C280.901 185.976 280.809 186.352 280.625 186.68C280.441 187 280.197 187.272 279.893 187.496C279.589 187.712 279.237 187.876 278.837 187.988C278.437 188.1 278.021 188.156 277.589 188.156C277.077 188.156 276.613 188.088 276.197 187.952C275.781 187.816 275.421 187.624 275.117 187.376C274.813 187.128 274.565 186.828 274.373 186.476C274.189 186.124 274.069 185.732 274.013 185.3H275.213C275.325 185.9 275.585 186.356 275.993 186.668C276.401 186.972 276.941 187.124 277.613 187.124C278.261 187.124 278.761 186.988 279.113 186.716C279.465 186.444 279.641 186.092 279.641 185.66C279.641 185.436 279.593 185.24 279.497 185.072C279.409 184.904 279.281 184.76 279.113 184.64C278.945 184.52 278.745 184.42 278.513 184.34C278.289 184.26 278.041 184.188 277.769 184.124L276.689 183.896C276.393 183.832 276.101 183.74 275.813 183.62C275.525 183.5 275.269 183.344 275.045 183.152C274.821 182.96 274.641 182.732 274.505 182.468C274.369 182.196 274.301 181.88 274.301 181.52ZM286.235 187.076C286.051 187.38 285.799 187.636 285.479 187.844C285.167 188.052 284.743 188.156 284.207 188.156C283.831 188.156 283.511 188.096 283.247 187.976C282.991 187.856 282.779 187.688 282.611 187.472C282.451 187.248 282.331 186.984 282.251 186.68C282.179 186.376 282.143 186.04 282.143 185.672V181.544H283.235V185.348C283.235 185.596 283.247 185.832 283.271 186.056C283.303 186.28 283.367 186.48 283.463 186.656C283.559 186.824 283.695 186.96 283.871 187.064C284.055 187.16 284.295 187.208 284.591 187.208C285.111 187.208 285.515 187.032 285.803 186.68C286.091 186.32 286.235 185.792 286.235 185.096V181.544H287.327V188H286.235V187.076ZM290.151 181.544V182.564C290.351 182.22 290.623 181.948 290.967 181.748C291.311 181.54 291.743 181.436 292.263 181.436C292.647 181.436 293.003 181.512 293.331 181.664C293.659 181.816 293.947 182.036 294.195 182.324C294.443 182.612 294.635 182.964 294.771 183.38C294.915 183.796 294.987 184.268 294.987 184.796C294.987 185.332 294.915 185.808 294.771 186.224C294.635 186.64 294.443 186.992 294.195 187.28C293.947 187.568 293.659 187.788 293.331 187.94C293.003 188.084 292.647 188.156 292.263 188.156C291.743 188.156 291.311 188.056 290.967 187.856C290.623 187.648 290.351 187.372 290.151 187.028V190.1H289.059V181.544H290.151ZM290.103 184.796C290.103 185.22 290.155 185.588 290.259 185.9C290.363 186.204 290.503 186.456 290.679 186.656C290.855 186.848 291.055 186.992 291.279 187.088C291.511 187.176 291.747 187.22 291.987 187.22C292.571 187.22 293.019 187.012 293.331 186.596C293.643 186.172 293.799 185.572 293.799 184.796C293.799 184.02 293.643 183.424 293.331 183.008C293.019 182.584 292.571 182.372 291.987 182.372C291.747 182.372 291.511 182.42 291.279 182.516C291.055 182.604 290.855 182.748 290.679 182.948C290.503 183.14 290.363 183.392 290.259 183.704C290.155 184.008 290.103 184.372 290.103 184.796ZM297.358 181.544V182.564C297.558 182.22 297.83 181.948 298.174 181.748C298.518 181.54 298.95 181.436 299.47 181.436C299.854 181.436 300.21 181.512 300.538 181.664C300.866 181.816 301.154 182.036 301.402 182.324C301.65 182.612 301.842 182.964 301.978 183.38C302.122 183.796 302.194 184.268 302.194 184.796C302.194 185.332 302.122 185.808 301.978 186.224C301.842 186.64 301.65 186.992 301.402 187.28C301.154 187.568 300.866 187.788 300.538 187.94C300.21 188.084 299.854 188.156 299.47 188.156C298.95 188.156 298.518 188.056 298.174 187.856C297.83 187.648 297.558 187.372 297.358 187.028V190.1H296.266V181.544H297.358ZM297.31 184.796C297.31 185.22 297.362 185.588 297.466 185.9C297.57 186.204 297.71 186.456 297.886 186.656C298.062 186.848 298.262 186.992 298.486 187.088C298.718 187.176 298.954 187.22 299.194 187.22C299.778 187.22 300.226 187.012 300.538 186.596C300.85 186.172 301.006 185.572 301.006 184.796C301.006 184.02 300.85 183.424 300.538 183.008C300.226 182.584 299.778 182.372 299.194 182.372C298.954 182.372 298.718 182.42 298.486 182.516C298.262 182.604 298.062 182.748 297.886 182.948C297.71 183.14 297.57 183.392 297.466 183.704C297.362 184.008 297.31 184.372 297.31 184.796ZM304.565 188H303.473V179.3H304.565V188ZM307.39 181.544V188H306.298V181.544H307.39ZM307.39 179.3V180.62H306.298V179.3H307.39ZM311.81 188.156C311.29 188.156 310.834 188.072 310.442 187.904C310.058 187.728 309.734 187.488 309.47 187.184C309.206 186.88 309.006 186.524 308.87 186.116C308.742 185.708 308.678 185.264 308.678 184.784C308.678 184.272 308.754 183.812 308.906 183.404C309.066 182.988 309.282 182.636 309.554 182.348C309.834 182.052 310.162 181.828 310.538 181.676C310.914 181.516 311.326 181.436 311.774 181.436C312.27 181.436 312.71 181.532 313.094 181.724C313.486 181.916 313.81 182.18 314.066 182.516C314.322 182.852 314.506 183.244 314.618 183.692C314.738 184.14 314.782 184.62 314.75 185.132H309.866C309.866 185.452 309.914 185.74 310.01 185.996C310.114 186.252 310.254 186.468 310.43 186.644C310.606 186.82 310.81 186.956 311.042 187.052C311.274 187.148 311.522 187.196 311.786 187.196C312.29 187.196 312.674 187.1 312.938 186.908C313.202 186.708 313.402 186.448 313.538 186.128H314.666C314.594 186.408 314.478 186.672 314.318 186.92C314.158 187.16 313.958 187.372 313.718 187.556C313.486 187.74 313.21 187.888 312.89 188C312.57 188.104 312.21 188.156 311.81 188.156ZM311.774 182.372C311.222 182.372 310.774 182.532 310.43 182.852C310.086 183.164 309.902 183.612 309.878 184.196H313.598C313.59 183.972 313.546 183.752 313.466 183.536C313.386 183.312 313.27 183.116 313.118 182.948C312.966 182.772 312.778 182.632 312.554 182.528C312.33 182.424 312.07 182.372 311.774 182.372ZM319.803 183.428C319.715 183.044 319.531 182.772 319.251 182.612C318.979 182.444 318.639 182.36 318.231 182.36C318.063 182.36 317.895 182.376 317.727 182.408C317.559 182.432 317.407 182.48 317.271 182.552C317.143 182.616 317.035 182.7 316.947 182.804C316.867 182.908 316.827 183.032 316.827 183.176C316.827 183.432 316.915 183.624 317.091 183.752C317.267 183.88 317.523 183.98 317.859 184.052L318.771 184.232C319.075 184.296 319.363 184.372 319.635 184.46C319.915 184.548 320.155 184.668 320.355 184.82C320.563 184.964 320.727 185.144 320.847 185.36C320.967 185.576 321.027 185.84 321.027 186.152C321.027 186.472 320.959 186.756 320.823 187.004C320.687 187.252 320.499 187.464 320.259 187.64C320.019 187.808 319.735 187.936 319.407 188.024C319.087 188.112 318.735 188.156 318.351 188.156C317.919 188.156 317.531 188.092 317.187 187.964C316.851 187.836 316.563 187.668 316.323 187.46C316.091 187.252 315.907 187.012 315.771 186.74C315.643 186.468 315.563 186.192 315.531 185.912H316.683C316.771 186.328 316.947 186.652 317.211 186.884C317.483 187.116 317.871 187.232 318.375 187.232C318.815 187.232 319.183 187.148 319.479 186.98C319.775 186.812 319.923 186.576 319.923 186.272C319.923 186.112 319.887 185.972 319.815 185.852C319.743 185.732 319.643 185.632 319.515 185.552C319.395 185.464 319.251 185.396 319.083 185.348C318.923 185.292 318.751 185.244 318.567 185.204L317.607 185.012C317.375 184.964 317.147 184.9 316.923 184.82C316.699 184.74 316.495 184.632 316.311 184.496C316.135 184.36 315.991 184.192 315.879 183.992C315.775 183.784 315.723 183.528 315.723 183.224C315.723 182.936 315.791 182.684 315.927 182.468C316.063 182.244 316.247 182.056 316.479 181.904C316.719 181.744 316.999 181.624 317.319 181.544C317.639 181.464 317.983 181.424 318.351 181.424C319.079 181.424 319.667 181.604 320.115 181.964C320.563 182.324 320.839 182.812 320.943 183.428H319.803Z" fill="black"></path></svg>