<svg xmlns="http://www.w3.org/2000/svg" viewBox="0 0 32 32"><path d="M16.08 32H16A20.37 20.37 0 0 1 0 12.227V2a2 2 0 0 1 2-2h28a2 2 0 0 1 2 2v10.093a20.414 20.414 0 0 1-15.773 19.894zM30 1.333H2A.667.667 0 0 0 1.333 2v10.227A19.04 19.04 0 0 0 16.08 30.64a19.05 19.05 0 0 0 14.587-18.533V2A.667.667 0 0 0 30 1.333"></path><path fill="#F60" d="M11.36 21.36a2 2 0 0 1-2-1.987v-7.826a2.013 2.013 0 0 1 2-2.014h9.333a2 2 0 0 1 2 1.987v7.827a2 2 0 0 1-2 2.013zm9.333-10.533H11.36a.68.68 0 0 0-.68.666v7.84a.667.667 0 0 0 .667.654h9.333a.68.68 0 0 0 .48-.2.67.67 0 0 0 .187-.467v-7.827a.667.667 0 0 0-.694-.6z"></path><path fill="#F60" d="M12 10.893a.7.7 0 0 1-.467-.186.7.7 0 0 1-.2-.48V8.733a4.693 4.693 0 0 1 4.654-4.693 4.61 4.61 0 0 1 3.306 1.333 4.68 4.68 0 0 1 1.334 3.294v1.506a.667.667 0 0 1-.654.667h-8zm4-5.52a3.347 3.347 0 0 0-3.347 3.347v.84h6.667v-.84A3.347 3.347 0 0 0 16 5.4zM16 17.747a2.333 2.333 0 1 1 0-4.667 2.333 2.333 0 0 1 0 4.667m0-3.334a1 1 0 1 0 0 2 1 1 0 0 0 0-2"></path></svg>