<svg xmlns="http://www.w3.org/2000/svg" viewBox="0 0 32 32"><path d="M10.667 31.334a.72.72 0 0 1-.467-.187.68.68 0 0 1 0-.946l2.2-2.2-2.2-2.187a.68.68 0 0 1 0-.947.665.665 0 0 1 .947 0l2.666 2.667a.68.68 0 0 1 0 .947l-2.666 2.666a.72.72 0 0 1-.48.187M30 32h-8a2 2 0 0 1-2-2V15.333a2 2 0 0 1 2-2h8a2 2 0 0 1 2 2V30a2 2 0 0 1-2 2m-8-17.334a.68.68 0 0 0-.667.667V30a.667.667 0 0 0 .667.666h8a.667.667 0 0 0 .667-.666V15.333a.667.667 0 0 0-.667-.667z"></path><path d="M13.333 28.667H12a7.347 7.347 0 0 1-7.333-7.333.667.667 0 0 1 1.333 0 6.013 6.013 0 0 0 6 6h1.333a.667.667 0 0 1 0 1.333M26 7.334a.72.72 0 0 1-.467-.187L22.867 4.48a.68.68 0 0 1 0-.946L25.533.867a.67.67 0 0 1 .947 0 .68.68 0 0 1 0 .947L24.28 4l2.2 2.2a.68.68 0 0 1 0 .947.72.72 0 0 1-.48.187"></path><path d="M31.333 11.333a.666.666 0 0 1-.666-.667 6.013 6.013 0 0 0-6-6h-1.334a.667.667 0 0 1 0-1.333h1.334A7.347 7.347 0 0 1 32 10.666a.667.667 0 0 1-.667.667M31.333 26.666H20.667A.667.667 0 0 1 20 26a.68.68 0 0 1 .667-.667h10.666a.666.666 0 1 1 0 1.333M26 29.667a1 1 0 1 1 0-2.002 1 1 0 0 1 0 2.002m0-1.333a.333.333 0 0 0-.333.333c0 .373.666.373.666 0a.333.333 0 0 0-.333-.333"></path><path fill="#F60" d="M15.333 14.667h-12A3.347 3.347 0 0 1 0 11.333v-8A3.347 3.347 0 0 1 3.333 0h12a3.333 3.333 0 0 1 3.334 3.333v8a3.333 3.333 0 0 1-3.334 3.334m-12-13.334a2 2 0 0 0-2 2v8a2 2 0 0 0 2 2h12a2 2 0 0 0 2-2v-8a2 2 0 0 0-2-2z"></path><path fill="#F60" d="M18 5.333H.667A.667.667 0 0 1 0 4.667.68.68 0 0 1 .667 4H18a.667.667 0 1 1 0 1.333M10 8H4a.667.667 0 0 1-.667-.666A.68.68 0 0 1 4 6.667h6A.667.667 0 0 1 10 8M6.667 10.666H4A.667.667 0 0 1 3.333 10 .68.68 0 0 1 4 9.333h2.667a.667.667 0 1 1 0 1.333"></path></svg>