<svg xmlns="http://www.w3.org/2000/svg" fill="charcoal-gray" viewBox="0 0 24 24"><path d="M12.925 11.05 8.675 6.8 10.1 5.4l2.825 2.825 5.675-5.65 1.4 1.4zM7 18.5l6.95 1.9 5.95-1.85a1.14 1.14 0 0 0-.362-.387A.93.93 0 0 0 19 18h-5.05a9 9 0 0 1-1.075-.05 4 4 0 0 1-.825-.2l-2.325-.775.55-1.95 2.025.675q.425.126 1 .2t1.7.1a.95.95 0 0 0-.162-.525.75.75 0 0 0-.388-.325L8.6 13H7zM1 22V11h7.6q.175 0 .35.038.175.037.325.087L15.15 13.3q.825.3 1.338 1.05Q17 15.1 17 16h2q1.25 0 2.125.825T22 19v1l-8 2.5-7-1.95V22zm2-2h2v-7H3z"></path></svg>