<svg xmlns="http://www.w3.org/2000/svg" viewBox="0 0 32 32"><path fill="#F60" d="M31.333 24h-16a.666.666 0 1 1 0-1.333h16a.666.666 0 1 1 0 1.333M27.333 28h-4a.666.666 0 1 1 0-1.333h4a.666.666 0 1 1 0 1.333"></path><path fill="#F60" d="M30 32H16.667a2 2 0 0 1-2-2v-9.333a2 2 0 0 1 2-2H30a2 2 0 0 1 2 2V30a2 2 0 0 1-2 2M16.667 20a.667.667 0 0 0-.667.667V30a.667.667 0 0 0 .667.667H30a.667.667 0 0 0 .667-.667v-9.333A.667.667 0 0 0 30 20z"></path><path d="M10 12.667A6.333 6.333 0 1 1 10 0a6.333 6.333 0 0 1 0 12.666m0-11.334a5 5 0 1 0 0 10 5 5 0 0 0 0-10M11.333 24H.667A.667.667 0 0 1 0 23.333a10 10 0 0 1 15-8.666.67.67 0 0 1-.667 1.16 8.666 8.666 0 0 0-12.973 6.84h9.973a.667.667 0 0 1 0 1.333"></path></svg>