<svg xmlns="http://www.w3.org/2000/svg" fill="charcoal-gray" viewBox="0 0 32 32"><path d="M15.327 32H3.332A3.344 3.344 0 0 1 0 28.667V7.333a2 2 0 0 1 2-2 .666.666 0 0 1 0 1.334.666.666 0 0 0-.667.666v21.334a2 2 0 0 0 1.999 2h11.995a2 2 0 0 0 2-2V7.333a.667.667 0 0 0-.667-.666.666.666 0 0 1 0-1.334 2 2 0 0 1 1.999 2v21.334A3.335 3.335 0 0 1 15.327 32"></path><path d="M17.993 10.667H.665a.666.666 0 1 1 0-1.334h17.327a.666.666 0 0 1 0 1.334M17.993 16H.665a.666.666 0 1 1 0-1.333h17.327a.666.666 0 1 1 0 1.333"></path><path fill="#F60" d="M4.678 25.333H3.345a.666.666 0 1 1 0-1.333h1.333a.666.666 0 1 1 0 1.333M8.676 25.333H7.344a.666.666 0 1 1 0-1.333h1.332a.666.666 0 1 1 0 1.333M12.675 25.333h-1.333a.666.666 0 0 1 0-1.333h1.333a.666.666 0 1 1 0 1.333M4.678 28H3.345a.666.666 0 1 1 0-1.333h1.333a.666.666 0 1 1 0 1.333M8.676 28H7.344a.666.666 0 1 1 0-1.333h1.332a.666.666 0 1 1 0 1.333M12.675 28h-1.333a.666.666 0 1 1 0-1.333h1.333a.666.666 0 1 1 0 1.333M4.678 22.667H3.345a.666.666 0 1 1 0-1.334h1.333a.666.666 0 0 1 0 1.334M8.676 22.667H7.344a.666.666 0 1 1 0-1.334h1.332a.666.666 0 0 1 0 1.334M12.675 22.667h-1.333a.666.666 0 0 1 0-1.334h1.333a.666.666 0 0 1 0 1.334M6.01 20H3.346a.666.666 0 1 1 0-1.333h2.666a.666.666 0 1 1 0 1.333M10.01 20H8.675a.666.666 0 1 1 0-1.333h1.333a.666.666 0 1 1 0 1.333M15.34 20h-2.665a.666.666 0 1 1 0-1.333h2.665a.666.666 0 1 1 0 1.333M15.34 28a.666.666 0 0 1-.666-.667V22a.667.667 0 1 1 1.333 0v5.333a.667.667 0 0 1-.667.667"></path><path d="M14.008 10.667A.666.666 0 0 1 13.34 10V1.747l-1.706.853a.67.67 0 0 1-.666 0L9.343 1.52l-1.64 1.093a.67.67 0 0 1-.666 0L5.344 1.76V10a.667.667 0 1 1-1.332 0V1.747a1.334 1.334 0 0 1 1.946-1.2l1.332.68L8.623.36a1.33 1.33 0 0 1 1.48 0l1.332.867 1.333-.68a1.332 1.332 0 0 1 1.933 1.2V10a.67.67 0 0 1-.694.667"></path><path d="M11.342 5.333H7.344a.666.666 0 0 1 0-1.333h3.998a.666.666 0 0 1 0 1.333M8.676 8H7.344a.666.666 0 0 1 0-1.333h1.332a.666.666 0 0 1 0 1.333"></path><path fill="#F60" d="M30 16h-7.996a2 2 0 0 1-1.999-2V2a2 2 0 0 1 2-2H30A2 2 0 0 1 32 2v12a2 2 0 0 1-2 2M22.005 1.333a.666.666 0 0 0-.666.667v12a.667.667 0 0 0 .666.667h7.997a.667.667 0 0 0 .666-.667V2a.667.667 0 0 0-.666-.667z"></path><path fill="#F60" d="M24.67 16a.666.666 0 0 1-.667-.667V.667a.667.667 0 1 1 1.333 0v14.666a.667.667 0 0 1-.666.667M28.668 6a.666.666 0 0 1-.666-.667v-2a.667.667 0 1 1 1.332 0v2a.667.667 0 0 1-.666.667"></path><path d="M26.003 26.667a.68.68 0 0 1-.48-.2L22.857 23.8a.667.667 0 0 1 .473-1.13.67.67 0 0 1 .473.197l2.2 2.186 2.185-2.186a.665.665 0 0 1 .947 0 .64.64 0 0 1 0 .933l-2.666 2.667a.65.65 0 0 1-.466.2"></path><path d="M26.003 26.667a.666.666 0 0 1-.667-.667v-6.667a.667.667 0 1 1 1.333 0V26a.667.667 0 0 1-.666.667"></path></svg>