<svg xmlns="http://www.w3.org/2000/svg" fill="charcoal-gray" viewBox="0 0 32 32"><path d="M31.333 32H10.667a.67.67 0 0 1-.468-.208.712.712 0 0 1-.004-.981.65.65 0 0 1 .472-.204h20.666c.177 0 .347.073.472.204.125.13.195.308.195.493 0 .184-.07.361-.195.492a.65.65 0 0 1-.472.204M14 29.326a.67.67 0 0 1-.468-.208.73.73 0 0 1-.199-.489v-6.686c0-.184.07-.361.196-.492a.65.65 0 0 1 .471-.204c.177 0 .346.073.471.204.125.13.196.308.196.492v6.686c0 .185-.07.362-.196.493a.65.65 0 0 1-.471.204M18 29.326a.67.67 0 0 1-.468-.208.73.73 0 0 1-.199-.489v-6.686c0-.184.07-.361.196-.492a.65.65 0 0 1 .471-.204c.177 0 .346.073.471.204.125.13.196.308.196.492v6.686c0 .185-.07.362-.196.493a.65.65 0 0 1-.471.204M24.667 29.326a.67.67 0 0 1-.468-.208.73.73 0 0 1-.199-.489v-6.686c0-.184.07-.361.195-.492a.65.65 0 0 1 .472-.204c.176 0 .346.073.471.204.125.13.195.308.195.492v6.686c0 .185-.07.362-.195.493a.65.65 0 0 1-.471.204M28.667 29.326a.67.67 0 0 1-.468-.208.73.73 0 0 1-.199-.489v-6.686c0-.184.07-.361.195-.492a.65.65 0 0 1 .472-.204c.176 0 .346.073.471.204.125.13.195.308.195.492v6.686c0 .185-.07.362-.195.493a.65.65 0 0 1-.471.204"></path><path d="M19.333 22.64h-6.666a.67.67 0 0 1-.468-.208.712.712 0 0 1-.004-.981.65.65 0 0 1 .472-.204h6.666c.177 0 .347.073.472.204.125.13.195.308.195.492 0 .185-.07.362-.195.493a.65.65 0 0 1-.472.204M30 22.64h-6.667a.67.67 0 0 1-.467-.208.712.712 0 0 1-.004-.981.65.65 0 0 1 .471-.204H30c.177 0 .346.073.471.204a.713.713 0 0 1 0 .985.65.65 0 0 1-.471.204"></path><path fill="#F60" d="M13.333 15.954h-12c-.353 0-.692-.147-.942-.408A1.43 1.43 0 0 1 0 14.561V6.594c0-.37.14-.724.39-.985s.59-.408.943-.408h12c.354 0 .693.147.943.408s.39.616.39.985v7.967c0 .37-.14.724-.39.985s-.589.408-.943.408m-12-9.36v7.967h12V6.594z"></path><path fill="#F60" d="M14.773 12.054h-.28l-.626-.14a.68.68 0 0 1-.419-.3.74.74 0 0 1-.101-.521.7.7 0 0 1 .288-.437.66.66 0 0 1 .498-.106l.627.14 1.48-6.798L4.6 1.399l-1.013 4.68a.71.71 0 0 1-.3.447.66.66 0 0 1-.514.096.68.68 0 0 1-.428-.312.74.74 0 0 1-.092-.538l1.014-4.708c.082-.354.295-.661.591-.854.297-.193.654-.256.995-.176l11.64 2.535c.175.037.34.11.486.216.147.105.272.24.368.396a1.34 1.34 0 0 1 .173 1.017l-1.48 6.811a1.4 1.4 0 0 1-.465.746c-.229.188-.51.293-.802.299"></path><path fill="#F60" d="M7.333 13.28c-.508-.017-1-.189-1.414-.496A2.7 2.7 0 0 1 5 11.555a2.8 2.8 0 0 1-.115-1.554c.11-.518.362-.992.726-1.362a2.55 2.55 0 0 1 1.325-.716c.5-.098 1.016-.04 1.484.167s.867.553 1.148.995c.28.443.43.962.431 1.493a2.85 2.85 0 0 1-.809 1.916 2.6 2.6 0 0 1-1.858.786m0-4.012a1.2 1.2 0 0 0-.673.26 1.3 1.3 0 0 0-.426.604c-.083.24-.096.5-.04.749.058.248.183.473.36.648.179.175.402.291.643.336.24.044.488.013.713-.088s.415-.268.55-.481c.134-.213.206-.463.207-.718a1.42 1.42 0 0 0-.418-.932 1.3 1.3 0 0 0-.916-.378"></path><path d="M30.667 19.952H12c-.354 0-.693-.147-.943-.408a1.43 1.43 0 0 1-.39-.985c0-.185.07-.362.195-.493a.65.65 0 0 1 .471-.204c.177 0 .347.074.472.204s.195.308.195.493h18.667v-.961l-9.334-6.212-3.653 2.437a.64.64 0 0 1-.501.094.67.67 0 0 1-.419-.303.74.74 0 0 1-.091-.53.7.7 0 0 1 .291-.445l3.64-2.437c.218-.15.473-.23.733-.23.261 0 .516.08.734.23l9.333 6.24c.181.125.331.294.436.493s.16.422.164.649v.975c0 .37-.14.723-.39.985-.25.26-.59.408-.943.408"></path></svg>