<svg xmlns="http://www.w3.org/2000/svg" id="search-icon" viewBox="0 0 14 14"><path d="M13.213 12.487 9.155 8.395c.63-.82.97-1.824.97-2.88 0-1.263-.49-2.448-1.373-3.341A4.63 4.63 0 0 0 5.437.789a4.64 4.64 0 0 0-3.314 1.385A4.7 4.7 0 0 0 .75 5.515c0 1.262.49 2.45 1.373 3.342a4.63 4.63 0 0 0 3.315 1.385c1.046 0 2.04-.344 2.854-.977l4.058 4.09a.13.13 0 0 0 .181 0l.681-.686a.13.13 0 0 0 0-.183m-5.3-4.476a3.47 3.47 0 0 1-2.476 1.033 3.47 3.47 0 0 1-2.475-1.033 3.53 3.53 0 0 1-1.025-2.496c0-.942.365-1.829 1.025-2.495a3.47 3.47 0 0 1 2.476-1.034c.934 0 1.814.366 2.475 1.034a3.53 3.53 0 0 1 1.024 2.495c0 .942-.364 1.83-1.024 2.496"></path></svg>