<svg xmlns="http://www.w3.org/2000/svg" viewBox="0 0 32 32"><path d="M14.667 17.333H3.333A3.333 3.333 0 0 1 0 14V3.333A3.333 3.333 0 0 1 3.333 0h17.334A3.333 3.333 0 0 1 24 3.333V12a.68.68 0 0 1-.667.667.667.667 0 0 1-.666-.667V3.333a2 2 0 0 0-2-2H3.333a2 2 0 0 0-2 2V14a2 2 0 0 0 2 2h11.334a.667.667 0 0 1 .666.667.68.68 0 0 1-.666.666"></path><path d="M23.333 5.333H.667A.667.667 0 0 1 .667 4h22.666a.667.667 0 0 1 0 1.333M11.333 8H4.667a.667.667 0 0 1 0-1.333h6.666a.667.667 0 1 1 0 1.333M20.667 8H18a.667.667 0 0 1 0-1.333h2.667a.667.667 0 1 1 0 1.333M8.667 10.667h-4a.667.667 0 0 1 0-1.334h4a.667.667 0 0 1 0 1.334"></path><path fill="#F60" d="M30.533 23.987a.65.65 0 0 1-.653-.534 6 6 0 0 0-11.76 0 .68.68 0 1 1-1.333-.266 7.333 7.333 0 0 1 14.373 0 .666.666 0 0 1-.52.786z"></path><path fill="#F60" d="M31.333 24h-4a.667.667 0 0 1 0-1.333h3.334v-3.334a.667.667 0 0 1 1.333 0v4a.667.667 0 0 1-.667.667M24 32a7.35 7.35 0 0 1-7.187-5.867.654.654 0 0 1 .52-.786.67.67 0 0 1 .787.52 6 6 0 0 0 11.76 0 .65.65 0 0 1 .787-.52.667.667 0 0 1 .52.786A7.36 7.36 0 0 1 24 32"></path><path fill="#F60" d="M16.667 30.667A.667.667 0 0 1 16 30v-4a.666.666 0 0 1 .667-.667h3.866a.667.667 0 0 1 0 1.334h-3.2V30a.667.667 0 0 1-.666.667"></path></svg>