<svg xmlns="http://www.w3.org/2000/svg" width="104" height="34" viewBox="0 0 104 34" fill="none"><path d="M37.9227 0.591881L24.1363 33.4787H15.1427L8.35919 7.23285C7.94789 5.61511 7.59144 5.02285 6.33564 4.34285C4.29015 3.23511 0.912086 2.19317 -2.05469 1.54608L-1.85178 0.591881H12.6256C14.4682 0.591881 16.1298 1.82027 16.5466 3.94801L20.1276 22.977L28.984 0.591881H37.9227ZM73.1566 22.7467C73.195 14.0658 61.1524 13.5887 61.2347 9.71156C61.2621 8.53253 62.3863 7.27672 64.843 6.95866C66.0605 6.79962 69.4221 6.67898 73.2279 8.42833L74.7195 1.45285C72.674 0.712526 70.0363 -0.00585938 66.7624 -0.00585938C58.3556 -0.00585938 52.4331 4.46349 52.3837 10.8632C52.3289 15.5958 56.6063 18.239 59.8308 19.8129C63.1485 21.4251 64.2618 22.4616 64.2453 23.8983C64.2234 26.1029 61.6021 27.079 59.1508 27.1174C54.8734 27.1832 52.3947 25.9603 50.415 25.039L48.874 32.2448C50.8592 33.1551 54.5334 33.9503 58.3337 33.9941C67.2724 33.9941 73.1182 29.5796 73.1456 22.7412M95.3663 33.4841H103.236L96.3698 0.597366H89.1092C87.475 0.597366 86.0985 1.54608 85.4898 3.01027L72.7234 33.4841H81.6566L83.4279 28.5706H94.3463L95.3718 33.4841H95.3663ZM85.8737 21.8309L90.354 9.48124L92.9314 21.8309H85.8737ZM50.075 0.591881L43.0392 33.4787H34.5337L41.5695 0.591881H50.075Z" fill="#1434CB"/></svg>