<svg xmlns="http://www.w3.org/2000/svg" width="120" height="64" viewBox="0 0 120 64" fill="none"><path d="M57.2203 34.5169V44.024H54.2031V20.5469H62.2017C64.2288 20.5469 65.9574 21.2226 67.3717 22.574C68.8174 23.9255 69.5403 25.5755 69.5403 27.524C69.5403 29.5197 68.8174 31.1697 67.3717 32.5054C65.9731 33.8412 64.2446 34.5012 62.2017 34.5012H57.2203V34.5169ZM57.2203 23.4383V31.6254H62.2646C63.4588 31.6254 64.4646 31.2169 65.2503 30.4155C66.0517 29.614 66.4603 28.6397 66.4603 27.5397C66.4603 26.4554 66.0517 25.4969 65.2503 24.6955C64.4646 23.8626 63.4746 23.454 62.2646 23.454H57.2203V23.4383Z" fill="#3C4043"/><path d="M77.4305 27.4316C79.6619 27.4316 81.4219 28.0288 82.7104 29.2231C83.999 30.4174 84.6433 32.0516 84.6433 34.1259V44.0259H81.7676V41.7945H81.6419C80.4005 43.6331 78.7347 44.5445 76.6604 44.5445C74.8847 44.5445 73.4076 44.0259 72.2133 42.9731C71.019 41.9202 70.4219 40.6159 70.4219 39.0445C70.4219 37.3788 71.0504 36.0588 72.3076 35.0845C73.5647 34.0945 75.2462 33.6074 77.3362 33.6074C79.1276 33.6074 80.6047 33.9374 81.7519 34.5974V33.9059C81.7519 32.8531 81.3433 31.9731 80.5104 31.2345C79.6776 30.4959 78.7033 30.1345 77.5876 30.1345C75.9062 30.1345 74.5704 30.8416 73.5962 32.2716L70.9404 30.6059C72.4019 28.4845 74.5705 27.4316 77.4305 27.4316ZM73.5333 39.0916C73.5333 39.8773 73.8633 40.5373 74.539 41.0559C75.199 41.5745 75.9847 41.8416 76.8805 41.8416C78.1533 41.8416 79.2847 41.3702 80.2747 40.4274C81.2647 39.4845 81.7676 38.3845 81.7676 37.1116C80.8247 36.3731 79.5204 35.9959 77.839 35.9959C76.6133 35.9959 75.5919 36.2945 74.7747 36.8759C73.9419 37.4888 73.5333 38.2274 73.5333 39.0916Z" fill="#3C4043"/><path d="M101.048 27.9492L90.9911 51.0806H87.8797L91.6197 42.9878L84.9883 27.9492H88.2726L93.0497 39.4835H93.1126L97.764 27.9492H101.048Z" fill="#3C4043"/><path d="M45.2147 32.6016C45.2147 31.6179 45.1267 30.6766 44.9633 29.7715H32.3164V34.9572L39.6 34.9588C39.3045 36.6842 38.3538 38.1551 36.8971 39.1356V42.5001H41.2327C43.7643 40.1571 45.2147 36.6936 45.2147 32.6016Z" fill="#4285F4"/><path d="M36.8991 39.1375C35.6922 39.9515 34.1381 40.4277 32.3199 40.4277C28.8078 40.4277 25.8283 38.0611 24.7613 34.8711H20.2891V38.3408C22.5048 42.7377 27.0588 45.7548 32.3199 45.7548C35.9562 45.7548 39.0111 44.559 41.2346 42.5004L36.8991 39.1375Z" fill="#34A853"/><path d="M24.3421 32.2953C24.3421 31.3996 24.4914 30.5337 24.7632 29.7197V26.25H20.2909C19.3748 28.0681 18.8594 30.1204 18.8594 32.2953C18.8594 34.4701 19.3764 36.5224 20.2909 38.3406L24.7632 34.8709C24.4914 34.0569 24.3421 33.191 24.3421 32.2953Z" fill="#FABB05"/><path d="M32.3199 24.1631C34.3046 24.1631 36.0819 24.8467 37.4852 26.1824L41.3274 22.3434C38.9938 20.1701 35.9515 18.8359 32.3199 18.8359C27.0603 18.8359 22.5048 21.8531 20.2891 26.2499L24.7613 29.7197C25.8283 26.5297 28.8078 24.1631 32.3199 24.1631Z" fill="#E94235"/></svg>