<svg xmlns="http://www.w3.org/2000/svg" width="345" height="216" viewBox="0 0 345 216" fill="none"><path d="M0 16C0 7.16345 7.16344 0 16 0H329C337.837 0 345 7.16344 345 16V200C345 208.837 337.837 216 329 216H16C7.16345 216 0 208.837 0 200V16Z" fill="black"></path><path d="M27.228 27.3H28.644L31.92 36H30.6L29.916 34.116H25.92L25.248 36H24L27.228 27.3ZM26.292 33.072H29.532L27.9 28.536L26.292 33.072ZM35.4845 29.436C35.8845 29.436 36.2405 29.504 36.5525 29.64C36.8645 29.768 37.1325 29.94 37.3565 30.156C37.5805 30.372 37.7565 30.616 37.8845 30.888C38.0205 31.16 38.1085 31.432 38.1485 31.704L37.0445 31.704C36.9645 31.32 36.7805 31.008 36.4925 30.768C36.2125 30.52 35.8525 30.396 35.4125 30.396C35.1565 30.396 34.9165 30.444 34.6925 30.54C34.4765 30.636 34.2845 30.784 34.1165 30.984C33.9565 31.176 33.8285 31.42 33.7325 31.716C33.6365 32.012 33.5885 32.364 33.5885 32.772C33.5885 33.18 33.6365 33.536 33.7325 33.84C33.8285 34.144 33.9605 34.396 34.1285 34.596C34.2965 34.796 34.4885 34.948 34.7045 35.052C34.9285 35.148 35.1645 35.196 35.4125 35.196C35.6525 35.196 35.8645 35.16 36.0485 35.088C36.2405 35.016 36.4045 34.92 36.5405 34.8C36.6845 34.68 36.8005 34.544 36.8885 34.392C36.9845 34.232 37.0525 34.068 37.0925 33.9H38.2205C38.1645 34.204 38.0565 34.492 37.8965 34.764C37.7365 35.036 37.5325 35.276 37.2845 35.484C37.0445 35.692 36.7605 35.856 36.4325 35.976C36.1125 36.096 35.7605 36.156 35.3765 36.156C34.9045 36.156 34.4845 36.072 34.1165 35.904C33.7485 35.736 33.4365 35.504 33.1805 35.208C32.9245 34.912 32.7285 34.56 32.5925 34.152C32.4645 33.736 32.4005 33.28 32.4005 32.784C32.4005 32.304 32.4685 31.86 32.6045 31.452C32.7485 31.044 32.9525 30.692 33.2165 30.396C33.4805 30.092 33.8005 29.856 34.1765 29.688C34.5605 29.52 34.9965 29.436 35.4845 29.436ZM40.5458 36H39.4538V29.544H40.5458V30.516C40.7298 30.212 40.9778 29.956 41.2898 29.748C41.6018 29.54 42.0018 29.436 42.4898 29.436C42.9858 29.436 43.3818 29.536 43.6778 29.736C43.9818 29.936 44.2058 30.216 44.3498 30.576C44.6058 30.176 44.9178 29.888 45.2858 29.712C45.6538 29.528 46.0658 29.436 46.5218 29.436C46.8978 29.436 47.2178 29.496 47.4818 29.616C47.7458 29.736 47.9618 29.908 48.1298 30.132C48.2978 30.348 48.4178 30.608 48.4898 30.912C48.5698 31.216 48.6098 31.552 48.6098 31.92V36H47.5178V32.244C47.5178 31.996 47.5018 31.76 47.4698 31.536C47.4378 31.312 47.3698 31.116 47.2658 30.948C47.1698 30.772 47.0298 30.636 46.8458 30.54C46.6698 30.436 46.4338 30.384 46.1378 30.384C45.6658 30.384 45.2858 30.564 44.9978 30.924C44.7178 31.276 44.5778 31.8 44.5778 32.496V36H43.4858V32.244C43.4858 31.996 43.4698 31.76 43.4378 31.536C43.4058 31.312 43.3378 31.116 43.2338 30.948C43.1378 30.772 42.9978 30.636 42.8138 30.54C42.6378 30.436 42.4018 30.384 42.1058 30.384C41.6338 30.384 41.2538 30.564 40.9658 30.924C40.6858 31.276 40.5458 31.8 40.5458 32.496V36ZM52.9348 36.156C52.4148 36.156 51.9588 36.072 51.5668 35.904C51.1828 35.728 50.8588 35.488 50.5948 35.184C50.3308 34.88 50.1308 34.524 49.9948 34.116C49.8668 33.708 49.8028 33.264 49.8028 32.784C49.8028 32.272 49.8788 31.812 50.0308 31.404C50.1908 30.988 50.4068 30.636 50.6788 30.348C50.9588 30.052 51.2868 29.828 51.6628 29.676C52.0388 29.516 52.4508 29.436 52.8988 29.436C53.3948 29.436 53.8348 29.532 54.2188 29.724C54.6108 29.916 54.9348 30.18 55.1908 30.516C55.4468 30.852 55.6308 31.244 55.7428 31.692C55.8628 32.14 55.9068 32.62 55.8748 33.132L50.9908 33.132C50.9908 33.452 51.0388 33.74 51.1348 33.996C51.2388 34.252 51.3788 34.468 51.5548 34.644C51.7308 34.82 51.9348 34.956 52.1668 35.052C52.3988 35.148 52.6468 35.196 52.9108 35.196C53.4148 35.196 53.7988 35.1 54.0628 34.908C54.3268 34.708 54.5268 34.448 54.6628 34.128H55.7908C55.7188 34.408 55.6028 34.672 55.4428 34.92C55.2828 35.16 55.0828 35.372 54.8428 35.556C54.6108 35.74 54.3348 35.888 54.0148 36C53.6948 36.104 53.3348 36.156 52.9348 36.156ZM52.8988 30.372C52.3468 30.372 51.8988 30.532 51.5548 30.852C51.2108 31.164 51.0268 31.612 51.0028 32.196L54.7228 32.196C54.7148 31.972 54.6708 31.752 54.5908 31.536C54.5108 31.312 54.3948 31.116 54.2428 30.948C54.0908 30.772 53.9028 30.632 53.6788 30.528C53.4548 30.424 53.1948 30.372 52.8988 30.372ZM61.4005 36H60.1765V27.3H61.4005V36ZM64.3935 30.516C64.5775 30.212 64.8335 29.956 65.1615 29.748C65.4975 29.54 65.9375 29.436 66.4815 29.436C66.8735 29.436 67.2015 29.496 67.4655 29.616C67.7375 29.736 67.9575 29.908 68.1255 30.132C68.2935 30.348 68.4135 30.608 68.4855 30.912C68.5655 31.216 68.6055 31.552 68.6055 31.92V36H67.5135V32.244C67.5135 31.996 67.4975 31.76 67.4655 31.536C67.4335 31.312 67.3695 31.116 67.2735 30.948C67.1775 30.772 67.0335 30.636 66.8415 30.54C66.6575 30.436 66.4095 30.384 66.0975 30.384C65.5695 30.384 65.1535 30.564 64.8495 30.924C64.5455 31.276 64.3935 31.8 64.3935 32.496V36H63.3015V29.544H64.3935V30.516ZM72.879 29.436C73.279 29.436 73.635 29.504 73.947 29.64C74.259 29.768 74.527 29.94 74.751 30.156C74.975 30.372 75.151 30.616 75.279 30.888C75.415 31.16 75.503 31.432 75.543 31.704H74.439C74.359 31.32 74.175 31.008 73.887 30.768C73.607 30.52 73.247 30.396 72.807 30.396C72.551 30.396 72.311 30.444 72.087 30.54C71.871 30.636 71.679 30.784 71.511 30.984C71.351 31.176 71.223 31.42 71.127 31.716C71.031 32.012 70.983 32.364 70.983 32.772C70.983 33.18 71.031 33.536 71.127 33.84C71.223 34.144 71.355 34.396 71.523 34.596C71.691 34.796 71.883 34.948 72.099 35.052C72.323 35.148 72.559 35.196 72.807 35.196C73.047 35.196 73.259 35.16 73.443 35.088C73.635 35.016 73.799 34.92 73.935 34.8C74.079 34.68 74.195 34.544 74.283 34.392C74.379 34.232 74.447 34.068 74.487 33.9H75.615C75.559 34.204 75.451 34.492 75.291 34.764C75.131 35.036 74.927 35.276 74.679 35.484C74.439 35.692 74.155 35.856 73.827 35.976C73.507 36.096 73.155 36.156 72.771 36.156C72.299 36.156 71.879 36.072 71.511 35.904C71.143 35.736 70.831 35.504 70.575 35.208C70.319 34.912 70.123 34.56 69.987 34.152C69.859 33.736 69.795 33.28 69.795 32.784C69.795 32.304 69.863 31.86 69.999 31.452C70.143 31.044 70.347 30.692 70.611 30.396C70.875 30.092 71.195 29.856 71.571 29.688C71.955 29.52 72.391 29.436 72.879 29.436ZM76.53 36V34.62H77.91V36H76.53Z" fill="white" fill-opacity="0.5"></path><path d="M24.516 184.652C24.516 184.356 24.572 184.08 24.684 183.824C24.796 183.568 24.948 183.344 25.14 183.152C25.332 182.96 25.556 182.808 25.812 182.696C26.068 182.584 26.34 182.528 26.628 182.528C26.94 182.528 27.232 182.584 27.504 182.696C27.776 182.808 28.008 182.96 28.2 183.152C28.4 183.344 28.556 183.568 28.668 183.824C28.78 184.08 28.836 184.356 28.836 184.652C28.836 184.964 28.78 185.256 28.668 185.528C28.556 185.792 28.4 186.024 28.2 186.224C28.008 186.416 27.776 186.568 27.504 186.68C27.232 186.792 26.94 186.848 26.628 186.848C26.34 186.848 26.068 186.792 25.812 186.68C25.556 186.568 25.332 186.416 25.14 186.224C24.948 186.024 24.796 185.792 24.684 185.528C24.572 185.256 24.516 184.964 24.516 184.652ZM29.8832 184.652C29.8832 184.356 29.9392 184.08 30.0512 183.824C30.1632 183.568 30.3152 183.344 30.5072 183.152C30.6992 182.96 30.9232 182.808 31.1792 182.696C31.4352 182.584 31.7072 182.528 31.9952 182.528C32.3072 182.528 32.5992 182.584 32.8712 182.696C33.1432 182.808 33.3752 182.96 33.5672 183.152C33.7672 183.344 33.9232 183.568 34.0352 183.824C34.1472 184.08 34.2032 184.356 34.2032 184.652C34.2032 184.964 34.1472 185.256 34.0352 185.528C33.9232 185.792 33.7672 186.024 33.5672 186.224C33.3752 186.416 33.1432 186.568 32.8712 186.68C32.5992 186.792 32.3072 186.848 31.9952 186.848C31.7072 186.848 31.4352 186.792 31.1792 186.68C30.9232 186.568 30.6992 186.416 30.5072 186.224C30.3152 186.024 30.1632 185.792 30.0512 185.528C29.9392 185.256 29.8832 184.964 29.8832 184.652ZM35.2504 184.652C35.2504 184.356 35.3064 184.08 35.4184 183.824C35.5304 183.568 35.6824 183.344 35.8744 183.152C36.0664 182.96 36.2904 182.808 36.5464 182.696C36.8024 182.584 37.0744 182.528 37.3624 182.528C37.6744 182.528 37.9664 182.584 38.2384 182.696C38.5104 182.808 38.7424 182.96 38.9344 183.152C39.1344 183.344 39.2904 183.568 39.4024 183.824C39.5144 184.08 39.5704 184.356 39.5704 184.652C39.5704 184.964 39.5144 185.256 39.4024 185.528C39.2904 185.792 39.1344 186.024 38.9344 186.224C38.7424 186.416 38.5104 186.568 38.2384 186.68C37.9664 186.792 37.6744 186.848 37.3624 186.848C37.0744 186.848 36.8024 186.792 36.5464 186.68C36.2904 186.568 36.0664 186.416 35.8744 186.224C35.6824 186.024 35.5304 185.792 35.4184 185.528C35.3064 185.256 35.2504 184.964 35.2504 184.652ZM40.6176 184.652C40.6176 184.356 40.6736 184.08 40.7856 183.824C40.8976 183.568 41.0496 183.344 41.2416 183.152C41.4336 182.96 41.6576 182.808 41.9136 182.696C42.1696 182.584 42.4416 182.528 42.7296 182.528C43.0416 182.528 43.3336 182.584 43.6056 182.696C43.8776 182.808 44.1096 182.96 44.3016 183.152C44.5016 183.344 44.6576 183.568 44.7696 183.824C44.8816 184.08 44.9376 184.356 44.9376 184.652C44.9376 184.964 44.8816 185.256 44.7696 185.528C44.6576 185.792 44.5016 186.024 44.3016 186.224C44.1096 186.416 43.8776 186.568 43.6056 186.68C43.3336 186.792 43.0416 186.848 42.7296 186.848C42.4416 186.848 42.1696 186.792 41.9136 186.68C41.6576 186.568 41.4336 186.416 41.2416 186.224C41.0496 186.024 40.8976 185.792 40.7856 185.528C40.6736 185.256 40.6176 184.964 40.6176 184.652ZM48.8324 184.652C48.8324 184.356 48.8884 184.08 49.0004 183.824C49.1124 183.568 49.2644 183.344 49.4564 183.152C49.6484 182.96 49.8724 182.808 50.1284 182.696C50.3844 182.584 50.6564 182.528 50.9444 182.528C51.2564 182.528 51.5484 182.584 51.8204 182.696C52.0924 182.808 52.3244 182.96 52.5164 183.152C52.7164 183.344 52.8724 183.568 52.9844 183.824C53.0964 184.08 53.1524 184.356 53.1524 184.652C53.1524 184.964 53.0964 185.256 52.9844 185.528C52.8724 185.792 52.7164 186.024 52.5164 186.224C52.3244 186.416 52.0924 186.568 51.8204 186.68C51.5484 186.792 51.2564 186.848 50.9444 186.848C50.6564 186.848 50.3844 186.792 50.1284 186.68C49.8724 186.568 49.6484 186.416 49.4564 186.224C49.2644 186.024 49.1124 185.792 49.0004 185.528C48.8884 185.256 48.8324 184.964 48.8324 184.652ZM54.1996 184.652C54.1996 184.356 54.2556 184.08 54.3676 183.824C54.4796 183.568 54.6316 183.344 54.8236 183.152C55.0156 182.96 55.2396 182.808 55.4956 182.696C55.7516 182.584 56.0236 182.528 56.3116 182.528C56.6236 182.528 56.9156 182.584 57.1876 182.696C57.4596 182.808 57.6916 182.96 57.8836 183.152C58.0836 183.344 58.2396 183.568 58.3516 183.824C58.4636 184.08 58.5196 184.356 58.5196 184.652C58.5196 184.964 58.4636 185.256 58.3516 185.528C58.2396 185.792 58.0836 186.024 57.8836 186.224C57.6916 186.416 57.4596 186.568 57.1876 186.68C56.9156 186.792 56.6236 186.848 56.3116 186.848C56.0236 186.848 55.7516 186.792 55.4956 186.68C55.2396 186.568 55.0156 186.416 54.8236 186.224C54.6316 186.024 54.4796 185.792 54.3676 185.528C54.2556 185.256 54.1996 184.964 54.1996 184.652ZM59.5668 184.652C59.5668 184.356 59.6228 184.08 59.7348 183.824C59.8468 183.568 59.9988 183.344 60.1908 183.152C60.3828 182.96 60.6068 182.808 60.8628 182.696C61.1188 182.584 61.3908 182.528 61.6788 182.528C61.9908 182.528 62.2828 182.584 62.5548 182.696C62.8268 182.808 63.0588 182.96 63.2508 183.152C63.4508 183.344 63.6068 183.568 63.7188 183.824C63.8308 184.08 63.8868 184.356 63.8868 184.652C63.8868 184.964 63.8308 185.256 63.7188 185.528C63.6068 185.792 63.4508 186.024 63.2508 186.224C63.0588 186.416 62.8268 186.568 62.5548 186.68C62.2828 186.792 61.9908 186.848 61.6788 186.848C61.3908 186.848 61.1188 186.792 60.8628 186.68C60.6068 186.568 60.3828 186.416 60.1908 186.224C59.9988 186.024 59.8468 185.792 59.7348 185.528C59.6228 185.256 59.5668 184.964 59.5668 184.652ZM64.934 184.652C64.934 184.356 64.99 184.08 65.102 183.824C65.214 183.568 65.366 183.344 65.558 183.152C65.75 182.96 65.974 182.808 66.23 182.696C66.486 182.584 66.758 182.528 67.046 182.528C67.358 182.528 67.65 182.584 67.922 182.696C68.194 182.808 68.426 182.96 68.618 183.152C68.818 183.344 68.974 183.568 69.086 183.824C69.198 184.08 69.254 184.356 69.254 184.652C69.254 184.964 69.198 185.256 69.086 185.528C68.974 185.792 68.818 186.024 68.618 186.224C68.426 186.416 68.194 186.568 67.922 186.68C67.65 186.792 67.358 186.848 67.046 186.848C66.758 186.848 66.486 186.792 66.23 186.68C65.974 186.568 65.75 186.416 65.558 186.224C65.366 186.024 65.214 185.792 65.102 185.528C64.99 185.256 64.934 184.964 64.934 184.652ZM73.1488 184.652C73.1488 184.356 73.2048 184.08 73.3168 183.824C73.4288 183.568 73.5808 183.344 73.7728 183.152C73.9648 182.96 74.1888 182.808 74.4448 182.696C74.7008 182.584 74.9728 182.528 75.2608 182.528C75.5728 182.528 75.8648 182.584 76.1368 182.696C76.4088 182.808 76.6408 182.96 76.8328 183.152C77.0328 183.344 77.1888 183.568 77.3008 183.824C77.4128 184.08 77.4688 184.356 77.4688 184.652C77.4688 184.964 77.4128 185.256 77.3008 185.528C77.1888 185.792 77.0328 186.024 76.8328 186.224C76.6408 186.416 76.4088 186.568 76.1368 186.68C75.8648 186.792 75.5728 186.848 75.2608 186.848C74.9728 186.848 74.7008 186.792 74.4448 186.68C74.1888 186.568 73.9648 186.416 73.7728 186.224C73.5808 186.024 73.4288 185.792 73.3168 185.528C73.2048 185.256 73.1488 184.964 73.1488 184.652ZM78.516 184.652C78.516 184.356 78.572 184.08 78.684 183.824C78.796 183.568 78.948 183.344 79.14 183.152C79.332 182.96 79.556 182.808 79.812 182.696C80.068 182.584 80.34 182.528 80.628 182.528C80.94 182.528 81.232 182.584 81.504 182.696C81.776 182.808 82.008 182.96 82.2 183.152C82.4 183.344 82.556 183.568 82.668 183.824C82.78 184.08 82.836 184.356 82.836 184.652C82.836 184.964 82.78 185.256 82.668 185.528C82.556 185.792 82.4 186.024 82.2 186.224C82.008 186.416 81.776 186.568 81.504 186.68C81.232 186.792 80.94 186.848 80.628 186.848C80.34 186.848 80.068 186.792 79.812 186.68C79.556 186.568 79.332 186.416 79.14 186.224C78.948 186.024 78.796 185.792 78.684 185.528C78.572 185.256 78.516 184.964 78.516 184.652ZM83.8832 184.652C83.8832 184.356 83.9392 184.08 84.0512 183.824C84.1632 183.568 84.3152 183.344 84.5072 183.152C84.6992 182.96 84.9232 182.808 85.1792 182.696C85.4352 182.584 85.7072 182.528 85.9952 182.528C86.3072 182.528 86.5992 182.584 86.8712 182.696C87.1432 182.808 87.3752 182.96 87.5672 183.152C87.7672 183.344 87.9232 183.568 88.0352 183.824C88.1472 184.08 88.2032 184.356 88.2032 184.652C88.2032 184.964 88.1472 185.256 88.0352 185.528C87.9232 185.792 87.7672 186.024 87.5672 186.224C87.3752 186.416 87.1432 186.568 86.8712 186.68C86.5992 186.792 86.3072 186.848 85.9952 186.848C85.7072 186.848 85.4352 186.792 85.1792 186.68C84.9232 186.568 84.6992 186.416 84.5072 186.224C84.3152 186.024 84.1632 185.792 84.0512 185.528C83.9392 185.256 83.8832 184.964 83.8832 184.652ZM89.2504 184.652C89.2504 184.356 89.3064 184.08 89.4184 183.824C89.5304 183.568 89.6824 183.344 89.8744 183.152C90.0664 182.96 90.2904 182.808 90.5464 182.696C90.8024 182.584 91.0744 182.528 91.3624 182.528C91.6744 182.528 91.9664 182.584 92.2384 182.696C92.5104 182.808 92.7424 182.96 92.9344 183.152C93.1344 183.344 93.2904 183.568 93.4024 183.824C93.5144 184.08 93.5704 184.356 93.5704 184.652C93.5704 184.964 93.5144 185.256 93.4024 185.528C93.2904 185.792 93.1344 186.024 92.9344 186.224C92.7424 186.416 92.5104 186.568 92.2384 186.68C91.9664 186.792 91.6744 186.848 91.3624 186.848C91.0744 186.848 90.8024 186.792 90.5464 186.68C90.2904 186.568 90.0664 186.416 89.8744 186.224C89.6824 186.024 89.5304 185.792 89.4184 185.528C89.3064 185.256 89.2504 184.964 89.2504 184.652ZM103.765 186.992V188H98.2692V186.992H100.597V181.316H98.2812V180.56C98.6172 180.552 98.9212 180.532 99.1932 180.5C99.4652 180.468 99.7092 180.412 99.9252 180.332C100.149 180.252 100.345 180.14 100.513 179.996C100.681 179.844 100.825 179.648 100.945 179.408H101.689V186.992H103.765ZM109.27 179.144C109.67 179.144 110.038 179.196 110.374 179.3C110.718 179.396 111.01 179.54 111.25 179.732C111.498 179.924 111.69 180.164 111.826 180.452C111.962 180.732 112.03 181.056 112.03 181.424C112.03 181.928 111.906 182.42 111.658 182.9C111.418 183.372 111.09 183.84 110.674 184.304C110.258 184.76 109.774 185.212 109.222 185.66C108.678 186.1 108.102 186.54 107.494 186.98H112.27V188H106.006V187.016C106.774 186.448 107.458 185.92 108.058 185.432C108.666 184.936 109.178 184.468 109.594 184.028C110.01 183.58 110.326 183.156 110.542 182.756C110.766 182.348 110.878 181.952 110.878 181.568C110.878 181.112 110.734 180.748 110.446 180.476C110.166 180.196 109.766 180.056 109.246 180.056C109.014 180.056 108.786 180.092 108.562 180.164C108.338 180.228 108.138 180.34 107.962 180.5C107.794 180.652 107.654 180.852 107.542 181.1C107.438 181.348 107.382 181.652 107.374 182.012H106.246C106.238 181.58 106.302 181.188 106.438 180.836C106.582 180.484 106.786 180.184 107.05 179.936C107.314 179.68 107.634 179.484 108.01 179.348C108.386 179.212 108.806 179.144 109.27 179.144ZM117.271 187.244C117.847 187.244 118.319 187.1 118.687 186.812C119.055 186.524 119.239 186.108 119.239 185.564C119.239 185.252 119.171 184.992 119.035 184.784C118.907 184.568 118.731 184.396 118.507 184.268C118.283 184.14 118.015 184.048 117.703 183.992C117.399 183.936 117.075 183.908 116.731 183.908H116.551V182.912H116.695C117.455 182.912 118.031 182.8 118.423 182.576C118.815 182.352 119.011 181.984 119.011 181.472C119.011 181.24 118.967 181.036 118.879 180.86C118.791 180.684 118.667 180.536 118.507 180.416C118.355 180.296 118.175 180.208 117.967 180.152C117.767 180.088 117.551 180.056 117.319 180.056C116.735 180.056 116.283 180.216 115.963 180.536C115.651 180.848 115.471 181.252 115.423 181.748L114.295 181.748C114.327 181.364 114.419 181.012 114.571 180.692C114.723 180.372 114.927 180.1 115.183 179.876C115.439 179.644 115.747 179.464 116.107 179.336C116.475 179.208 116.887 179.144 117.343 179.144C117.719 179.144 118.075 179.184 118.411 179.264C118.755 179.344 119.055 179.472 119.311 179.648C119.575 179.824 119.783 180.052 119.935 180.332C120.087 180.612 120.163 180.952 120.163 181.352C120.163 181.8 120.039 182.204 119.791 182.564C119.551 182.916 119.203 183.184 118.747 183.368C119.067 183.472 119.335 183.6 119.551 183.752C119.767 183.904 119.935 184.076 120.055 184.268C120.183 184.46 120.271 184.668 120.319 184.892C120.375 185.108 120.403 185.328 120.403 185.552C120.403 185.992 120.315 186.376 120.139 186.704C119.971 187.024 119.743 187.292 119.455 187.508C119.167 187.724 118.831 187.888 118.447 188C118.071 188.104 117.675 188.156 117.259 188.156C116.747 188.156 116.303 188.084 115.927 187.94C115.551 187.788 115.235 187.588 114.979 187.34C114.731 187.092 114.539 186.804 114.403 186.476C114.275 186.14 114.195 185.792 114.163 185.432H115.291C115.355 185.968 115.547 186.404 115.867 186.74C116.187 187.076 116.655 187.244 117.271 187.244ZM123.112 184.82H126.22V180.8L123.112 184.82ZM128.92 185.852H127.324V188H126.22V185.852H121.9V184.82L126.208 179.3H127.324V184.82H128.92V185.852Z" fill="white"></path><path d="M30.94 166.69C30.86 167.09 30.7233 167.443 30.53 167.75C30.3433 168.05 30.1133 168.303 29.84 168.51C29.5667 168.717 29.2567 168.873 28.91 168.98C28.5633 169.08 28.1933 169.13 27.8 169.13C27.28 169.13 26.8167 169.037 26.41 168.85C26.0033 168.663 25.6567 168.403 25.37 168.07C25.09 167.737 24.8767 167.34 24.73 166.88C24.5833 166.42 24.51 165.913 24.51 165.36C24.51 164.8 24.59 164.29 24.75 163.83C24.91 163.37 25.1367 162.977 25.43 162.65C25.7233 162.323 26.0767 162.07 26.49 161.89C26.9033 161.71 27.3667 161.62 27.88 161.62C28.2533 161.62 28.6067 161.677 28.94 161.79C29.2733 161.897 29.57 162.053 29.83 162.26C30.0967 162.467 30.32 162.723 30.5 163.03C30.6867 163.33 30.82 163.673 30.9 164.06H29.91C29.8567 163.833 29.77 163.623 29.65 163.43C29.5367 163.237 29.3933 163.07 29.22 162.93C29.0467 162.79 28.8433 162.68 28.61 162.6C28.3767 162.52 28.1167 162.48 27.83 162.48C27.51 162.48 27.21 162.543 26.93 162.67C26.6567 162.79 26.4167 162.973 26.21 163.22C26.0033 163.46 25.84 163.76 25.72 164.12C25.6067 164.48 25.55 164.893 25.55 165.36C25.55 165.82 25.6067 166.23 25.72 166.59C25.8333 166.95 25.9933 167.257 26.2 167.51C26.4067 167.757 26.65 167.947 26.93 168.08C27.21 168.207 27.52 168.27 27.86 168.27C28.44 168.27 28.9033 168.123 29.25 167.83C29.6033 167.537 29.8367 167.157 29.95 166.69H30.94ZM35.3759 166.41C34.9625 166.45 34.5892 166.5 34.2559 166.56C33.9225 166.613 33.6392 166.683 33.4059 166.77C33.1725 166.85 32.9925 166.957 32.8659 167.09C32.7392 167.217 32.6759 167.373 32.6759 167.56C32.6759 167.813 32.7659 168.02 32.9459 168.18C33.1325 168.333 33.3892 168.41 33.7159 168.41C33.9292 168.41 34.1359 168.383 34.3359 168.33C34.5359 168.27 34.7125 168.173 34.8659 168.04C35.0192 167.9 35.1425 167.713 35.2359 167.48C35.3292 167.247 35.3759 166.95 35.3759 166.59V166.41ZM33.5159 169.13C33.2625 169.13 33.0225 169.093 32.7959 169.02C32.5759 168.953 32.3792 168.857 32.2059 168.73C32.0392 168.597 31.9059 168.437 31.8059 168.25C31.7125 168.057 31.6659 167.84 31.6659 167.6C31.6659 167.28 31.7525 167.013 31.9259 166.8C32.0992 166.58 32.3425 166.4 32.6559 166.26C32.9759 166.113 33.3592 165.997 33.8059 165.91C34.2525 165.823 34.7525 165.75 35.3059 165.69V165.54C35.3059 165.287 35.2725 165.077 35.2059 164.91C35.1459 164.743 35.0592 164.613 34.9459 164.52C34.8325 164.42 34.6992 164.35 34.5459 164.31C34.3925 164.27 34.2292 164.25 34.0559 164.25C33.6359 164.25 33.3192 164.347 33.1059 164.54C32.8925 164.727 32.7759 164.987 32.7559 165.32H31.8159C31.8359 165.033 31.9125 164.777 32.0459 164.55C32.1792 164.323 32.3492 164.133 32.5559 163.98C32.7625 163.827 32.9959 163.71 33.2559 163.63C33.5159 163.55 33.7859 163.51 34.0659 163.51C34.8125 163.51 35.3592 163.683 35.7059 164.03C36.0525 164.377 36.2225 164.937 36.2159 165.71L36.2059 166.97C36.1992 167.423 36.2059 167.813 36.2259 168.14C36.2525 168.46 36.2925 168.747 36.3459 169H35.4259C35.4125 168.9 35.3992 168.783 35.3859 168.65C35.3725 168.517 35.3625 168.37 35.3559 168.21C35.1892 168.49 34.9592 168.713 34.6659 168.88C34.3792 169.047 33.9959 169.13 33.5159 169.13ZM40.2418 164.57C40.1485 164.557 40.0585 164.547 39.9718 164.54C39.8851 164.533 39.8051 164.53 39.7318 164.53C39.3118 164.53 38.9951 164.657 38.7818 164.91C38.5751 165.163 38.4718 165.587 38.4718 166.18V169H37.5618V163.62H38.4518V164.56C38.5851 164.253 38.7818 164.02 39.0418 163.86C39.3085 163.693 39.6185 163.603 39.9718 163.59C40.0185 163.59 40.0618 163.59 40.1018 163.59C40.1418 163.59 40.1885 163.593 40.2418 163.6V164.57ZM44.6788 161.75H45.5888V169H44.6788V168.19C44.5122 168.477 44.2855 168.707 43.9988 168.88C43.7122 169.047 43.3522 169.13 42.9188 169.13C42.5988 169.13 42.3022 169.07 42.0288 168.95C41.7555 168.823 41.5155 168.64 41.3088 168.4C41.1022 168.16 40.9388 167.867 40.8188 167.52C40.7055 167.173 40.6488 166.777 40.6488 166.33C40.6488 165.89 40.7055 165.497 40.8188 165.15C40.9388 164.803 41.1022 164.51 41.3088 164.27C41.5155 164.03 41.7555 163.847 42.0288 163.72C42.3022 163.593 42.5988 163.53 42.9188 163.53C43.3522 163.53 43.7122 163.617 43.9988 163.79C44.2855 163.957 44.5122 164.183 44.6788 164.47V161.75ZM44.7188 166.33C44.7188 165.977 44.6755 165.673 44.5888 165.42C44.5022 165.16 44.3855 164.95 44.2388 164.79C44.0922 164.623 43.9222 164.503 43.7288 164.43C43.5422 164.35 43.3488 164.31 43.1488 164.31C42.6622 164.31 42.2888 164.487 42.0288 164.84C41.7688 165.187 41.6388 165.683 41.6388 166.33C41.6388 166.977 41.7688 167.477 42.0288 167.83C42.2888 168.177 42.6622 168.35 43.1488 168.35C43.3488 168.35 43.5422 168.313 43.7288 168.24C43.9222 168.16 44.0922 168.04 44.2388 167.88C44.3855 167.713 44.5022 167.503 44.5888 167.25C44.6755 166.99 44.7188 166.683 44.7188 166.33ZM53.8777 169L50.5577 162.81V169H49.5377V161.75H51.0377L54.3477 167.92V161.75H55.3677V169H53.8777ZM60.2766 168.23C60.1232 168.483 59.9132 168.697 59.6466 168.87C59.3866 169.043 59.0332 169.13 58.5866 169.13C58.2732 169.13 58.0066 169.08 57.7866 168.98C57.5732 168.88 57.3966 168.74 57.2566 168.56C57.1232 168.373 57.0232 168.153 56.9566 167.9C56.8966 167.647 56.8666 167.367 56.8666 167.06V163.62H57.7766V166.79C57.7766 166.997 57.7866 167.193 57.8066 167.38C57.8332 167.567 57.8866 167.733 57.9666 167.88C58.0466 168.02 58.1599 168.133 58.3066 168.22C58.4599 168.3 58.6599 168.34 58.9066 168.34C59.3399 168.34 59.6766 168.193 59.9166 167.9C60.1566 167.6 60.2766 167.16 60.2766 166.58V163.62H61.1866V169H60.2766V168.23ZM63.5402 169H62.6302V163.62H63.5402V164.43C63.6935 164.177 63.9002 163.963 64.1602 163.79C64.4202 163.617 64.7535 163.53 65.1602 163.53C65.5735 163.53 65.9035 163.613 66.1502 163.78C66.4035 163.947 66.5902 164.18 66.7102 164.48C66.9235 164.147 67.1835 163.907 67.4902 163.76C67.7968 163.607 68.1402 163.53 68.5202 163.53C68.8335 163.53 69.1002 163.58 69.3202 163.68C69.5402 163.78 69.7202 163.923 69.8602 164.11C70.0002 164.29 70.1002 164.507 70.1602 164.76C70.2268 165.013 70.2602 165.293 70.2602 165.6V169H69.3502V165.87C69.3502 165.663 69.3368 165.467 69.3102 165.28C69.2835 165.093 69.2268 164.93 69.1402 164.79C69.0602 164.643 68.9435 164.53 68.7902 164.45C68.6435 164.363 68.4468 164.32 68.2002 164.32C67.8068 164.32 67.4902 164.47 67.2502 164.77C67.0168 165.063 66.9002 165.5 66.9002 166.08V169H65.9902V165.87C65.9902 165.663 65.9768 165.467 65.9502 165.28C65.9235 165.093 65.8668 164.93 65.7802 164.79C65.7002 164.643 65.5835 164.53 65.4302 164.45C65.2835 164.363 65.0868 164.32 64.8402 164.32C64.4468 164.32 64.1302 164.47 63.8902 164.77C63.6568 165.063 63.5402 165.5 63.5402 166.08V169ZM72.4943 166.33C72.4943 166.683 72.5376 166.99 72.6243 167.25C72.711 167.503 72.8276 167.713 72.9743 167.88C73.121 168.04 73.2876 168.16 73.4743 168.24C73.6676 168.313 73.8643 168.35 74.0643 168.35C74.551 168.35 74.9243 168.177 75.1843 167.83C75.4443 167.477 75.5743 166.977 75.5743 166.33C75.5743 165.683 75.4443 165.187 75.1843 164.84C74.9243 164.487 74.551 164.31 74.0643 164.31C73.8643 164.31 73.6676 164.35 73.4743 164.43C73.2876 164.503 73.121 164.623 72.9743 164.79C72.8276 164.95 72.711 165.16 72.6243 165.42C72.5376 165.673 72.4943 165.977 72.4943 166.33ZM72.5343 161.75V164.47C72.701 164.183 72.9276 163.957 73.2143 163.79C73.501 163.617 73.861 163.53 74.2943 163.53C74.6143 163.53 74.911 163.593 75.1843 163.72C75.4576 163.847 75.6976 164.03 75.9043 164.27C76.111 164.51 76.271 164.803 76.3843 165.15C76.5043 165.497 76.5643 165.89 76.5643 166.33C76.5643 166.777 76.5043 167.173 76.3843 167.52C76.271 167.867 76.111 168.16 75.9043 168.4C75.6976 168.64 75.4576 168.823 75.1843 168.95C74.911 169.07 74.6143 169.13 74.2943 169.13C73.861 169.13 73.501 169.047 73.2143 168.88C72.9276 168.707 72.701 168.477 72.5343 168.19V169H71.6243V161.75H72.5343ZM79.9483 169.13C79.5149 169.13 79.1349 169.06 78.8083 168.92C78.4883 168.773 78.2183 168.573 77.9983 168.32C77.7783 168.067 77.6116 167.77 77.4983 167.43C77.3916 167.09 77.3383 166.72 77.3383 166.32C77.3383 165.893 77.4016 165.51 77.5283 165.17C77.6616 164.823 77.8416 164.53 78.0683 164.29C78.3016 164.043 78.5749 163.857 78.8883 163.73C79.2016 163.597 79.5449 163.53 79.9183 163.53C80.3316 163.53 80.6983 163.61 81.0183 163.77C81.3449 163.93 81.6149 164.15 81.8283 164.43C82.0416 164.71 82.1949 165.037 82.2883 165.41C82.3883 165.783 82.4249 166.183 82.3983 166.61H78.3283C78.3283 166.877 78.3683 167.117 78.4483 167.33C78.5349 167.543 78.6516 167.723 78.7983 167.87C78.9449 168.017 79.1149 168.13 79.3083 168.21C79.5016 168.29 79.7083 168.33 79.9283 168.33C80.3483 168.33 80.6683 168.25 80.8883 168.09C81.1083 167.923 81.2749 167.707 81.3883 167.44H82.3283C82.2683 167.673 82.1716 167.893 82.0383 168.1C81.9049 168.3 81.7383 168.477 81.5383 168.63C81.3449 168.783 81.1149 168.907 80.8483 169C80.5816 169.087 80.2816 169.13 79.9483 169.13ZM79.9183 164.31C79.4583 164.31 79.0849 164.443 78.7983 164.71C78.5116 164.97 78.3583 165.343 78.3383 165.83H81.4383C81.4316 165.643 81.3949 165.46 81.3283 165.28C81.2616 165.093 81.1649 164.93 81.0383 164.79C80.9116 164.643 80.7549 164.527 80.5683 164.44C80.3816 164.353 80.1649 164.31 79.9183 164.31ZM86.15 164.57C86.0567 164.557 85.9667 164.547 85.88 164.54C85.7933 164.533 85.7133 164.53 85.64 164.53C85.22 164.53 84.9033 164.657 84.69 164.91C84.4833 165.163 84.38 165.587 84.38 166.18V169H83.47V163.62H84.36V164.56C84.4933 164.253 84.69 164.02 84.95 163.86C85.2167 163.693 85.5267 163.603 85.88 163.59C85.9267 163.59 85.97 163.59 86.01 163.59C86.05 163.59 86.0967 163.593 86.15 163.6V164.57Z" fill="white" fill-opacity="0.5"></path><path d="M204.94 166.69C204.86 167.09 204.723 167.443 204.53 167.75C204.343 168.05 204.113 168.303 203.84 168.51C203.567 168.717 203.257 168.873 202.91 168.98C202.563 169.08 202.193 169.13 201.8 169.13C201.28 169.13 200.817 169.037 200.41 168.85C200.003 168.663 199.657 168.403 199.37 168.07C199.09 167.737 198.877 167.34 198.73 166.88C198.583 166.42 198.51 165.913 198.51 165.36C198.51 164.8 198.59 164.29 198.75 163.83C198.91 163.37 199.137 162.977 199.43 162.65C199.723 162.323 200.077 162.07 200.49 161.89C200.903 161.71 201.367 161.62 201.88 161.62C202.253 161.62 202.607 161.677 202.94 161.79C203.273 161.897 203.57 162.053 203.83 162.26C204.097 162.467 204.32 162.723 204.5 163.03C204.687 163.33 204.82 163.673 204.9 164.06H203.91C203.857 163.833 203.77 163.623 203.65 163.43C203.537 163.237 203.393 163.07 203.22 162.93C203.047 162.79 202.843 162.68 202.61 162.6C202.377 162.52 202.117 162.48 201.83 162.48C201.51 162.48 201.21 162.543 200.93 162.67C200.657 162.79 200.417 162.973 200.21 163.22C200.003 163.46 199.84 163.76 199.72 164.12C199.607 164.48 199.55 164.893 199.55 165.36C199.55 165.82 199.607 166.23 199.72 166.59C199.833 166.95 199.993 167.257 200.2 167.51C200.407 167.757 200.65 167.947 200.93 168.08C201.21 168.207 201.52 168.27 201.86 168.27C202.44 168.27 202.903 168.123 203.25 167.83C203.603 167.537 203.837 167.157 203.95 166.69H204.94ZM206.388 161.75L208.398 167.95L210.368 161.75H211.438L208.978 169H207.758L205.268 161.75H206.388ZM218.241 166.69C218.161 167.09 218.024 167.443 217.831 167.75C217.644 168.05 217.414 168.303 217.141 168.51C216.867 168.717 216.557 168.873 216.211 168.98C215.864 169.08 215.494 169.13 215.101 169.13C214.581 169.13 214.117 169.037 213.711 168.85C213.304 168.663 212.957 168.403 212.671 168.07C212.391 167.737 212.177 167.34 212.031 166.88C211.884 166.42 211.811 165.913 211.811 165.36C211.811 164.8 211.891 164.29 212.051 163.83C212.211 163.37 212.437 162.977 212.731 162.65C213.024 162.323 213.377 162.07 213.791 161.89C214.204 161.71 214.667 161.62 215.181 161.62C215.554 161.62 215.907 161.677 216.241 161.79C216.574 161.897 216.871 162.053 217.131 162.26C217.397 162.467 217.621 162.723 217.801 163.03C217.987 163.33 218.121 163.673 218.201 164.06H217.211C217.157 163.833 217.071 163.623 216.951 163.43C216.837 163.237 216.694 163.07 216.521 162.93C216.347 162.79 216.144 162.68 215.911 162.6C215.677 162.52 215.417 162.48 215.131 162.48C214.811 162.48 214.511 162.543 214.231 162.67C213.957 162.79 213.717 162.973 213.511 163.22C213.304 163.46 213.141 163.76 213.021 164.12C212.907 164.48 212.851 164.893 212.851 165.36C212.851 165.82 212.907 166.23 213.021 166.59C213.134 166.95 213.294 167.257 213.501 167.51C213.707 167.757 213.951 167.947 214.231 168.08C214.511 168.207 214.821 168.27 215.161 168.27C215.741 168.27 216.204 168.123 216.551 167.83C216.904 167.537 217.137 167.157 217.251 166.69H218.241Z" fill="white" fill-opacity="0.5"></path><path d="M277.86 161.75H282.78V162.63H278.88V164.83H282.55V165.71H278.88V168.12H282.78V169H277.86V161.75ZM286.243 166.19L288.253 169H287.163L285.703 166.95L284.253 169H283.213L285.193 166.23L283.333 163.62H284.423L285.733 165.47L287.053 163.62H288.073L286.243 166.19ZM289.958 163.62V164.47C290.125 164.183 290.351 163.957 290.638 163.79C290.925 163.617 291.285 163.53 291.718 163.53C292.038 163.53 292.335 163.593 292.608 163.72C292.881 163.847 293.121 164.03 293.328 164.27C293.535 164.51 293.695 164.803 293.808 165.15C293.928 165.497 293.988 165.89 293.988 166.33C293.988 166.777 293.928 167.173 293.808 167.52C293.695 167.867 293.535 168.16 293.328 168.4C293.121 168.64 292.881 168.823 292.608 168.95C292.335 169.07 292.038 169.13 291.718 169.13C291.285 169.13 290.925 169.047 290.638 168.88C290.351 168.707 290.125 168.477 289.958 168.19V170.75H289.048V163.62H289.958ZM289.918 166.33C289.918 166.683 289.961 166.99 290.048 167.25C290.135 167.503 290.251 167.713 290.398 167.88C290.545 168.04 290.711 168.16 290.898 168.24C291.091 168.313 291.288 168.35 291.488 168.35C291.975 168.35 292.348 168.177 292.608 167.83C292.868 167.477 292.998 166.977 292.998 166.33C292.998 165.683 292.868 165.187 292.608 164.84C292.348 164.487 291.975 164.31 291.488 164.31C291.288 164.31 291.091 164.35 290.898 164.43C290.711 164.503 290.545 164.623 290.398 164.79C290.251 164.95 290.135 165.16 290.048 165.42C289.961 165.673 289.918 165.977 289.918 166.33ZM295.964 163.62V169H295.054V163.62H295.964ZM295.964 161.75V162.85H295.054V161.75H295.964ZM300.088 164.57C299.994 164.557 299.904 164.547 299.818 164.54C299.731 164.533 299.651 164.53 299.578 164.53C299.158 164.53 298.841 164.657 298.628 164.91C298.421 165.163 298.318 165.587 298.318 166.18V169H297.408V163.62H298.298V164.56C298.431 164.253 298.628 164.02 298.888 163.86C299.154 163.693 299.464 163.603 299.818 163.59C299.864 163.59 299.908 163.59 299.948 163.59C299.988 163.59 300.034 163.593 300.088 163.6V164.57ZM303.105 169.13C302.671 169.13 302.291 169.06 301.965 168.92C301.645 168.773 301.375 168.573 301.155 168.32C300.935 168.067 300.768 167.77 300.655 167.43C300.548 167.09 300.495 166.72 300.495 166.32C300.495 165.893 300.558 165.51 300.685 165.17C300.818 164.823 300.998 164.53 301.225 164.29C301.458 164.043 301.731 163.857 302.045 163.73C302.358 163.597 302.701 163.53 303.075 163.53C303.488 163.53 303.855 163.61 304.175 163.77C304.501 163.93 304.771 164.15 304.985 164.43C305.198 164.71 305.351 165.037 305.445 165.41C305.545 165.783 305.581 166.183 305.555 166.61H301.485C301.485 166.877 301.525 167.117 301.605 167.33C301.691 167.543 301.808 167.723 301.955 167.87C302.101 168.017 302.271 168.13 302.465 168.21C302.658 168.29 302.865 168.33 303.085 168.33C303.505 168.33 303.825 168.25 304.045 168.09C304.265 167.923 304.431 167.707 304.545 167.44H305.485C305.425 167.673 305.328 167.893 305.195 168.1C305.061 168.3 304.895 168.477 304.695 168.63C304.501 168.783 304.271 168.907 304.005 169C303.738 169.087 303.438 169.13 303.105 169.13ZM303.075 164.31C302.615 164.31 302.241 164.443 301.955 164.71C301.668 164.97 301.515 165.343 301.495 165.83H304.595C304.588 165.643 304.551 165.46 304.485 165.28C304.418 165.093 304.321 164.93 304.195 164.79C304.068 164.643 303.911 164.527 303.725 164.44C303.538 164.353 303.321 164.31 303.075 164.31ZM309.766 165.19C309.692 164.87 309.539 164.643 309.306 164.51C309.079 164.37 308.796 164.3 308.456 164.3C308.316 164.3 308.176 164.313 308.036 164.34C307.896 164.36 307.769 164.4 307.656 164.46C307.549 164.513 307.459 164.583 307.386 164.67C307.319 164.757 307.286 164.86 307.286 164.98C307.286 165.193 307.359 165.353 307.506 165.46C307.652 165.567 307.866 165.65 308.146 165.71L308.906 165.86C309.159 165.913 309.399 165.977 309.626 166.05C309.859 166.123 310.059 166.223 310.226 166.35C310.399 166.47 310.536 166.62 310.636 166.8C310.736 166.98 310.786 167.2 310.786 167.46C310.786 167.727 310.729 167.963 310.616 168.17C310.502 168.377 310.346 168.553 310.146 168.7C309.946 168.84 309.709 168.947 309.436 169.02C309.169 169.093 308.876 169.13 308.556 169.13C308.196 169.13 307.872 169.077 307.586 168.97C307.306 168.863 307.066 168.723 306.866 168.55C306.672 168.377 306.519 168.177 306.406 167.95C306.299 167.723 306.232 167.493 306.206 167.26H307.166C307.239 167.607 307.386 167.877 307.606 168.07C307.832 168.263 308.156 168.36 308.576 168.36C308.942 168.36 309.249 168.29 309.496 168.15C309.742 168.01 309.866 167.813 309.866 167.56C309.866 167.427 309.836 167.31 309.776 167.21C309.716 167.11 309.632 167.027 309.526 166.96C309.426 166.887 309.306 166.83 309.166 166.79C309.032 166.743 308.889 166.703 308.736 166.67L307.936 166.51C307.742 166.47 307.552 166.417 307.366 166.35C307.179 166.283 307.009 166.193 306.856 166.08C306.709 165.967 306.589 165.827 306.496 165.66C306.409 165.487 306.366 165.273 306.366 165.02C306.366 164.78 306.422 164.57 306.536 164.39C306.649 164.203 306.802 164.047 306.996 163.92C307.196 163.787 307.429 163.687 307.696 163.62C307.962 163.553 308.249 163.52 308.556 163.52C309.162 163.52 309.652 163.67 310.026 163.97C310.399 164.27 310.629 164.677 310.716 165.19H309.766Z" fill="white" fill-opacity="0.5"></path><path d="M204.816 186.992V188H199.32V186.992H201.648V181.316H199.332V180.56C199.668 180.552 199.972 180.532 200.244 180.5C200.516 180.468 200.76 180.412 200.976 180.332C201.2 180.252 201.396 180.14 201.564 179.996C201.732 179.844 201.876 179.648 201.996 179.408H202.74V186.992H204.816ZM210.321 179.144C210.721 179.144 211.089 179.196 211.425 179.3C211.769 179.396 212.061 179.54 212.301 179.732C212.549 179.924 212.741 180.164 212.877 180.452C213.013 180.732 213.081 181.056 213.081 181.424C213.081 181.928 212.957 182.42 212.709 182.9C212.469 183.372 212.141 183.84 211.725 184.304C211.309 184.76 210.825 185.212 210.273 185.66C209.729 186.1 209.153 186.54 208.545 186.98H213.321V188H207.057V187.016C207.825 186.448 208.509 185.92 209.109 185.432C209.717 184.936 210.229 184.468 210.645 184.028C211.061 183.58 211.377 183.156 211.593 182.756C211.817 182.348 211.929 181.952 211.929 181.568C211.929 181.112 211.785 180.748 211.497 180.476C211.217 180.196 210.817 180.056 210.297 180.056C210.065 180.056 209.837 180.092 209.613 180.164C209.389 180.228 209.189 180.34 209.013 180.5C208.845 180.652 208.705 180.852 208.593 181.1C208.489 181.348 208.433 181.652 208.425 182.012H207.297C207.289 181.58 207.353 181.188 207.489 180.836C207.633 180.484 207.837 180.184 208.101 179.936C208.365 179.68 208.685 179.484 209.061 179.348C209.437 179.212 209.857 179.144 210.321 179.144ZM218.322 187.244C218.898 187.244 219.37 187.1 219.738 186.812C220.106 186.524 220.29 186.108 220.29 185.564C220.29 185.252 220.222 184.992 220.086 184.784C219.958 184.568 219.782 184.396 219.558 184.268C219.334 184.14 219.066 184.048 218.754 183.992C218.45 183.936 218.126 183.908 217.782 183.908H217.602V182.912H217.746C218.506 182.912 219.082 182.8 219.474 182.576C219.866 182.352 220.062 181.984 220.062 181.472C220.062 181.24 220.018 181.036 219.93 180.86C219.842 180.684 219.718 180.536 219.558 180.416C219.406 180.296 219.226 180.208 219.018 180.152C218.818 180.088 218.602 180.056 218.37 180.056C217.786 180.056 217.334 180.216 217.014 180.536C216.702 180.848 216.522 181.252 216.474 181.748H215.346C215.378 181.364 215.47 181.012 215.622 180.692C215.774 180.372 215.978 180.1 216.234 179.876C216.49 179.644 216.798 179.464 217.158 179.336C217.526 179.208 217.938 179.144 218.394 179.144C218.77 179.144 219.126 179.184 219.462 179.264C219.806 179.344 220.106 179.472 220.362 179.648C220.626 179.824 220.834 180.052 220.986 180.332C221.138 180.612 221.214 180.952 221.214 181.352C221.214 181.8 221.09 182.204 220.842 182.564C220.602 182.916 220.254 183.184 219.798 183.368C220.118 183.472 220.386 183.6 220.602 183.752C220.818 183.904 220.986 184.076 221.106 184.268C221.234 184.46 221.322 184.668 221.37 184.892C221.426 185.108 221.454 185.328 221.454 185.552C221.454 185.992 221.366 186.376 221.19 186.704C221.022 187.024 220.794 187.292 220.506 187.508C220.218 187.724 219.882 187.888 219.498 188C219.122 188.104 218.726 188.156 218.31 188.156C217.798 188.156 217.354 188.084 216.978 187.94C216.602 187.788 216.286 187.588 216.03 187.34C215.782 187.092 215.59 186.804 215.454 186.476C215.326 186.14 215.246 185.792 215.214 185.432H216.342C216.406 185.968 216.598 186.404 216.918 186.74C217.238 187.076 217.706 187.244 218.322 187.244Z" fill="white"></path><path d="M283.276 183.644C283.276 182.436 283.076 181.536 282.676 180.944C282.276 180.352 281.736 180.056 281.056 180.056C280.368 180.056 279.824 180.352 279.424 180.944C279.032 181.536 278.836 182.436 278.836 183.644C278.836 184.86 279.032 185.764 279.424 186.356C279.824 186.948 280.368 187.244 281.056 187.244C281.744 187.244 282.284 186.948 282.676 186.356C283.076 185.764 283.276 184.86 283.276 183.644ZM284.44 183.644C284.44 184.332 284.372 184.956 284.236 185.516C284.1 186.068 283.892 186.54 283.612 186.932C283.34 187.324 282.988 187.628 282.556 187.844C282.132 188.052 281.632 188.156 281.056 188.156C280.48 188.156 279.976 188.052 279.544 187.844C279.12 187.628 278.768 187.324 278.488 186.932C278.216 186.54 278.012 186.068 277.876 185.516C277.74 184.956 277.672 184.332 277.672 183.644C277.672 182.956 277.74 182.336 277.876 181.784C278.012 181.224 278.216 180.752 278.488 180.368C278.768 179.976 279.12 179.676 279.544 179.468C279.976 179.252 280.48 179.144 281.056 179.144C281.632 179.144 282.132 179.252 282.556 179.468C282.988 179.676 283.34 179.976 283.612 180.368C283.892 180.752 284.1 181.224 284.236 181.784C284.372 182.336 284.44 182.956 284.44 183.644ZM291.949 186.992V188H286.453V186.992H288.781V181.316H286.465V180.56C286.801 180.552 287.105 180.532 287.377 180.5C287.649 180.468 287.893 180.412 288.109 180.332C288.333 180.252 288.529 180.14 288.697 179.996C288.865 179.844 289.009 179.648 289.129 179.408H289.873V186.992H291.949ZM293.266 188L296.686 179.3H297.79L294.358 188H293.266ZM301.977 179.144C302.377 179.144 302.745 179.196 303.081 179.3C303.425 179.396 303.717 179.54 303.957 179.732C304.205 179.924 304.397 180.164 304.533 180.452C304.669 180.732 304.737 181.056 304.737 181.424C304.737 181.928 304.613 182.42 304.365 182.9C304.125 183.372 303.797 183.84 303.381 184.304C302.965 184.76 302.481 185.212 301.929 185.66C301.385 186.1 300.809 186.54 300.201 186.98H304.977V188H298.713V187.016C299.481 186.448 300.165 185.92 300.765 185.432C301.373 184.936 301.885 184.468 302.301 184.028C302.717 183.58 303.033 183.156 303.249 182.756C303.473 182.348 303.585 181.952 303.585 181.568C303.585 181.112 303.441 180.748 303.153 180.476C302.873 180.196 302.473 180.056 301.953 180.056C301.721 180.056 301.493 180.092 301.269 180.164C301.045 180.228 300.845 180.34 300.669 180.5C300.501 180.652 300.361 180.852 300.249 181.1C300.145 181.348 300.089 181.652 300.081 182.012H298.953C298.945 181.58 299.009 181.188 299.145 180.836C299.289 180.484 299.493 180.184 299.757 179.936C300.021 179.68 300.341 179.484 300.717 179.348C301.093 179.212 301.513 179.144 301.977 179.144ZM309.978 187.244C310.242 187.244 310.49 187.2 310.722 187.112C310.954 187.016 311.158 186.88 311.334 186.704C311.518 186.52 311.662 186.3 311.766 186.044C311.87 185.78 311.922 185.48 311.922 185.144C311.922 184.784 311.862 184.476 311.742 184.22C311.63 183.956 311.482 183.74 311.298 183.572C311.114 183.404 310.906 183.28 310.674 183.2C310.442 183.12 310.206 183.08 309.966 183.08C309.742 183.08 309.538 183.112 309.354 183.176C309.17 183.232 309.006 183.308 308.862 183.404C308.718 183.492 308.598 183.596 308.502 183.716C308.406 183.828 308.334 183.936 308.286 184.04L307.194 183.98L307.758 179.3H312.75V180.32H308.646L308.346 182.792C308.578 182.568 308.858 182.404 309.186 182.3C309.514 182.188 309.858 182.132 310.218 182.132C310.602 182.132 310.966 182.2 311.31 182.336C311.654 182.464 311.954 182.656 312.21 182.912C312.474 183.168 312.682 183.484 312.834 183.86C312.994 184.228 313.074 184.652 313.074 185.132C313.074 185.628 312.986 186.068 312.81 186.452C312.642 186.828 312.414 187.144 312.126 187.4C311.846 187.648 311.518 187.836 311.142 187.964C310.774 188.092 310.386 188.156 309.978 188.156C309.474 188.156 309.038 188.084 308.67 187.94C308.302 187.788 307.99 187.592 307.734 187.352C307.486 187.104 307.29 186.82 307.146 186.5C307.01 186.172 306.922 185.832 306.882 185.48H308.01C308.098 186.032 308.294 186.464 308.598 186.776C308.91 187.088 309.37 187.244 309.978 187.244Z" fill="white"></path></svg>