<svg xmlns="http://www.w3.org/2000/svg" width="345" height="296" viewBox="0 0 345 296" fill="none"><g clip-path="url(#clip0_10614_28031)"><rect width="345" height="72" fill="#240F16"></rect><path d="M33.716 37.766C33.604 38.326 33.4127 38.8207 33.142 39.25C32.8807 39.67 32.5587 40.0247 32.176 40.314C31.7933 40.6033 31.3593 40.8227 30.874 40.972C30.3887 41.112 29.8707 41.182 29.32 41.182C28.592 41.182 27.9433 41.0513 27.374 40.79C26.8047 40.5287 26.3193 40.1647 25.918 39.698C25.526 39.2313 25.2273 38.676 25.022 38.032C24.8167 37.388 24.714 36.6787 24.714 35.904C24.714 35.12 24.826 34.406 25.05 33.762C25.274 33.118 25.5913 32.5673 26.002 32.11C26.4127 31.6527 26.9073 31.298 27.486 31.046C28.0647 30.794 28.7133 30.668 29.432 30.668C29.9547 30.668 30.4493 30.7473 30.916 30.906C31.3827 31.0553 31.798 31.2747 32.162 31.564C32.5353 31.8533 32.848 32.2127 33.1 32.642C33.3613 33.062 33.548 33.5427 33.66 34.084H32.274C32.1993 33.7667 32.078 33.4727 31.91 33.202C31.7513 32.9313 31.5507 32.698 31.308 32.502C31.0653 32.306 30.7807 32.152 30.454 32.04C30.1273 31.928 29.7633 31.872 29.362 31.872C28.914 31.872 28.494 31.9607 28.102 32.138C27.7193 32.306 27.3833 32.5627 27.094 32.908C26.8047 33.244 26.576 33.664 26.408 34.168C26.2493 34.672 26.17 35.2507 26.17 35.904C26.17 36.548 26.2493 37.122 26.408 37.626C26.5667 38.13 26.7907 38.5593 27.08 38.914C27.3693 39.2593 27.71 39.5253 28.102 39.712C28.494 39.8893 28.928 39.978 29.404 39.978C30.216 39.978 30.8647 39.7727 31.35 39.362C31.8447 38.9513 32.1713 38.4193 32.33 37.766H33.716ZM39.9262 37.374C39.3475 37.43 38.8249 37.5 38.3582 37.584C37.8915 37.6587 37.4949 37.7567 37.1682 37.878C36.8415 37.99 36.5895 38.1393 36.4122 38.326C36.2349 38.5033 36.1462 38.7227 36.1462 38.984C36.1462 39.3387 36.2722 39.628 36.5242 39.852C36.7855 40.0667 37.1449 40.174 37.6022 40.174C37.9009 40.174 38.1902 40.1367 38.4702 40.062C38.7502 39.978 38.9975 39.8427 39.2122 39.656C39.4269 39.46 39.5995 39.1987 39.7302 38.872C39.8609 38.5453 39.9262 38.13 39.9262 37.626V37.374ZM37.3222 41.182C36.9675 41.182 36.6315 41.1307 36.3142 41.028C36.0062 40.9347 35.7309 40.7993 35.4882 40.622C35.2549 40.4353 35.0682 40.2113 34.9282 39.95C34.7975 39.6793 34.7322 39.376 34.7322 39.04C34.7322 38.592 34.8535 38.2187 35.0962 37.92C35.3389 37.612 35.6795 37.36 36.1182 37.164C36.5662 36.9587 37.1029 36.7953 37.7282 36.674C38.3535 36.5527 39.0535 36.45 39.8282 36.366V36.156C39.8282 35.8013 39.7815 35.5073 39.6882 35.274C39.6042 35.0407 39.4829 34.8587 39.3242 34.728C39.1655 34.588 38.9789 34.49 38.7642 34.434C38.5495 34.378 38.3209 34.35 38.0782 34.35C37.4902 34.35 37.0469 34.4853 36.7482 34.756C36.4495 35.0173 36.2862 35.3813 36.2582 35.848H34.9422C34.9702 35.4467 35.0775 35.0873 35.2642 34.77C35.4509 34.4527 35.6889 34.1867 35.9782 33.972C36.2675 33.7573 36.5942 33.594 36.9582 33.482C37.3222 33.37 37.7002 33.314 38.0922 33.314C39.1375 33.314 39.9029 33.5567 40.3882 34.042C40.8735 34.5273 41.1115 35.3113 41.1022 36.394L41.0882 38.158C41.0789 38.7927 41.0882 39.3387 41.1162 39.796C41.1535 40.244 41.2095 40.6453 41.2842 41H39.9962C39.9775 40.86 39.9589 40.6967 39.9402 40.51C39.9215 40.3233 39.9075 40.118 39.8982 39.894C39.6649 40.286 39.3429 40.5987 38.9322 40.832C38.5309 41.0653 37.9942 41.182 37.3222 41.182ZM44.2605 33.468V34.658C44.4938 34.2567 44.8112 33.9393 45.2125 33.706C45.6138 33.4633 46.1178 33.342 46.7245 33.342C47.1725 33.342 47.5878 33.4307 47.9705 33.608C48.3532 33.7853 48.6892 34.042 48.9785 34.378C49.2678 34.714 49.4918 35.1247 49.6505 35.61C49.8185 36.0953 49.9025 36.646 49.9025 37.262C49.9025 37.8873 49.8185 38.4427 49.6505 38.928C49.4918 39.4133 49.2678 39.824 48.9785 40.16C48.6892 40.496 48.3532 40.7527 47.9705 40.93C47.5878 41.098 47.1725 41.182 46.7245 41.182C46.1178 41.182 45.6138 41.0653 45.2125 40.832C44.8112 40.5893 44.4938 40.2673 44.2605 39.866V43.45H42.9865V33.468H44.2605ZM44.2045 37.262C44.2045 37.7567 44.2652 38.186 44.3865 38.55C44.5078 38.9047 44.6712 39.1987 44.8765 39.432C45.0818 39.656 45.3152 39.824 45.5765 39.936C45.8472 40.0387 46.1225 40.09 46.4025 40.09C47.0838 40.09 47.6065 39.8473 47.9705 39.362C48.3345 38.8673 48.5165 38.1673 48.5165 37.262C48.5165 36.3567 48.3345 35.6613 47.9705 35.176C47.6065 34.6813 47.0838 34.434 46.4025 34.434C46.1225 34.434 45.8472 34.49 45.5765 34.602C45.3152 34.7047 45.0818 34.8727 44.8765 35.106C44.6712 35.33 44.5078 35.624 44.3865 35.988C44.2652 36.3427 44.2045 36.7673 44.2045 37.262ZM52.6687 33.468V41H51.3947V33.468H52.6687ZM52.6687 30.85V32.39H51.3947V30.85H52.6687ZM55.0536 31.578H56.3276V33.468H57.7556V34.49H56.3276V38.956C56.3276 39.152 56.3323 39.3153 56.3416 39.446C56.3603 39.5673 56.393 39.6653 56.4396 39.74C56.4956 39.8147 56.575 39.866 56.6776 39.894C56.7803 39.922 56.925 39.936 57.1116 39.936H57.7556V41H56.8316C56.4676 41 56.169 40.9767 55.9356 40.93C55.7116 40.874 55.5343 40.7807 55.4036 40.65C55.273 40.51 55.1796 40.3187 55.1236 40.076C55.077 39.824 55.0536 39.502 55.0536 39.11V34.49H53.8636V33.468H55.0536V31.578ZM64.0024 37.374C63.4237 37.43 62.901 37.5 62.4344 37.584C61.9677 37.6587 61.571 37.7567 61.2444 37.878C60.9177 37.99 60.6657 38.1393 60.4884 38.326C60.311 38.5033 60.2224 38.7227 60.2224 38.984C60.2224 39.3387 60.3484 39.628 60.6004 39.852C60.8617 40.0667 61.221 40.174 61.6784 40.174C61.977 40.174 62.2664 40.1367 62.5464 40.062C62.8264 39.978 63.0737 39.8427 63.2884 39.656C63.503 39.46 63.6757 39.1987 63.8064 38.872C63.937 38.5453 64.0024 38.13 64.0024 37.626V37.374ZM61.3984 41.182C61.0437 41.182 60.7077 41.1307 60.3904 41.028C60.0824 40.9347 59.807 40.7993 59.5644 40.622C59.331 40.4353 59.1444 40.2113 59.0044 39.95C58.8737 39.6793 58.8084 39.376 58.8084 39.04C58.8084 38.592 58.9297 38.2187 59.1724 37.92C59.415 37.612 59.7557 37.36 60.1944 37.164C60.6424 36.9587 61.179 36.7953 61.8044 36.674C62.4297 36.5527 63.1297 36.45 63.9044 36.366V36.156C63.9044 35.8013 63.8577 35.5073 63.7644 35.274C63.6804 35.0407 63.559 34.8587 63.4004 34.728C63.2417 34.588 63.055 34.49 62.8404 34.434C62.6257 34.378 62.397 34.35 62.1544 34.35C61.5664 34.35 61.123 34.4853 60.8244 34.756C60.5257 35.0173 60.3624 35.3813 60.3344 35.848H59.0184C59.0464 35.4467 59.1537 35.0873 59.3404 34.77C59.527 34.4527 59.765 34.1867 60.0544 33.972C60.3437 33.7573 60.6704 33.594 61.0344 33.482C61.3984 33.37 61.7764 33.314 62.1684 33.314C63.2137 33.314 63.979 33.5567 64.4644 34.042C64.9497 34.5273 65.1877 35.3113 65.1784 36.394L65.1644 38.158C65.155 38.7927 65.1644 39.3387 65.1924 39.796C65.2297 40.244 65.2857 40.6453 65.3604 41H64.0724C64.0537 40.86 64.035 40.6967 64.0164 40.51C63.9977 40.3233 63.9837 40.118 63.9744 39.894C63.741 40.286 63.419 40.5987 63.0084 40.832C62.607 41.0653 62.0704 41.182 61.3984 41.182ZM68.3367 41H67.0627V30.85H68.3367V41ZM74.8419 35.918C74.8419 36.5713 74.9259 37.15 75.0939 37.654C75.2712 38.158 75.5045 38.5827 75.7939 38.928C76.0925 39.2733 76.4425 39.5347 76.8439 39.712C77.2452 39.8893 77.6792 39.978 78.1459 39.978C78.6032 39.978 79.0325 39.8893 79.4339 39.712C79.8445 39.5347 80.1945 39.2733 80.4839 38.928C80.7825 38.5827 81.0159 38.158 81.1839 37.654C81.3612 37.15 81.4499 36.5713 81.4499 35.918C81.4499 35.2647 81.3612 34.686 81.1839 34.182C81.0159 33.678 80.7825 33.258 80.4839 32.922C80.1945 32.5767 79.8445 32.3153 79.4339 32.138C79.0325 31.9607 78.6032 31.872 78.1459 31.872C77.6792 31.872 77.2452 31.9607 76.8439 32.138C76.4425 32.3153 76.0925 32.5767 75.7939 32.922C75.5045 33.258 75.2712 33.678 75.0939 34.182C74.9259 34.686 74.8419 35.2647 74.8419 35.918ZM82.9059 35.918C82.9059 36.6833 82.7939 37.388 82.5699 38.032C82.3552 38.676 82.0379 39.2313 81.6179 39.698C81.2072 40.1647 80.7079 40.5287 80.1199 40.79C79.5319 41.0513 78.8739 41.182 78.1459 41.182C77.4179 41.182 76.7599 41.0513 76.1719 40.79C75.5839 40.5287 75.0799 40.1647 74.6599 39.698C74.2492 39.2313 73.9319 38.676 73.7079 38.032C73.4932 37.388 73.3859 36.6833 73.3859 35.918C73.3859 35.1527 73.4932 34.448 73.7079 33.804C73.9319 33.16 74.2492 32.6093 74.6599 32.152C75.0799 31.6853 75.5839 31.3213 76.1719 31.06C76.7599 30.7987 77.4179 30.668 78.1459 30.668C78.8739 30.668 79.5319 30.7987 80.1199 31.06C80.7079 31.3213 81.2072 31.6853 81.6179 32.152C82.0379 32.6093 82.3552 33.16 82.5699 33.804C82.7939 34.448 82.9059 35.1527 82.9059 35.918ZM84.953 32.922C84.953 32.53 84.9764 32.2033 85.023 31.942C85.079 31.6713 85.177 31.4567 85.317 31.298C85.4664 31.1393 85.6717 31.0273 85.933 30.962C86.2037 30.8873 86.5537 30.85 86.983 30.85H87.641V31.914H87.011C86.843 31.914 86.7077 31.928 86.605 31.956C86.5024 31.9747 86.423 32.0213 86.367 32.096C86.311 32.1613 86.2737 32.2547 86.255 32.376C86.2364 32.4973 86.227 32.656 86.227 32.852V33.468H87.641V34.49H86.227V41H84.953V34.49H83.903V33.468H84.953V32.922ZM89.3417 32.922C89.3417 32.53 89.3651 32.2033 89.4117 31.942C89.4677 31.6713 89.5657 31.4567 89.7057 31.298C89.8551 31.1393 90.0604 31.0273 90.3217 30.962C90.5924 30.8873 90.9424 30.85 91.3717 30.85H92.0297V31.914H91.3997C91.2317 31.914 91.0964 31.928 90.9937 31.956C90.8911 31.9747 90.8117 32.0213 90.7557 32.096C90.6997 32.1613 90.6624 32.2547 90.6437 32.376C90.6251 32.4973 90.6157 32.656 90.6157 32.852V33.468H92.0297V34.49H90.6157V41H89.3417V34.49H88.2917V33.468H89.3417V32.922ZM96.271 41.182C95.6643 41.182 95.1323 41.084 94.675 40.888C94.227 40.6827 93.849 40.4027 93.541 40.048C93.233 39.6933 92.9996 39.278 92.841 38.802C92.6916 38.326 92.617 37.808 92.617 37.248C92.617 36.6507 92.7056 36.114 92.883 35.638C93.0696 35.1527 93.3216 34.742 93.639 34.406C93.9656 34.0607 94.3483 33.7993 94.787 33.622C95.2256 33.4353 95.7063 33.342 96.229 33.342C96.8076 33.342 97.321 33.454 97.769 33.678C98.2263 33.902 98.6043 34.21 98.903 34.602C99.2016 34.994 99.4163 35.4513 99.547 35.974C99.687 36.4967 99.7383 37.0567 99.701 37.654H94.003C94.003 38.0273 94.059 38.3633 94.171 38.662C94.2923 38.9607 94.4556 39.2127 94.661 39.418C94.8663 39.6233 95.1043 39.782 95.375 39.894C95.6456 40.006 95.935 40.062 96.243 40.062C96.831 40.062 97.279 39.95 97.587 39.726C97.895 39.4927 98.1283 39.1893 98.287 38.816H99.603C99.519 39.1427 99.3836 39.4507 99.197 39.74C99.0103 40.02 98.777 40.2673 98.497 40.482C98.2263 40.6967 97.9043 40.8693 97.531 41C97.1576 41.1213 96.7376 41.182 96.271 41.182ZM96.229 34.434C95.585 34.434 95.0623 34.6207 94.661 34.994C94.2596 35.358 94.045 35.8807 94.017 36.562H98.357C98.3476 36.3007 98.2963 36.044 98.203 35.792C98.1096 35.5307 97.9743 35.302 97.797 35.106C97.6196 34.9007 97.4003 34.7373 97.139 34.616C96.8776 34.4947 96.5743 34.434 96.229 34.434ZM104.953 34.798C104.823 34.7793 104.697 34.7653 104.575 34.756C104.454 34.7467 104.342 34.742 104.239 34.742C103.651 34.742 103.208 34.9193 102.909 35.274C102.62 35.6287 102.475 36.2213 102.475 37.052V41H101.201V33.468H102.447V34.784C102.634 34.3547 102.909 34.028 103.273 33.804C103.647 33.5707 104.081 33.4447 104.575 33.426C104.641 33.426 104.701 33.426 104.757 33.426C104.813 33.426 104.879 33.4307 104.953 33.44V34.798Z" fill="#F0DBE2"></path><path d="M267 36C267 31.5817 270.582 28 275 28H313C317.418 28 321 31.5817 321 36V36C321 40.4183 317.418 44 313 44H275C270.582 44 267 40.4183 267 36V36Z" fill="#5C0A25"></path><path d="M275.69 31.75H276.87L279.6 39H278.5L277.93 37.43H274.6L274.04 39H273L275.69 31.75ZM274.91 36.56H277.61L276.25 32.78L274.91 36.56ZM281.876 37.74L283.336 33.62H284.276L282.246 39H281.436L279.406 33.62H280.416L281.876 37.74ZM288.204 36.41C287.791 36.45 287.417 36.5 287.084 36.56C286.751 36.6133 286.467 36.6833 286.234 36.77C286.001 36.85 285.821 36.9567 285.694 37.09C285.567 37.2167 285.504 37.3733 285.504 37.56C285.504 37.8133 285.594 38.02 285.774 38.18C285.961 38.3333 286.217 38.41 286.544 38.41C286.757 38.41 286.964 38.3833 287.164 38.33C287.364 38.27 287.541 38.1733 287.694 38.04C287.847 37.9 287.971 37.7133 288.064 37.48C288.157 37.2467 288.204 36.95 288.204 36.59V36.41ZM286.344 39.13C286.091 39.13 285.851 39.0933 285.624 39.02C285.404 38.9533 285.207 38.8567 285.034 38.73C284.867 38.5967 284.734 38.4367 284.634 38.25C284.541 38.0567 284.494 37.84 284.494 37.6C284.494 37.28 284.581 37.0133 284.754 36.8C284.927 36.58 285.171 36.4 285.484 36.26C285.804 36.1133 286.187 35.9967 286.634 35.91C287.081 35.8233 287.581 35.75 288.134 35.69V35.54C288.134 35.2867 288.101 35.0767 288.034 34.91C287.974 34.7433 287.887 34.6133 287.774 34.52C287.661 34.42 287.527 34.35 287.374 34.31C287.221 34.27 287.057 34.25 286.884 34.25C286.464 34.25 286.147 34.3467 285.934 34.54C285.721 34.7267 285.604 34.9867 285.584 35.32H284.644C284.664 35.0333 284.741 34.7767 284.874 34.55C285.007 34.3233 285.177 34.1333 285.384 33.98C285.591 33.8267 285.824 33.71 286.084 33.63C286.344 33.55 286.614 33.51 286.894 33.51C287.641 33.51 288.187 33.6833 288.534 34.03C288.881 34.3767 289.051 34.9367 289.044 35.71L289.034 36.97C289.027 37.4233 289.034 37.8133 289.054 38.14C289.081 38.46 289.121 38.7467 289.174 39H288.254C288.241 38.9 288.227 38.7833 288.214 38.65C288.201 38.5167 288.191 38.37 288.184 38.21C288.017 38.49 287.787 38.7133 287.494 38.88C287.207 39.0467 286.824 39.13 286.344 39.13ZM291.3 33.62V39H290.39V33.62H291.3ZM291.3 31.75V32.85H290.39V31.75H291.3ZM293.653 39H292.743V31.75H293.653V39ZM298.497 36.41C298.084 36.45 297.71 36.5 297.377 36.56C297.044 36.6133 296.76 36.6833 296.527 36.77C296.294 36.85 296.114 36.9567 295.987 37.09C295.86 37.2167 295.797 37.3733 295.797 37.56C295.797 37.8133 295.887 38.02 296.067 38.18C296.254 38.3333 296.51 38.41 296.837 38.41C297.05 38.41 297.257 38.3833 297.457 38.33C297.657 38.27 297.834 38.1733 297.987 38.04C298.14 37.9 298.264 37.7133 298.357 37.48C298.45 37.2467 298.497 36.95 298.497 36.59V36.41ZM296.637 39.13C296.384 39.13 296.144 39.0933 295.917 39.02C295.697 38.9533 295.5 38.8567 295.327 38.73C295.16 38.5967 295.027 38.4367 294.927 38.25C294.834 38.0567 294.787 37.84 294.787 37.6C294.787 37.28 294.874 37.0133 295.047 36.8C295.22 36.58 295.464 36.4 295.777 36.26C296.097 36.1133 296.48 35.9967 296.927 35.91C297.374 35.8233 297.874 35.75 298.427 35.69V35.54C298.427 35.2867 298.394 35.0767 298.327 34.91C298.267 34.7433 298.18 34.6133 298.067 34.52C297.954 34.42 297.82 34.35 297.667 34.31C297.514 34.27 297.35 34.25 297.177 34.25C296.757 34.25 296.44 34.3467 296.227 34.54C296.014 34.7267 295.897 34.9867 295.877 35.32H294.937C294.957 35.0333 295.034 34.7767 295.167 34.55C295.3 34.3233 295.47 34.1333 295.677 33.98C295.884 33.8267 296.117 33.71 296.377 33.63C296.637 33.55 296.907 33.51 297.187 33.51C297.934 33.51 298.48 33.6833 298.827 34.03C299.174 34.3767 299.344 34.9367 299.337 35.71L299.327 36.97C299.32 37.4233 299.327 37.8133 299.347 38.14C299.374 38.46 299.414 38.7467 299.467 39H298.547C298.534 38.9 298.52 38.7833 298.507 38.65C298.494 38.5167 298.484 38.37 298.477 38.21C298.31 38.49 298.08 38.7133 297.787 38.88C297.5 39.0467 297.117 39.13 296.637 39.13ZM301.553 36.33C301.553 36.6833 301.596 36.99 301.683 37.25C301.77 37.5033 301.886 37.7133 302.033 37.88C302.18 38.04 302.346 38.16 302.533 38.24C302.726 38.3133 302.923 38.35 303.123 38.35C303.61 38.35 303.983 38.1767 304.243 37.83C304.503 37.4767 304.633 36.9767 304.633 36.33C304.633 35.6833 304.503 35.1867 304.243 34.84C303.983 34.4867 303.61 34.31 303.123 34.31C302.923 34.31 302.726 34.35 302.533 34.43C302.346 34.5033 302.18 34.6233 302.033 34.79C301.886 34.95 301.77 35.16 301.683 35.42C301.596 35.6733 301.553 35.9767 301.553 36.33ZM301.593 31.75V34.47C301.76 34.1833 301.986 33.9567 302.273 33.79C302.56 33.6167 302.92 33.53 303.353 33.53C303.673 33.53 303.97 33.5933 304.243 33.72C304.516 33.8467 304.756 34.03 304.963 34.27C305.17 34.51 305.33 34.8033 305.443 35.15C305.563 35.4967 305.623 35.89 305.623 36.33C305.623 36.7767 305.563 37.1733 305.443 37.52C305.33 37.8667 305.17 38.16 304.963 38.4C304.756 38.64 304.516 38.8233 304.243 38.95C303.97 39.07 303.673 39.13 303.353 39.13C302.92 39.13 302.56 39.0467 302.273 38.88C301.986 38.7067 301.76 38.4767 301.593 38.19V39H300.683V31.75H301.593ZM307.599 39H306.689V31.75H307.599V39ZM311.282 39.13C310.849 39.13 310.469 39.06 310.142 38.92C309.822 38.7733 309.552 38.5733 309.332 38.32C309.112 38.0667 308.946 37.77 308.832 37.43C308.726 37.09 308.672 36.72 308.672 36.32C308.672 35.8933 308.736 35.51 308.862 35.17C308.996 34.8233 309.176 34.53 309.402 34.29C309.636 34.0433 309.909 33.8567 310.222 33.73C310.536 33.5967 310.879 33.53 311.252 33.53C311.666 33.53 312.032 33.61 312.352 33.77C312.679 33.93 312.949 34.15 313.162 34.43C313.376 34.71 313.529 35.0367 313.622 35.41C313.722 35.7833 313.759 36.1833 313.732 36.61H309.662C309.662 36.8767 309.702 37.1167 309.782 37.33C309.869 37.5433 309.986 37.7233 310.132 37.87C310.279 38.0167 310.449 38.13 310.642 38.21C310.836 38.29 311.042 38.33 311.262 38.33C311.682 38.33 312.002 38.25 312.222 38.09C312.442 37.9233 312.609 37.7067 312.722 37.44H313.662C313.602 37.6733 313.506 37.8933 313.372 38.1C313.239 38.3 313.072 38.4767 312.872 38.63C312.679 38.7833 312.449 38.9067 312.182 39C311.916 39.0867 311.616 39.13 311.282 39.13ZM311.252 34.31C310.792 34.31 310.419 34.4433 310.132 34.71C309.846 34.97 309.692 35.3433 309.672 35.83H312.772C312.766 35.6433 312.729 35.46 312.662 35.28C312.596 35.0933 312.499 34.93 312.372 34.79C312.246 34.6433 312.089 34.5267 311.902 34.44C311.716 34.3533 311.499 34.31 311.252 34.31Z" fill="#F0759E"></path><rect width="345" height="144" transform="translate(0 72)" fill="#240F16"></rect><path d="M34.176 101.048V103.384C36.352 103.555 38.0693 104.28 39.328 105.56C40.608 106.84 41.2373 108.536 41.216 110.648H38.208C38.1867 109.816 38.0587 109.112 37.824 108.536C37.6107 107.96 37.312 107.48 36.928 107.096C36.5653 106.712 36.1387 106.424 35.648 106.232C35.1787 106.019 34.688 105.88 34.176 105.816V113.752L34.656 113.88C35.5307 114.115 36.3947 114.392 37.248 114.712C38.1013 115.032 38.8587 115.448 39.52 115.96C40.2027 116.472 40.7467 117.101 41.152 117.848C41.5573 118.595 41.76 119.523 41.76 120.632C41.76 121.72 41.5573 122.669 41.152 123.48C40.7467 124.291 40.2027 124.973 39.52 125.528C38.8373 126.083 38.0267 126.52 37.088 126.84C36.1707 127.139 35.2 127.32 34.176 127.384V130.104H32.416V127.384C31.3067 127.299 30.2933 127.043 29.376 126.616C28.48 126.189 27.7013 125.645 27.04 124.984C26.4 124.301 25.8987 123.512 25.536 122.616C25.1947 121.699 25.0347 120.707 25.056 119.64H28.064C28.0853 120.493 28.2133 121.24 28.448 121.88C28.704 122.499 29.0347 123.032 29.44 123.48C29.8453 123.907 30.304 124.248 30.816 124.504C31.328 124.739 31.8613 124.888 32.416 124.952V116.28L31.712 116.088C30.8373 115.853 30.0267 115.544 29.28 115.16C28.5547 114.776 27.9253 114.317 27.392 113.784C26.8587 113.229 26.432 112.6 26.112 111.896C25.8133 111.171 25.664 110.36 25.664 109.464C25.664 108.547 25.856 107.736 26.24 107.032C26.624 106.307 27.1253 105.688 27.744 105.176C28.3627 104.664 29.0773 104.259 29.888 103.96C30.6987 103.661 31.5413 103.469 32.416 103.384V101.048H34.176ZM38.752 121.08C38.752 120.397 38.6453 119.832 38.432 119.384C38.2187 118.915 37.9093 118.52 37.504 118.2C37.12 117.88 36.64 117.613 36.064 117.4C35.5093 117.165 34.88 116.952 34.176 116.76V124.984C34.7733 124.941 35.3493 124.835 35.904 124.664C36.4587 124.472 36.9493 124.216 37.376 123.896C37.8027 123.576 38.1333 123.181 38.368 122.712C38.624 122.243 38.752 121.699 38.752 121.08ZM28.672 109.432C28.672 110.392 28.9707 111.181 29.568 111.8C30.1867 112.419 31.1253 112.909 32.384 113.272L32.416 113.304V105.784C31.9467 105.827 31.488 105.933 31.04 106.104C30.592 106.253 30.1867 106.477 29.824 106.776C29.4827 107.075 29.2053 107.448 28.992 107.896C28.7787 108.323 28.672 108.835 28.672 109.432ZM60.9573 124.312V127H46.3013V124.312H52.5093V109.176H46.3333V107.16C47.2293 107.139 48.0399 107.085 48.7653 107C49.4906 106.915 50.1413 106.765 50.7173 106.552C51.3146 106.339 51.8373 106.04 52.2853 105.656C52.7333 105.251 53.1173 104.728 53.4373 104.088H55.4213V124.312H60.9573ZM75.2848 124.984C76.8208 124.984 78.0794 124.6 79.0608 123.832C80.0421 123.064 80.5328 121.955 80.5328 120.504C80.5328 119.672 80.3514 118.979 79.9888 118.424C79.6474 117.848 79.1781 117.389 78.5808 117.048C77.9834 116.707 77.2688 116.461 76.4368 116.312C75.6261 116.163 74.7621 116.088 73.8448 116.088H73.3648V113.432H73.7488C75.7754 113.432 77.3114 113.133 78.3568 112.536C79.4021 111.939 79.9248 110.957 79.9248 109.592C79.9248 108.973 79.8074 108.429 79.5728 107.96C79.3381 107.491 79.0074 107.096 78.5808 106.776C78.1754 106.456 77.6954 106.221 77.1408 106.072C76.6074 105.901 76.0314 105.816 75.4128 105.816C73.8554 105.816 72.6501 106.243 71.7968 107.096C70.9648 107.928 70.4848 109.005 70.3568 110.328H67.3488C67.4341 109.304 67.6794 108.365 68.0848 107.512C68.4901 106.659 69.0341 105.933 69.7168 105.336C70.3994 104.717 71.2208 104.237 72.1808 103.896C73.1621 103.555 74.2608 103.384 75.4768 103.384C76.4794 103.384 77.4288 103.491 78.3248 103.704C79.2421 103.917 80.0421 104.259 80.7248 104.728C81.4288 105.197 81.9834 105.805 82.3888 106.552C82.7941 107.299 82.9968 108.205 82.9968 109.272C82.9968 110.467 82.6661 111.544 82.0048 112.504C81.3648 113.443 80.4368 114.157 79.2208 114.648C80.0741 114.925 80.7888 115.267 81.3647 115.672C81.9408 116.077 82.3888 116.536 82.7088 117.048C83.0501 117.56 83.2848 118.115 83.4128 118.712C83.5621 119.288 83.6368 119.875 83.6368 120.472C83.6368 121.645 83.4021 122.669 82.9328 123.544C82.4848 124.397 81.8768 125.112 81.1088 125.688C80.3408 126.264 79.4448 126.701 78.4208 127C77.4181 127.277 76.3621 127.416 75.2528 127.416C73.8874 127.416 72.7034 127.224 71.7008 126.84C70.6981 126.435 69.8554 125.901 69.1727 125.24C68.5114 124.579 67.9994 123.811 67.6368 122.936C67.2954 122.04 67.0821 121.112 66.9968 120.152H70.0048C70.1754 121.581 70.6874 122.744 71.5408 123.64C72.3941 124.536 73.6421 124.984 75.2848 124.984ZM102.892 115.384C102.892 112.163 102.359 109.763 101.292 108.184C100.226 106.605 98.7856 105.816 96.9723 105.816C95.1376 105.816 93.6869 106.605 92.6203 108.184C91.5749 109.763 91.0523 112.163 91.0523 115.384C91.0523 118.627 91.5749 121.037 92.6203 122.616C93.6869 124.195 95.1376 124.984 96.9723 124.984C98.8069 124.984 100.247 124.195 101.292 122.616C102.359 121.037 102.892 118.627 102.892 115.384ZM105.996 115.384C105.996 117.219 105.815 118.883 105.452 120.376C105.09 121.848 104.535 123.107 103.788 124.152C103.063 125.197 102.124 126.008 100.972 126.584C99.8416 127.139 98.5083 127.416 96.9723 127.416C95.4363 127.416 94.0923 127.139 92.9403 126.584C91.8096 126.008 90.8709 125.197 90.1243 124.152C89.3989 123.107 88.8549 121.848 88.4923 120.376C88.1296 118.883 87.9483 117.219 87.9483 115.384C87.9483 113.549 88.1296 111.896 88.4923 110.424C88.8549 108.931 89.3989 107.672 90.1243 106.648C90.8709 105.603 91.8096 104.803 92.9403 104.248C94.0923 103.672 95.4363 103.384 96.9723 103.384C98.5083 103.384 99.8416 103.672 100.972 104.248C102.124 104.803 103.063 105.603 103.788 106.648C104.535 107.672 105.09 108.931 105.452 110.424C105.815 111.896 105.996 113.549 105.996 115.384ZM109.924 123.32H113.604V127.256L111.652 131.448H109.796L111.492 127H109.924V123.32ZM132.424 115.384C132.424 112.163 131.89 109.763 130.824 108.184C129.757 106.605 128.317 105.816 126.504 105.816C124.669 105.816 123.218 106.605 122.152 108.184C121.106 109.763 120.584 112.163 120.584 115.384C120.584 118.627 121.106 121.037 122.152 122.616C123.218 124.195 124.669 124.984 126.504 124.984C128.338 124.984 129.778 124.195 130.824 122.616C131.89 121.037 132.424 118.627 132.424 115.384ZM135.528 115.384C135.528 117.219 135.346 118.883 134.984 120.376C134.621 121.848 134.066 123.107 133.319 124.152C132.594 125.197 131.656 126.008 130.504 126.584C129.373 127.139 128.04 127.416 126.504 127.416C124.968 127.416 123.624 127.139 122.472 126.584C121.341 126.008 120.402 125.197 119.656 124.152C118.93 123.107 118.386 121.848 118.024 120.376C117.661 118.883 117.48 117.219 117.48 115.384C117.48 113.549 117.661 111.896 118.024 110.424C118.386 108.931 118.93 107.672 119.656 106.648C120.402 105.603 121.341 104.803 122.472 104.248C123.624 103.672 124.968 103.384 126.504 103.384C128.04 103.384 129.373 103.672 130.504 104.248C131.656 104.803 132.594 105.603 133.319 106.648C134.066 107.672 134.621 108.931 134.984 110.424C135.346 111.896 135.528 113.549 135.528 115.384ZM154.111 115.384C154.111 112.163 153.578 109.763 152.511 108.184C151.444 106.605 150.004 105.816 148.191 105.816C146.356 105.816 144.906 106.605 143.839 108.184C142.794 109.763 142.271 112.163 142.271 115.384C142.271 118.627 142.794 121.037 143.839 122.616C144.906 124.195 146.356 124.984 148.191 124.984C150.026 124.984 151.466 124.195 152.511 122.616C153.578 121.037 154.111 118.627 154.111 115.384ZM157.215 115.384C157.215 117.219 157.034 118.883 156.671 120.376C156.308 121.848 155.754 123.107 155.007 124.152C154.282 125.197 153.343 126.008 152.191 126.584C151.06 127.139 149.727 127.416 148.191 127.416C146.655 127.416 145.311 127.139 144.159 126.584C143.028 126.008 142.09 125.197 141.343 124.152C140.618 123.107 140.074 121.848 139.711 120.376C139.348 118.883 139.167 117.219 139.167 115.384C139.167 113.549 139.348 111.896 139.711 110.424C140.074 108.931 140.618 107.672 141.343 106.648C142.09 105.603 143.028 104.803 144.159 104.248C145.311 103.672 146.655 103.384 148.191 103.384C149.727 103.384 151.06 103.672 152.191 104.248C153.343 104.803 154.282 105.603 155.007 106.648C155.754 107.672 156.308 108.931 156.671 110.424C157.034 111.896 157.215 113.549 157.215 115.384ZM175.799 115.384C175.799 112.163 175.265 109.763 174.199 108.184C173.132 106.605 171.692 105.816 169.879 105.816C168.044 105.816 166.593 106.605 165.527 108.184C164.481 109.763 163.959 112.163 163.959 115.384C163.959 118.627 164.481 121.037 165.527 122.616C166.593 124.195 168.044 124.984 169.879 124.984C171.713 124.984 173.153 124.195 174.199 122.616C175.265 121.037 175.799 118.627 175.799 115.384ZM178.903 115.384C178.903 117.219 178.721 118.883 178.359 120.376C177.996 121.848 177.441 123.107 176.694 124.152C175.969 125.197 175.031 126.008 173.879 126.584C172.748 127.139 171.415 127.416 169.879 127.416C168.343 127.416 166.999 127.139 165.847 126.584C164.716 126.008 163.777 125.197 163.031 124.152C162.305 123.107 161.761 121.848 161.399 120.376C161.036 118.883 160.855 117.219 160.855 115.384C160.855 113.549 161.036 111.896 161.399 110.424C161.761 108.931 162.305 107.672 163.031 106.648C163.777 105.603 164.716 104.803 165.847 104.248C166.999 103.672 168.343 103.384 169.879 103.384C171.415 103.384 172.748 103.672 173.879 104.248C175.031 104.803 175.969 105.603 176.694 106.648C177.441 107.672 177.996 108.931 178.359 110.424C178.721 111.896 178.903 113.549 178.903 115.384Z" fill="#F0DBE2"></path><path d="M229 130L233.56 118.4H235.032L230.456 130H229ZM247.713 117.024V118.192C248.801 118.277 249.66 118.64 250.289 119.28C250.929 119.92 251.244 120.768 251.233 121.824H249.729C249.718 121.408 249.654 121.056 249.537 120.768C249.43 120.48 249.281 120.24 249.089 120.048C248.908 119.856 248.694 119.712 248.449 119.616C248.214 119.509 247.969 119.44 247.713 119.408V123.376L247.953 123.44C248.39 123.557 248.822 123.696 249.249 123.856C249.676 124.016 250.054 124.224 250.385 124.48C250.726 124.736 250.998 125.051 251.201 125.424C251.404 125.797 251.505 126.261 251.505 126.816C251.505 127.36 251.404 127.835 251.201 128.24C250.998 128.645 250.726 128.987 250.385 129.264C250.044 129.541 249.638 129.76 249.169 129.92C248.71 130.069 248.225 130.16 247.713 130.192V131.552H246.833V130.192C246.278 130.149 245.772 130.021 245.313 129.808C244.865 129.595 244.476 129.323 244.145 128.992C243.825 128.651 243.574 128.256 243.393 127.808C243.222 127.349 243.142 126.853 243.153 126.32H244.657C244.668 126.747 244.732 127.12 244.849 127.44C244.977 127.749 245.142 128.016 245.345 128.24C245.548 128.453 245.777 128.624 246.033 128.752C246.289 128.869 246.556 128.944 246.833 128.976V124.64L246.481 124.544C246.044 124.427 245.638 124.272 245.265 124.08C244.902 123.888 244.588 123.659 244.321 123.392C244.054 123.115 243.841 122.8 243.681 122.448C243.532 122.085 243.457 121.68 243.457 121.232C243.457 120.773 243.553 120.368 243.745 120.016C243.937 119.653 244.188 119.344 244.497 119.088C244.806 118.832 245.164 118.629 245.569 118.48C245.974 118.331 246.396 118.235 246.833 118.192V117.024H247.713ZM250.001 127.04C250.001 126.699 249.948 126.416 249.841 126.192C249.734 125.957 249.58 125.76 249.377 125.6C249.185 125.44 248.945 125.307 248.657 125.2C248.38 125.083 248.065 124.976 247.713 124.88V128.992C248.012 128.971 248.3 128.917 248.577 128.832C248.854 128.736 249.1 128.608 249.313 128.448C249.526 128.288 249.692 128.091 249.809 127.856C249.937 127.621 250.001 127.349 250.001 127.04ZM244.961 121.216C244.961 121.696 245.11 122.091 245.409 122.4C245.718 122.709 246.188 122.955 246.817 123.136L246.833 123.152V119.392C246.598 119.413 246.369 119.467 246.145 119.552C245.921 119.627 245.718 119.739 245.537 119.888C245.366 120.037 245.228 120.224 245.121 120.448C245.014 120.661 244.961 120.917 244.961 121.216ZM257.6 118.192C258.133 118.192 258.624 118.261 259.072 118.4C259.53 118.528 259.92 118.72 260.24 118.976C260.57 119.232 260.826 119.552 261.008 119.936C261.189 120.309 261.28 120.741 261.28 121.232C261.28 121.904 261.114 122.56 260.784 123.2C260.464 123.829 260.026 124.453 259.472 125.072C258.917 125.68 258.272 126.283 257.536 126.88C256.81 127.467 256.042 128.053 255.232 128.64H261.6V130H253.248V128.688C254.272 127.931 255.184 127.227 255.984 126.576C256.794 125.915 257.477 125.291 258.032 124.704C258.586 124.107 259.008 123.541 259.296 123.008C259.594 122.464 259.744 121.936 259.744 121.424C259.744 120.816 259.552 120.331 259.168 119.968C258.794 119.595 258.261 119.408 257.568 119.408C257.258 119.408 256.954 119.456 256.656 119.552C256.357 119.637 256.09 119.787 255.856 120C255.632 120.203 255.445 120.469 255.296 120.8C255.157 121.131 255.082 121.536 255.072 122.016H253.568C253.557 121.44 253.642 120.917 253.824 120.448C254.016 119.979 254.288 119.579 254.64 119.248C254.992 118.907 255.418 118.645 255.92 118.464C256.421 118.283 256.981 118.192 257.6 118.192ZM271.227 124.192C271.227 122.581 270.961 121.381 270.427 120.592C269.894 119.803 269.174 119.408 268.267 119.408C267.35 119.408 266.625 119.803 266.091 120.592C265.569 121.381 265.307 122.581 265.307 124.192C265.307 125.813 265.569 127.019 266.091 127.808C266.625 128.597 267.35 128.992 268.267 128.992C269.185 128.992 269.905 128.597 270.427 127.808C270.961 127.019 271.227 125.813 271.227 124.192ZM272.779 124.192C272.779 125.109 272.689 125.941 272.507 126.688C272.326 127.424 272.049 128.053 271.675 128.576C271.313 129.099 270.843 129.504 270.267 129.792C269.702 130.069 269.035 130.208 268.267 130.208C267.499 130.208 266.827 130.069 266.251 129.792C265.686 129.504 265.217 129.099 264.843 128.576C264.481 128.053 264.209 127.424 264.027 126.688C263.846 125.941 263.755 125.109 263.755 124.192C263.755 123.275 263.846 122.448 264.027 121.712C264.209 120.965 264.481 120.336 264.843 119.824C265.217 119.301 265.686 118.901 266.251 118.624C266.827 118.336 267.499 118.192 268.267 118.192C269.035 118.192 269.702 118.336 270.267 118.624C270.843 118.901 271.313 119.301 271.675 119.824C272.049 120.336 272.326 120.965 272.507 121.712C272.689 122.448 272.779 123.275 272.779 124.192ZM282.071 124.192C282.071 122.581 281.804 121.381 281.271 120.592C280.738 119.803 280.018 119.408 279.111 119.408C278.194 119.408 277.468 119.803 276.935 120.592C276.412 121.381 276.151 122.581 276.151 124.192C276.151 125.813 276.412 127.019 276.935 127.808C277.468 128.597 278.194 128.992 279.111 128.992C280.028 128.992 280.748 128.597 281.271 127.808C281.804 127.019 282.071 125.813 282.071 124.192ZM283.623 124.192C283.623 125.109 283.532 125.941 283.351 126.688C283.17 127.424 282.892 128.053 282.519 128.576C282.156 129.099 281.687 129.504 281.111 129.792C280.546 130.069 279.879 130.208 279.111 130.208C278.343 130.208 277.671 130.069 277.095 129.792C276.53 129.504 276.06 129.099 275.687 128.576C275.324 128.053 275.052 127.424 274.871 126.688C274.69 125.941 274.599 125.109 274.599 124.192C274.599 123.275 274.69 122.448 274.871 121.712C275.052 120.965 275.324 120.336 275.687 119.824C276.06 119.301 276.53 118.901 277.095 118.624C277.671 118.336 278.343 118.192 279.111 118.192C279.879 118.192 280.546 118.336 281.111 118.624C281.687 118.901 282.156 119.301 282.519 119.824C282.892 120.336 283.17 120.965 283.351 121.712C283.532 122.448 283.623 123.275 283.623 124.192ZM285.587 128.16H287.427V130.128L286.451 132.224H285.523L286.371 130H285.587V128.16ZM296.837 124.192C296.837 122.581 296.57 121.381 296.037 120.592C295.503 119.803 294.783 119.408 293.877 119.408C292.959 119.408 292.234 119.803 291.701 120.592C291.178 121.381 290.917 122.581 290.917 124.192C290.917 125.813 291.178 127.019 291.701 127.808C292.234 128.597 292.959 128.992 293.877 128.992C294.794 128.992 295.514 128.597 296.037 127.808C296.57 127.019 296.837 125.813 296.837 124.192ZM298.389 124.192C298.389 125.109 298.298 125.941 298.117 126.688C297.935 127.424 297.658 128.053 297.285 128.576C296.922 129.099 296.453 129.504 295.877 129.792C295.311 130.069 294.645 130.208 293.877 130.208C293.109 130.208 292.437 130.069 291.861 129.792C291.295 129.504 290.826 129.099 290.453 128.576C290.09 128.053 289.818 127.424 289.637 126.688C289.455 125.941 289.365 125.109 289.365 124.192C289.365 123.275 289.455 122.448 289.637 121.712C289.818 120.965 290.09 120.336 290.453 119.824C290.826 119.301 291.295 118.901 291.861 118.624C292.437 118.336 293.109 118.192 293.877 118.192C294.645 118.192 295.311 118.336 295.877 118.624C296.453 118.901 296.922 119.301 297.285 119.824C297.658 120.336 297.935 120.965 298.117 121.712C298.298 122.448 298.389 123.275 298.389 124.192ZM307.681 124.192C307.681 122.581 307.414 121.381 306.881 120.592C306.347 119.803 305.627 119.408 304.721 119.408C303.803 119.408 303.078 119.803 302.545 120.592C302.022 121.381 301.761 122.581 301.761 124.192C301.761 125.813 302.022 127.019 302.545 127.808C303.078 128.597 303.803 128.992 304.721 128.992C305.638 128.992 306.358 128.597 306.881 127.808C307.414 127.019 307.681 125.813 307.681 124.192ZM309.233 124.192C309.233 125.109 309.142 125.941 308.961 126.688C308.779 127.424 308.502 128.053 308.128 128.576C307.766 129.099 307.297 129.504 306.721 129.792C306.155 130.069 305.489 130.208 304.721 130.208C303.953 130.208 303.281 130.069 302.705 129.792C302.139 129.504 301.67 129.099 301.297 128.576C300.934 128.053 300.662 127.424 300.481 126.688C300.299 125.941 300.209 125.109 300.209 124.192C300.209 123.275 300.299 122.448 300.481 121.712C300.662 120.965 300.934 120.336 301.297 119.824C301.67 119.301 302.139 118.901 302.705 118.624C303.281 118.336 303.953 118.192 304.721 118.192C305.489 118.192 306.155 118.336 306.721 118.624C307.297 118.901 307.766 119.301 308.128 119.824C308.502 120.336 308.779 120.965 308.961 121.712C309.142 122.448 309.233 123.275 309.233 124.192ZM318.524 124.192C318.524 122.581 318.258 121.381 317.724 120.592C317.191 119.803 316.471 119.408 315.564 119.408C314.647 119.408 313.922 119.803 313.388 120.592C312.866 121.381 312.604 122.581 312.604 124.192C312.604 125.813 312.866 127.019 313.388 127.808C313.922 128.597 314.647 128.992 315.564 128.992C316.482 128.992 317.202 128.597 317.724 127.808C318.258 127.019 318.524 125.813 318.524 124.192ZM320.076 124.192C320.076 125.109 319.986 125.941 319.804 126.688C319.623 127.424 319.346 128.053 318.972 128.576C318.61 129.099 318.14 129.504 317.564 129.792C316.999 130.069 316.332 130.208 315.564 130.208C314.796 130.208 314.124 130.069 313.548 129.792C312.983 129.504 312.514 129.099 312.14 128.576C311.778 128.053 311.506 127.424 311.324 126.688C311.143 125.941 311.052 125.109 311.052 124.192C311.052 123.275 311.143 122.448 311.324 121.712C311.506 120.965 311.778 120.336 312.14 119.824C312.514 119.301 312.983 118.901 313.548 118.624C314.124 118.336 314.796 118.192 315.564 118.192C316.332 118.192 316.999 118.336 317.564 118.624C318.14 118.901 318.61 119.301 318.972 119.824C319.346 120.336 319.623 120.965 319.804 121.712C319.986 122.448 320.076 123.275 320.076 124.192Z" fill="#F0DBE2"></path><g clip-path="url(#clip1_10614_28031)"><rect width="297" height="8" transform="translate(24 152)" fill="#F0DBE2" fill-opacity="0.1"></rect><path d="M24 156H199.458" stroke="#E61A5D" stroke-width="400"></path><path d="M199.458 156H200.458" stroke="#240F16" stroke-width="800"></path></g><path d="M26.208 185.216C26.208 185.52 26.252 185.796 26.34 186.044C26.428 186.292 26.556 186.504 26.724 186.68C26.892 186.856 27.092 186.996 27.324 187.1C27.556 187.196 27.816 187.244 28.104 187.244C28.384 187.244 28.64 187.196 28.872 187.1C29.104 186.996 29.304 186.856 29.472 186.68C29.64 186.496 29.772 186.28 29.868 186.032C29.964 185.784 30.012 185.512 30.012 185.216C30.012 184.92 29.964 184.648 29.868 184.4C29.78 184.144 29.652 183.924 29.484 183.74C29.316 183.556 29.116 183.412 28.884 183.308C28.652 183.204 28.396 183.152 28.116 183.152C27.828 183.152 27.568 183.204 27.336 183.308C27.104 183.412 26.904 183.556 26.736 183.74C26.568 183.924 26.436 184.144 26.34 184.4C26.252 184.648 26.208 184.92 26.208 185.216ZM28.212 180.056C27.876 180.056 27.576 180.136 27.312 180.296C27.056 180.456 26.836 180.684 26.652 180.98C26.476 181.276 26.34 181.632 26.244 182.048C26.148 182.456 26.092 182.912 26.076 183.416C26.276 183.072 26.564 182.784 26.94 182.552C27.316 182.32 27.792 182.204 28.368 182.204C28.776 182.204 29.148 182.276 29.484 182.42C29.828 182.564 30.124 182.768 30.372 183.032C30.628 183.288 30.824 183.6 30.96 183.968C31.104 184.328 31.176 184.724 31.176 185.156C31.176 185.564 31.104 185.948 30.96 186.308C30.816 186.668 30.608 186.988 30.336 187.268C30.072 187.54 29.752 187.756 29.376 187.916C29 188.076 28.58 188.156 28.116 188.156C27.028 188.156 26.228 187.792 25.716 187.064C25.204 186.336 24.948 185.3 24.948 183.956C24.948 183.34 25.004 182.744 25.116 182.168C25.236 181.592 25.428 181.08 25.692 180.632C25.964 180.184 26.316 179.824 26.748 179.552C27.18 179.28 27.712 179.144 28.344 179.144C28.768 179.144 29.136 179.208 29.448 179.336C29.768 179.456 30.036 179.616 30.252 179.816C30.476 180.016 30.648 180.248 30.768 180.512C30.896 180.776 30.984 181.044 31.032 181.316H29.844C29.772 180.924 29.592 180.616 29.304 180.392C29.024 180.168 28.66 180.056 28.212 180.056ZM36.1888 187.244C36.4528 187.244 36.7008 187.2 36.9328 187.112C37.1648 187.016 37.3688 186.88 37.5448 186.704C37.7288 186.52 37.8728 186.3 37.9768 186.044C38.0808 185.78 38.1328 185.48 38.1328 185.144C38.1328 184.784 38.0728 184.476 37.9528 184.22C37.8408 183.956 37.6928 183.74 37.5088 183.572C37.3248 183.404 37.1168 183.28 36.8848 183.2C36.6528 183.12 36.4168 183.08 36.1768 183.08C35.9528 183.08 35.7488 183.112 35.5648 183.176C35.3808 183.232 35.2168 183.308 35.0728 183.404C34.9288 183.492 34.8088 183.596 34.7128 183.716C34.6168 183.828 34.5448 183.936 34.4968 184.04L33.4048 183.98L33.9688 179.3H38.9608V180.32H34.8568L34.5568 182.792C34.7888 182.568 35.0688 182.404 35.3968 182.3C35.7248 182.188 36.0688 182.132 36.4288 182.132C36.8128 182.132 37.1768 182.2 37.5208 182.336C37.8648 182.464 38.1648 182.656 38.4208 182.912C38.6848 183.168 38.8928 183.484 39.0448 183.86C39.2048 184.228 39.2848 184.652 39.2848 185.132C39.2848 185.628 39.1968 186.068 39.0208 186.452C38.8528 186.828 38.6248 187.144 38.3368 187.4C38.0568 187.648 37.7288 187.836 37.3528 187.964C36.9848 188.092 36.5968 188.156 36.1888 188.156C35.6848 188.156 35.2488 188.084 34.8808 187.94C34.5128 187.788 34.2008 187.592 33.9448 187.352C33.6968 187.104 33.5008 186.82 33.3568 186.5C33.2208 186.172 33.1328 185.832 33.0928 185.48H34.2208C34.3088 186.032 34.5048 186.464 34.8088 186.776C35.1208 187.088 35.5808 187.244 36.1888 187.244ZM42.6656 184.28C42.3376 184.28 42.0496 184.22 41.8016 184.1C41.5616 183.972 41.3616 183.796 41.2016 183.572C41.0416 183.348 40.9176 183.084 40.8296 182.78C40.7496 182.468 40.7096 182.124 40.7096 181.748C40.7096 181.38 40.7496 181.04 40.8296 180.728C40.9176 180.416 41.0416 180.148 41.2016 179.924C41.3616 179.7 41.5616 179.528 41.8016 179.408C42.0496 179.28 42.3376 179.216 42.6656 179.216C42.9936 179.216 43.2816 179.28 43.5296 179.408C43.7776 179.528 43.9816 179.7 44.1416 179.924C44.3096 180.148 44.4336 180.416 44.5136 180.728C44.6016 181.04 44.6456 181.38 44.6456 181.748C44.6456 182.124 44.6016 182.468 44.5136 182.78C44.4336 183.084 44.3096 183.348 44.1416 183.572C43.9816 183.796 43.7776 183.972 43.5296 184.1C43.2816 184.22 42.9936 184.28 42.6656 184.28ZM42.6656 183.62C43.0176 183.62 43.2816 183.46 43.4576 183.14C43.6416 182.812 43.7336 182.348 43.7336 181.748C43.7336 181.148 43.6416 180.684 43.4576 180.356C43.2816 180.028 43.0176 179.864 42.6656 179.864C42.3296 179.864 42.0696 180.028 41.8856 180.356C41.7096 180.684 41.6216 181.148 41.6216 181.748C41.6216 182.348 41.7096 182.812 41.8856 183.14C42.0696 183.46 42.3296 183.62 42.6656 183.62ZM42.6536 188L48.6536 179.3H49.8656L43.8656 188H42.6536ZM49.8656 188.084C49.5376 188.084 49.2496 188.024 49.0016 187.904C48.7616 187.776 48.5616 187.6 48.4016 187.376C48.2416 187.152 48.1176 186.888 48.0296 186.584C47.9496 186.272 47.9096 185.928 47.9096 185.552C47.9096 185.184 47.9496 184.844 48.0296 184.532C48.1176 184.22 48.2416 183.952 48.4016 183.728C48.5616 183.504 48.7616 183.332 49.0016 183.212C49.2496 183.084 49.5376 183.02 49.8656 183.02C50.1936 183.02 50.4816 183.084 50.7296 183.212C50.9776 183.332 51.1816 183.504 51.3416 183.728C51.5096 183.952 51.6336 184.22 51.7136 184.532C51.8016 184.844 51.8456 185.184 51.8456 185.552C51.8456 185.928 51.8016 186.272 51.7136 186.584C51.6336 186.888 51.5096 187.152 51.3416 187.376C51.1816 187.6 50.9776 187.776 50.7296 187.904C50.4816 188.024 50.1936 188.084 49.8656 188.084ZM49.8656 187.424C50.2176 187.424 50.4816 187.264 50.6576 186.944C50.8416 186.616 50.9336 186.152 50.9336 185.552C50.9336 184.952 50.8416 184.488 50.6576 184.16C50.4816 183.832 50.2176 183.668 49.8656 183.668C49.5296 183.668 49.2696 183.832 49.0856 184.16C48.9096 184.488 48.8216 184.952 48.8216 185.552C48.8216 186.152 48.9096 186.616 49.0856 186.944C49.2696 187.264 49.5296 187.424 49.8656 187.424Z" fill="#F0DBE2"></path><path d="M67.328 185.228C67.232 185.708 67.068 186.132 66.836 186.5C66.612 186.86 66.336 187.164 66.008 187.412C65.68 187.66 65.308 187.848 64.892 187.976C64.476 188.096 64.032 188.156 63.56 188.156C62.936 188.156 62.38 188.044 61.892 187.82C61.404 187.596 60.988 187.284 60.644 186.884C60.308 186.484 60.052 186.008 59.876 185.456C59.7 184.904 59.612 184.296 59.612 183.632C59.612 182.96 59.708 182.348 59.9 181.796C60.092 181.244 60.364 180.772 60.716 180.38C61.068 179.988 61.492 179.684 61.988 179.468C62.484 179.252 63.04 179.144 63.656 179.144C64.104 179.144 64.528 179.212 64.928 179.348C65.328 179.476 65.684 179.664 65.996 179.912C66.316 180.16 66.584 180.468 66.8 180.836C67.024 181.196 67.184 181.608 67.28 182.072H66.092C66.028 181.8 65.924 181.548 65.78 181.316C65.644 181.084 65.472 180.884 65.264 180.716C65.056 180.548 64.812 180.416 64.532 180.32C64.252 180.224 63.94 180.176 63.596 180.176C63.212 180.176 62.852 180.252 62.516 180.404C62.188 180.548 61.9 180.768 61.652 181.064C61.404 181.352 61.208 181.712 61.064 182.144C60.928 182.576 60.86 183.072 60.86 183.632C60.86 184.184 60.928 184.676 61.064 185.108C61.2 185.54 61.392 185.908 61.64 186.212C61.888 186.508 62.18 186.736 62.516 186.896C62.852 187.048 63.224 187.124 63.632 187.124C64.328 187.124 64.884 186.948 65.3 186.596C65.724 186.244 66.004 185.788 66.14 185.228H67.328ZM72.651 184.892C72.155 184.94 71.707 185 71.307 185.072C70.907 185.136 70.567 185.22 70.287 185.324C70.007 185.42 69.791 185.548 69.639 185.708C69.487 185.86 69.411 186.048 69.411 186.272C69.411 186.576 69.519 186.824 69.735 187.016C69.959 187.2 70.267 187.292 70.659 187.292C70.915 187.292 71.163 187.26 71.403 187.196C71.643 187.124 71.855 187.008 72.039 186.848C72.223 186.68 72.371 186.456 72.483 186.176C72.595 185.896 72.651 185.54 72.651 185.108V184.892ZM70.419 188.156C70.115 188.156 69.827 188.112 69.555 188.024C69.291 187.944 69.055 187.828 68.847 187.676C68.647 187.516 68.487 187.324 68.367 187.1C68.255 186.868 68.199 186.608 68.199 186.32C68.199 185.936 68.303 185.616 68.511 185.36C68.719 185.096 69.011 184.88 69.387 184.712C69.771 184.536 70.231 184.396 70.767 184.292C71.303 184.188 71.903 184.1 72.567 184.028V183.848C72.567 183.544 72.527 183.292 72.447 183.092C72.375 182.892 72.271 182.736 72.135 182.624C71.999 182.504 71.839 182.42 71.655 182.372C71.471 182.324 71.275 182.3 71.067 182.3C70.563 182.3 70.183 182.416 69.927 182.648C69.671 182.872 69.531 183.184 69.507 183.584H68.379C68.403 183.24 68.495 182.932 68.655 182.66C68.815 182.388 69.019 182.16 69.267 181.976C69.515 181.792 69.795 181.652 70.107 181.556C70.419 181.46 70.743 181.412 71.079 181.412C71.975 181.412 72.631 181.62 73.047 182.036C73.463 182.452 73.667 183.124 73.659 184.052L73.647 185.564C73.639 186.108 73.647 186.576 73.671 186.968C73.703 187.352 73.751 187.696 73.815 188H72.711C72.695 187.88 72.679 187.74 72.663 187.58C72.647 187.42 72.635 187.244 72.627 187.052C72.427 187.388 72.151 187.656 71.799 187.856C71.455 188.056 70.995 188.156 70.419 188.156ZM76.3662 181.544V182.564C76.5662 182.22 76.8382 181.948 77.1822 181.748C77.5262 181.54 77.9582 181.436 78.4782 181.436C78.8622 181.436 79.2182 181.512 79.5462 181.664C79.8742 181.816 80.1622 182.036 80.4102 182.324C80.6582 182.612 80.8502 182.964 80.9862 183.38C81.1302 183.796 81.2022 184.268 81.2022 184.796C81.2022 185.332 81.1302 185.808 80.9862 186.224C80.8502 186.64 80.6582 186.992 80.4102 187.28C80.1622 187.568 79.8742 187.788 79.5462 187.94C79.2182 188.084 78.8622 188.156 78.4782 188.156C77.9582 188.156 77.5262 188.056 77.1822 187.856C76.8382 187.648 76.5662 187.372 76.3662 187.028V190.1H75.2742V181.544H76.3662ZM76.3182 184.796C76.3182 185.22 76.3702 185.588 76.4742 185.9C76.5782 186.204 76.7182 186.456 76.8942 186.656C77.0702 186.848 77.2702 186.992 77.4942 187.088C77.7262 187.176 77.9622 187.22 78.2022 187.22C78.7862 187.22 79.2342 187.012 79.5462 186.596C79.8582 186.172 80.0142 185.572 80.0142 184.796C80.0142 184.02 79.8582 183.424 79.5462 183.008C79.2342 182.584 78.7862 182.372 78.2022 182.372C77.9622 182.372 77.7262 182.42 77.4942 182.516C77.2702 182.604 77.0702 182.748 76.8942 182.948C76.7182 183.14 76.5782 183.392 76.4742 183.704C76.3702 184.008 76.3182 184.372 76.3182 184.796ZM83.5732 181.544V188H82.4812V181.544H83.5732ZM83.5732 179.3V180.62H82.4812V179.3H83.5732ZM85.6174 179.924H86.7094V181.544H87.9334V182.42H86.7094V186.248C86.7094 186.416 86.7134 186.556 86.7214 186.668C86.7374 186.772 86.7654 186.856 86.8054 186.92C86.8534 186.984 86.9214 187.028 87.0094 187.052C87.0974 187.076 87.2214 187.088 87.3814 187.088H87.9334V188H87.1414C86.8294 188 86.5734 187.98 86.3734 187.94C86.1814 187.892 86.0294 187.812 85.9174 187.7C85.8054 187.58 85.7254 187.416 85.6774 187.208C85.6374 186.992 85.6174 186.716 85.6174 186.38V182.42H84.5974V181.544H85.6174V179.924ZM93.2878 184.892C92.7918 184.94 92.3438 185 91.9438 185.072C91.5438 185.136 91.2038 185.22 90.9238 185.324C90.6438 185.42 90.4278 185.548 90.2758 185.708C90.1238 185.86 90.0478 186.048 90.0478 186.272C90.0478 186.576 90.1558 186.824 90.3718 187.016C90.5958 187.2 90.9038 187.292 91.2958 187.292C91.5518 187.292 91.7998 187.26 92.0398 187.196C92.2798 187.124 92.4918 187.008 92.6758 186.848C92.8598 186.68 93.0078 186.456 93.1198 186.176C93.2318 185.896 93.2878 185.54 93.2878 185.108V184.892ZM91.0558 188.156C90.7518 188.156 90.4638 188.112 90.1918 188.024C89.9278 187.944 89.6918 187.828 89.4838 187.676C89.2838 187.516 89.1238 187.324 89.0038 187.1C88.8918 186.868 88.8358 186.608 88.8358 186.32C88.8358 185.936 88.9398 185.616 89.1478 185.36C89.3558 185.096 89.6478 184.88 90.0238 184.712C90.4078 184.536 90.8678 184.396 91.4038 184.292C91.9398 184.188 92.5398 184.1 93.2038 184.028V183.848C93.2038 183.544 93.1638 183.292 93.0838 183.092C93.0118 182.892 92.9078 182.736 92.7718 182.624C92.6358 182.504 92.4758 182.42 92.2918 182.372C92.1078 182.324 91.9118 182.3 91.7038 182.3C91.1998 182.3 90.8198 182.416 90.5638 182.648C90.3078 182.872 90.1678 183.184 90.1438 183.584H89.0158C89.0398 183.24 89.1318 182.932 89.2918 182.66C89.4518 182.388 89.6558 182.16 89.9038 181.976C90.1518 181.792 90.4318 181.652 90.7438 181.556C91.0558 181.46 91.3798 181.412 91.7158 181.412C92.6118 181.412 93.2678 181.62 93.6838 182.036C94.0998 182.452 94.3038 183.124 94.2958 184.052L94.2838 185.564C94.2758 186.108 94.2838 186.576 94.3078 186.968C94.3398 187.352 94.3878 187.696 94.4518 188H93.3478C93.3318 187.88 93.3158 187.74 93.2998 187.58C93.2838 187.42 93.2718 187.244 93.2638 187.052C93.0638 187.388 92.7878 187.656 92.4358 187.856C92.0918 188.056 91.6318 188.156 91.0558 188.156ZM97.0029 188H95.9109V179.3H97.0029V188ZM105.663 184.892C105.167 184.94 104.719 185 104.319 185.072C103.919 185.136 103.579 185.22 103.299 185.324C103.019 185.42 102.803 185.548 102.651 185.708C102.499 185.86 102.423 186.048 102.423 186.272C102.423 186.576 102.531 186.824 102.747 187.016C102.971 187.2 103.279 187.292 103.671 187.292C103.927 187.292 104.175 187.26 104.415 187.196C104.655 187.124 104.867 187.008 105.051 186.848C105.235 186.68 105.383 186.456 105.495 186.176C105.607 185.896 105.663 185.54 105.663 185.108V184.892ZM103.431 188.156C103.127 188.156 102.839 188.112 102.567 188.024C102.303 187.944 102.067 187.828 101.859 187.676C101.659 187.516 101.499 187.324 101.379 187.1C101.267 186.868 101.211 186.608 101.211 186.32C101.211 185.936 101.315 185.616 101.523 185.36C101.731 185.096 102.023 184.88 102.399 184.712C102.783 184.536 103.243 184.396 103.779 184.292C104.315 184.188 104.915 184.1 105.579 184.028V183.848C105.579 183.544 105.539 183.292 105.459 183.092C105.387 182.892 105.283 182.736 105.147 182.624C105.011 182.504 104.851 182.42 104.667 182.372C104.483 182.324 104.287 182.3 104.079 182.3C103.575 182.3 103.195 182.416 102.939 182.648C102.683 182.872 102.543 183.184 102.519 183.584H101.391C101.415 183.24 101.507 182.932 101.667 182.66C101.827 182.388 102.031 182.16 102.279 181.976C102.527 181.792 102.807 181.652 103.119 181.556C103.431 181.46 103.755 181.412 104.091 181.412C104.987 181.412 105.643 181.62 106.059 182.036C106.475 182.452 106.679 183.124 106.671 184.052L106.659 185.564C106.651 186.108 106.659 186.576 106.683 186.968C106.715 187.352 106.763 187.696 106.827 188H105.723C105.707 187.88 105.691 187.74 105.675 187.58C105.659 187.42 105.647 187.244 105.639 187.052C105.439 187.388 105.163 187.656 104.811 187.856C104.467 188.056 104.007 188.156 103.431 188.156ZM112.678 179.3H113.77V188H112.678V187.028C112.478 187.372 112.206 187.648 111.862 187.856C111.518 188.056 111.086 188.156 110.566 188.156C110.182 188.156 109.826 188.084 109.498 187.94C109.17 187.788 108.882 187.568 108.634 187.28C108.386 186.992 108.19 186.64 108.046 186.224C107.91 185.808 107.842 185.332 107.842 184.796C107.842 184.268 107.91 183.796 108.046 183.38C108.19 182.964 108.386 182.612 108.634 182.324C108.882 182.036 109.17 181.816 109.498 181.664C109.826 181.512 110.182 181.436 110.566 181.436C111.086 181.436 111.518 181.54 111.862 181.748C112.206 181.948 112.478 182.22 112.678 182.564V179.3ZM112.726 184.796C112.726 184.372 112.674 184.008 112.57 183.704C112.466 183.392 112.326 183.14 112.15 182.948C111.974 182.748 111.77 182.604 111.538 182.516C111.314 182.42 111.082 182.372 110.842 182.372C110.258 182.372 109.81 182.584 109.498 183.008C109.186 183.424 109.03 184.02 109.03 184.796C109.03 185.572 109.186 186.172 109.498 186.596C109.81 187.012 110.258 187.22 110.842 187.22C111.082 187.22 111.314 187.176 111.538 187.088C111.77 186.992 111.974 186.848 112.15 186.656C112.326 186.456 112.466 186.204 112.57 185.9C112.674 185.588 112.726 185.22 112.726 184.796ZM117.593 186.488L119.345 181.544H120.473L118.037 188H117.065L114.629 181.544H115.841L117.593 186.488ZM125.186 184.892C124.69 184.94 124.242 185 123.842 185.072C123.442 185.136 123.102 185.22 122.822 185.324C122.542 185.42 122.326 185.548 122.174 185.708C122.022 185.86 121.946 186.048 121.946 186.272C121.946 186.576 122.054 186.824 122.27 187.016C122.494 187.2 122.802 187.292 123.194 187.292C123.45 187.292 123.698 187.26 123.938 187.196C124.178 187.124 124.39 187.008 124.574 186.848C124.758 186.68 124.906 186.456 125.018 186.176C125.13 185.896 125.186 185.54 125.186 185.108V184.892ZM122.954 188.156C122.65 188.156 122.362 188.112 122.09 188.024C121.826 187.944 121.59 187.828 121.382 187.676C121.182 187.516 121.022 187.324 120.902 187.1C120.79 186.868 120.734 186.608 120.734 186.32C120.734 185.936 120.838 185.616 121.046 185.36C121.254 185.096 121.546 184.88 121.922 184.712C122.306 184.536 122.766 184.396 123.302 184.292C123.838 184.188 124.438 184.1 125.102 184.028V183.848C125.102 183.544 125.062 183.292 124.982 183.092C124.91 182.892 124.806 182.736 124.67 182.624C124.534 182.504 124.374 182.42 124.19 182.372C124.006 182.324 123.81 182.3 123.602 182.3C123.098 182.3 122.718 182.416 122.462 182.648C122.206 182.872 122.066 183.184 122.042 183.584H120.914C120.938 183.24 121.03 182.932 121.19 182.66C121.35 182.388 121.554 182.16 121.802 181.976C122.05 181.792 122.33 181.652 122.642 181.556C122.954 181.46 123.278 181.412 123.614 181.412C124.51 181.412 125.166 181.62 125.582 182.036C125.998 182.452 126.202 183.124 126.194 184.052L126.182 185.564C126.174 186.108 126.182 186.576 126.206 186.968C126.238 187.352 126.286 187.696 126.35 188H125.246C125.23 187.88 125.214 187.74 125.198 187.58C125.182 187.42 125.17 187.244 125.162 187.052C124.962 187.388 124.686 187.656 124.334 187.856C123.99 188.056 123.53 188.156 122.954 188.156ZM128.901 182.516C129.085 182.212 129.341 181.956 129.669 181.748C130.005 181.54 130.445 181.436 130.989 181.436C131.381 181.436 131.709 181.496 131.973 181.616C132.245 181.736 132.465 181.908 132.633 182.132C132.801 182.348 132.921 182.608 132.993 182.912C133.073 183.216 133.113 183.552 133.113 183.92V188H132.021V184.244C132.021 183.996 132.005 183.76 131.973 183.536C131.941 183.312 131.877 183.116 131.781 182.948C131.685 182.772 131.541 182.636 131.349 182.54C131.165 182.436 130.917 182.384 130.605 182.384C130.077 182.384 129.661 182.564 129.357 182.924C129.053 183.276 128.901 183.8 128.901 184.496V188H127.809V181.544H128.901V182.516ZM137.387 181.436C137.787 181.436 138.143 181.504 138.455 181.64C138.767 181.768 139.035 181.94 139.259 182.156C139.483 182.372 139.659 182.616 139.787 182.888C139.923 183.16 140.011 183.432 140.051 183.704H138.947C138.867 183.32 138.683 183.008 138.395 182.768C138.115 182.52 137.755 182.396 137.315 182.396C137.059 182.396 136.819 182.444 136.595 182.54C136.379 182.636 136.187 182.784 136.019 182.984C135.859 183.176 135.731 183.42 135.635 183.716C135.539 184.012 135.491 184.364 135.491 184.772C135.491 185.18 135.539 185.536 135.635 185.84C135.731 186.144 135.863 186.396 136.031 186.596C136.199 186.796 136.391 186.948 136.607 187.052C136.831 187.148 137.067 187.196 137.315 187.196C137.555 187.196 137.767 187.16 137.951 187.088C138.143 187.016 138.307 186.92 138.443 186.8C138.587 186.68 138.703 186.544 138.791 186.392C138.887 186.232 138.955 186.068 138.995 185.9H140.123C140.067 186.204 139.959 186.492 139.799 186.764C139.639 187.036 139.435 187.276 139.187 187.484C138.947 187.692 138.663 187.856 138.335 187.976C138.015 188.096 137.663 188.156 137.279 188.156C136.807 188.156 136.387 188.072 136.019 187.904C135.651 187.736 135.339 187.504 135.083 187.208C134.827 186.912 134.631 186.56 134.495 186.152C134.367 185.736 134.303 185.28 134.303 184.784C134.303 184.304 134.371 183.86 134.507 183.452C134.651 183.044 134.855 182.692 135.119 182.396C135.383 182.092 135.703 181.856 136.079 181.688C136.463 181.52 136.899 181.436 137.387 181.436ZM144.103 188.156C143.583 188.156 143.127 188.072 142.735 187.904C142.351 187.728 142.027 187.488 141.763 187.184C141.499 186.88 141.299 186.524 141.163 186.116C141.035 185.708 140.971 185.264 140.971 184.784C140.971 184.272 141.047 183.812 141.199 183.404C141.359 182.988 141.575 182.636 141.847 182.348C142.127 182.052 142.455 181.828 142.831 181.676C143.207 181.516 143.619 181.436 144.067 181.436C144.563 181.436 145.003 181.532 145.387 181.724C145.779 181.916 146.103 182.18 146.359 182.516C146.615 182.852 146.799 183.244 146.911 183.692C147.031 184.14 147.075 184.62 147.043 185.132H142.159C142.159 185.452 142.207 185.74 142.303 185.996C142.407 186.252 142.547 186.468 142.723 186.644C142.899 186.82 143.103 186.956 143.335 187.052C143.567 187.148 143.815 187.196 144.079 187.196C144.583 187.196 144.967 187.1 145.231 186.908C145.495 186.708 145.695 186.448 145.831 186.128H146.959C146.887 186.408 146.771 186.672 146.611 186.92C146.451 187.16 146.251 187.372 146.011 187.556C145.779 187.74 145.503 187.888 145.183 188C144.863 188.104 144.503 188.156 144.103 188.156ZM144.067 182.372C143.515 182.372 143.067 182.532 142.723 182.852C142.379 183.164 142.195 183.612 142.171 184.196H145.891C145.883 183.972 145.839 183.752 145.759 183.536C145.679 183.312 145.563 183.116 145.411 182.948C145.259 182.772 145.071 182.632 144.847 182.528C144.623 182.424 144.363 182.372 144.067 182.372ZM152.779 179.3H153.871V188H152.779V187.028C152.579 187.372 152.307 187.648 151.963 187.856C151.619 188.056 151.187 188.156 150.667 188.156C150.283 188.156 149.927 188.084 149.599 187.94C149.271 187.788 148.983 187.568 148.735 187.28C148.487 186.992 148.291 186.64 148.147 186.224C148.011 185.808 147.943 185.332 147.943 184.796C147.943 184.268 148.011 183.796 148.147 183.38C148.291 182.964 148.487 182.612 148.735 182.324C148.983 182.036 149.271 181.816 149.599 181.664C149.927 181.512 150.283 181.436 150.667 181.436C151.187 181.436 151.619 181.54 151.963 181.748C152.307 181.948 152.579 182.22 152.779 182.564V179.3ZM152.827 184.796C152.827 184.372 152.775 184.008 152.671 183.704C152.567 183.392 152.427 183.14 152.251 182.948C152.075 182.748 151.871 182.604 151.639 182.516C151.415 182.42 151.183 182.372 150.943 182.372C150.359 182.372 149.911 182.584 149.599 183.008C149.287 183.424 149.131 184.02 149.131 184.796C149.131 185.572 149.287 186.172 149.599 186.596C149.911 187.012 150.359 187.22 150.943 187.22C151.183 187.22 151.415 187.176 151.639 187.088C151.871 186.992 152.075 186.848 152.251 186.656C152.427 186.456 152.567 186.204 152.671 185.9C152.775 185.588 152.827 185.22 152.827 184.796Z" fill="#F0DBE2" fill-opacity="0.5"></path><path d="M204.351 185.228C204.255 185.708 204.091 186.132 203.859 186.5C203.635 186.86 203.359 187.164 203.031 187.412C202.703 187.66 202.331 187.848 201.915 187.976C201.499 188.096 201.055 188.156 200.583 188.156C199.959 188.156 199.403 188.044 198.915 187.82C198.427 187.596 198.011 187.284 197.667 186.884C197.331 186.484 197.075 186.008 196.899 185.456C196.723 184.904 196.635 184.296 196.635 183.632C196.635 182.96 196.731 182.348 196.923 181.796C197.115 181.244 197.387 180.772 197.739 180.38C198.091 179.988 198.515 179.684 199.011 179.468C199.507 179.252 200.063 179.144 200.679 179.144C201.127 179.144 201.551 179.212 201.951 179.348C202.351 179.476 202.707 179.664 203.019 179.912C203.339 180.16 203.607 180.468 203.823 180.836C204.047 181.196 204.207 181.608 204.303 182.072H203.115C203.051 181.8 202.947 181.548 202.803 181.316C202.667 181.084 202.495 180.884 202.287 180.716C202.079 180.548 201.835 180.416 201.555 180.32C201.275 180.224 200.963 180.176 200.619 180.176C200.235 180.176 199.875 180.252 199.539 180.404C199.211 180.548 198.923 180.768 198.675 181.064C198.427 181.352 198.231 181.712 198.087 182.144C197.951 182.576 197.883 183.072 197.883 183.632C197.883 184.184 197.951 184.676 198.087 185.108C198.223 185.54 198.415 185.908 198.663 186.212C198.911 186.508 199.203 186.736 199.539 186.896C199.875 187.048 200.247 187.124 200.655 187.124C201.351 187.124 201.907 186.948 202.323 186.596C202.747 186.244 203.027 185.788 203.163 185.228H204.351ZM209.674 184.892C209.178 184.94 208.73 185 208.33 185.072C207.93 185.136 207.59 185.22 207.31 185.324C207.03 185.42 206.814 185.548 206.662 185.708C206.51 185.86 206.434 186.048 206.434 186.272C206.434 186.576 206.542 186.824 206.758 187.016C206.982 187.2 207.29 187.292 207.682 187.292C207.938 187.292 208.186 187.26 208.426 187.196C208.666 187.124 208.878 187.008 209.062 186.848C209.246 186.68 209.394 186.456 209.506 186.176C209.618 185.896 209.674 185.54 209.674 185.108V184.892ZM207.442 188.156C207.138 188.156 206.85 188.112 206.578 188.024C206.314 187.944 206.078 187.828 205.87 187.676C205.67 187.516 205.51 187.324 205.39 187.1C205.278 186.868 205.222 186.608 205.222 186.32C205.222 185.936 205.326 185.616 205.534 185.36C205.742 185.096 206.034 184.88 206.41 184.712C206.794 184.536 207.254 184.396 207.79 184.292C208.326 184.188 208.926 184.1 209.59 184.028V183.848C209.59 183.544 209.55 183.292 209.47 183.092C209.398 182.892 209.294 182.736 209.158 182.624C209.022 182.504 208.862 182.42 208.678 182.372C208.494 182.324 208.298 182.3 208.09 182.3C207.586 182.3 207.206 182.416 206.95 182.648C206.694 182.872 206.554 183.184 206.53 183.584H205.402C205.426 183.24 205.518 182.932 205.678 182.66C205.838 182.388 206.042 182.16 206.29 181.976C206.538 181.792 206.818 181.652 207.13 181.556C207.442 181.46 207.766 181.412 208.102 181.412C208.998 181.412 209.654 181.62 210.07 182.036C210.486 182.452 210.69 183.124 210.682 184.052L210.67 185.564C210.662 186.108 210.67 186.576 210.694 186.968C210.726 187.352 210.774 187.696 210.838 188H209.734C209.718 187.88 209.702 187.74 209.686 187.58C209.67 187.42 209.658 187.244 209.65 187.052C209.45 187.388 209.174 187.656 208.822 187.856C208.478 188.056 208.018 188.156 207.442 188.156ZM213.39 181.544V182.564C213.59 182.22 213.862 181.948 214.206 181.748C214.55 181.54 214.982 181.436 215.502 181.436C215.886 181.436 216.242 181.512 216.57 181.664C216.898 181.816 217.186 182.036 217.434 182.324C217.682 182.612 217.874 182.964 218.01 183.38C218.154 183.796 218.226 184.268 218.226 184.796C218.226 185.332 218.154 185.808 218.01 186.224C217.874 186.64 217.682 186.992 217.434 187.28C217.186 187.568 216.898 187.788 216.57 187.94C216.242 188.084 215.886 188.156 215.502 188.156C214.982 188.156 214.55 188.056 214.206 187.856C213.862 187.648 213.59 187.372 213.39 187.028V190.1H212.298V181.544H213.39ZM213.342 184.796C213.342 185.22 213.394 185.588 213.498 185.9C213.602 186.204 213.742 186.456 213.918 186.656C214.094 186.848 214.294 186.992 214.518 187.088C214.75 187.176 214.986 187.22 215.226 187.22C215.81 187.22 216.258 187.012 216.57 186.596C216.882 186.172 217.038 185.572 217.038 184.796C217.038 184.02 216.882 183.424 216.57 183.008C216.258 182.584 215.81 182.372 215.226 182.372C214.986 182.372 214.75 182.42 214.518 182.516C214.294 182.604 214.094 182.748 213.918 182.948C213.742 183.14 213.602 183.392 213.498 183.704C213.394 184.008 213.342 184.372 213.342 184.796ZM220.597 181.544V188H219.505V181.544H220.597ZM220.597 179.3V180.62H219.505V179.3H220.597ZM222.641 179.924H223.733V181.544H224.957V182.42H223.733V186.248C223.733 186.416 223.737 186.556 223.745 186.668C223.761 186.772 223.789 186.856 223.829 186.92C223.877 186.984 223.945 187.028 224.033 187.052C224.121 187.076 224.245 187.088 224.405 187.088H224.957V188H224.165C223.853 188 223.597 187.98 223.397 187.94C223.205 187.892 223.053 187.812 222.941 187.7C222.829 187.58 222.749 187.416 222.701 187.208C222.661 186.992 222.641 186.716 222.641 186.38V182.42H221.621V181.544H222.641V179.924ZM230.311 184.892C229.815 184.94 229.367 185 228.967 185.072C228.567 185.136 228.227 185.22 227.947 185.324C227.667 185.42 227.451 185.548 227.299 185.708C227.147 185.86 227.071 186.048 227.071 186.272C227.071 186.576 227.179 186.824 227.395 187.016C227.619 187.2 227.927 187.292 228.319 187.292C228.575 187.292 228.823 187.26 229.063 187.196C229.303 187.124 229.515 187.008 229.699 186.848C229.883 186.68 230.031 186.456 230.143 186.176C230.255 185.896 230.311 185.54 230.311 185.108V184.892ZM228.079 188.156C227.775 188.156 227.487 188.112 227.215 188.024C226.951 187.944 226.715 187.828 226.507 187.676C226.307 187.516 226.147 187.324 226.027 187.1C225.915 186.868 225.859 186.608 225.859 186.32C225.859 185.936 225.963 185.616 226.171 185.36C226.379 185.096 226.671 184.88 227.047 184.712C227.431 184.536 227.891 184.396 228.427 184.292C228.963 184.188 229.563 184.1 230.227 184.028V183.848C230.227 183.544 230.187 183.292 230.107 183.092C230.035 182.892 229.931 182.736 229.795 182.624C229.659 182.504 229.499 182.42 229.315 182.372C229.131 182.324 228.935 182.3 228.727 182.3C228.223 182.3 227.843 182.416 227.587 182.648C227.331 182.872 227.191 183.184 227.167 183.584H226.039C226.063 183.24 226.155 182.932 226.315 182.66C226.475 182.388 226.679 182.16 226.927 181.976C227.175 181.792 227.455 181.652 227.767 181.556C228.079 181.46 228.403 181.412 228.739 181.412C229.635 181.412 230.291 181.62 230.707 182.036C231.123 182.452 231.327 183.124 231.319 184.052L231.307 185.564C231.299 186.108 231.307 186.576 231.331 186.968C231.363 187.352 231.411 187.696 231.475 188H230.371C230.355 187.88 230.339 187.74 230.323 187.58C230.307 187.42 230.295 187.244 230.287 187.052C230.087 187.388 229.811 187.656 229.459 187.856C229.115 188.056 228.655 188.156 228.079 188.156ZM234.026 188H232.934V179.3H234.026V188ZM242.686 184.892C242.19 184.94 241.742 185 241.342 185.072C240.942 185.136 240.602 185.22 240.322 185.324C240.042 185.42 239.826 185.548 239.674 185.708C239.522 185.86 239.446 186.048 239.446 186.272C239.446 186.576 239.554 186.824 239.77 187.016C239.994 187.2 240.302 187.292 240.694 187.292C240.95 187.292 241.198 187.26 241.438 187.196C241.678 187.124 241.89 187.008 242.074 186.848C242.258 186.68 242.406 186.456 242.518 186.176C242.63 185.896 242.686 185.54 242.686 185.108V184.892ZM240.454 188.156C240.15 188.156 239.862 188.112 239.59 188.024C239.326 187.944 239.09 187.828 238.882 187.676C238.682 187.516 238.522 187.324 238.402 187.1C238.29 186.868 238.234 186.608 238.234 186.32C238.234 185.936 238.338 185.616 238.546 185.36C238.754 185.096 239.046 184.88 239.422 184.712C239.806 184.536 240.266 184.396 240.802 184.292C241.338 184.188 241.938 184.1 242.602 184.028V183.848C242.602 183.544 242.562 183.292 242.482 183.092C242.41 182.892 242.306 182.736 242.17 182.624C242.034 182.504 241.874 182.42 241.69 182.372C241.506 182.324 241.31 182.3 241.102 182.3C240.598 182.3 240.218 182.416 239.962 182.648C239.706 182.872 239.566 183.184 239.542 183.584H238.414C238.438 183.24 238.53 182.932 238.69 182.66C238.85 182.388 239.054 182.16 239.302 181.976C239.55 181.792 239.83 181.652 240.142 181.556C240.454 181.46 240.778 181.412 241.114 181.412C242.01 181.412 242.666 181.62 243.082 182.036C243.498 182.452 243.702 183.124 243.694 184.052L243.682 185.564C243.674 186.108 243.682 186.576 243.706 186.968C243.738 187.352 243.786 187.696 243.85 188H242.746C242.73 187.88 242.714 187.74 242.698 187.58C242.682 187.42 242.67 187.244 242.662 187.052C242.462 187.388 242.186 187.656 241.834 187.856C241.49 188.056 241.03 188.156 240.454 188.156ZM247.351 186.488L249.103 181.544H250.231L247.795 188H246.823L244.387 181.544H245.599L247.351 186.488ZM254.944 184.892C254.448 184.94 254 185 253.6 185.072C253.2 185.136 252.86 185.22 252.58 185.324C252.3 185.42 252.084 185.548 251.932 185.708C251.78 185.86 251.704 186.048 251.704 186.272C251.704 186.576 251.812 186.824 252.028 187.016C252.252 187.2 252.56 187.292 252.952 187.292C253.208 187.292 253.456 187.26 253.696 187.196C253.936 187.124 254.148 187.008 254.332 186.848C254.516 186.68 254.664 186.456 254.776 186.176C254.888 185.896 254.944 185.54 254.944 185.108V184.892ZM252.712 188.156C252.408 188.156 252.12 188.112 251.848 188.024C251.584 187.944 251.348 187.828 251.14 187.676C250.94 187.516 250.78 187.324 250.66 187.1C250.548 186.868 250.492 186.608 250.492 186.32C250.492 185.936 250.596 185.616 250.804 185.36C251.012 185.096 251.304 184.88 251.68 184.712C252.064 184.536 252.524 184.396 253.06 184.292C253.596 184.188 254.196 184.1 254.86 184.028V183.848C254.86 183.544 254.82 183.292 254.74 183.092C254.668 182.892 254.564 182.736 254.428 182.624C254.292 182.504 254.132 182.42 253.948 182.372C253.764 182.324 253.568 182.3 253.36 182.3C252.856 182.3 252.476 182.416 252.22 182.648C251.964 182.872 251.824 183.184 251.8 183.584H250.672C250.696 183.24 250.788 182.932 250.948 182.66C251.108 182.388 251.312 182.16 251.56 181.976C251.808 181.792 252.088 181.652 252.4 181.556C252.712 181.46 253.036 181.412 253.372 181.412C254.268 181.412 254.924 181.62 255.34 182.036C255.756 182.452 255.96 183.124 255.952 184.052L255.94 185.564C255.932 186.108 255.94 186.576 255.964 186.968C255.996 187.352 256.044 187.696 256.108 188H255.004C254.988 187.88 254.972 187.74 254.956 187.58C254.94 187.42 254.928 187.244 254.92 187.052C254.72 187.388 254.444 187.656 254.092 187.856C253.748 188.056 253.288 188.156 252.712 188.156ZM258.659 181.544V188H257.567V181.544H258.659ZM258.659 179.3V180.62H257.567V179.3H258.659ZM261.483 188H260.391V179.3H261.483V188ZM267.296 184.892C266.8 184.94 266.352 185 265.952 185.072C265.552 185.136 265.212 185.22 264.932 185.324C264.652 185.42 264.436 185.548 264.284 185.708C264.132 185.86 264.056 186.048 264.056 186.272C264.056 186.576 264.164 186.824 264.38 187.016C264.604 187.2 264.912 187.292 265.304 187.292C265.56 187.292 265.808 187.26 266.048 187.196C266.288 187.124 266.5 187.008 266.684 186.848C266.868 186.68 267.016 186.456 267.128 186.176C267.24 185.896 267.296 185.54 267.296 185.108V184.892ZM265.064 188.156C264.76 188.156 264.472 188.112 264.2 188.024C263.936 187.944 263.7 187.828 263.492 187.676C263.292 187.516 263.132 187.324 263.012 187.1C262.9 186.868 262.844 186.608 262.844 186.32C262.844 185.936 262.948 185.616 263.156 185.36C263.364 185.096 263.656 184.88 264.032 184.712C264.416 184.536 264.876 184.396 265.412 184.292C265.948 184.188 266.548 184.1 267.212 184.028V183.848C267.212 183.544 267.172 183.292 267.092 183.092C267.02 182.892 266.916 182.736 266.78 182.624C266.644 182.504 266.484 182.42 266.3 182.372C266.116 182.324 265.92 182.3 265.712 182.3C265.208 182.3 264.828 182.416 264.572 182.648C264.316 182.872 264.176 183.184 264.152 183.584H263.024C263.048 183.24 263.14 182.932 263.3 182.66C263.46 182.388 263.664 182.16 263.912 181.976C264.16 181.792 264.44 181.652 264.752 181.556C265.064 181.46 265.388 181.412 265.724 181.412C266.62 181.412 267.276 181.62 267.692 182.036C268.108 182.452 268.312 183.124 268.304 184.052L268.292 185.564C268.284 186.108 268.292 186.576 268.316 186.968C268.348 187.352 268.396 187.696 268.46 188H267.356C267.34 187.88 267.324 187.74 267.308 187.58C267.292 187.42 267.28 187.244 267.272 187.052C267.072 187.388 266.796 187.656 266.444 187.856C266.1 188.056 265.64 188.156 265.064 188.156ZM270.963 184.796C270.963 185.22 271.015 185.588 271.119 185.9C271.223 186.204 271.363 186.456 271.539 186.656C271.715 186.848 271.915 186.992 272.139 187.088C272.371 187.176 272.607 187.22 272.847 187.22C273.431 187.22 273.879 187.012 274.191 186.596C274.503 186.172 274.659 185.572 274.659 184.796C274.659 184.02 274.503 183.424 274.191 183.008C273.879 182.584 273.431 182.372 272.847 182.372C272.607 182.372 272.371 182.42 272.139 182.516C271.915 182.604 271.715 182.748 271.539 182.948C271.363 183.14 271.223 183.392 271.119 183.704C271.015 184.008 270.963 184.372 270.963 184.796ZM271.011 179.3V182.564C271.211 182.22 271.483 181.948 271.827 181.748C272.171 181.54 272.603 181.436 273.123 181.436C273.507 181.436 273.863 181.512 274.191 181.664C274.519 181.816 274.807 182.036 275.055 182.324C275.303 182.612 275.495 182.964 275.631 183.38C275.775 183.796 275.847 184.268 275.847 184.796C275.847 185.332 275.775 185.808 275.631 186.224C275.495 186.64 275.303 186.992 275.055 187.28C274.807 187.568 274.519 187.788 274.191 187.94C273.863 188.084 273.507 188.156 273.123 188.156C272.603 188.156 272.171 188.056 271.827 187.856C271.483 187.648 271.211 187.372 271.011 187.028V188H269.919V179.3H271.011ZM278.218 188H277.126V179.3H278.218V188ZM282.638 188.156C282.118 188.156 281.662 188.072 281.27 187.904C280.886 187.728 280.562 187.488 280.298 187.184C280.034 186.88 279.834 186.524 279.698 186.116C279.57 185.708 279.506 185.264 279.506 184.784C279.506 184.272 279.582 183.812 279.734 183.404C279.894 182.988 280.11 182.636 280.382 182.348C280.662 182.052 280.99 181.828 281.366 181.676C281.742 181.516 282.154 181.436 282.602 181.436C283.098 181.436 283.538 181.532 283.922 181.724C284.314 181.916 284.638 182.18 284.894 182.516C285.15 182.852 285.334 183.244 285.446 183.692C285.566 184.14 285.61 184.62 285.578 185.132H280.694C280.694 185.452 280.742 185.74 280.838 185.996C280.942 186.252 281.082 186.468 281.258 186.644C281.434 186.82 281.638 186.956 281.87 187.052C282.102 187.148 282.35 187.196 282.614 187.196C283.118 187.196 283.502 187.1 283.766 186.908C284.03 186.708 284.23 186.448 284.366 186.128H285.494C285.422 186.408 285.306 186.672 285.146 186.92C284.986 187.16 284.786 187.372 284.546 187.556C284.314 187.74 284.038 187.888 283.718 188C283.398 188.104 283.038 188.156 282.638 188.156ZM282.602 182.372C282.05 182.372 281.602 182.532 281.258 182.852C280.914 183.164 280.73 183.612 280.706 184.196H284.426C284.418 183.972 284.374 183.752 284.294 183.536C284.214 183.312 284.098 183.116 283.946 182.948C283.794 182.772 283.606 182.632 283.382 182.528C283.158 182.424 282.898 182.372 282.602 182.372Z" fill="#F0DBE2" fill-opacity="0.5"></path><path d="M296.814 187.244C297.39 187.244 297.862 187.1 298.23 186.812C298.598 186.524 298.782 186.108 298.782 185.564C298.782 185.252 298.714 184.992 298.578 184.784C298.45 184.568 298.274 184.396 298.05 184.268C297.826 184.14 297.558 184.048 297.246 183.992C296.942 183.936 296.618 183.908 296.274 183.908H296.094V182.912H296.238C296.998 182.912 297.574 182.8 297.966 182.576C298.358 182.352 298.554 181.984 298.554 181.472C298.554 181.24 298.51 181.036 298.422 180.86C298.334 180.684 298.21 180.536 298.05 180.416C297.898 180.296 297.718 180.208 297.51 180.152C297.31 180.088 297.094 180.056 296.862 180.056C296.278 180.056 295.826 180.216 295.506 180.536C295.194 180.848 295.014 181.252 294.966 181.748H293.838C293.87 181.364 293.962 181.012 294.114 180.692C294.266 180.372 294.47 180.1 294.726 179.876C294.982 179.644 295.29 179.464 295.65 179.336C296.018 179.208 296.43 179.144 296.886 179.144C297.262 179.144 297.618 179.184 297.954 179.264C298.298 179.344 298.598 179.472 298.854 179.648C299.118 179.824 299.326 180.052 299.478 180.332C299.63 180.612 299.706 180.952 299.706 181.352C299.706 181.8 299.582 182.204 299.334 182.564C299.094 182.916 298.746 183.184 298.29 183.368C298.61 183.472 298.878 183.6 299.094 183.752C299.31 183.904 299.478 184.076 299.598 184.268C299.726 184.46 299.814 184.668 299.862 184.892C299.918 185.108 299.946 185.328 299.946 185.552C299.946 185.992 299.858 186.376 299.682 186.704C299.514 187.024 299.286 187.292 298.998 187.508C298.71 187.724 298.374 187.888 297.99 188C297.614 188.104 297.218 188.156 296.802 188.156C296.29 188.156 295.846 188.084 295.47 187.94C295.094 187.788 294.778 187.588 294.522 187.34C294.274 187.092 294.082 186.804 293.946 186.476C293.818 186.14 293.738 185.792 293.706 185.432H294.834C294.898 185.968 295.09 186.404 295.41 186.74C295.73 187.076 296.198 187.244 296.814 187.244ZM304.947 187.244C305.211 187.244 305.459 187.2 305.691 187.112C305.923 187.016 306.127 186.88 306.303 186.704C306.487 186.52 306.631 186.3 306.735 186.044C306.839 185.78 306.891 185.48 306.891 185.144C306.891 184.784 306.831 184.476 306.711 184.22C306.599 183.956 306.451 183.74 306.267 183.572C306.083 183.404 305.875 183.28 305.643 183.2C305.411 183.12 305.175 183.08 304.935 183.08C304.711 183.08 304.507 183.112 304.323 183.176C304.139 183.232 303.975 183.308 303.831 183.404C303.687 183.492 303.567 183.596 303.471 183.716C303.375 183.828 303.303 183.936 303.255 184.04L302.163 183.98L302.727 179.3H307.719V180.32H303.615L303.315 182.792C303.547 182.568 303.827 182.404 304.155 182.3C304.483 182.188 304.827 182.132 305.187 182.132C305.571 182.132 305.935 182.2 306.279 182.336C306.623 182.464 306.923 182.656 307.179 182.912C307.443 183.168 307.651 183.484 307.803 183.86C307.963 184.228 308.043 184.652 308.043 185.132C308.043 185.628 307.955 186.068 307.779 186.452C307.611 186.828 307.383 187.144 307.095 187.4C306.815 187.648 306.487 187.836 306.111 187.964C305.743 188.092 305.355 188.156 304.947 188.156C304.443 188.156 304.007 188.084 303.639 187.94C303.271 187.788 302.959 187.592 302.703 187.352C302.455 187.104 302.259 186.82 302.115 186.5C301.979 186.172 301.891 185.832 301.851 185.48H302.979C303.067 186.032 303.263 186.464 303.567 186.776C303.879 187.088 304.339 187.244 304.947 187.244ZM311.423 184.28C311.095 184.28 310.807 184.22 310.559 184.1C310.319 183.972 310.119 183.796 309.959 183.572C309.799 183.348 309.675 183.084 309.587 182.78C309.507 182.468 309.467 182.124 309.467 181.748C309.467 181.38 309.507 181.04 309.587 180.728C309.675 180.416 309.799 180.148 309.959 179.924C310.119 179.7 310.319 179.528 310.559 179.408C310.807 179.28 311.095 179.216 311.423 179.216C311.751 179.216 312.039 179.28 312.287 179.408C312.535 179.528 312.739 179.7 312.899 179.924C313.067 180.148 313.191 180.416 313.271 180.728C313.359 181.04 313.403 181.38 313.403 181.748C313.403 182.124 313.359 182.468 313.271 182.78C313.191 183.084 313.067 183.348 312.899 183.572C312.739 183.796 312.535 183.972 312.287 184.1C312.039 184.22 311.751 184.28 311.423 184.28ZM311.423 183.62C311.775 183.62 312.039 183.46 312.215 183.14C312.399 182.812 312.491 182.348 312.491 181.748C312.491 181.148 312.399 180.684 312.215 180.356C312.039 180.028 311.775 179.864 311.423 179.864C311.087 179.864 310.827 180.028 310.643 180.356C310.467 180.684 310.379 181.148 310.379 181.748C310.379 182.348 310.467 182.812 310.643 183.14C310.827 183.46 311.087 183.62 311.423 183.62ZM311.411 188L317.411 179.3H318.623L312.623 188H311.411ZM318.623 188.084C318.295 188.084 318.007 188.024 317.759 187.904C317.519 187.776 317.319 187.6 317.159 187.376C316.999 187.152 316.875 186.888 316.787 186.584C316.707 186.272 316.667 185.928 316.667 185.552C316.667 185.184 316.707 184.844 316.787 184.532C316.875 184.22 316.999 183.952 317.159 183.728C317.319 183.504 317.519 183.332 317.759 183.212C318.007 183.084 318.295 183.02 318.623 183.02C318.951 183.02 319.239 183.084 319.487 183.212C319.735 183.332 319.939 183.504 320.099 183.728C320.267 183.952 320.391 184.22 320.471 184.532C320.559 184.844 320.603 185.184 320.603 185.552C320.603 185.928 320.559 186.272 320.471 186.584C320.391 186.888 320.267 187.152 320.099 187.376C319.939 187.6 319.735 187.776 319.487 187.904C319.239 188.024 318.951 188.084 318.623 188.084ZM318.623 187.424C318.975 187.424 319.239 187.264 319.415 186.944C319.599 186.616 319.691 186.152 319.691 185.552C319.691 184.952 319.599 184.488 319.415 184.16C319.239 183.832 318.975 183.668 318.623 183.668C318.287 183.668 318.027 183.832 317.843 184.16C317.667 184.488 317.579 184.952 317.579 185.552C317.579 186.152 317.667 186.616 317.843 186.944C318.027 187.264 318.287 187.424 318.623 187.424Z" fill="#F0DBE2"></path><mask id="path-13-outside-1_10614_28031" maskUnits="userSpaceOnUse" x="0" y="215" width="345" height="81" fill="black"><rect fill="white" y="215" width="345" height="81"></rect><path d="M0 216H345V296H0V216Z"></path></mask><path d="M0 216V217H345V216V215H0V216Z" fill="#F0DBE2" fill-opacity="0.1" mask="url(#path-13-outside-1_10614_28031)"></path><rect width="345" height="80" transform="translate(0 216)" fill="#240F16"></rect><path d="M24 256C24 247.163 31.1634 240 40 240H305C313.837 240 321 247.163 321 256V256C321 264.837 313.837 272 305 272H40C31.1634 272 24 264.837 24 256V256Z" fill="#E61A5D"></path><path d="M135.228 251.3H136.644L139.92 260H138.6L137.916 258.116H133.92L133.248 260H132L135.228 251.3ZM134.292 257.072H137.532L135.9 252.536L134.292 257.072ZM143.484 253.436C143.884 253.436 144.24 253.504 144.552 253.64C144.864 253.768 145.132 253.94 145.356 254.156C145.58 254.372 145.756 254.616 145.884 254.888C146.02 255.16 146.108 255.432 146.148 255.704H145.044C144.964 255.32 144.78 255.008 144.492 254.768C144.212 254.52 143.852 254.396 143.412 254.396C143.156 254.396 142.916 254.444 142.692 254.54C142.476 254.636 142.284 254.784 142.116 254.984C141.956 255.176 141.828 255.42 141.732 255.716C141.636 256.012 141.588 256.364 141.588 256.772C141.588 257.18 141.636 257.536 141.732 257.84C141.828 258.144 141.96 258.396 142.128 258.596C142.296 258.796 142.488 258.948 142.704 259.052C142.928 259.148 143.164 259.196 143.412 259.196C143.652 259.196 143.864 259.16 144.048 259.088C144.24 259.016 144.404 258.92 144.54 258.8C144.684 258.68 144.8 258.544 144.888 258.392C144.984 258.232 145.052 258.068 145.092 257.9H146.22C146.164 258.204 146.056 258.492 145.896 258.764C145.736 259.036 145.532 259.276 145.284 259.484C145.044 259.692 144.76 259.856 144.432 259.976C144.112 260.096 143.76 260.156 143.376 260.156C142.904 260.156 142.484 260.072 142.116 259.904C141.748 259.736 141.436 259.504 141.18 259.208C140.924 258.912 140.728 258.56 140.592 258.152C140.464 257.736 140.4 257.28 140.4 256.784C140.4 256.304 140.468 255.86 140.604 255.452C140.748 255.044 140.952 254.692 141.216 254.396C141.48 254.092 141.8 253.856 142.176 253.688C142.56 253.52 142.996 253.436 143.484 253.436ZM150.152 253.436C150.552 253.436 150.908 253.504 151.22 253.64C151.532 253.768 151.8 253.94 152.024 254.156C152.248 254.372 152.424 254.616 152.552 254.888C152.688 255.16 152.776 255.432 152.816 255.704H151.712C151.632 255.32 151.448 255.008 151.16 254.768C150.88 254.52 150.52 254.396 150.08 254.396C149.824 254.396 149.584 254.444 149.36 254.54C149.144 254.636 148.952 254.784 148.784 254.984C148.624 255.176 148.496 255.42 148.4 255.716C148.304 256.012 148.256 256.364 148.256 256.772C148.256 257.18 148.304 257.536 148.4 257.84C148.496 258.144 148.628 258.396 148.796 258.596C148.964 258.796 149.156 258.948 149.372 259.052C149.596 259.148 149.832 259.196 150.08 259.196C150.32 259.196 150.532 259.16 150.716 259.088C150.908 259.016 151.072 258.92 151.208 258.8C151.352 258.68 151.468 258.544 151.556 258.392C151.652 258.232 151.72 258.068 151.76 257.9H152.888C152.832 258.204 152.724 258.492 152.564 258.764C152.404 259.036 152.2 259.276 151.952 259.484C151.712 259.692 151.428 259.856 151.1 259.976C150.78 260.096 150.428 260.156 150.044 260.156C149.572 260.156 149.152 260.072 148.784 259.904C148.416 259.736 148.104 259.504 147.848 259.208C147.592 258.912 147.396 258.56 147.26 258.152C147.132 257.736 147.068 257.28 147.068 256.784C147.068 256.304 147.136 255.86 147.272 255.452C147.416 255.044 147.62 254.692 147.884 254.396C148.148 254.092 148.468 253.856 148.844 253.688C149.228 253.52 149.664 253.436 150.152 253.436ZM156.868 260.156C156.348 260.156 155.892 260.072 155.5 259.904C155.116 259.728 154.792 259.488 154.528 259.184C154.264 258.88 154.064 258.524 153.928 258.116C153.8 257.708 153.736 257.264 153.736 256.784C153.736 256.272 153.812 255.812 153.964 255.404C154.124 254.988 154.34 254.636 154.612 254.348C154.892 254.052 155.22 253.828 155.596 253.676C155.972 253.516 156.384 253.436 156.832 253.436C157.328 253.436 157.768 253.532 158.152 253.724C158.544 253.916 158.868 254.18 159.124 254.516C159.38 254.852 159.564 255.244 159.676 255.692C159.796 256.14 159.84 256.62 159.808 257.132H154.924C154.924 257.452 154.972 257.74 155.068 257.996C155.172 258.252 155.312 258.468 155.488 258.644C155.664 258.82 155.868 258.956 156.1 259.052C156.332 259.148 156.58 259.196 156.844 259.196C157.348 259.196 157.732 259.1 157.996 258.908C158.26 258.708 158.46 258.448 158.596 258.128H159.724C159.652 258.408 159.536 258.672 159.376 258.92C159.216 259.16 159.016 259.372 158.776 259.556C158.544 259.74 158.268 259.888 157.948 260C157.628 260.104 157.268 260.156 156.868 260.156ZM156.832 254.372C156.28 254.372 155.832 254.532 155.488 254.852C155.144 255.164 154.96 255.612 154.936 256.196H158.656C158.648 255.972 158.604 255.752 158.524 255.536C158.444 255.312 158.328 255.116 158.176 254.948C158.024 254.772 157.836 254.632 157.612 254.528C157.388 254.424 157.128 254.372 156.832 254.372ZM164.862 255.428C164.774 255.044 164.59 254.772 164.31 254.612C164.038 254.444 163.698 254.36 163.29 254.36C163.122 254.36 162.954 254.376 162.786 254.408C162.618 254.432 162.466 254.48 162.33 254.552C162.202 254.616 162.094 254.7 162.006 254.804C161.926 254.908 161.886 255.032 161.886 255.176C161.886 255.432 161.974 255.624 162.15 255.752C162.326 255.88 162.582 255.98 162.918 256.052L163.83 256.232C164.134 256.296 164.422 256.372 164.694 256.46C164.974 256.548 165.214 256.668 165.414 256.82C165.622 256.964 165.786 257.144 165.906 257.36C166.026 257.576 166.086 257.84 166.086 258.152C166.086 258.472 166.018 258.756 165.882 259.004C165.746 259.252 165.558 259.464 165.318 259.64C165.078 259.808 164.794 259.936 164.466 260.024C164.146 260.112 163.794 260.156 163.41 260.156C162.978 260.156 162.59 260.092 162.246 259.964C161.91 259.836 161.622 259.668 161.382 259.46C161.15 259.252 160.966 259.012 160.83 258.74C160.702 258.468 160.622 258.192 160.59 257.912H161.742C161.83 258.328 162.006 258.652 162.27 258.884C162.542 259.116 162.93 259.232 163.434 259.232C163.874 259.232 164.242 259.148 164.538 258.98C164.834 258.812 164.982 258.576 164.982 258.272C164.982 258.112 164.946 257.972 164.874 257.852C164.802 257.732 164.702 257.632 164.574 257.552C164.454 257.464 164.31 257.396 164.142 257.348C163.982 257.292 163.81 257.244 163.626 257.204L162.666 257.012C162.434 256.964 162.206 256.9 161.982 256.82C161.758 256.74 161.554 256.632 161.37 256.496C161.194 256.36 161.05 256.192 160.938 255.992C160.834 255.784 160.782 255.528 160.782 255.224C160.782 254.936 160.85 254.684 160.986 254.468C161.122 254.244 161.306 254.056 161.538 253.904C161.778 253.744 162.058 253.624 162.378 253.544C162.698 253.464 163.042 253.424 163.41 253.424C164.138 253.424 164.726 253.604 165.174 253.964C165.622 254.324 165.898 254.812 166.002 255.428H164.862ZM171.167 255.428C171.079 255.044 170.895 254.772 170.615 254.612C170.343 254.444 170.003 254.36 169.595 254.36C169.427 254.36 169.259 254.376 169.091 254.408C168.923 254.432 168.771 254.48 168.635 254.552C168.507 254.616 168.399 254.7 168.311 254.804C168.231 254.908 168.191 255.032 168.191 255.176C168.191 255.432 168.279 255.624 168.455 255.752C168.631 255.88 168.887 255.98 169.223 256.052L170.135 256.232C170.439 256.296 170.727 256.372 170.999 256.46C171.279 256.548 171.519 256.668 171.719 256.82C171.927 256.964 172.091 257.144 172.211 257.36C172.331 257.576 172.391 257.84 172.391 258.152C172.391 258.472 172.323 258.756 172.187 259.004C172.051 259.252 171.863 259.464 171.623 259.64C171.383 259.808 171.099 259.936 170.771 260.024C170.451 260.112 170.099 260.156 169.715 260.156C169.283 260.156 168.895 260.092 168.551 259.964C168.215 259.836 167.927 259.668 167.687 259.46C167.455 259.252 167.271 259.012 167.135 258.74C167.007 258.468 166.927 258.192 166.895 257.912H168.047C168.135 258.328 168.311 258.652 168.575 258.884C168.847 259.116 169.235 259.232 169.739 259.232C170.179 259.232 170.547 259.148 170.843 258.98C171.139 258.812 171.287 258.576 171.287 258.272C171.287 258.112 171.251 257.972 171.179 257.852C171.107 257.732 171.007 257.632 170.879 257.552C170.759 257.464 170.615 257.396 170.447 257.348C170.287 257.292 170.115 257.244 169.931 257.204L168.971 257.012C168.739 256.964 168.511 256.9 168.287 256.82C168.063 256.74 167.859 256.632 167.675 256.496C167.499 256.36 167.355 256.192 167.243 255.992C167.139 255.784 167.087 255.528 167.087 255.224C167.087 254.936 167.155 254.684 167.291 254.468C167.427 254.244 167.611 254.056 167.843 253.904C168.083 253.744 168.363 253.624 168.683 253.544C169.003 253.464 169.347 253.424 169.715 253.424C170.443 253.424 171.031 253.604 171.479 253.964C171.927 254.324 172.203 254.812 172.307 255.428H171.167ZM179.215 253.436C179.615 253.436 179.971 253.504 180.283 253.64C180.595 253.768 180.863 253.94 181.087 254.156C181.311 254.372 181.487 254.616 181.615 254.888C181.751 255.16 181.839 255.432 181.879 255.704H180.775C180.695 255.32 180.511 255.008 180.223 254.768C179.943 254.52 179.583 254.396 179.143 254.396C178.887 254.396 178.647 254.444 178.423 254.54C178.207 254.636 178.015 254.784 177.847 254.984C177.687 255.176 177.559 255.42 177.463 255.716C177.367 256.012 177.319 256.364 177.319 256.772C177.319 257.18 177.367 257.536 177.463 257.84C177.559 258.144 177.691 258.396 177.859 258.596C178.027 258.796 178.219 258.948 178.435 259.052C178.659 259.148 178.895 259.196 179.143 259.196C179.383 259.196 179.595 259.16 179.779 259.088C179.971 259.016 180.135 258.92 180.271 258.8C180.415 258.68 180.531 258.544 180.619 258.392C180.715 258.232 180.783 258.068 180.823 257.9H181.951C181.895 258.204 181.787 258.492 181.627 258.764C181.467 259.036 181.263 259.276 181.015 259.484C180.775 259.692 180.491 259.856 180.163 259.976C179.843 260.096 179.491 260.156 179.107 260.156C178.635 260.156 178.215 260.072 177.847 259.904C177.479 259.736 177.167 259.504 176.911 259.208C176.655 258.912 176.459 258.56 176.323 258.152C176.195 257.736 176.131 257.28 176.131 256.784C176.131 256.304 176.199 255.86 176.335 255.452C176.479 255.044 176.683 254.692 176.947 254.396C177.211 254.092 177.531 253.856 177.907 253.688C178.291 253.52 178.727 253.436 179.215 253.436ZM187.264 256.892C186.768 256.94 186.32 257 185.92 257.072C185.52 257.136 185.18 257.22 184.9 257.324C184.62 257.42 184.404 257.548 184.252 257.708C184.1 257.86 184.024 258.048 184.024 258.272C184.024 258.576 184.132 258.824 184.348 259.016C184.572 259.2 184.88 259.292 185.272 259.292C185.528 259.292 185.776 259.26 186.016 259.196C186.256 259.124 186.468 259.008 186.652 258.848C186.836 258.68 186.984 258.456 187.096 258.176C187.208 257.896 187.264 257.54 187.264 257.108V256.892ZM185.032 260.156C184.728 260.156 184.44 260.112 184.168 260.024C183.904 259.944 183.668 259.828 183.46 259.676C183.26 259.516 183.1 259.324 182.98 259.1C182.868 258.868 182.812 258.608 182.812 258.32C182.812 257.936 182.916 257.616 183.124 257.36C183.332 257.096 183.624 256.88 184 256.712C184.384 256.536 184.844 256.396 185.38 256.292C185.916 256.188 186.516 256.1 187.18 256.028V255.848C187.18 255.544 187.14 255.292 187.06 255.092C186.988 254.892 186.884 254.736 186.748 254.624C186.612 254.504 186.452 254.42 186.268 254.372C186.084 254.324 185.888 254.3 185.68 254.3C185.176 254.3 184.796 254.416 184.54 254.648C184.284 254.872 184.144 255.184 184.12 255.584H182.992C183.016 255.24 183.108 254.932 183.268 254.66C183.428 254.388 183.632 254.16 183.88 253.976C184.128 253.792 184.408 253.652 184.72 253.556C185.032 253.46 185.356 253.412 185.692 253.412C186.588 253.412 187.244 253.62 187.66 254.036C188.076 254.452 188.28 255.124 188.272 256.052L188.26 257.564C188.252 258.108 188.26 258.576 188.284 258.968C188.316 259.352 188.364 259.696 188.428 260H187.324C187.308 259.88 187.292 259.74 187.276 259.58C187.26 259.42 187.248 259.244 187.24 259.052C187.04 259.388 186.764 259.656 186.412 259.856C186.068 260.056 185.608 260.156 185.032 260.156ZM190.979 253.544V254.564C191.179 254.22 191.451 253.948 191.795 253.748C192.139 253.54 192.571 253.436 193.091 253.436C193.475 253.436 193.831 253.512 194.159 253.664C194.487 253.816 194.775 254.036 195.023 254.324C195.271 254.612 195.463 254.964 195.599 255.38C195.743 255.796 195.815 256.268 195.815 256.796C195.815 257.332 195.743 257.808 195.599 258.224C195.463 258.64 195.271 258.992 195.023 259.28C194.775 259.568 194.487 259.788 194.159 259.94C193.831 260.084 193.475 260.156 193.091 260.156C192.571 260.156 192.139 260.056 191.795 259.856C191.451 259.648 191.179 259.372 190.979 259.028V262.1H189.887V253.544H190.979ZM190.931 256.796C190.931 257.22 190.983 257.588 191.087 257.9C191.191 258.204 191.331 258.456 191.507 258.656C191.683 258.848 191.883 258.992 192.107 259.088C192.339 259.176 192.575 259.22 192.815 259.22C193.399 259.22 193.847 259.012 194.159 258.596C194.471 258.172 194.627 257.572 194.627 256.796C194.627 256.02 194.471 255.424 194.159 255.008C193.847 254.584 193.399 254.372 192.815 254.372C192.575 254.372 192.339 254.42 192.107 254.516C191.883 254.604 191.683 254.748 191.507 254.948C191.331 255.14 191.191 255.392 191.087 255.704C190.983 256.008 190.931 256.372 190.931 256.796ZM198.186 253.544V260H197.094V253.544H198.186ZM198.186 251.3V252.62H197.094V251.3H198.186ZM200.231 251.924H201.323V253.544H202.547V254.42H201.323V258.248C201.323 258.416 201.327 258.556 201.335 258.668C201.351 258.772 201.379 258.856 201.419 258.92C201.467 258.984 201.535 259.028 201.623 259.052C201.711 259.076 201.835 259.088 201.995 259.088H202.547V260H201.755C201.443 260 201.187 259.98 200.987 259.94C200.795 259.892 200.643 259.812 200.531 259.7C200.419 259.58 200.339 259.416 200.291 259.208C200.251 258.992 200.231 258.716 200.231 258.38V254.42H199.211V253.544H200.231V251.924ZM207.901 256.892C207.405 256.94 206.957 257 206.557 257.072C206.157 257.136 205.817 257.22 205.537 257.324C205.257 257.42 205.041 257.548 204.889 257.708C204.737 257.86 204.661 258.048 204.661 258.272C204.661 258.576 204.769 258.824 204.985 259.016C205.209 259.2 205.517 259.292 205.909 259.292C206.165 259.292 206.413 259.26 206.653 259.196C206.893 259.124 207.105 259.008 207.289 258.848C207.473 258.68 207.621 258.456 207.733 258.176C207.845 257.896 207.901 257.54 207.901 257.108V256.892ZM205.669 260.156C205.365 260.156 205.077 260.112 204.805 260.024C204.541 259.944 204.305 259.828 204.097 259.676C203.897 259.516 203.737 259.324 203.617 259.1C203.505 258.868 203.449 258.608 203.449 258.32C203.449 257.936 203.553 257.616 203.761 257.36C203.969 257.096 204.261 256.88 204.637 256.712C205.021 256.536 205.481 256.396 206.017 256.292C206.553 256.188 207.153 256.1 207.817 256.028V255.848C207.817 255.544 207.777 255.292 207.697 255.092C207.625 254.892 207.521 254.736 207.385 254.624C207.249 254.504 207.089 254.42 206.905 254.372C206.721 254.324 206.525 254.3 206.317 254.3C205.813 254.3 205.433 254.416 205.177 254.648C204.921 254.872 204.781 255.184 204.757 255.584H203.629C203.653 255.24 203.745 254.932 203.905 254.66C204.065 254.388 204.269 254.16 204.517 253.976C204.765 253.792 205.045 253.652 205.357 253.556C205.669 253.46 205.993 253.412 206.329 253.412C207.225 253.412 207.881 253.62 208.297 254.036C208.713 254.452 208.917 255.124 208.909 256.052L208.897 257.564C208.889 258.108 208.897 258.576 208.921 258.968C208.953 259.352 209.001 259.696 209.065 260H207.961C207.945 259.88 207.929 259.74 207.913 259.58C207.897 259.42 207.885 259.244 207.877 259.052C207.677 259.388 207.401 259.656 207.049 259.856C206.705 260.056 206.245 260.156 205.669 260.156ZM211.616 260H210.524V251.3H211.616V260Z" fill="#FAD1DF"></path></g><defs><clipPath id="clip0_10614_28031"><path d="M0 40C0 17.9086 17.9086 0 40 0H305C327.091 0 345 17.9086 345 40V256C345 278.091 327.091 296 305 296H40C17.9086 296 0 278.091 0 256V40Z" fill="white"></path></clipPath><clipPath id="clip1_10614_28031"><rect width="297" height="8" fill="white" transform="translate(24 152)"></rect></clipPath></defs></svg>