<svg xmlns="http://www.w3.org/2000/svg" width="345" height="216" viewBox="0 0 345 216" fill="none"><path d="M0 16C0 7.16345 7.16344 0 16 0H329C337.837 0 345 7.16344 345 16V200C345 208.837 337.837 216 329 216H16C7.16345 216 0 208.837 0 200V16Z" fill="black"></path><path d="M305.709 24.7373C304.407 24.2399 303.032 23.9903 301.646 24.0003C297.167 24.0003 294.004 26.367 293.981 29.7643C293.953 32.2602 296.229 33.6667 297.951 34.5006C299.718 35.358 300.308 35.8983 300.303 36.6647C300.292 37.8304 298.892 38.3589 297.59 38.3589C295.801 38.3589 294.824 38.0976 293.321 37.4428L292.763 37.1697L292.128 41.0809C293.217 41.5566 295.179 41.9648 297.206 42C301.968 42 305.082 39.648 305.118 36.0334C305.157 34.0396 303.925 32.5333 301.333 31.2883C299.757 30.4808 298.78 29.9405 298.78 29.1212C298.78 28.396 299.617 27.6208 301.367 27.6208C302.531 27.5912 303.688 27.8204 304.762 28.2932L305.182 28.4899L305.818 24.7109L305.709 24.7373ZM317.333 24.3174H313.833C312.744 24.3174 311.924 24.6316 311.448 25.765L304.718 41.7563H309.48L310.432 39.1341L316.244 39.14C316.381 39.7537 316.801 41.7563 316.801 41.7563H321L317.333 24.3174ZM287.539 24.1706H292.078L289.239 41.6183H284.706L287.539 24.1647V24.1706ZM276.019 33.7871L276.489 36.2096L280.924 24.3174H285.731L278.589 41.7328H273.793L269.874 26.9865C269.811 26.7434 269.662 26.5346 269.457 26.4022C268.044 25.6368 266.547 25.056 265 24.6727L265.062 24.3057H272.366C273.357 24.3468 274.155 24.6727 274.421 25.7826L276.016 33.7959L276.019 33.7871ZM311.733 35.5665L313.542 30.6863C313.52 30.7392 313.914 29.6792 314.144 29.0243L314.455 30.5307L315.504 35.5636H311.731L311.733 35.5665Z" fill="white" fill-opacity="0.5"></path><path d="M27.228 27.3H28.644L31.92 36H30.6L29.916 34.116H25.92L25.248 36H24L27.228 27.3ZM26.292 33.072H29.532L27.9 28.536L26.292 33.072ZM35.4845 29.436C35.8845 29.436 36.2405 29.504 36.5525 29.64C36.8645 29.768 37.1325 29.94 37.3565 30.156C37.5805 30.372 37.7565 30.616 37.8845 30.888C38.0205 31.16 38.1085 31.432 38.1485 31.704L37.0445 31.704C36.9645 31.32 36.7805 31.008 36.4925 30.768C36.2125 30.52 35.8525 30.396 35.4125 30.396C35.1565 30.396 34.9165 30.444 34.6925 30.54C34.4765 30.636 34.2845 30.784 34.1165 30.984C33.9565 31.176 33.8285 31.42 33.7325 31.716C33.6365 32.012 33.5885 32.364 33.5885 32.772C33.5885 33.18 33.6365 33.536 33.7325 33.84C33.8285 34.144 33.9605 34.396 34.1285 34.596C34.2965 34.796 34.4885 34.948 34.7045 35.052C34.9285 35.148 35.1645 35.196 35.4125 35.196C35.6525 35.196 35.8645 35.16 36.0485 35.088C36.2405 35.016 36.4045 34.92 36.5405 34.8C36.6845 34.68 36.8005 34.544 36.8885 34.392C36.9845 34.232 37.0525 34.068 37.0925 33.9H38.2205C38.1645 34.204 38.0565 34.492 37.8965 34.764C37.7365 35.036 37.5325 35.276 37.2845 35.484C37.0445 35.692 36.7605 35.856 36.4325 35.976C36.1125 36.096 35.7605 36.156 35.3765 36.156C34.9045 36.156 34.4845 36.072 34.1165 35.904C33.7485 35.736 33.4365 35.504 33.1805 35.208C32.9245 34.912 32.7285 34.56 32.5925 34.152C32.4645 33.736 32.4005 33.28 32.4005 32.784C32.4005 32.304 32.4685 31.86 32.6045 31.452C32.7485 31.044 32.9525 30.692 33.2165 30.396C33.4805 30.092 33.8005 29.856 34.1765 29.688C34.5605 29.52 34.9965 29.436 35.4845 29.436ZM40.5458 36H39.4538V29.544H40.5458V30.516C40.7298 30.212 40.9778 29.956 41.2898 29.748C41.6018 29.54 42.0018 29.436 42.4898 29.436C42.9858 29.436 43.3818 29.536 43.6778 29.736C43.9818 29.936 44.2058 30.216 44.3498 30.576C44.6058 30.176 44.9178 29.888 45.2858 29.712C45.6538 29.528 46.0658 29.436 46.5218 29.436C46.8978 29.436 47.2178 29.496 47.4818 29.616C47.7458 29.736 47.9618 29.908 48.1298 30.132C48.2978 30.348 48.4178 30.608 48.4898 30.912C48.5698 31.216 48.6098 31.552 48.6098 31.92V36H47.5178V32.244C47.5178 31.996 47.5018 31.76 47.4698 31.536C47.4378 31.312 47.3698 31.116 47.2658 30.948C47.1698 30.772 47.0298 30.636 46.8458 30.54C46.6698 30.436 46.4338 30.384 46.1378 30.384C45.6658 30.384 45.2858 30.564 44.9978 30.924C44.7178 31.276 44.5778 31.8 44.5778 32.496V36H43.4858V32.244C43.4858 31.996 43.4698 31.76 43.4378 31.536C43.4058 31.312 43.3378 31.116 43.2338 30.948C43.1378 30.772 42.9978 30.636 42.8138 30.54C42.6378 30.436 42.4018 30.384 42.1058 30.384C41.6338 30.384 41.2538 30.564 40.9658 30.924C40.6858 31.276 40.5458 31.8 40.5458 32.496V36ZM52.9348 36.156C52.4148 36.156 51.9588 36.072 51.5668 35.904C51.1828 35.728 50.8588 35.488 50.5948 35.184C50.3308 34.88 50.1308 34.524 49.9948 34.116C49.8668 33.708 49.8028 33.264 49.8028 32.784C49.8028 32.272 49.8788 31.812 50.0308 31.404C50.1908 30.988 50.4068 30.636 50.6788 30.348C50.9588 30.052 51.2868 29.828 51.6628 29.676C52.0388 29.516 52.4508 29.436 52.8988 29.436C53.3948 29.436 53.8348 29.532 54.2188 29.724C54.6108 29.916 54.9348 30.18 55.1908 30.516C55.4468 30.852 55.6308 31.244 55.7428 31.692C55.8628 32.14 55.9068 32.62 55.8748 33.132L50.9908 33.132C50.9908 33.452 51.0388 33.74 51.1348 33.996C51.2388 34.252 51.3788 34.468 51.5548 34.644C51.7308 34.82 51.9348 34.956 52.1668 35.052C52.3988 35.148 52.6468 35.196 52.9108 35.196C53.4148 35.196 53.7988 35.1 54.0628 34.908C54.3268 34.708 54.5268 34.448 54.6628 34.128H55.7908C55.7188 34.408 55.6028 34.672 55.4428 34.92C55.2828 35.16 55.0828 35.372 54.8428 35.556C54.6108 35.74 54.3348 35.888 54.0148 36C53.6948 36.104 53.3348 36.156 52.9348 36.156ZM52.8988 30.372C52.3468 30.372 51.8988 30.532 51.5548 30.852C51.2108 31.164 51.0268 31.612 51.0028 32.196L54.7228 32.196C54.7148 31.972 54.6708 31.752 54.5908 31.536C54.5108 31.312 54.3948 31.116 54.2428 30.948C54.0908 30.772 53.9028 30.632 53.6788 30.528C53.4548 30.424 53.1948 30.372 52.8988 30.372ZM61.4005 36H60.1765V27.3H61.4005V36ZM64.3935 30.516C64.5775 30.212 64.8335 29.956 65.1615 29.748C65.4975 29.54 65.9375 29.436 66.4815 29.436C66.8735 29.436 67.2015 29.496 67.4655 29.616C67.7375 29.736 67.9575 29.908 68.1255 30.132C68.2935 30.348 68.4135 30.608 68.4855 30.912C68.5655 31.216 68.6055 31.552 68.6055 31.92V36H67.5135V32.244C67.5135 31.996 67.4975 31.76 67.4655 31.536C67.4335 31.312 67.3695 31.116 67.2735 30.948C67.1775 30.772 67.0335 30.636 66.8415 30.54C66.6575 30.436 66.4095 30.384 66.0975 30.384C65.5695 30.384 65.1535 30.564 64.8495 30.924C64.5455 31.276 64.3935 31.8 64.3935 32.496V36H63.3015V29.544H64.3935V30.516ZM72.879 29.436C73.279 29.436 73.635 29.504 73.947 29.64C74.259 29.768 74.527 29.94 74.751 30.156C74.975 30.372 75.151 30.616 75.279 30.888C75.415 31.16 75.503 31.432 75.543 31.704H74.439C74.359 31.32 74.175 31.008 73.887 30.768C73.607 30.52 73.247 30.396 72.807 30.396C72.551 30.396 72.311 30.444 72.087 30.54C71.871 30.636 71.679 30.784 71.511 30.984C71.351 31.176 71.223 31.42 71.127 31.716C71.031 32.012 70.983 32.364 70.983 32.772C70.983 33.18 71.031 33.536 71.127 33.84C71.223 34.144 71.355 34.396 71.523 34.596C71.691 34.796 71.883 34.948 72.099 35.052C72.323 35.148 72.559 35.196 72.807 35.196C73.047 35.196 73.259 35.16 73.443 35.088C73.635 35.016 73.799 34.92 73.935 34.8C74.079 34.68 74.195 34.544 74.283 34.392C74.379 34.232 74.447 34.068 74.487 33.9H75.615C75.559 34.204 75.451 34.492 75.291 34.764C75.131 35.036 74.927 35.276 74.679 35.484C74.439 35.692 74.155 35.856 73.827 35.976C73.507 36.096 73.155 36.156 72.771 36.156C72.299 36.156 71.879 36.072 71.511 35.904C71.143 35.736 70.831 35.504 70.575 35.208C70.319 34.912 70.123 34.56 69.987 34.152C69.859 33.736 69.795 33.28 69.795 32.784C69.795 32.304 69.863 31.86 69.999 31.452C70.143 31.044 70.347 30.692 70.611 30.396C70.875 30.092 71.195 29.856 71.571 29.688C71.955 29.52 72.391 29.436 72.879 29.436ZM76.53 36V34.62H77.91V36H76.53Z" fill="white" fill-opacity="0.5"></path><path d="M24.672 181.52C24.672 181.104 24.768 180.748 24.96 180.452C25.16 180.148 25.412 179.9 25.716 179.708C26.02 179.516 26.356 179.376 26.724 179.288C27.1 179.192 27.464 179.144 27.816 179.144C28.208 179.144 28.584 179.192 28.944 179.288C29.304 179.376 29.628 179.516 29.916 179.708C30.212 179.9 30.464 180.148 30.672 180.452C30.88 180.748 31.028 181.104 31.116 181.52H29.928C29.856 181.272 29.744 181.064 29.592 180.896C29.44 180.72 29.264 180.58 29.064 180.476C28.864 180.364 28.652 180.288 28.428 180.248C28.204 180.2 27.984 180.176 27.768 180.176C27.6 180.176 27.408 180.196 27.192 180.236C26.984 180.276 26.784 180.348 26.592 180.452C26.4 180.548 26.24 180.68 26.112 180.848C25.984 181.008 25.92 181.208 25.92 181.448C25.92 181.832 26.052 182.128 26.316 182.336C26.588 182.544 26.928 182.692 27.336 182.78L28.344 183.008C28.68 183.08 29.02 183.172 29.364 183.284C29.708 183.388 30.02 183.536 30.3 183.728C30.588 183.92 30.82 184.164 30.996 184.46C31.18 184.748 31.272 185.112 31.272 185.552C31.272 185.976 31.18 186.352 30.996 186.68C30.812 187 30.568 187.272 30.264 187.496C29.96 187.712 29.608 187.876 29.208 187.988C28.808 188.1 28.392 188.156 27.96 188.156C27.448 188.156 26.984 188.088 26.568 187.952C26.152 187.816 25.792 187.624 25.488 187.376C25.184 187.128 24.936 186.828 24.744 186.476C24.56 186.124 24.44 185.732 24.384 185.3H25.584C25.696 185.9 25.956 186.356 26.364 186.668C26.772 186.972 27.312 187.124 27.984 187.124C28.632 187.124 29.132 186.988 29.484 186.716C29.836 186.444 30.012 186.092 30.012 185.66C30.012 185.436 29.964 185.24 29.868 185.072C29.78 184.904 29.652 184.76 29.484 184.64C29.316 184.52 29.116 184.42 28.884 184.34C28.66 184.26 28.412 184.188 28.14 184.124L27.06 183.896C26.764 183.832 26.472 183.74 26.184 183.62C25.896 183.5 25.64 183.344 25.416 183.152C25.192 182.96 25.012 182.732 24.876 182.468C24.74 182.196 24.672 181.88 24.672 181.52ZM36.7487 184.892C36.2527 184.94 35.8047 185 35.4047 185.072C35.0047 185.136 34.6647 185.22 34.3847 185.324C34.1047 185.42 33.8887 185.548 33.7367 185.708C33.5847 185.86 33.5087 186.048 33.5087 186.272C33.5087 186.576 33.6167 186.824 33.8327 187.016C34.0567 187.2 34.3647 187.292 34.7567 187.292C35.0127 187.292 35.2607 187.26 35.5007 187.196C35.7407 187.124 35.9527 187.008 36.1367 186.848C36.3207 186.68 36.4687 186.456 36.5807 186.176C36.6927 185.896 36.7487 185.54 36.7487 185.108V184.892ZM34.5167 188.156C34.2127 188.156 33.9247 188.112 33.6527 188.024C33.3887 187.944 33.1527 187.828 32.9447 187.676C32.7447 187.516 32.5847 187.324 32.4647 187.1C32.3527 186.868 32.2967 186.608 32.2967 186.32C32.2967 185.936 32.4007 185.616 32.6087 185.36C32.8167 185.096 33.1087 184.88 33.4847 184.712C33.8687 184.536 34.3287 184.396 34.8647 184.292C35.4007 184.188 36.0007 184.1 36.6647 184.028V183.848C36.6647 183.544 36.6247 183.292 36.5447 183.092C36.4727 182.892 36.3687 182.736 36.2327 182.624C36.0967 182.504 35.9367 182.42 35.7527 182.372C35.5687 182.324 35.3727 182.3 35.1647 182.3C34.6607 182.3 34.2807 182.416 34.0247 182.648C33.7687 182.872 33.6287 183.184 33.6047 183.584H32.4767C32.5007 183.24 32.5927 182.932 32.7527 182.66C32.9127 182.388 33.1167 182.16 33.3647 181.976C33.6127 181.792 33.8927 181.652 34.2047 181.556C34.5167 181.46 34.8407 181.412 35.1767 181.412C36.0727 181.412 36.7287 181.62 37.1447 182.036C37.5607 182.452 37.7647 183.124 37.7567 184.052L37.7447 185.564C37.7367 186.108 37.7447 186.576 37.7687 186.968C37.8007 187.352 37.8487 187.696 37.9127 188H36.8087C36.7927 187.88 36.7767 187.74 36.7607 187.58C36.7447 187.42 36.7327 187.244 36.7247 187.052C36.5247 187.388 36.2487 187.656 35.8967 187.856C35.5527 188.056 35.0927 188.156 34.5167 188.156ZM40.4638 188H39.3718V181.544H40.4638V182.516C40.6478 182.212 40.8958 181.956 41.2078 181.748C41.5198 181.54 41.9198 181.436 42.4078 181.436C42.9038 181.436 43.2998 181.536 43.5958 181.736C43.8998 181.936 44.1238 182.216 44.2678 182.576C44.5238 182.176 44.8358 181.888 45.2038 181.712C45.5718 181.528 45.9838 181.436 46.4398 181.436C46.8158 181.436 47.1358 181.496 47.3998 181.616C47.6638 181.736 47.8798 181.908 48.0478 182.132C48.2158 182.348 48.3358 182.608 48.4078 182.912C48.4878 183.216 48.5278 183.552 48.5278 183.92V188H47.4358V184.244C47.4358 183.996 47.4198 183.76 47.3878 183.536C47.3558 183.312 47.2878 183.116 47.1838 182.948C47.0878 182.772 46.9478 182.636 46.7638 182.54C46.5878 182.436 46.3518 182.384 46.0558 182.384C45.5838 182.384 45.2038 182.564 44.9158 182.924C44.6358 183.276 44.4958 183.8 44.4958 184.496V188H43.4038V184.244C43.4038 183.996 43.3878 183.76 43.3558 183.536C43.3238 183.312 43.2558 183.116 43.1518 182.948C43.0558 182.772 42.9158 182.636 42.7318 182.54C42.5558 182.436 42.3198 182.384 42.0238 182.384C41.5518 182.384 41.1718 182.564 40.8838 182.924C40.6038 183.276 40.4638 183.8 40.4638 184.496V188ZM54.4044 186.944H59.0004V188H53.1804V179.3H54.4044V186.944ZM62.4973 188.156C61.9773 188.156 61.5213 188.072 61.1293 187.904C60.7453 187.728 60.4213 187.488 60.1573 187.184C59.8933 186.88 59.6933 186.524 59.5573 186.116C59.4293 185.708 59.3653 185.264 59.3653 184.784C59.3653 184.272 59.4413 183.812 59.5933 183.404C59.7533 182.988 59.9693 182.636 60.2413 182.348C60.5213 182.052 60.8493 181.828 61.2253 181.676C61.6013 181.516 62.0133 181.436 62.4613 181.436C62.9573 181.436 63.3973 181.532 63.7813 181.724C64.1733 181.916 64.4973 182.18 64.7533 182.516C65.0093 182.852 65.1933 183.244 65.3053 183.692C65.4253 184.14 65.4693 184.62 65.4373 185.132H60.5533C60.5533 185.452 60.6013 185.74 60.6973 185.996C60.8013 186.252 60.9413 186.468 61.1173 186.644C61.2933 186.82 61.4973 186.956 61.7293 187.052C61.9613 187.148 62.2093 187.196 62.4733 187.196C62.9773 187.196 63.3613 187.1 63.6253 186.908C63.8893 186.708 64.0893 186.448 64.2253 186.128H65.3533C65.2813 186.408 65.1653 186.672 65.0053 186.92C64.8453 187.16 64.6453 187.372 64.4053 187.556C64.1733 187.74 63.8973 187.888 63.5773 188C63.2573 188.104 62.8973 188.156 62.4973 188.156ZM62.4613 182.372C61.9093 182.372 61.4613 182.532 61.1173 182.852C60.7733 183.164 60.5893 183.612 60.5653 184.196H64.2853C64.2773 183.972 64.2333 183.752 64.1533 183.536C64.0733 183.312 63.9573 183.116 63.8053 182.948C63.6533 182.772 63.4653 182.632 63.2413 182.528C63.0173 182.424 62.7573 182.372 62.4613 182.372ZM69.47 188.156C68.95 188.156 68.494 188.072 68.102 187.904C67.718 187.728 67.394 187.488 67.13 187.184C66.866 186.88 66.666 186.524 66.53 186.116C66.402 185.708 66.338 185.264 66.338 184.784C66.338 184.272 66.414 183.812 66.566 183.404C66.726 182.988 66.942 182.636 67.214 182.348C67.494 182.052 67.822 181.828 68.198 181.676C68.574 181.516 68.986 181.436 69.434 181.436C69.93 181.436 70.37 181.532 70.754 181.724C71.146 181.916 71.47 182.18 71.726 182.516C71.982 182.852 72.166 183.244 72.278 183.692C72.398 184.14 72.442 184.62 72.41 185.132H67.526C67.526 185.452 67.574 185.74 67.67 185.996C67.774 186.252 67.914 186.468 68.09 186.644C68.266 186.82 68.47 186.956 68.702 187.052C68.934 187.148 69.182 187.196 69.446 187.196C69.95 187.196 70.334 187.1 70.598 186.908C70.862 186.708 71.062 186.448 71.198 186.128H72.326C72.254 186.408 72.138 186.672 71.978 186.92C71.818 187.16 71.618 187.372 71.378 187.556C71.146 187.74 70.87 187.888 70.55 188C70.23 188.104 69.87 188.156 69.47 188.156ZM69.434 182.372C68.882 182.372 68.434 182.532 68.09 182.852C67.746 183.164 67.562 183.612 67.538 184.196H71.258C71.25 183.972 71.206 183.752 71.126 183.536C71.046 183.312 70.93 183.116 70.778 182.948C70.626 182.772 70.438 182.632 70.214 182.528C69.99 182.424 69.73 182.372 69.434 182.372Z" fill="white"></path><path d="M238.825 183.644C238.825 184.204 238.897 184.7 239.041 185.132C239.193 185.564 239.393 185.928 239.641 186.224C239.897 186.52 240.197 186.744 240.541 186.896C240.885 187.048 241.257 187.124 241.657 187.124C242.049 187.124 242.417 187.048 242.761 186.896C243.113 186.744 243.413 186.52 243.661 186.224C243.917 185.928 244.117 185.564 244.261 185.132C244.413 184.7 244.489 184.204 244.489 183.644C244.489 183.084 244.413 182.588 244.261 182.156C244.117 181.724 243.917 181.364 243.661 181.076C243.413 180.78 243.113 180.556 242.761 180.404C242.417 180.252 242.049 180.176 241.657 180.176C241.257 180.176 240.885 180.252 240.541 180.404C240.197 180.556 239.897 180.78 239.641 181.076C239.393 181.364 239.193 181.724 239.041 182.156C238.897 182.588 238.825 183.084 238.825 183.644ZM245.737 183.644C245.737 184.3 245.641 184.904 245.449 185.456C245.265 186.008 244.993 186.484 244.633 186.884C244.281 187.284 243.853 187.596 243.349 187.82C242.845 188.044 242.281 188.156 241.657 188.156C241.033 188.156 240.469 188.044 239.965 187.82C239.461 187.596 239.029 187.284 238.669 186.884C238.317 186.484 238.045 186.008 237.853 185.456C237.669 184.904 237.577 184.3 237.577 183.644C237.577 182.988 237.669 182.384 237.853 181.832C238.045 181.28 238.317 180.808 238.669 180.416C239.029 180.016 239.461 179.704 239.965 179.48C240.469 179.256 241.033 179.144 241.657 179.144C242.281 179.144 242.845 179.256 243.349 179.48C243.853 179.704 244.281 180.016 244.633 180.416C244.993 180.808 245.265 181.28 245.449 181.832C245.641 182.384 245.737 182.988 245.737 183.644ZM247.492 181.076C247.492 180.74 247.512 180.46 247.552 180.236C247.6 180.004 247.684 179.82 247.804 179.684C247.932 179.548 248.108 179.452 248.332 179.396C248.564 179.332 248.864 179.3 249.232 179.3H249.796V180.212H249.256C249.112 180.212 248.996 180.224 248.908 180.248C248.82 180.264 248.752 180.304 248.704 180.368C248.656 180.424 248.624 180.504 248.608 180.608C248.592 180.712 248.584 180.848 248.584 181.016V181.544H249.796V182.42H248.584V188H247.492V182.42H246.592V181.544H247.492V181.076ZM251.253 181.076C251.253 180.74 251.273 180.46 251.313 180.236C251.361 180.004 251.445 179.82 251.565 179.684C251.693 179.548 251.869 179.452 252.093 179.396C252.325 179.332 252.625 179.3 252.993 179.3H253.557V180.212H253.017C252.873 180.212 252.757 180.224 252.669 180.248C252.581 180.264 252.513 180.304 252.465 180.368C252.417 180.424 252.385 180.504 252.369 180.608C252.353 180.712 252.345 180.848 252.345 181.016V181.544H253.557V182.42H252.345V188H251.253V182.42H250.353V181.544H251.253V181.076ZM255.831 181.544V188H254.739V181.544H255.831ZM255.831 179.3V180.62H254.739V179.3H255.831ZM260.203 181.436C260.603 181.436 260.959 181.504 261.271 181.64C261.583 181.768 261.851 181.94 262.075 182.156C262.299 182.372 262.475 182.616 262.603 182.888C262.739 183.16 262.827 183.432 262.867 183.704H261.763C261.683 183.32 261.499 183.008 261.211 182.768C260.931 182.52 260.571 182.396 260.131 182.396C259.875 182.396 259.635 182.444 259.411 182.54C259.195 182.636 259.003 182.784 258.835 182.984C258.675 183.176 258.547 183.42 258.451 183.716C258.355 184.012 258.307 184.364 258.307 184.772C258.307 185.18 258.355 185.536 258.451 185.84C258.547 186.144 258.679 186.396 258.847 186.596C259.015 186.796 259.207 186.948 259.423 187.052C259.647 187.148 259.883 187.196 260.131 187.196C260.371 187.196 260.583 187.16 260.767 187.088C260.959 187.016 261.123 186.92 261.259 186.8C261.403 186.68 261.519 186.544 261.607 186.392C261.703 186.232 261.771 186.068 261.811 185.9H262.939C262.883 186.204 262.775 186.492 262.615 186.764C262.455 187.036 262.251 187.276 262.003 187.484C261.763 187.692 261.479 187.856 261.151 187.976C260.831 188.096 260.479 188.156 260.095 188.156C259.623 188.156 259.203 188.072 258.835 187.904C258.467 187.736 258.155 187.504 257.899 187.208C257.643 186.912 257.447 186.56 257.311 186.152C257.183 185.736 257.119 185.28 257.119 184.784C257.119 184.304 257.187 183.86 257.323 183.452C257.467 183.044 257.671 182.692 257.935 182.396C258.199 182.092 258.519 181.856 258.895 181.688C259.279 181.52 259.715 181.436 260.203 181.436ZM266.919 188.156C266.399 188.156 265.943 188.072 265.551 187.904C265.167 187.728 264.843 187.488 264.579 187.184C264.315 186.88 264.115 186.524 263.979 186.116C263.851 185.708 263.787 185.264 263.787 184.784C263.787 184.272 263.863 183.812 264.015 183.404C264.175 182.988 264.391 182.636 264.663 182.348C264.943 182.052 265.271 181.828 265.647 181.676C266.023 181.516 266.435 181.436 266.883 181.436C267.379 181.436 267.819 181.532 268.203 181.724C268.595 181.916 268.919 182.18 269.175 182.516C269.431 182.852 269.615 183.244 269.727 183.692C269.847 184.14 269.891 184.62 269.859 185.132H264.975C264.975 185.452 265.023 185.74 265.119 185.996C265.223 186.252 265.363 186.468 265.539 186.644C265.715 186.82 265.919 186.956 266.151 187.052C266.383 187.148 266.631 187.196 266.895 187.196C267.399 187.196 267.783 187.1 268.047 186.908C268.311 186.708 268.511 186.448 268.647 186.128H269.775C269.703 186.408 269.587 186.672 269.427 186.92C269.267 187.16 269.067 187.372 268.827 187.556C268.595 187.74 268.319 187.888 267.999 188C267.679 188.104 267.319 188.156 266.919 188.156ZM266.883 182.372C266.331 182.372 265.883 182.532 265.539 182.852C265.195 183.164 265.011 183.612 264.987 184.196H268.707C268.699 183.972 268.655 183.752 268.575 183.536C268.495 183.312 268.379 183.116 268.227 182.948C268.075 182.772 267.887 182.632 267.663 182.528C267.439 182.424 267.179 182.372 266.883 182.372ZM273.801 181.52C273.801 181.104 273.897 180.748 274.089 180.452C274.289 180.148 274.541 179.9 274.845 179.708C275.149 179.516 275.485 179.376 275.853 179.288C276.229 179.192 276.593 179.144 276.945 179.144C277.337 179.144 277.713 179.192 278.073 179.288C278.433 179.376 278.757 179.516 279.045 179.708C279.341 179.9 279.593 180.148 279.801 180.452C280.009 180.748 280.157 181.104 280.245 181.52H279.057C278.985 181.272 278.873 181.064 278.721 180.896C278.569 180.72 278.393 180.58 278.193 180.476C277.993 180.364 277.781 180.288 277.557 180.248C277.333 180.2 277.113 180.176 276.897 180.176C276.729 180.176 276.537 180.196 276.321 180.236C276.113 180.276 275.913 180.348 275.721 180.452C275.529 180.548 275.369 180.68 275.241 180.848C275.113 181.008 275.049 181.208 275.049 181.448C275.049 181.832 275.181 182.128 275.445 182.336C275.717 182.544 276.057 182.692 276.465 182.78L277.473 183.008C277.809 183.08 278.149 183.172 278.493 183.284C278.837 183.388 279.149 183.536 279.429 183.728C279.717 183.92 279.949 184.164 280.125 184.46C280.309 184.748 280.401 185.112 280.401 185.552C280.401 185.976 280.309 186.352 280.125 186.68C279.941 187 279.697 187.272 279.393 187.496C279.089 187.712 278.737 187.876 278.337 187.988C277.937 188.1 277.521 188.156 277.089 188.156C276.577 188.156 276.113 188.088 275.697 187.952C275.281 187.816 274.921 187.624 274.617 187.376C274.313 187.128 274.065 186.828 273.873 186.476C273.689 186.124 273.569 185.732 273.513 185.3H274.713C274.825 185.9 275.085 186.356 275.493 186.668C275.901 186.972 276.441 187.124 277.113 187.124C277.761 187.124 278.261 186.988 278.613 186.716C278.965 186.444 279.141 186.092 279.141 185.66C279.141 185.436 279.093 185.24 278.997 185.072C278.909 184.904 278.781 184.76 278.613 184.64C278.445 184.52 278.245 184.42 278.013 184.34C277.789 184.26 277.541 184.188 277.269 184.124L276.189 183.896C275.893 183.832 275.601 183.74 275.313 183.62C275.025 183.5 274.769 183.344 274.545 183.152C274.321 182.96 274.141 182.732 274.005 182.468C273.869 182.196 273.801 181.88 273.801 181.52ZM285.735 187.076C285.551 187.38 285.299 187.636 284.979 187.844C284.667 188.052 284.243 188.156 283.707 188.156C283.331 188.156 283.011 188.096 282.747 187.976C282.491 187.856 282.279 187.688 282.111 187.472C281.951 187.248 281.831 186.984 281.751 186.68C281.679 186.376 281.643 186.04 281.643 185.672V181.544H282.735V185.348C282.735 185.596 282.747 185.832 282.771 186.056C282.803 186.28 282.867 186.48 282.963 186.656C283.059 186.824 283.195 186.96 283.371 187.064C283.555 187.16 283.795 187.208 284.091 187.208C284.611 187.208 285.015 187.032 285.303 186.68C285.591 186.32 285.735 185.792 285.735 185.096V181.544H286.827V188H285.735V187.076ZM289.651 181.544V182.564C289.851 182.22 290.123 181.948 290.467 181.748C290.811 181.54 291.243 181.436 291.763 181.436C292.147 181.436 292.503 181.512 292.831 181.664C293.159 181.816 293.447 182.036 293.695 182.324C293.943 182.612 294.135 182.964 294.271 183.38C294.415 183.796 294.487 184.268 294.487 184.796C294.487 185.332 294.415 185.808 294.271 186.224C294.135 186.64 293.943 186.992 293.695 187.28C293.447 187.568 293.159 187.788 292.831 187.94C292.503 188.084 292.147 188.156 291.763 188.156C291.243 188.156 290.811 188.056 290.467 187.856C290.123 187.648 289.851 187.372 289.651 187.028V190.1H288.559V181.544H289.651ZM289.603 184.796C289.603 185.22 289.655 185.588 289.759 185.9C289.863 186.204 290.003 186.456 290.179 186.656C290.355 186.848 290.555 186.992 290.779 187.088C291.011 187.176 291.247 187.22 291.487 187.22C292.071 187.22 292.519 187.012 292.831 186.596C293.143 186.172 293.299 185.572 293.299 184.796C293.299 184.02 293.143 183.424 292.831 183.008C292.519 182.584 292.071 182.372 291.487 182.372C291.247 182.372 291.011 182.42 290.779 182.516C290.555 182.604 290.355 182.748 290.179 182.948C290.003 183.14 289.863 183.392 289.759 183.704C289.655 184.008 289.603 184.372 289.603 184.796ZM296.858 181.544V182.564C297.058 182.22 297.33 181.948 297.674 181.748C298.018 181.54 298.45 181.436 298.97 181.436C299.354 181.436 299.71 181.512 300.038 181.664C300.366 181.816 300.654 182.036 300.902 182.324C301.15 182.612 301.342 182.964 301.478 183.38C301.622 183.796 301.694 184.268 301.694 184.796C301.694 185.332 301.622 185.808 301.478 186.224C301.342 186.64 301.15 186.992 300.902 187.28C300.654 187.568 300.366 187.788 300.038 187.94C299.71 188.084 299.354 188.156 298.97 188.156C298.45 188.156 298.018 188.056 297.674 187.856C297.33 187.648 297.058 187.372 296.858 187.028V190.1H295.766V181.544H296.858ZM296.81 184.796C296.81 185.22 296.862 185.588 296.966 185.9C297.07 186.204 297.21 186.456 297.386 186.656C297.562 186.848 297.762 186.992 297.986 187.088C298.218 187.176 298.454 187.22 298.694 187.22C299.278 187.22 299.726 187.012 300.038 186.596C300.35 186.172 300.506 185.572 300.506 184.796C300.506 184.02 300.35 183.424 300.038 183.008C299.726 182.584 299.278 182.372 298.694 182.372C298.454 182.372 298.218 182.42 297.986 182.516C297.762 182.604 297.562 182.748 297.386 182.948C297.21 183.14 297.07 183.392 296.966 183.704C296.862 184.008 296.81 184.372 296.81 184.796ZM304.065 188H302.973V179.3H304.065V188ZM306.89 181.544V188H305.798V181.544H306.89ZM306.89 179.3V180.62H305.798V179.3H306.89ZM311.31 188.156C310.79 188.156 310.334 188.072 309.942 187.904C309.558 187.728 309.234 187.488 308.97 187.184C308.706 186.88 308.506 186.524 308.37 186.116C308.242 185.708 308.178 185.264 308.178 184.784C308.178 184.272 308.254 183.812 308.406 183.404C308.566 182.988 308.782 182.636 309.054 182.348C309.334 182.052 309.662 181.828 310.038 181.676C310.414 181.516 310.826 181.436 311.274 181.436C311.77 181.436 312.21 181.532 312.594 181.724C312.986 181.916 313.31 182.18 313.566 182.516C313.822 182.852 314.006 183.244 314.118 183.692C314.238 184.14 314.282 184.62 314.25 185.132H309.366C309.366 185.452 309.414 185.74 309.51 185.996C309.614 186.252 309.754 186.468 309.93 186.644C310.106 186.82 310.31 186.956 310.542 187.052C310.774 187.148 311.022 187.196 311.286 187.196C311.79 187.196 312.174 187.1 312.438 186.908C312.702 186.708 312.902 186.448 313.038 186.128H314.166C314.094 186.408 313.978 186.672 313.818 186.92C313.658 187.16 313.458 187.372 313.218 187.556C312.986 187.74 312.71 187.888 312.39 188C312.07 188.104 311.71 188.156 311.31 188.156ZM311.274 182.372C310.722 182.372 310.274 182.532 309.93 182.852C309.586 183.164 309.402 183.612 309.378 184.196H313.098C313.09 183.972 313.046 183.752 312.966 183.536C312.886 183.312 312.77 183.116 312.618 182.948C312.466 182.772 312.278 182.632 312.054 182.528C311.83 182.424 311.57 182.372 311.274 182.372ZM319.303 183.428C319.215 183.044 319.031 182.772 318.751 182.612C318.479 182.444 318.139 182.36 317.731 182.36C317.563 182.36 317.395 182.376 317.227 182.408C317.059 182.432 316.907 182.48 316.771 182.552C316.643 182.616 316.535 182.7 316.447 182.804C316.367 182.908 316.327 183.032 316.327 183.176C316.327 183.432 316.415 183.624 316.591 183.752C316.767 183.88 317.023 183.98 317.359 184.052L318.271 184.232C318.575 184.296 318.863 184.372 319.135 184.46C319.415 184.548 319.655 184.668 319.855 184.82C320.063 184.964 320.227 185.144 320.347 185.36C320.467 185.576 320.527 185.84 320.527 186.152C320.527 186.472 320.459 186.756 320.323 187.004C320.187 187.252 319.999 187.464 319.759 187.64C319.519 187.808 319.235 187.936 318.907 188.024C318.587 188.112 318.235 188.156 317.851 188.156C317.419 188.156 317.031 188.092 316.687 187.964C316.351 187.836 316.063 187.668 315.823 187.46C315.591 187.252 315.407 187.012 315.271 186.74C315.143 186.468 315.063 186.192 315.031 185.912H316.183C316.271 186.328 316.447 186.652 316.711 186.884C316.983 187.116 317.371 187.232 317.875 187.232C318.315 187.232 318.683 187.148 318.979 186.98C319.275 186.812 319.423 186.576 319.423 186.272C319.423 186.112 319.387 185.972 319.315 185.852C319.243 185.732 319.143 185.632 319.015 185.552C318.895 185.464 318.751 185.396 318.583 185.348C318.423 185.292 318.251 185.244 318.067 185.204L317.107 185.012C316.875 184.964 316.647 184.9 316.423 184.82C316.199 184.74 315.995 184.632 315.811 184.496C315.635 184.36 315.491 184.192 315.379 183.992C315.275 183.784 315.223 183.528 315.223 183.224C315.223 182.936 315.291 182.684 315.427 182.468C315.563 182.244 315.747 182.056 315.979 181.904C316.219 181.744 316.499 181.624 316.819 181.544C317.139 181.464 317.483 181.424 317.851 181.424C318.579 181.424 319.167 181.604 319.615 181.964C320.063 182.324 320.339 182.812 320.443 183.428H319.303Z" fill="white"></path></svg>