<svg xmlns="http://www.w3.org/2000/svg" width="24" height="24" viewBox="0 0 24 24" fill="none"><path d="M12.002 2C14.7174 2 15.0578 2.01187 16.1279 2.0625C17.1904 2.10938 17.9168 2.2811 18.5537 2.52734C19.2101 2.78113 19.7688 3.1262 20.3232 3.68066C20.8814 4.23569 21.2215 4.79361 21.4678 5.45801C21.714 6.09056 21.8867 6.82125 21.9336 7.88379C21.9805 8.95082 21.9922 9.29051 21.9922 12.0059C21.9922 14.7213 21.9805 15.0615 21.9336 16.1279C21.8867 17.1905 21.7141 17.9168 21.4678 18.5537C21.214 19.21 20.8698 19.7682 20.3154 20.3232C19.761 20.8783 19.2022 21.2228 18.5459 21.4766C17.9134 21.7228 17.1826 21.8945 16.1201 21.9414C15.0537 21.9883 14.7133 22 11.998 22C9.28268 22 8.94234 21.9883 7.87598 21.9414C6.81352 21.8945 6.08708 21.7228 5.4502 21.4766C4.79387 21.2228 4.2351 20.8777 3.68066 20.3232C3.12183 19.7688 2.7816 19.2099 2.52344 18.5498C2.27723 17.9173 2.10547 17.1865 2.05859 16.124C2.01171 15.057 2 14.7173 2 12.002C2 9.2871 2.01173 8.94739 2.05859 7.87695C2.10548 6.81429 2.27715 6.08717 2.52344 5.4502C2.78097 4.79391 3.12187 4.2357 3.68066 3.68066C4.23502 3.12201 4.79412 2.78191 5.4541 2.52441C6.08661 2.27821 6.81744 2.10644 7.87988 2.05957C8.94676 2.0127 9.2867 2.00098 12.002 2.00098V2ZM12.001 3.80176C9.32869 3.80176 9.01172 3.81347 7.96094 3.86035C6.98802 3.90347 6.4574 4.06724 6.10547 4.2041C5.64041 4.38787 5.30797 4.60219 4.95605 4.9541C4.6085 5.30228 4.38999 5.63844 4.20996 6.10352C4.07309 6.45543 3.90934 6.98224 3.86621 7.95898C3.81933 9.01039 3.80762 9.33052 3.80762 11.999C3.80762 14.6676 3.81933 14.9839 3.86621 16.0391C3.90933 17.0114 4.07309 17.5426 4.20996 17.8945C4.39372 18.3589 4.60809 18.6911 4.95996 19.043C5.30809 19.3911 5.64342 19.61 6.1084 19.79C6.46033 19.9269 6.98782 20.0907 7.96484 20.1338C9.01612 20.1807 9.33649 20.1924 12.0049 20.1924C14.6732 20.1924 14.9898 20.1807 16.0449 20.1338C17.0171 20.0907 17.5485 19.9269 17.9004 19.79C18.3648 19.6063 18.6969 19.391 19.0488 19.0391C19.3968 18.6917 19.615 18.3564 19.7949 17.8916C19.9318 17.5397 20.0955 17.0122 20.1387 16.0352C20.1855 14.9839 20.1982 14.6635 20.1982 11.9951C20.1982 9.32676 20.1856 9.01022 20.1387 7.95508C20.0955 6.98202 19.9318 6.45151 19.7949 6.09961C19.6111 5.63454 19.3969 5.30213 19.0449 4.9502C18.6975 4.60279 18.3614 4.38409 17.8965 4.2041C17.5446 4.06723 17.0177 3.90348 16.041 3.86035C14.9903 3.81347 14.6739 3.80176 12.002 3.80176H12.001ZM12.002 6.86426C14.8385 6.86438 17.1396 9.166 17.1396 12.002C17.1396 14.8386 14.8385 17.1395 12.002 17.1396C9.16526 17.1396 6.86426 14.8386 6.86426 12.002C6.8643 9.16529 9.16591 6.86426 12.002 6.86426ZM12.002 8.66992C10.1617 8.66992 8.66898 10.1617 8.66895 12.002C8.66895 13.8422 10.1617 15.334 12.002 15.334C13.8421 15.3339 15.334 13.8422 15.334 12.002C15.3339 10.1618 13.8421 8.67005 12.002 8.66992ZM17.3418 5.46191C18.0043 5.46192 18.5409 5.99866 18.541 6.66113C18.541 7.32373 18.0044 7.86132 17.3418 7.86133C16.6792 7.86133 16.1426 7.32374 16.1426 6.66113C16.1427 5.99866 16.6793 5.46191 17.3418 5.46191Z" fill="currentColor"></path></svg>