<svg width="24" height="24" viewBox="0 0 14 15" fill="none" xmlns="http://www.w3.org/2000/svg"><path d="M11.9137 6.95705C11.9137 4.03525 9.54519 1.66669 6.62337 1.66669C3.70161 1.66675 1.33307 4.03529 1.33301 6.95705C1.33301 9.87886 3.70157 12.2474 6.62337 12.2474C9.54523 12.2474 11.9137 9.8789 11.9137 6.95705ZM12.9137 6.95705C12.9137 8.69843 12.2055 10.2738 11.0622 11.4128L13.8532 14.2038L13.1462 14.9108L10.2965 12.0612C9.2628 12.8064 7.99507 13.2474 6.62337 13.2474C3.14929 13.2474 0.333008 10.4311 0.333008 6.95705C0.333068 3.48301 3.14933 0.666751 6.62337 0.666687C10.0975 0.666687 12.9137 3.48297 12.9137 6.95705Z" fill="var(--color-text-inverse)"></path><title>search</title></svg>