<svg width="24" height="24" viewBox="0 0 16 16" xmlns="http://www.w3.org/2000/svg" fill="none"><g clip-path="url(#clip0_13715_1109)"><path d="M15 8C15 4.13401 11.866 1 8 1C4.13401 1 1 4.13401 1 8C1 11.866 4.13401 15 8 15V16C3.58172 16 0 12.4183 0 8C0 3.58172 3.58172 0 8 0C12.4183 0 16 3.58172 16 8C16 12.4183 12.4183 16 8 16V15C11.866 15 15 11.866 15 8Z" fill="var(--color-text-inverse)"></path><path d="M7 10.6667H6V5.33333H7V10.6667Z" fill="var(--color-text-inverse)"></path><path d="M10.3333 10.6667H9.33333V5.33333H10.3333V10.6667Z" fill="var(--color-text-inverse)"></path></g><defs><clipPath id="clip0_13715_1109"><rect width="24" height="24" fill="currentColor"></rect></clipPath></defs><title>pause</title></svg>