<svg aria-hidden="true"><defs><symbol id="icon-facebook" viewBox="0 0 32 32"><path d="M19 6h5v-6h-5c-3.86 0-7 3.14-7 7v3h-4v6h4v16h6v-16h5l1-6h-6v-3c0-0.542 0.458-1 1-1z"></path></symbol><symbol id="icon-facebook-square" viewBox="0 0 32 32"><path d="M29 0h-26c-1.65 0-3 1.35-3 3v26c0 1.65 1.35 3 3 3h13v-14h-4v-4h4v-2c0-3.306 2.694-6 6-6h4v4h-4c-1.1 0-2 0.9-2 2v2h6l-1 4h-5v14h9c1.65 0 3-1.35 3-3v-26c0-1.65-1.35-3-3-3z"></path></symbol><symbol id="icon-instagram" viewBox="0 0 32 32"><path d="M16 2.881c4.275 0 4.781 0.019 6.462 0.094 1.563 0.069 2.406 0.331 2.969 0.55 0.744 0.288 1.281 0.638 1.837 1.194 0.563 0.563 0.906 1.094 1.2 1.838 0.219 0.563 0.481 1.412 0.55 2.969 0.075 1.688 0.094 2.194 0.094 6.463s-0.019 4.781-0.094 6.463c-0.069 1.563-0.331 2.406-0.55 2.969-0.288 0.744-0.637 1.281-1.194 1.837-0.563 0.563-1.094 0.906-1.837 1.2-0.563 0.219-1.413 0.481-2.969 0.55-1.688 0.075-2.194 0.094-6.463 0.094s-4.781-0.019-6.463-0.094c-1.563-0.069-2.406-0.331-2.969-0.55-0.744-0.288-1.281-0.637-1.838-1.194-0.563-0.563-0.906-1.094-1.2-1.837-0.219-0.563-0.481-1.413-0.55-2.969-0.075-1.688-0.094-2.194-0.094-6.463s0.019-4.781 0.094-6.463c0.069-1.563 0.331-2.406 0.55-2.969 0.288-0.744 0.638-1.281 1.194-1.838 0.563-0.563 1.094-0.906 1.838-1.2 0.563-0.219 1.412-0.481 2.969-0.55 1.681-0.075 2.188-0.094 6.463-0.094zM16 0c-4.344 0-4.887 0.019-6.594 0.094-1.7 0.075-2.869 0.35-3.881 0.744-1.056 0.412-1.95 0.956-2.837 1.85-0.894 0.888-1.438 1.781-1.85 2.831-0.394 1.019-0.669 2.181-0.744 3.881-0.075 1.713-0.094 2.256-0.094 6.6s0.019 4.887 0.094 6.594c0.075 1.7 0.35 2.869 0.744 3.881 0.413 1.056 0.956 1.95 1.85 2.837 0.887 0.887 1.781 1.438 2.831 1.844 1.019 0.394 2.181 0.669 3.881 0.744 1.706 0.075 2.25 0.094 6.594 0.094s4.888-0.019 6.594-0.094c1.7-0.075 2.869-0.35 3.881-0.744 1.050-0.406 1.944-0.956 2.831-1.844s1.438-1.781 1.844-2.831c0.394-1.019 0.669-2.181 0.744-3.881 0.075-1.706 0.094-2.25 0.094-6.594s-0.019-4.887-0.094-6.594c-0.075-1.7-0.35-2.869-0.744-3.881-0.394-1.063-0.938-1.956-1.831-2.844-0.887-0.887-1.781-1.438-2.831-1.844-1.019-0.394-2.181-0.669-3.881-0.744-1.712-0.081-2.256-0.1-6.6-0.1v0z"></path><path d="M16 7.781c-4.537 0-8.219 3.681-8.219 8.219s3.681 8.219 8.219 8.219 8.219-3.681 8.219-8.219c0-4.537-3.681-8.219-8.219-8.219zM16 21.331c-2.944 0-5.331-2.387-5.331-5.331s2.387-5.331 5.331-5.331c2.944 0 5.331 2.387 5.331 5.331s-2.387 5.331-5.331 5.331z"></path><path d="M26.462 7.456c0 1.060-0.859 1.919-1.919 1.919s-1.919-0.859-1.919-1.919c0-1.060 0.859-1.919 1.919-1.919s1.919 0.859 1.919 1.919z"></path></symbol><symbol id="icon-twitter" viewBox="0 0 32 32"><path d="M32 7.075c-1.175 0.525-2.444 0.875-3.769 1.031 1.356-0.813 2.394-2.1 2.887-3.631-1.269 0.75-2.675 1.3-4.169 1.594-1.2-1.275-2.906-2.069-4.794-2.069-3.625 0-6.563 2.938-6.563 6.563 0 0.512 0.056 1.012 0.169 1.494-5.456-0.275-10.294-2.888-13.531-6.862-0.563 0.969-0.887 2.1-0.887 3.3 0 2.275 1.156 4.287 2.919 5.463-1.075-0.031-2.087-0.331-2.975-0.819 0 0.025 0 0.056 0 0.081 0 3.181 2.263 5.838 5.269 6.437-0.55 0.15-1.131 0.231-1.731 0.231-0.425 0-0.831-0.044-1.237-0.119 0.838 2.606 3.263 4.506 6.131 4.563-2.25 1.762-5.075 2.813-8.156 2.813-0.531 0-1.050-0.031-1.569-0.094 2.913 1.869 6.362 2.95 10.069 2.95 12.075 0 18.681-10.006 18.681-18.681 0-0.287-0.006-0.569-0.019-0.85 1.281-0.919 2.394-2.075 3.275-3.394z"></path></symbol><symbol id="icon-twitter-square" viewBox="0 0 24 28"><path d="M20 9.531q-0.875 0.391-1.891 0.531 1.062-0.625 1.453-1.828-1.016 0.594-2.094 0.797-0.953-1.031-2.391-1.031-1.359 0-2.32 0.961t-0.961 2.32q0 0.453 0.078 0.75-2.016-0.109-3.781-1.016t-3-2.422q-0.453 0.781-0.453 1.656 0 1.781 1.422 2.734-0.734-0.016-1.563-0.406v0.031q0 1.172 0.781 2.086t1.922 1.133q-0.453 0.125-0.797 0.125-0.203 0-0.609-0.063 0.328 0.984 1.164 1.625t1.898 0.656q-1.813 1.406-4.078 1.406-0.406 0-0.781-0.047 2.312 1.469 5.031 1.469 1.75 0 3.281-0.555t2.625-1.484 1.883-2.141 1.172-2.531 0.383-2.633q0-0.281-0.016-0.422 0.984-0.703 1.641-1.703zM24 6.5v15q0 1.859-1.32 3.18t-3.18 1.32h-15q-1.859 0-3.18-1.32t-1.32-3.18v-15q0-1.859 1.32-3.18t3.18-1.32h15q1.859 0 3.18 1.32t1.32 3.18z"></path></symbol><symbol id="icon-linkedin" viewBox="0 0 32 32"><path d="M12 12h5.535v2.837h0.079c0.77-1.381 2.655-2.837 5.464-2.837 5.842 0 6.922 3.637 6.922 8.367v9.633h-5.769v-8.54c0-2.037-0.042-4.657-3.001-4.657-3.005 0-3.463 2.218-3.463 4.509v8.688h-5.767v-18z"></path><path d="M2 12h6v18h-6v-18z"></path><path d="M8 7c0 1.657-1.343 3-3 3s-3-1.343-3-3c0-1.657 1.343-3 3-3s3 1.343 3 3z"></path></symbol><symbol id="icon-linkedin-square" viewBox="0 0 24 28"><path d="M3.703 22.094h3.609v-10.844h-3.609v10.844zM7.547 7.906q-0.016-0.812-0.562-1.344t-1.453-0.531-1.477 0.531-0.57 1.344q0 0.797 0.555 1.336t1.445 0.539h0.016q0.922 0 1.484-0.539t0.562-1.336zM16.688 22.094h3.609v-6.219q0-2.406-1.141-3.641t-3.016-1.234q-2.125 0-3.266 1.828h0.031v-1.578h-3.609q0.047 1.031 0 10.844h3.609v-6.062q0-0.594 0.109-0.875 0.234-0.547 0.703-0.93t1.156-0.383q1.813 0 1.813 2.453v5.797zM24 6.5v15q0 1.859-1.32 3.18t-3.18 1.32h-15q-1.859 0-3.18-1.32t-1.32-3.18v-15q0-1.859 1.32-3.18t3.18-1.32h15q1.859 0 3.18 1.32t1.32 3.18z"></path></symbol><symbol id="icon-youtube" viewBox="0 0 32 32"><path d="M31.681 9.6c0 0-0.313-2.206-1.275-3.175-1.219-1.275-2.581-1.281-3.206-1.356-4.475-0.325-11.194-0.325-11.194-0.325h-0.012c0 0-6.719 0-11.194 0.325-0.625 0.075-1.987 0.081-3.206 1.356-0.963 0.969-1.269 3.175-1.269 3.175s-0.319 2.588-0.319 5.181v2.425c0 2.587 0.319 5.181 0.319 5.181s0.313 2.206 1.269 3.175c1.219 1.275 2.819 1.231 3.531 1.369 2.563 0.244 10.881 0.319 10.881 0.319s6.725-0.012 11.2-0.331c0.625-0.075 1.988-0.081 3.206-1.356 0.962-0.969 1.275-3.175 1.275-3.175s0.319-2.587 0.319-5.181v-2.425c-0.006-2.588-0.325-5.181-0.325-5.181zM12.694 20.15v-8.994l8.644 4.513-8.644 4.481z"></path></symbol><symbol id="icon-youtube-words" viewBox="0 0 24 28"><path d="M15.172 19.437v3.297c0 0.703-0.203 1.047-0.609 1.047-0.234 0-0.469-0.109-0.703-0.344v-4.703c0.234-0.234 0.469-0.344 0.703-0.344 0.406 0 0.609 0.359 0.609 1.047zM20.453 19.453v0.719h-1.406v-0.719c0-0.703 0.234-1.062 0.703-1.062s0.703 0.359 0.703 1.062zM5.359 16.047h1.672v-1.469h-4.875v1.469h1.641v8.891h1.563v-8.891zM9.859 24.938h1.391v-7.719h-1.391v5.906c-0.313 0.438-0.609 0.656-0.891 0.656-0.187 0-0.297-0.109-0.328-0.328-0.016-0.047-0.016-0.219-0.016-0.547v-5.688h-1.391v6.109c0 0.547 0.047 0.906 0.125 1.141 0.125 0.391 0.453 0.578 0.906 0.578 0.5 0 1.031-0.313 1.594-0.953v0.844zM16.562 22.625v-3.078c0-0.719-0.031-1.234-0.141-1.547-0.172-0.578-0.562-0.875-1.109-0.875-0.516 0-1 0.281-1.453 0.844v-3.391h-1.391v10.359h1.391v-0.75c0.469 0.578 0.953 0.859 1.453 0.859 0.547 0 0.938-0.297 1.109-0.859 0.109-0.328 0.141-0.844 0.141-1.563zM21.844 22.469v-0.203h-1.422c0 0.562-0.016 0.875-0.031 0.953-0.078 0.375-0.281 0.562-0.625 0.562-0.484 0-0.719-0.359-0.719-1.078v-1.359h2.797v-1.609c0-0.828-0.141-1.422-0.422-1.813-0.406-0.531-0.953-0.797-1.656-0.797-0.719 0-1.266 0.266-1.672 0.797-0.297 0.391-0.438 0.984-0.438 1.813v2.703c0 0.828 0.156 1.437 0.453 1.813 0.406 0.531 0.953 0.797 1.687 0.797s1.313-0.281 1.687-0.828c0.172-0.25 0.297-0.531 0.328-0.844 0.031-0.141 0.031-0.453 0.031-0.906zM12.344 8.203v-3.281c0-0.719-0.203-1.078-0.672-1.078-0.453 0-0.672 0.359-0.672 1.078v3.281c0 0.719 0.219 1.094 0.672 1.094 0.469 0 0.672-0.375 0.672-1.094zM23.578 19.938c0 1.797-0.016 3.719-0.406 5.469-0.297 1.234-1.297 2.141-2.5 2.266-2.875 0.328-5.781 0.328-8.672 0.328s-5.797 0-8.672-0.328c-1.203-0.125-2.219-1.031-2.5-2.266-0.406-1.75-0.406-3.672-0.406-5.469v0c0-1.813 0.016-3.719 0.406-5.469 0.297-1.234 1.297-2.141 2.516-2.281 2.859-0.313 5.766-0.313 8.656-0.313s5.797 0 8.672 0.313c1.203 0.141 2.219 1.047 2.5 2.281 0.406 1.75 0.406 3.656 0.406 5.469zM7.984 0h1.594l-1.891 6.234v4.234h-1.563v-4.234c-0.141-0.766-0.453-1.859-0.953-3.313-0.344-0.969-0.688-1.953-1.016-2.922h1.656l1.109 4.109zM13.766 5.203v2.734c0 0.828-0.141 1.453-0.438 1.844-0.391 0.531-0.938 0.797-1.656 0.797-0.703 0-1.25-0.266-1.641-0.797-0.297-0.406-0.438-1.016-0.438-1.844v-2.734c0-0.828 0.141-1.437 0.438-1.828 0.391-0.531 0.938-0.797 1.641-0.797 0.719 0 1.266 0.266 1.656 0.797 0.297 0.391 0.438 1 0.438 1.828zM19 2.672v7.797h-1.422v-0.859c-0.562 0.656-1.094 0.969-1.609 0.969-0.453 0-0.781-0.187-0.922-0.578-0.078-0.234-0.125-0.609-0.125-1.172v-6.156h1.422v5.734c0 0.328 0 0.516 0.016 0.547 0.031 0.219 0.141 0.344 0.328 0.344 0.281 0 0.578-0.219 0.891-0.672v-5.953h1.422z"></path></symbol><symbol id="icon-crunchbase" viewBox="0 0 32 32"><path d="M28.8 0h-25.6c-1.764 0.008-3.192 1.436-3.2 3.199v25.601c0.008 1.764 1.436 3.192 3.199 3.2h25.601c1.764-0.008 3.192-1.436 3.2-3.199v-25.601c-0.008-1.764-1.436-3.192-3.199-3.2h-0.001zM9.393 19.287c0.343 0.16 0.744 0.253 1.167 0.253 1.131 0 2.106-0.667 2.553-1.629l0.007-0.017h2.213c-0.543 2.171-2.477 3.753-4.78 3.753-2.717 0-4.92-2.203-4.92-4.92s2.203-4.92 4.92-4.92c2.303 0 4.237 1.582 4.772 3.719l0.007 0.034h-2.213c-0.454-0.98-1.429-1.647-2.56-1.647-1.554 0-2.813 1.26-2.813 2.813 0 1.131 0.667 2.106 1.629 2.553l0.017 0.007zM24.52 20.413c-0.402 0.347-0.87 0.631-1.381 0.829l-0.032 0.011c-0.527 0.21-1.137 0.333-1.776 0.333-1.024 0-1.975-0.314-2.761-0.85l0.017 0.011v0.507h-2.013v-14.093h2v5.48c0.677-0.463 1.497-0.767 2.382-0.839l0.018-0.001h0.36c0.002 0 0.005 0 0.008 0 2.703 0 4.893 2.191 4.893 4.893 0 1.486-0.662 2.817-1.708 3.715l-0.007 0.005zM24.223 16.725c0 0.018 0.001 0.040 0.001 0.061 0 1.549-1.256 2.805-2.805 2.805s-2.805-1.256-2.805-2.805c0-0.021 0-0.043 0.001-0.064l-0 0.003c0.034-1.523 1.277-2.744 2.805-2.744s2.77 1.221 2.805 2.741l0 0.003z"></path></symbol><symbol id="icon-rss" viewBox="0 0 20.489 20.489"><path d="M13.229,19.118c0-6.454-5.243-11.778-11.777-11.778c-0.968,0-1.372,0.807-1.372,1.695c0,0.968,0.403,1.693,1.372,1.693c4.598,0,8.308,3.711,8.308,8.309c0,0.968,0.807,1.371,1.694,1.371 C12.423,20.489,13.229,20.086,13.229,19.118 M20.489,19.037C20.489,8.551,11.938,0,1.452,0C0.484,0,0,0.807,0,1.774c0,0.968,0.403,1.775,1.452,1.775c8.55,0,15.487,6.938,15.487,15.488c0,0.968,0.807,1.452,1.775,1.452 C19.763,20.489,20.489,20.005,20.489,19.037 M5.889,17.585c0,1.613-1.291,2.904-2.904,2.904c-1.613,0-2.904-1.291-2.904-2.904c0-1.613,1.291-2.904,2.904-2.904C4.598,14.601,5.889,15.972,5.889,17.585"></path></symbol><symbol id="icon-plus" viewBox="0 0 32 32"><path d="M31 12h-11v-11c0-0.552-0.448-1-1-1h-6c-0.552 0-1 0.448-1 1v11h-11c-0.552 0-1 0.448-1 1v6c0 0.552 0.448 1 1 1h11v11c0 0.552 0.448 1 1 1h6c0.552 0 1-0.448 1-1v-11h11c0.552 0 1-0.448 1-1v-6c0-0.552-0.448-1-1-1z"></path></symbol><symbol id="icon-minus" viewBox="0 0 16 16"><line x1="2" y1="8" x2="14" y2="8" fill="none" stroke="currentColor" stroke-linecap="round" stroke-linejoin="round" stroke-width="3"></line></symbol><symbol id="icon-play" viewBox="0 0 22 28"><path d="M21.625 14.484l-20.75 11.531c-0.484 0.266-0.875 0.031-0.875-0.516v-23c0-0.547 0.391-0.781 0.875-0.516l20.75 11.531c0.484 0.266 0.484 0.703 0 0.969z"></path></symbol><symbol id="icon-hamburger" viewBox="0 0 30 20"><path d="M12.5,11.25H28.75A1.18,1.18,0,0,0,30,10a1.18,1.18,0,0,0-1.25-1.25H12.5A1.18,1.18,0,0,0,11.25,10,1.18,1.18,0,0,0,12.5,11.25ZM1.25,2.5h27.5A1.18,1.18,0,0,0,30,1.25,1.18,1.18,0,0,0,28.75,0H1.25A1.18,1.18,0,0,0,0,1.25,1.18,1.18,0,0,0,1.25,2.5Zm0,17.5h27.5a1.25,1.25,0,0,0,0-2.5H1.25a1.25,1.25,0,0,0,0,2.5Z"></path></symbol><symbol id="icon-close" viewBox="0 0 32 32"><line x1="1.5" y1="1.5" x2="30.5" y2="30.5" fill="none" stroke="currentColor" stroke-linecap="round" stroke-width="2.5"></line><line x1="30.5" y1="1.5" x2="1.5" y2="30.5" fill="none" stroke="currentColor" stroke-linecap="round" stroke-width="2.5"></line></symbol><symbol id="icon-search" viewBox="0 0 32 32"><circle cx="12" cy="12" r="9" fill="none" stroke="currentColor" stroke-linecap="round" stroke-linejoin="round" stroke-width="2"></circle><line x1="19" y1="19" x2="28" y2="28" fill="none" stroke="currentColor" stroke-linecap="round" stroke-linejoin="round" stroke-width="2"></line></symbol><symbol id="icon-caret-down" viewBox="0 0 16 28"><path d="M16 11c0 0.266-0.109 0.516-0.297 0.703l-7 7c-0.187 0.187-0.438 0.297-0.703 0.297s-0.516-0.109-0.703-0.297l-7-7c-0.187-0.187-0.297-0.438-0.297-0.703 0-0.547 0.453-1 1-1h14c0.547 0 1 0.453 1 1z"></path></symbol><symbol id="icon-quote-up" viewBox="0 0 106.508 96.377"><path d="M87.641,31.678V-21.165H66.832c2.19-10.678,10.952-19.44,20.809-21.083V-64.7C59.166-61.413,41.917-41.152,41.917-10.487V31.678Zm-60.783,0V-21.165H6.049C8.24-31.843,17-40.6,26.858-42.247V-64.7C-1.617-61.413-18.867-41.152-18.867-10.487V31.678Z" transform="translate(18.867 64.699)"></path></symbol><symbol id="icon-quote-down" viewBox="0 0 106.507 96.379"><path d="M-18.867-64.7v52.844H1.942C-.248-1.177-9.01,7.585-18.867,9.228V31.68C9.608,28.394,26.858,8.133,26.858-22.533V-64.7Zm60.783,0v52.844H62.725C60.535-1.177,51.773,7.585,41.917,9.228V31.68C70.392,28.394,87.641,8.133,87.641-22.533V-64.7Z" transform="translate(18.866 64.699)"></path></symbol></defs></svg>