<svg xmlns="http://www.w3.org/2000/svg" width="80" height="80" viewBox="0 0 80 80"><g transform="translate(0 5)"><rect width="80" height="80" transform="translate(0 -5)" fill="none"></rect><g transform="translate(0 0)"><path d="M30.556,19.349c-3.634,0-7.267-.024-10.9.006-5.6.047-8.977,3.358-9.064,8.944-.064,4.064-.047,8.129-.006,12.193.059,5.874,3.394,9.16,9.245,9.181,1.381,0,2.764-.046,4.141.027,2.041.108,2.757.826,2.81,2.808.046,1.741.02,3.484-.013,5.225A2.272,2.272,0,0,1,24.5,60.2c-4.489.139-9,.486-13.369-1.1A16.793,16.793,0,0,1,.011,43.44Q-.013,34.622.01,25.8A16.4,16.4,0,0,1,14.982,9.178c5.7-.461,11.461-.295,17.194-.392,2.657-.045,2.693-.058,2.713-2.66.009-1.234,0-2.468.019-3.7A2.143,2.143,0,0,1,37.17.045Q40-.046,42.837.043A2.125,2.125,0,0,1,45.1,2.416c.012,4.79.043,9.581-.009,14.371-.02,1.882-.737,2.519-2.762,2.542-3.924.045-7.848.013-11.773.013Z" transform="translate(0 0)" fill="#2a7de1"></path><path d="M205.354,88.543c3.633,0,7.267.023,10.9-.005,5.712-.044,9.112-3.417,9.143-9.067.023-4.209.039-8.419-.006-12.629a8.343,8.343,0,0,0-8.667-8.637c-1.6-.02-3.2.049-4.8-.038-2.009-.109-2.682-.844-2.731-2.88-.04-1.668-.013-3.338.005-5.008a2.341,2.341,0,0,1,2.364-2.6c4.563-.128,9.149-.464,13.573,1.212a16.849,16.849,0,0,1,10.81,15.449q.029,8.927,0,17.854a16.4,16.4,0,0,1-14.867,16.5c-5.706.453-11.46.3-17.193.4-2.8.047-2.8.023-2.819,2.781-.007,1.161-.008,2.322-.013,3.484a2.2,2.2,0,0,1-2.384,2.488q-2.724.056-5.449,0a2.195,2.195,0,0,1-2.353-2.513c0-4.718-.034-9.436.014-14.153.019-1.914.72-2.583,2.7-2.608,3.923-.05,7.848-.015,11.772-.015Z" transform="translate(-155.963 -38.866)" fill="#21ba8c"></path><path d="M265.868,165.056a5.193,5.193,0,0,1-5.2,5.232,5.325,5.325,0,1,1-.036-10.649,5.18,5.18,0,0,1,5.233,5.417" transform="translate(-208.578 -130.45)" fill="#07055b"></path><path d="M129.717,164.745a5.917,5.917,0,0,1,5.767-5.15,5.329,5.329,0,1,1-.558,10.642c-2.664-.165-5.34-2.986-5.209-5.492" transform="translate(-105.995 -130.406)" fill="#07055b"></path></g></g></svg>