<svg viewBox="0 0 16 16" focusable="false"><path fill-rule="evenodd" clip-rule="evenodd" d="M3.28563 3.28661C5.88913 0.68311 10.1102 0.683109 12.7137 3.28661C15.3172 5.89011 15.3172 10.1112 12.7137 12.7147C10.1102 15.3182 5.88912 15.3182 3.28563 12.7147C0.682133 10.1112 0.682133 5.89009 3.28563 3.28661ZM6.16634 7.33398C6.62658 7.33398 6.99967 6.88627 6.99967 6.33398C6.99967 5.7817 6.62658 5.33398 6.16634 5.33398C5.7061 5.33398 5.33301 5.7817 5.33301 6.33398C5.33301 6.88627 5.7061 7.33398 6.16634 7.33398ZM10.6663 6.33398C10.6663 6.88627 10.2932 7.33398 9.83301 7.33398C9.37277 7.33398 8.99967 6.88627 8.99967 6.33398C8.99967 5.7817 9.37277 5.33398 9.83301 5.33398C10.2932 5.33398 10.6663 5.7817 10.6663 6.33398ZM6.46781 9.53272L6.11426 9.17916L5.40715 9.88627L5.7607 10.2398C6.99736 11.4765 9.00238 11.4765 10.239 10.2398L10.5926 9.88627L9.88549 9.17916L9.53194 9.53272C8.6858 10.3789 7.31394 10.3789 6.46781 9.53272Z" fill="currentColor"></path></svg>