<svg xmlns="http://www.w3.org/2000/svg" xmlns:xlink="http://www.w3.org/1999/xlink" version="1.1" id="Layer_1" x="0px" y="0px" viewBox="0 0 92.6 40" xml:space="preserve"><style type="text/css">
	.st0{fill:#FF0000;}
	.st1{fill:#D30000;}
	.st2{fill:#FFFFFF;}
	.st3{enable-background:new    ;}
	.st4{fill:#CACACA;}</style><title>pdf-icon</title><desc>Created with Sketch.</desc><g id="Internal-Page" transform="translate(-1349.000000, -397.000000)"><g id="Card" transform="translate(865.000000, 218.000000)"><g id="pdf-icon" transform="translate(484.000000, 179.000000)"><circle id="Oval-2" cx="20" cy="20" r="20"></circle><g id="Shape_1_"><g><path id="path-1_4_" d="M19.1,18.3c-0.4,1.2-0.9,2.5-1.6,3.9c-0.3,0.6-0.7,1.2-0.8,1.7l0.2-0.1l0,0       c2-0.8,4-1.2,5.4-1.5c-0.2-0.2-0.5-0.3-0.7-0.5C20.6,20.9,19.7,19.7,19.1,18.3L19.1,18.3z M29.5,24.4c-0.3,0.3-0.8,0.5-1.5,0.5       c-1.2,0-3.2-0.4-4.8-1.2c-2.8,0.3-4.8,0.7-6.5,1.2c-0.1,0-0.2,0.1-0.3,0.1c-2,3.4-3.5,5-4.8,5c-0.3,0-0.5-0.1-0.7-0.2l-0.8-0.5       v-0.1C10,29,10,28.7,10,28.4c0.2-0.9,1.1-2.2,3-3.4c0.3-0.2,0.8-0.5,1.4-0.8c0.5-0.8,1-1.8,1.5-2.9c0.8-1.7,1.3-3.3,1.7-4.7       l0,0c-0.6-2-1-3.1-0.4-5.3c0.4-0.7,0.9-1.3,1.5-1.3h0.4c0.4,0,0.7,0.1,1,0.4c1.1,1.1,0.6,3.7,0,5.8c0,0.1,0,0.2-0.1,0.2       c0.6,1.8,1.6,3.3,2.6,4.1c0.4,0.3,0.9,0.6,1.4,0.9c0.7-0.1,1.4-0.1,2.1-0.1c2,0,3.2,0.4,3.7,1.1c0.2,0.3,0.2,0.6,0.2,1       S29.8,24.1,29.5,24.4L29.5,24.4z M28.9,23.3c-0.2-0.2-0.8-0.6-3.1-0.6c-0.1,0-0.2,0-0.4,0.2c1.2,0.5,2.3,0.8,3.1,0.8       c0.1,0,0.2,0,0.3,0h0.1c0.1,0,0.1,0,0.1-0.2C29,23.4,29,23.4,28.9,23.3L28.9,23.3z M14.1,25.6c-0.3,0.2-0.6,0.4-0.8,0.5       c-1.1,1-1.9,2.1-2,2.7C12.1,28.6,13,27.6,14.1,25.6L14.1,25.6z M19,14.5L19,14.5c0.2-0.6,0.2-1,0.3-1.4v-0.3       c0.2-0.9,0.1-1.4-0.1-1.8H19c0,0-0.1,0.1-0.1,0.2C18.6,11.9,18.6,13,19,14.5L19,14.5z"></path></g><g><path id="path-1_3_" d="M19.1,18.3c-0.4,1.2-0.9,2.5-1.6,3.9c-0.3,0.6-0.7,1.2-0.8,1.7l0.2-0.1l0,0       c2-0.8,4-1.2,5.4-1.5c-0.2-0.2-0.5-0.3-0.7-0.5C20.6,20.9,19.7,19.7,19.1,18.3L19.1,18.3z M29.5,24.4c-0.3,0.3-0.8,0.5-1.5,0.5       c-1.2,0-3.2-0.4-4.8-1.2c-2.8,0.3-4.8,0.7-6.5,1.2c-0.1,0-0.2,0.1-0.3,0.1c-2,3.4-3.5,5-4.8,5c-0.3,0-0.5-0.1-0.7-0.2l-0.8-0.5       v-0.1C10,29,10,28.7,10,28.4c0.2-0.9,1.1-2.2,3-3.4c0.3-0.2,0.8-0.5,1.4-0.8c0.5-0.8,1-1.8,1.5-2.9c0.8-1.7,1.3-3.3,1.7-4.7       l0,0c-0.6-2-1-3.1-0.4-5.3c0.4-0.7,0.9-1.3,1.5-1.3h0.4c0.4,0,0.7,0.1,1,0.4c1.1,1.1,0.6,3.7,0,5.8c0,0.1,0,0.2-0.1,0.2       c0.6,1.8,1.6,3.3,2.6,4.1c0.4,0.3,0.9,0.6,1.4,0.9c0.7-0.1,1.4-0.1,2.1-0.1c2,0,3.2,0.4,3.7,1.1c0.2,0.3,0.2,0.6,0.2,1       S29.8,24.1,29.5,24.4L29.5,24.4z M28.9,23.3c-0.2-0.2-0.8-0.6-3.1-0.6c-0.1,0-0.2,0-0.4,0.2c1.2,0.5,2.3,0.8,3.1,0.8       c0.1,0,0.2,0,0.3,0h0.1c0.1,0,0.1,0,0.1-0.2C29,23.4,29,23.4,28.9,23.3L28.9,23.3z M14.1,25.6c-0.3,0.2-0.6,0.4-0.8,0.5       c-1.1,1-1.9,2.1-2,2.7C12.1,28.6,13,27.6,14.1,25.6L14.1,25.6z M19,14.5L19,14.5c0.2-0.6,0.2-1,0.3-1.4v-0.3       c0.2-0.9,0.1-1.4-0.1-1.8H19c0,0-0.1,0.1-0.1,0.2C18.6,11.9,18.6,13,19,14.5L19,14.5z"></path></g></g><g id="Shape"><g><path id="path-1_2_" d="M19.1,16.3c-0.4,1.2-0.9,2.5-1.6,3.9c-0.3,0.6-0.7,1.2-0.8,1.7l0.2-0.1l0,0c2-0.8,4-1.2,5.4-1.5       c-0.2-0.2-0.5-0.3-0.7-0.5C20.6,18.9,19.7,17.7,19.1,16.3L19.1,16.3z M29.5,22.4c-0.3,0.3-0.8,0.5-1.5,0.5       c-1.2,0-3.2-0.4-4.8-1.2c-2.8,0.3-4.8,0.7-6.5,1.2c-0.1,0-0.2,0.1-0.3,0.1c-2,3.4-3.5,5-4.8,5c-0.3,0-0.5-0.1-0.7-0.2l-0.8-0.5       v-0.1C10,27,10,26.7,10,26.4c0.2-0.9,1.1-2.2,3-3.4c0.3-0.2,0.8-0.5,1.4-0.8c0.5-0.8,1-1.8,1.5-2.9c0.8-1.7,1.3-3.3,1.7-4.7       l0,0c-0.6-2-1-3.1-0.4-5.3C17.6,8.6,18.1,8,18.7,8h0.4c0.4,0,0.7,0.1,1,0.4c1.1,1.1,0.6,3.7,0,5.8c0,0.1,0,0.2-0.1,0.2       c0.6,1.8,1.6,3.3,2.6,4.1c0.4,0.3,0.9,0.6,1.4,0.9c0.7-0.1,1.4-0.1,2.1-0.1c2,0,3.2,0.4,3.7,1.1c0.2,0.3,0.2,0.6,0.2,1       S29.8,22.1,29.5,22.4L29.5,22.4z M28.9,21.3c-0.2-0.2-0.8-0.6-3.1-0.6c-0.1,0-0.2,0-0.4,0.2c1.2,0.5,2.3,0.8,3.1,0.8       c0.1,0,0.2,0,0.3,0h0.1c0.1,0,0.1,0,0.1-0.2C29,21.4,29,21.4,28.9,21.3L28.9,21.3z M14.1,23.6c-0.3,0.2-0.6,0.4-0.8,0.5       c-1.1,1-1.9,2.1-2,2.7C12.1,26.6,13,25.6,14.1,23.6L14.1,23.6z M19,12.5L19,12.5c0.2-0.6,0.2-1,0.3-1.4v-0.3       c0.2-0.9,0.1-1.4-0.1-1.8H19c0,0-0.1,0.1-0.1,0.2C18.6,9.9,18.6,11,19,12.5L19,12.5z"></path></g><g><path id="path-1_1_" d="M19.1,16.3c-0.4,1.2-0.9,2.5-1.6,3.9c-0.3,0.6-0.7,1.2-0.8,1.7l0.2-0.1l0,0       c2-0.8,4-1.2,5.4-1.5c-0.2-0.2-0.5-0.3-0.7-0.5C20.6,18.9,19.7,17.7,19.1,16.3L19.1,16.3z M29.5,22.4c-0.3,0.3-0.8,0.5-1.5,0.5       c-1.2,0-3.2-0.4-4.8-1.2c-2.8,0.3-4.8,0.7-6.5,1.2c-0.1,0-0.2,0.1-0.3,0.1c-2,3.4-3.5,5-4.8,5c-0.3,0-0.5-0.1-0.7-0.2l-0.8-0.5       v-0.1C10,27,10,26.7,10,26.4c0.2-0.9,1.1-2.2,3-3.4c0.3-0.2,0.8-0.5,1.4-0.8c0.5-0.8,1-1.8,1.5-2.9c0.8-1.7,1.3-3.3,1.7-4.7       l0,0c-0.6-2-1-3.1-0.4-5.3C17.6,8.6,18.1,8,18.7,8h0.4c0.4,0,0.7,0.1,1,0.4c1.1,1.1,0.6,3.7,0,5.8c0,0.1,0,0.2-0.1,0.2       c0.6,1.8,1.6,3.3,2.6,4.1c0.4,0.3,0.9,0.6,1.4,0.9c0.7-0.1,1.4-0.1,2.1-0.1c2,0,3.2,0.4,3.7,1.1c0.2,0.3,0.2,0.6,0.2,1       S29.8,22.1,29.5,22.4L29.5,22.4z M28.9,21.3c-0.2-0.2-0.8-0.6-3.1-0.6c-0.1,0-0.2,0-0.4,0.2c1.2,0.5,2.3,0.8,3.1,0.8       c0.1,0,0.2,0,0.3,0h0.1c0.1,0,0.1,0,0.1-0.2C29,21.4,29,21.4,28.9,21.3L28.9,21.3z M14.1,23.6c-0.3,0.2-0.6,0.4-0.8,0.5       c-1.1,1-1.9,2.1-2,2.7C12.1,26.6,13,25.6,14.1,23.6L14.1,23.6z M19,12.5L19,12.5c0.2-0.6,0.2-1,0.3-1.4v-0.3       c0.2-0.9,0.1-1.4-0.1-1.8H19c0,0-0.1,0.1-0.1,0.2C18.6,9.9,18.6,11,19,12.5L19,12.5z"></path></g></g><g><path d="M50,12.4h6.2c3.6,0,5.8,2.1,5.8,5.2v0.1c0,3.5-2.7,5.3-6.1,5.3h-2.6v4.5H50V12.4z M55.9,20      c1.7,0,2.6-1,2.6-2.2v-0.1c0-1.4-1-2.2-2.7-2.2h-2.5v4.7L55.9,20L55.9,20z"></path><path d="M64.4,12.4h5.9c4.7,0,8,3.2,8,7.5V20c0,4.3-3.2,7.5-8,7.5h-5.9V12.4z M70.2,24.5c2.7,0,4.5-1.8,4.5-4.5l0,0      c0-2.7-1.8-4.5-4.5-4.5h-2.6v9.1L70.2,24.5L70.2,24.5z"></path><path d="M81.2,12.4h11.5v3h-8.2v3.2h7.1v3h-7.1v5.8h-3.3C81.2,27.5,81.2,12.4,81.2,12.4z"></path></g></g></g></g></svg>