<svg xmlns="http://www.w3.org/2000/svg" xmlns:xlink="http://www.w3.org/1999/xlink" version="1.1" id="Layer_1" x="0px" y="0px" viewBox="0 0 36 36" xml:space="preserve"><style type="text/css">
	.st0{fill:#D1D3D4;}</style><desc>Made with illustrio</desc><g><g><path d="M34.8,29.1l-9-9c2.8-5.3,1.9-11.8-2.4-16.1c-2.6-2.6-6-4-9.7-4S6.6,1.4,4,4c-2.6,2.6-4,6-4,9.7s1.4,7.1,4,9.7    c2.6,2.6,6,4,9.7,4c2.2,0,4.5-0.5,6.4-1.6l9,9c0.8,0.8,1.8,1.2,2.9,1.2s2.1-0.4,2.9-1.2C36.4,33.2,36.4,30.7,34.8,29.1L34.8,29.1z     M22.6,13.7c0,2.4-0.9,4.6-2.6,6.3c-1.7,1.7-3.9,2.6-6.3,2.6S9.1,21.7,7.4,20C4,16.5,4,10.9,7.4,7.4c1.7-1.7,3.9-2.6,6.3-2.6    s4.6,0.9,6.3,2.6C21.7,9.1,22.6,11.3,22.6,13.7L22.6,13.7z"></path></g></g></svg>