<svg xmlns="http://www.w3.org/2000/svg" xmlns:xlink="http://www.w3.org/1999/xlink" version="1.1" id="Layer_1" x="0px" y="0px" viewBox="0 0 677.5 184.5" xml:space="preserve"><style type="text/css">
	.st0{fill:#A3A3A6;}
	.st1{fill:#F68C39;}</style><g><path d="M571.1,131.4c-5,11.9-13.3,20.5-25.9,24.1c-10.5,3-21.2,2.8-31.9,0.4c-20.8-4.7-33.2-21.7-33.5-42.9H585   c-0.4-6.3-0.9-12-2.4-17.4C577.9,78.4,568,65.8,551,59.4c-13.6-5.1-27.6-5.3-41.6-1.8c-16.8,4.2-28.5,14.5-35.1,30.5   c-4.1,10-5.2,20.3-3.8,31.1c2.4,18.4,10.9,32.5,27.8,41c13,6.5,26.8,7.1,40.9,5.4c20.4-2.5,34-13.9,41.4-32.9   c0.5-1.4,1.2-2.8,1.7-4.6c-2.8,0-7,0-9.8,0C571.9,129.3,571.5,130.4,571.1,131.4z M483,92.6c6.5-17.5,22.5-28.3,41.4-28.6   c10.6-0.2,20.6,1.5,29.6,7.2c9.2,5.8,14.8,14.2,18,24.4c0.8,2.6,1.2,5.3,2,8.6h-93.6C480.4,99.7,481.6,96.2,483,92.6z"></path><path d="M297.4,130.5c3.1,0,6.9,0,9.7,0c0,10.9,8.6,21.3,18.3,24.1c14.8,4.3,29.9,4.3,44.9,1c7.7-1.7,14.2-5.7,16.3-14   c2.9-11.4-1-19.9-12-23.5c-6.6-2.1-13.4-2.3-20.1-3.4c-10-1.6-20.2-2.2-30.1-4.4c-6.8-1.5-13-4.3-17.6-9.7   c-9.1-10.8-6.3-28.6,6.1-37.2c5.6-3.9,12-5.9,18.6-7c11-1.7,22.1-1.6,33,0.9c13.6,3,23.8,10,27.5,24.2c0.6,2.4,0.9,4.8,1.4,7.4   c-3.3,0-6.3,0-9.8,0c0-8.9-5.5-17.2-12.8-20.1c-16.5-6.5-33.5-7.4-50,0.3c-10.1,4.7-12.9,17.7-6,25.8c4,4.7,9.8,6,15.6,6.9   c13.9,2.2,28,3.4,41.8,6.1c7.9,1.6,15.5,4.4,20.5,11.3c10.7,14.9,3.7,35.8-14.1,42.5c-7.7,2.9-15.7,4.3-23.9,4.5   c-10.2,0.2-20.4,0.3-30.3-2.6C309.6,159.3,297.4,147.2,297.4,130.5z"></path><path d="M18.4,117.2c-0.5-4-0.4-6.7,0-11c1.2-14.6,6.6-27.3,17.9-37c9.1-7.8,19.9-11.9,31.7-13.2   c15.9-1.7,31.1,0.6,44.8,9.6c8.4,5.6,17.2,18.7,17.2,26.1c-2.8,0-6.4,0-9,0c-6.7-18.8-21.5-25.5-39.3-27.5   c-8.5-0.9-16.9-0.1-24.9,3.1C41.3,73.5,32,85.1,29,101.4c-3.6,19.3,2,35.8,18,47.7c11.8,8.8,25.5,9.9,39.7,7.9   c9.3-1.3,17.6-4.9,24.5-11.4c5.5-5.1,8.7-11.5,10.6-18.8c3,0,5.9-0.1,9.4-0.1c-1.3,8.3-4.7,15.3-9.9,21.5   c-6.2,7.5-14.3,12.4-23.5,15.1c-13.9,4.1-28,4.4-41.8-0.1C33.6,156,21,140.5,18.4,117.2z"></path><path d="M180.8,59c3.1,0,7.8,0,9.5,0c0,2,0,3.1,0.1,4.6c0,18.7-0.1,37.5,0.1,56.2c0,4.9,0.5,9.8,1.3,14.7   c2.2,12.4,10.2,19.4,22,21.8c11.8,2.4,23.7,2.2,35.2-2.1c13.3-5,22.8-17.9,22.9-32c0.1-19.3,0-38.6,0-58c0-1.6,0.1-3.2,0.1-5   c3,0,6.5-0.1,9.8-0.1c0,34.6,0,69.3,0,103.9c-3.2,0-6.7-0.1-10.1-0.1c0-6.1,0-13.4,0-19.3c-0.6,0.8-1.4,1.8-1.8,2.4   c-9,13.3-21.8,19.5-37.7,20.1c-9.6,0.4-19.2-0.1-28.4-3.5c-13.2-5-20.6-14.4-22.5-28.4c-0.6-4.8-0.7-9.5-0.7-14.3   c0-18.6,0-37.2,0-55.8C180.9,62.6,180.8,61,180.8,59z"></path><path d="M399.3,67.4c0-3,0-5.4,0-8.4c7.7,0,15.1,0,23.1,0c0-12,0-23.5,0-35.2c3.3,0,6.2,0,9.5,0c0,11.7,0,23,0,34.9   c10.3,0,20.2,0,30.1,0c0,3.1,0,5.7,0,8.8c-10,0-29.9,0-29.9,0c0,23.3,0,50.6,0,73.9c0,10.2,4.6,14.8,14.8,15.3   c5.4,0.2,10.6-0.5,16.2-1c0.2,2.9,0.3,5.5,0.5,8.3c-32.1,7.1-41.1-5.9-41.1-24.4c0-22.2,0-50,0-72.2   C422.4,67.3,406.7,67.4,399.3,67.4z"></path><path d="M599.5,59c3.1,0,5.9,0,9.1,0c0,7.3,0,17,0,24.3c0.3-0.8,0.5-1.3,0.8-2c4.5-9.5,11-17.1,20.6-21.5   c9.3-4.2,19-5.8,29.4-3.4c0,3.2,0,7,0,9.8c-2.1-0.6-3.7-1-5.5-1.1c-22.9-1.6-40,10.5-44.3,32.8c-0.7,3.5-0.8,6.9-0.8,10.4   c0,16.6,0,33.1,0,49.7c0,1.6,0,3.5,0,5.2c-3.2,0-6,0-9.3,0C599.5,128.3,599.5,93.9,599.5,59z"></path><path d="M148.6,18c3.2,0,5.9,0,9,0c0,48.2,0,96.7,0,145.1c-2.8,0-6,0.1-9,0.1C148.6,114.8,148.6,66.6,148.6,18z"></path></g></svg>