<svg xmlns="http://www.w3.org/2000/svg" xmlns:xlink="http://www.w3.org/1999/xlink" version="1.1" id="Layer_1" x="0px" y="0px" viewBox="0 0 713.6 127.5" xml:space="preserve"><style type="text/css">
	.st0{fill:#FFFFFF;}</style><g><path d="M459.7,70.8c0-18.1,0-36.2,0-54.3c0-1.7,0.5-2.1,2.1-2.1c12.4,0.1,24.8-0.2,37.2,0.1   c14.1,0.4,27,4.6,37.9,13.7c11.9,9.8,18.4,22.5,19.3,37.9c0.6,9-0.1,17.8-3.6,26.1c-6.9,16.4-19.3,26.8-36.2,32.1   c-6.3,2-12.9,2.9-19.5,2.9c-11.8,0-23.5,0-35.3,0c-1.5,0-2-0.4-2-2C459.7,107.2,459.7,89,459.7,70.8z M471.2,71c0,14.7,0,29.4,0,44   c0,1.4,0.3,1.9,1.8,1.8c7.3-0.1,14.6,0,21.9-0.1c10.3-0.1,20-2.3,28.7-7.9c6.5-4.1,11.8-9.5,15.3-16.5c5.2-10.5,6.3-21.6,3.7-33   c-2.4-10-7.6-18.2-15.9-24.4c-9.2-6.8-19.6-9.8-30.9-9.9c-7.5-0.1-15.1,0-22.6-0.1c-1.6,0-2.1,0.4-2.1,2.1   C471.3,41.8,471.2,56.4,471.2,71z"></path><path d="M673.3,14.6c13.1,4,23.5,11.3,30.8,22.5c8.7,13.3,11.2,28,8.5,43.6c-4,24.1-21.2,41.7-45.3,45.8   c-20.2,3.4-38.1-1.5-52.6-16.5c-9.2-9.5-13.9-21.1-15-34.3c-1-12.2,0.9-23.9,6.9-34.7c7.3-13.1,18.3-21.8,32.6-26.1   c0.3-0.1,0.6-0.1,1.1-0.2c0,3.4,0,6.7-0.1,10c0,0.4-0.6,0.9-1.1,1.1c-6.8,2.9-12.6,7-17.2,12.7c-5.4,6.7-8.5,14.3-9.8,22.7   c-1.5,9.8-0.6,19.3,3.1,28.5c7.3,18.1,24.7,28.8,44.2,27.4c9.1-0.7,17.4-3.5,24.6-9.2c8.6-6.7,13.7-15.7,16-26.2   c2.8-12.8,1.4-25.1-4.8-36.7c-4.7-8.7-11.7-14.9-20.7-19c-1.1-0.5-1.5-1.1-1.4-2.3C673.3,20.8,673.3,17.8,673.3,14.6z"></path><path d="M122.8,127.4c1.1-2.6,2.1-5,3.1-7.3c13.1-30,26.1-60,39.2-90c2-4.6,4-9.1,5.9-13.7c0.5-1.3,1.2-1.9,2.7-1.8   c2.5,0.2,5.1,0.1,7.6,0c1.2,0,1.8,0.3,2.3,1.5c12.7,29.3,25.4,58.6,38.2,87.8c3.1,7.1,6.2,14.3,9.3,21.4c0.3,0.6,0.5,1.2,0.9,2.1   c-1.1,0-1.9,0-2.7,0c-3,0-6-0.1-8.9,0c-1.2,0-1.8-0.4-2.3-1.5c-3.7-8.8-7.4-17.7-11.1-26.5c-0.5-1.2-1.1-1.7-2.5-1.7   c-18.1,0-36.2,0-54.3,0c-1.3,0-1.9,0.5-2.4,1.6c-3.7,8.8-7.4,17.7-11.1,26.5c-0.5,1.1-1,1.6-2.3,1.5   C130.8,127.3,127,127.4,122.8,127.4z M177.7,28.4c-0.1,0-0.3,0-0.4,0c-8.1,19.5-16.1,39-24.3,58.6c16.4,0,32.5,0,48.8,0   C193.7,67.4,185.7,47.9,177.7,28.4z"></path><path d="M70.7,22.5c-3.3,2.6-6.6,5.1-9.9,7.7c-0.9-1-1.6-2-2.4-2.9c-6.1-6.6-13.8-8.6-22.4-7.9   c-5.4,0.4-10.4,2-14.6,5.6c-7.8,6.6-8.9,20-2.4,26.5c3.4,3.4,7.4,5.8,11.9,7.5c6.1,2.2,12.3,4.1,18.4,6.3c5.6,2,10.8,4.8,15.3,9   c4.7,4.5,7.2,10,7.9,16.4c1.3,13.6-5.1,25.6-17.7,31.8c-15.5,7.6-30.6,6.2-45.2-2.5c-3.8-2.3-6.8-5.5-9.5-9.4   c3.5-2.5,6.9-4.9,10.4-7.4c0.3,0.4,0.7,0.8,0.9,1.2c8.8,13.5,27.4,15.5,39,8.6c9.2-5.6,12.7-17,7.6-26c-2.5-4.5-6.5-7.5-11.2-9.3   c-6.6-2.6-13.5-4.8-20.2-7.2c-5-1.8-9.8-3.8-14-7C6.3,58.6,3.1,52.1,2.5,44.3c-0.4-5.4,0-10.7,2.1-15.8c3.5-8.1,9.5-13.6,17.7-16.7   c11.9-4.4,23.8-4.1,35.5,0.7C62.9,14.7,67,18.2,70.7,22.5z"></path><path d="M292,116.8c17.6,0,35,0,52.5,0c0,3.5,0,6.9,0,10.5c-0.6,0-1.2,0.1-1.8,0.1c-20.1,0-40.2,0-60.3,0   c-1.5,0-1.9-0.4-1.9-1.9c0-36.4,0-72.8,0-109.2c0-1.3,0.3-1.8,1.7-1.8c2.7,0.1,5.4,0.1,8.1,0c1.4-0.1,1.7,0.5,1.7,1.8   c0,9.9,0,19.8,0,29.7c0,22.6,0,45.3,0,67.9C292,114.9,292,115.8,292,116.8z"></path><path d="M396.3,14.6c3.7,0,7.1,0,10.6,0c0.3,0,0.8,0.5,0.9,0.9c0.2,0.5,0,1.1,0,1.6c0,36,0,72,0,108   c0,2.3,0,2.3-2.3,2.3c-2.6,0-5.2,0-7.8,0c-1.1,0-1.5-0.4-1.4-1.4c0-0.3,0-0.6,0-1c0-35.9,0-71.8,0-107.7   C396.3,16.5,396.3,15.7,396.3,14.6z"></path><path d="M650.9,16.8c0-5,0-10.1,0-15.1c0-1.3,0.3-1.7,1.6-1.7c2.7,0.1,5.4,0.1,8.1,0c1,0,1.4,0.3,1.4,1.4   c0,10.2,0,20.5,0,30.7c0,1-0.3,1.5-1.4,1.4c-2.8-0.1-5.6-0.1-8.4,0c-1.1,0-1.3-0.5-1.3-1.5C650.9,26.9,650.9,21.9,650.9,16.8   L650.9,16.8z"></path></g></svg>