<svg xmlns="http://www.w3.org/2000/svg" id="Layer_1" data-name="Layer 1" viewBox="0 0 143.03 141.96"><defs><style>
      .cls-1 {
        fill: #50c1b2;
      }</style></defs><g id="Layer_2" data-name="Layer 2"><path d="M139.65,49.99c-1.07-3.39-2.32-6.59-3.83-9.71-1.52-3.21-3.39-6.24-5.35-9.18C117.55,12.3,95.98,0,71.47,0,31.99,0,0,31.99,0,71.47s20.68,58.64,49.37,68C9.09,119.68,2.14,78.6,24.69,52.22c5.08-5.88,10.52-9.71,15.86-12.03,9-3.92,18-3.74,25.49-2.14.53,0,1.07.27,1.6.36,2.58.62,4.99,1.43,7.13,2.23,4.1,1.6,7.22,3.3,9,4.28s0,.45-.18.45c-2.67-.71-8.2-1.96-14.88-2.05-2.67,0-5.44.18-8.38.62-9.18,1.51-19.16,6.06-26.56,17.02-1.51,2.32-3.03,4.81-4.28,7.66-2.5,5.53-4.01,11.14-4.63,16.66v.45c-.09,1.34-.18,2.67-.18,4.1v1.78c1.16,35.74,37.7,59.35,71.29,47.05.45-.18.8-.27,1.25-.45-26.38,3.92-51.42-8.02-59.62-30.21-2.67-7.4-3.3-15.06-1.96-22.64,1.51-8.91,5.61-17.56,11.85-25.04-5.53,10.43-7.31,22.19-4.1,33.6,3.03,10.96,10.16,19.87,19.78,26.02,6.42,3.48,13.63,5.7,21.3,6.24,1.25,0,2.5.09,3.74.09,16.04,0,30.39-7.22,40.46-18.71,8.73-9.98,14.08-23.26,14.35-37.87-.18-6.86-1.34-13.46-3.3-19.69h-.09ZM102.66,86.18s14.53-26.56-8.29-46.88c-.89-.8-1.87-1.6-2.94-2.41-.27-.18-.53-.45-.8-.62-2.76-1.96-5.7-3.74-8.73-5.17-8.2-3.74-17.29-5.35-26.38-4.63-1.87.18-3.56.36-5.26.71-32.71,5.7-40.9,37.7-40.9,37.7,0,0,8.02-56.59,61.05-50.62,2.41.27,4.99.71,7.57,1.25,9.98,2.67,17.38,6.68,22.81,11.41,3.21,2.76,5.61,5.88,7.49,9.09,2.58,4.46,4.1,9.18,4.72,13.99,2.23,16.93-5.97,33.69-10.25,36.27h-.09v-.09Z"></path><path d="M142.86,68.71v.98c-.18-6.86-1.34-13.46-3.3-19.69-1.07-3.39-2.32-6.59-3.83-9.71,4.54,8.38,7.13,18.09,7.13,28.43Z"></path></g></svg>