<svg version="1.1" id="Layer_1" xmlns:x="ns_extend;" xmlns:i="ns_ai;" xmlns:graph="ns_graphs;" xmlns="http://www.w3.org/2000/svg" xmlns:xlink="http://www.w3.org/1999/xlink" x="0px" y="0px" viewBox="0 0 206 45.9" style="enable-background:new 0 0 206 45.9;" xml:space="preserve">
 <style type="text/css">
  .st0{fill:#1C3141;}
	.st1{fill:#0075FF;}
	.st2{fill:#FFC300;}
	.st3{fill:#202A44;}
 </style>
 <metadata>
  <sfw xmlns="ns_sfw;">
   <slices>
   </slices>
   <sliceSourceBounds bottomLeftOrigin="true" height="45.9" width="206" x="0" y="0">
   </sliceSourceBounds>
  </sfw>
 </metadata>
 <g transform="translate(0)">
  <g transform="translate(0)">
   <path class="st0" d="M12.5,23.4v-0.3c-0.5,0.5-1.2,0.9-1.8,1.2c-0.7,0.3-1.5,0.4-2.2,0.4c-2.3,0-4.5-0.9-6-2.6
			c-1.6-1.7-2.5-3.9-2.4-6.3c-0.1-2.3,0.8-4.6,2.4-6.3C4,8,6.2,7,8.4,7.1c0.8,0,1.5,0.1,2.2,0.4c0.7,0.3,1.3,0.7,1.8,1.2V8.3
			c0-0.4,0.3-0.8,0.7-0.8c0,0,0,0,0.1,0h4.3c0.4,0,0.8,0.3,0.8,0.7c0,0,0,0,0,0.1v15.1c0,0.2-0.1,0.4-0.2,0.6
			c-0.1,0.2-0.3,0.2-0.5,0.2h-4.2c-0.2,0-0.4-0.1-0.6-0.2C12.6,23.8,12.5,23.6,12.5,23.4z M5.9,15.9c0,0.9,0.3,1.8,1,2.4
			c1.3,1.3,3.4,1.3,4.7,0.1c0,0,0,0,0.1-0.1c1.3-1.4,1.3-3.5,0-4.8c-1.3-1.3-3.4-1.3-4.7-0.1c0,0,0,0-0.1,0.1
			C6.2,14.1,5.8,15,5.9,15.9z">
   </path>
   <path class="st0" d="M28.6,19.5c0.6,0,1.3-0.2,1.7-0.7c0.4-0.5,0.6-1.2,0.6-1.9V8.2c0-0.2,0.1-0.4,0.3-0.5
			c0.2-0.1,0.4-0.2,0.6-0.2h4.2c0.2,0,0.4,0.1,0.6,0.2c0.2,0.1,0.2,0.3,0.3,0.5v9.5c0,1.9-0.8,3.8-2.2,5c-1.7,1.4-3.8,2.1-5.9,2
			c-2.2,0.1-4.3-0.6-6-2c-1.5-1.2-2.3-3.1-2.3-5V8.2c0-0.2,0.1-0.4,0.2-0.5c0.2-0.1,0.4-0.2,0.6-0.2h4.2c0.2,0,0.4,0.1,0.6,0.2
			c0.2,0.1,0.3,0.3,0.3,0.5v8.7c0,0.7,0.2,1.4,0.6,1.9C27.3,19.3,27.9,19.6,28.6,19.5z">
   </path>
   <path class="st0" d="M46.3,24.5c-1.6,0.1-3.1-0.4-4.4-1.4c-1.1-1-1.7-2.5-1.6-4v-6.8h-1.7c-0.2,0-0.4-0.1-0.5-0.2
			c-0.1-0.2-0.2-0.4-0.2-0.6v-1.2c0-0.3,0-0.6,0.1-0.9C38,9.3,38.1,9,38.3,8.9l4.1-4.6c0.2-0.3,0.5-0.6,0.9-0.8
			c0.3-0.1,0.6-0.2,0.9-0.2h1.1c0.2,0,0.4,0.1,0.6,0.2c0.1,0.1,0.2,0.3,0.2,0.6v3.4h3.7c0.2,0,0.4,0.1,0.6,0.2
			c0.2,0.1,0.2,0.3,0.2,0.6v3.2c0,0.2-0.1,0.4-0.2,0.6c-0.1,0.2-0.4,0.2-0.6,0.2h-3.7v5.6c0,0.4,0.1,0.7,0.3,1
			c0.2,0.2,0.6,0.4,0.9,0.3c0.2,0,0.5-0.1,0.7-0.1c0.3-0.1,0.6-0.3,0.9-0.4c0.2-0.2,0.5-0.2,0.8-0.2c0.3,0.1,0.5,0.3,0.6,0.5
			l1.5,2.2c0.2,0.2,0.2,0.5,0.2,0.8c0,0.2-0.1,0.5-0.3,0.7c-0.7,0.6-1.5,1.1-2.4,1.4C48.4,24.4,47.3,24.5,46.3,24.5z">
   </path>
   <path class="st0" d="M61.7,12.1c-0.7,0-1.4,0.2-2,0.7c-0.5,0.5-0.8,1.3-0.8,2v8.6c0,0.4-0.3,0.8-0.7,0.8c0,0,0,0-0.1,0h-4.3
			c-0.4,0-0.8-0.3-0.8-0.7c0,0,0,0,0-0.1v-22c0-0.4,0.3-0.8,0.7-0.8c0,0,0,0,0.1,0h4.3c0.4,0,0.8,0.3,0.8,0.7c0,0,0,0,0,0.1v8.1
			c0.5-0.8,1.2-1.4,2-1.8c0.9-0.4,1.8-0.6,2.8-0.6c1.8-0.1,3.5,0.6,4.8,1.9c1.2,1.6,1.8,3.5,1.6,5.4v9c0,0.4-0.3,0.8-0.7,0.8
			c0,0,0,0-0.1,0h-4.3c-0.4,0-0.8-0.3-0.8-0.7c0,0,0,0,0-0.1v-8.6c0.1-1.4-1-2.6-2.4-2.7C61.9,12.1,61.8,12.1,61.7,12.1z">
   </path>
   <path class="st0" d="M71.6,15.9c0-2.4,0.9-4.6,2.7-6.2c3.7-3.4,9.4-3.4,13,0c3.4,3.2,3.6,8.7,0.4,12.1c-0.1,0.1-0.2,0.2-0.4,0.4
			c-3.7,3.4-9.4,3.4-13,0C72.6,20.5,71.6,18.2,71.6,15.9z M77.5,15.9c0,0.9,0.3,1.8,1,2.4c1.3,1.3,3.4,1.3,4.7,0.1c0,0,0,0,0.1-0.1
			c1.3-1.4,1.3-3.5,0-4.8c-1.3-1.3-3.4-1.3-4.7-0.1c0,0,0,0-0.1,0.1C77.8,14.1,77.5,15,77.5,15.9z">
   </path>
   <path class="st0" d="M92.5,7.5h3c0.3,0,0.6,0.1,0.9,0.2c0.3,0.2,0.5,0.4,0.6,0.7l0.5,1c0.5-0.7,1.2-1.2,1.9-1.7
			c0.6-0.4,1.2-0.6,1.9-0.6c0.6,0,1.1,0.1,1.5,0.4c0.4,0.3,0.5,0.8,0.4,1.3l-0.5,3.8c0,0.4-0.2,0.7-0.4,1c-0.2,0.2-0.6,0.3-0.9,0.3
			c-0.1,0-0.3,0-0.4,0c-0.1,0-0.3-0.1-0.6-0.1c-0.3-0.1-0.5-0.2-0.7-0.2c-0.1,0-0.3,0-0.4,0c-0.5,0-0.9,0.1-1.3,0.5
			c-0.3,0.3-0.5,0.8-0.5,1.3v8c0,0.2-0.1,0.4-0.2,0.5c-0.2,0.1-0.4,0.2-0.6,0.2h-4.2c-0.2,0-0.4-0.1-0.6-0.2
			c-0.1-0.1-0.2-0.3-0.2-0.6V8.3c0-0.2,0.1-0.4,0.2-0.6C92,7.6,92.3,7.5,92.5,7.5z">
   </path>
   <path class="st1" d="M110.6,3.2c0,0.8-0.3,1.6-1,2.2c-1.3,1.2-3.3,1.2-4.6,0c-0.6-0.6-1-1.4-1-2.2c0-0.8,0.3-1.7,1-2.2
			c1.3-1.3,3.3-1.3,4.6,0C110.3,1.5,110.6,2.3,110.6,3.2z">
   </path>
   <path class="st0" d="M126.5,12.1l-6.6,7.1h6.6c0.4,0,0.8,0.3,0.8,0.7c0,0,0,0,0,0v3.4c0,0.4-0.3,0.8-0.7,0.8c0,0,0,0,0,0h-13.7
			c-0.2,0-0.4-0.1-0.6-0.2c-0.2-0.1-0.2-0.3-0.2-0.6v-2.8c0-0.2,0-0.3,0.1-0.5c0.1-0.2,0.2-0.3,0.3-0.4l6.7-7.2h-6
			c-0.4,0-0.8-0.4-0.8-0.8c0,0,0,0,0,0V8.4c0-0.4,0.4-0.8,0.8-0.8h13c0.2,0,0.4,0.1,0.6,0.2c0.2,0.2,0.2,0.4,0.2,0.6v2.8
			c0,0.2,0,0.3-0.1,0.5C126.7,11.8,126.6,12,126.5,12.1z">
   </path>
   <path class="st0" d="M144.4,21.5c-0.8,1-1.8,1.9-3,2.3c-1.4,0.6-2.9,0.9-4.4,0.9c-2.4,0.1-4.8-0.8-6.5-2.5
			c-1.7-1.6-2.6-3.9-2.6-6.2c-0.1-2.4,0.8-4.7,2.4-6.4c1.7-1.7,3.9-2.6,6.3-2.5c2.3-0.1,4.5,0.8,6.1,2.4c1.5,1.6,2.4,3.7,2.3,5.9v1
			c0,0.3-0.1,0.6-0.2,0.9c-0.2,0.2-0.4,0.3-0.7,0.3h-10.4c0.1,0.7,0.5,1.4,1.1,1.8c0.6,0.5,1.4,0.7,2.2,0.7c0.5,0,1.1-0.1,1.6-0.3
			c0.5-0.2,1-0.6,1.4-1c0.3-0.4,0.9-0.4,1.3-0.1l2.8,1.8c0.2,0.1,0.3,0.3,0.3,0.5C144.6,21.1,144.6,21.3,144.4,21.5z M134,13.7h5.5
			c-0.1-0.6-0.4-1.2-0.9-1.6c-0.5-0.4-1.1-0.6-1.8-0.6c-0.6,0-1.3,0.2-1.8,0.6C134.5,12.5,134.1,13.1,134,13.7L134,13.7z">
   </path>
   <path class="st2" d="M153.9,20.9c0,2.1-1.7,3.7-3.7,3.7s-3.7-1.7-3.7-3.7c0-2.1,1.7-3.7,3.7-3.7C152.2,17.2,153.8,18.9,153.9,20.9
			z">
   </path>
   <path class="st0" d="M164.2,12.1c-0.7,0-1.4,0.2-2,0.7c-0.5,0.5-0.8,1.3-0.8,2v8.6c0,0.4-0.3,0.8-0.7,0.8c0,0,0,0-0.1,0h-4.3
			c-0.4,0-0.8-0.3-0.8-0.7c0,0,0,0,0-0.1V8.3c0-0.4,0.3-0.8,0.7-0.8c0,0,0,0,0.1,0h4.3c0.4,0,0.8,0.3,0.8,0.7c0,0,0,0,0,0.1v1.2
			c0.5-0.8,1.2-1.4,2-1.8c0.9-0.4,1.8-0.6,2.8-0.6c1.8-0.1,3.5,0.6,4.8,1.9c1.2,1.6,1.8,3.5,1.6,5.4v9c0,0.4-0.3,0.8-0.7,0.8
			c0,0,0,0-0.1,0h-4.3c-0.4,0-0.8-0.3-0.8-0.7c0,0,0,0,0-0.1v-8.6c0.1-1.4-1-2.6-2.4-2.7C164.4,12.1,164.3,12.1,164.2,12.1
			L164.2,12.1z">
   </path>
   <path class="st0" d="M190.6,21.5c-0.8,1-1.8,1.9-3,2.3c-1.4,0.6-2.9,0.9-4.4,0.9c-2.4,0.1-4.8-0.8-6.5-2.5
			c-1.7-1.6-2.6-3.9-2.6-6.2c-0.1-2.4,0.8-4.7,2.4-6.4c1.7-1.7,3.9-2.6,6.3-2.5c2.3-0.1,4.5,0.8,6.1,2.4c1.5,1.6,2.4,3.7,2.3,5.9v1
			c0,0.3-0.1,0.6-0.2,0.9c-0.2,0.2-0.4,0.3-0.7,0.3H180c0.1,0.7,0.5,1.4,1.1,1.8c0.6,0.5,1.4,0.7,2.2,0.7c0.5,0,1.1-0.1,1.6-0.3
			c0.5-0.2,1-0.6,1.4-1c0.3-0.4,0.9-0.4,1.3-0.1l2.8,1.8c0.2,0.1,0.3,0.3,0.3,0.5C190.7,21.1,190.7,21.3,190.6,21.5z M180.1,13.7
			h5.5c-0.1-0.6-0.4-1.2-0.9-1.6c-0.5-0.4-1.1-0.6-1.8-0.6c-0.6,0-1.3,0.2-1.8,0.6C180.6,12.5,180.2,13.1,180.1,13.7z">
   </path>
   <path class="st0" d="M200.2,24.5c-1.6,0.1-3.1-0.4-4.4-1.4c-1.1-1-1.7-2.5-1.6-4v-6.8h-1.7c-0.2,0-0.4-0.1-0.5-0.2
			c-0.1-0.2-0.2-0.4-0.2-0.6v-1.2c0-0.3,0-0.6,0.1-0.9c0.1-0.2,0.2-0.4,0.4-0.6l4.1-4.6c0.2-0.3,0.5-0.6,0.9-0.8
			c0.3-0.1,0.6-0.2,0.9-0.2h1.1c0.2,0,0.4,0.1,0.6,0.2c0.1,0.1,0.2,0.3,0.2,0.6v3.4h3.7c0.2,0,0.4,0.1,0.6,0.2
			c0.2,0.1,0.2,0.3,0.2,0.6v3.2c0,0.2-0.1,0.4-0.2,0.6c-0.1,0.2-0.4,0.2-0.6,0.2H200v5.6c0,0.4,0.1,0.7,0.3,1
			c0.2,0.2,0.6,0.4,0.9,0.3c0.2,0,0.5-0.1,0.7-0.1c0.3-0.1,0.6-0.3,0.9-0.4c0.2-0.2,0.5-0.2,0.8-0.2c0.3,0.1,0.5,0.3,0.6,0.5
			l1.5,2.2c0.2,0.2,0.2,0.5,0.2,0.8c0,0.2-0.1,0.5-0.3,0.7c-0.7,0.6-1.5,1.1-2.4,1.4C202.3,24.4,201.3,24.5,200.2,24.5z">
   </path>
  </g>
  <path class="st3" d="M111.5,45.5c0,0.1-0.1,0.2-0.2,0.2h-1.6c-0.1,0-0.1-0.1-0.2-0.2L105.4,34c0-0.1,0-0.2,0.1-0.2h1.3
		c0.1,0,0.2,0.1,0.2,0.2l3.4,10l3.4-10c0-0.1,0.1-0.2,0.2-0.2h1.3c0.1,0,0.2,0.1,0.1,0.2L111.5,45.5z">
  </path>
  <path class="st3" d="M117.3,37.4c0-0.1,0.1-0.2,0.2-0.2h1c0.1,0,0.2,0.1,0.2,0.2v8.2c0,0.1-0.1,0.2-0.2,0.2h-1
		c-0.1,0-0.2-0.1-0.2-0.2V37.4z M117.1,34c0-0.1,0.1-0.2,0.2-0.2h1.5c0.1,0,0.2,0.1,0.2,0.2v1.5c0,0.1-0.1,0.2-0.2,0.2h-1.5
		c-0.1,0-0.2-0.1-0.2-0.2V34z">
  </path>
  <path class="st3" d="M123.9,45.9c-2,0-3.6-1.2-3.6-2.8c0-0.1,0-0.2,0.1-0.2c0,0,0,0,0,0h1.1c0.1,0,0.2,0.1,0.2,0.2
		c0.1,1,0.9,1.5,2.2,1.5c1.1,0,2-0.4,2-1.2s-0.7-1.2-2.5-1.5c-2-0.3-2.9-1-2.9-2.5c0-1.6,1.4-2.4,3.2-2.4c1.9,0,3.1,1,3.3,2.4
		c0,0.1,0,0.2-0.1,0.2c0,0,0,0,0,0h-1c-0.1,0-0.1-0.1-0.2-0.2c-0.3-0.8-1.2-1.3-2-1.2c-1.1,0-1.8,0.4-1.8,1.1c0,0.8,0.7,1.1,2.4,1.4
		c1.6,0.3,3.1,0.8,3.1,2.4C127.3,44.9,125.9,45.9,123.9,45.9">
  </path>
  <path class="st3" d="M132.5,41.6c-1.2,0-2.1,0.4-2.1,1.5c0,1,0.7,1.5,1.8,1.5c1.4,0.1,2.6-1,2.6-2.4c0-0.1,0-0.2,0-0.3
		C134,41.7,133.3,41.6,132.5,41.6 M129.4,39.7c-0.1,0-0.1,0-0.1-0.1c0-0.1,0-0.1,0-0.2c0.4-1.5,1.8-2.6,3.4-2.4c2,0,3.4,1.2,3.4,3
		v4.1c-0.1,0.5,0,1,0.3,1.5c0,0,0,0.1,0,0.1c0,0.1-0.1,0.1-0.1,0.1H135c-0.1,0-0.2-0.1-0.2-0.2v-0.9c-0.7,0.8-1.7,1.3-2.8,1.2
		c-1.5,0.1-2.9-1-3-2.5c0-0.1,0-0.1,0-0.2c0-1.9,1.5-2.8,3.4-2.8c0.8,0,1.6,0.1,2.4,0.4v-0.5c0.1-1-0.6-1.9-1.7-2
		c-0.1,0-0.3,0-0.4,0c-0.9-0.1-1.7,0.5-2,1.3c0,0.1-0.1,0.2-0.2,0.2L129.4,39.7L129.4,39.7z">
  </path>
  <path class="st3" d="M146.7,33.7c2.6,0,4,1.6,4.1,3.3c0,0.1-0.1,0.2-0.2,0.2h-1.1c-0.1,0-0.2-0.1-0.2-0.2c-0.1-1.2-1.2-1.9-2.6-1.9
		c-1.4,0-2.6,0.6-2.6,1.7c0,1.3,1.4,1.7,3.1,2.2c2.2,0.6,3.9,1.4,3.9,3.3c0,2.4-1.8,3.6-4.4,3.6c-2.5,0-4.4-1.5-4.4-3.8
		c0-0.1,0.1-0.2,0.2-0.2h1.1c0.1,0,0.2,0.1,0.2,0.2c0.1,1.4,1.2,2.4,3,2.4c1.8,0,3-0.7,3-2.2c0-1.2-1.5-1.6-3.1-2.1
		c-2.3-0.6-3.9-1.4-3.9-3.4C142.7,34.8,144.6,33.7,146.7,33.7">
  </path>
  <path class="st3" d="M157,44.6c1.8,0.1,3.3-1.2,3.4-2.9c0.1-1.8-1.2-3.3-2.9-3.4c-1.8-0.1-3.3,1.2-3.4,2.9c0,0.1,0,0.2,0,0.2
		c-0.2,1.6,1,3,2.6,3.2C156.7,44.6,156.9,44.6,157,44.6 M157,37c2.4-0.1,4.5,1.9,4.5,4.3s-1.9,4.5-4.3,4.5s-4.5-1.9-4.5-4.3
		c0,0,0-0.1,0-0.1c-0.1-2.3,1.6-4.3,4-4.4C156.7,37,156.8,37,157,37">
  </path>
  <path class="st3" d="M163.2,34c0-0.1,0.1-0.2,0.2-0.2h1c0.1,0,0.2,0.1,0.2,0.2v11.5c0,0.1-0.1,0.2-0.2,0.2h-1
		c-0.1,0-0.2-0.1-0.2-0.2V34z">
  </path>
  <path class="st3" d="M173.9,45.6c0,0.1-0.1,0.2-0.2,0.2h-1c-0.1,0-0.2-0.1-0.2-0.2v-1c-0.7,0.8-1.7,1.3-2.8,1.3
		c-1.5,0.1-2.9-1.1-3-2.6c0-0.2,0-0.3,0-0.5v-5.4c0-0.1,0.1-0.2,0.2-0.2h1c0.1,0,0.2,0.1,0.2,0.2v5.2c-0.1,1,0.5,1.9,1.5,2
		c0.1,0,0.3,0,0.4,0c1.4,0,2.5-1,2.5-3.1v-4.2c0-0.1,0.1-0.2,0.2-0.2h1c0.1,0,0.2,0.1,0.2,0.2L173.9,45.6z">
  </path>
  <path class="st3" d="M181.6,37.2c0.1,0,0.2,0.1,0.2,0.2v0.9c0,0.1-0.1,0.2-0.2,0.2h-2.8v4.7c0,1,0.4,1.4,1.3,1.4
		c0.5,0,1.1-0.1,1.6-0.3c0,0,0.1,0,0.1,0c0.1,0,0.1,0.1,0.1,0.2v0.8c0,0.2,0,0.2-0.1,0.3c-0.6,0.2-1.2,0.3-1.8,0.3
		c-1.3,0.1-2.4-0.8-2.6-2.2c0-0.1,0-0.3,0-0.4v-4.8H176c-0.1,0-0.2-0.1-0.2-0.2v-0.9c0-0.1,0.1-0.2,0.2-0.2h1.5v-2.4
		c0-0.1,0.1-0.2,0.2-0.2h1c0.1,0,0.2,0.1,0.2,0.2v2.4H181.6z">
  </path>
  <path class="st3" d="M183.9,37.4c0-0.1,0.1-0.2,0.2-0.2h1c0.1,0,0.2,0.1,0.2,0.2v8.2c0,0.1-0.1,0.2-0.2,0.2h-1
		c-0.1,0-0.2-0.1-0.2-0.2L183.9,37.4z M183.7,34c0-0.1,0.1-0.2,0.2-0.2h1.5c0.1,0,0.2,0.1,0.2,0.2v1.5c0,0.1-0.1,0.2-0.2,0.2h-1.5
		c-0.1,0-0.2-0.1-0.2-0.2V34z">
  </path>
  <path class="st3" d="M191.4,44.6c1.8,0.1,3.3-1.2,3.4-2.9c0.1-1.8-1.2-3.3-2.9-3.4c-1.8-0.1-3.3,1.2-3.4,2.9c0,0.1,0,0.2,0,0.2
		c-0.2,1.6,1,3,2.6,3.2C191.2,44.6,191.3,44.6,191.4,44.6 M191.4,37c2.4-0.1,4.5,1.9,4.5,4.3c0.1,2.4-1.9,4.5-4.3,4.5
		s-4.5-1.9-4.5-4.3c0,0,0-0.1,0-0.1c-0.1-2.3,1.6-4.3,4-4.4C191.2,37,191.3,37,191.4,37">
  </path>
  <path class="st3" d="M197.5,37.4c0-0.1,0.1-0.2,0.2-0.2h1c0.1,0,0.2,0.1,0.2,0.2v1c0.7-0.8,1.7-1.3,2.8-1.3c1.5-0.1,2.9,1.1,3,2.6
		c0,0.2,0,0.3,0,0.5v5.4c0,0.1-0.1,0.2-0.2,0.2h-1c-0.1,0-0.2-0.1-0.2-0.2v-5.2c0.1-1-0.5-1.9-1.5-2c-0.1,0-0.3,0-0.4,0
		c-1.4,0-2.5,1-2.5,3.1v4.2c0,0.1-0.1,0.2-0.2,0.2h-1c-0.1,0-0.2-0.1-0.2-0.2L197.5,37.4z">
  </path>
  <path class="st3" d="M94.5,40.9h3.9l-1.9-5.4L94.5,40.9z M98.9,42.3H94l-1.2,3.3c0,0.1-0.1,0.2-0.2,0.2h-1.1
		c-0.1,0-0.2-0.1-0.2-0.2c0,0,0-0.1,0-0.1L95.6,34c0-0.1,0.1-0.2,0.2-0.2h1.5c0.1,0,0.1,0.1,0.2,0.2l4.2,11.4c0,0,0,0.1,0,0.1
		c0,0.1-0.1,0.2-0.2,0.2h-1.1c-0.1,0-0.2-0.1-0.2-0.2L98.9,42.3z">
  </path>
  <path class="st0" d="M110.2,8.3v15.1c0,0.2-0.1,0.4-0.2,0.6c-0.2,0.2-0.4,0.2-0.6,0.2h-4.2c-0.2,0-0.4-0.1-0.6-0.2
		c-0.1-0.1-0.2-0.3-0.2-0.6V8.3c0-0.2,0.1-0.4,0.2-0.6c0.2-0.2,0.4-0.2,0.6-0.2h4.2c0.2,0,0.4,0.1,0.6,0.2
		C110.2,7.9,110.2,8.1,110.2,8.3z">
  </path>
 </g>
</svg>