<svg xmlns="http://www.w3.org/2000/svg" id="PAX-Logo-Nav" width="130.648" height="56.873" viewBox="0 0 130.648 56.873"><g id="Group_87706" data-name="Group 87706" transform="translate(0 0)"><path id="Path_54869" data-name="Path 54869" d="M16.821,10.351C32.2-1.992,47.294-1.916,53.125,3.417c-.5.046-.993.1-1.476.173q-.424.06-.847.132C46.336-.267,34.813,5.3,20.515,16.468,5.609,28.115.707,38.331,4.73,43.343S21.456,45.29,35.752,33.1c9.9-8.443,15.492-16.615,16.655-22.506a27.983,27.983,0,0,1,3.54-1.1c.816,7.645-4.324,19.532-16.73,29.228C23.371,51.107,8.842,53.273,2.71,45.427S.671,23.308,16.821,10.351" transform="translate(0 0.001)" fill="currentColor" fill-rule="evenodd"/><path id="Path_54870" data-name="Path 54870" d="M196.893,99.668c16.207-12.8,32-13.525,36.913-6.8s.246,22.463-15.224,35.126c-14.277,11.687-28.092,13.968-34.9,8.063l-.1-.086c-.09-.08-.179-.16-.266-.243l-.025-.024q-.153-.145-.3-.3.292-.025.582-.057h0l.342-.039h0l.375-.048h0l.17-.023h0l.034,0h0l.1-.015h0l.068-.01h0l.034-.005h0l.068-.01h0l.034-.005h0l.068-.01h0l.034-.005h0l.034-.005h0l.169-.027h0l.034-.006h0l.034-.006h0a5.632,5.632,0,0,0,.518.315l.009,0q.127.068.258.13l.028.013q.121.057.246.108l.048.02q.116.047.235.09l.068.024q.112.038.226.073l.081.024h0c5.914,1.722,16.585-3.948,28.119-13.684,16.8-14.187,21.224-26.388,15.285-29.709-4.619-2.583-15.5,1.464-30.027,12.793-10.608,8.274-16.792,16.376-17.733,22.467a20.676,20.676,0,0,1-2.861.506c-.976-7.976,4.618-18.689,17.215-28.64" transform="translate(-167.563 -82.741)" fill="currentColor" fill-rule="evenodd"/><path id="Path_54871" data-name="Path 54871" d="M903.2,624.447a10.21,10.21,0,0,0,2.77-.983,11,11,0,0,0,4.207-3.66,4.271,4.271,0,0,0-.115-3.956,6.041,6.041,0,0,0-4.092-1.986c-.171-.018-.271-.021-.271-.021l-2.5.022-12.875.113-6.069,15.644,6.427.047,2.179-5.046,9.173-.057a6.618,6.618,0,0,0,1.165-.116m-9.684-2.43,2.1-5.29s6.587.05,7.386.05c.07,0,.137,0,.2,0,2.8.077,1.911,2.91.9,3.791a6.385,6.385,0,0,1-.9.651,5.574,5.574,0,0,1-2.21.8Z" transform="translate(-825.135 -572.798)" fill="currentColor"/><path id="Path_54872" data-name="Path 54872" d="M1157.065,614.518l-1.342,1.2-11.578,10.328-2.77,2.471-1.877,1.675h6.438l2.673-3.144,7.114.034,3.238.016v3.144l6.737-.05-.1-15.72Zm1.84,10-3.182-.041-3.209-.041,3.209-3.1,2.194-2.116h1.015Z" transform="translate(-1063.309 -573.383)" fill="currentColor"/><path id="Path_54873" data-name="Path 54873" d="M1574.665,613.727h-8.229l-5.278,4.46-3.948-4.335h-7.481l7.107,7.836-9.351,7.836h8.021l4.821-4.043,3.657,4.085,7.647-.083-6.9-7.461Z" transform="translate(-1444.017 -572.691)" fill="currentColor"/></g></svg>