<svg xmlns="http://www.w3.org/2000/svg" width="60" height="60" viewBox="0 0 60 60" fill="none"><path d="M59.4506 21.0556C58.7127 15.4845 56.7409 10.4355 53.263 6.73753H53.2616C49.5641 3.26025 44.5158 1.2882 38.9448 0.55041C33.6229 -0.155339 30.0008 0.0190956 30.0008 0.0190956C30.0008 0.0190956 26.3768 -0.155339 21.0553 0.55021C15.4839 1.288 10.4358 3.26026 6.73745 6.73733C3.2604 10.4353 1.2876 15.4843 0.549695 21.0556C-0.155766 26.3763 0.0192473 30.0002 0.0192473 30.0002C0.0192473 30.0002 -0.155766 33.6227 0.549695 38.945C1.2876 44.5163 3.2604 49.5639 6.73745 53.2615V53.2629C10.4358 56.7398 15.4839 58.7116 21.0551 59.4504C26.3766 60.1558 30.0006 59.9807 30.0006 59.9807C30.0006 59.9807 33.6227 60.1558 38.9446 59.4504C44.5156 58.7118 49.5639 56.74 53.2614 53.2629L53.2628 53.2615C56.7407 49.5639 58.7127 44.5163 59.4504 38.945C60.1555 33.6227 59.9808 30.0002 59.9808 30.0002C59.9808 30.0002 60.1555 26.3761 59.4506 21.0556Z" fill="#1E4BC6"></path><path d="M11.0477 21.2102H16.4345C17.2539 21.2102 18.0078 21.3576 18.6974 21.6518C19.3875 21.946 19.9828 22.3445 20.4868 22.848C20.989 23.3511 21.3841 23.9435 21.6713 24.626C21.9586 25.3081 22.1026 26.0371 22.1026 26.8123C22.1026 27.5884 21.9586 28.321 21.6713 29.0111C21.3843 29.7002 20.989 30.2964 20.4868 30.7989C19.9828 31.3022 19.3833 31.7019 18.6866 31.9955C17.9904 32.2905 17.2323 32.4375 16.4133 32.4375H13.9783V36.941H11.0477V21.2102ZM13.9783 23.9252V29.7222H16.219C16.6503 29.7222 17.0454 29.6467 17.4039 29.4959C17.7627 29.3451 18.0719 29.1365 18.331 28.8705C18.5901 28.6053 18.791 28.2961 18.9341 27.944C19.0783 27.592 19.1504 27.2153 19.1504 26.8123C19.1504 26.411 19.0783 26.0333 18.9341 25.6812C18.791 25.3291 18.5901 25.0247 18.331 24.7656C18.0719 24.507 17.7629 24.3022 17.4039 24.1516C17.0454 24.0007 16.6503 23.9252 16.219 23.9252H13.9783Z" fill="white"></path><path d="M28.8693 36.9618C28.1077 36.9618 27.357 36.8212 26.6177 36.5372C25.8766 36.2534 25.2128 35.8415 24.6237 35.3009C24.0346 34.761 23.5604 34.0995 23.2011 33.3169C22.8421 32.5354 22.6629 31.645 22.6629 30.6483C22.6629 29.6371 22.8387 28.7413 23.1905 27.9585C23.5426 27.1762 24.0091 26.5143 24.5918 25.9744C25.1731 25.4349 25.8416 25.0227 26.5951 24.7389C27.3498 24.4554 28.122 24.3128 28.9121 24.3128C29.7445 24.3128 30.5135 24.464 31.2177 24.7652C31.9212 25.0666 32.5037 25.4769 32.9639 25.9978V24.335H35.8728V36.941H32.9639V35.1497C32.5037 35.7133 31.9152 36.1557 31.1957 36.4781C30.4778 36.802 29.7023 36.9618 28.8693 36.9618ZM29.3432 34.291C29.8887 34.291 30.3915 34.1959 30.8521 34.0072C31.3114 33.8184 31.7063 33.555 32.0363 33.2177C32.3669 32.8799 32.6289 32.4886 32.8231 32.0434C33.0177 31.5998 33.1148 31.1203 33.1148 30.6062C33.1148 30.1076 33.0177 29.6349 32.8231 29.1897C32.6289 28.7453 32.3671 28.357 32.0363 28.0264C31.7063 27.6953 31.3114 27.436 30.8521 27.2475C30.3915 27.0585 29.8885 26.9639 29.3432 26.9639C28.8114 26.9639 28.3126 27.0585 27.8452 27.2475C27.378 27.436 26.9727 27.6919 26.6279 28.0155C26.2831 28.3402 26.0138 28.7247 25.8195 29.1701C25.6255 29.6153 25.529 30.0943 25.529 30.606C25.529 31.1199 25.6255 31.6024 25.8195 32.0542C26.0138 32.506 26.2831 32.8961 26.6279 33.227C26.9725 33.559 27.378 33.818 27.8452 34.007C28.3126 34.1961 28.8114 34.291 29.3432 34.291Z" fill="white"></path><path d="M41.9927 36.3954L36.821 24.3346H39.924L43.4358 32.96L46.7555 24.3346H49.8154L42.2936 42.7371H39.343L41.9927 36.3954Z" fill="white"></path></svg>