<svg width="55" height="62" viewBox="0 0 55 62" fill="none" xmlns="http://www.w3.org/2000/svg"><path fill-rule="evenodd" clip-rule="evenodd" d="M51.527 26.8074L51.5271 26.8075L51.5281 26.8086C51.7304 27.0291 51.926 27.2422 52.1091 27.4473C53.8713 28.9956 54.9852 31.2639 54.9852 33.7937C54.9852 38.4595 51.2012 42.242 46.5331 42.242C41.8655 42.242 38.0814 38.4595 38.0814 33.7937C38.0814 31.2694 39.1903 29.0052 40.946 27.4572L40.9398 27.4521C41.1364 27.2322 41.348 27.0031 41.5675 26.7655C43.0261 25.1869 44.8296 23.2349 44.8296 21.121C44.8296 19.0074 43.0265 17.0556 41.5681 15.4769L41.568 15.4768L41.5671 15.4758C41.3478 15.2384 41.1362 15.0094 40.9398 14.7896C40.9419 14.7882 40.9439 14.7865 40.946 14.7848C39.1903 13.2368 38.0814 10.9726 38.0814 8.44826C38.0814 3.78248 41.8655 0 46.5331 0C51.2012 0 54.9852 3.78248 54.9852 8.44826C54.9852 10.9781 53.8713 13.2464 52.1091 14.7947C51.9257 15.0002 51.7297 15.2137 51.527 15.4346C50.071 17.0206 48.2646 18.9884 48.2646 21.121C48.2646 23.2536 50.071 25.2214 51.527 26.8074ZM16.9036 33.7935C16.9036 29.1277 13.1196 25.3452 8.45187 25.3452C3.78417 25.3452 0.000136472 29.1277 0.000136472 33.7935C0.000136472 38.4596 3.78417 42.2421 8.45187 42.2421C13.1196 42.2421 16.9036 38.4596 16.9036 33.7935ZM0 8.4484C0 13.1142 3.78404 16.8967 8.45173 16.8967C13.1198 16.8967 16.9038 13.1142 16.9038 8.4484C16.9038 3.78262 13.1198 0.000136416 8.45173 0.000136416C3.78404 0.000136416 0 3.78262 0 8.4484ZM27.4924 61.7442C22.8247 61.7442 19.0407 57.9617 19.0407 53.296C19.0407 48.6302 22.8247 44.8477 27.4924 44.8477C32.1604 44.8477 35.9445 48.6302 35.9445 53.296C35.9445 57.9617 32.1604 61.7442 27.4924 61.7442Z" fill="currentColor"></path></svg>