<svg width="178" height="39" viewBox="0 0 178 39" fill="none" xmlns="http://www.w3.org/2000/svg"><path fill-rule="evenodd" clip-rule="evenodd" d="M71.3986 4.35788C71.3986 2.34335 73.0083 0.710449 74.9936 0.710449C76.979 0.710449 78.5887 2.34335 78.5887 4.35788C78.5887 6.37241 76.979 8.00565 74.9936 8.00565C73.0083 8.00565 71.3986 6.37241 71.3986 4.35788ZM69.8412 10.9604H67.3936C64.0841 10.9604 62.3755 13.0878 61.4257 14.3316C61.063 14.8063 60.5372 14.7677 60.5372 14.0782V11.2707C60.5372 11.0992 60.4004 10.9604 60.2315 10.9604H55.5979C55.4291 10.9604 55.2922 11.0992 55.2922 11.2707V38.4851C55.2922 38.6563 55.4291 38.7954 55.5979 38.7954H60.5461C60.715 38.7954 60.8518 38.6563 60.8518 38.4851V22.2884C60.8518 18.0912 63.337 16.0606 67.3973 16.0606L69.8412 16.0599C70.0101 16.0599 70.1469 15.9211 70.1469 15.7499V11.2707C70.1469 11.0992 70.0101 10.9604 69.8412 10.9604ZM77.455 10.9604H72.5321C72.3632 10.9604 72.2264 11.0992 72.2264 11.2707V38.4851C72.2264 38.6563 72.3632 38.7954 72.5321 38.7954H77.455C77.6239 38.7954 77.7607 38.6563 77.7607 38.4851V11.2707C77.7607 11.0992 77.6239 10.9604 77.455 10.9604ZM95.9852 15.3429V11.2705C95.9852 11.0993 95.8484 10.9605 95.6795 10.9605L90.1605 10.9595V8.16908C90.1605 7.41947 90.3454 6.85266 90.7262 6.43625C91.1005 6.02632 91.6122 5.82715 92.2909 5.82715H95.7167C95.718 5.82715 95.7194 5.82698 95.7207 5.82681C95.7221 5.82664 95.7235 5.82647 95.7248 5.82647H95.9957C96.1646 5.82647 96.3014 5.68767 96.3014 5.51647V5.25966V1.29472V1.03723C96.3014 0.865691 96.1646 0.726887 95.9957 0.726887H95.7167H94.8698H91.9101C87.0602 0.726887 84.601 2.92762 84.601 7.26805V10.9605H80.097C79.9282 10.9605 79.7914 11.0993 79.7914 11.2705V15.3429C79.7914 15.5141 79.9282 15.6532 80.097 15.6532L84.601 15.6594V37.0511V38.2277V38.4852C84.601 38.6564 84.7378 38.7952 84.9067 38.7952H85.1858H89.601H89.8541C90.023 38.7952 90.1598 38.6564 90.1598 38.4852V38.2369C90.1598 38.2335 90.1605 38.2308 90.1605 38.2277V15.6587L95.6795 15.6532C95.8484 15.6532 95.9852 15.5141 95.9852 15.3429ZM39.5505 15.7506C34.4717 15.7506 32.4724 20.2864 32.4724 22.3641L46.5007 22.3651C46.5007 20.2864 45.1128 15.7506 39.5505 15.7506ZM26.6078 24.838C26.6078 19.751 28.9214 10.6503 39.5505 10.6503C50.1435 10.6503 52.1414 19.573 52.4407 22.9803C52.5556 24.2892 52.4188 26.6325 52.4188 26.6325C52.4096 26.7966 52.2755 26.9251 52.1135 26.9251L32.472 26.9248C32.472 32.6079 37.369 33.8998 39.5505 33.8998C44.3853 33.8998 45.7246 30.7004 45.9387 30.1888C45.9473 30.1682 45.9541 30.152 45.9592 30.1405C46.0087 30.0296 46.1169 29.9604 46.2366 29.9604H51.5874C51.7303 29.9604 51.8303 30.047 51.7965 30.238C51.6027 31.1967 49.5768 39 39.5505 39C32.3209 39 26.6078 34.1931 26.6078 24.838ZM157.986 22.3641C157.986 20.2864 159.985 15.7506 165.064 15.7506C170.626 15.7506 172.014 20.2864 172.014 22.3651L157.986 22.3641ZM177.954 22.9803C177.655 19.573 175.657 10.6503 165.064 10.6503C154.435 10.6503 152.121 19.751 152.121 24.838C152.121 34.1931 157.834 39 165.064 39C175.09 39 177.116 31.1967 177.31 30.238C177.344 30.047 177.244 29.9604 177.101 29.9604H171.75C171.63 29.9604 171.522 30.0296 171.473 30.1405C171.469 30.1481 171.465 30.1578 171.46 30.1695L171.452 30.1889C171.238 30.7004 169.899 33.8998 165.064 33.8998C162.882 33.8998 157.985 32.6079 157.985 26.9248L177.627 26.9251C177.789 26.9251 177.923 26.7966 177.932 26.6325C177.932 26.6325 178.069 24.2892 177.954 22.9803ZM116.762 25.4003L116.764 25.3702C116.764 25.3558 116.765 25.3415 116.765 25.3271C116.77 25.1657 116.773 25.0031 116.773 24.838C116.773 24.6763 116.77 24.5167 116.765 24.3585C116.763 24.2847 116.759 24.212 116.755 24.1389L116.753 24.0996L116.75 24.03L116.75 24.0297L116.75 24.0294C116.748 23.9832 116.746 23.937 116.743 23.8916C116.738 23.8072 116.731 23.7239 116.724 23.6404L116.72 23.5983L116.715 23.5408C116.712 23.5031 116.709 23.4654 116.706 23.4281C116.697 23.3391 116.686 23.2515 116.676 23.1635L116.675 23.1622L116.675 23.161C116.668 23.0933 116.66 23.0256 116.651 22.9589C116.645 22.9153 116.638 22.8721 116.632 22.8289L116.632 22.8275L116.622 22.7669C116.608 22.6683 116.593 22.5694 116.576 22.4725C116.573 22.4599 116.571 22.4474 116.569 22.4349C116.566 22.4223 116.564 22.4098 116.562 22.3972C116.262 20.7684 115.644 19.3755 114.712 18.2392C113.7 17.0039 112.395 16.2247 110.82 15.9099L110.812 15.9084L110.797 15.9056C110.789 15.9043 110.781 15.9029 110.774 15.9014C110.663 15.8799 110.55 15.8608 110.437 15.8437C110.411 15.8401 110.385 15.8367 110.358 15.8334L110.289 15.8246C110.202 15.8134 110.115 15.8021 110.026 15.7936C109.961 15.7873 109.895 15.7827 109.829 15.7782L109.781 15.7748L109.724 15.7706C109.68 15.7673 109.636 15.764 109.592 15.7619C109.442 15.7547 109.291 15.7506 109.137 15.7506C108.984 15.7506 108.835 15.7547 108.687 15.7615C108.604 15.7655 108.522 15.772 108.441 15.7785L108.44 15.7786L108.414 15.7806C108.393 15.7824 108.371 15.784 108.35 15.7855L108.35 15.7855C108.322 15.7875 108.295 15.7894 108.268 15.7919C106.338 15.9788 104.762 16.8038 103.573 18.2522C102.462 19.6064 101.793 21.313 101.577 23.3384C101.576 23.3548 101.574 23.3705 101.572 23.3869C101.56 23.5049 101.55 23.625 101.541 23.7451L101.541 23.746C101.538 23.789 101.534 23.8312 101.531 23.8742C101.524 23.9844 101.519 24.0962 101.514 24.2081C101.513 24.2291 101.512 24.2501 101.511 24.271L101.511 24.2712C101.51 24.2987 101.508 24.3261 101.507 24.3537C101.502 24.5137 101.5 24.6746 101.5 24.838C101.5 25.0044 101.502 25.1688 101.508 25.3315C101.508 25.3398 101.508 25.3479 101.509 25.3559V25.3562C101.509 25.3601 101.509 25.364 101.509 25.368C101.51 25.3718 101.51 25.3757 101.51 25.3796C101.598 27.8286 102.29 29.8557 103.573 31.4105C104.764 32.8555 106.346 33.6771 108.283 33.8602C108.285 33.8605 108.286 33.8607 108.288 33.8608L108.292 33.861L108.296 33.8613C108.427 33.8735 108.558 33.8827 108.691 33.8889C108.838 33.8957 108.986 33.8998 109.137 33.8998C109.289 33.8998 109.439 33.8957 109.587 33.8889C109.671 33.8849 109.753 33.8784 109.836 33.872L109.864 33.8698C109.9 33.867 109.936 33.8648 109.971 33.8621C109.984 33.8611 109.997 33.86 110.01 33.8589C111.952 33.674 113.532 32.8572 114.713 31.4235C115.897 29.9864 116.574 28.1318 116.735 25.901L116.738 25.8663L116.738 25.8661L116.738 25.8658C116.739 25.849 116.74 25.8323 116.741 25.8154C116.749 25.6967 116.754 25.576 116.76 25.4549C116.76 25.4367 116.761 25.4185 116.762 25.4003ZM122.32 24.1082C122.328 24.3483 122.333 24.5907 122.333 24.838C122.333 25.0853 122.328 25.3277 122.32 25.5678C122.319 25.5965 122.318 25.6251 122.317 25.6538C122.153 30.1453 120.63 33.3746 118.39 35.5303C116.208 37.7027 113.315 38.863 109.777 38.9871C109.564 38.9956 109.35 39.0001 109.137 39.0001C108.924 39.0001 108.711 38.9956 108.499 38.9871C104.701 38.8568 101.656 37.5527 99.446 35.1016C99.3764 35.0248 99.3099 34.9456 99.2435 34.8665L99.2433 34.8662L99.1897 34.8025C99.1727 34.7827 99.1556 34.763 99.1389 34.7432L99.113 34.7125L99.0843 34.6789L99.0842 34.6787C99.0657 34.657 99.0471 34.6354 99.0289 34.6135C99.0209 34.6039 99.013 34.5943 99.0052 34.5846C97.3668 32.6062 96.2518 29.9127 95.9966 26.4054C95.9959 26.3945 95.9953 26.3839 95.9942 26.373C95.9775 26.1384 95.9646 25.9003 95.9557 25.6585L95.9526 25.561C95.9451 25.3233 95.94 25.0829 95.94 24.838C95.94 24.5955 95.9448 24.3575 95.9526 24.1218L95.9527 24.1189V24.1188V24.1187C95.9537 24.0801 95.9547 24.041 95.9564 24.0024C95.9646 23.7757 95.9768 23.5526 95.9922 23.3323C95.9949 23.291 95.9983 23.2498 96.0014 23.2085C96.0185 22.9834 96.0383 22.7607 96.0625 22.5425L96.0662 22.5107L96.07 22.479C96.0952 22.257 96.1239 22.0384 96.1563 21.8232C96.1575 21.8158 96.1585 21.8083 96.1594 21.801C96.1605 21.7931 96.1616 21.7852 96.1628 21.7775C96.1966 21.5568 96.2348 21.3403 96.2757 21.1264L96.2921 21.0405C96.3341 20.8294 96.3794 20.6214 96.4282 20.4171L96.4376 20.3782L96.447 20.3393C96.4982 20.1299 96.5524 19.9236 96.6104 19.7214L96.6144 19.7083C96.6176 19.6979 96.6208 19.6876 96.6237 19.677C96.7465 19.2565 96.884 18.852 97.0362 18.4633C97.0408 18.4517 97.0452 18.4401 97.0496 18.4285L97.0501 18.4271C97.0544 18.4159 97.0587 18.4046 97.0632 18.3933C97.1317 18.2215 97.2034 18.0533 97.2774 17.8876C97.2993 17.8381 97.3214 17.788 97.344 17.7389C97.4081 17.5997 97.4743 17.4633 97.5422 17.329C97.5838 17.2457 97.6264 17.1632 97.6698 17.0814C97.6766 17.0681 97.6841 17.0551 97.6913 17.0418C98.1768 16.1309 98.7605 15.2933 99.4463 14.5355C101.658 12.0919 104.704 10.7922 108.504 10.663C108.714 10.6545 108.925 10.65 109.137 10.65C109.35 10.65 109.563 10.6548 109.776 10.6633C113.325 10.7878 116.224 11.9589 118.409 14.1511C120.638 16.3127 122.153 19.5427 122.317 24.0222C122.318 24.0503 122.319 24.0783 122.32 24.1064L122.32 24.1082ZM138.536 10.6537C135.083 10.6503 132.367 13.0307 131.388 14.3918C131.053 14.8584 130.417 14.7905 130.417 14.0122V11.2706C130.417 11.0991 130.28 10.9603 130.112 10.9603H125.478C125.309 10.9603 125.173 11.0991 125.173 11.2706V38.485C125.173 38.6565 125.309 38.7953 125.478 38.7953H130.427C130.596 38.7953 130.732 38.6565 130.732 38.485V22.321C130.732 19.1851 132.611 15.7505 137.278 15.7505C142.638 15.7505 143.874 19.9215 143.874 22.1273V38.485C143.874 38.6565 144.011 38.7953 144.18 38.7953H149.128C149.297 38.7953 149.434 38.6565 149.434 38.485V22.8176C149.434 16.1277 145.85 10.6612 138.536 10.6537ZM21.2369 10.9604H26.8834C27.0233 10.9604 27.1219 11.0992 27.0783 11.2335L18.4757 38.584C18.4338 38.7102 18.3171 38.7954 18.1857 38.7954H9.24678C9.11577 38.7954 8.99943 38.7105 8.95712 38.585L0.349808 11.2335C0.306137 11.0992 0.404738 10.9604 0.544622 10.9604H6.17513C6.29352 10.9604 6.39792 11.0391 6.4317 11.1544L13.199 33.3841C13.3686 33.895 14.081 33.8943 14.2499 33.3835L20.9803 11.1548C21.0141 11.0395 21.1185 10.9604 21.2369 10.9604Z" fill="currentColor"></path></svg>