<svg xmlns="http://www.w3.org/2000/svg" width="96" height="96" viewBox="0 0 96 96" fill="none" data-inject-url="https://www.globalpayments.com/-/media/feature/gpn/enterprise-components/iconography/breakfast-coffee.svg?rev=5ad12c09676344cfa74923c61ecd92b5"><mask id="path-2-inside-1_15_5829--inject-1" fill="white"><path d="M0 48C0 21.4903 21.4903 0 48 0V0C74.5097 0 96 21.4903 96 48V48C96 74.5097 74.5097 96 48 96V96C21.4903 96 0 74.5097 0 48V48Z"></path></mask><rect width="100%" height="100%" x="0" y="0" rx="100%" ry="100%" fill="#2668FF"></rect><path d="M53 40C59.6274 40 65 34.6274 65 28C65 21.3726 59.6274 16 53 16C46.3726 16 41 21.3726 41 28C41 34.6274 46.3726 40 53 40Z" fill="#14E8FF"></path><path d="M50.5 60.5C50.5 60.5 56.5 69.5 54 72C51.5 74.5 41.5 69.5 41.5 69.5" stroke="white" stroke-width="3" stroke-linejoin="round"></path><path d="M20.1094 60.5C20.1094 60.5 14.1094 69.5 16.6094 72C19.1094 74.5 29.1094 69.5 29.1094 69.5" stroke="white" stroke-width="3" stroke-linejoin="round"></path><path d="M64 22.5C64.8284 22.5 65.5 21.8284 65.5 21C65.5 20.1716 64.8284 19.5 64 19.5V22.5ZM52.5 22.5H64V19.5H52.5V22.5ZM58.25 24.5H52.5V27.5H58.25V24.5ZM55 34V31.5H52V34H55ZM54.5 32H58.25V29H54.5V32ZM55 31.5C55 31.7761 54.7762 32 54.5 32V29C53.1193 29 52 30.1193 52 31.5H55ZM58.25 27.5C58.6642 27.5 59 27.8358 59 28.25H62C62 26.1789 60.3211 24.5 58.25 24.5V27.5ZM48.5 23.5C48.5 25.7091 50.2909 27.5 52.5 27.5V24.5C51.9477 24.5 51.5 24.0523 51.5 23.5H48.5ZM59 28.25C59 28.6642 58.6642 29 58.25 29V32C60.3211 32 62 30.3211 62 28.25H59ZM52.5 19.5C50.2909 19.5 48.5 21.2909 48.5 23.5H51.5C51.5 22.9477 51.9477 22.5 52.5 22.5V19.5Z" fill="white"></path><path d="M73 43H73.5C76.5376 43 79 45.4624 79 48.5C79 51.5376 76.5376 54 73.5 54H73" stroke="white" stroke-width="3" stroke-linecap="square" stroke-linejoin="round"></path><path d="M55.5 62H62C65.3137 62 68 59.3137 68 56V37H39V45.5" stroke="white" stroke-width="3" stroke-linejoin="round"></path><path d="M35.5001 71L29.9126 57.337C28.7721 54.5482 28.5651 51.1238 31.0236 49.382C32.1291 48.5988 33.5966 48 35.5 48C37.4033 48 38.8709 48.5988 39.9763 49.3819C42.4351 51.1237 42.2282 54.5483 41.0876 57.3373L35.5001 71Z" stroke="white" stroke-width="3" stroke-linejoin="round"></path><path d="M45.4999 53.7824C46.2993 53.8304 47.1662 54.0421 48.0727 54.5083C49.1376 55.0559 49.885 55.7636 50.4084 56.5085C52.1406 58.974 50.3139 62.0386 48.024 63.9971L41.3351 69.7181C40.0973 70.7768 38.4823 71.2867 36.861 71.1309L35.5 71" stroke="white" stroke-width="3" stroke-linejoin="round"></path><path d="M25.1093 53.7823C24.3099 53.8303 23.443 54.042 22.5365 54.5082C21.4716 55.0559 20.7242 55.7635 20.2008 56.5085C18.4686 58.974 20.2953 62.0385 22.5851 63.997L29.2974 69.738C30.5215 70.785 32.115 71.2958 33.7196 71.1556L35.5 71" stroke="white" stroke-width="3" stroke-linejoin="round"></path></svg>