<svg xmlns="http://www.w3.org/2000/svg" width="96" height="96" viewBox="0 0 96 96" fill="none" data-inject-url="https://www.globalpayments.com/-/media/feature/gpn/enterprise-components/iconography/cocktail.svg?rev=daacbfbdece44950b14a70a1fb21ec3d"><mask id="path-2-inside-1_15_5828--inject-11" fill="white"><path d="M0 48C0 21.4903 21.4903 0 48 0V0C74.5097 0 96 21.4903 96 48V48C96 74.5097 74.5097 96 48 96V96C21.4903 96 0 74.5097 0 48V48Z"></path></mask><rect width="100%" height="100%" x="0" y="0" rx="100%" ry="100%" fill="#2668FF"></rect><path d="M57 52C63.6274 52 69 46.6274 69 40C69 33.3726 63.6274 28 57 28C50.3726 28 45 33.3726 45 40C45 46.6274 50.3726 52 57 52Z" fill="#14E8FF"></path><path d="M56.8927 37.6667L36.7273 37.6667L56.4546 59.2727L76.1818 37.6667L70.0344 37.6667" stroke="white" stroke-width="3" stroke-linecap="round" stroke-linejoin="round"></path><path d="M42.8333 44.2424L51.3035 44.2424" stroke="white" stroke-width="3" stroke-miterlimit="10" stroke-linecap="round"></path><path d="M66.7879 44.2424L69.6061 44.2424" stroke="white" stroke-width="3" stroke-miterlimit="10" stroke-linecap="round"></path><path d="M67.9548 30.7753L64.8859 36.0907" stroke="white" stroke-width="3" stroke-miterlimit="10" stroke-linecap="round"></path><path d="M56.9949 49.7588L55.2413 52.7962" stroke="white" stroke-width="3" stroke-miterlimit="10" stroke-linecap="round"></path><path d="M56.9947 49.7589C58.2529 50.4853 59.8616 50.0542 60.588 48.7961C61.3144 47.538 60.8833 45.9292 59.6252 45.2028C58.3671 44.4765 56.7583 44.9075 56.0319 46.1656C55.3056 47.4238 55.7366 49.0325 56.9947 49.7589Z" stroke="white" stroke-width="3" stroke-miterlimit="10" stroke-linecap="round"></path><path d="M59.6249 45.2029C60.883 45.9292 62.4917 45.4982 63.2181 44.24C63.9445 42.9819 63.5134 41.3732 62.2553 40.6468C60.9972 39.9204 59.3884 40.3515 58.6621 41.6096C57.9357 42.8677 58.3667 44.4765 59.6249 45.2029Z" stroke="white" stroke-width="3" stroke-miterlimit="10" stroke-linecap="round"></path><path d="M62.2554 40.6468C63.5136 41.3732 65.1223 40.9421 65.8487 39.684C66.5751 38.4259 66.144 36.8171 64.8859 36.0908C63.6278 35.3644 62.019 35.7955 61.2926 37.0536C60.5663 38.3117 60.9973 39.9204 62.2554 40.6468Z" stroke="white" stroke-width="3" stroke-miterlimit="10" stroke-linecap="round"></path><path d="M56.4545 59.2727L56.4545 79" stroke="white" stroke-width="3" stroke-miterlimit="10" stroke-linecap="round"></path><path d="M63.9697 79H48.9394" stroke="white" stroke-width="3" stroke-miterlimit="10" stroke-linecap="round"></path><path d="M19.818 40.4848L22.759 76.2459C22.8869 77.8022 24.1874 79 25.7489 79H41.3384C42.8999 79 44.2003 77.8022 44.3283 76.2459L46.121 54.4466" stroke="white" stroke-width="3" stroke-linecap="round" stroke-linejoin="round"></path><path d="M19.8182 40.4849L24.5306 30.3677C24.8589 29.6628 25.566 29.2121 26.3436 29.2121H40.5777C41.3648 29.2121 42.0787 29.6738 42.4016 30.3916L43.7727 33.4394" stroke="white" stroke-width="3" stroke-linecap="round" stroke-linejoin="round"></path><path d="M19.8182 40.5H32.9697" stroke="white" stroke-width="3" stroke-linecap="round" stroke-linejoin="round"></path><path d="M41.4241 29.2121V21C41.4241 18.7909 39.6332 17 37.4241 17H29.4544C27.2452 17 25.4544 18.7909 25.4544 21V29.2121" stroke="white" stroke-width="3" stroke-linejoin="round"></path><path d="M30.1515 21.697L32.0303 21.697" stroke="white" stroke-width="3" stroke-miterlimit="10" stroke-linecap="round"></path></svg>