<svg xmlns="http://www.w3.org/2000/svg" width="96" height="96" viewBox="0 0 96 96" fill="none" data-inject-url="https://www.globalpayments.com/-/media/feature/gpn/enterprise-components/iconography/fast-food.svg?rev=c3b4d80ec44a4c4a86b43b0429793770"><g clip-path="url(#clip0_1_4067--inject-4)"><mask id="path-2-inside-1_1_4067--inject-4" fill="white"><path d="M0 48C0 21.4903 21.4903 0 48 0C74.5097 0 96 21.4903 96 48C96 74.5097 74.5097 96 48 96C21.4903 96 0 74.5097 0 48Z"></path></mask><rect width="100%" height="100%" x="0" y="0" rx="100%" ry="100%" fill="#2668FF"></rect><path d="M63 69C69.6274 69 75 63.6274 75 57C75 50.3726 69.6274 45 63 45C56.3726 45 51 50.3726 51 57C51 63.6274 56.3726 69 63 69Z" fill="#14E8FF"></path><path d="M73.8716 54.6343H50.582C48.0476 54.6343 45.9932 56.6888 45.9932 59.2231V59.2327C45.9932 61.767 48.0476 63.8215 50.582 63.8215H73.8716C76.4059 63.8215 78.4604 61.767 78.4604 59.2327V59.2231C78.4604 56.6888 76.4059 54.6343 73.8716 54.6343Z" stroke="white" stroke-width="3" stroke-linejoin="round"></path><path d="M76.3565 63.082V66.9796C76.3616 67.249 76.3134 67.5166 76.2147 67.7673C76.1161 68.018 75.9688 68.2466 75.7815 68.4402C75.5941 68.6338 75.3704 68.7885 75.1231 68.8953C74.8758 69.0022 74.6099 69.0591 74.3405 69.0628H50.1101C49.8408 69.0591 49.5748 69.0022 49.3275 68.8953C49.0802 68.7885 48.8565 68.6338 48.6692 68.4402C48.4818 68.2466 48.3346 68.018 48.2359 67.7673C48.1372 67.5166 48.089 67.249 48.0941 66.9796V63.082" stroke="white" stroke-width="3" stroke-linejoin="round"></path><path d="M49.0454 54.5376C49.0454 49.6896 54.9494 45.7632 62.2262 45.7632C69.503 45.7632 75.407 49.6896 75.407 54.5376" stroke="white" stroke-width="3" stroke-linejoin="round"></path><path d="M36.2966 69.0618H25.631C25.0736 69.0625 24.5357 68.857 24.1209 68.4848C23.7062 68.1125 23.4438 67.5999 23.3846 67.0458L19.4678 30.345C19.4356 30.029 19.4699 29.7098 19.5686 29.4079C19.6672 29.1061 19.8279 28.8282 20.0404 28.5922C20.2529 28.3561 20.5125 28.1672 20.8024 28.0376C21.0923 27.9079 21.4062 27.8404 21.7238 27.8394H40.2133C40.5306 27.8403 40.8441 27.9078 41.1335 28.0375C41.423 28.1673 41.682 28.3564 41.8938 28.5926C42.1056 28.8288 42.2654 29.1068 42.3629 29.4087C42.4603 29.7105 42.4934 30.0295 42.4597 30.345L38.543 67.0458C38.4857 67.6007 38.224 68.1146 37.8088 68.4873C37.3935 68.8599 36.8545 69.0647 36.2966 69.0618V69.0618Z" stroke="white" stroke-width="3" stroke-linejoin="round"></path><path d="M20.1885 37.0562H41.7405" stroke="white" stroke-width="3" stroke-linejoin="round"></path><path d="M27.7031 68.1113L36.8423 21.8585L45.9911 16.7417" stroke="white" stroke-width="3" stroke-linejoin="round"></path></g><defs><clipPath id="clip0_1_4067--inject-4"><rect width="96" height="96" fill="white"></rect></clipPath></defs></svg>