<svg xmlns="http://www.w3.org/2000/svg" width="96" height="96" viewBox="0 0 96 96" fill="none" data-inject-url="https://www.globalpayments.com/-/media/feature/gpn/enterprise-components/iconography/dining-restaurants.svg?rev=3d958f16a3a4402e9282b4866f01b09c"><g clip-path="url(#clip0_1_4023--inject-6)"><mask id="path-2-inside-1_1_4023--inject-6" fill="white"><path d="M0 48C0 21.4903 21.4903 0 48 0C74.5097 0 96 21.4903 96 48C96 74.5097 74.5097 96 48 96C21.4903 96 0 74.5097 0 48Z"></path></mask><rect width="100%" height="100%" x="0" y="0" rx="100%" ry="100%" fill="#2668FF"></rect><path d="M48 63C54.6274 63 60 57.6274 60 51C60 44.3726 54.6274 39 48 39C41.3726 39 36 44.3726 36 51C36 57.6274 41.3726 63 48 63Z" fill="#14E8FF"></path><path d="M28.8663 16.8574V32.8798C28.8618 33.5403 28.9959 34.1944 29.2599 34.7998L32.7255 42.6718C33.0138 43.317 33.1485 44.0202 33.1191 44.7262L31.6791 76.3006C31.6624 76.925 31.7711 77.5464 31.9985 78.1281C32.226 78.7098 32.5677 79.24 33.0035 79.6875C33.4393 80.1349 33.9604 80.4905 34.5359 80.7332C35.1114 80.9759 35.7297 81.1009 36.3543 81.1006V81.1006C36.9789 81.1009 37.5972 80.9759 38.1727 80.7332C38.7483 80.4905 39.2693 80.1349 39.7051 79.6875C40.1409 79.24 40.4826 78.7098 40.7101 78.1281C40.9376 77.5464 41.0462 76.925 41.0295 76.3006L39.4359 44.6878C39.4065 43.9818 39.5412 43.2786 39.8295 42.6334L43.2951 34.7614C43.5591 34.156 43.6932 33.5019 43.6887 32.8414V16.8574" stroke="white" stroke-width="3" stroke-miterlimit="10" stroke-linecap="round"></path><path d="M39.1382 16.8574V31.9102" stroke="white" stroke-width="3" stroke-miterlimit="10" stroke-linecap="round"></path><path d="M33.8115 16.8574V31.9102" stroke="white" stroke-width="3" stroke-miterlimit="10" stroke-linecap="round"></path><path d="M61.2863 13.2379C61.5336 13.2114 61.7837 13.2358 62.0212 13.3096C62.2587 13.3833 62.4786 13.5048 62.6674 13.6667C62.8562 13.8285 63.0099 14.0272 63.1191 14.2507C63.2283 14.4741 63.2907 14.7175 63.3024 14.9659L66.1824 76.3003C66.199 76.9247 66.0904 77.546 65.8629 78.1278C65.6355 78.7095 65.2937 79.2397 64.8579 79.6871C64.4221 80.1346 63.9011 80.4901 63.3256 80.7329C62.7501 80.9756 62.1317 81.1005 61.5071 81.1003C60.8829 81.0992 60.2652 80.9734 59.6903 80.7302C59.1154 80.487 58.5949 80.1314 58.1593 79.6842C57.7238 79.2371 57.382 78.7074 57.1541 78.1262C56.9261 77.5451 56.8166 76.9243 56.8319 76.3003L58.3104 50.9755V50.8795C58.3071 50.3382 58.1478 49.8094 57.8515 49.3565C57.5552 48.9035 57.1345 48.5457 56.6399 48.3259L55.3343 47.6923C54.8823 47.4725 54.5013 47.13 54.2348 46.7039C53.9682 46.2778 53.827 45.7853 53.8271 45.2827V22.9627C53.8271 22.9627 54.0863 14.1499 61.2863 13.2379Z" stroke="white" stroke-width="3" stroke-miterlimit="10" stroke-linecap="round"></path></g><defs><clipPath id="clip0_1_4023--inject-6"><rect width="96" height="96" fill="white"></rect></clipPath></defs></svg>