<svg xmlns="http://www.w3.org/2000/svg" width="96" height="96" viewBox="0 0 96 96" fill="none" data-inject-url="https://www.globalpayments.com/-/media/feature/gpn/enterprise-components/iconography/pizza-slice.svg?rev=7866e777d30340e08885b0b670d1b910"><mask id="path-2-inside-1_15_5850--inject-7" fill="white"><path d="M0 48C0 21.4903 21.4903 0 48 0V0C74.5097 0 96 21.4903 96 48V48C96 74.5097 74.5097 96 48 96V96C21.4903 96 0 74.5097 0 48V48Z"></path></mask><rect width="100%" height="100%" x="0" y="0" rx="100%" ry="100%" fill="#2668FF"></rect><path d="M47 67C53.6274 67 59 61.6274 59 55C59 48.3726 53.6274 43 47 43C40.3726 43 35 48.3726 35 55C35 61.6274 40.3726 67 47 67Z" fill="#14E8FF"></path><path d="M35.2554 59.5417L23.56 61.9804L49.9694 19.3091C61.1533 26.6637 69.273 38.2968 72 51.8799L59.7092 54.4427" stroke="white" stroke-width="3" stroke-linecap="round" stroke-linejoin="round"></path><path d="M65.4044 53.2575C63.371 43.9511 58.4979 35.7016 51.7352 29.4563" stroke="white" stroke-width="3" stroke-linecap="round" stroke-linejoin="round"></path><circle cx="46.9507" cy="39.6529" r="3.18964" stroke="white" stroke-width="3"></circle><circle cx="41.6346" cy="51.2054" r="3.18964" stroke="white" stroke-width="3"></circle><path d="M39.5082 59.1795V73.2671C39.5082 74.8819 40.8172 76.1909 42.432 76.1909V76.1909C44.0468 76.1909 45.3559 74.8819 45.3559 73.2671V63.2896C45.3559 62.1152 46.3079 61.1632 47.4823 61.1632V61.1632C48.6567 61.1632 49.6087 62.1152 49.6087 63.2896V65.5588C49.6087 67.0268 50.7988 68.2168 52.2668 68.2168V68.2168C53.7347 68.2168 54.9248 67.0268 54.9248 65.5588V55.4583" stroke="white" stroke-width="3" stroke-linecap="round" stroke-linejoin="round"></path><path d="M52.2668 50.543L56.7776 46.0322" stroke="white" stroke-width="3" stroke-miterlimit="10" stroke-linecap="round"></path><path d="M52.2668 46.0321L56.7776 50.543" stroke="white" stroke-width="3" stroke-miterlimit="10" stroke-linecap="round"></path></svg>