<svg xmlns="http://www.w3.org/2000/svg" width="96" height="96" viewBox="0 0 96 96" fill="none" data-inject-url="https://www.globalpayments.com/-/media/feature/gpn/enterprise-components/iconography/storefront-merchant-in-person-shop-smb.svg?rev=55bb151d7bd64d88812a01b0de162049"><g clip-path="url(#clip0_1_4213--inject-9)"><mask id="path-2-inside-1_1_4213--inject-9" fill="white"><path d="M0 48C0 21.4903 21.4903 0 48 0C74.5097 0 96 21.4903 96 48C96 74.5097 74.5097 96 48 96C21.4903 96 0 74.5097 0 48Z"></path></mask><rect width="100%" height="100%" x="0" y="0" rx="100%" ry="100%" fill="#2668FF"></rect><path d="M48 60C54.6274 60 60 54.6274 60 48C60 41.3726 54.6274 36 48 36C41.3726 36 36 41.3726 36 48C36 54.6274 41.3726 60 48 60Z" fill="#14E8FF"></path><path d="M19.1514 34.6465H76.8474" stroke="white" stroke-width="3" stroke-linecap="round" stroke-linejoin="round"></path><path d="M24.3838 34.6465V37.5937C24.3838 38.8896 24.8986 40.1325 25.815 41.0489C26.7314 41.9653 27.9742 42.4801 29.2702 42.4801V42.4801C30.5645 42.4775 31.8049 41.9616 32.7192 41.0455C33.6335 40.1294 34.147 38.888 34.147 37.5937V34.6465" stroke="white" stroke-width="3" stroke-linecap="round" stroke-linejoin="round"></path><path d="M34.145 34.6465V37.5937C34.145 38.888 34.6585 40.1294 35.5728 41.0455C36.4871 41.9616 37.7275 42.4775 39.0218 42.4801C40.3178 42.4801 41.5606 41.9653 42.477 41.0489C43.3934 40.1325 43.9082 38.8896 43.9082 37.5937V34.6465" stroke="white" stroke-width="3" stroke-linecap="round" stroke-linejoin="round"></path><path d="M43.9102 34.6465V37.5937C43.9089 38.2349 44.0341 38.8701 44.2786 39.4629C44.5231 40.0557 44.8822 40.5944 45.3351 41.0483C45.7881 41.5022 46.3262 41.8623 46.9185 42.1079C47.5108 42.3536 48.1457 42.4801 48.787 42.4801V42.4801C49.4282 42.4801 50.0631 42.3536 50.6555 42.1079C51.2478 41.8623 51.7858 41.5022 52.2388 41.0483C52.6918 40.5944 53.0508 40.0557 53.2953 39.4629C53.5398 38.8701 53.665 38.2349 53.6638 37.5937V34.6465" stroke="white" stroke-width="3" stroke-linecap="round" stroke-linejoin="round"></path><path d="M53.6333 34.6465V37.5937C53.632 38.239 53.7588 38.8781 54.0063 39.4741C54.2538 40.07 54.6171 40.6109 55.0752 41.0654C55.5333 41.5199 56.077 41.879 56.6749 42.1218C57.2727 42.3647 57.9128 42.4864 58.5581 42.4801V42.4801C59.8398 42.4599 61.0621 41.9359 61.9604 41.0214C62.8587 40.1069 63.3608 38.8756 63.3581 37.5937V34.6465" stroke="white" stroke-width="3" stroke-linecap="round" stroke-linejoin="round"></path><path d="M63.3594 34.6465V37.5937C63.3594 38.8896 63.8742 40.1325 64.7906 41.0489C65.7069 41.9653 66.9498 42.4801 68.2458 42.4801C69.5401 42.4775 70.7805 41.9616 71.6948 41.0455C72.6091 40.1294 73.1226 38.888 73.1226 37.5937V34.6465" stroke="white" stroke-width="3" stroke-linecap="round" stroke-linejoin="round"></path><path d="M70.9534 25.7666H26.5822C25.368 25.7666 24.3838 26.7509 24.3838 27.965V67.5842C24.3838 68.7983 25.368 69.7826 26.5822 69.7826H70.9534C72.1675 69.7826 73.1518 68.7983 73.1518 67.5842V27.965C73.1518 26.7509 72.1675 25.7666 70.9534 25.7666Z" stroke="white" stroke-width="3" stroke-linecap="round" stroke-linejoin="round"></path><path d="M53.4531 51.917H44.0835C43.2723 51.917 42.6147 52.5746 42.6147 53.3858V68.3138C42.6147 69.125 43.2723 69.7826 44.0835 69.7826H53.4531C54.2643 69.7826 54.9219 69.125 54.9219 68.3138V53.3858C54.9219 52.5746 54.2643 51.917 53.4531 51.917Z" stroke="white" stroke-width="3" stroke-linecap="round" stroke-linejoin="round"></path><path d="M66.2393 51.936H60.4985C60.1061 51.936 59.7881 52.2541 59.7881 52.6464V58.3872C59.7881 58.7796 60.1061 59.0976 60.4985 59.0976H66.2393C66.6316 59.0976 66.9497 58.7796 66.9497 58.3872V52.6464C66.9497 52.2541 66.6316 51.936 66.2393 51.936Z" stroke="white" stroke-width="3" stroke-linecap="round" stroke-linejoin="round"></path><path d="M37.0161 51.917H31.2753C30.883 51.917 30.5649 52.235 30.5649 52.6274V58.3682C30.5649 58.7605 30.883 59.0786 31.2753 59.0786H37.0161C37.4085 59.0786 37.7265 58.7605 37.7265 58.3682V52.6274C37.7265 52.235 37.4085 51.917 37.0161 51.917Z" stroke="white" stroke-width="3" stroke-linecap="round" stroke-linejoin="round"></path></g><defs><clipPath id="clip0_1_4213--inject-9"><rect width="96" height="96" fill="white"></rect></clipPath></defs></svg>