<svg xmlns="http://www.w3.org/2000/svg" width="52" height="52" viewBox="0 0 52 52" fill="none" data-src="https://icm.aexp-static.com/Internet/Acquisition/US_en/AppContent/OneSite/Data/SVG/dls/dls-icon-info-subnav.svg" xmlns:xlink="http://www.w3.org/1999/xlink" role="img"><path fill-rule="evenodd" clip-rule="evenodd" d="M52 26C52 11.6406 40.3594 0 26 0C11.6406 0 0 11.6406 0 26C0 40.3594 11.6406 52 26 52C40.3594 52 52 40.3594 52 26ZM3.25 26C3.25 13.4556 13.4556 3.25 26 3.25C38.5444 3.25 48.75 13.4556 48.75 26C48.75 38.5444 38.5444 48.75 26 48.75C13.4556 48.75 3.25 38.5444 3.25 26ZM26 20.5833C26.8975 20.5833 27.625 21.3109 27.625 22.2083V35.75H29.7917C30.6891 35.75 31.4167 36.4775 31.4167 37.375C31.4167 38.2725 30.6891 39 29.7917 39H22.2083C21.3109 39 20.5833 38.2725 20.5833 37.375C20.5833 36.4775 21.3109 35.75 22.2083 35.75H24.375V23.8333H22.75C21.8525 23.8333 21.125 23.1058 21.125 22.2083C21.125 21.3109 21.8525 20.5833 22.75 20.5833H26ZM27.625 15.1667C27.625 13.97 26.655 13 25.4583 13C24.2617 13 23.2917 13.97 23.2917 15.1667C23.2917 16.3633 24.2617 17.3333 25.4583 17.3333C26.655 17.3333 27.625 16.3633 27.625 15.1667Z" fill="#006FCF"></path></svg>