<svg xmlns="http://www.w3.org/2000/svg" width="52" height="52" viewBox="0 0 52 52" fill="none" data-src="https://icm.aexp-static.com/Internet/Acquisition/US_en/AppContent/OneSite/Data/SVG/dls/dls-icon-card-subnav.svg" xmlns:xlink="http://www.w3.org/1999/xlink" role="img"><path fill-rule="evenodd" clip-rule="evenodd" d="M48.75 6.5C50.5449 6.5 52 7.95507 52 9.75V42.25C52 44.0449 50.5449 45.5 48.75 45.5H3.25C1.45507 45.5 0 44.0449 0 42.25V9.75C0 7.95507 1.45507 6.5 3.25 6.5H48.75ZM48.75 19.5H3.25V42.25H48.75V19.5ZM19.5 29.25C19.5 27.4551 18.0449 26 16.25 26H9.75C7.95507 26 6.5 27.4551 6.5 29.25V32.5C6.5 34.2949 7.95507 35.75 9.75 35.75H16.25C18.0449 35.75 19.5 34.2949 19.5 32.5V29.25ZM16.25 29.25H9.75V32.5H16.25V29.25ZM3.25 9.75H48.75V16.25H3.25V9.75Z" fill="#006FCF"></path></svg>