<svg viewBox="0 0 48 48" xmlns="http://www.w3.org/2000/svg" aria-hidden="true" width="1em" height="1em"><path d="M25.603.327l.214.1.208.114 16.947 9.942a4.14 4.14 0 012.02 3.34l.006.23v19.885a4.15 4.15 0 01-1.835 3.448l-.194.12-16.946 9.943A4.15 4.15 0 0124 48c-.62 0-1.235-.146-1.8-.424l-.234-.127-16.948-9.943a4.14 4.14 0 01-2.02-3.338L3 33.937V14.053c0-1.4.697-2.69 1.834-3.45l.193-.12L21.975.54a4.07 4.07 0 013.629-.214zm2.6 18.444l-2.953-5.993c-.5-.994-1.867-1.036-2.43-.124l-.07.124-2.953 5.993-6.603.96a1.4 1.4 0 00-.862 2.286l.1.096 4.778 4.665-1.128 6.587c-.188 1.1.916 1.948 1.912 1.524l.1-.052 5.905-3.1 5.905 3.1c.986.52 2.132-.27 2.038-1.35l-.016-.12-1.128-6.587 4.778-4.665a1.4 1.4 0 00-.644-2.357l-.13-.025-6.603-.96-2.953-5.993 2.953 5.993z"></path></svg>