<svg viewBox="0 0 20 20" focusable="false"><path d="M8.1734 7.34942C8.00711 6.87485 7.91669 6.36461 7.91669 5.83325C7.91669 3.78423 9.26127 2.04926 11.1162 1.46251C10.568 1.06658 9.8946 0.833252 9.16669 0.833252C7.32574 0.833252 5.83335 2.32564 5.83335 4.16658C5.83335 5.6616 6.81757 6.92674 8.1734 7.34942Z" fill="currentColor"></path><path d="M12.5 2.49992C12.0679 2.49992 11.6531 2.58255 11.272 2.73365C10.0402 3.22198 9.16669 4.4246 9.16669 5.83325C9.16669 6.13569 9.20718 6.42998 9.28351 6.7104C9.66865 8.1252 10.9617 9.16658 12.5 9.16658C14.341 9.16658 15.8334 7.6742 15.8334 5.83325C15.8334 3.9923 14.341 2.49992 12.5 2.49992Z" fill="currentColor"></path><path fill-rule="evenodd" clip-rule="evenodd" d="M1.66669 9.99992H6.25002V10.8659C8.30121 10.3859 10.0292 10.2478 11.4 10.3363C12.9123 10.4339 14.0862 10.8145 14.7344 11.4175C14.9598 11.6271 15.141 11.8842 15.2283 12.178C15.3711 12.0738 15.5097 11.9677 15.6424 11.8622C16.5454 11.1447 17.9465 11.1826 18.7204 12.1512C19.3078 12.8864 19.3396 13.9709 18.6705 14.7077C16.6402 16.9434 14.0675 18.4783 10.7983 18.3224C10.0311 18.2858 9.11605 18.0527 8.42565 17.8446C8.07338 17.7385 7.7659 17.6346 7.54624 17.5572C7.44407 17.5212 7.36057 17.4908 7.3 17.4684H6.25002V18.3333H1.66669V9.99992ZM6.25002 16.2184H7.53014L7.63876 16.2604L7.64295 16.262L7.65838 16.2679C7.67235 16.2732 7.69356 16.2811 7.72136 16.2915C7.77699 16.3121 7.85886 16.342 7.96173 16.3783C8.16778 16.4509 8.45651 16.5484 8.78627 16.6478C9.45991 16.8507 10.2522 17.0449 10.8579 17.0738C13.6432 17.2066 15.88 15.9212 17.7452 13.8674C17.9656 13.6246 17.9825 13.2302 17.7438 12.9315C17.4528 12.5673 16.8523 12.4974 16.4201 12.8409C15.6705 13.4365 14.6128 14.1608 13.5562 14.4541C13.2023 14.5523 12.8509 14.6296 12.5251 14.6903C12.0409 14.791 11.4972 14.8623 10.8976 14.901L10.8818 14.9021L10.8686 14.9029L10.8671 14.903L10.8647 14.9031L10.8634 14.9032C10.8634 14.9032 10.8627 14.9032 10.8281 14.2792L10.8634 14.9032L10.7891 13.6554C10.7994 13.6548 10.8098 13.6541 10.8201 13.6534L10.8416 13.652C10.8757 13.6496 10.9271 13.6457 10.9932 13.6399C11.1255 13.6284 11.3163 13.6093 11.5462 13.5795C11.7641 13.5512 12.0146 13.5135 12.282 13.4641C13.0557 13.3019 13.5536 13.0727 13.8223 12.8542C14.0192 12.6941 14.0337 12.5911 14.0347 12.5718C14.0354 12.5583 14.0367 12.4757 13.8831 12.3327C13.5507 12.0235 12.7302 11.6748 11.3195 11.5837C10.0334 11.5007 8.33359 11.6379 6.25002 12.1515V16.2184Z" fill="currentColor"></path></svg>