<svg xmlns="http://www.w3.org/2000/svg" xmlns:xlink="http://www.w3.org/1999/xlink" version="1.1" id="_x2014_ÎÓÈ_x5F_1" x="0px" y="0px" viewBox="0 0 1646 1000" xml:space="preserve"><style type="text/css">
	.st0{fill:#6EABDD;}
	.st1{fill:#639EC6;}
	.st2{fill:#373C57;}
	.st3{fill:#E8E8E8;}
	.st4{fill:#C1C1C1;}
	.st5{fill:#FFD340;}
	.st6{fill:#F05423;}
	.st7{fill:#1D252C;}
	.st8{fill-rule:evenodd;clip-rule:evenodd;fill:#B35F44;}
	.st9{fill-rule:evenodd;clip-rule:evenodd;fill:#EC7854;}
	.st10{fill-rule:evenodd;clip-rule:evenodd;fill:#F09274;}</style><rect width="1646" height="1000"></rect><circle cx="837.4" cy="500" r="389"></circle><g id="Plan_4_"><path d="M635.8,161l-81.9,30.4c-0.2-0.7-0.3-1.5-0.6-2.2c-2.9-7.9-11.8-12-19.7-9.1c-7.9,3-12,11.8-9.1,19.7   c0.3,0.7,0.6,1.4,1,2.1l-81.9,30.4c-5.9,2.2-8.9,8.7-6.7,14.6l98.2,264.5c2.2,5.9,8.7,8.9,14.6,6.7l192.1-71.3   c5.9-2.2,8.9-8.7,6.7-14.6l-98.2-264.5C648.2,161.8,641.7,158.8,635.8,161z"></path><g><polygon points="638,185.5 459.8,251.6 551,497.6 679.6,449.9 714,390.2   "></polygon><polygon points="679.6,449.9 714,390.2 664.3,408.6   "></polygon></g><rect x="483.9" y="277.7" transform="matrix(0.9376 -0.3478 0.3478 0.9376 -68.2023 188.2914)" width="12.9" height="12.9"></rect><rect x="493.2" y="302.7" transform="matrix(0.9376 -0.3478 0.3478 0.9376 -76.3357 193.074)" width="12.9" height="12.9"></rect><rect x="502.8" y="328.7" transform="matrix(0.9376 -0.3478 0.3478 0.9376 -84.7733 198.0508)" width="12.9" height="12.9"></rect><rect x="513.5" y="357.5" transform="matrix(0.9376 -0.3478 0.3478 0.9376 -94.1199 203.5784)" width="12.9" height="12.9"></rect><rect x="524.3" y="386.7" transform="matrix(0.9376 -0.3477 0.3477 0.9376 -103.5876 209.0897)" width="12.9" height="12.9"></rect><rect x="507.2" y="253" transform="matrix(0.9376 -0.3479 0.3479 0.9376 -53.902 212.4277)" width="114.8" height="6.6"></rect><rect x="516.6" y="278.3" transform="matrix(0.9376 -0.3478 0.3478 0.9376 -62.0883 217.2421)" width="114.8" height="6.6"></rect><rect x="526.2" y="304.2" transform="matrix(0.9376 -0.3478 0.3478 0.9376 -70.5278 222.2318)" width="114.8" height="6.6"></rect><rect x="536.9" y="333" transform="matrix(0.9376 -0.3478 0.3478 0.9376 -79.8703 227.742)" width="114.8" height="6.6"></rect><rect x="547.8" y="362.3" transform="matrix(0.9376 -0.3479 0.3479 0.9376 -89.3642 233.3442)" width="114.8" height="6.6"></rect><path d="M545.5,191.8c1.4,3.7-0.5,7.8-4.2,9.1c-3.7,1.4-7.8-0.5-9.1-4.2c-1.4-3.7,0.5-7.8,4.2-9.1   C540,186.3,544.1,188.1,545.5,191.8z"></path></g><g><g><path d="M818.6,291.3v270c0,4-3.2,7.2-7.2,7.2c-4,0-7.2-3.2-7.2-7.2v-270c0-4,3.2-7.2,7.2-7.2    C815.4,284.1,818.6,287.4,818.6,291.3z"></path><path d="M846.5,291.3v192.8c0,4-3.2,7.2-7.2,7.2c-4,0-7.2-3.2-7.2-7.2V291.3c0-4,3.2-7.2,7.2-7.2    C843.3,284.1,846.5,287.4,846.5,291.3z"></path><path d="M874.4,291.3v192.8c0,4-3.2,7.2-7.2,7.2s-7.2-3.2-7.2-7.2V291.3c0-4,3.2-7.2,7.2-7.2S874.4,287.4,874.4,291.3    z"></path><path d="M902.4,291.3v192.8c0,4-3.2,7.2-7.2,7.2s-7.2-3.2-7.2-7.2V291.3c0-4,3.2-7.2,7.2-7.2S902.4,287.4,902.4,291.3    z"></path><path d="M930.3,291.3v270c0,4-3.2,7.2-7.2,7.2s-7.2-3.2-7.2-7.2v-270c0-4,3.2-7.2,7.2-7.2S930.3,287.4,930.3,291.3z"></path><path d="M958.2,291.3v192.8c0,4-3.2,7.2-7.2,7.2s-7.2-3.2-7.2-7.2V291.3c0-4,3.2-7.2,7.2-7.2S958.2,287.4,958.2,291.3    z"></path><path d="M986.1,291.3v192.8c0,4-3.2,7.2-7.2,7.2c-4,0-7.2-3.2-7.2-7.2V291.3c0-4,3.2-7.2,7.2-7.2    C982.9,284.1,986.1,287.4,986.1,291.3z"></path><path d="M1014,291.3v192.8c0,4-3.3,7.2-7.2,7.2c-4,0-7.2-3.2-7.2-7.2V291.3c0-4,3.2-7.2,7.2-7.2    C1010.7,284.1,1014,287.4,1014,291.3z"></path><path d="M1041.9,291.3v192.8c0,4-3.3,7.2-7.2,7.2c-4,0-7.2-3.2-7.2-7.2V291.3c0-4,3.2-7.2,7.2-7.2    C1038.6,284.1,1041.9,287.4,1041.9,291.3z"></path><path d="M1069.8,291.3v192.8c0,4-3.2,7.2-7.2,7.2c-4,0-7.2-3.2-7.2-7.2V291.3c0-4,3.3-7.2,7.2-7.2    C1066.5,284.1,1069.8,287.4,1069.8,291.3z"></path><path d="M1097.7,291.3v192.8c0,4-3.2,7.2-7.2,7.2c-4,0-7.2-3.2-7.2-7.2V291.3c0-4,3.2-7.2,7.2-7.2    C1094.5,284.1,1097.7,287.4,1097.7,291.3z"></path><path d="M1125.6,291.3v192.8c0,4-3.2,7.2-7.2,7.2c-4,0-7.2-3.2-7.2-7.2V291.3c0-4,3.2-7.2,7.2-7.2    C1122.4,284.1,1125.6,287.4,1125.6,291.3z"></path><path d="M1153.5,291.3v270c0,4-3.2,7.2-7.2,7.2c-4,0-7.2-3.2-7.2-7.2v-270c0-4,3.2-7.2,7.2-7.2    C1150.3,284.1,1153.5,287.4,1153.5,291.3z"></path></g><path d="M823.4,211.5c0,4-3.2,7.2-7.2,7.2h-30.8v30.8c0,4-3.2,7.2-7.2,7.2c-4,0-7.2-3.2-7.2-7.2v-38   c0-4,3.3-7.2,7.2-7.2h38C820.2,204.3,823.4,207.5,823.4,211.5z"></path><path d="M823.4,618.8c0,4-3.2,7.2-7.2,7.2h-38c-4,0-7.2-3.2-7.2-7.2v-38c0-4,3.3-7.2,7.2-7.2c4,0,7.2,3.2,7.2,7.2v30.8   h30.8C820.2,611.6,823.4,614.8,823.4,618.8z"></path><path d="M1191.5,580.8v38c0,4-3.2,7.2-7.2,7.2h-38c-4,0-7.2-3.2-7.2-7.2s3.2-7.2,7.2-7.2h30.8v-30.8   c0-4,3.2-7.2,7.2-7.2C1188.3,573.6,1191.5,576.8,1191.5,580.8z"></path><path d="M1184.3,256.7c-4,0-7.2-3.2-7.2-7.2v-30.8h-30.8c-4,0-7.2-3.2-7.2-7.2c0-4,3.2-7.2,7.2-7.2h38   c4,0,7.2,3.2,7.2,7.2v38C1191.5,253.5,1188.3,256.7,1184.3,256.7z"></path><g><path d="M856.8,516.4v43.7c0,2.9-2.3,5.2-5.2,5.2c-2.8,0-5.2-2.3-5.2-5.2v-34.9l-7.1,2.2c-2.7,0.8-5.3-1.2-5.3-3.9    c0-1.7,1.1-3.3,2.7-3.9l16.4-5.9C854.9,513.3,856.8,514.6,856.8,516.4z"></path><path d="M975.8,513.9l-16.5,5.9c-1.6,0.6-2.7,2.1-2.7,3.9c0,2.7,2.7,4.7,5.3,3.9l7.1-2.2v34.9c0,2.9,2.3,5.2,5.2,5.2    c2.8,0,5.2-2.3,5.2-5.2v-43.7C979.4,514.6,977.5,513.3,975.8,513.9z"></path><path d="M894.4,516.4v43.7c0,2.9-2.3,5.2-5.2,5.2c-2.8,0-5.2-2.3-5.2-5.2v-34.9l-7.1,2.2c-2.6,0.8-5.3-1.2-5.3-3.9    c0-1.7,1.1-3.3,2.7-3.9l16.4-5.9C892.6,513.3,894.4,514.6,894.4,516.4z"></path><path d="M1033.1,561.2c0,2.3-1.9,4.2-4.2,4.2h-26.6c-2.8,0-5.1-2.3-5.1-5.1c0-1.3,0.5-2.5,1.4-3.5l15.5-16.6    c2.3-2.6,4.1-4.7,5.2-6.7c1.1-1.9,1.7-3.7,1.7-5.4c0-2.3-0.6-4.1-1.8-5.4c-1.2-1.3-2.8-2-5-2c-2.4,0-4.2,0.8-5.5,2.5    c-0.7,0.8-1.2,1.7-1.5,2.8c-0.6,2-2.3,3.6-4.5,3.6h-0.9c-3.2,0-5.6-3.2-4.4-6.2c0.3-0.9,0.7-1.7,1.2-2.6c1.5-2.7,3.7-4.7,6.5-6.2    c2.7-1.5,5.9-2.3,9.4-2.3c5.4,0,9.5,1.3,12.5,3.9c3,2.6,4.5,6.3,4.5,10.9c0,2.6-0.7,5.3-2,8c-1.3,2.7-3.6,5.8-6.9,9.4l-11.9,12.5    h18.3C1031.2,557,1033.1,558.9,1033.1,561.2z"></path><path d="M1074.5,550.7c0,4.6-1.7,8.4-5.1,11.2c-3.4,2.8-7.9,4.2-13.5,4.2c-5.2,0-9.5-1.3-12.8-4.1    c-1.3-1.1-2.3-2.3-3.1-3.6c-1.9-3.2,0.6-7.3,4.3-7.3c2,0,4,0.9,4.8,2.6c0.4,0.8,0.9,1.5,1.7,2.2c1.4,1.2,3.3,1.8,5.4,1.8    c2.5,0,4.4-0.6,5.8-1.9c1.4-1.3,2.1-3,2.1-5.2c0-5.2-2.9-7.9-8.6-7.9h-5.5v-8.1h5.5c2.7,0,4.6-0.7,5.9-2c1.3-1.3,1.9-3.1,1.9-5.3    c0-2.1-0.6-3.8-1.9-4.9c-1.3-1.2-3-1.8-5.2-1.8c-2,0-3.7,0.6-5,1.6c-1.1,0.9-1.7,2-1.9,3.3c-0.1,0.6-0.6,1-1.2,1h-3.5    c-1.6,0-3.2-0.9-4-2.4c-0.8-1.5-0.8-3.2,0.1-4.7c0-0.1,0.1-0.2,0.2-0.3c1.5-2.2,3.6-3.9,6.2-5.1c2.7-1.2,5.5-1.8,8.7-1.8    c5.5,0,9.9,1.3,13,4c3.1,2.6,4.7,6.3,4.7,10.9c0,2.4-0.7,4.6-2.2,6.6c-1.4,2-3.4,3.6-5.7,4.6c2.9,1.1,5.2,2.7,6.6,4.8    C1073.8,545.4,1074.5,547.8,1074.5,550.7z"></path><path d="M1114.2,545.7h-1.7v-25.9c0-3.8-3-6.8-6.7-6.8c-2.3,0-4.5,1.2-5.7,3.2l-18.8,29.8c-0.6,1-0.9,2.2-0.9,3.3    l0.1,0.8c0.1,2.2,2,3.9,4.1,3.9h17.6v6.1c0,2.9,2.3,5.2,5.2,5.2c2.9,0,5.2-2.3,5.2-5.2V554h1.7c2.3,0,4.2-1.9,4.2-4.2    C1118.4,547.5,1116.5,545.7,1114.2,545.7z M1102.1,545.7h-11.6l10.9-17.3l0.7-1.2V545.7z"></path></g></g><g><polygon points="655.4,493.5 729.5,519 803.7,544.5 729.5,569.9 655.4,595.4 581.3,569.9 507.1,544.5 581.3,519  "></polygon><polygon points="655.4,493.5 655.4,595.4 803.7,544.5  "></polygon><polygon points="701.3,440.4 678.2,467.1 655.1,493.8 729.2,519.2 803.3,544.6 826.5,517.9 849.6,491.2 775.5,465.8     "></polygon><polygon points="595.5,471.7 625.5,482.6 655.4,493.5 581.9,519 508.3,544.5 478.4,533.5 448.5,522.6 522,497.1  "></polygon><polygon points="803.7,544.5 655.4,595.2 655.4,789.8 803.7,739  "></polygon><polygon points="507.1,544.5 655.4,595.2 655.4,789.8 507.1,739  "></polygon><polygon points="701.5,649.7 678.3,622.4 655.1,595.1 729.4,569.8 803.6,544.5 826.8,571.8 849.9,599 775.7,624.4     "></polygon><polygon points="609.7,650.4 632.9,622.9 656,595.2 581.7,569.7 507.5,544.1 484.3,571.7 461,599.3 535.4,624.9  "></polygon><polygon points="836.7,644 887.2,661.4 937.8,678.7 887.2,696.1 836.7,713.5 786.1,696.1 735.6,678.7 786.1,661.4     "></polygon><polygon points="937.8,678.7 836.7,713.4 836.7,846.1 937.8,811.5  "></polygon><polygon points="735.6,678.7 836.7,713.4 836.7,846.1 735.6,811.5  "></polygon></g></svg>