<svg xmlns="http://www.w3.org/2000/svg" xmlns:xlink="http://www.w3.org/1999/xlink" version="1.1" id="Layer_1" x="0px" y="0px" viewBox="0 0 968.3 180.4" xml:space="preserve"><style type="text/css">
	.st0{fill:#7FC372;}
	.st1{fill:#707274;}
	.st2{fill:#707173;}</style><g><g><path d="M946.9,86.2c-36.9,34.1-77.3,58.8-124.1,72.8c-33.5,10-67.3,13.1-101.2,2.2c-30.9-9.9-56.7-27.4-77.8-54.6    c54.5-27.8,111-37.9,169.9-37.3c-59-11.5-114.8,2.3-170.6,21.5c8.7-24.5,24.6-42.3,45-56.1c39.1-26.4,81.6-26.5,125.6-15.2    C861.8,32,903.4,57.6,946.9,86.2z"></path><path d="M124.5,29.2c32.6-21.6,62.6-20.8,85.6,1.9c9,8.9,16.7,23,16.7,37c0,34.1,0.3,63.4,0.3,98.3    c-12.2,0-23.7,0-37.1,0c0-24.4,0.1-48.4,0.1-72.3c0-5.4,0.1-10.8,0-16.2c-0.3-16.6-8.7-26.5-22.6-26.9    c-14.4-0.4-23.5,9.8-23.6,27.4c-0.2,24,0,48,0,72c0,4.8-0.1,10.1-0.1,15.9c-12.8,0-24.3,0-38,0c0-21.2,0.1-43.1,0.1-64.4    c0-9.3,0.4-18.6-0.2-27.9c-0.9-14.1-10.7-23.3-23.6-23c-12.9,0.3-22.2,9.7-22.4,24c-0.4,29.8-0.1,61-0.1,91.3    c-12.3,0.1-25.2-0.2-37.3,0c-0.6-30.1-0.3-20.1-0.5-30.1c-0.4-19.6,0.1-39.2-0.2-58.8C21.2,51.6,31.9,31.8,54.9,20    C78.1,8.1,106.3,6.9,124.5,29.2z"></path><path d="M513.6,166.5c-13,0-23.6,0-36.5,0c0-19.8,0.1-39.2,0-58.5c0-8.3,0.4-16.7-0.8-24.9c-2.9-20-16.8-32.6-34-31.9    c-17.7,0.7-31.6,15.5-32.1,35.6c-0.6,25.9-0.1,51.9-0.1,79c-12.4,2.3-24.2,1.6-37.6,0.3c1-31.4-3-62.2,2.1-92.7    c6.3-37.4,38.5-62.6,73.8-59.7c36.3,3,64.3,32.9,65.2,70.9C514.1,111.4,513.6,138.3,513.6,166.5z"></path><path d="M240.7,130.1c23.3,0,31.1-2.8,41.2-12.7c-14-32.6-28.2-65.6-42.8-99.6c14.2,0,26.9,0,40.6,0    c8.1,18.4,16.3,37.1,25.8,58.6c11.3-21,21.4-39.7,31.6-58.6c13.5,0,26.6,0,39.5,0c2.4,4.3-0.6,7-2.2,9.9    c-18.3,34-36.4,68.2-55.3,101.9c-16.8,30.1-40.4,36.9-78.3,36.9C240.9,155.1,240.7,142.5,240.7,130.1z"></path><path d="M509.3,18c13.6,0,25.7,0,38.7,0c2.6,6.4,5.4,13.1,8.7,21.1c12.3,0,24.9,0,38.2,0c0,13-0.3,25.9-0.3,38.3    c-8.4,0.2-15.2-0.3-23.9,0.2c3.3,15.7,8.5,29.7,14.5,43.5c2.8,6.6,8.8,8.6,15.8,8.4c6.3-0.2,12.6,0,19.6,0    c0.6,13.9,0.2,25.5,0.1,37c-33.9,8.6-61.7-7.7-73.2-39.7C534.5,91,522.2,55,509.3,18z"></path></g></g></svg>