<svg xmlns="http://www.w3.org/2000/svg" id="Layer_1" version="1.1" viewBox="0 0 62.4 41.6"><!-- Generator: Adobe Illustrator 29.0.0, SVG Export Plug-In . SVG Version: 2.1.0 Build 186)  --><defs><style>
      .st0 {
        fill: #f4f4f5;
      }

      .st1 {
        fill: #214097;
      }

      .st2 {
        fill: #ed1d24;
      }</style></defs><path d="M62.4,3.2v3.2h-30.8v-3.2h30.8ZM62.4,9.6v3.2h-30.8v-3.2h30.8ZM62.4,16v3.2h-30.8v-3.2h30.8ZM62.4,22.4v3.2H0v-3.2h62.4ZM62.4,28.8v3.2H0v-3.2h62.4ZM62.4,35.2v3.2H0v-3.2h62.4Z"></path><path d="M0,0h62.4v3.2H0V0h0ZM0,38.4h62.4v3.2H0v-3.2h0ZM0,32h62.4v3.2H0v-3.2h0ZM0,25.6h62.4v3.2H0v-3.2h0ZM0,19.2h62.4v3.2H0v-3.2h0ZM0,12.8h62.4v3.2H0v-3.2h0ZM0,6.4h62.4v3.2H0v-3.2h0Z"></path><polygon points="0 0 31.6 0 31.6 22.4 0 22.4 0 0 0 0"></polygon><path d="M29,1.1l.3.9h.9s-.8.5-.8.5l.3.9-.8-.5-.8.5.3-.9-.8-.5h.9s.3-.9.3-.9h0ZM2.6,10l.3.9h.9s-.8.5-.8.5l.3.9-.8-.5-.8.5.3-.9-.8-.5h.9s.3-.9.3-.9h0ZM5.3,12.3l.3.9h.9s-.8.5-.8.5l.3.9-.8-.5-.8.5.3-.9-.8-.5h.9s.3-.9.3-.9h0ZM26.3,12.3l.3.9h.9s-.8.5-.8.5l.3.9-.8-.5-.8.5.3-.9-.8-.5h.9s.3-.9.3-.9h0ZM21.1,12.3l.3.9h.9s-.8.5-.8.5l.3.9-.8-.5-.8.5.3-.9-.8-.5h.9s.3-.9.3-.9h0ZM15.8,12.3l.3.9h.9s-.8.5-.8.5l.3.9-.8-.5-.8.5.3-.9-.8-.5h.9s.3-.9.3-.9h0ZM10.5,12.3l.3.9h.9s-.8.5-.8.5l.3.9-.8-.5-.8.5.3-.9-.8-.5h.9s.3-.9.3-.9h0ZM7.9,10l.3.9h.9s-.8.5-.8.5l.3.9-.8-.5-.8.5.3-.9-.8-.5h.9s.3-.9.3-.9h0ZM23.7,10l.3.9h.9s-.8.5-.8.5l.3.9-.8-.5-.8.5.3-.9-.8-.5h.9s.3-.9.3-.9h0ZM29,10l.3.9h.9s-.8.5-.8.5l.3.9-.8-.5-.8.5.3-.9-.8-.5h.9s.3-.9.3-.9h0ZM29,14.5l.3.9h.9s-.8.5-.8.5l.3.9-.8-.5-.8.5.3-.9-.8-.5h.9s.3-.9.3-.9h0ZM23.7,14.5l.3.9h.9s-.8.5-.8.5l.3.9-.8-.5-.8.5.3-.9-.8-.5h.9s.3-.9.3-.9h0ZM7.9,14.5l.3.9h.9s-.8.5-.8.5l.3.9-.8-.5-.8.5.3-.9-.8-.5h.9s.3-.9.3-.9h0ZM5.3,16.7l.3.9h.9s-.8.5-.8.5l.3.9-.8-.5-.8.5.3-.9-.8-.5h.9s.3-.9.3-.9h0ZM26.3,16.7l.3.9h.9s-.8.5-.8.5l.3.9-.8-.5-.8.5.3-.9-.8-.5h.9s.3-.9.3-.9h0ZM21.1,16.7l.3.9h.9s-.8.5-.8.5l.3.9-.8-.5-.8.5.3-.9-.8-.5h.9s.3-.9.3-.9h0ZM15.8,16.7l.3.9h.9s-.8.5-.8.5l.3.9-.8-.5-.8.5.3-.9-.8-.5h.9s.3-.9.3-.9h0ZM10.5,16.7l.3.9h.9s-.8.5-.8.5l.3.9-.8-.5-.8.5.3-.9-.8-.5h.9s.3-.9.3-.9h0ZM2.6,14.5l.3.9h.9s-.8.5-.8.5l.3.9-.8-.5-.8.5.3-.9-.8-.5h.9s.3-.9.3-.9h0ZM2.6,19l.3.9h.9s-.8.5-.8.5l.3.9-.8-.6-.8.6.3-.9-.8-.5h.9s.3-.9.3-.9h0ZM7.9,19l.3.9h.9s-.8.5-.8.5l.3.9-.8-.6-.8.6.3-.9-.8-.5h.9s.3-.9.3-.9h0ZM23.7,19l.3.9h.9s-.8.5-.8.5l.3.9-.8-.6-.8.6.3-.9-.8-.5h.9s.3-.9.3-.9h0ZM29,19l.3.9h.9s-.8.5-.8.5l.3.9-.8-.6-.8.6.3-.9-.8-.5h.9s.3-.9.3-.9h0ZM5.3,7.8l.3.9h.9s-.8.5-.8.5l.3.9-.8-.5-.8.5.3-.9-.8-.5h.9s.3-.9.3-.9h0ZM5.3,3.3l.3.9h.9s-.8.5-.8.5l.3.9-.8-.5-.8.5.3-.9-.8-.5h.9s.3-.9.3-.9h0ZM26.3,3.3l.3.9h.9s-.8.5-.8.5l.3.9-.8-.5-.8.5.3-.9-.8-.5h.9s.3-.9.3-.9h0ZM21.1,3.3l.3.9h.9s-.8.5-.8.5l.3.9-.8-.5-.8.5.3-.9-.8-.5h.9s.3-.9.3-.9h0ZM15.8,3.3l.3.9h.9s-.8.5-.8.5l.3.9-.8-.5-.8.5.3-.9-.8-.5h.9s.3-.9.3-.9h0ZM10.5,3.3l.3.9h.9s-.8.5-.8.5l.3.9-.8-.5-.8.5.3-.9-.8-.5h.9s.3-.9.3-.9h0ZM2.6,5.6l.3.9h.9s-.8.5-.8.5l.3.9-.8-.5-.8.5.3-.9-.8-.5h.9s.3-.9.3-.9h0ZM26.3,7.8l.3.9h.9s-.8.5-.8.5l.3.9-.8-.5-.8.5.3-.9-.8-.5h.9s.3-.9.3-.9h0ZM21.1,7.8l.3.9h.9s-.8.5-.8.5l.3.9-.8-.5-.8.5.3-.9-.8-.5h.9s.3-.9.3-.9h0ZM15.8,7.8l.3.9h.9s-.8.5-.8.5l.3.9-.8-.5-.8.5.3-.9-.8-.5h.9s.3-.9.3-.9h0ZM10.5,7.8l.3.9h.9s-.8.5-.8.5l.3.9-.8-.5-.8.5.3-.9-.8-.5h.9s.3-.9.3-.9h0ZM7.9,5.6l.3.9h.9s-.8.5-.8.5l.3.9-.8-.5-.8.5.3-.9-.8-.5h.9s.3-.9.3-.9h0ZM7.9,1.1l.3.9h.9s-.8.5-.8.5l.3.9-.8-.5-.8.5.3-.9-.8-.5h.9s.3-.9.3-.9h0ZM2.6,1.1l.3.9h.9s-.8.5-.8.5l.3.9-.8-.5-.8.5.3-.9-.8-.5h.9s.3-.9.3-.9h0ZM13.2,19l.3.9h.9s-.8.5-.8.5l.3.9-.8-.6-.8.6.3-.9-.8-.5h.9s.3-.9.3-.9h0ZM13.2,14.5l.3.9h.9s-.8.5-.8.5l.3.9-.8-.5-.8.5.3-.9-.8-.5h.9s.3-.9.3-.9h0ZM13.2,10l.3.9h.9s-.8.5-.8.5l.3.9-.8-.5-.8.5.3-.9-.8-.5h.9s.3-.9.3-.9h0ZM13.2,5.6l.3.9h.9s-.8.5-.8.5l.3.9-.8-.5-.8.5.3-.9-.8-.5h.9s.3-.9.3-.9h0ZM13.2,1.1l.3.9h.9s-.8.5-.8.5l.3.9-.8-.5-.8.5.3-.9-.8-.5h.9s.3-.9.3-.9h0ZM18.4,19l.3.9h.9s-.8.5-.8.5l.3.9-.8-.6-.8.6.3-.9-.8-.5h.9s.3-.9.3-.9h0ZM18.4,14.5l.3.9h.9s-.8.5-.8.5l.3.9-.8-.5-.8.5.3-.9-.8-.5h.9s.3-.9.3-.9h0ZM18.4,10l.3.9h.9s-.8.5-.8.5l.3.9-.8-.5-.8.5.3-.9-.8-.5h.9s.3-.9.3-.9h0ZM18.4,5.6l.3.9h.9s-.8.5-.8.5l.3.9-.8-.5-.8.5.3-.9-.8-.5h.9s.3-.9.3-.9h0ZM18.4,1.1l.3.9h.9s-.8.5-.8.5l.3.9-.8-.5-.8.5.3-.9-.8-.5h.9s.3-.9.3-.9h0ZM23.7,5.6l.3.9h.9s-.8.5-.8.5l.3.9-.8-.5-.8.5.3-.9-.8-.5h.9s.3-.9.3-.9h0ZM23.7,1.1l.3.9h.9s-.8.5-.8.5l.3.9-.8-.5-.8.5.3-.9-.8-.5h.9s.3-.9.3-.9h0ZM29,5.6l.3.9h.9s-.8.5-.8.5l.3.9-.8-.5-.8.5.3-.9-.8-.5h.9s.3-.9.3-.9h0Z"></path></svg>