<svg xmlns="http://www.w3.org/2000/svg" xmlns:xlink="http://www.w3.org/1999/xlink" version="1.1" id="Layer_1" x="0px" y="0px" viewBox="0 0 100 100" xml:space="preserve"><style type="text/css">
	.st0{fill:#1D252C;}
	.st1{fill:#F05423;}
	.st2{fill:#6EABDD;}
	.st3{fill:#6FC066;}
	.st4{fill:#FFD340;}
	.st5{fill:#373C57;}
	.st6{fill-rule:evenodd;clip-rule:evenodd;fill:#FCBA3D;}
	.st7{fill-rule:evenodd;clip-rule:evenodd;fill:#6EABDD;}
	.st8{fill-rule:evenodd;clip-rule:evenodd;fill:#F05423;}
	.st9{fill-rule:evenodd;clip-rule:evenodd;fill:#E6E6E5;}
	.st10{fill-rule:evenodd;clip-rule:evenodd;fill:#AA2172;}
	.st11{fill-rule:evenodd;clip-rule:evenodd;fill:#1B728C;}
	.st12{fill-rule:evenodd;clip-rule:evenodd;fill:#1D252C;}
	.st13{fill-rule:evenodd;clip-rule:evenodd;fill:#6FC066;}
	.st14{fill-rule:evenodd;clip-rule:evenodd;fill:#30373D;}
	.st15{fill-rule:evenodd;clip-rule:evenodd;fill:#BDB9B6;}
	.st16{fill-rule:evenodd;clip-rule:evenodd;fill:#ABA8A5;}
	.st17{fill-rule:evenodd;clip-rule:evenodd;fill:#8F4422;}
	.st18{fill-rule:evenodd;clip-rule:evenodd;fill:#73371D;}</style><path d="M-445.5-235.5h-67.2c-11.9,0-21.6-9.7-21.6-21.6v-16.5c0-11.9,9.7-21.6,21.6-21.6h67.2  c11.9,0,21.6,9.7,21.6,21.6v16.5C-423.8-245.2-433.5-235.5-445.5-235.5z"></path><path d="M-445.5-93.9h-67.2c-11.9,0-21.6-9.7-21.6-21.6v-16.5c0-11.9,9.7-21.6,21.6-21.6h67.2  c11.9,0,21.6,9.7,21.6,21.6v16.5C-423.8-103.6-433.5-93.9-445.5-93.9z"></path><path d="M-445.5-22.8h-67.2c-11.9,0-21.6-9.7-21.6-21.6V-61c0-11.9,9.7-21.6,21.6-21.6h67.2c11.9,0,21.6,9.7,21.6,21.6  v16.5C-423.8-32.5-433.5-22.8-445.5-22.8z"></path><path d="M-445.5,47.5h-67.2c-11.9,0-21.6-9.7-21.6-21.6V9.4c0-11.9,9.7-21.6,21.6-21.6h67.2c11.9,0,21.6,9.7,21.6,21.6  v16.5C-423.8,37.8-433.5,47.5-445.5,47.5z"></path><path d="M-445.5,119.3h-67.2c-11.9,0-21.6-9.7-21.6-21.6V81.2c0-11.9,9.7-21.6,21.6-21.6h67.2  c11.9,0,21.6,9.7,21.6,21.6v16.5C-423.8,109.6-433.5,119.3-445.5,119.3z"></path><path d="M-445.5-164.7h-67.2c-11.9,0-21.6-9.7-21.6-21.6v-16.5c0-11.9,9.7-21.6,21.6-21.6h67.2  c11.9,0,21.6,9.7,21.6,21.6v16.5C-423.9-174.4-433.6-164.7-445.5-164.7z"></path><g><g><path d="M31.8,43c17.6,0,31.8,10,31.8,22.2c0,12.3-14.2,22.2-31.8,22.2c-8.6,0-16.5-2.4-22.2-6.3    c3.3-1.6,5.3-4.4,4.8-7.2c-0.7-3.6-5.4-5.7-10.5-4.8c-1.1,0.2-2.1,0.5-3.1,1C0.3,68.6,0,67,0,65.3C0,53,14.2,43,31.8,43L31.8,43z"></path><path d="M9.7,64.9c2.4,0,4.5-2,4.5-4.5c0-2.5-2-4.5-4.5-4.5c-2.5,0-4.5,2-4.5,4.5C5.2,62.9,7.2,64.9,9.7,64.9    L9.7,64.9z"></path><path d="M21,57.1c2.5,0,4.5-2,4.5-4.5c0-2.5-2-4.5-4.5-4.5c-2.5,0-4.5,2-4.5,4.5C16.6,55.1,18.6,57.1,21,57.1L21,57.1    z"></path><path d="M34,55.4c2.5,0,4.5-2,4.5-4.5c0-2.5-2-4.5-4.5-4.5c-2.4,0-4.5,2-4.5,4.5C29.6,53.5,31.6,55.4,34,55.4L34,55.4    z"></path><path d="M46.9,59.4c2.5,0,4.5-2,4.5-4.5c0-2.5-2-4.5-4.5-4.5c-2.4,0-4.5,2-4.5,4.5C42.4,57.4,44.4,59.4,46.9,59.4    L46.9,59.4z"></path><path d="M54.2,70c2.5,0,4.5-2,4.5-4.5c0-2.5-2-4.5-4.5-4.5c-2.4,0-4.5,2-4.5,4.5C49.8,68,51.8,70,54.2,70L54.2,70z"></path><path d="M27.9,83.5c4,0,7.3-3.3,7.3-7.2c0-4-3.3-7.2-7.3-7.2c-4,0-7.2,3.3-7.2,7.2C20.7,80.2,23.9,83.5,27.9,83.5    L27.9,83.5z"></path><path d="M45.5,79.1c2.5,0,4.5-2,4.5-4.5c0-2.5-2-4.5-4.5-4.5s-4.5,2-4.5,4.5C41,77.1,43,79.1,45.5,79.1L45.5,79.1z"></path></g><g><path d="M59.4,29.7l39.5,31c1,0.8,1.4,2.1,0.7,3l0,0c-0.1,0.1-0.2,0.3-0.4,0.4c0,0.2-0.1,0.3-0.2,0.5    c-0.6,0.9-2,1-3.1,0.3L53.6,38L59.4,29.7z"></path><path d="M99.7,63.7c-0.1,0.1-0.2,0.3-0.4,0.4c0,0.2-0.1,0.3-0.2,0.5c-0.6,0.9-2,1-3.1,0.3L53.6,38l2.8-3.9L99.7,63.7    z"></path><path d="M55.3,37.1L55.3,37.1c4.1-5.9-0.2,0.3,3.9-5.6l0,0c0.6-0.9,0.8-1.7,0.4-1.9L44,21.8    c-0.4-0.2-1.2,0.4-1.8,1.2l0,0c-0.1,0.1-0.2,0.3-0.3,0.4c-0.1,0.1-0.2,0.3-0.3,0.4c-0.6,0.9-0.8,1.8-0.6,2.1l12.6,12.1    C53.9,38.4,54.7,38,55.3,37.1L55.3,37.1z"></path><path d="M55.3,37.1L55.3,37.1l1.8-2.6L41.6,23.9c-0.6,0.9-0.8,1.8-0.6,2.1l12.6,12.1C53.9,38.4,54.7,38,55.3,37.1    L55.3,37.1z"></path><path d="M30.4,18.7c-1.6-3-5.4-4.2-8.1-6.2c5.3-0.2,16.5,0.4,21.3,5.2c3.7,3.7,2.7,8.8-1.9,9.8    C35.5,28.9,32.9,23.4,30.4,18.7L30.4,18.7z"></path><path d="M30.4,18.7c-1.6-3-5.4-4.2-8.1-6.2l0.2,0c6,1.3,16.6,4.5,20.3,10.3c0.8,1.2,1.2,2.4,1.4,3.5    c-0.6,0.5-1.5,0.9-2.4,1.2C35.5,28.9,32.9,23.4,30.4,18.7L30.4,18.7z"></path></g></g></svg>