<svg xmlns="http://www.w3.org/2000/svg" id="logo-icon" viewBox="0 0 352 66"><path fill="#F60" d="M112.013 48.846h-7.136v7.136h7.136zM90.363 17.021l4.243 31.921 4.291-31.92h6.607l-6.22 38.96H89.88l-6.172-38.96zM3.665 17.021H0v5.16h3.665v33.802h6.461V22.18h4.533v-5.16h-4.533V9.113c0-1.157.241-2.025.82-2.652.578-.578 1.398-.868 2.555-.868h1.158V.29h-2.363c-2.893 0-5.642.627-6.944 1.88C4.05 3.425 3.665 5.353 3.665 8.15zM23.193 17.021h-6.46v39.01h6.46zM53.138 38.72h13.5V26.713c0-7.184-3.47-10.126-10.029-10.126-6.799 0-9.981 2.942-9.981 10.175v19.77c0 6.606 4.002 9.98 9.981 9.98 5.98 0 10.03-2.796 10.03-9.98v-3.135H60.37v3.713c0 2.652-1.012 4.484-3.616 4.484-2.652 0-3.616-1.832-3.616-4.484zm0-13.308c0-2.219.578-4.485 3.616-4.485s3.665 2.266 3.665 4.485v8.052h-7.233v-8.052zM37.804 33.802c-4.87-4.292-5.304-4.87-5.304-8.053 0-2.7.24-4.34 2.652-4.34 2.41 0 2.748 1.64 2.748 4.388v3.617h6.269V23.53c0-4.63-3.568-6.944-9.162-6.944-5.497 0-9.065 1.833-9.113 9.21v.772c0 2.314 0 5.979 5.738 10.897l1.64 1.399c4.243 3.568 4.677 4.002 4.677 8.245 0 2.604-.145 4.581-2.894 4.581s-2.893-1.977-2.893-3.23v-5.015h-6.558v5.159c0 6.317 4.099 7.908 9.451 7.908s9.451-1.591 9.451-9.74v-.676c0-5.69-1.012-7.232-6.702-12.295M75.318 21.024V17.02h-5.93v38.962h6.364V28.787c0-2.122.675-3.472 1.88-4.292 1.11-.771 2.508-1.06 4.292-1.06v-6.896c-3.375.048-4.821.723-6.557 4.34z"></path><path stroke="#666" stroke-miterlimit="10" stroke-width="1.745" d="M127.299 16.395v39.54"></path><path fill="#666" d="M142.777 37.563h5.256c.627 0 1.254 0 1.88.048.675.048 1.302.096 1.929.29a6.6 6.6 0 0 1 1.833.723c.578.337 1.157.771 1.639 1.35a8.4 8.4 0 0 1 1.736 3.23c.337 1.206.53 2.411.53 3.665 0 1.013-.096 1.88-.289 2.652a12 12 0 0 1-.723 2.122 8.2 8.2 0 0 1-.965 1.591c-.337.434-.723.82-1.061 1.06a4.5 4.5 0 0 1-1.446.869 7.7 7.7 0 0 1-1.591.434q-.869.144-1.736.144c-.579 0-1.254.049-1.929.049h-5.111V37.563zm2.556 16.201h2.459q1.302 0 2.604-.144 1.302-.145 2.169-.868a5 5 0 0 0 1.351-1.495c.337-.579.578-1.11.723-1.64s.241-1.06.289-1.542c.048-.483.048-.82.048-1.11 0-.144 0-.482-.048-.916s-.096-.916-.193-1.495c-.096-.53-.289-1.108-.53-1.687a5.6 5.6 0 0 0-1.013-1.591c-.578-.627-1.253-1.061-2.025-1.254a11.4 11.4 0 0 0-2.797-.338h-3.037zM163.029 49.907c0 .675.048 1.254.193 1.832s.337 1.061.627 1.447c.289.434.675.723 1.157.964s1.013.338 1.688.338c.771 0 1.446-.193 1.977-.627.578-.434.868-1.11.964-1.977h2.363c-.048.337-.097.723-.241 1.205q-.145.724-.868 1.447c-.145.145-.338.337-.579.53a7 7 0 0 1-.868.579c-.337.193-.771.29-1.254.434a8.6 8.6 0 0 1-1.687.193c-2.025 0-3.472-.579-4.436-1.736-.965-1.157-1.447-2.749-1.447-4.726 0-1.253.193-2.362.482-3.375.338-1.013 1.013-1.88 1.977-2.556.29-.24.627-.385.965-.482s.626-.193.964-.289l.868-.145c.289 0 .482-.048.675-.048.964 0 1.736.145 2.363.386a4.5 4.5 0 0 1 1.591 1.012c.386.434.723.868.916 1.399.241.53.386 1.012.482 1.543.097.53.145 1.06.145 1.543v1.253h-9.017zm6.703-1.688c0-.29-.049-.675-.097-1.109s-.193-.82-.386-1.205-.53-.724-.964-1.013q-.651-.434-1.736-.434c-.386 0-.771.048-1.205.193a3.6 3.6 0 0 0-1.109.627c-.338.29-.579.675-.82 1.157s-.338 1.06-.338 1.784zM173.927 43.156h2.652l4.05 10.03 3.954-10.03h2.604l-5.545 12.682h-2.411zM191.334 49.907c0 .675.048 1.254.193 1.832.144.579.337 1.061.626 1.447.29.434.675.723 1.158.964s1.012.338 1.687.338c.772 0 1.447-.193 1.977-.627.579-.434.868-1.11.965-1.977h2.362c-.048.337-.096.723-.241 1.205q-.144.724-.868 1.447a7 7 0 0 1-.578.53 7 7 0 0 1-.868.579c-.338.193-.772.29-1.254.434a8.6 8.6 0 0 1-1.688.193c-2.025 0-3.471-.579-4.436-1.736s-1.446-2.749-1.446-4.726c0-1.253.193-2.362.482-3.375.337-1.013 1.013-1.88 1.977-2.556.289-.24.627-.385.964-.482.338-.096.627-.193.965-.289l.868-.145c.289 0 .482-.048.675-.048.964 0 1.736.145 2.362.386a4.5 4.5 0 0 1 1.592 1.012c.385.434.723.868.916 1.399.241.53.386 1.012.482 1.543s.145 1.06.145 1.543v1.253h-9.017zm6.702-1.688c0-.29-.048-.675-.096-1.109s-.193-.82-.386-1.205-.53-.724-.964-1.013q-.651-.434-1.736-.434c-.386 0-.772.048-1.206.193a3.7 3.7 0 0 0-1.109.627c-.337.29-.578.675-.82 1.157-.241.482-.337 1.06-.337 1.784zM204.305 37.611h2.362v18.227h-2.362zM209.946 49.618c0-.772.097-1.543.29-2.363s.53-1.543 1.06-2.218c.483-.675 1.158-1.206 1.977-1.64s1.881-.627 3.086-.627c1.254 0 2.315.242 3.086.675a5.5 5.5 0 0 1 1.929 1.688c.482.675.772 1.399.965 2.17.192.772.241 1.495.241 2.17 0 .916-.145 1.784-.386 2.604s-.675 1.543-1.206 2.17q-.795.94-2.025 1.446c-.819.338-1.736.53-2.845.53-1.06 0-1.977-.192-2.748-.53a5.9 5.9 0 0 1-1.977-1.398c-.531-.579-.916-1.302-1.157-2.074q-.29-1.23-.29-2.603m2.459-.145c0 .675.049 1.302.193 1.88.145.58.386 1.11.675 1.592.338.482.724.82 1.206 1.109q.723.434 1.736.434c.434 0 .916-.097 1.35-.241a3.5 3.5 0 0 0 1.205-.868c.338-.386.675-.916.917-1.543.241-.627.337-1.447.337-2.411q0-2.387-1.012-3.617c-.676-.82-1.543-1.205-2.653-1.205a4 4 0 0 0-1.253.193 3.7 3.7 0 0 0-1.302.771c-.386.386-.723.868-1.013 1.495-.241.627-.386 1.398-.386 2.41M226.389 45.23v-.772c0-.145 0-.337-.048-.53 0-.193 0-.434-.048-.772h2.411l.048 2.074c.289-.483.627-.916 1.012-1.206.386-.29.772-.53 1.206-.675.386-.145.771-.29 1.157-.337.386-.049.675-.097.916-.097.675 0 1.35.145 1.977.386a4.4 4.4 0 0 1 1.688 1.157c.482.53.868 1.206 1.205 2.025.29.82.434 1.833.434 2.99s-.144 2.218-.482 3.038c-.337.868-.723 1.543-1.253 2.121a4.5 4.5 0 0 1-1.833 1.206 6.6 6.6 0 0 1-2.17.386c-.916 0-1.736-.193-2.362-.53a3.7 3.7 0 0 1-1.495-1.351v6.268h-2.363zm2.266 4.629c0 .385.049.868.097 1.398s.193 1.06.434 1.543.578.916 1.061 1.254c.482.337 1.109.53 1.977.53.144 0 .337 0 .53-.048.241-.048.434-.096.723-.145.241-.096.482-.193.724-.386.241-.144.482-.385.675-.675.241-.289.385-.626.53-1.012s.241-.724.338-1.11c.048-.337.096-.722.144-1.012.048-.337.048-.578.048-.82 0-.578-.048-1.157-.144-1.687a4.6 4.6 0 0 0-.531-1.495c-.241-.434-.626-.772-1.06-1.06-.434-.29-1.013-.387-1.736-.387-.965 0-1.688.193-2.17.627a3.7 3.7 0 0 0-1.109 1.495 5.7 5.7 0 0 0-.434 1.736c-.048.53-.097.964-.097 1.254M243.844 49.907c0 .675.049 1.254.193 1.832s.338 1.061.627 1.447c.289.434.675.723 1.157.964.483.241 1.013.338 1.688.338.772 0 1.447-.193 1.977-.627.579-.434.868-1.11.964-1.977h2.363c-.048.337-.096.723-.241 1.205q-.144.724-.868 1.447c-.145.145-.337.337-.579.53q-.362.29-.867.579c-.338.193-.772.29-1.254.434a8.6 8.6 0 0 1-1.688.193c-2.025 0-3.472-.579-4.436-1.736s-1.447-2.749-1.447-4.726c0-1.253.193-2.362.483-3.375.337-1.013 1.012-1.88 1.977-2.556.289-.24.626-.385.964-.482s.627-.193.964-.289l.868-.145c.29 0 .483-.048.675-.048.965 0 1.736.145 2.363.386a4.5 4.5 0 0 1 1.591 1.012c.386.434.724.868.917 1.399a6.4 6.4 0 0 1 .482 1.543c.096.53.144 1.06.144 1.543v1.253h-9.017zm6.703-1.688c0-.29-.048-.675-.097-1.109-.048-.434-.192-.82-.385-1.205s-.531-.724-.965-1.013q-.65-.434-1.736-.434c-.385 0-.771.048-1.205.193a3.6 3.6 0 0 0-1.109.627c-.338.29-.579.675-.82 1.157s-.337 1.06-.337 1.784zM256.864 45.712c0-.434 0-.868-.049-1.302-.048-.434-.048-.868-.096-1.254h2.411l.048 2.46a2.65 2.65 0 0 1 .53-1.11c.242-.289.483-.53.772-.723q.434-.289.868-.434c.289-.096.579-.145.868-.193.337-.048.675-.096.916-.096.289 0 .482 0 .723.048v2.315c-.096-.049-.241-.049-.434-.097-.096 0-.193-.048-.289-.048h-.386q-1.085 0-1.736.29c-.434.192-.771.481-1.06.819a3.4 3.4 0 0 0-.531 1.205 7.5 7.5 0 0 0-.144 1.495v6.75h-2.411zM278.321 50.486c0 .337.048.675.145 1.108a2.3 2.3 0 0 0 .53 1.158c.289.386.723.675 1.302.964.579.241 1.398.386 2.459.386.965 0 1.688-.145 2.267-.386a3.46 3.46 0 0 0 1.301-.916c.29-.337.483-.723.579-1.06a3.5 3.5 0 0 0 .145-.917c0-.482-.097-.916-.29-1.254s-.482-.578-.868-.82c-.385-.24-.819-.385-1.35-.578q-.795-.218-1.736-.434c-.675-.145-1.301-.337-1.784-.434-.53-.145-.964-.241-1.35-.386-.386-.144-.723-.24-1.012-.386-.29-.144-.531-.24-.772-.433-.723-.483-1.254-1.061-1.495-1.736s-.385-1.254-.385-1.88c0-.917.192-1.737.626-2.412.386-.675.917-1.205 1.592-1.64a7 7 0 0 1 2.218-.964c.819-.193 1.687-.337 2.555-.337.29 0 .675 0 1.109.048s.868.096 1.351.241c.482.145.916.29 1.398.53.482.242.868.58 1.254.965q.362.435.578.868c.145.29.241.578.338.82.096.289.144.53.144.771s.049.482.049.627h-2.604c-.048-.579-.145-1.06-.386-1.398-.241-.386-.53-.627-.916-.868-.338-.193-.772-.338-1.206-.434-.434-.097-.868-.097-1.35-.097-1.253 0-2.266.29-2.989.772-.724.53-1.061 1.253-1.061 2.17 0 .385.048.771.193 1.012.144.29.337.53.627.724.289.192.626.385 1.012.53q.65.218 1.447.434c1.061.29 1.929.53 2.604.675s1.205.337 1.591.434c.386.144.723.241.964.386.241.096.482.24.772.434.434.289.771.578 1.012.916.241.337.434.675.531 1.012.096.338.193.675.241.965s.048.53.048.723c0 .82-.145 1.543-.482 2.266a4.5 4.5 0 0 1-1.399 1.785c-.626.53-1.35.916-2.266 1.205s-1.929.434-3.086.434c-.337 0-.771 0-1.254-.048a9.6 9.6 0 0 1-1.543-.29c-.53-.144-1.06-.337-1.543-.626-.482-.29-.916-.627-1.301-1.11a5.4 5.4 0 0 1-.579-1.012c-.145-.338-.241-.675-.338-1.013-.096-.337-.096-.627-.144-.916 0-.29-.049-.53-.049-.771h2.556zM291.678 43.108h2.266v-2.652l2.363-.772v3.424h2.845v1.736h-2.845v7.618c0 .145 0 .338.048.53 0 .194.097.387.193.58s.289.289.482.433.531.193.965.193c.241 0 .482 0 .675-.048.192-.048.385-.048.482-.096v1.832c-.241.048-.482.048-.82.096-.337.049-.723.049-1.157.049-1.109 0-1.881-.193-2.411-.579-.531-.386-.772-1.109-.772-2.122v-8.438h-2.266v-1.784zM304.552 43.156v8.15c0 .288.049.626.097.964s.193.627.386.916c.192.29.482.482.819.675q.507.29 1.447.29c.578 0 1.157-.097 1.687-.338.531-.242.965-.579 1.302-1.11.29-.385.434-.82.483-1.253.048-.434.048-.82.048-1.157v-7.185h2.459v10.705c0 .192 0 .385.048.627 0 .24 0 .482.048.723v.627h-2.459l-.048-2.17c-.096.24-.289.482-.434.723q-.29.434-.723.723-.435.362-1.157.579a6 6 0 0 1-1.736.241c-.772 0-1.495-.096-2.026-.338a3.614 3.614 0 0 1-2.314-2.218 5 5 0 0 1-.289-1.736v-8.486h2.362zM326.106 37.611h2.363V54.15c0 .145 0 .338.048.53 0 .193 0 .386.048.58 0 .192 0 .385.049.578h-2.363l-.048-2.025c-.097.192-.241.385-.386.627q-.218.36-.723.723a5.5 5.5 0 0 1-1.64.723 6 6 0 0 1-1.495.193c-.434 0-.964-.096-1.543-.241a4.5 4.5 0 0 1-1.784-.916c-.578-.434-1.06-1.11-1.494-1.93s-.627-1.976-.627-3.374c0-1.206.144-2.267.482-3.135s.723-1.59 1.254-2.121c.53-.579 1.157-.965 1.832-1.254s1.398-.386 2.17-.386q1.012 0 1.736.29c.482.192.868.385 1.157.626.289.242.53.483.675.724.145.24.289.434.386.578v-7.329zm.049 11.669c0-.916-.097-1.64-.29-2.218-.193-.53-.434-1.013-.675-1.35s-.627-.627-1.061-.916a3.6 3.6 0 0 0-1.687-.386c-.579 0-1.061.096-1.495.337a2.67 2.67 0 0 0-.965.82 4 4 0 0 0-.578 1.11c-.145.385-.241.77-.338 1.156-.048.386-.096.724-.096 1.013v.675c0 .579.048 1.11.145 1.688s.289 1.109.53 1.543c.241.482.627.82 1.061 1.157.434.29 1.061.434 1.784.434.916 0 1.639-.241 2.17-.675s.868-.964 1.109-1.543.337-1.157.386-1.688zM332.712 37.611h2.845v2.604h-2.845zm.241 5.545h2.363v12.682h-2.363zM339.174 49.618c0-.772.096-1.543.289-2.363s.53-1.543 1.061-2.218c.482-.675 1.157-1.206 1.977-1.64s1.88-.627 3.086-.627c1.254 0 2.314.242 3.086.675a5.5 5.5 0 0 1 1.929 1.688c.482.675.771 1.399.964 2.17.193.772.241 1.495.241 2.17 0 .916-.145 1.784-.386 2.604s-.675 1.543-1.205 2.17q-.797.94-2.025 1.446c-.82.338-1.736.53-2.845.53-1.061 0-1.977-.192-2.749-.53a5.9 5.9 0 0 1-1.977-1.398c-.53-.579-.916-1.302-1.157-2.074s-.289-1.687-.289-2.603m2.507-.145c0 .675.048 1.302.193 1.88.145.58.386 1.11.675 1.592.338.482.723.82 1.205 1.109q.724.434 1.736.434c.434 0 .917-.097 1.351-.241a3.5 3.5 0 0 0 1.205-.868c.338-.386.675-.916.916-1.543s.338-1.447.338-2.411q0-2.387-1.013-3.617c-.675-.82-1.543-1.205-2.652-1.205-.386 0-.82.048-1.254.193a3.7 3.7 0 0 0-1.302.771c-.385.386-.723.868-1.012 1.495s-.386 1.398-.386 2.41"></path></svg>