<svg xmlns="http://www.w3.org/2000/svg" width="24" height="24" viewBox="0 0 24 24" fill="none"><rect width="24" height="24" fill="white"></rect><path d="M17.0714 15.2638C16.5638 15.2638 16.1519 14.852 16.1519 14.3444C16.1519 13.8367 16.5638 13.4249 17.0714 13.4249C17.579 13.4249 17.9909 13.8367 17.9909 14.3444C17.9909 14.852 17.579 15.2638 17.0714 15.2638ZM6.94776 15.2638C6.44014 15.2638 6.0283 14.852 6.0283 14.3444C6.0283 13.8367 6.44014 13.4249 6.94776 13.4249C7.45538 13.4249 7.86722 13.8367 7.86722 14.3444C7.86722 14.852 7.45538 15.2638 6.94776 15.2638ZM17.397 9.74706L19.236 6.57684C19.3413 6.39486 19.2743 6.165 19.0923 6.05964C18.9103 5.95429 18.6805 6.02133 18.5751 6.20331L16.717 9.41184C15.2995 8.76056 13.7096 8.39661 12.0144 8.39661C10.3191 8.39661 8.71964 8.76056 7.30213 9.40227L5.44406 6.19373C5.3387 6.01176 5.10884 5.94471 4.92686 6.05007C4.74489 6.15542 4.67784 6.38529 4.7832 6.56726L6.61254 9.73749C3.47105 11.4519 1.31606 14.6317 1 18.3957H23C22.6935 14.6413 20.5481 11.4615 17.397 9.74706Z" fill="#3DD382"></path></svg>