<svg xmlns="http://www.w3.org/2000/svg" width="86" height="52" viewBox="0 0 86 52" fill="none"><g clip-path="url(#clip0_7003_215618)"><path d="M54.2506 5.7207H31.6797V46.2766H54.2506V5.7207Z" fill="#FF5F00"></path><path d="M33.1127 25.9985C33.1127 18.1166 36.767 10.593 42.9292 5.72055C31.7513 -3.09283 15.4859 -1.15819 6.67255 10.0914C-2.06918 21.2694 -0.134533 37.4631 11.1151 46.2765C20.5017 53.6568 33.6143 53.6568 43.0009 46.2765C36.767 41.404 33.1127 33.8804 33.1127 25.9985Z" fill="#EB001B"></path><path d="M84.7024 25.9985C84.7024 40.2576 73.1661 51.7938 58.9071 51.7938C53.1032 51.7938 47.5142 49.8591 43 46.2765C54.178 37.4631 56.1126 21.2694 47.2992 10.0198C46.0094 8.44339 44.5764 6.93866 43 5.72055C54.178 -3.09283 70.4433 -1.15819 79.185 10.0914C82.7677 14.6056 84.7024 20.1946 84.7024 25.9985Z" fill="#F79E1B"></path></g><defs><clipPath id="clip0_7003_215618"><rect width="84.5" height="52" fill="white" transform="translate(0.75)"></rect></clipPath></defs></svg>