<svg xmlns="http://www.w3.org/2000/svg" width="50" height="50" viewBox="0 0 50 50" fill="none"><path d="M23.3225 1.62156C23.6822 1.62156 23.8621 1.8014 24.2218 1.98125C22.0636 2.88048 19.9055 5.21847 18.8264 10.2541L14.8698 11.3332C16.1287 7.73631 18.6466 1.62156 23.3225 1.62156ZM25.3008 3.42001C25.6605 4.49909 26.0202 5.75801 26.0202 7.73631C26.0202 7.91615 26.0202 7.91615 26.0202 8.096L20.8047 9.53476C21.8838 5.75801 23.6822 4.13939 25.3008 3.42001ZM29.9768 6.65723L27.6388 7.37661C27.6388 7.19677 27.6388 7.01692 27.6388 6.83708C27.6388 5.21847 27.459 3.95955 27.0993 2.88048C28.3582 3.24017 29.4373 4.85878 29.9768 6.65723ZM41.6668 9.53476C41.6668 9.35492 41.4869 9.17507 41.3071 9.17507C40.9474 9.17507 37.1706 8.81538 37.1706 8.81538C37.1706 8.81538 34.473 6.1177 34.1133 5.93785C33.7536 5.57816 33.214 5.758 33.0342 5.758C33.0342 5.758 32.4947 5.93785 31.5954 6.29754C30.6962 3.7797 29.0776 1.44171 26.3799 1.44171H26.2001C25.4807 0.362639 24.4016 0.00294816 23.5024 0.00294816C17.0279 -0.176897 13.9706 7.91615 12.8915 12.0526C11.4527 12.4123 10.014 12.9518 8.39537 13.4914C6.9566 13.8511 6.9566 14.0309 6.77676 15.2898C6.59691 16.189 3 44.6046 3 44.6046L31.5954 50L47.0622 46.5829C47.0622 46.5829 41.6668 9.89445 41.6668 9.53476Z" fill="#8DB849"></path><path d="M41.127 9.17292C40.9472 9.17292 37.1704 8.81323 37.1704 8.81323C37.1704 8.81323 34.4727 6.11555 34.1131 5.93571C33.9332 5.75586 33.9332 5.75586 33.7534 5.75586L31.5952 49.9979L47.0619 46.5808C47.0619 46.5808 41.6666 9.89231 41.6666 9.53262C41.6666 9.35277 41.3069 9.17292 41.127 9.17292Z" fill="#5A863E"></path><path d="M26.3797 17.8076L24.4014 23.5627C24.4014 23.5627 22.7828 22.6634 20.6246 22.6634C17.5673 22.6634 17.3874 24.4619 17.3874 25.0014C17.3874 27.5193 24.2215 28.5983 24.2215 34.7131C24.2215 39.5689 21.1642 42.6263 17.0277 42.6263C12.1719 42.6263 9.65405 39.5689 9.65405 39.5689L10.913 35.2526C10.913 35.2526 13.4308 37.4108 15.589 37.4108C17.0277 37.4108 17.5673 36.3317 17.5673 35.4325C17.5673 32.0154 11.992 31.8356 11.992 26.2604C11.992 21.5844 15.4091 17.0882 22.0634 17.0882C25.1208 16.9084 26.3797 17.8076 26.3797 17.8076Z" fill="#FFFFFE"></path></svg>