<svg xmlns="http://www.w3.org/2000/svg" style="display:none">
  <symbol id="icon-application" viewBox="0 0 24 24">
    <rect x="3" y="4" width="18" height="16" rx="3" ry="3" fill="none" stroke="currentColor" stroke-width="2"/>
    <line x1="7" y1="9" x2="17" y2="9" stroke="currentColor" stroke-width="2"/>
    <line x1="7" y1="13" x2="13" y2="13" stroke="currentColor" stroke-width="2"/>
  </symbol>
  <symbol id="icon-visibility" viewBox="0 0 24 24">
    <path d="M2 12s4-7 10-7 10 7 10 7-4 7-10 7-10-7-10-7z" fill="none" stroke="currentColor" stroke-width="2"/>
    <circle cx="12" cy="12" r="3" fill="none" stroke="currentColor" stroke-width="2"/>
  </symbol>
  <symbol id="icon-shipping" viewBox="0 0 24 24">
    <rect x="3" y="7" width="13" height="10" rx="2" ry="2" fill="none" stroke="currentColor" stroke-width="2"/>
    <polyline points="16,11 20,11 21,13 21,17 16,17" fill="none" stroke="currentColor" stroke-width="2"/>
    <circle cx="7.5" cy="18" r="1.5"/>
    <circle cx="18.5" cy="18" r="1.5"/>
  </symbol>
  <symbol id="icon-activation" viewBox="0 0 24 24">
    <circle cx="12" cy="12" r="4" fill="none" stroke="currentColor" stroke-width="2"/>
    <path d="M2 12h3M19 12h3M12 2v3M12 19v3" stroke="currentColor" stroke-width="2"/>
  </symbol>
  <symbol id="icon-funds" viewBox="0 0 24 24">
    <rect x="3" y="6" width="18" height="12" rx="2" ry="2" fill="none" stroke="currentColor" stroke-width="2"/>
    <circle cx="12" cy="12" r="2" />
  </symbol>
  <symbol id="icon-percentage" viewBox="0 0 24 24">
    <line x1="5" y1="19" x2="19" y2="5" stroke="currentColor" stroke-width="2"/>
    <circle cx="7" cy="7" r="2"/>
    <circle cx="17" cy="17" r="2"/>
  </symbol>
</svg>
