<svg xmlns="http://www.w3.org/2000/svg" width="345" height="240" viewBox="0 0 345 240" fill="none"><g clip-path="url(#clip0_11728_70609)"><rect width="345" height="72" fill="black"/><path d="M27.766 30.85H29.418L33.24 41H31.7L30.902 38.802H26.24L25.456 41H24L27.766 30.85ZM26.674 37.584H30.454L28.55 32.292L26.674 37.584ZM39.4425 30.85H40.7165V41H39.4425V39.866C39.2092 40.2673 38.8919 40.5893 38.4905 40.832C38.0892 41.0653 37.5852 41.182 36.9785 41.182C36.5305 41.182 36.1152 41.098 35.7325 40.93C35.3499 40.7527 35.0139 40.496 34.7245 40.16C34.4352 39.824 34.2065 39.4133 34.0385 38.928C33.8799 38.4427 33.8005 37.8873 33.8005 37.262C33.8005 36.646 33.8799 36.0953 34.0385 35.61C34.2065 35.1247 34.4352 34.714 34.7245 34.378C35.0139 34.042 35.3499 33.7853 35.7325 33.608C36.1152 33.4307 36.5305 33.342 36.9785 33.342C37.5852 33.342 38.0892 33.4633 38.4905 33.706C38.8919 33.9393 39.2092 34.2567 39.4425 34.658V30.85ZM39.4985 37.262C39.4985 36.7673 39.4379 36.3427 39.3165 35.988C39.1952 35.624 39.0319 35.33 38.8265 35.106C38.6212 34.8727 38.3832 34.7047 38.1125 34.602C37.8512 34.49 37.5805 34.434 37.3005 34.434C36.6192 34.434 36.0965 34.6813 35.7325 39.176C35.3685 39.6613 35.1865 40.3567 35.1865 41.262C35.1865 42.1673 35.3685 42.8673 35.7325 43.362C36.0965 43.8473 36.6192 44.09 37.3005 44.09C37.5805 44.09 37.8512 44.0387 38.1125 43.936C38.3832 43.824 38.6212 43.656 38.8265 43.432C39.0319 43.1987 39.1952 42.9047 39.3165 42.55C39.4379 42.186 39.4985 41.7567 39.4985 41.262ZM45.1768 43.236L47.2208 37.468H48.5368L45.6948 45H44.5608L41.7188 37.468H43.1328L45.1768 43.236ZM54.0356 41.374C53.4569 41.43 52.9342 41.5 52.4676 41.584C52.0009 41.6587 51.6042 41.7567 51.2776 41.878C50.9509 41.99 50.6989 42.1393 50.5216 42.326C50.3442 42.5033 50.2556 42.7227 50.2556 42.984C50.2556 43.3387 50.3816 43.628 50.6336 43.852C50.8949 44.0667 51.2542 44.174 51.7116 44.174C52.0102 44.174 52.2996 44.1367 52.5796 44.062C52.8596 43.978 53.1069 43.8427 53.3216 43.656C53.5362 43.46 53.7089 43.1987 53.8396 42.872C53.9702 42.5453 54.0356 42.13 54.0356 41.626V41.374ZM51.4316 45.182C51.0769 45.182 50.7409 45.1307 50.4236 45.028C50.1156 44.9347 49.8402 44.7993 49.5976 44.622C49.3642 44.4353 49.1776 44.2113 49.0376 43.95C48.9069 43.6793 48.8416 43.376 48.8416 43.04C48.8416 42.592 48.9629 42.2187 49.2056 41.92C49.4482 41.612 49.7889 41.36 50.2276 41.164C50.6756 40.9587 51.2122 40.7953 51.8376 40.674C52.4629 40.5527 53.1629 40.45 53.9376 40.366V40.156C53.9376 39.8013 53.8909 39.5073 53.7976 39.274C53.7136 39.0407 53.5922 38.8587 53.4336 38.728C53.2749 38.588 53.0882 38.49 52.8736 38.434C52.6589 38.378 52.4302 38.35 52.1876 38.35C51.5996 38.35 51.1562 38.4853 50.8576 38.756C50.5589 39.0173 50.3956 39.3813 50.3676 39.848H49.0516C49.0796 39.4467 49.1869 39.0873 49.3736 38.77C49.5602 38.4527 49.7982 38.1867 50.0876 37.972C50.3769 37.7573 50.7036 37.594 51.0676 37.482C51.4316 37.37 51.8096 37.314 52.2016 37.314C53.2469 37.314 54.0122 37.5567 54.4976 38.042C54.9829 38.5273 55.2209 39.3113 55.2116 40.394L55.1976 42.158C55.1882 42.7927 55.1976 43.3387 55.2256 43.796C55.2629 44.244 55.3189 44.6453 55.3936 45H54.1056C54.0869 44.86 54.0682 44.6967 54.0496 44.51C54.0309 44.3233 54.0169 44.118 54.0076 43.894C53.7742 44.286 53.4522 44.5987 53.0416 44.832C52.6402 45.0653 52.1036 45.182 51.4316 45.182ZM58.3699 38.602C58.5846 38.2473 58.8832 37.9487 59.2659 37.706C59.6579 37.4633 60.1712 37.342 60.8059 37.342C61.2632 37.342 61.6459 37.412 61.9539 37.552C62.2712 37.692 62.5279 37.8927 62.7239 38.154C62.9199 38.406 63.0599 38.7093 63.1439 39.064C63.2372 39.4187 63.2839 39.8107 63.2839 40.24V45H62.0099V40.618C62.0099 40.3287 61.9912 40.0533 61.9539 39.792C61.9166 39.5307 61.8419 39.302 61.7299 39.106C61.6179 38.9007 61.4499 38.742 61.2259 38.63C61.0112 38.5087 60.7219 38.448 60.3579 38.448C59.7419 38.448 59.2566 38.658 58.9019 39.078C58.5472 39.4887 58.3699 40.1 58.3699 40.912V45H57.0959V37.468H58.3699V38.602ZM68.2696 37.342C68.7363 37.342 69.1516 37.4213 69.5156 37.58C69.8796 37.7293 70.1923 37.93 70.4536 38.182C70.715 38.434 70.9203 38.7187 71.0696 39.036C71.2283 39.3533 71.331 39.6707 71.3776 39.988H70.0896C69.9963 39.54 69.7816 39.176 69.4456 38.896C69.119 38.6067 68.699 38.462 68.1856 38.462C67.887 38.462 67.607 38.518 67.3456 38.63C67.0936 38.742 66.8696 38.9147 66.6736 39.148C66.487 39.372 66.3376 39.6567 66.2256 40.002C66.1136 40.3473 66.0576 40.758 66.0576 41.234C66.0576 41.71 66.1136 42.1253 66.2256 42.48C66.3376 42.8347 66.4916 43.1287 66.6876 43.362C66.8836 43.5953 67.1076 43.7727 67.3596 43.894C67.621 44.006 67.8963 44.062 68.1856 44.062C68.4656 44.062 68.713 44.02 68.9276 43.936C69.1516 43.852 69.343 43.74 69.5016 43.6C69.6696 43.46 69.805 43.3013 69.9076 43.124C70.0196 42.9373 70.099 42.746 70.1456 42.55H71.4616C71.3963 42.9047 71.2703 43.2407 71.0836 43.558C70.897 43.8753 70.659 44.1553 70.3696 44.398C70.0896 44.6407 69.7583 44.832 69.3756 44.972C69.0023 45.112 68.5916 45.182 68.1436 45.182C67.593 45.182 67.103 45.084 66.6736 44.888C66.2443 44.692 65.8803 44.4213 65.5816 44.076C65.283 43.7307 65.0543 43.32 64.8956 42.844C64.7463 42.3587 64.6716 41.8267 64.6716 41.248C64.6716 40.688 64.751 40.17 64.9096 39.694C65.0776 39.218 65.3156 38.8073 65.6236 38.462C65.9316 38.1073 66.305 37.832 66.7436 37.636C67.1916 37.44 67.7003 37.342 68.2696 37.342ZM76.1049 45.182C75.4983 45.182 74.9663 45.084 74.5089 44.888C74.0609 44.6827 73.6829 44.4027 73.3749 44.048C73.0669 43.6933 72.8336 43.278 72.6749 42.802C72.5256 42.326 72.4509 41.808 72.4509 41.248C72.4509 40.6507 72.5396 40.114 72.7169 39.638C72.9036 39.1527 73.1556 38.742 73.4729 38.406C73.7996 38.0607 74.1823 37.7993 74.6209 37.622C75.0596 37.4353 75.5403 37.342 76.0629 37.342C76.6416 37.342 77.1549 37.454 77.6029 37.678C78.0603 37.902 78.4383 38.21 78.7369 38.602C79.0356 38.994 79.2503 39.4513 79.3809 39.974C79.5209 40.4967 79.5723 41.0567 79.5349 41.654H73.8369C73.8369 42.0273 73.8929 42.3633 74.0049 42.662C74.1263 42.9607 74.2896 43.2127 74.4949 43.418C74.7003 43.6233 74.9383 43.782 75.2089 43.894C75.4796 44.006 75.7689 44.062 76.0769 44.062C76.6649 44.062 77.1129 43.95 77.4209 43.726C77.7289 43.4927 77.9623 43.1893 78.1209 42.816H79.4369C79.3529 43.1427 79.2176 43.4507 79.0309 43.74C78.8443 44.02 78.6109 44.2673 78.3309 44.482C78.0603 44.6967 77.7383 44.8693 77.3649 45C76.9916 45.1213 76.5716 45.182 76.1049 45.182ZM76.0629 38.434C75.4189 38.434 74.8963 38.6207 74.4949 38.994C74.0936 39.358 73.8789 39.8807 73.8509 40.562H78.1909C78.1816 40.3007 78.1303 40.044 78.0369 39.792C77.9436 39.5307 77.8083 39.302 77.6309 39.106C77.4536 38.9007 77.2343 38.7373 76.9729 38.616C76.7116 38.4947 76.4083 38.434 76.0629 38.434ZM85.4307 39.666C85.328 39.218 85.1134 38.9007 84.7867 38.714C84.4694 38.518 84.0727 38.42 83.5967 38.42C83.4007 38.42 83.2047 38.4387 83.0087 38.476C82.8127 38.504 82.6354 38.56 82.4767 38.644C82.3274 38.7187 82.2014 38.8167 82.0987 38.938C82.0054 39.0593 81.9587 39.204 81.9587 39.372C81.9587 39.6707 82.0614 39.8947 82.2667 40.044C82.472 40.1933 82.7707 40.31 83.1627 40.394L84.2267 40.604C84.5814 40.6787 84.9174 40.7673 85.2347 40.87C85.5614 40.9727 85.8414 41.1127 86.0747 41.29C86.3174 41.458 86.5087 41.668 86.6487 41.92C86.7887 42.172 86.8587 42.48 86.8587 42.844C86.8587 43.2173 86.7794 43.5487 86.6207 43.838C86.462 44.1273 86.2427 44.3747 85.9627 44.58C85.6827 44.776 85.3514 44.9253 84.9687 45.028C84.5954 45.1307 84.1847 45.182 83.7367 45.182C83.2327 45.182 82.78 45.1073 82.3787 44.958C81.9867 44.8087 81.6507 44.6127 81.3707 44.37C81.1 44.1273 80.8854 43.8473 80.7267 43.53C80.5774 43.2127 80.484 42.8907 80.4467 42.564H81.7907C81.8934 43.0493 82.0987 43.4273 82.4067 43.698C82.724 43.9687 83.1767 44.104 83.7647 44.104C84.278 44.104 84.7074 44.006 85.0527 43.81C85.398 43.614 85.5707 43.3387 85.5707 42.984C85.5707 42.7973 85.5287 42.634 85.4447 42.494C85.3607 42.354 85.244 42.2373 85.0947 42.144C84.9547 42.0413 84.7867 41.962 84.5907 41.906C84.404 41.8407 84.2034 41.7847 83.9887 41.738L82.8687 41.514C82.598 41.458 82.332 41.3833 82.0707 41.29C81.8094 41.1967 81.5714 41.0707 81.3567 40.912C81.1514 40.7533 80.9834 40.5573 80.8527 40.324C80.7314 40.0813 80.6707 39.7827 80.6707 39.428C80.6707 39.092 80.75 38.798 80.9087 38.546C81.0674 38.2847 81.282 38.0653 81.5527 37.888C81.8327 37.7013 82.1594 37.5613 82.5327 37.468C82.906 37.3747 83.3074 37.328 83.7367 37.328C84.586 37.328 85.272 37.538 85.7947 37.958C86.3174 38.378 86.6394 38.9473 86.7607 39.666H85.4307Z" fill="black"/><path d="M172 32C172 27.5817 175.582 24 180 24H313C317.418 24 321 27.5817 321 32V48C321 52.4183 317.418 56 313 56H180C175.582 56 172 52.4183 172 48V32Z" fill="black" fill-opacity="0.04"/><path d="M313 23.5C317.694 23.5 321.5 27.3056 321.5 32V48C321.5 52.6944 317.694 56.5 313 56.5H180C175.306 56.5 171.5 52.6944 171.5 48V32C171.5 27.3056 175.306 23.5 180 23.5H313Z" stroke="black" stroke-opacity="0.04"/><path d="M172 32C172 27.5817 175.582 24 180 24H202C206.418 24 210 27.5817 210 32V48C210 52.4183 206.418 56 202 56H180C175.582 56 172 52.4183 172 48V32Z" fill="#FFFFFF"/><path d="M187.228 35.3H188.644L191.92 44H190.6L189.916 42.116H185.92L185.248 44H184L187.228 35.3ZM186.292 41.072H189.532L187.9 36.536L186.292 41.072ZM193.878 44H192.786V35.3H193.878V44ZM196.702 44H195.61V35.3H196.702V44Z" fill="black"/><path d="M227.228 35.3H228.644L231.92 44H230.6L229.916 42.116H225.92L225.248 44H224L227.228 35.3ZM226.292 41.072H229.532L227.9 36.536L226.292 41.072ZM235.484 37.436C235.884 37.436 236.24 37.504 236.552 37.64C236.864 37.768 237.132 37.94 237.356 38.156C237.58 38.372 237.756 38.616 237.884 38.888C238.02 39.16 238.108 39.432 238.148 39.704H237.044C236.964 39.32 236.78 39.008 236.492 38.768C236.212 38.52 235.852 38.396 235.412 38.396C235.156 38.396 234.916 38.444 234.692 38.54C234.476 38.636 234.284 38.784 234.116 38.984C233.956 39.176 233.828 39.42 233.732 39.716C233.636 40.012 233.588 40.366 233.588 40.772C233.588 41.18 233.636 41.536 233.732 41.84C233.828 42.144 233.96 42.396 234.128 42.596C234.296 42.796 234.488 42.948 234.704 43.052C234.928 43.148 235.164 43.196 235.412 43.196C235.652 43.196 235.864 43.16 236.048 43.088C236.24 43.016 236.404 42.92 236.54 42.8C236.684 42.68 236.8 42.544 236.888 42.392C236.984 42.232 237.052 42.068 237.092 41.9H238.22C238.164 42.204 238.056 42.492 237.896 42.764C237.736 43.036 237.532 43.276 237.284 43.484C237.044 43.692 236.76 43.856 236.432 43.976C236.112 44.096 235.76 44.156 235.376 44.156C234.904 44.156 234.484 44.072 234.116 43.904C233.748 43.736 233.436 43.504 233.18 43.208C232.924 42.912 232.728 42.56 232.592 42.152C232.464 41.736 232.4 41.28 232.4 40.784C232.4 40.304 232.468 39.86 232.604 39.452C232.748 39.044 232.952 38.692 233.216 38.396C233.48 38.092 233.8 37.856 234.176 37.688C234.56 37.52 234.996 37.436 235.484 37.436ZM239.766 35.924H240.858V37.544H242.082V38.42H240.858V42.248C240.858 42.416 240.862 42.556 240.87 42.668C240.886 42.772 240.914 42.856 240.954 42.92C241.002 42.984 241.07 43.028 241.158 43.052C241.246 43.076 241.37 43.088 241.53 43.088H242.082V44H241.29C240.978 44 240.722 43.98 240.522 43.94C240.33 43.892 240.178 43.812 240.066 43.7C239.954 43.58 239.874 43.416 239.826 43.208C239.786 42.992 239.766 42.716 239.766 42.38V38.42H238.746V37.544H239.766V35.924ZM244.565 37.544V44H243.473V37.544H244.565ZM244.565 35.3V36.62H243.473V35.3H244.565ZM248.398 42.488L250.15 37.544H251.278L248.842 44H247.87L245.434 37.544H246.646L248.398 42.488ZM254.716 44.156C254.196 44.156 253.74 44.072 253.348 43.904C252.964 43.728 252.64 43.488 252.376 43.184C252.112 42.88 251.912 42.524 251.776 42.116C251.648 41.708 251.584 41.264 251.584 40.784C251.584 40.272 251.66 39.812 251.812 39.404C251.972 38.988 252.188 38.636 252.46 38.348C252.74 38.052 253.068 37.828 253.444 37.676C253.82 37.516 254.232 37.436 254.68 37.436C255.176 37.436 255.616 37.532 256 37.724C256.392 37.916 256.716 38.18 256.972 38.516C257.228 38.852 257.412 39.244 257.524 39.692C257.644 40.14 257.688 40.62 257.656 41.132H252.772C252.772 41.452 252.82 41.74 252.916 41.996C253.02 42.252 253.16 42.468 253.336 42.644C253.512 42.82 253.716 42.956 253.948 43.052C254.18 43.148 254.428 43.196 254.692 43.196C255.196 43.196 255.58 43.1 255.844 42.908C256.108 42.708 256.308 42.448 256.444 42.128H257.572C257.5 42.408 257.384 42.672 257.224 42.92C257.064 43.16 256.864 43.372 256.624 43.556C256.392 43.74 256.116 43.888 255.796 44C255.476 44.104 255.116 44.156 254.716 44.156ZM254.68 38.372C254.128 38.372 253.68 38.532 253.336 38.852C252.992 39.164 252.808 39.612 252.784 40.196H256.504C256.496 39.972 256.452 39.752 256.372 39.536C256.292 39.312 256.176 39.116 256.024 38.948C255.872 38.772 255.684 38.632 255.46 38.528C255.236 38.424 254.976 38.372 254.68 38.372Z" fill="black" fill-opacity="0.5"/><path d="M288.756 35.3C289.284 35.3 289.768 35.336 290.208 35.408C290.656 35.48 291.04 35.616 291.36 35.816C291.68 36.008 291.928 36.276 292.104 36.62C292.28 36.956 292.368 37.392 292.368 37.928C292.368 38.472 292.28 38.916 292.104 39.26C291.928 39.596 291.68 39.86 291.36 40.052C291.04 40.244 290.656 40.376 290.208 40.448C289.768 40.52 289.284 40.556 288.756 40.556H287.256V44H286.032V35.3H288.756ZM287.256 36.332V39.488H288.852C289.172 39.488 289.468 39.476 289.74 39.452C290.02 39.42 290.26 39.352 290.46 39.248C290.668 39.136 290.828 38.98 290.94 38.78C291.06 38.572 291.12 38.288 291.12 37.928C291.12 37.576 291.06 37.296 290.94 37.088C290.828 36.872 290.668 36.708 290.46 36.596C290.26 36.484 290.02 36.412 289.74 36.38C289.468 36.348 289.172 36.332 288.852 36.332H287.256ZM297.034 40.892C296.538 40.94 296.09 41 295.69 41.072C295.29 41.136 294.95 41.22 294.67 41.324C294.39 41.42 294.174 41.548 294.022 41.708C293.87 41.86 293.794 42.048 293.794 42.272C293.794 42.576 293.902 42.824 294.118 43.016C294.342 43.2 294.65 43.292 295.042 43.292C295.298 43.292 295.546 43.26 295.786 43.196C296.026 43.124 296.238 43.008 296.422 42.848C296.606 42.68 296.754 42.456 296.866 42.176C296.978 41.896 297.034 41.54 297.034 41.108V40.892ZM294.802 44.156C294.498 44.156 294.21 44.112 293.938 44.024C293.674 43.944 293.438 43.828 293.23 43.676C293.03 43.516 292.87 43.324 292.75 43.10C292.638 42.868 292.582 42.608 292.582 42.32C292.582 41.936 292.686 41.616 292.894 41.36C293.102 41.096 293.394 40.88 293.77 40.712C294.154 40.536 294.614 40.396 295.15 40.292C295.686 40.188 296.286 40.1 296.95 40.028V39.848C296.95 39.544 296.91 39.292 296.83 39.092C296.758 38.892 296.654 38.736 296.518 38.624C296.382 38.504 296.222 38.42 296.038 38.372C295.854 38.324 295.658 38.3 295.45 38.3C294.946 38.3 294.566 38.416 294.31 38.648C294.054 38.872 293.914 39.184 293.89 39.584H292.762C292.786 39.24 292.878 38.932 293.038 38.66C293.198 38.388 293.402 38.16 293.65 37.976C293.898 37.792 294.178 37.652 294.49 37.556C294.802 37.46 295.126 37.412 295.462 37.412C296.358 37.412 297.014 37.62 297.43 38.036C297.846 38.452 298.05 39.124 298.042 40.052L298.03 41.564C298.022 42.108 298.03 42.576 298.054 42.968C298.086 43.352 298.134 43.696 298.198 44H297.094C297.078 43.88 297.062 43.74 297.046 43.58C297.03 43.42 297.018 43.244 297.01 43.052C296.81 43.388 296.534 43.656 296.182 43.856C295.838 44.056 295.378 44.156 294.802 44.156ZM300.749 37.544V44H299.657V37.544H300.749ZM300.749 35.3V36.62H299.657V35.3H300.749ZM306.873 35.3H307.965V44H306.873V43.028C306.673 43.372 306.401 43.648 306.057 43.856C305.713 44.056 305.281 44.156 304.761 44.156C304.377 44.156 304.021 44.084 303.693 43.94C303.365 43.788 303.077 43.568 302.829 43.28C302.581 42.992 302.385 42.64 302.241 42.224C302.105 41.808 302.037 41.332 302.037 40.796C302.037 40.268 302.105 39.796 302.241 39.38C302.385 38.964 302.581 38.612 302.829 38.324C303.077 38.036 303.365 37.816 303.693 37.664C304.021 37.512 304.377 37.436 304.761 37.436C305.281 37.436 305.713 37.54 306.057 37.748C306.401 37.948 306.673 38.22 306.873 38.564V35.3ZM306.921 40.796C306.921 40.372 306.869 40.008 306.765 39.704C306.661 39.392 306.521 39.14 306.345 38.948C306.169 38.748 305.965 38.604 305.733 38.516C305.509 38.42 305.277 38.372 305.037 38.372C304.453 38.372 304.005 38.584 303.693 39.008C303.381 39.424 303.225 40.02 303.225 40.796C303.225 41.572 303.381 42.172 303.693 42.596C304.005 43.012 304.453 43.22 305.037 43.22C305.277 43.22 305.509 43.176 305.733 43.088C305.965 42.992 306.169 42.848 306.345 42.656C306.521 42.456 306.661 42.204 306.765 41.9C306.869 41.588 306.921 41.22 306.921 40.796Z" fill="black" fill-opacity="0.5"/><rect width="345" height="192" transform="translate(0 80)" fill="#FFFFFF"/><path d="M24 112C24 107.582 27.5817 104 32 104H56C60.4183 104 64 107.582 64 112V136C64 140.418 60.4183 144 56 144H32C27.5817 144 24 140.418 24 136V112Z" fill="black" fill-opacity="0.04"/><path d="M42.5387 121.88C42.4057 121.5 42.3334 121.092 42.3334 120.667C42.3334 119.028 43.409 117.64 44.893 117.17C44.4544 116.853 43.9157 116.667 43.3334 116.667C41.8606 116.667 40.6667 117.861 40.6667 119.333C40.6667 120.529 41.4541 121.542 42.5387 121.88Z" fill="black" fill-opacity="0.5"/><path d="M46 118C45.6544 118 45.3225 118.066 45.0176 118.187C44.0322 118.578 43.3334 119.54 43.3334 120.667C43.3334 120.909 43.3658 121.144 43.4268 121.368C43.7349 122.5 44.7693 123.333 46 123.333C47.4728 123.333 48.6667 122.14 48.6667 120.667C48.6667 119.194 47.4728 118 46 118Z" fill="black" fill-opacity="0.5"/><path fill-rule="evenodd" clip-rule="evenodd" d="M37.3334 124H41V124.693C42.641 124.309 44.0233 124.198 45.1201 124.269C46.3299 124.347 47.269 124.652 47.7876 125.134C47.9678 125.302 48.1128 125.508 48.1826 125.743C48.2969 125.659 48.4078 125.574 48.514 125.49C49.2364 124.916 50.3572 124.946 50.9763 125.721C51.4462 126.309 51.4717 127.177 50.9364 127.766C49.3122 129.555 47.254 130.783 44.6387 130.658C44.0249 130.629 43.2929 130.442 42.7405 130.276C42.4587 130.191 42.2127 130.108 42.037 130.046C41.9553 130.017 41.8885 129.993 41.84 129.975H41V130.667H37.3334V124ZM41 128.975H42.0241L42.111 129.008L42.1144 129.01L42.1267 129.014C42.1379 129.019 42.1549 129.025 42.1771 129.033C42.2216 129.05 42.2871 129.074 42.3694 129.103C42.5342 129.161 42.7652 129.239 43.029 129.318C43.5679 129.481 44.2018 129.636 44.6863 129.659C46.9146 129.765 48.704 128.737 50.1962 127.094C50.3725 126.9 50.386 126.584 50.1951 126.345C49.9623 126.054 49.4819 125.998 49.1361 126.273C48.5364 126.749 47.6902 127.329 46.845 127.563C46.5619 127.642 46.2807 127.704 46.0201 127.752C45.6327 127.833 45.1978 127.89 44.7181 127.921L44.7055 127.922L44.6949 127.922L44.6937 127.923L44.6918 127.923L44.6908 127.923C44.6908 127.923 44.6902 127.923 44.6625 127.424L44.6908 127.923L44.6313 126.924C44.6396 126.924 44.6479 126.923 44.6561 126.923L44.6733 126.922C44.7006 126.92 44.7417 126.917 44.7946 126.912C44.9004 126.903 45.0531 126.888 45.237 126.864C45.4113 126.841 45.6117 126.811 45.8256 126.771C46.4446 126.642 46.8429 126.458 47.0578 126.284C47.2154 126.155 47.2269 126.073 47.2278 126.058C47.2284 126.047 47.2294 125.981 47.1065 125.866C46.8405 125.619 46.1842 125.34 45.0556 125.267C44.0267 125.201 42.6669 125.31 41 125.721V128.975Z" fill="black" fill-opacity="0.5"/><path d="M79.816 109.268V110.144C80.632 110.208 81.276 110.48 81.748 110.96C82.228 111.44 82.464 112.076 82.456 112.868H81.328C81.32 112.556 81.272 112.292 81.184 112.076C81.104 111.86 80.992 111.68 80.848 111.536C80.712 111.392 80.552 111.284 80.368 111.212C80.192 111.132 80.008 111.08 79.816 111.056V114.032L79.996 114.08C80.324 114.168 80.648 114.272 80.968 114.392C81.288 114.512 81.572 114.668 81.82 114.86C82.076 115.052 82.28 115.288 82.432 115.568C82.584 115.848 82.66 116.196 82.66 116.612C82.66 117.02 82.584 117.376 82.432 117.68C82.28 117.984 82.076 118.24 81.82 118.448C81.564 118.656 81.26 118.82 80.908 118.94C80.564 119.052 80.2 119.12 79.816 119.144V120.164H79.156V119.144C78.74 119.112 78.36 119.016 78.016 118.856C77.68 118.696 77.388 118.492 77.14 118.244C76.9 117.988 76.712 117.692 76.576 117.356C76.448 117.012 76.388 116.64 76.396 116.24H77.524C77.532 116.56 77.58 116.84 77.668 117.08C77.764 117.312 77.888 117.512 78.04 117.68C78.192 117.84 78.364 117.968 78.556 118.064C78.748 118.152 78.948 118.208 79.156 118.232V114.98L78.892 114.908C78.564 114.82 78.26 114.704 77.98 114.56C77.708 114.416 77.472 114.244 77.272 114.044C77.072 113.836 76.912 113.6 76.792 113.336C76.68 113.064 76.624 112.76 76.624 112.424C76.624 112.08 76.696 111.776 76.84 111.512C76.984 111.24 77.172 111.008 77.404 110.816C77.636 110.624 77.904 110.472 78.208 110.36C78.512 110.248 78.828 110.176 79.156 110.144V109.268H79.816ZM81.532 116.78C81.532 116.524 81.492 116.312 81.412 116.144C81.332 115.968 81.216 115.82 81.064 115.7C80.92 115.58 80.74 115.48 80.524 115.4C80.316 115.312 80.08 115.232 79.816 115.16V118.244C80.04 118.228 80.256 118.188 80.464 118.124C80.672 118.052 80.856 117.956 81.016 117.836C81.176 117.716 81.3 117.568 81.388 117.392C81.484 117.216 81.532 117.012 81.532 116.78ZM77.752 112.412C77.752 112.772 77.864 113.068 78.088 113.3C78.32 113.532 78.672 113.716 79.144 113.852L79.156 113.864V111.044C78.98 111.06 78.808 111.1 78.64 111.164C78.472 111.22 78.32 111.304 78.184 111.416C78.056 111.528 77.952 111.668 77.872 111.836C77.792 111.996 77.752 112.188 77.752 112.412ZM87.099 118.244C87.363 118.244 87.611 118.2 87.843 118.112C88.075 118.016 88.279 117.88 88.455 117.704C88.639 117.52 88.783 117.3 88.887 117.044C88.991 116.78 89.043 116.48 89.043 116.144C89.043 115.784 88.983 115.476 88.863 115.22C88.751 114.956 88.603 114.74 88.419 114.572C88.235 114.404 88.027 114.28 87.795 114.2C87.563 114.12 87.327 114.08 87.087 114.08C86.863 114.08 86.659 114.112 86.475 114.176C86.291 114.232 86.127 114.308 85.983 114.404C85.839 114.492 85.719 114.596 85.623 114.716C85.527 114.828 85.455 114.936 85.407 115.04L84.315 114.98L84.879 110.3H89.871V111.32H85.767L85.467 113.792C85.699 113.568 85.979 113.404 86.307 113.3C86.635 113.188 86.979 113.132 87.339 113.132C87.723 113.132 88.087 113.2 88.431 113.336C88.775 113.464 89.075 113.656 89.331 113.912C89.595 114.168 89.803 114.484 89.955 114.86C90.115 115.228 90.195 115.652 90.195 116.132C90.195 116.628 90.107 117.068 89.931 117.452C89.763 117.828 89.535 118.144 89.247 118.4C88.967 118.648 88.639 118.836 88.263 118.964C87.895 119.092 87.507 119.156 87.099 119.156C86.595 119.156 86.159 119.084 85.791 118.94C85.423 118.788 85.111 118.592 84.855 118.352C84.607 118.104 84.411 117.82 84.267 117.5C84.131 117.172 84.043 116.832 84.003 116.48H85.131C85.219 117.032 85.415 117.464 85.719 117.776C86.031 118.088 86.491 118.244 87.099 118.244ZM91.9558 117.62H93.3358V119.096L92.6038 120.668H91.9078L92.5438 119H91.9558V117.62ZM100.393 114.644C100.393 113.436 100.193 112.536 99.7932 111.944C99.3932 111.352 98.8532 111.056 98.1732 111.056C97.4852 111.056 96.9412 111.352 96.5412 111.944C96.1492 112.536 95.9532 113.436 95.9532 114.644C95.9532 115.86 96.1492 116.764 96.5412 117.356C96.9412 117.948 97.4852 118.244 98.1732 118.244C98.8612 118.244 99.4012 117.948 99.7932 117.356C100.193 116.764 100.393 115.86 100.393 114.644ZM101.557 114.644C101.557 115.332 101.489 115.956 101.353 116.516C101.217 117.068 101.009 117.54 100.729 117.932C100.457 118.324 100.105 118.628 99.6732 118.844C99.2492 119.052 98.7492 119.156 98.1732 119.156C97.5972 119.156 97.0932 119.052 96.6612 118.844C96.2372 118.628 95.8852 118.324 95.6052 117.932C95.3332 117.54 95.1292 117.068 94.9932 116.516C94.8572 115.956 94.7892 115.332 94.7892 114.644C94.7892 113.956 94.8572 113.336 94.9932 112.784C95.1292 112.224 95.3332 111.752 95.6052 111.368C95.8852 110.976 96.2372 110.676 96.6612 110.468C97.0932 110.252 97.5972 110.144 98.1732 110.144C98.7492 110.144 99.2492 110.252 99.6732 110.468C100.105 110.676 100.457 110.976 100.729 111.368C101.009 111.752 101.217 112.224 101.353 112.784C101.489 113.336 101.557 113.956 101.557 114.644ZM108.526 114.644C108.526 113.436 108.326 112.536 107.926 111.944C107.526 111.352 106.986 111.056 106.306 111.056C105.618 111.056 105.074 111.352 104.674 111.944C104.282 112.536 104.086 113.436 104.086 114.644C104.086 115.86 104.282 116.764 104.674 117.356C105.074 117.948 105.618 118.244 106.306 118.244C106.994 118.244 107.534 117.948 107.926 117.356C108.326 116.764 108.526 115.86 108.526 114.644ZM109.69 114.644C109.69 115.332 109.622 115.956 109.486 116.516C109.35 117.068 109.142 117.54 108.862 117.932C108.59 118.324 108.238 118.628 107.806 118.844C107.382 119.052 106.882 119.156 106.306 119.156C105.73 119.156 105.226 119.052 104.794 118.844C104.37 118.628 104.018 118.324 103.738 117.932C103.466 117.54 103.262 117.068 103.126 116.516C102.99 115.956 102.922 115.332 102.922 114.644C102.922 113.956 102.99 113.336 103.126 112.784C103.262 112.224 103.466 111.752 103.738 111.368C104.018 110.976 104.37 110.676 104.794 110.468C105.226 110.252 105.73 110.144 106.306 110.144C106.882 110.144 107.382 110.252 107.806 110.468C108.238 110.676 108.59 110.976 108.862 111.368C109.142 111.752 109.35 112.224 109.486 112.784C109.622 113.336 109.69 113.956 109.69 114.644ZM116.659 114.644C116.659 113.436 116.459 112.536 116.059 111.944C115.659 111.352 115.119 111.056 114.439 111.056C113.751 111.056 113.207 111.352 112.807 111.944C112.415 112.536 112.219 113.436 112.219 114.644C112.219 115.86 112.415 116.764 112.807 117.356C113.207 117.948 113.751 118.244 114.439 118.244C115.127 118.244 115.667 117.948 116.059 117.356C116.459 116.764 116.659 115.86 116.659 114.644ZM117.823 114.644C117.823 115.332 117.755 115.956 117.619 116.516C117.483 117.068 117.275 117.54 116.995 117.932C116.723 118.324 116.371 118.628 115.939 118.844C115.515 119.052 115.015 119.156 114.439 119.156C113.863 119.156 113.359 119.052 112.927 118.844C112.503 118.628 112.151 118.324 111.871 117.932C111.599 117.54 111.395 117.068 111.259 116.516C111.123 115.956 111.055 115.332 111.055 114.644C111.055 113.956 111.123 113.336 111.259 112.784C111.395 112.224 111.599 111.752 111.871 111.368C112.151 110.976 112.503 110.676 112.927 110.468C113.359 110.252 113.863 110.144 114.439 110.144C115.015 110.144 115.515 110.252 115.939 110.468C116.371 110.676 116.723 110.976 116.995 111.368C117.275 111.752 117.483 112.224 117.619 112.784C117.755 113.336 117.823 113.956 117.823 114.644Z" fill="black"/></g><defs><clipPath id="clip0_11728_71426"><path d="M0 16C0 7.16344 7.16344 0 16 0H329C337.837 0 345 7.16344 345 16V256C345 264.837 337.837 272 329 272H16C7.16345 272 0 264.837 0 256V16Z" fill="white"/></clipPath></defs></svg>