<svg xmlns="http://www.w3.org/2000/svg" width="345" height="246" viewBox="0 0 345 246" fill="none"><g clip-path="url(#clip0_11728_70042)"><path d="M0 16C0 7.16344 7.16344 0 16 0H329C337.837 0 345 7.16344 345 16V230C345 238.837 337.837 246 329 246H16C7.16345 246 0 238.837 0 230V16Z" fill="black"/><rect width="345" height="106" fill="black"/><path d="M33.394 30.85V41H31.966V36.394H26.632V41H25.204V30.85H26.632V35.162H31.966V30.85H33.394ZM36.4717 37.262C36.4717 37.766 36.5277 38.1953 36.6397 38.55C36.761 38.9047 36.9197 39.194 37.1157 39.418C37.321 39.642 37.559 39.8053 37.8297 39.908C38.1004 40.0107 38.385 40.062 38.6837 40.062C38.9824 40.062 39.267 40.006 39.5377 39.894C39.8084 39.782 40.0417 39.614 40.2377 39.39C40.443 39.1567 40.6017 38.8673 40.7137 38.522C40.835 38.1673 40.8957 37.7473 40.8957 37.262C40.8957 36.758 40.835 36.3287 40.7137 35.974C40.6017 35.6193 40.443 35.33 40.2377 35.106C40.0417 34.882 39.8084 34.7187 39.5377 34.616C39.267 34.5133 38.9824 34.462 38.6837 34.462C38.385 34.462 38.1004 34.5133 37.8297 34.616C37.559 34.7093 37.321 34.868 37.1157 35.092C36.9197 35.316 36.761 35.6053 36.6397 35.96C36.5277 36.3147 36.4717 36.7487 36.4717 37.262ZM35.1137 37.262C35.1137 36.5807 35.2117 35.9927 35.4077 35.498C35.613 35.0033 35.8837 34.5973 36.2197 34.28C36.5557 33.9627 36.9384 33.7293 37.3677 33.58C37.797 33.4213 38.2357 33.342 38.6837 33.342C39.1317 33.342 39.5704 33.4213 39.9997 33.58C40.429 33.7293 40.8117 33.9627 41.1477 34.28C41.4837 34.5973 41.7497 35.0033 41.9457 35.498C42.151 35.9927 42.2537 36.5807 42.2537 37.262C42.2537 37.9433 42.151 38.5313 41.9457 39.026C41.7497 39.5207 41.4837 39.9267 41.1477 40.244C40.8117 40.5613 40.429 40.7993 39.9997 40.958C39.5704 41.1073 39.1317 41.182 38.6837 41.182C38.2357 41.182 37.797 41.1073 37.3677 40.958C36.9384 40.7993 36.5557 40.5613 36.2197 40.244C35.8837 39.9267 35.613 39.5207 35.4077 39.026C35.2117 38.5313 35.1137 37.9433 35.1137 37.262ZM47.0851 33.468H48.4011L49.8991 39.04L51.3411 33.468H52.7131L50.5431 41H49.3811L47.7151 34.938L46.1051 41H44.9431L42.7731 33.468H44.1451L45.5871 39.04L47.0851 33.468ZM61.8696 37.374C61.2909 37.43 60.7682 37.5 60.3016 37.584C59.8349 37.6587 59.4382 37.7567 59.1116 37.878C58.7849 37.99 58.5329 38.1393 58.3556 38.326C58.1782 38.5033 58.0896 38.7227 58.0896 38.984C58.0896 39.3387 58.2156 39.628 58.4676 39.852C58.7289 40.0667 59.0882 40.174 59.5456 40.174C59.8442 40.174 60.1336 40.1367 60.4136 40.062C60.6936 39.978 60.9409 39.8427 61.1556 39.656C61.3702 39.46 61.5429 39.1987 61.6736 38.872C61.8042 38.5453 61.8696 38.13 61.8696 37.626V37.374ZM59.2656 41.182C58.9109 41.182 58.5749 41.1307 58.2576 41.028C57.9496 40.9347 57.6742 40.7993 57.4316 40.622C57.1982 40.4353 57.0116 40.2113 56.8716 39.95C56.7409 39.6793 56.6756 39.376 56.6756 39.04C56.6756 38.592 56.7969 38.2187 57.0396 37.92C57.2822 37.612 57.6229 37.36 58.0616 37.164C58.5096 36.9587 59.0462 36.7953 59.6716 36.674C60.2969 36.5527 60.9969 36.45 61.7716 36.366V36.156C61.7716 35.8013 61.7249 35.5073 61.6316 35.274C61.5476 35.0407 61.4262 34.8587 61.2676 34.728C61.1089 34.588 60.9222 34.49 60.7076 34.434C60.4929 34.378 60.2642 34.35 60.0216 34.35C59.4336 34.35 58.9902 34.4853 58.6916 34.756C58.3929 35.0173 58.2296 35.3813 58.2016 35.848H56.8856C56.9136 35.4467 57.0209 35.0873 57.2076 34.77C57.3942 34.4527 57.6322 34.1867 57.9216 33.972C58.2109 33.7573 58.5376 33.594 58.9016 33.482C59.2656 33.37 59.6436 33.314 60.0356 33.314C61.0809 33.314 61.8462 33.5567 62.3316 34.042C62.8169 34.5273 63.0549 35.3113 63.0456 36.394L63.0316 38.158C63.0222 38.7927 63.0316 39.3387 63.0596 39.796C63.0969 40.244 63.1529 40.6453 63.2276 41H61.9396C61.9209 40.86 61.9022 40.6967 61.8836 40.51C61.8649 40.3233 61.8509 40.118 61.8416 39.894C61.6082 40.286 61.2862 40.5987 60.8756 40.832C60.4742 41.0653 59.9376 41.182 59.2656 41.182ZM69.5919 39.922C69.3772 40.2767 69.0832 40.5753 68.7099 40.818C68.3459 41.0607 67.8512 41.182 67.2259 41.182C66.7872 41.182 66.4139 41.112 66.1059 40.972C65.8072 40.832 65.5599 40.636 65.3639 40.384C65.1772 40.1227 65.0372 39.8147 64.9439 39.46C64.8599 39.1053 64.8179 38.7133 64.8179 38.284V33.468H66.0919V37.906C66.0919 38.1953 66.1059 38.4707 66.1339 38.732C66.1712 38.9933 66.2459 39.2267 66.3579 39.432C66.4699 39.628 66.6285 39.7867 66.8339 39.908C67.0485 40.02 67.3285 40.076 67.6739 40.076C68.2805 40.076 68.7519 39.8707 69.0879 39.46C69.4239 39.04 69.5919 38.424 69.5919 37.612V33.468H70.8659V41H69.5919V39.922ZM73.2509 31.578H74.5249V33.468H75.9529V34.49H74.5249V38.956C74.5249 39.152 74.5296 39.3153 74.5389 39.446C74.5576 39.5673 74.5902 39.6653 74.6369 39.74C74.6929 39.8147 74.7722 39.866 74.8749 39.894C74.9776 39.922 75.1222 39.936 75.3089 39.936H75.9529V41H75.0289C74.6649 41 74.3662 40.9767 74.1329 40.93C73.9089 40.874 73.7316 40.7807 73.6009 40.65C73.4702 40.51 73.3769 40.3187 73.3209 40.076C73.2742 39.824 73.2509 39.502 73.2509 39.11V34.49H72.0609V33.468H73.2509V31.578ZM78.2393 37.262C78.2393 37.766 78.2953 38.1953 78.4073 38.55C78.5286 38.9047 78.6873 39.194 78.8833 39.418C79.0886 39.642 79.3266 39.8053 79.5973 39.908C79.8679 40.0107 80.1526 40.062 80.4513 40.062C80.7499 40.062 81.0346 40.006 81.3053 39.894C81.5759 39.782 81.8093 39.614 82.0053 39.39C82.2106 39.1567 82.3693 38.8673 82.4813 38.522C82.6026 38.1673 82.6633 37.7473 82.6633 37.262C82.6633 36.758 82.6026 36.3287 82.4813 35.974C82.3693 35.6193 82.2106 35.33 82.0053 35.106C81.8093 34.88 81.5759 34.7187 81.3053 34.616C81.0346 34.5133 80.7499 34.462 80.4513 34.462C80.1526 34.462 79.8679 34.5133 79.5973 34.616C79.3266 34.7093 79.0886 34.868 78.8833 35.092C78.6873 35.316 78.5286 35.6053 78.4073 35.96C78.2953 36.3147 78.2393 36.7487 78.2393 37.262ZM76.8813 37.262C76.8813 36.5807 76.9793 35.9927 77.1753 35.498C77.3806 35.0033 77.6513 34.5973 77.9873 34.28C78.3233 33.9627 78.7059 33.7293 79.1353 33.58C79.5646 33.4213 80.0033 33.342 80.4513 33.342C80.8993 33.342 81.3379 33.4213 81.7673 33.58C82.1966 33.7293 82.5793 33.9627 82.9153 34.28C83.2513 34.5973 83.5173 35.0033 83.7133 35.498C83.9186 35.9927 84.0213 36.5807 84.0213 37.262C84.0213 37.9433 83.9186 38.5313 83.7133 39.026C83.5173 39.5207 83.2513 39.9267 82.9153 40.244C82.5793 40.5613 82.1966 40.7993 81.7673 40.958C81.3379 41.1073 80.8993 41.182 80.4513 41.182C80.0033 41.182 79.5646 41.1073 79.1353 40.958C78.7059 40.7993 78.3233 40.5613 77.9873 40.244C77.6513 39.9267 77.3806 39.5207 77.1753 39.026C76.9793 38.5313 76.8813 37.9433 76.8813 37.262ZM86.8211 41H85.5471V33.468H86.8211V34.602C87.0357 34.2473 87.3251 33.9487 87.6891 33.706C88.0531 33.4633 88.5197 33.342 89.0891 33.342C89.6677 33.342 90.1297 33.4587 90.4751 33.692C90.8297 33.9253 91.0911 34.252 91.2591 34.672C91.5577 34.2053 91.9217 33.8693 92.3511 33.664C92.7804 33.4493 93.2611 33.342 93.7931 33.342C94.2317 33.342 94.6051 33.412 94.9131 33.552C95.2211 33.692 95.4731 33.8927 95.6691 34.154C95.8651 34.406 96.0051 34.7093 96.0891 35.064C96.1824 35.4187 96.2291 35.8107 96.2291 36.24V41H94.9551V36.618C94.9551 36.3287 94.9364 36.0533 94.8991 35.792C94.8617 35.5307 94.7824 35.302 94.6611 35.106C94.5491 34.9007 94.3857 34.742 94.1711 34.63C93.9657 34.5087 93.6904 34.448 93.3451 34.448C92.7944 34.448 92.3511 34.658 92.0151 35.078C91.6884 35.4887 91.5251 36.1 91.5251 36.912V41H90.2511V36.618C90.2511 36.3287 90.2324 36.0533 90.1951 35.792C90.1577 35.5307 90.0784 35.302 89.9571 35.106C89.8451 34.9007 89.6817 34.742 89.4671 34.63C89.2617 34.5087 88.9864 34.448 88.6411 34.448C88.0904 34.448 87.6471 34.658 87.3111 35.078C86.9844 35.4887 86.8211 36.1 86.8211 36.912V41ZM102.899 37.374C102.32 37.43 101.798 37.5 101.331 37.584C100.864 37.6587 100.468 37.7567 100.141 37.878C99.8142 37.99 99.5622 38.1393 99.3849 38.326C99.2075 38.5033 99.1189 38.7227 99.1189 38.984C99.1189 39.3387 99.2449 39.628 99.4969 39.852C99.7582 40.0667 100.118 40.174 100.575 40.174C100.874 40.174 101.163 40.1367 101.443 40.062C101.723 39.978 101.97 39.8427 102.185 39.656C102.4 39.46 102.572 39.1987 102.703 38.872C102.834 38.5453 102.899 38.13 102.899 37.626V37.374ZM100.295 41.182C99.9402 41.182 99.6042 41.1307 99.2869 41.028C98.9789 40.9347 98.7035 40.7993 98.4609 40.622C98.2275 40.4353 98.0409 40.2113 97.9009 39.95C97.7702 39.6793 97.7049 39.376 97.7049 39.04C97.7049 38.592 97.8262 38.2187 98.0689 37.92C98.3115 37.612 98.6522 37.36 99.0909 37.164C99.5389 36.9587 100.076 36.7953 100.701 36.674C101.326 36.5527 102.026 36.45 102.801 36.366V36.156C102.801 35.8013 102.754 35.5073 102.661 35.274C102.577 35.0407 102.456 34.8587 102.297 34.728C102.138 34.588 101.952 34.49 101.737 34.434C101.522 34.378 101.294 34.35 101.051 34.35C100.463 34.35 100.02 34.4853 99.7209 34.756C99.4222 35.0173 99.2589 35.3813 99.2309 35.848H97.9149C97.9429 35.4467 98.0502 35.0873 98.2369 34.77C98.4235 34.4527 98.6615 34.1867 98.9509 33.972C99.2402 33.7573 99.5669 33.594 99.9309 33.482C100.295 33.37 100.673 33.314 101.065 33.314C102.11 33.314 102.876 33.5567 103.361 34.042C103.846 34.5273 104.084 35.3113 104.075 36.394L104.061 38.158C104.052 38.7927 104.061 39.3387 104.089 39.796C104.126 40.244 104.182 40.6453 104.257 41H102.969C102.95 40.86 102.932 40.6967 102.913 40.51C102.894 40.3233 102.88 40.118 102.871 39.894C102.638 40.286 102.316 40.5987 101.905 40.832C101.504 41.0653 100.967 41.182 100.295 41.182ZM106.323 31.578H107.597V33.468H109.025V34.49H107.597V38.956C107.597 39.152 107.602 39.3153 107.611 39.446C107.63 39.5673 107.663 39.6653 107.709 39.74C107.765 39.8147 107.845 39.866 107.947 39.894C108.05 39.922 108.195 39.936 108.381 39.936H109.025V41H108.101C107.737 41 107.439 40.9767 107.205 40.93C106.981 40.874 106.804 40.7807 106.673 40.65C106.543 40.51 106.449 40.3187 106.393 40.076C106.347 39.824 106.323 39.502 106.323 39.11V34.49H105.133V33.468H106.323V31.578ZM111.923 33.468V41H110.649V33.468H111.923ZM111.923 30.85V32.39H110.649V30.85H111.923ZM117.024 33.342C117.49 33.342 117.906 33.4213 118.27 33.58C118.634 33.7293 118.946 33.93 119.208 34.182C119.469 34.434 119.674 34.7187 119.824 35.036C119.982 35.3533 120.085 35.6707 120.132 35.988H118.844C118.75 35.54 118.536 35.176 118.2 34.896C117.873 34.6067 117.453 34.462 116.94 34.462C116.641 34.462 116.361 34.518 116.1 34.63C115.848 34.742 115.624 34.9147 115.428 35.148C115.241 35.372 115.092 35.6567 114.98 36.002C114.868 36.3473 114.812 36.758 114.812 37.234C114.812 37.71 114.868 38.1253 114.98 38.48C115.092 38.8347 115.246 39.1287 115.442 39.362C115.638 39.5953 115.862 39.7727 116.114 39.894C116.375 40.006 116.65 40.062 116.94 40.062C117.22 40.062 117.467 40.02 117.682 39.936C117.906 39.852 118.097 39.74 118.256 39.6C118.424 39.46 118.559 39.3013 118.662 39.124C118.774 38.9373 118.853 38.746 118.9 38.55H120.216C120.15 38.9047 120.024 39.2407 119.838 39.558C119.651 39.8753 119.413 40.1553 119.124 40.398C118.844 40.6407 118.512 40.832 118.13 40.972C117.756 41.112 117.346 41.182 116.898 41.182C116.347 41.182 115.857 41.084 115.428 40.888C114.998 40.692 114.634 40.4213 114.336 40.076C114.037 39.7307 113.808 39.32 113.65 38.844C113.5 38.3587 113.426 37.8267 113.426 37.248C113.426 36.688 113.505 36.17 113.664 35.694C113.832 35.218 114.07 34.8073 114.378 34.462C114.686 34.1073 115.059 33.832 115.498 33.636C115.946 33.44 116.454 33.342 117.024 33.342ZM126.251 33.468V34.658C126.484 34.2567 126.801 33.9393 127.203 33.706C127.604 33.4633 128.108 33.342 128.715 33.342C129.163 33.342 129.578 33.4307 129.961 33.608C130.343 33.7853 130.679 34.042 130.969 34.378C131.258 34.714 131.482 35.1247 131.641 35.61C131.809 36.0953 131.893 36.646 131.893 37.262C131.893 37.8873 131.809 38.4427 131.641 38.928C131.482 39.4133 131.258 39.824 130.969 40.16C130.679 40.496 130.343 40.7527 129.961 40.93C129.578 41.098 129.163 41.182 128.715 41.182C128.108 41.182 127.604 41.0653 127.203 40.832C126.801 40.5893 126.484 40.2673 126.251 39.866V43.45H124.977V33.468H126.251ZM126.195 37.262C126.195 37.7567 126.255 38.186 126.377 38.55C126.498 38.9047 126.661 39.1987 126.867 39.432C127.072 39.656 127.305 39.824 127.567 39.936C127.837 40.0387 128.113 40.09 128.393 40.09C129.074 40.09 129.597 39.8473 129.961 39.362C130.325 38.8673 130.507 38.1673 130.507 37.262C130.507 36.3567 130.325 35.6613 129.961 35.176C129.597 34.6813 129.074 34.434 128.393 34.434C128.113 34.434 127.837 34.49 127.567 34.602C127.305 34.7047 127.072 34.8727 126.867 35.106C126.661 35.33 126.498 35.624 126.377 35.988C126.255 36.3427 126.195 36.7673 126.195 37.262ZM138.145 37.374C137.566 37.43 137.044 37.5 136.577 37.584C136.11 37.6587 135.714 37.7567 135.387 37.878C135.06 37.99 134.808 38.1393 134.631 38.326C134.454 38.5033 134.365 38.7227 134.365 38.984C134.365 39.3387 134.491 39.628 134.743 39.852C135.004 40.0667 135.364 40.174 135.821 40.174C136.12 40.174 136.409 40.1367 136.689 40.062C136.969 39.978 137.216 39.8427 137.431 39.656C137.646 39.46 137.818 39.1987 137.949 38.872C138.08 38.5453 138.145 38.13 138.145 37.626V37.374ZM135.541 41.182C135.186 41.182 134.85 41.1307 134.533 41.028C134.225 40.9347 133.95 40.7993 133.707 40.622C133.474 40.4353 133.287 40.2113 133.147 39.95C133.016 39.6793 132.951 39.376 132.951 39.04C132.951 38.592 133.072 38.2187 133.315 37.92C133.558 37.612 133.898 37.36 134.337 37.164C134.785 36.9587 135.322 36.7953 135.947 36.674C136.572 36.5527 137.272 36.45 138.047 36.366V36.156C138.047 35.8013 138 35.5073 137.907 35.274C137.823 35.0407 137.702 34.8587 137.543 34.728C137.384 34.588 137.198 34.49 136.983 34.434C136.768 34.378 136.54 34.35 136.297 34.35C135.709 34.35 135.266 34.4853 134.967 34.756C134.668 35.0173 134.505 35.3813 134.477 35.848H133.161C133.189 35.4467 133.296 35.0873 133.483 34.77C133.67 34.4527 133.908 34.1867 134.197 33.972C134.486 33.7573 134.813 33.594 135.177 33.482C135.541 33.37 135.919 33.314 136.311 33.314C137.356 33.314 138.122 33.5567 138.607 34.042C139.092 34.5273 139.33 35.3113 139.321 36.394L139.307 38.158C139.298 38.7927 139.307 39.3387 139.335 39.796C139.372 40.244 139.428 40.6453 139.503 41H138.215C138.196 40.86 138.178 40.6967 138.159 40.51C138.14 40.3233 138.126 40.118 138.117 39.894C137.884 40.286 137.562 40.5987 137.151 40.832C136.75 41.0653 136.213 41.182 135.541 41.182ZM146.653 33.468L143.965 41.322C143.825 41.7327 143.69 42.0733 143.559 42.344C143.428 42.6147 143.27 42.8293 143.083 42.988C142.896 43.156 142.663 43.2727 142.383 43.338C142.112 43.4127 141.767 43.45 141.347 43.45H140.689V42.386H141.207C141.412 42.386 141.594 42.3767 141.753 42.358C141.921 42.3393 142.066 42.288 142.187 42.204C142.308 42.1293 142.416 42.008 142.509 41.84C142.612 41.6813 142.705 41.4527 142.789 41.154L142.845 41L140.129 33.468H141.543L143.461 39.278L145.323 33.468H146.653ZM148.932 41H147.658V33.468H148.932V34.602C149.147 34.2473 149.436 33.9487 149.8 33.706C150.164 33.4633 150.631 33.342 151.2 33.342C151.779 33.342 152.241 33.4587 152.586 33.692C152.941 33.9253 153.202 34.252 153.37 34.672C153.669 34.2053 154.033 33.8693 154.462 33.664C154.892 33.4493 155.372 33.342 155.904 33.342C156.343 33.342 156.716 33.412 157.024 33.552C157.332 33.692 157.584 33.8927 157.78 34.154C157.976 34.406 158.116 34.7093 158.2 35.064C158.294 35.4187 158.34 35.8107 158.34 36.24V41H157.066V36.618C157.066 36.3287 157.048 36.0533 157.01 35.792C156.973 35.5307 156.894 35.302 156.772 35.106C156.66 34.9007 156.497 34.742 156.282 34.63C156.077 34.5087 155.802 34.448 155.456 34.448C154.906 34.448 154.462 34.658 154.126 35.078C153.8 35.4887 153.636 36.1 153.636 36.912V41H152.362V36.618C152.362 36.3287 152.344 36.0533 152.306 35.792C152.269 35.5307 152.19 35.302 152.068 35.106C151.956 34.9007 151.793 34.742 151.578 34.63C151.373 34.5087 151.098 34.448 150.752 34.448C150.202 34.448 149.758 34.658 149.422 35.078C149.096 35.4887 148.932 36.1 148.932 36.912V41ZM163.386 41.182C162.78 41.182 162.248 41.084 161.79 40.888C161.342 40.6827 160.964 40.4027 160.656 40.048C160.348 39.6933 160.115 39.278 159.956 38.802C159.807 38.326 159.732 37.808 159.732 37.248C159.732 36.6507 159.821 36.114 159.998 35.638C160.185 35.1527 160.437 34.742 160.754 34.406C161.081 34.0607 161.464 33.7993 161.902 33.622C162.341 33.4353 162.822 33.342 163.344 33.342C163.923 33.342 164.436 33.454 164.884 33.678C165.342 33.902 165.72 34.21 166.018 34.602C166.317 34.994 166.532 35.4513 166.662 35.974C166.802 36.4967 166.854 37.0567 166.816 37.654H161.118C161.118 38.0273 161.174 38.3633 161.286 38.662C161.408 38.9607 161.571 39.2127 161.776 39.418C161.982 39.6233 162.22 39.782 162.49 39.894C162.761 40.006 163.05 40.062 163.358 40.062C163.946 40.062 164.394 39.95 164.702 39.726C165.01 39.4927 165.244 39.1893 165.402 38.816H166.718C166.634 39.1427 166.499 39.4507 166.312 39.74C166.126 40.02 165.892 40.2673 165.612 40.482C165.342 40.6967 165.02 40.8693 164.646 41C164.273 41.1213 163.853 41.182 163.386 41.182ZM163.344 34.434C162.7 34.434 162.178 34.6207 161.776 34.994C161.375 35.358 161.16 35.8807 161.132 36.562H165.472C165.463 36.3007 165.412 36.044 165.318 35.792C165.225 35.5307 165.09 35.302 164.912 35.106C164.735 34.9007 164.516 34.7373 164.254 34.616C163.993 34.4947 163.69 34.434 163.344 34.434ZM169.591 34.602C169.805 34.2473 170.104 33.9487 170.487 33.706C170.879 33.4633 171.392 33.342 172.027 33.342C172.484 33.342 172.867 33.412 173.175 33.552C173.492 33.692 173.749 33.8927 173.945 34.154C174.141 34.406 174.281 34.7093 174.365 35.064C174.458 35.4187 174.505 35.8107 174.505 36.24V41H173.231V36.618C173.231 36.3287 173.212 36.0533 173.175 35.792C173.137 35.5307 173.063 35.302 172.951 35.106C172.839 34.9007 172.671 34.742 172.447 34.63C172.232 34.5087 171.943 34.448 171.579 34.448C170.963 34.448 170.477 34.658 170.123 35.078C169.768 35.4887 169.591 36.1 169.591 36.912V41H168.317V33.468H169.591V34.602ZM176.774 31.578H178.048V33.468H179.476V34.49H178.048V38.956C178.048 39.152 178.053 39.3153 178.062 39.446C178.081 39.5673 178.114 39.6653 178.16 39.74C178.216 39.8147 178.296 39.866 178.398 39.894C178.501 39.922 178.646 39.936 178.832 39.936H179.476V41H178.552C178.188 41 177.89 40.9767 177.656 40.93C177.432 40.874 177.255 40.7807 177.124 40.65C176.994 40.51 176.9 40.3187 176.844 40.076C176.798 39.824 176.774 39.502 176.774 39.11V34.49H175.584V33.468H176.774V31.578ZM185.331 35.666C185.228 35.218 185.014 34.9007 184.687 34.714C184.37 34.518 183.973 34.42 183.497 34.42C183.301 34.42 183.105 34.4387 182.909 34.476C182.713 34.504 182.536 34.56 182.377 34.644C182.228 34.7187 182.102 34.8167 181.999 34.938C181.906 35.0593 181.859 35.204 181.859 35.372C181.859 35.6707 181.962 35.8947 182.167 36.044C182.372 36.1933 182.671 36.31 183.063 36.394L184.127 36.604C184.482 36.6787 184.818 36.7673 185.135 36.87C185.462 36.9727 185.742 37.1127 185.975 37.29C186.218 37.458 186.409 37.668 186.549 37.92C186.689 38.172 186.759 38.48 186.759 38.844C186.759 39.2173 186.68 39.5487 186.521 39.838C186.362 40.1273 186.143 40.3747 185.863 40.58C185.583 40.776 185.252 40.9253 184.869 41.028C184.496 41.1307 184.085 41.182 183.637 41.182C183.133 41.182 182.68 41.1073 182.279 40.958C181.887 40.8087 181.551 40.6127 181.271 40.37C181 40.1273 180.786 39.8473 180.627 39.53C180.478 39.2127 180.384 38.8907 180.347 38.564H181.691C181.794 39.0493 181.999 39.4273 182.307 39.698C182.624 39.9687 183.077 40.104 183.665 40.104C184.178 40.104 184.608 40.006 184.953 39.81C185.298 39.614 185.471 39.3387 185.471 38.984C185.471 38.7973 185.429 38.634 185.345 38.494C185.261 38.354 185.144 38.2373 184.995 38.144C184.855 38.0413 184.687 37.962 184.491 37.906C184.304 37.8407 184.104 37.7847 183.889 37.738L182.769 37.514C182.498 37.458 182.232 37.3833 181.971 37.29C181.71 37.1967 181.472 37.0707 181.257 36.912C181.052 36.7533 180.884 36.5573 180.753 36.324C180.632 36.0813 180.571 35.7827 180.571 35.428C180.571 35.092 180.65 34.798 180.809 34.546C180.968 34.2847 181.182 34.0653 181.453 33.888C181.733 33.7013 182.06 33.5613 182.433 33.468C182.806 33.3747 183.208 33.328 183.637 33.328C184.486 33.328 185.172 33.538 185.695 33.958C186.218 34.378 186.54 34.9473 186.661 35.666H185.331ZM195.015 33.468H196.331L197.829 39.04L199.271 33.468H200.643L198.473 41H197.311L195.645 34.938L194.035 41H192.873L190.703 33.468H192.075L193.517 39.04L195.015 33.468ZM202.517 37.262C202.517 37.766 202.573 38.1953 202.685 38.55C202.806 38.9047 202.965 39.194 203.161 39.418C203.366 39.642 203.604 39.8053 203.875 39.908C204.145 40.0107 204.43 40.062 204.729 40.062C205.027 40.062 205.312 40.006 205.583 39.894C205.853 39.782 206.087 39.614 206.283 39.39C206.488 39.1567 206.647 38.8673 206.759 38.522C206.88 38.1673 206.941 37.7473 206.941 37.262C206.941 36.758 206.88 36.3287 206.759 35.974C206.647 35.6193 206.488 35.33 206.283 35.106C206.087 34.882 205.853 34.7187 205.583 34.616C205.312 34.5133 205.027 34.462 204.729 34.462C204.43 34.462 204.145 34.5133 203.875 34.616C203.604 34.7093 203.366 34.868 203.161 35.092C202.965 35.316 202.806 35.6053 202.685 35.96C202.573 36.3147 202.517 36.7487 202.517 37.262ZM201.159 37.262C201.159 36.5807 201.257 35.9927 201.453 35.498C201.658 35.0033 201.929 34.5973 202.265 34.28C202.601 33.9627 202.983 33.7293 203.413 33.58C203.842 33.4213 204.281 33.342 204.729 33.342C205.177 33.342 205.615 33.4213 206.045 33.58C206.474 33.7293 206.857 33.9627 207.193 34.28C207.529 34.5973 207.795 35.0033 207.991 35.498C208.196 35.9927 208.299 36.5807 208.299 37.262C208.299 37.9433 208.196 38.5313 207.991 39.026C207.795 39.5207 207.529 39.9267 207.193 40.244C206.857 40.5613 206.474 40.7993 206.045 40.958C205.615 41.1073 205.177 41.182 204.729 41.182C204.281 41.182 203.842 41.1073 203.413 40.958C202.983 40.7993 202.601 40.5613 202.265 40.244C201.929 39.9267 201.658 39.5207 201.453 39.026C201.257 38.5313 201.159 37.9433 201.159 37.262ZM213.576 34.798C213.446 34.7793 213.32 34.7653 213.198 34.756C213.077 34.7467 212.965 34.742 212.862 34.742C212.274 34.742 211.831 34.9193 211.532 35.274C211.243 35.6287 211.098 36.2213 211.098 37.052V41H209.824V33.468H211.07V34.784C211.257 34.3547 211.532 34.028 211.896 33.804C212.27 33.5707 212.704 33.4447 213.198 33.426C213.264 33.426 213.324 33.426 213.38 33.426C213.436 33.426 213.502 33.4307 213.576 33.44V34.798ZM216.075 30.85V36.856L219.113 33.468H220.681L218.021 36.352L220.919 41H219.421L217.167 37.29L216.075 38.48V41H214.801V30.85H216.075Z" fill="white"/></g><defs><clipPath id="clip0_11728_71426"><path d="M0 16C0 7.16344 7.16344 0 16 0H329C337.837 0 345 7.16344 345 16V256C345 264.837 337.837 272 329 272H16C7.16345 272 0 264.837 0 256V16Z" fill="white"/></clipPath></defs></svg>