<svg xmlns="http://www.w3.org/2000/svg" id="Layer_1" version="1.1" viewBox="0 0 62.4 41.6"><!-- Generator: Adobe Illustrator 29.0.0, SVG Export Plug-In . SVG Version: 2.1.0 Build 186)  --><defs><style>
      .st0 {
        fill: #af7129;
      }

      .st1 {
        fill: #5d3a1a;
      }

      .st2 {
        fill: #8c4620;
      }

      .st3 {
        fill: #727732;
      }

      .st4 {
        fill: #dcae6c;
      }

      .st5 {
        fill: #78732f;
      }

      .st6 {
        fill: #c6c7a6;
      }

      .st7 {
        fill: #924822;
      }

      .st8 {
        fill: #faf3d8;
      }

      .st9 {
        fill: #fbe8ad;
      }

      .st10 {
        fill: #d3a668;
      }

      .st11 {
        fill: #bf802b;
      }

      .st12 {
        fill: #973421;
      }

      .st13 {
        fill: #80411e;
      }

      .st14 {
        fill: #a86928;
      }

      .st15 {
        fill: #987c2e;
      }

      .st16 {
        stroke: #1072a7;
        stroke-width: 0px;
      }

      .st16, .st17 {
        fill: #fff;
      }

      .st16, .st18 {
        stroke-miterlimit: 2.4;
      }

      .st19 {
        fill: #9ba067;
      }

      .st20 {
        fill: #5ba4da;
      }

      .st21 {
        fill: #fddb38;
      }

      .st22 {
        fill: #ed1d24;
      }

      .st23 {
        fill: #6d441a;
      }

      .st24 {
        fill: #924721;
      }

      .st25 {
        fill: #b0742a;
      }

      .st26 {
        fill: #d6d4cb;
      }

      .st27 {
        fill: #f2f0f0;
      }

      .st28 {
        fill: #ab6f29;
      }

      .st29 {
        fill: #1b9e49;
      }

      .st30 {
        fill: #885121;
      }

      .st31 {
        fill: #b2722a;
      }

      .st32 {
        fill: #aaae73;
      }

      .st33 {
        fill: #fff6f0;
      }

      .st34 {
        fill: #6d4219;
      }

      .st18 {
        fill: none;
        stroke: #78732f;
        stroke-width: 0px;
      }</style></defs><polygon points="20.8 0 41.8 0 41.8 41.6 20.8 41.6 20.8 0 20.8 0"></polygon><polygon points="0 0 20.8 0 20.8 41.6 0 41.6 0 0 0 0"></polygon><polygon points="41.8 0 62.4 0 62.4 41.6 41.8 41.6 41.8 0 41.8 0"></polygon><g><g><g><path d="M24.1,22.1s-.4-.3-.4-.3h0c0,0,.2.2.2.2l.3.2v-.2h0Z"></path><path d="M23.4,21.7c0,0,.1,0,.2,0,0,0,0,0,0,0h0c0,0,0,0-.1,0,0,0-.1,0,0-.2h0Z"></path><polygon points="23.9 22.1 23.9 22 23.7 21.9 23.7 21.9 23.9 22.1 23.9 22.1"></polygon><path d="M23.8,21.9c.1-.2-.1-.4-.1-.2,0,0,0,0,0,.1,0,0,0,.1,0,.1,0,0,.2,0,.2,0h0Z"></path></g><g><path d="M24.1,22.1s.3-.4.3-.4h0c-.1.3,0,.2-.3.6v-.2h0Z"></path><path d="M24.6,21.4c0,0-.2,0-.2.2h0c0,0,.2-.1.1-.2h0Z"></path><polygon points="24.3 21.9 24.3 21.8 24.4 21.7 24.4 21.7 24.3 21.9 24.3 21.9"></polygon><path d="M24.4,21.7c-.2-.2,0-.4,0-.2,0,.1.3.1.2.2,0,0-.2,0-.2,0h0Z"></path></g><g><path d="M25.4,24.4s-.5,0-.5,0h0c.2,0,.2,0,.6.1h-.1Z"></path><path d="M24.6,24.5c0,0,.1,0,.2,0,0,0,.1,0,.1,0h0c0,.1,0,.1-.1.2,0,0-.1,0-.1,0h0Z"></path><path d="M25.2,24.5h0c0,0-.2,0-.2,0h0c.2,0,.2,0,.2,0Z"></path><path d="M25,24.5c0,0,0-.2-.1-.2,0,0-.1,0,0,.1,0,0,0,0,0,.2,0,0,0,.1,0,.1,0,0,.1-.1.1-.2h0Z"></path></g><g><path d="M25.4,24.4s0-.5,0-.5h0c0,.3,0,.2,0,.6h-.1Z"></path><path d="M25.6,23.6c0,0-.1.1,0,.2,0,0,0,.1,0,.1h.1s0,0,0-.1c0,0,0-.1,0-.2h0Z"></path><polygon points="25.6 24.2 25.5 24.1 25.5 24 25.5 24 25.6 24.2 25.6 24.2"></polygon><path d="M25.5,24c0,0-.2,0-.2-.1,0,0,0-.1.1,0,0,0,0,0,.1,0,0,0,.1,0,.1,0,0,0-.1.1-.2.1h0Z"></path></g><g><path d="M27.4,26.2s-.5,0-.5,0h0c.3,0,.2,0,.6,0h-.1Z"></path><path d="M26.6,26.4c0-.1.2-.1.3,0h0c0,.2-.3.2-.3,0h0Z"></path><path d="M27.2,26.4h-.1c0,0-.2,0-.2,0h0c.1,0,.2,0,.2,0Z"></path><path d="M27,26.3c0-.3-.3-.2-.2,0,0,.1,0,.3.1.3,0,0,.1-.1.1-.2h0Z"></path></g><g><path d="M27.5,26.3s0-.5,0-.5h0c0,.3,0,.2.2.6h-.2Z"></path><path d="M27.4,25.4c-.1,0,0,.2,0,.3h.1c0-.1,0-.3,0-.3h0Z"></path><polygon points="27.5 26 27.4 26 27.4 25.8 27.5 25.8 27.5 26 27.5 26"></polygon><path d="M27.4,25.9c-.3,0-.3-.3-.1-.2,0,0,0,0,.2,0,.2,0,.2.2,0,.2h0Z"></path></g></g><g><path d="M37.7,22.2l-.3-.3h0c0,0,.2,0,.3.2v.2h0Z"></path><polygon points="37.5 21.8 37.5 22 37.4 21.9 37.4 21.8 37.5 21.8 37.5 21.8"></polygon><path d="M37.3,21.6c.2,0,.2.3,0,.3s-.1,0-.1-.1,0-.1.1-.1Z"></path></g><g><path d="M37.7,22.2l.5-.2h0c-.1,0-.3,0-.4,0v.2h0Z"></path><polygon points="38.1 22 38.1 22.1 38.2 22.1 38.2 22 38.1 22 38.1 22"></polygon><path d="M38.2,21.9c0,.2.2.3.2.1,0-.2-.2-.3-.2-.1Z"></path></g><g><path d="M36.5,24.5l-.3-.5h0c0,0,.3.3.3.4h-.1Z"></path><polygon points="36.3 24 36.3 24.1 36.2 24 36.3 24 36.3 24 36.3 24"></polygon><path d="M36.2,23.8c.2,0,.1.3,0,.3-.2,0-.1-.3,0-.3Z"></path></g><g><path d="M37,24.6h0c-.1-.1-.3-.2-.4-.2h-.1c0,.1.2.2.5.2Z"></path><polygon points="36.9 24.5 36.8 24.6 37 24.6 37 24.5 36.9 24.5 36.9 24.5"></polygon><path d="M37.2,24.5c-.1-.1-.3,0-.2.2.1.1.3,0,.2-.2Z"></path></g><g><path d="M34.4,26.2v-.5s0,0,0,0c0,.1,0,.2,0,.4h-.1Z"></path><polygon points="34.5 25.8 34.4 25.9 34.4 25.7 34.5 25.7 34.5 25.8 34.5 25.8"></polygon><path d="M34.6,25.7c-.1.1-.3,0-.2-.2.1-.1.3,0,.2.2Z"></path></g><g><path d="M34.4,26.2l.5.2h0c0-.1-.3-.3-.4-.3h-.2Z"></path><polygon points="34.9 26.3 34.7 26.4 34.9 26.5 34.9 26.4 34.9 26.3 34.9 26.3"></polygon><path d="M35.1,26.4c0-.2-.3,0-.2,0,0,.2.3,0,.2,0Z"></path></g><path d="M27.1,23.8c.5.3,1.6,1,1.5.4,0-.2,0-.2.2,0,.3.5.6.6.9.4,3.9.3,2.9.4,4,0,.4-.1.4.1,0,.3-.7.2-.9.3-.2.5.1,0-.1,0-.3.1-.1,0-.6.1-.8.3-.2.2-.3.3-.6.3-.3,0-1,0-1.3,0-.3,0-.4,0-.6-.2-.2-.2-.3-.3-.5-.3-.2,0-.6,0-.8,0-.2,0-.1-.1,0-.2.2,0,.3-.1.3-.2,0,0,0-.2-.4-.3-.3,0-.5-.1-.8-.1-.3,0-.2,0-.2-.1,0,0,.3,0,.3-.2,0-.2-.6-.5-.8-.6-.2,0-.2-.4,0-.2h0Z"></path><g><path d="M29.5,24.8c-.3-.3.1-.7.3-.4.1,0,1,0,1.2,0,0,0,0,0,0,0,.2,0,.7,0,.9.1.2-.3.7,0,.4.4,0,0,.1.3,0,.5.3.2,0,.7-.3.5,0,0-.2,0-.3.1h0c-.3,0-1.6,0-1.8-.2,0,0-.1,0-.2,0s-.1,0-.2,0c0,0,0,0,0-.1,0,0,0,0,0-.1,0,0,0,0,0-.1,0,0,0,0,0,0,0,0,0,0-.1-.2,0,0,0-.1,0-.2,0,0,0-.1,0-.2,0,0,0-.1,0-.1h0Z"></path><path d="M29.5,24.6c0,0,0,.2.1.2,0,0,0,.1,0,.2,0,0,0,0,0,.1,0,0,0,0,0,.1,0,.1.1.2.1.2h0s0,0,0,0c0,0,0,0,0,0,0,0,0,0,0,0,0,0,0,0,0,.1,0,0,0,0,0,.1,0,0,0,0,.1,0,.1,0,.2,0,.2,0h0s0,0,0,0c.1.2,1.9.3,2.1,0,.3.2.6-.2.3-.4.1-.2.1-.4,0-.5.3-.4-.2-.7-.3-.4-.2,0-.7-.1-.9-.1,0,0,0,0,0,0-.2,0-1.1,0-1.2,0,0-.2-.4-.1-.4.1h0Z"></path><path d="M32.2,24.6s0,0,0,0c0,0,0,0-.1,0h0c0,0,0,0,0-.1h0s0,0,0,0h0c0,0,0,.2,0,.2h0s0,0,0,0c0,0,.2,0,.2,0h0ZM29.7,25.7s0,0,0,0c0,0,0,0,0,0,0,0,0,0,0,0,0,0,0,0,0,0h0s0,0,0,0c0,0,0,0,0,0,0,0,0,0,0,0,0,0,0,0,0,0,0,0,0,0,0,0,0,0,0,0,0,0s0,0,0,0c0,0,0,0,0-.1,0,0,0,0,0-.1,0,0,0,0-.1,0,0,0,0,0,0,0,0,0,0,0,0,0h0s0,0,0,0c0,0,0,0,0,0h0ZM32.2,25.8s0,0,0,0c0-.3-.4-.2-.3.1,0,0,0,0,0,0-.1-.3.2-.3.2-.1h0ZM29.7,24.6s0,0,0,0c0,0,.1,0,.2,0h0c0,0,0-.2,0-.3h0s0,0,0,0h0s0,.2,0,.2h0s0,0,0,0h0c0,0,0,0-.1,0h0Z"></path><path d="M30,25.7c.1.3,1.8.3,1.9,0,0,0,0,0,0,0,0,0,0,.1,0,.2-.3.2-1.9.1-2,0,0,0,0,0,0,0,0,0,0,0,0-.1h0Z"></path><path d="M30.1,24.4c.1.1.2.2.3.3,0,.1.1.3.2.5,0,.4.4.8.4.8h0c-.6-.6-.2-1-.8-1.6h0Z"></path><path d="M30.4,24.4s0,0,0,0c.1,0,.2.2.3.3,0,.1.1.3.2.5,0,.4.5.8.5.8h0s-.4-.4-.5-.8c0-.2,0-.3-.2-.5,0-.1-.2-.2-.3-.3h0Z"></path><path d="M31.2,25s0,0,0,0c.2.6.5.8.5.9h0c-.2-.2-.4-.5-.5-.9,0,0,0,0,0,0h0Z"></path><path d="M31.1,24.8s0,.2,0,.2c0,0,.5,0,.6,0,0,0,0-.1,0-.2,0,0,.1-.2.2-.2,0,0-.3-.1-.3-.1,0,0-.2,0-.2,0,0,0-.3.4-.3.4h0Z"></path></g><g><path d="M26.6,21.2s0,.2,0,.2c0,0,.2,0,0-.2h0ZM25.9,22s0,0,0,0c0,0-.1,0-.2,0,0,0,0,0,.2,0ZM26,22.5s.1,0,.2,0c0,0,0,0,0,0,0,0-.1,0-.2,0h0ZM26.5,22.9s0,0,.1-.2c0-.1,0,0,0,0,0,0,0,.1-.2.1h0ZM27.2,23.3s.1-.1.2-.2c0,0,0,0,0,0,0,0-.1,0-.2,0h0ZM27.8,23.6s0-.1,0-.1c0,0,0,0,0,0,0,0,0,0-.1.1h0ZM27.9,23.7s0-.2,0-.2c0,0,0,0,0,0,0,0,0,.1-.2.2h0ZM29.3,23.9s.1,0,.1-.1c0,0,0,0,0,0,0,0,0,0-.2,0h0ZM29.9,24.1c.1-.1.1-.2.2-.1,0,0,0,.1-.2.1h0ZM30.6,24.1c.1-.1.1-.4,0-.2,0,0,0,.1,0,.2,0,0,.1,0,.2-.2,0,0,0,0,0,.2h0ZM33.5,24.4s0-.1,0-.2c0-.1,0,0,0,0,0,0,0,.2.2.3h0ZM34.7,24.3s-.1,0-.2-.1c0,0,0,0,0,0,0,.1.1.1.2.1ZM34.8,24.2s-.2,0-.2-.1c0,0,0,0,0,0,0,0,0,.1.3,0h0ZM35.3,23.8s-.2,0-.2,0c0,0,0,0,0,0,0,0,.1,0,.2,0h0ZM34.5,22.8c-.1.1,0,.2-.2.2,0,0,0-.2.2-.2h0ZM34,23.1c-.1.2,0,.4-.1.3,0,0,0-.2.1-.3h0ZM30.5,22.5s0,.2,0,.2c0,0,.2,0,0-.2h0ZM30.3,22.4c0,0,0,.2,0,.2,0,0,0,0,0,0,0,0,0-.2,0-.2h0ZM29.5,22.3c0,0,0,.2.1.2,0,0,.2,0,.2,0s-.1-.2-.2-.2c0,0,0,0,0,.1,0,0-.1,0-.1,0h0ZM29.1,22.5c0,.1.2.3.2.2,0,0,0-.2-.2-.2h0ZM27.6,22.1c0,0,0,.2.1.2,0,0,0-.2-.1-.2h0ZM27.3,21.8s0,0-.1,0c0,0,0,0,0,0,0,0,0-.1,0-.2h0Z"></path><path d="M31.8,24.7c0-.4.4-.6.8-.6.1,0,.2,0,.3,0,.2,0,.6.2.7.3.4.1.9,0,1.2-.3.1,0,.2-.1.3-.2,0,0,0-.4,0-.5-.4-.5-.7-.4-1.1,0,0,0-.2.3-.3.3,0,0-.2,0-.3,0,0-.2,0-.3,0-.5-.2-.5-1.4-.3-1.9-.2-.2,0-.3,0-.4,0,0,0-.2-.1-.5-.3-.3-.1-.5-.2-.6-.2-.2,0-.4,0-.5.2-.1.1-.2.2-.2.2,0,0-.3-.4-.7-.6-.4-.2-.9-.1-1,0,0,0,0-.5-.3-.8-.3-.3-.5-.4-.8-.4-.4,0-.6.9.2,1.4.3.2.8.2.8.2,0,.5.8.7,1.3.7.3,0,.6-.2.6-.2,0,.7,1.6.9,2.1.4,0,0,0,.1,0,.4,0,.2,0,.5,0,.6,0,.2,0,.2.2.2,0,0,.4,0,.5,0s0,0,0,0c0,0,0-.1,0-.2h0Z"></path><path d="M33,24s.1,0,.2-.1c0,0,0,0,0-.1,0,0,0,0,.1,0,0,0,.2,0,.3,0,.2-.2,0-.2.6-.6.2-.1.3-.2.7.1.1.1.1.2.2.4,0,.1,0,.2-.1.3-.1,0-.5.3-.7.3-.2,0-.4,0-.7,0-.3,0-.6-.2-.6-.2h0ZM27.1,22.8s0-.2.2-.3c0,0,0-.4-.2-.6-.1-.3-.4-.4-.5-.5-.8-.2-1,.6-.3,1.1.3.2.5.3.9.3ZM28.9,23.3s0-.2.1-.3c0,0-.2-.3-.5-.5-.5-.3-1.1-.4-1.3.2-.2.4.4.6.8.7.4,0,.8,0,1-.1h0ZM30.9,23s-.2,0-.3-.1c-.1-.1-.3-.2-.5-.2-.2,0-.4,0-.5,0-.2,0-.3.2-.4.4,0,.1-.2.4,0,.5.6.5,1.4.5,1.9.2.1,0,.2-.3.3-.4.1,0,.2-.2.2-.2h0c0,0-.3,0-.4,0,0,0-.1,0-.1,0,0,0,0,0-.1-.2h0ZM31.3,23.4c0,0-.1.1-.2.2,0,.1,0,.3-.1.5,0,.1,0,.6,0,.7,0,0,0,.1.1.1.1,0,.3,0,.4,0,0,0,0,0,.1-.2,0-.3.3-.5.5-.6,0,0,.3,0,.4,0,.1,0,.3,0,.4-.2.1,0,.2-.2.2-.3,0,0,0-.2-.1-.2-.1,0-.1-.1-.2-.2,0,0-.2-.1-.3,0-.1,0-.2,0-.3,0-.1,0-.2.1-.2.2,0,0,0,.1-.2.1-.1,0-.2,0-.3,0,0,0,0,.1,0,.2,0,0-.1,0-.1-.1,0,0,0-.3-.1-.2h0Z"></path><path d="M33.2,23.8s0,0,0,0c0,0,0,0,.1,0,0,0,.2,0,.3,0,.2-.2,0-.2.6-.6.3-.2.3-.1.5,0-.3,0-.3.1-.5.3,0,0,0,.1,0,.1-.1.1-.3.3-.4.3,0,0,0,0,0,0,0,0,0,.1,0,.2,0,0-.2,0-.2,0,0,0,0-.1,0-.2,0,0-.1,0-.2,0h0ZM25.9,21.7c.2-.3.6-.3.8-.2.1,0,.3.3.3.4,0,0,0,0,0,0,0,0,0,0,0,0,0,0,0,0,0,0,0,0,0,0,0,0,0,.2,0,.3,0,.6,0,0,0-.2.2-.3,0,0,0-.4-.2-.6-.1-.3-.4-.4-.5-.5-.4-.1-.6,0-.7.3h0ZM28.6,23.1s0,0,0,0c0,0,0,0,0,0,0,0,0,0,0,0s0,0,0,0h0ZM28.3,23.2s0,0,.1,0c0,0,0,0,0,0,0,0,0,0,0,0,0,0,0,0,0,0h0ZM28,23.1s0,0,.1,0c.1-.1,0-.2-.1-.1,0,0,0,0,0,.1h0ZM27.6,23.2s.1,0,.2,0c0-.2-.2-.2-.2,0h0ZM27.7,22.8c0,.1-.2-.1,0,0,0,0,0,0,0,0ZM27.9,22.5c0,0,0,0,0,.1,0,0-.1-.1,0-.1h0ZM26.8,22.5s.1,0,.1,0c0,0,0,0,0-.1,0,0-.2,0-.1,0h0ZM26.6,22.4s0,0,0,0c0,0,0,0,0,0,0,0,0,0,0,0,0,0,0,0,0-.1h0ZM26.6,22c0,0,0,0,0,.1,0,0,0,0,0,0,0,0,0,0,0,0,0,0,0,0,0,0h0ZM26.2,22s0,0,0,0c0,0,0,0,0,0,0,0,0,0-.1,0,0,0,0,0,0-.1h0ZM26.2,21.8s0,0,.1,0c0,0,0,0,0,0,0,0-.2,0-.1,0h0ZM26.6,21.7s0,0,0,0c0,0,0,0,.1,0,0,0-.1,0-.1,0h0ZM27.3,23.1c-.3-.7.4-.8,1-.5.3.1.3.2.4.3.1,0,.2,0,.2,0,0,0,0-.1-.2-.2,0,0-.1-.1-.2-.2-.5-.3-1.1-.4-1.3.2,0,.3,0,.3.2.4h0ZM34.4,23.6s0,0,.1,0c0,0,0,0,0-.1,0,0-.2,0-.1.1h0ZM34.3,24c0,0,.1,0,.2,0,0,0,0,0,0-.1,0,0-.3,0-.2.1h0ZM34,23.8s0,0,0,.1c0,0,.1,0,.1,0,0,0,0-.2-.1,0h0ZM32.4,24c0,.1.2,0,.1,0,0,0-.2,0-.1,0h0ZM32,23.9c0,0,0,0,.1,0,.2-.1-.2-.3-.1,0h0ZM31.4,24.4s0,0,.2,0c0,0,0,0,0-.1,0,0-.1,0-.2,0,0,0,0,0,0,.1h0ZM29.8,22.9s.1,0,.1,0c0,0,0,0,0-.1.1,0,.3.1.5.2,0,0,0,0,0,0,0,0,0,0,0,0,0,0,0,0,0,0,0,0,.1,0,.1,0,.2,0,.4.2.5.2,0,0,0,0,.1,0,0,0,0,0,0,0,.1,0,.2-.2.2-.2h0c0,0-.3,0-.4,0,0,0-.1,0-.1,0,0,0,0,0-.1-.2,0,0-.2,0-.3-.1-.1-.1-.3-.2-.5-.2-.2,0-.4,0-.5,0-.2,0-.3.2-.4.4,0,.1-.2.4,0,.5,0-.1,0-.3,0-.3,0-.1.2-.3.3-.3.1,0,.3-.1.4,0,0,0,0,0,0,0,0,0,0,0,0,.1h0ZM30.1,23.2c0,0,0,0,0,.1,0,0,0,0-.1,0,0,0,0,0,0-.1,0,0,0,0,.1,0h0ZM30.5,23.4s0,0,.1,0c0,0,0,0,0,.1,0,0,0,0,0,0,0,0,0,0,0-.1h0ZM30.3,23.6c0,0,0,0,0,0,0,0,0,0,0,0,0,0,0,0-.1,0,0,0,0-.1.1,0h0ZM29.6,23.5c0,0,.1,0,.1,0,0,0,0,0,0,.1,0,0,0,0-.1,0,0,0,0,0,0-.1h0ZM29.4,23.1c0,0,0,0,0,.1,0,0,0,0,0,0,0,0-.1-.2-.2,0h0ZM31.3,24.4c0,0,.1-.3.2-.4,0-.1,0-.1.1-.1,0,0,.1,0,.1,0,.1-.2,0-.2.3-.4,0,0,.1,0,.2,0,0,0,0,0,0,0,0,0,0,0,.1,0,0,0,0-.1.2-.1.1,0,.2,0,.2,0,0,0,0,0,0,0,0,0,0,.1,0,.1,0,0,.1,0,.2,0,0,0,0,0,0-.1,0,0,0,0,0,0,0,0,0,0,.1,0,0,0,0,0,0-.1,0,0,0,0,0,0-.1,0-.1-.1-.2-.2,0,0-.2-.1-.3,0-.1,0-.2,0-.3,0-.1,0-.2.1-.2.2,0,0,0,.1-.2.1-.1,0-.2,0-.3,0,0,0,0,.1,0,.2,0,0,0,0,0,0,0,0,0,0,0,0,0,0-.1,0-.1-.1,0,0,0,0,0,0,0,0-.1.3-.1.4,0,0,0,.3,0,.4,0,0,0,.2,0,.2,0,0,0,.2,0,.1,0,0,0-.1,0-.3h0Z"></path><path d="M26.6,21.8h0s0,0,0,0c0,0,0,0,.1,0,0,0,0,0,0-.1h0s0,0,0,0c0,0,0,0-.1,0,0,0,0,0,0,0h0ZM34.2,23.5c0,.1.2,0,.1-.2,0,0,0,.2-.1.1,0,0,0,0,0,0h0ZM33.4,23.9h0c0,0,0,.1.1.1,0,0,.1-.1.2-.2h0s0,0,0,0c0,0-.2,0-.2,0,0,0,0,0,0,0h0ZM34,23.9h0s0,.1,0,.1.1,0,0-.2c0,0,0,0,0,0h0s0,0,0,.1c0,0,0,0-.1,0,0,0,0,0,0,0h0ZM34.3,24h0s0,.1,0,.1c0,0,.1,0,.1-.1,0,0,0,0,0,0,0,0-.1,0-.2,0,0,0,0,0,0,0h0ZM34.4,23.6h0s0,.1.1.1c0,0,.1,0,.1-.1,0,0,0,0,0,0h0s0,0,0,.1c0,0,0,0-.1,0,0,0,0,0,0,0h0ZM31.4,24.4h0s0,0,0,0c0,0,.1,0,.1,0,0,0,0,0,0,0,0,0,0,0,0,0,0,0-.1,0-.2,0,0,0,0,0,0,0h0ZM32.4,23.5s0,0,0,0c0,0,0,0,0,0,0,0,0,0-.1,0,0,0,.1,0,.1,0ZM32.7,23.5c0,.1,0,.3.2.1,0,0,0,0,0,0,0,0,0,0,0,0,0,0-.1,0-.2,0,0,0,0-.1,0-.1h0ZM32.9,23.5h0ZM32,23.8s0,0,0,.1c0,0,.1,0,.1,0,0,0,0,0,0,0,0,0,0,0,0,0,0,0-.2,0-.1-.1h0ZM32.2,23.9h0s0,0,0,0h0ZM31.6,23.9h0s0,0,0,0c0,0,0,0,0,0,0,0,0,0,0,0,0,0,0,0,0,0,0,0-.1,0-.1,0h0ZM30.2,23.7s0,0,0,0c0,0,.1,0,.1,0,0,0,0,0,0,0h0s0,0,0,0c0,0,0,0,0,0,0,0,0,0-.1,0h0ZM30.5,23.4h0s0,0,0,.1c0,0,0,0,.1,0,0,0,0,0,0,0h0s0,0,0,0c0,0,0,0,0,0,0,0,0,0,0,0h0ZM29.6,23.7h0s0,0,.1,0c0,0,0,0,0,0,0,0,0,0,0,0h0s0,0,0,0c0,0,0,0,0,.1,0,0,0,0,0,0h0ZM29.7,22.8h0s0,.1,0,.1c0,0,.1,0,.1,0,0,0,0,0,0,0h0s0,0,0,0c0,0-.1,0-.1,0,0,0,0,0,0,0h0ZM30,23.3h0s0,0,0,0c0,0,0,0,0,0,0,0,0,0,0-.1h0s0,0,0,0c0,0,0,0-.1,0,0,0,0,0,0,0h0ZM29.4,23.1h0s0,0,0,0c0,0,0,0,.1,0,0,0,0,0,0,0h0s0,0,0,0c0,0,0,0,0-.1,0,0,0,0,0,0h0ZM30.4,23h0s0,0,0,0c0,0,0,0,0,0h0s0,0,0,0c0,0,0,0,0,0h0ZM28.6,23h0s0,.1,0,.2c0,0,0,0,.1,0h0s0,0,0,0c0,0,0,0,0,0,0,0,0,0,0,0h0ZM27.8,22.6s0,0,0,0c0,0,0,0,0,0h0c0,0-.1,0-.1,0h0ZM27.5,22.8s0,.1,0,.1c0,0,.1-.1.1-.1h0c0,0-.2,0-.2,0h0ZM28,23h0s0,.1,0,.1c0,0,.1,0,.1-.1h0s0,0,0,0c0,0,0,0-.1,0,0,0,0,0,0,0h0ZM28.3,23.3h0s0,0,0,0c0,0,0,0,0,0,0,0,0,0,0,0,0,0,0,0,0,0,0,0,0,0,0,0,0,0,0,0,0,0h0ZM26.9,22.1s0,0,0,0c0,0,0,0,.1,0,0,0,0,0,0,0h0s0,0,0,0c0,0,0,0,0,0h0ZM26.8,22.5h0s0,.1,0,.1c0,0,0-.1,0-.1h0s0,0,0,0c0,0-.1,0-.1,0,0,0,0,0,0,0h0ZM26.6,22.6h0s.1,0,.1,0c0,0,0,0,0,0,0,0,0,0,0,0,0,0,0,0,0,0,0,0,0,0,0,0h0ZM26.5,22.1h0s0,0,0,.1c0,0,0,0,0,0h0s0,0,0,0c0,0,0,0,0,0h0ZM26.1,22.2h0s0,0,.1,0c0,0,0,0,0-.1,0,0,0,0,0,0h0s0,0,0,0c0,0,0,0,0,0,0,0,0,0,0,0h0ZM26.2,21.8h0s0,0,0,0c0,0,.1,0,.1,0,0,0,0,0,0,0,0,0,0,0,0,0,0,0,0,0-.1,0,0,0,0,0,0,0h0Z"></path><path d="M26.1,21.6s0,.1,0,.1c0,0,0,0,0,0,0,0,0-.1,0-.1,0,0,0,0,0,.1,0,0,0,0,0,0h0ZM34.2,23.3c-.2.1,0,.2,0,0h0ZM34.6,23.5c0,0-.1,0-.1.1,0,0,0,0,.1-.1h0ZM34.5,23.9s-.2,0-.2,0c0,0,.1,0,.2,0h0ZM34.1,23.7c0,0-.1.2,0,.2,0,0,.1-.1.1-.1,0,0,0,0,0,0,0,0,0,0,0-.1h0ZM33.6,23.8c-.1,0-.2.1-.2.2,0,0,.1-.1.2-.2h0ZM32.4,23.2c0,0-.2.1-.1.2,0,0,.1,0,.1-.2h0ZM32.9,23.4c0,0-.2.1-.1.2,0,0,.1,0,.1-.2h0ZM32.7,23.8c0,0-.2,0-.2.1,0,0,.1,0,.2-.1h0ZM32.2,23.6c0,0-.1.2-.1.2,0,0,.2,0,.2,0,0,0,0,0-.2,0,0,0,0,0,0-.2h0ZM31.6,24.1c0,0-.1.2,0,.2,0,0,.2,0,.2-.1,0,0-.1,0-.2,0,0,0,0,0,0-.2h0ZM31.8,23.6c0,0-.2.2-.2.2,0,0,.1-.2.2-.2h0ZM31.3,23.7c0,0,0,.2,0,.2,0,0,0,0,0,0,0,0,0,0,0-.1h0ZM29.7,22.7c0,0,0,.2.2.1,0,0,0-.2-.2-.1h0ZM30.3,22.8c0,0,.1.2.2.2,0,0,0-.2-.2-.2h0ZM30.4,23.4c0,0,.1.1.2,0,0,0,0,0-.2,0h0ZM29.5,23.6s.1,0,.1,0c0,0,0,0-.1,0h0ZM30.1,23.7c0,0,.2,0,.2,0,0,0-.2,0-.2,0h0ZM29.9,23.2c0,0,.2.2.2.1,0,0-.2-.2-.2-.2,0,0,0,0,0,.1,0,0,0,0-.1,0h0ZM29.3,23.2c0,0,.2,0,.2,0,0,0-.1-.2-.2-.2,0,0,0,.1.1.2,0,0,0,0-.1,0h0ZM28.5,23.1c0,0,.2,0,.2,0,0,0,0,0-.2,0h0ZM28.1,23.3c0,0,.1,0,.2,0,0,0-.1,0-.2,0h0ZM27.9,22.9c0,0,.2.1.2.2,0,0-.2,0-.2,0,0,0,0,0,.1,0,0,0,0,0,0-.1h0ZM27.6,23s0,0,0,0c0,0,0,0,0,0,.3,0,.2-.2,0-.2ZM27.5,22.7c.1.2.3,0,0,0h0ZM27.7,22.4c.1.4.3,0,0,0h0ZM26.4,22.4c0,0,0,.1,0,.1,0,0,0-.1,0-.1h0ZM26.8,22.4s0,0,0,0c0,0,0-.2,0-.2,0,0,0,0,0,.1,0,0,0,0,0,0h0ZM26.9,21.9c0,0,0,.2,0,.2,0,0,0-.2,0-.2h0ZM26.1,22s0,.1.1.1c0,0,0,0-.1-.1h0ZM26.4,22s0,.1.1.1c0,0,0-.1-.1-.1h0ZM26.6,21.5c0,0,0,.2,0,.2,0,0,0-.1,0-.2h0Z"></path><g><path d="M25.5,20.3l.2.3h-.1c-.2-.3-.2-.2-.2-.2-.2,0-.2-.3,0-.3s.2.2,0,.2Z"></path><path d="M25.4,20c-.2,0,0,.4.1.2,0,0,0,0,0,0l.2.3h0c-.2-.2-.2-.3-.1,0h0c-.2-.4-.2-.3-.2-.3-.2,0-.2-.3,0-.3Z"></path><g><path d="M25.3,20.9c0,.3.4.2.3,0,0,0,.2,0,.2-.1.1.1.4-.1.2-.2,0,0,0,0,0,0,0,0-.2,0-.2,0,0,0,0,0,0,.1,0,0,0,0,0-.1,0,0-.1,0-.2,0,0,0,0,0,0,0,0,.1,0,.1,0,0,0,0,0-.2-.2,0,0,0,0,0,0,0,0,0,0,0,0,0h0Z"></path><path d="M25.8,20.6s0,0,0,0c.3,0,0,.3,0,0ZM25.4,20.9c0-.1.2,0,.1,0,0,0-.2,0-.1,0h0ZM25.6,20.7c.1-.1.2,0,.1.1,0,0-.2,0-.1-.1h0Z"></path></g></g><g><path d="M28.7,21.4s0,.1,0,.2c0,0,0,0,0,0v.3s-.2,0-.2,0c0,0,0-.2,0-.3,0,0,0,0,0,0,0,0,0-.1,0-.2,0,0,.1,0,.2,0h0Z"></path><path d="M28.7,21.4s0,0,0,0c0,0,0,0-.1,0,0,0,0,.1,0,.1,0,0,0,0,0,0,0,0,0,0,0,0v.3s0,0,0,0c0,0,0,0,0,0,0,0,0-.2,0-.2,0,0,0,.1,0,.2h0s0-.2,0-.3c0,0,0,0,0,0,0,0,0-.1,0-.2,0,0,.1,0,.2,0h0Z"></path><g><path d="M28.2,21.9c0,0,0,.2,0,.2,0,0,.2,0,.2,0,0,0,0,0,.1,0,0,0,0,0,0,0,0,0,0,0,.1,0,0,0,.1,0,.1-.1,0,0,0,0,0,0,0,0,0,0,0,0,0,0,0,0,0,0,0,0,0,0,0,0,0,0,0,0,0,0,0,0,0,0,0,0,0,0,0,0,0,0,0,0,0,0,0,0,0,0,0,0,0,0,0,0,0,0-.1,0,0,0,0,0,0,0,0,0,0,0,0,0,0,0,0,0,0,0,0,0,0,0,0,0,0,0,0,0,0,0,0,0,0,0,0,0,0,0,0,0-.1,0,0,0,0,0,0,0,0,0,0,0,0,0h0Z"></path><path d="M28.7,22s0,0,0,0c0,0,0,0,0,0,0,0,0,0,0,0,0,0,0,0,0,0h0ZM28.2,22s0,0,0,0c0,0,0,0,0,0,0,0,0,0,0,0,0,0,0,0,0,0h0ZM28.5,21.9c0,0,0,0,0,0,0,0,0,0,0,0,0,0,0,0,0,0,0,0,0,0,0,0h0Z"></path></g></g><g><path d="M36.1,22.4c0,.1,0,.2-.2.1l-.2.2h0c.3-.3.2-.3.2-.3,0-.2.2-.2.2,0h0Z"></path><path d="M36.1,22.4s0,0,0,0c0-.1-.2,0-.2,0,0,0,0,.1,0,0l-.2.2h0c.2-.2.2-.2,0,0h0s.2-.1.2-.2c0-.2.2-.2.2,0h0Z"></path><g><path d="M35.3,22.5c-.2,0,0,.4.1.2,0,0,0,.1.1.1,0,.1.2.3.2.1,0,0,0,0,0,0,0,0,0-.2,0-.2,0,0,0,0,0,0,0,0,0,0,0,0,0,0,0-.1-.1-.2,0,0,0,0,0,0,0,0,0,0,0,0,0,0,0,0,0,0-.3-.2-.1,0-.2,0h0Z"></path><path d="M35.7,22.9c.1.2-.2,0,0,0,0,0,0,0,0,0h0ZM35.3,22.6c.2.1-.2.2,0,0,0,0,0,0,0,0h0ZM35.6,22.7s0,0,0,.1c0,0-.2,0-.1-.1,0,0,0,0,0,0h0Z"></path></g></g></g><g><g><path d="M32.1,22.2c0,0,0,.1,0,.2,0,0-.2.1-.3.2,0,0-.2,0-.3,0,0,0,0,0-.2,0,0,0-.1,0-.1,0,0,0,0,.1,0,.1v.2c0,0,0,0,.2,0,0,0,0,0,0,.1,0,0,.2.2.2.2,0,0,.1,0,.2,0,.1,0,0-.2,0-.2,0,0,.3-.2.3-.2,0,0,0,0,0,0,0,0,0,0,0,0,.1,0,.1,0,.1,0,0,0,0,.1.1.1.1,0,.1-.1.1-.1,0,0,0,0,.1,0,0,0,0,0,0,0,0,0,0,.1.1.2.1,0,.2,0,.2,0,0,0,0,0,0,0l.2-.2s0,0,0,0c0,0,0-.3-.3-.2,0,0,0-.1-.2-.1,0,0,0-.1-.2-.1-.2-.3-.2,0-.4-.4h0s-.2,0-.1.2h0Z"></path><g><path d="M31.4,23s0,0,0,0c0,0,0-.1.1-.1.5-.2.6-.3.6-.3h0s-.1.1-.6.3c0,0,0,0-.1.1,0,0,0,0,0,0h0Z"></path><path d="M32.1,22.6c0,.1.2.1.3,0,0,0,0-.3,0-.4h0c0,.2,0,.4-.2.4-.2,0-.2-.1-.2-.3,0,0,0,.2,0,.2Z"></path><path d="M32.5,22.6c0,.1.2,0,.2,0h0c0,.2-.2.2-.3,0h0Z"></path><path d="M32.6,22.7c0,0,.1.2.2,0h0s0-.1,0-.1h0s0,.1,0,.1h0c0,0-.2,0-.2-.1,0,0,0,0,0,0Z"></path><path d="M32.8,22.8c.1.2.2.1.3,0h0s0,0,0,0c-.1.2-.2.1-.3,0h0Z"></path><path d="M31.9,22.8c0,0,0,0,0,.1,0,0,.2,0,.3-.2h0c0,.2-.2.3-.4,0h0Z"></path><path d="M31.7,22.9c.1.2.3.2.3,0h0c0,.2-.2.2-.4,0h0Z"></path><path d="M31.6,22.6c0,0,0,.1,0,.2,0,0,.2,0,.2,0h0c-.2.2-.3.1-.3,0h0Z"></path><path d="M31.8,22.6c0,.1,0,.1.1.1h0c-.1,0-.1,0-.2-.1h0Z"></path></g><path d="M31,23.2s-.1-.3.2-.2c0,0,0-.2,0-.3,0,0-.3,0-.3.2,0,.2.1.3.1.3h0Z"></path><path d="M31.6,23.4s-.3,0,0,.3c0,0-.3-.1-.2-.3,0-.2.2-.2.2-.2,0,0,.1.1,0,.2h0Z"></path><path d="M33.5,23c.3,0,.3.6-.1.5.2,0,.2-.2,0-.3-.1,0,0-.2.2-.2h0Z"></path></g><g><path d="M27.8,20.9s-.2,0-.3,0c0-.1-.1-.2-.1-.4,0-.1,0-.3-.3-.5-.2-.2-.4-.3-.4-.4,0-.1,0-.3.2-.6,0-.2,0-.5-.5-.8h-.2s0,.2,0,.2c.2.1.4.2.4.5,0,.2-.2.5-.2.8,0,.3.4.5.5.6.1,0,.2.2.2.4,0,.2,0,.6.3.7.5.2,1.2-.1.6-.6h0Z"></path><path d="M26.9,20.7s0,0,0,0c0,.2,0,.6.3.7.3.1.5,0,.7-.1,0,0,0-.3,0-.2,0,0,0,.2-.2.2-.1,0-.3,0-.3,0,0,0,0-.2,0-.2-.2,0-.4,0-.4,0,0,0,.1-.2.1-.2-.2,0-.3,0-.3,0,0,0,.1-.2.1-.2h-.2Z"></path><path d="M27.8,20.9s-.2,0-.3,0c0-.1-.1-.2-.1-.3l-.2.3s.1,0,.2,0c0,0,0,.2,0,.3,0,0,.2,0,.2-.1,0,0,0,.3,0,.3,0,0,0,0,.2-.1.2-.2.1-.2,0-.3h0Z"></path><path d="M27.3,20.4c0,0,0-.2-.2-.3h-.1c0,.1,0,.2,0,.2,0,0-.2,0-.3,0,0,0,0,0,0,0,0,0,.1.1.2.2h0s0-.3,0-.3h.3Z"></path><path d="M27.6,20.9s0,0,0,0h0s0,0,0,0h0s0,0,0,0h0s0,0,0,0h0s0,0,0,0h0s0,0,0,0h0s0,0,0,0h0s0,0,0,0h0s0,0,0,0h0s0,0,0,0c0,0,0,0,0,0h0c0,0-.2.2-.2.2,0,0,0-.2,0-.3h0s0,0,0,0h0s0,0,0,0h0s0,0,0,0h0s0,0,0,0h0s0,0,0,0h0s0,0,0,0h0s0,0,0,0h0s0,0,0,0h0s0,0,0,0h0s0,0,0,0h0s0,0,0,0h0s0,0,0,0h0s0,0,0,0h0s0,0,0,0h0s0,0,0,0h0s0,0,0,0h0s0,0,0,0h0s0,0,0,0h0c-.1,0-.2,0-.2,0,0,0,.1-.2.2-.3h0s0,0,0,0h0s0,0,0,0h0s0,0,0,0h0s0,0,0,0h0s0,0,0,0h0s0,0,0,0h0s0,0,0,0h0s0,0,0,0h0s0,0,0,0h0s0,0,0,0h0s0,0,0,0h0s0,0,0,0h0s0,0,0,0h0s0,0,0,0h0s0,0,0,0h0s0,0,0,0h0s0,0,0,0h0s0,0,0,0h0s0,0,0,0h0s0,0,0,0h0s0,0,0,0h0s0,0,0,0h0s0,0,0,0h0s0,0,0,0h0c0,0-.1.3-.2.3,0,0,0,0,0,0,0,0-.1,0-.2,0h0s0,0,0,0h0s0,0,0,0h0s0,0,0,0h0s0,0,0,0h0s0,0,0,0h0s0,0,0,0h0s0,0,0,0h0s0,0,0,0h0s0,0,0,0h0s0,0,0,0h0c0,0,.2,0,.2,0,0,0,0,0,0,0,0,0,0,0,0,0h0s0,0,0,0h0s0,0,0,0c0,0,0,0,0,0,0,0,0,0,0,0h0c0,0,.2,0,.2,0,0,0,0,0,0,0,0,0,0,0,0,0,0,0,0,0,0,0h0s0,0,0,0c0,0,0,0,0,0,0,0,0,0,0,0,0,0,0,0,.1,0h0c.1,0,.3,0,.3,0,0,0-.1.2-.1.2,0,0,.2,0,.3,0,.1,0,.3-.2.4-.3h0s0,0,0,0h0s0,0,0,0h0s0,0,0,0h0s0,0,0,0c0,0,0,0,0,0h0s0,0,0,0h0s0,0,0,0h0s0,0,0,0h0s0,0,0,0c0,0,0,0-.1.1-.2.2-.4.2-.4.2,0,0,0-.1,0-.1.2,0,.4-.3.4-.3h0s0,0,0,0h0s0,0,0,0c0,0,0,0,0,0h0s0,0,0,0h0s0,0,0,0h0s0,0,0,0c0,0,0,0,0,0,0,0,0,0,0,0h0s0,0,0,0h0s0,0,0,0h0s0,0,0,0h0s0,0,0,0h0s0,0,0,0h0s0,0,0,0h0c0,.2-.3.3-.3.3,0,0,0-.3,0-.3h0ZM27.3,20.4h0s0,0,0,0h0s0,0,0,0h0s0,0,0,0h0s0,0,0,0h0s0,0,0,0h0s0,0,0,0h0s0,0,0,0h0s0,0,0,0h0s0,0,0,0h0s0,0,0,0h0s0,0,0,0h0s0,0,0,0h0c-.1,0-.3,0-.3,0,0,0,.1-.1.1-.1h0s0,0,0,0h0s0,0,0,0h0s0,0,0,0h0s0,0,0,0h0s0,0,0,0h0s0,0,0,0h0s0,0,0,0h0s0,0,0,0h0s0,0,0,0h0s0,0,0,0h0s0,0,0,0h0s0,0,0,0h0c0,0-.2.2-.2.2-.1,0-.2,0-.3,0h0s0,0,0,0h0s0,0,0,0h0s0,0,0,0h0s0,0,0,0h0s0,0,0,0h0s0,0,0,0h0s0,0,0,0h0s0,0,0,0h0s0,0,0,0h0s0,0,0,0h0s0,0,0,0h0s0,0,0,0h0s0,0,0,0h0s.1,0,.2,0c0,0,0,0,0,0,0,0,0,.1,0,.2h0s0,0,0,0h0s0,0,0,0h0s0,0,0,0h0s0,0,0,0h0s0,0,0,0h0s0,0,0,0h0s0,0,0,0h0s0,0,0,0h0s0,0,0,0h0s0,0,0,0h0s0,0,0,0h0s0,0,0,0h0s0,0,0,0h0s0,0,0,0h0s0,0,0,0h0s0,0,0,0h0s0,0,0,0c0,0,0-.2,0-.2,0,0,0,0,0,0,0,0,.2,0,.3,0h0ZM26.9,20h0s0,0,0,0h0s0,0,0,0h0s0,0,0,0h0s0,0,0,0h0s0,0,0,0h0s0,0,0,0h0s0,0,0,0h0s0,0,0,0h0s0,0,0,0h0s0,0,0,0h0s0,0,0,0h0s0,0,0,0h0s0,0,0,0h0s0,0,0,0h0s0,0,0,0h0s0,0,0,0h0s0,0,0,0h0s0,0,0,0h0s0,0,0,0h0s0,0,0,0h0s0,0,0,0h0s0,0,0,0h0s0,0,0,0h0s0,0,0,0h0s0,0,0,0h0c0,0-.2,0-.2.1,0,0,0,.2,0,.2h0s0,0,0,0h0s0,0,0,0h0s0,0,0,0h0s0,0,0,0h0s0,0,0,0h0s0,0,0,0h0s0,0,0,0h0s0,0,0,0h0s0,0,0,0h0s0,0,0,0h0s0,0,0,0h0s0,0,0,0h0s0,0,0,0h0s0,0,0,0h0s0,0,0,0h0s0,0,0,0h0s0,0,0,0h0s0,0,0,0h0s0,0,0,0h0s0-.1.1-.2c0,0,.2-.1.2-.1h0ZM26.8,19.8h0s0,0,0,0h0s0,0,0,0h0s0,0,0,0h0s0,0,0,0h0s0,0,0,0h0s0,0,0,0h0s0,0,0,0h0s0,0,0,0h0s0,0,0,0h0s0,0,0,0h0s0,0,0,0h0s0,0,0,0h0s0,0,0,0h0s0,0,0,0h0c0,0-.2,0-.2,0,0,0-.2.2-.2.2h0s0,0,0,0h0s0,0,0,0h0s0,0,0,0h0s0,0,0,0h0s0,0,0,0h0s0,0,0,0h0s0,0,0,0h0s0,0,0,0h0s0,0,0,0h0s0,0,0,0h0s.1-.1.2-.2c0,0,.1,0,.2-.1h0ZM26.7,19.7h0s0,0,0,0c0,0,0,0,0,0h0s0,0,0,0h0s0,0,0,0h0s0,0,0,0h0s0,0,0,0c0,0,0,0,0,0h0s0,0,0,0h0s0,0,0,0h0s0,0,0,0h0s0,0,0,0h0s0,0,0,0h0s0,0,0,0h0s0,0,0,0h0s0,0,0,0h0s0,0,0,0h0c0,0-.2,0-.3,0,0,0-.1.1-.2.2h0s0,0,0,0c0,0,0,0,0,0,0,0,0,0,0,0,0,0,0,0,0,0,0,0,0,0,0,0,0,0,0,0,0,0,0,0,0,0,0,0,0,0,0,0,0,0,0,0,0,0,0,0,0,0,0,0,0,0,0,0,0,0,0,0,0,0,0,0,0,0h0s0,0,0,0h0c0,0,.1-.2.2-.2,0,0,.2,0,.2,0h0ZM26.7,19.3h0s0,0,0,0h0s0,0,0,0h0s0,0,0,0h0s0,0,0,0h0s0,0,0,0h0s0,0,0,0h0s0,0,0,0h0s0,0,0,0h0s0,0,0,0h0s0,0,0,0h0s0,0,0,0h0s0,0,0,0h0s0,0,0,0h0s0,0,0,0h0s0,0,0,0h0s0,0,0,0h0s0,0,0,0h0s0,0,0,0h0s0,0,0,0h0s0,0,0,0h0s0,0,0,0h0s0,0,0,0h0s0,0,0,0h0s0,0,0,0h0c0,0-.1-.1-.2-.1,0,0-.2,0-.2,0h0s0,0,0,0h0s0,0,0,0h0s0,0,0,0h0s0,0,0,0h0s0,0,0,0h0s0,0,0,0h0s0,0,0,0h0s0,0,0,0h0s0,0,0,0h0s0,0,0,0h0s0,0,0,0h0s0,0,0,0h0s0,0,0,0h0s0,0,0,0h0s0,0,0,0h0s0,0,0,0h0c0,0,.2,0,.2,0,0,0,.2,0,.2.1h0ZM26.7,19.1h0s0,0,0,0h0s0,0,0,0h0s0,0,0,0h0s0,0,0,0h0s0,0,0,0h0s0,0,0,0h0s0,0,0,0h0s0,0,0,0h0s0,0,0,0h0s0,0,0,0h0s0,0,0,0h0s0,0,0,0h0s0,0,0,0h0s0,0,0,0h0s0,0,0,0c0,0-.1-.1-.2-.2,0,0-.2,0-.2,0h0s0,0,0,0h0s0,0,0,0h0s0,0,0,0h0s0,0,0,0h0s0,0,0,0h0s0,0,0,0h0s0,0,0,0h0s0,0,0,0h0s0,0,0,0h0s0,0,0,0h0s0,0,0,0h0s0,0,0,0h0s0,0,0,0h0s0,0,0,0h0s0,0,0,0h0s0,0,0,0h0s0,0,0,0h0s0,0,0,0h0s0,0,0,0h0c0,0,.1,0,.2,0,0,0,.2,0,.2.2h0ZM26.8,18.8h0s0,0,0,0h0s0,0,0,0h0s0,0,0,0h0s0,0,0,0h0s0,0,0,0h0s0,0,0,0h0s0,0,0,0h0s0,0,0,0h0s0,0,0,0c0,0-.1,0-.2,0,0,0-.2,0-.2,0,0,0,0,0,0,0h0s0,0,0,0c0,0,0,0,0,0h0s0,0,0,0c0,0,0,0,0,0h0s0,0,0,0h0s0,0,0,0h0s0,0,0,0h0c0,0,.1,0,.2,0s.1,0,.2,0h0ZM26.7,18.5h0s0,0,0,0c0,0,0,0,0,0h0s0,0,0,0h0s0,0,0,0h0s0,0,0,0h0s0,0,0,0h0s0,0,0,0h0s0,0,0,0h0s0,0,0,0c0,0,0,0,0,0h0c0,0-.1,0-.2,0,0,0,0,.1-.1.2h0s0,0,0,0h0s0,0,0,0h0s0,0,0,0h0s0,0,0,0h0s0,0,0,0h0s0,0,0,0h0s0,0,0,0h0s0,0,0,0h0s0,0,0,0h0s0,0,0,0h0s0,0,0,0h0s0-.1.1-.1c0,0,.1,0,.2,0,0,0,0,0,0,0h0ZM26.4,18.3h0s0,0,0,0h0s0,0,0,0c0,0,0,0,0,0h0s0,0,0,0h0s0,0,0,0h0s0,0,0,0c0,0,0,0,0,0h0s0,0,0,0h0s0,0,0,0h0s0,0-.1.1c0,0,0,.1,0,.2h0s0,0,0,0h0s0,0,0,0h0s0,0,0,0h0s0,0,0,0h0s0,0,0,0h0s0,0,0,0h0s0,0,0,0h0s0,0,0,0h0s0,0,0,0h0s0,0,0,0h0s0,0,0,0h0s0,0,0,0h0c0,0,0-.1,0-.2,0,0,0-.1.1-.1h0ZM26.3,18.2h0s0,0,0,0c0,0,0,0,0,0h0s0,0,0,0h0s0,0,0,0c0,0,0,0,0,0h0s0,0,0,0h0c-.1,0-.1.1-.1.3h0s0,0,0,0h0s0,0,0,0h0s0,0,0,0h0s0,0,0,0h0s0,0,0,0h0c0-.2,0-.2.1-.3h0ZM27.2,21.3v-.2c.1,0,.3,0,.4-.1,0,0,0,.2,0,.2,0,0-.2,0-.3,0h0ZM27.1,20.8s.1,0,.2,0c0,0,0,.1,0,.2,0,0-.2,0-.2,0,0,0,0,0,.1-.1h0Z"></path><path d="M27.8,20.9s-.2,0-.3,0c0-.1-.1-.2-.1-.4,0-.1,0-.3-.3-.5-.2-.2-.4-.3-.4-.4,0-.1,0-.3.2-.6,0-.2,0-.5-.5-.8h-.2s0,.2,0,.2c.2.1.4.2.4.5,0,.2-.2.5-.2.8,0,.3.4.5.5.6.1,0,.2.2.2.4,0,.2,0,.6.3.7.5.2,1.2-.1.6-.6h0Z"></path></g><polygon points="29.1 20.5 29.2 20.6 29.3 20.7 29.1 20.8 29.1 20.8 29.1 20.5 29.1 20.5"></polygon><g><path d="M27.5,15.5c0,.1,0,.2,0,.4,0,0,0,0,0,0,0,0,0-.3,0-.4,0,0,0,0,0,0h0Z"></path><path d="M27.8,16.5c-.3,0-.6.1-.6-.2,0,0,.4,0,.5-.3.2-.3-.1.2-.5.1-.2,0,0-.2.1-.4.1-.2-.1-.1.2-.4,0,0,0-.2,0-.1,0,0,0,0-.1,0,0,0,0,0-.1,0-.1,0-.6.4-.6.6,0,.2.1.3.1.3,0,.8,0,.8.9.7v-.5h.1Z"></path><path d="M27.8,16.5c-.2,0-.6.1-.6,0-.2,0-.4,0-.4.2.2-.2.3-.2.3-.2,0,.1,0,.3,0,.3-.2.3.2.3.6.3v-.5h.1ZM27.4,16.7s.2.1.2.1c0,0,0-.2,0-.2,0,0,0,0,0,0,0,0-.2.1-.2.2h0ZM27.3,16.9s-.2-.2-.2-.2c0,0,.2-.2.2-.2,0,0,0,.1,0,.2,0,0,0,.2,0,.2h0Z"></path><path d="M26.9,15.6c0,0,0,0,.1-.1,0,0,.1-.1.3,0,0,.3,0,.4-.1.4,0,.1-.2.4,0,.4,0,0-.1.1-.1,0,0-.2.2-.3.2-.6,0,0,0-.2,0-.2-.2,0-.2.2-.4.2h0Z"></path><path d="M27.1,15.9c.1,0,.2-.1.2-.3,0,0,0-.2,0-.2-.2,0-.2.2-.4.2h0s-.1,0-.2.1c-.1.2,0,.3.3.1h0Z"></path><path d="M27.3,15.5c0,0-.2,0,0,0s0,0,0,0Z"></path><path d="M27.8,16.5c-.2,0-.5,0-.6,0-.1,0-.2.3-.1.3.1-.1.2-.2.2,0,0,.2,0,0,.2,0,0,0,.1,0,.2,0h0ZM27,17s.2,0,.3,0c0,0-.2-.2-.2-.2,0,0,0,.2-.1.2h0ZM27.7,17h0c-.3-.2-.3-.3-.3,0,.1,0,0,0,.3,0Z"></path><path d="M27.8,16.5c-.3,0-.6.1-.6-.2,0,0,.4,0,.5-.3.2-.3-.1.2-.5.1-.2,0,0-.2.1-.4.1-.2-.1-.1.2-.4,0,0,0-.2,0-.1,0,0,0,0-.1,0,0,0,0,0-.1,0-.1,0-.6.4-.6.6,0,.2.1.3.1.3,0,.8,0,.8.9.7v-.5h.1Z"></path></g><path d="M28.2,17.2s-.1.1-.3,0c-.4-.2-.5-.6,0-.9,0,0,0-.1.2-.2,0,0,0,0,0-.2,0,0,.4-.2.5-.9,0,0,.1,0,0,.4,0,0,.2-.1.2-.6,0,0,.2.1,0,.5,0,0,0,0,.1,0,0,0,.1-.3.1-.6,0,0,.1,0,.1.4,0,0,.2-.2.2-.4,0,0,.1.1.2.4,0,0,0,0,.1,0,0,0,0,0,0,0,.3,0,.7.3.9.1,0,0,0,0,0,.2,0,0,.3.2.4.6,0,0,.2-.3-.1-.6-.3-.3-.5-.3-.7-.3-.1,0-.3,0-.3-.3s0-.5.6-.5c0,0,0-.3.6-.3.7,0,1.6.2,2.5.8.2.1.2.1.4.1.2,0,.2,0,.2,0,0,0-.2.2-.1.2,0,0,.4.2.7.5.3.3.6.8.7.9.3.4.5,1.3.9,1.5.1,0,.1.2-.1.2,0,0,.1.3.2.8,0,.5-.1.8-.1,1,0,.3-.1,1.7-.2,1.8,0,.2,0,.2,0,.3s-.1.1-.1,0c0-.1,0-.2,0-.3.1-.6,0-.7,0-1.3,0-.2,0-.9,0-1,0-.2-.2-.3-.2-.4,0,.5.1,2.3,0,2.7,0,.1,0,0-.1,0,0-.1,0-.6,0-.8,0-.1-.1-.2-.2-.4,0-.3,0-1.1-.3-1.4.3,2.6,0,2.6,0,2.3,0-1.1-.1-.5-.3-1.4,0-.4,0-.7-.3-.9,0,.8.1.4.2,1.1.1.7,0,.5-.2-.1-.1-.3-.2-.9-.5-1,0,0,.4,1.1.3,1.1,0,0,.1.2,0,.2,0,0-.1,0-.1-.1,0,0-.2-.3-.2-.4-.2-.4,0-.5-.5-.8,0,0-.2,0-.2,0,.2.2.2.7.4.9.1.1,0,.2-.2,0-.2-.3-.4-.7-.7-.8-.2,0-.3-.2-.3-.3,0,0,0,0,0,0,0,0,0,.1-.1.3,0,0,.3.3.3.9,0,0,2.6,2,2.7,2,.1,0-.4.4-.7.3,0,0-.4.3-.7.1,0,0-.2.3-.6,0,0,0-.2.3-.4,0-.2-.3-.5-.6-.5-.6,0,.3,0,.6-.2.3,0,0,0,.3,0,.3,0,0-.3-.3-.3-.3.1.6,0,.6-.3,0,0,.5-.3,0-.5-.4,0,0,0,0-.5-.6,0,0,0,.5-.1.6-.1,0-.2-.2-.2-.2-.4.2-1,.3-.8,0,0,0-.6-.1-.7-.2,0,0,0-.1.4-.1,0,0,0,0,0,0,0,0,.1.1.3,0,0,0-.2-.1-.3-.2,0,0,0-.3.4-.3,0,0-.2-.1-.3-.2,0,0-.1-.2,0-.2,0,0,.1,0,.2,0,0,0,.1,0,.2.1,0,0-.5-.5-.4-.9,0,0-.1-.2-.1-.2h-.2c0-.9-.5-.7,0-1.5,0,0,0,0,0,0,0,0-.1,0-.1,0,0,0,.2-.4.4-.6,0,0,0,0-.1,0,0,0,.1-.1.2-.4,0,0,0,0,0,0,0,0,0-.2-.1-.2,0,0,0,0,0,0,0,0,0,0,0,0,0,0,0,0-.2.2-.2,0-.3.1-.5.2-.2,0-.5,0-.5.4h0Z"></path><path d="M29.7,15.1s0,0,.1,0c0,0,0,0,0,0,.3,0,.7.3.9.1,0,0,0,0,0,.2,0,0,0,.2-.3.2,0,0,.1,0,0,.2,0,0,0,0-.3,0,.2.3.1.4-.2.3,0,0,0,0,0,.2,0,0,0,0,0,0,0,0-.2,0-.2-.1,0-.2-.2-.2-.2-.2,0,0,0,0,0-.2,0-.1-.3,0-.3,0,.5-.4.5-.8.5-.8h0Z"></path><path d="M29.7,15.1s0,0,.1,0c0,0,0,0,0,0,.3,0,.7.3.9.1,0,0,0,.2-.3.1-.2,0-.4-.2-.7-.2,0,0,0,0,0,0h0ZM30.7,15.5c-.2.2-.2,0-.5,0,0,0-.3-.1-.3-.1h0s-.1,0-.1,0c0,0,0,0,0,0,.1,0,.1,0,.2,0,.2,0,.6.2.7.2ZM30.6,15.8s0,0-.3,0c-.2-.2-.3-.3-.7-.3h0s0,0,0,0c.3,0,.8.1.9.3h0ZM30.4,16.1c0,0-.3,0-.3,0,0-.2-.2-.3-.2-.3-.2-.1.6.1.6.3h0ZM29.8,16.3c0-.1,0-.2-.2-.2,0,0,.2-.2.1-.3.2.2.3.3.2.5,0,0-.1.1-.2,0h0Z"></path><path d="M28.2,17.2s-.1.1-.3,0c-.4-.2-.5-.6,0-.9,0,0,0-.1.2-.2,0,0,0,0,0-.2,0,0,.4-.2.5-.9,0,0,.1,0,0,.4,0,0,.2-.1.2-.6,0,0,.2.1,0,.5,0,0,0,0,.1,0,0,0,.1-.3.1-.6,0,0,.1,0,.1.4,0,0,.2-.2.2-.4,0,0,.1.1.2.4,0,0,0,.4-.5.8.3-.1.4,0,.3.2,0,0,.2,0,.2.2,0,.2.1.1.2.1,0,0,0,0,0-.3,0,0,0,0,.2,0,0,0,0,.3,0,.5,0,0,0-.3-.1-.3,0,0-.1,0-.1.2,0,.1-.3.3-.3.3,0,0,.2-.2.2-.3,0,0,0-.1,0,0,0,0-.1.1-.2.1,0,0,0,0,0,0,0,0,0-.2-.1-.2,0,0,0,0,0,0,0,0,0,0,0,0,0,0,0,0-.2.2-.2,0-.3.1-.5.2-.2,0-.5,0-.5.4h0Z"></path><path d="M32.6,22.4c0,.2-.4-.6-.5-.7,0,0,0,0,0-.1,0,0,.1,0,.1,0,.2.5,0,.3.3.9h0ZM32.3,22.5c0,0,0,0,0,0,0,0-.4-.4-.4-.4,0,.2-.1.2-.1.1,0,0-.2-.6-.2-.6,0,0,.1-.2.1-.2.3,0,.4.8.4.3,0-.2.2.4.3.6h0Z"></path><path d="M31.9,18.1c0,0,.1.2.2.3,0,.2.5-.2.5-.3,0-.2,0,0,.2,0,.2,0,.2-.2.2-.4,0,0,0,0,0,0,.1,0,.2-.1.3-.2.1-.2-.4-.6-.4-.5-.2.4,0,.1,0,.5,0,0,0,.2,0,.1,0-.1-.2-.2-.2-.1,0,0-.2.2,0,.3.2,0,0,.4,0,.4-.2-.2-.1-.3-.4,0,0,0,0,0,0,0,.2.2,0,0-.1.1,0,0-.1,0-.1,0h0Z"></path><path d="M32.9,16.6c0,0-.2.2,0,.3.1.1.1.4,0,.4,0,0,0,0,0,0,.2-.2.1-.4,0-.7h0ZM32.6,17.2c0,0-.2.2,0,.3.1,0,.2.2,0,.4.1.1.3,0,.2-.4,0,0,0-.2-.1-.2h0ZM32.3,17.6s-.2.2-.2.2c0,0,0,0,0,0,.2.2,0,0-.1.1,0,0-.1,0-.1,0,.3.3.6-.1.4-.4,0,0,0,0,0,0h0Z"></path><path d="M32,18.3c.1.2.5-.1.5-.3,0,0,0-.1,0,0,.2,0,.4,0,.3-.5,0-.1,0,0,.1,0,.4-.3.2-.4,0-.6,0,.1,0,.2.1.3,0,0,0,.1,0,.2-.1.1-.2,0-.3,0,0,0-.1-.2-.2-.2,0,.3.3.3.2.6,0,0-.1.2-.2.2,0,0-.2-.2-.3-.3,0,0,0,0,0,0,0,.2.2.1.2.3,0,.2-.3.3-.5.3h0Z"></path><g><path d="M33.3,14.4c-.5-.2-1-.4-1.4-.4-.3,0-.5,0-.7,0-.5,0-.6.5-.2.7.8.3,1.2.7,1.2,1.9,0,.4-.3.7-.7.8h0c0,.2.3.8.4.7,0,0,.2-.2.1-.2,0,0-.2-.1-.2-.2,0-.1,0,.1.2.1.1,0,.5-.3.3-.3-.2,0-.2-.3-.2-.2.2.3.3,0,.5-.2,0,0,0,0,0,0-.2,0-.3-.3-.2-.2,0,.2.3.1.4,0,0,0,0-.2,0-.3,0-.2-.3,0-.4-.2,0,0,0,0,0,0,.2.2.6,0,.2-.4,0-.1,0,0-.1,0,0,0-.2,0-.3,0,0-.1,0,0,0,0,.2,0,.4-.1.2-.3,0-.1,0-.3-.1-.2-.2.1-.4-.2-.3,0,0,0,.2,0,.2,0,.1-.2-.3-.5-.4-.6.3.2.6.5.6.5.3.1.2-.2,0-.4.2.1.2.4.2.4.2.1.5.1.3-.1,0-.2-.1-.2-.1-.2,0,.1.2.3.1.4,0,0,0,0,0,0,.2,0,.4.3.4,0,0,0,0-.2,0-.3,0,0,0,.2,0,.3,0,.1,0,.1,0,.1,0,0,.2,0,.3,0,0,0,.4-.2.4-.2,0,0,0,0,0,0,0,0,0-.1.1-.2,0,0-.3,0-.4,0,0,0-.7-.4-.8-.5h0Z"></path><path d="M32.2,14.7c0,0-.3-.3-.4-.3,0,0,0,0,0,0h0s-.1,0,0,0c0,0,.2,0,.3,0,.3,0,.4.3.4.5.2,0,0-.3,0-.4,0,0,0,0,0,0h0c-.2-.2-.5-.4-.8-.4-.3,0-.7,0-.8,0,0,.1,0,.3.2.4.2,0,.4,0,.5,0,.2,0,.4,0,.5.2h0ZM33,14.6c-.1-.2-.6-.5-.4-.3.2.2.4.2.4.7.2,0,0-.2,0-.4ZM33.5,15.3c.3,0,0-.8-.2-.7,0,0,.2.3.2.7h0ZM33.6,15.2c0,0,0,0,0,0,.2.1.4-.1.7-.2,0-.2,0-.3-.1-.2-.2,0-.4.3-.5.3h0Z"></path></g><g><path d="M31.2,15.9s.2-.3-.1-.6c-.3-.3-.5-.3-.7-.3-.1,0-.3,0-.3-.3s0-.5.6-.5c0,0,0,0,0,0,0,.2,0,.4.2.5,0,0,.5.3.9.6.2.1.3,1,.3,1.2,0,.4-.3.6-.6.8,0-.6-.3-1.3-.3-1.3h0Z"></path><path d="M31.9,15.3c.4.7.4,1.7-.4,1.9,0,0,0,0,0-.1.2,0,.3-.2.4-.4.3-.7-.4-1.7,0-1.4h0Z"></path><path d="M31.5,17c.4-.2.3-.3,0-.5.1,0,.3.2.3.1,0,0,0-.2,0-.2,0-.2-.2-.3-.4-.4,0,0,.3,0,.3,0,0,0,0,0,0,0,0-.4-.3-.6-.4-.5.1,0,.3,0,.3,0,0,0,0-.2,0-.3,0,0,0-.2-.2-.2-.2,0-.3,0-.2,0,0,0,.3,0,.2,0-.2-.2-.3-.3-.6-.3,0,0-.2,0-.2,0,0,0,0,0,0,0,.3,0-.3-.2-.5,0,0,0-.1,0-.1,0,.1-.2.6,0,.4-.2,0,0-.4,0-.2,0,.3,0,.3.2.2-.2-.5,0-.7.2-.6.6,0,0,0,.1.2.1.4,0,.6.2.8.5,0,.1,0,.3,0,.4,0,0,0,.1,0,.2,0,.1.3.6.3,1.1h0Z"></path><path d="M31.8,15.8c0-.2-.2-.3-.4-.2h0c.1,0,.3.1.4.2h0Z"></path><path d="M31.9,16.3c0-.1-.2-.3-.4-.3.1,0,.3.2.4.3h0Z"></path><path d="M31.7,15.3c0-.2-.2-.2-.4-.2,0,0,0,0,0,0h0c.2,0,.3.1.4.2h0ZM31.5,15c-.2-.2-.2-.2-.5-.2-.2,0,.1,0,.5.2h0ZM30.3,14.7c.1-.2.6,0,.4-.2,0,0-.4,0-.2,0,.2,0,.3.2.2-.2h0c-.8,0-.5.5-.5.5Z"></path></g><path d="M33,16.7c.3.5.8,0,.4-.3.3,0,.5-.2,0-.7,0,0,.2,0,.3,0,0-.1,0-.3,0-.3,0,0,0,0-.7-.2-.9-.4,0,0,.3.5,0,0,0,0,0,0-.2-.2-.8-.4-.6-.3,0,0,.1,0,0,0,0,0-.1.1,0,.2,0,0,.3.3.4.3,0,0,0,.2-.2,0-.1,0-.2,0,0,0,0,0,.1.1,0,.2,0,0,0,0,0,.1,0,0,.3.3.2.3,0,0,0,0,0,.1h0Z"></path><path d="M33,16.8c.2.4.8-.2.3-.4.3,0,.5-.2,0-.7,0,0,.2,0,.3,0,0-.1,0-.3,0-.3-.1,0,0,.2-.1.2,0,0-.2,0-.3,0,0,0,0,0,0,0-.2-.1-.3-.1-.3,0-.1.2.2.2.3.4,0,0,0,.2-.1.2-.2,0,0,0,.1.3.1.3,0,.3-.3.4h0Z"></path><path d="M33.1,16.8c.2.3.7-.2.3-.5,0,0,.1.1,0,.3,0,.2-.2.2-.4.2h0ZM33.5,16.3c.3-.1,0-.4-.1-.6,0,0,.2,0,.3,0,0-.1,0-.3,0-.3,0,0,0,.1,0,.2-.2.3-.9-.4-.2.3,0,.1.2.2.1.3,0,.1-.4,0-.3,0,.2,0,.2,0,.2,0Z"></path><path d="M34.8,16.2c.5.5.7.8,1,1.2,0,.1.1.4.1.4,0,0,.2.5,0,.4-.1,0-.4-.3-.5-.3,0,0-.2-.9-.8-1.6-.2-.2,0-.1,0,0h0Z"></path><path d="M34.1,15.3c.2-.2.2-.4.8.3.5.5.6.6.9,1.2.1.3.5,1.2.7,1.3,0,0,0,0,0,0,0,0-.4,0-.6,0-.2,0-.2-.1-.2-.2,0-.1,0-.3,0-.4,0-.1-.3-.5-.3-.6,0,0,0,0,0,0,0,0,0,0,0,0-.2,0-.3-.4-.4-.5,0,0,0,0,0,0,.2,0,0,0-.1,0-.2-.2-.2-.3-.5-.5,0,0,0,0,0,0,0,0,0,0,.1,0,0,0,0,0,0,0-.2,0-.3,0-.5-.2,0,0,0,0,0,0h0Z"></path><path d="M34.1,15.3s.1-.1.2-.1c0,0,.2.2,0,.3-.1,0-.2,0-.3,0,0,0,0,0,0,0h0ZM35.7,17.4s0,0,0,0c0,0,0,0,.1,0,0,0,0,0,0,0h0ZM35.6,17.1c0,0-.1-.2-.1-.2,0,0,0,0,0,0,0,0,0,0,0,0h0s0,0,0,0c0,0,.1,0,.1,0,0,0,0,.1-.2.1h0ZM35.2,16.5c0,0-.2-.2,0-.2,0,0,0,0,0,0,0,0,0,0,0,0,0,0,.1,0,0,.2h0ZM34.9,16c-.1-.1-.2-.2-.4-.3,0,0,0,0,0,0,0,0,0,0,.1,0,0,0,0,0,0,0h0s.1,0,.2,0c0,0,0,.3,0,.3h0Z"></path><path d="M36.4,18.2c-.1,0-.3,0-.4,0,0,0,0,0,0,0h0s0,0,0,0c-.5-.3-.2-.2.2,0,.1,0,.2.1.3.2h0Z"></path><path d="M36.2,18.3s-.2,0-.4-.2c-.2-.2-.3-.3-.3-.3,0,.2,0,.7.1,1,.2.3.4.5.5.7,0,.9,0,2.2.2.7,0-.5,0-1.1-.1-1.4,0,0,0,.1.2.2,0,0,0,0-.1,0,.2.6.1.7.1,1.3,0,1.4,0,1.3,0,.6,0-.7.3-1.3.2-1.7,0-.1-.1-.6-.1-.7,0,0-.1-.1-.3-.1h0Z"></path><path d="M35.5,17.8c-.1.3,0,.8.4,1.3.3-.2-.3-1.1-.4-1.3h0ZM36.1,18.8h0c0,0,.1.2.2.2,0,0,0,0-.1,0,.1.5.1.7.1,1.2.2-.3.2-1.2.1-1.4,0,0,0-.1-.2-.2,0,0-.2-.1-.3-.1,0,0,0,0,0,0,0,0,.2.2.2.2,0,0,0,0,0,0-.1,0-.3-.2,0,.2h0Z"></path><path d="M36.2,18.5h0s0,0,0,0c0,0-.2,0-.2,0,0,0,0-.1,0-.1,0,0,.1,0,.1,0,0,0,0,0,0,0h0ZM36.2,19s0,0,0,0c0,0,.1,0,.1,0,0,0,0,0,0,0,0,0,0,0,0,0Z"></path><path d="M35.4,18c0,.5.1.8.4,1.1,0,0,0-.8-.4-1.1h0Z"></path><path d="M35.4,18.3c0,.3.1.4.3.7,0-.2-.1-.5-.3-.7h0Z"></path><g><path d="M34.8,17.6c.1.2.2.3.3.4.2.2.3,0,.3.3.1,1,.6.7.4,2.6,0,.1,0,0,0-.1-.3-.6,0-.7-.3-1.2,0-.1,0-.2-.2-.3-.3-.3-.5-.6-.5-1,0-.1,0-.5,0-.5h0Z"></path><path d="M35.1,18.9c-.2-.2-.3-.4-.3-.8h0c0,0,0,0,0,0,.2.1.3.1.2.9h0Z"></path><path d="M35,18.8c0-.1-.2-.3-.2-.7.2.2.2.4.2.7h0Z"></path><path d="M35.7,20.7c-.3-.7,0-.6-.3-1.2,0-.3-.2-.3-.4-.5,0-.2.1-.7,0-.8,0,0,0-.1,0,0,0,0,.2.1.2.3.3,1,.6,1.4.4,2.4h0Z"></path></g><g><path d="M34.3,17.8c0,.1.1.2.2.2,0,0,.1,0,.2,0,0,0,0,.3,0,.4,0,.3.4.5.4.7.1,1,.3,2,0,1.1-.1-.4,0-1-.3-1.2-.2-.2-.3-.1-.5-.5-.1-.3-.2-.7,0-.8h0Z"></path><path d="M35.2,20.5c-.2-.5-.2-1-.2-1.1,0-.1-.1-.2-.1-.2-.2-.2-.3-.1-.5-.5,0-.2-.1-.5-.1-.6,0,0,0,0,0,0,.4.6,0,0,.4.7,0,.2.4.6.4.6,0,.2.2.9,0,1.1h0Z"></path><path d="M34.7,19.1c-.3-.2-.5-.6-.5-.9.3.3.4.6.5.9h0Z"></path><path d="M34.6,19c-.3-.3-.6-1.2,0,0h0Z"></path></g><g><path d="M33.8,17.9c0,0,0,.2.2.3.1,0,.2,0,.2.1,0,.1,0,.3.3.7.4.6.1.3.3.9,0,.2,0,.3,0,0,0-.2-.2-.6-.4-.8-.2-.1-.4-.1-.6-.5,0,0-.1-.3,0-.3,0,0,0-.3,0-.3,0,0,0-.1,0-.1h0Z"></path><path d="M34.8,20.1s-.1-.5-.2-.5c-.3-.6-.5-.3-.8-.8-.1-.2,0-.3,0-.5.3.2.4.5.6.7.2.2.4.4.4,1.1h0Z"></path><path d="M34.2,19.1c-.3-.1-.6-.4-.6-.7,0,0,.5.5.6.7h0Z"></path><path d="M34,19c-.3-.3-.3-.3-.3-.5,0,0,.3.4.3.5h0Z"></path></g><g><path d="M33.2,18.2c.5.2.2.1.3.3.3.4.7.8.7.8.2.5.3,1,.1.7-.3-.5,0-.4-.4-.8-.3-.2-.1,0-.4-.2,0,0-.4-.4-.4-.4,0,0,0-.4,0-.4h0Z"></path><path d="M34.4,20.1c-.3-.5,0-.5-.5-.9-.3-.2-.1,0-.4-.2,0,0-.4-.4-.4-.5.3,0,.9.6,1,.8,0,.1.2.5.2.8h0Z"></path><path d="M33.7,19.1c-.2,0-.1,0-.5-.4.3,0,.4,0,.5.4h0Z"></path><path d="M33.6,19.1c0,0-.3-.2-.3-.3.2,0,.3.1.3.3h0Z"></path></g><g><path d="M33.9,17.6h0s-.6-.6-.6-.6c0,0,0,0,0,0,0,0,0,0,0,0,0,.2.7.8.6.7-.2,0-.1,0-.1,0,0,0,0,0,0,0h0ZM33.5,16.8s0,0,0,0c0,0,.3.2.4.3.1,0,.5.5.6.6,0,0,0,.1,0,.1,0,0,0,0-.1-.1,0,0,0,0,0,0,0,0,0,0-.1-.1,0,0-.3-.3-.4-.4-.1,0-.3-.3-.3-.3h0ZM33.7,16.2h0c.1-.2,1.2,1.1,1.3,1.3-.6-.9-1.3-1.5-1.3-1.5,0,0,0-.3,0-.3h0s.7.7.7.7c.2.2.9,1.3.6,1.3-.1,0-.3-.1-.4-.2-.2-.4-.5-.9-1-1.2,0,0,0,0,0,0h0ZM33.8,17.9c-.6-.7-.4-.7-.3-.6,0,0,.5.5.5.5h0c0,0-.3-.2-.4-.1,0,0,0,.2,0,.3,0,0,0,0,0,0h0Z"></path><path d="M34,15.6c0,0,.5.4.7.6.3.3,1.1,1.6.8,1.7-.1,0-.5-.2-.5-.2,0,0,0,0,0,0,0,0,0,.3,0,.3,0,0-.3,0-.3-.1q0,0,0,0s0,.2,0,.2c-.2,0-.2,0-.3,0,0,0-.1,0-.2,0,0,0,0,0,0,0,0,0,0,.2,0,.3,0,0-.3,0-.4,0-.1,0-.2-.4-.3-.5,0-.2.4.2.5.3,0,0,0,0,0,0,0,0-.5-.6-.6-.6,0,0,0,0,0,0,.3,0,0-.3.3,0,0,0,.3.4.3.4,0,0,0,0,0,0,0,0-.1-.2,0-.3,0,0,.3.2.4.2,0,0,0,0,0,0,0,0,0,0-.1-.1,0,0,0-.1-.1-.1,0,0,0,0,.1,0-.1-.1-.6-.5-.6-.7,0,0,0,0,0,0,0,0,.2.2.3.3.1,0,.3.3.4.4,0,0,.1.1.1.1,0,0,0,0,0,0,0,0,.1.1.1.1,0,0,0,0,0-.1,0,0,.1.1.2.2,0,0,0,0,0,0,0,0-.2-.2-.2-.3,0,0,0,0,.1,0,0,0,.1,0,.1,0,0,0,0,0-.1,0,0,0-.1,0-.2,0,0,0-.2-.2-.2-.3,0,0-.2-.2-.1-.2,0,0,.2,0,.2,0,0,0,0,0,0,0,0,0,0,0-.1,0,0,0-.1,0-.2,0-.3-.2-.3-.3-.5-.4,0,0,0,0,.2-.1,0,0,0,0,0-.1,0,0,0,0,0,0,.5.3.8.8,1,1.2,0,.1.3.2.4.2.3,0-.4-1.1-.6-1.3,0,0-.7-.7-.7-.7,0,0,0,0,.1,0h0Z"></path><path d="M33.8,18s0,0,.1,0c.1,0,.2,0,.3,0,0,0,0,0,0,0,0,0,0,0,0,0,0,0,0,0-.1-.1,0,0,0-.1-.1-.1,0,0,0,0,.1,0,0,0,0,0,0,0,0,0,0,0,0,.1,0,0,0,.1.1.2,0,0,0,0,0,0,0,0,0-.2,0-.3,0,0,0,0,0,0,0,0,.1.1.1.1,0,0,.2.2.2.2,0,0,.1,0,.1,0,0,0,0-.1,0-.1,0,0,0,.3,0,.3,0,0-.3,0-.3-.1q0,0,0,0s0,.2,0,.2c-.2,0-.2,0-.3,0,0,0-.1,0-.2,0,0,0,0,0,0,0h0ZM34.8,17.7h0s0,0,0,0c.2,0,.5.3.5.1,0-.5-.2-1,0-.5,0,.1.2.6,0,.7-.1,0-.5-.2-.5-.2,0,0,0,0,0,0h0ZM33.8,18c0,.3,0,.4-.1.4-.3,0-.3-.1-.2-.1.2,0,.3,0,.2,0h0s0,0,0,0c0,0-.1-.1-.2-.3,0,0,0,0,0,0,0,0,.1,0,.2,0,0,0-.1-.2-.2-.3,0,0,0,0,0,0,0,0,.3.4.3.4,0,0,0,0,0,0,0,0,0,0,0,.2h0Z"></path></g><g><path d="M33,17.9c.2.3.4.5.1.8,0,0,0,0,0,0,.3.4.5.4.6.9,0,0,0,.2,0,.3,0,0,0,.1,0,.1-.1-.2-.5-.7-.7-.8-.1,0-.2,0-.4-.3,0,0,0-.1-.2,0,0,0,0,.3-.3.3,0,0,0,.1,0,.1,0,0,0-.2,0-.3,0,0-.1-.4-.1-.5,0-.1.2-.1.3.3,0,0,0-.2-.1-.3-.1-.1,0,0,0-.1.1,0,.1-.2.2,0,0,.2.2.3,0,.1-.2-.6,0-.3.4.1,0,0,0,0,0,0,0,0-.4-.4-.4-.5,0,0,0,0,0,0,.2,0,.2-.3.3-.1h0Z"></path><path d="M32.7,18.8s0,.3-.3.3c-.1-.5,0-.2.1-.3.2-.1,0-.4,0-.6,0,0,.2.1.2.6h0Z"></path><path d="M32.7,18.8s0,.3-.3.3c0-.3,0,0,.2-.2.3-.2,0-.8.1-.5,0,0,0,.3,0,.3h0Z"></path><path d="M33,17.9c.2.3.4.5.1.8,0,0-.1,0-.2,0-.2,0,0,0,.1-.1,0,0,0,0,0,0,0,0-.2-.2-.2-.2,0-.2.2,0,.2-.1,0-.2-.2-.5,0-.3h0Z"></path><path d="M33.1,18.7s.3.3.3.4c.3.2.4.9.4.9,0,0,0,0-.1-.2,0-.1,0-.3,0-.4-.2-.3-.8-.7-.5-.7h0Z"></path></g><g><path d="M32.9,20.6c.6.6,1,1,1.7,1.5.1,0,.3.2.5.1.2-.1.2-.2.2-.2l-2.5-1.9c0,.1,0,.4,0,.5h0Z"></path><path d="M33,20.5c.1,0,.5.5.6.5,0,0,.4,0,.3,0,0,0-.1,0-.1,0,.3.3.4.3.6.3,0,0,.1,0,0,0,0,0-.2,0,0,0,.3.3.2.2.6.2,0,0,.1,0,0,0-.5,0,0,0,.2.3.1.1-.3-.1-.4-.2,0,0,0,0,0,0,0,0,0,.1,0,0,0,0,0-.2,0-.2,0-.1-.4-.4-.4-.2,0,0,0,.1,0,.1,0,0,0-.2,0-.2,0,0-.3-.3-.3-.3,0,0,0,0,0,.1,0,.1,0-.1,0-.2-.1-.2-.9-.8-.6-.6h0Z"></path></g><g><path d="M32.9,20.7c.4.4,1.4,1.2,1.9,1.6-.3.5-1.5-.8-1.9-1.3,0,0,0,0,0-.3h0Z"></path><path d="M32.9,20.7c.4.4,1.4,1.2,1.9,1.6,0,0,0,0,0,0-.3-.2-1.8-1.3-1.8-1.6h0Z"></path><path d="M32.8,21.1s0,0-.1,0c0,.2,0,.2.1.4,0,0,.7.6.8.8.1.1.4.4.6.2,0,0-1-.9-1.3-1.3h0Z"></path><path d="M32.8,21.1s0,0-.1,0c0,.2,1,1.3,1.4,1.4,0,0,0,0,0,0,0,0-1-.9-1.3-1.3h0Z"></path><path d="M32.8,21.5c0,0,.8.8.8.8,0,0,0,.1-.1,0-.2,0-.5-.6-.7-.7,0,0,0,0,0-.2h0Z"></path><path d="M32.6,21.3c.2.6,0,1,0,.3,0-.1,0-.4,0-.3h0Z"></path><path d="M32.4,21.5c.2.4.2.9,0,.5,0-.2-.2-.7,0-.5h0Z"></path></g><g><path d="M32.5,19.1c.5.8.3,2.5.1,1.8,0,0,0,.2,0,.3,0,0-.2,0-.2-.1,0,.4-.2.4-.3.2,0,0,0,.3,0,.3,0,0-.3,0-.3-.2,0,0,0,.3,0,.3,0,0-.3-.2-.3-.2.1.4,0,.4-.1,0,0-.3-.3-.6-.6-1,0,0-.1-.1-.1-.1,0,0,0,0,.2,0,0,.2.5.7.8.8,0,0-.4-.5-.4-.7,0,0,.1-.1,0-.4,0,0,0,0,0,0,.2.5.6.9.5.9.1-.4,0-.4-.1-.8,0,0,0,0,0-.1.2.1.3.4.4.6,0-.4-.1-.6-.3-.9,0,0,.1,0,.2,0,0,0,0,0,0,0,0,0,.2.3.2.5,0,0-.1-.7-.2-.9,0,0,0,0,.2,0,0,0,.2.5.2.6,0-.4-.2-1-.2-1,0,0,0,0,.2.1,0,0,0-.2,0-.3h0Z"></path><path d="M32.5,19.1c.4.7.4,2.1.2,1.9.3,0,0-1.2-.1-1.5,0-.1,0-.1,0,0,0,.1.4,1.4.2,1.4,0,0-.1-.3-.1-.5,0,0,0-.2,0-.2,0-.4-.2-1-.2-1,0,0,0,0,.2.1,0,0,0-.2,0-.3h0ZM32.1,21.3s0,.1,0,.2c0,0,0,0,0,0-.1.1-.3-.4-.2-.3,0-.2,0-.4.3.1h0ZM31.2,20.5c0,0,0-.2,0-.3,0,0,0,0,0,0,.1.3.3.5.4.8,0,.1-.1.2-.3-.1,0,0-.2-.3-.2-.4h0ZM31.7,20.3s0,0,0,0c.2.1.3.4.4.6,0,0,0-.2,0-.4h0c0,.1.2.6.2.7,0,.2-.4-.7-.5-.9h0ZM32,20.4c0-.1-.2-.3-.2-.4,0,0,.1,0,.2,0,0,0,0,0,0,0,.1.3.3.6.3.9,0,.1,0,.1,0,0,0-.2-.1-.4-.3-.5h0ZM32.3,20.5s-.1-.7-.2-.9c0,0,0,0,.2,0,0,0,0,0,0,.2.1.6.3,1.2,0,.6-.1-.3.3.8,0,.6,0,0,0-.2,0-.3,0-.1,0-.2,0-.2h0Z"></path></g><g><path d="M31.8,18.2c0,0,.4.9.4.9,0,.1,0,.4,0,.5,0,0,0,0-.3,0,0,0,0,.5,0,.6,0,0-.3,0-.4-.2,0,0,0,.5,0,.5,0,0-.2,0-.5-.2,0,0,0,.4,0,.5-.1,0-.3,0-.4-.1,0,0,0,0-.2,0-.2,0-.1,0-.1,0,0,0,0,.1,0,.2,0,0-.6-.4-.7-.8,0,0-.2-.3-.2-.5,0-.2.2-.2.2-.2,0,0,.5.8.9,1.1-.7-.7-.6-1.1-.4-.9,0,0,0-.2,0-.3,0,0,.3.6.5.8,0,0,0-.2,0-.3,0,0,0,0,0,.1,0,0,.1.2.2.2,0,0,0,0,0,0,0,0-.2-.2-.2-.3,0,0,0-.1,0-.2,0,0,0,0,0,0,0,0,0,0,0,0,0,0,.2.2.3.3,0,0-.3-.4-.2-.5.1,0,.5.4.5.4,0,0,0-.2-.1-.3,0,0,0,0,0,0,0,0,0,0,0-.1,0,0,0,0,0,0,0,.2.3.5.2.2,0,0-.1-.3-.1-.4,0-.2-.1-.3,0-.2.3.1.5.7.5.4,0-.1-.2-.4-.2-.5,0,0,0-.1,0-.2,0,0,0-.1,0,0h0Z"></path><path d="M32.1,18.7c.2.3.3.4.2.8,0,0,0,0-.3,0,0,0,0,.5,0,.6,0,0-.3,0-.4-.2,0,0,0,.5,0,.5,0,0-.2,0-.5-.2,0,0,0,.4,0,.5-.1,0-.3,0-.4-.1-.9-1-.8-1.4-.6-1.1.2.3.5.9.5.6,0,0,0-.1,0,0,.2.3.3.5.3.1,0,0,0,0-.1-.1h0s0,0,0,0c0,0-.2-.2-.2-.3,0,0,0-.1,0-.2,0,0,0,0,0,0,0,0,0,0,0,0,.3.4.8,1.1.6.6-.1-.2-.2-.4,0-.2.2.1.3.2,0-.3,0,0,0-.2-.1-.3,0,0,0,0,0,0,0,0,0,0,0-.1,0,0,0,0,0,0,0,.3.7,1.3.3.4h0s0,0,0,0h0c0,0,.1,0,.2,0,.1,0-.1-.4-.2-.5-.1-.1-.2-.2,0-.1,0,0,.2.2.2.2.1,0,0,.2.1.3,0,.1.2.3.2.1,0-.1,0-.4,0-.5h0ZM30.8,20.5s0,0-.2,0c-.2,0-.1,0-.1,0,0,0,0,0,0,0h0c0,0-.5-.4-.7-.7,0,0-.2-.3-.2-.5,0-.2.1-.2.2-.2,0,.2.3.6.5.8.3.4.6.5.7.6h0Z"></path><path d="M29.5,19.3s0,0,0,.1c0,0,.1.2.3.4.1.1.3.4.4.5,0,0,.2.1.2.2,0,0,.1,0,.1,0,0,0,0,0,0,0-.2,0-.1,0-.1,0,0,0,0,0,0,0h0c0,0-.5-.4-.7-.7,0,0-.1-.2-.2-.4h0Z"></path><path d="M32,19.7c0,.2,0,.3,0,.4,0,0-.3,0-.4-.2,0,0,0,.5,0,.5,0,0-.2,0-.5-.2,0,0,0,.4,0,.5-.1,0-.3,0-.4-.1-1-1.1-.8-1.2-.1-.3,0,.1.1,0,0,0,0-.1,0-.2,0-.1,0,0,.2.5.3.5,0,0,0-.3,0-.3,0-.1-.1-.2-.2-.3h0s0,0,0,0c0,0-.2-.2-.2-.3,0,0,0-.1,0-.2.2.4.8.9.8.9,0,0-.1-.2-.1-.2h0s-.2-.4-.2-.4c0-.1.3.3.3.1h0s0,0,.1.1c.1,0-.2-.4-.3-.5,0,0,0-.2-.1-.3,0,0,0,0,0,0,0,0,0,0,.1,0,0,0,.5.7.5.7,0,0,0-.2,0-.2h0s-.1-.3-.2-.4h0s0,0,0,0h0c0,0,.2,0,.2,0h0c.2.2.1.2,0,.2-.1,0,0,.3.2.3h0ZM32.1,18.8c.1.3.3.4.2.8,0,0,0,0-.3,0,0,0,0,0,0,0,0,0,.1,0,.2,0,0,0,0-.6,0-.7h0Z"></path></g><g><path d="M29.2,17.9c-.5.7,0,.7,0,1.5,0,0,.2,0,.4-.3.4.5.5.6.6-.2,0,0,.3.4.4.4.1,0,.2-.3.2-.4,0,0,0-.2,0-.2,0,0,.2.1.3.2,0,0,.2,0,.2,0,0,0,0-.4,0-.5,0,0,.2.2.2.1,0,0,0-.4,0-.4.3.1,0-.4-.2-.5-.1,0,0,.6,0,.7,0,0,0-.1-.1-.3,0-.2,0-.3-.1-.3-.1,0,0,.4,0,.6,0,0-.1-.2-.2-.3,0-.2,0,.1,0,.3,0,0,0,0-.1-.1,0,0,0,0,0,.3,0,0,0,0-.1-.1,0,0,0,.3.1.5,0,.2,0,0,0,0-.2-.2-.2-.8-.2-1.1-.2,0-.4.3-.6.4,0,0-.1,0-.1,0,0,0,0-.2,0-.3,0,0,0,0-.2,0-.1,0-.3.2-.3.3,0,0-.1-.1,0-.2,0,0,0,0,0,0,0,0-.2,0-.2,0h0Z"></path><path d="M31.2,18.9s0,0,0,0c0,0,0-.4,0-.5.4.4.3-.2.2-.8-.2-.2.4.9,0,.9-.1,0-.2-.2-.2-.2,0-.2-.1-.6-.1-.5,0,0,0,.1,0,.1.1.3,0,.2,0,.3,0,0,0,.2,0,.6,0,.1,0,.1,0,.1h0Z"></path><path d="M29.2,17.9c-.5.7,0,.7,0,1.5,0,0,.2,0,.4-.3.4.5.5.6.6-.2,0,0,.3.4.4.4.1,0,.2-.3.2-.4,0,0,0-.2,0-.2,0,0,.2.1.3.2,0,0,.2,0,.2,0,0,0,0,0,0,0h0s0,0,0,0c0,0-.1-.2-.2-.4h0s-.1,0-.2,0c0,.1,0-.3,0-.5h0c0-.1,0-.2,0-.2-.1,0-.2.2-.4.3,0,0-.1,0-.1,0,0,0,0-.2,0-.3,0,0,0,0-.2,0-.1,0-.3.2-.3.3,0,0-.1-.1,0-.2,0,0,0,0,0,0,0,0-.2,0-.2,0h0Z"></path><path d="M29.2,17.9c-.5.7,0,.7,0,1.5,0,0,.2,0,.4-.3.4.5.5.6.6-.2,0,0,.3.4.4.4.1,0,.2-.3.2-.4,0,0,0-.2,0-.2,0,0,0-.2,0-.4,0-.6,0-.3,0-.6,0,0,0,0,0,.2,0,.1-.1.4,0,.5,0,0,0,0,0,0,0,0,0,0,0-.1,0,0,0,0,0,0,0,0,0,.2,0,.2,0,0,.1.1.1.2,0,0,0,0,0,0,0,0-.1,0-.1,0,0,0,0,0,0,0,0,0,0-.1,0-.2,0-.1,0-.1,0,0,0,0,0,.2,0,.1,0,0,0-.2,0-.2,0,0,.1-.1.1-.2,0,0,0-.1,0-.2,0,0,0,0,0,0,0,0-.1,0-.1,0,0,0,0,0,0,0,0,0-.1,0-.2,0,0,.1,0,.3,0,.4,0,0,0,0,0,0,0,0-.1.1-.1.2,0,.4,0-.3-.2,0,0,0,0,.2,0,.2,0,0,0-.2,0-.3,0-.1,0-.4,0-.3,0,0-.1.2-.1.2,0-.3.3-.3.2-.5h0c0,0-.2.1-.2,0-.1,0-.2,0-.2.3,0,0,0,.2,0,.3,0,.4,0,0,0,.4,0,0,0,0,0,0,0,0,0-.5,0-.5-.1,0,.1-.5,0-.3,0,0-.1.3,0,0,0,0,0-.1.2-.2,0,0,0-.1.1-.2,0,0-.1,0-.1,0h0Z"></path><path d="M29.6,19.1c.4.5.5.6.6-.2,0,0,.3.4.4.4,0,0,0,0,0,0,0,0,0-.2,0-.3,0,0,0-.2,0-.2h0s0,0,0,0c0,0,0-.1,0-.2,0-.1,0-.1,0,0,0,0,0,.2,0,.1,0,0,0-.2,0-.2,0,0,.1-.1.1-.2,0,0,0-.1,0-.2,0,0,0,0,0,0,0,0-.1,0-.1,0,0,0,0,0,0,0,0,0,0,0,0,0,0,.6,0,.9,0,.9,0,.1,0,.3-.1.3,0,0,0,0,0,0-.1-.3-.1-.7-.2-.4,0,0,0,.2,0,.2,0,0,0-.2,0-.3,0-.1,0-.4,0-.3,0,0-.1.2-.1.2,0-.3.3-.3.2-.5h0c0,0-.2.1-.2,0-.3.2-.2.7,0,1.1h0ZM30.6,18.5s0,0,0,0c0,0,0,0,0-.1,0,0,0,0,0,0,0,0,0,0,0,0,0,0,0,0,.1,0,0,0,0,0,0,0h0ZM30.6,18.8s0,0,0,0c0,0-.1,0-.1,0,0,0,0,0,0,0,0,0,.1,0,.2,0h0ZM29.3,19.1s0,0,0,0c0,0,0-.5,0-.5-.1,0,.1-.5,0-.3,0,0,0,.3,0,.4,0,.2,0,.4.1.4,0,0,0,.2,0,0h0ZM29.2,18.3c0-.1.2-.2.2-.4,0,0,0,0,0,0,0,.1,0,.2-.1.4h0Z"></path></g><g><path d="M29.1,15.3s0,0,0,0c0,0,0,0,0,0h0ZM29.1,15.3s0,0,0,0c0,0,0,0,0,0h0ZM29.1,15.3s0,0,0,0c0,0,0,0,0,0h0ZM29.1,15.3s0,0,0,0c0,0,0,0,0,0h0ZM29.1,15.3c0,0,.1-.3.1-.6,0,0,.1,0,.1.4,0,0,.2-.2.2-.4.4,1.2-1.7,1.6-.9.9.1-.1.4-.2.4-.3h0Z"></path><path d="M29.1,15.7c0,0-.4.3,0,0,0,0,0,0,0,0h0Z"></path><path d="M29.4,15.1s0,.2-.1.4c-.2.1-.5.3-.5.3,0,0,.7-.4.5-1.1,0,0,.1,0,.1.4h0Z"></path><path d="M29.2,15.3c0-.2.1-.4,0-.7,0,0,0,0,.1.1h0s0,.3-.1.5h0Z"></path><path d="M29.4,15.4s.2,0,.2-.3c0,0,0,.2-.2.3h0Z"></path></g><path d="M29.6,15.9s0,.2-.5.3c0,0,.2-.1.3-.2,0,0-.2,0-.4,0,0,0,.4-.1.6-.2Z"></path><path d="M29.6,16.6s0,0,0,0c0,0,0-.2-.1-.2,0,0,0,0,0,0,0,0,.2,0,.2,0,0,0,0,.2,0,.2,0,0,.1,0,.1-.3,0,0,0,0,.1,0,0,0,0,.2-.2.2h0Z"></path><path d="M29.3,16.3c.1-.2.3,0,.3,0,0,0,0,0,0,0,0,0,0,.1,0,.1,0,0,0-.2-.3,0h0Z"></path><path d="M29.3,16.3c0-.1.2-.1.2,0,0,0-.1,0-.2,0h0Z"></path><path d="M29.7,15.1s0,0,.1,0c0,0,0,0,0,0,0,0,0,0-.1,0,0,0,0,0,0,0h0ZM29.4,15.7c.2-.2,0,0,.4,0,.1,0,.3,0,.2,0-.2,0,.2,0,.3.2,0,0-.5-.2-.5-.2,0,0,.1.1.1.2,0,0,0,0,0,0-.1-.1-.1,0-.2,0,.2-.3.1-.3-.2-.3h0ZM29.6,15.5s0,0,0-.1h0s.3.1.4,0c0,0,0,0,0,0,0,0,0,0,.1,0,.2,0,.3.2.3.2-.2-.2-.6-.2-.9-.2h0ZM29.7,15.2s0,0,0,0c0,0,.1,0,.2,0,0,0,0,0,.1,0,0,0,0,0,0,0,0,0,0,0-.2,0,0,0-.1,0-.2,0h0Z"></path><g><path d="M30.8,15.4s.3.2.4.6c0,.2.3.4.3.4,0,.2-.3.1-.3.1,0,0,0,.2-.1.2-.2,0-.3-.2-.3-.2,0,0,0,.5-.2.5-.2,0-.3-.3-.3-.3,0,.2-.1.4-.2.4-.1,0-.2-.3-.2-.3,0,.4-.4.4-.4.4,0,0,0,0-.1,0,0,0,.1-.1.2-.4h0c0,0,.1,0,.2-.1,0,0,.1,0,0,0,0,0-.2.3-.2.3,0,0,.2-.2.3-.3,0-.1,0-.2.1-.2.1,0,.1.3.1.3.1-.2,0-.5,0-.5,0,0,.1,0,.1,0,0,0-.1-.3-.1-.3.2,0,.3,0,.3,0,0-.2,0-.2,0-.2.3,0,.3-.2.3-.2h0Z"></path><path d="M31.5,16.3s0,0,0,0c0,0,0,0,0,0,0,0-.3,0-.3,0h0c0-.1,0-.2,0-.3,0-.1,0-.1,0,0s0,.3,0,.4c0,.1-.1,0-.2,0,0,0-.1,0-.1-.2,0-.4,0-.1-.1-.4,0,0,0,0,0,0,0,0,.2.2.3.4,0,0,0-.3-.2-.5-.1-.2,0,0,.3.4,0,0,0-.3-.2-.4-.1-.2.1,0,.2.1,0,.1.2.4.3.4,0,0,.1,0,.2,0,0,0,0,0,0,0h0Z"></path><path d="M31.5,16.3s0,0,0,0c0,0,0,0,0,0,0,0-.3,0-.3,0h0c0-.1,0-.2,0-.3,0,0,0-.1,0-.1h0s-.1-.2-.2-.3h0s0,0,0,0c-.1-.2.1,0,.2.1,0,.1.2.4.3.4,0,0,.1,0,.2,0,0,0,0,0,0,0h0Z"></path><path d="M31.5,16.3c0,.2-.3.1-.3.1h0c.2,0,.3-.1.3-.1h0Z"></path><path d="M31.2,16.4s0,.2-.1.2c-.2,0-.3-.2-.3-.2,0,0,0,0,0-.1,0,0,0,0,0,0,0,0,0,.2,0,.3,0,.1,0,.2,0,0,0,0,0-.4,0-.4,0-.1,0,0-.1.1,0,0,0,.1,0,0,0,0,0,0,0-.1,0,0,0-.2,0-.2,0,0,0,0,0,0h0c0-.1-.1-.3-.1-.3.2,0,.3,0,.3,0,0,0,0,0,0,0h0s0,0,0,.1c0,.3.1,0,.1.4s0,.2.1.2c0,0,.2.1.2,0,0-.1,0-.3,0-.4s0,0,0,0c0,.1,0,.2,0,.2h0ZM29.4,17.1s0,0,0,0c0,0,.1-.1.2-.4h0s0,0,0,0c0,0,0,.2-.2.4h0ZM30,16.4s0,0,0,0c0,0,.1.3.1.3.1-.2,0-.5,0-.5,0,0,0,.2,0,.2,0,.2,0,.3-.1.5,0,.1,0,.1-.1,0,0,0,0-.2,0-.3,0,0,0,0,0,0,0,0,0,0,0,0,0,0,0-.2,0-.2h0Z"></path><path d="M30.5,15.8c0,.2,0,.3,0,.3,0-.2-.2-.3-.2-.3.3,0,.3,0,.3,0Z"></path><path d="M30.8,15.4s.3.2.4.6c0,.2.3.4.3.4,0,0,0,0,0,0,0,0,0,0,0,0,0,0-.1,0-.2,0,0,0-.2-.3-.3-.4,0-.1-.3-.3-.2-.1.1.2.2.4.2.4-.3-.5-.5-.5-.3-.4.1.2.2.5.2.5,0-.2-.3-.4-.3-.5h0c0-.1,0-.2,0-.2.3,0,.3-.2.3-.2h0Z"></path></g><path d="M29.2,17.7s-.1,0-.1,0c0,0,.2-.4.4-.6,0,0,.3,0,.4-.4,0,0,0,.4.2.3.1,0,.2-.2.2-.4,0,0,0,.3.3.3h0c.2,0,.3-.2.3-.2,0,.2,0,.6,0,.6,0,0,0-.2.2-.4,0-.2,0-.3,0-.4h0s0,0,0,0c0,0,0,0,0,0h0s0,0,0,0c0,0,0,0,0,0h0s0,0,0,0h0s0,0,0,0h0s0,0,0,0h0s0,0,0,0h0s0,0,0,0h0s0,0,0,0h0s0,0,0,0h0s0,0,0,0h0s0,0,0,0c.1,0,.1.3.2.4,0,0,.2.3.2.3.1.3-.1.5-.3,0,0-.2-.2.5-.4.5-.1,0-.2-.3-.2-.3-.2.3-.4.4-.5.4-.1,0-.1-.3-.1-.3,0,.1-.3.3-.4.3-.1,0,0-.3,0-.3-.1.1-.2,0-.2,0h0Z"></path><path d="M29.2,17.7s0,0,0,0c0-.1,0-.2.2-.4.1-.1.1-.2.2-.2,0,0-.1.5-.2.6,0,0-.2,0-.2,0h0Z"></path><path d="M30.1,17.1h0s0,0,0,0h0ZM30.2,17c0,0,.2-.2.2-.4,0,0,0,.3.2.3h0c0,.2-.2.3-.2.3,0,0-.2,0-.2,0,.3-.3.2-.4.2-.4,0,.1-.2.1-.2.1h0ZM30.8,17.4s0-.2.2-.4c0-.2,0-.3,0-.4,0,0,.3.6-.2,1.1,0,0,0-.2,0-.3,0,0,0,.1-.2.2,0,0,0-.1.1-.2h0ZM31.1,16.6s0,0,0,0c.1,0,.1.3.2.4,0,0,.2.3.2.3.1.4-.1.4-.3-.4,0-.2-.1-.3-.1-.3h0Z"></path><path d="M30.1,17.1s0,0,0,0h0s.1,0,.2-.1c0,0,0,.2-.2.4,0,0,.1,0,.2,0,0,0,0,.4-.2.7,0,0,.4-.2.4-1h0s0,0,0,0h0s0,.4,0,.6c-.2.3-.4.4-.5.4-.1,0-.1-.3-.1-.3,0,.1-.3.3-.4.3-.1,0,0-.3,0-.3,0,0,.1-.4.2-.5,0-.1.3-.3.3-.2,0,0,0,0,0,.2,0,0,0,.1,0,.2,0,0,0,0,0,0,0,0,.1-.1.2,0,0,0-.1.3-.1.3,0,0,0,0,.1-.2,0,0,0,0,0,0,0,0,0,0,0,.1,0,.1,0,.2,0,.2,0,0,.1-.4.1-.6h0Z"></path><path d="M31.2,17.2c0-.2,0-.4,0-.5,0,0,0-.2,0-.2,0,.1.1.5,0,.6h0Z"></path><g><path d="M28.3,16.1c.3.2.6-.2.3-.4h-.2c0,.1-.1.4-.1.4h0Z"></path><path d="M28.3,16.1c.3.2.5-.2.3-.4h-.2c0,.1-.1.4-.1.4h0Z"></path><path d="M28.5,16c-.1,0-.1-.2,0-.2s.1.2,0,.2Z"></path><path d="M28.5,16s0,0,0,0c0,0,.1,0,0,0Z"></path></g><g><path d="M28.1,16.1s0,0,0-.2c0,0,.4-.2.5-.9,0,0,.1,0,0,.4,0,0,.2-.1.2-.6,0,0,.2.1,0,.5,0,0,0,0,.1,0,0,0,0,0,0,0,0,.1-.3.2-.4.3-.1.1-.4.6-.4.6,0,0-.2,0-.2,0h0Z"></path><path d="M28.1,16.1s0,0,0-.2c0,0,.4-.2.5-.8h0c0,.4-.3.6-.5.9,0,0,0,.2,0,.2,0,0,0,0,0,0h0Z"></path><path d="M28.3,16.1c0,0,0,0-.1,0-.1-.3.5-.5.4-1,.1.3-.2.6-.3.9h0Z"></path></g><g><path d="M28.8,16.3c.3-.1.5,0,.6.1,0,0,0,0,0,0,0,0,0,0,0,0,0,0-.1,0-.3.2-.2,0-.2.1-.3.1,0,0,0-.3-.2-.3-.5,0-.6.4-.3.6,0,0,0,0,0,0-.3,0-.7-.4-.4-.7.2-.3.2-.1.3-.1,0,0,0,0,0,0,0,0,0,0,0,0,0,0,0-.2.2-.2.2,0,.5.2.7.1Z"></path><path d="M28.5,16.3c-.4.2-.8.5-.6.8,0,0-.3,0-.3-.3,0-.3.3-.4.3-.4.1,0,.1,0,0,0,0,0,0,0,0,0,0,0,0-.2.2-.2.2,0,.2,0,.4.1Z"></path><path d="M28.8,16.3c.3-.1.6,0,.5.2h0c0-.2-.4-.1-.6,0,0,0-.3,0-.4,0-.1,0-.3-.2-.4,0,0,0,0,0,0,0,0,0,0-.2.2-.2.2,0,.5.2.7.1Z"></path><path d="M28.6,16.8c0-.3-.1,0,.1-.2,0,0,.3,0,.3,0,.1.1-.3.2-.5.3h0Z"></path><path d="M28.5,16.7s0,0,0,0c.2,0,.2,0,.4-.1,0,0,0,0-.4.2h0Z"></path></g><g><path d="M28.5,16.6s.4.3.4.6c0,.6-.7.9-1.1,1.3-.4.5-.1,1,.4.9.7,0,1.2.1.9,1.3h-.1c0,.1-.5-.3-.5-.3v-.2c.3-.1.3-.3-.3-.3-1.3.1-1.5-1.3-.8-1.9.4-.3.6-.4.9-.8,0-.1,0-.2,0-.2,0,0-.2-.2-.2-.2v-.2s.1-.1.1-.1h.1c0,0,.2-.1.3,0h0Z"></path><path d="M29.2,20.5c0,.2,0,.3,0,.3h-.1c0,.1-.2,0-.2,0,.1,0,.3-.2.4-.3h0Z"></path><path d="M27.1,19.5c0-.1,0-.6,0-.8.1-.7.7-.7,1.1-1.2v.3s-.2,0-.2,0v.3s-.3,0-.3,0c0,0,0,.2,0,.3,0,0-.2,0-.3-.1,0,0,0,.4,0,.5,0,0-.2,0-.3,0,0,0,.1.4.2.4,0,0-.2.1-.3.2,0,0,0,.1.2.2,0,0,0,0-.2.1h0Z"></path><path d="M28.6,17.9c-.1.1-.7.6-.8.8-.6.7.3,1-.5.8l.2-.2h-.2c0-.1.2-.2.2-.3,0,0,0-.1,0-.1h.3c0,0,0-.4,0-.4h.3c0,0,0-.2,0-.2h.3s0-.3,0-.3c.2,0,.5,0,.5,0Z"></path><path d="M28.7,16.8c.3.3.3.6,0,1.1h-.2c0-.1,0-.3,0-.3-.2,0-.2,0-.2,0,.2-.3,0-.2.2-.5h0c0,0,0,0,0,0h0c0,0,.3-.2.3-.2h0Z"></path><path d="M28.5,20.4h0c.2-.1.2-.4.3-.2,0,0-.1.2-.1.2,0,0,0,0,.1,0,0,0,0,0,0,0,0,0-.2-.1-.2-.1h0Z"></path><path d="M28.3,17.4h0c0,.1.1,0,.2,0,0,0-.3,0-.3,0h0ZM28.6,17.9c0,0-.3,0-.4,0,0,0,0,.2.1.3h0c0,0-.2,0-.3,0,0,0,0,.2,0,.2,0,0,0,0,0,0,0,0-.3,0-.3,0,0,0,.1.3,0,.3,0,0-.2,0-.3,0,0,.3.1,0,0,.3,0,0-.1,0-.1.1,0,0,0,0,0,0,0,.2,0,.1-.1.3,0,0,.1,0,.1,0,0,0-.2,0-.2,0,0,0-.1,0-.2.1,0,0,0,0,0,0,0,0,.1,0,.1,0-.4-.3-.1-.2,0-.4,0,0-.2-.2-.2-.4,0-.2,0,0,.3,0-.1-.5,0-.5,0-.5,0,0,.1.1.2.1,0-.6,0-.3.3-.2,0-.5,0-.3.3-.3v-.2s0,0,0,0h.2c-.1-.2,0-.2,0-.2.1,0,.3,0,.2.1,0,0-.2.1-.2.1,0,.2.3.3.2.2,0,0,0,0,0,0h0ZM27.5,19.6s0,0,0,.1c.2,0,0,0,0,.3.1,0,.1,0,.2,0h-.2c0,0,0-.2,0-.2h-.1s0,.1,0,.1c0,0,0,0,0,0,0-.2,0-.1-.1-.2,0,0,0,0,0,0,0,0,.2,0,.2,0,0,0,0-.1.1-.1h0ZM27.4,18.3s0,.3,0,.4c0,0,.2,0,.3,0,0,0,0-.2,0-.2,0,0-.1,0-.2-.1h0ZM27.1,19.2s0,0,.2.1c0,0,.1-.1.2-.2,0,0,0,0,0,0,0,0,0,0-.2.1h0ZM27.1,18.7s0,.2.2.4c0,0,.1,0,.2-.2,0,0,0,0,0-.1,0,0-.2,0-.3,0h0ZM27.7,18.1c0,.1,0,.3,0,.3,0,0,0,0,.2,0,0,0,0-.1,0-.2,0,0-.2,0-.2,0h0ZM28,17.8s0,.1,0,.3c0,0,0,0,.3,0,0,0,0-.2,0-.3,0,0,0,0-.2,0h0ZM28.2,17.6v.2s0,0,.3,0c0,0-.1-.1-.2-.2,0,0,0,0-.1,0h0Z"></path><path d="M28.3,17.3s0,0,0,0c0,0,0-.1,0-.2,0,0-.2,0-.3,0h0s0,0,0,0c.4.2.5-.2.3.3h0Z"></path><path d="M27.7,18.7c-.1.2-.2.4-.1.6.3.7,1.3-.2,1.5.6.2.6,0,.8-.3.9h-.2c0-.2,0-.2,0-.2.1-.2.1-.3,0-.4,0-.2-.8,0-1-.1-.4-.3-.5-1.2,0-1.4h0Z"></path><path d="M27.8,19.5c0,0,.2,0,.4,0,.7,0,1,0,1,.8-.1,0-.3,0-.4,0,0-.1,0-.3-.4-.3-.2-.2-.4-.4-.5-.6h0Z"></path><path d="M27.6,18.9c0,0,0,0-.1.1,0,0,0,0,.1-.1h0ZM27.6,19.1c0,0-.2.1-.1,0,0,0,.1,0,.1,0h0ZM27.6,19.2s-.2.2-.2,0c0,0,.1,0,.2,0h0ZM27.6,19.3s-.1.1-.2.2c0,0,0,0,0,0,0,0,.2,0,.2-.1h0ZM27.7,19.4s-.2.2-.2.2c0,0,.2-.2.2-.2h0ZM27.7,19.4s0,.2-.2.3c0,0,0,0,0,0,.1,0,.2-.1.2-.3h0ZM27.9,19.5s0,.2-.3.4c0,0,0,0,0,0,.1,0,.2-.1.3-.4h0ZM28,19.6c0,.4,0,.3-.3.5,0,0,0,0,0,0,.2-.1.2-.2.2-.5,0,0,0,0,0,0ZM28,20.1s0,0,0,0c0-.2.1-.3.1-.5.1,0,0,.4,0,.5ZM28.3,19.9h0c0,.2,0,.2,0,0h0c0-.1,0-.2,0-.4,0,0,0,.3,0,.4ZM28.4,20.1s0,0,0,0c0-.2,0-.3,0-.5,0,0,0,.5,0,.6ZM28.6,19.5c0,.4-.2.7-.1.5,0-.2,0-.2,0-.5,0,0,0,0,0,0ZM28.6,20.1c.2-.2.2-.4.2-.6,0,0,0,.4-.2.6ZM29,19.6c.1,0-.2.5-.3.5.1-.1.3-.3.3-.5h0ZM29.2,19.9s0,0,0,0c-.2,0-.3.2-.4.2h0c0,0,.3-.2.4-.3h0ZM29.2,20.2s0,0,0,0c-.2,0-.3,0-.4,0h0s0,0,0,0h0c0,0,.2-.1.4,0h0ZM29.2,20.5s-.1,0-.2,0c0,0-.1,0-.2,0,0,0,0,0,0,0,0,0,.1,0,.2,0,0,0,.1,0,.2,0h0ZM29,20.7s0,0-.1-.1c0,0,0,0-.1-.1h0s0,0,0,0h0s0,0,.2.2h0Z"></path><path d="M28.5,16.6c.5.4.5.8.1,1.3,0-.4.1-.6-.5-1.1h0c0,0,.1-.1.1-.1,0,0,.2,0,.3,0h0Z"></path><path d="M28.9,17.5c0,.2-.2.3-.3.4,0-.2,0-.4,0-.6,0,0,.2.1.3.2h0Z"></path><path d="M28.5,16.6s0,0,0,0l-.3.2s0,0,0,0l.3-.2h0ZM28.6,16.7s0,0,0,0l-.3.2s0,0,0,0l.3-.2h0ZM28.8,16.9s0,0,0,0l-.3.2s0,0,0,0l.3-.2h0ZM28.9,17.1s0,0,0,0l-.3.2s0,0,0,0l.3-.2h0ZM28.9,17.2h0s-.3.2-.3.2c0,0,0,0,0,0l.3-.2h0ZM28.9,17.4s0,0,0,0l-.3.2s0,0,0,0l.3-.2h0ZM28.8,17.6s0,0,0,0h-.1s0,0,0,0c0,0,.2,0,.2,0Z"></path><path d="M28.5,16.6s.4.3.4.6c0,.6-.7.9-1.1,1.3-.4.5-.1,1,.4.9.7,0,1.2.1.9,1.3h-.1c0,.1-.5-.3-.5-.3v-.2c.3-.1.3-.3-.3-.3-1.3.1-1.5-1.3-.8-1.9.4-.3.6-.4.9-.8,0-.1,0-.2,0-.2,0,0-.2-.2-.2-.2v-.2s.1-.1.1-.1h.1c0,0,.2-.1.3,0h0Z"></path></g><path d="M28.5,16.6c-.4,0-.5.2-.5.4,0,0,.2.2.2.2,0,.1-.2-.1-.2-.2-.1-.3.2-.5.5-.4,0,0,0,0,0,0h0Z"></path><g><path d="M29.7,21l-.2-.2s.2-.1,0-.2c0,0,0-.2-.2-.3,0,0,0,.2,0,.3,0,0,0,0,0,.1-.2.2-.2.1-.5,0,0,0,0-.1,0-.2,0,0-.1,0-.2,0,0-.1,0-.2,0-.3,0,0,0,0-.2,0-.2,0-.3,0-.4.2,0,0-.2,0-.2.2-.1,0-.1.2,0,.2,0,0,0,.1,0,.2,0,.1,0,.2.1.2,0,0,0,0,0,0,0,0,.2,0,.2-.1,0,0,.1,0,.2-.1,0,.2.3.3.4.3,0,0,0,0,0,0,0,0,.2-.2.2-.2,0,0,0,0,.1.1,0,0,0,0,0,0,0,0,.4,0,.4,0h.2c0,0-.3-.4-.3-.4h0Z"></path><g><path d="M29.2,20.7s.1,0,.2-.1h0s-.2,0-.2.1h0Z"></path><path d="M29.1,21.1c0,0,0-.1.1-.1,0,0,0,0,.2-.2h0c0,.1-.3.2-.3.3h0Z"></path><path d="M29.2,21.2c.1,0,.2,0,.2-.2,0,0,0,0,0,0h0s0,0,0,0c0,.1,0,.2-.2.2h0Z"></path><path d="M29.6,21.1h0c0,0-.1,0-.1,0h0c0,0,0,0,.1,0Z"></path><path d="M29.3,20.9h0c0-.2,0-.2-.1-.2h0s0,0,0,0c0,0,.1,0,.1.2Z"></path><path d="M29,20.9h0c0,0,0,.1-.1.1h0c0,0,.2,0,.1-.1Z"></path><path d="M29.2,21s0,0-.1,0h0s.1,0,.1,0h0Z"></path><path d="M28.9,21.3c.1-.2,0-.4-.1-.5h0c.2.2.2.4.1.5h0Z"></path><path d="M28.8,20.8c-.2.2-.3.3-.4.1,0,0,0,0,0-.1,0,0,0-.1,0-.1h0c-.1.1,0,.2,0,.3.1,0,.2,0,.3-.2h0Z"></path><path d="M28.2,21.1c-.1-.1-.2-.2,0-.3h0c-.2.1-.2.2,0,.3h0Z"></path><path d="M28,21.2c-.1,0-.1-.3,0-.3h0c-.1,0-.2.1-.2.2,0,0,0,0,0,0h0Z"></path><path d="M28.1,21h0c-.2-.2,0-.4.2-.4h0c-.2,0-.4.2-.2.4h0s0,0,0,0h0Z"></path><path d="M27.8,21.1s0,0,.1,0h0c0,0,0,0-.1,0h0Z"></path><path d="M28,20.7s0-.2,0-.2h0c0,0,0,.2,0,.2h0Z"></path><path d="M27.9,21.1c-.1-.1,0-.3.1-.3h0c-.2,0-.2.2-.1.3h0Z"></path><path d="M27.8,20.7s0,.1,0,.2h0s0-.1,0-.2c0,0,0,0,0,0Z"></path><path d="M27.7,21s0,0,.1,0h0s0,0,0,0h0Z"></path></g><path d="M28.6,20.5c0-.1,0-.2,0-.3,0,0,0,0-.2,0-.2.1-.1.4-.1.4.2,0,.3-.2.3-.2h0Z"></path><path d="M28,21.3c0,0,.2.2.4,0,0,0,.1,0,.2,0,.2,0,.1,0,.1,0-.1,0-.2-.2-.2-.2-.1.1-.2.1-.2.1,0,0-.2.1-.2.1,0,0,0,0,0,0h0Z"></path><path d="M28,21.2s0,0,.1,0c0,0,.1,0,.2,0h0c0,0-.1,0-.2,0,0,0-.1,0-.1,0h0Z"></path><path d="M28.3,21.1c0,0,.1.1.2.1h0c0,0-.2,0-.2-.1h0Z"></path></g><path d="M30.9,21.3s0,.5-.1.6c-.1,0-.2-.2-.2-.2-.4.2-1,.3-.8,0,0,0-.6-.1-.7-.2,0,0,0-.1.4-.1,0,0,0,0,0,0,0,0,.1.1.3,0,0,0-.2-.1-.3-.2,0,0,0-.3.4-.3,0,0-.2-.1-.3-.2,0,0-.1-.2,0-.2,0,0,.1,0,.2,0,0,0,.1,0,.2.1,0,0-.5-.5-.4-.9,0,0,.4.7.9,1.1,0,0,.3.4.5.6h0Z"></path><path d="M30.9,21.3s0,.5-.1.6c-.1,0-.2-.2-.2-.2,0,0,0,0,0-.1h0s0,.1-.3.2c-.2,0-.4,0-.4,0,.2.1.8-.2.8-.2,0,0,.1.2.2.2,0,0,0-.4,0-.6,0,0,0,0,0,0h0ZM29.8,21.6s-.6-.1-.7-.2c.3.1.5.2.6.2,0,0,0,0,0,0h0Z"></path><path d="M29.1,21.3s0-.1.4-.1c0,0,.3.2.3.2-.2,0-.7,0-.7,0h0ZM29.4,21.2c.1.1.3,0,.4,0,0,0,0,0,.2,0,0,0-.4,0-.6-.1h0ZM29.4,21.2s0,0,0,0c0,0,0,0,0,0h0ZM29.7,20.8c0,0,.1,0,.2,0,0,0,0,0,.1,0,0,0,0,0,0,0,0,0,.1.3.2.3-.3,0,0-.1-.6-.1,0,0,0-.2.2-.2,0,0,0,0-.1,0h0ZM30,20.8c0,0,0-.1,0-.1,0,0-.2,0-.3-.1,0,0,0,0,0-.1,0,0,.1,0,.2,0,0,0,0,0,.1,0h0s0,0,0,0c0,0,0,.1,0,.2,0,0,0,0,0,0h0ZM29.9,20.2c0,0,.2.2.2.3h0s0,0,0,0c0,.1,0,.3,0,.3,0-.2.1,0,.1,0,0,0,0,.2,0,.2,0,0,0,.1,0,.2,0,0,0,0,0,0,0,0,0,0,0,0,0,0-.2-.4-.2-.5,0-.1,0-.4,0-.5h0Z"></path><path d="M30.3,20.6s0,0,0,0c0,0,0,.1.2.3,0,0,0,.3,0,.6,0,0,0,0-.2-.4,0,0-.3.1-.3.1,0,0,.2,0,.2,0,0,0-.2,0-.2,0,0,0,.1,0,0,0-.3,0-.6.3-.4,0,0,0,.1-.1.1-.2,0,0,0,0-.2,0-.2,0-.2-.2-.2-.2.2.2.6.1.6.1,0,0-.2,0-.2,0,0,0,0,0,0,0,0,0-.2-.1-.3-.2,0,0,0-.2.3-.3-.3,0-.2.2-.2.2.5,0,.3,0,.6.1,0,0-.1-.3-.2-.3,0,0,0,0,0-.1,0,0,0-.1,0-.2,0,0,0-.1,0-.2,0-.1,0-.2,0-.2h0s0,0,0,0c0,.1,0,.3,0,.5,0,.2.2.4.2.5.1,0,.2,0,.2,0h0c0-.1,0-.3,0-.5h0ZM30.1,20.8s0-.2,0-.3c0,0,0,.1,0,.2,0,0,0,0,0,0,0,0,0-.1-.1,0h0Z"></path><g><path d="M25.7,18.4c.3-.3,0-.7-.2-.4,0,0-.2,0-.2.1,0,.1,0,.1,0,.1,0,0,0,.3.2.1h0Z"></path><path d="M26,18.5c.3-.3,0-.7-.2-.4,0,0-.2,0-.2.1,0,.1,0,.1,0,.1,0,0,0,.3.2.1h0Z"></path><path d="M26.2,18.5c-.1-.1-.1-.3,0-.3,0-.2-.2-.2-.2,0,0,0-.2,0-.2.1,0,.1,0,.1,0,.1,0,0,0,.2,0,.2,0,0,.2,0,.1,0h0Z"></path></g></g><path d="M26.6,23.6c-.1.3.5.7.7.4.2-.2-.5-.6-.7-.4h0Z"></path><path d="M27.1,24c0,0-.2,0-.1,0,0,0,0,0,0-.1-.3,0-.3-.2-.1-.2.2,0,.4.2.2.3Z"></path><path d="M28.4,25.5c-.2,0-.3.2-.3.3,0,.2.7.2.7-.1,0-.1-.2-.2-.4-.2h0Z"></path><path d="M28.3,25.6c-.2.2,0,.3.1.1.1-.1.1.1.2,0,0,0,0,0,0-.1,0,0-.1,0-.3,0h0Z"></path><path d="M33.9,24.5c-.4.3-.1.7.4.2,0,0,0-.4-.4-.2h0Z"></path><path d="M33.8,24.8c0,0,0-.2.2-.2.1,0,.1.1.2,0-.1.3-.2-.1-.4.1h0Z"></path><path d="M33.5,25.2c.3,0,.3.4,0,.4s-.3-.4,0-.4Z"></path><path d="M28.6,23.7c.1,0,.2,0,.2.2,0,.3-.4.3-.4,0s0-.2.2-.2Z"></path><path d="M27.5,24.7c.1,0,.2,0,.2.2,0,.3-.4.3-.4,0s0-.2.2-.2Z"></path><g><path d="M31.7,26.6c.2,0,.2.1.5,0,.3,0,.5-.3.6-.4,0,0,.4-.4,1.1-.2,0,0,0,0-.2.2,0,0,.4,0,.6.1,0,0,0,.2-.5.4,0,0,.3,0,.5.2,0,0-.2,0-.5.1-.3.1-.8.4-1.1.3-.3-.1-.5-.4-.7-.5-.1,0-.2-.2-.5-.2-.3,0-.5,0-.5,0h0c.3-.1,0-.2.5-.1Z"></path><path d="M34.3,26.9s0,0,.1,0c0,0-.3-.1-.5,0-.2,0-.6.2-.8.3-.2,0-.4,0-.5,0,0,0-.2,0-.2-.1,0,0-.1-.1-.2-.1-.1,0-.2-.2-.5-.2-.3,0-.5,0-.5,0h0s.3,0,.5,0c.2,0,.3,0,.4.1,0,0,.2.2.3.2,0,0,.2.1.6,0,.3,0,.6-.2.8-.3.3,0,.4,0,.4,0h0Z"></path><path d="M32.1,26.7s0,0,.1,0c.3,0,.5-.3.6-.4,0,0,.4-.4,1.1-.2-.7-.2-.9.4-1.4.6-.1,0-.3,0-.4,0h0Z"></path><g><path d="M31.9,27c.2.2.2.2.3.2,0,0,0,.1-.1,0,0,0-.1,0-.2-.1-.2-.2-.3-.2-.6-.3h0c0-.1.4,0,.7.1Z"></path><path d="M32.1,27.2s0,.1-.1,0c0,0-.1,0-.2-.1-.2-.2-.3-.2-.6-.3h0c0,0,.3,0,.5.2,0,0,.2.1.2.1,0,0,0,0,0,0,0,0,.1,0,.2,0h0Z"></path></g><path d="M35.7,24.3c0,.4-.6.5-.8.9,0,.1,0,.3,0,.4,0,.3-.6.5-.6.7h0c.3-.4.5-.4,1-.4.9,0,1-.3,1.1-.8,0-.1,0-.2,0-.2,0,0-.2,0-.3,0,0,0,0-.3,0-.5-.1,0-.5.2-.7.3,0,0,.1-.4,0-.6h0Z"></path><path d="M36.5,25.1s0,0,0,0h0c-.3,0-.3.2-.4.3-.5.7-1.5.4-1.9,1.1h0s0,0,0,0c.2-.2.4-.4.7-.4.6,0,1.1-.5,1.5-.9h0Z"></path><path d="M35.7,24.3c0,.4-.6.5-.8.9-.1.3,0,.4-.3.7h0c.3-.1.2-.3.3-.5.3-.4.8-.6.7-1.1h0Z"></path><path d="M37.3,22.4c-.2,0-.5.3-.7.5-.2.2,0,.5,0,.6.1.4,0,.4,0,.7,0,.1-.2.2-.3.3h0c.3,0,.3-.4.7-.5.1,0,.5-.2.6-.4.2-.5.2-.6.5-1,0,0-.2,0-.5.3,0,0,0-.4,0-.7,0,0-.2,0-.4.3,0,0,0,0,0-.3h0Z"></path><path d="M36.4,24.7c.2-.1.4-.5.6-.5h0c.4-.3.4-.4.7-.9.2-.5.6-.5.6-.5-.5,0-.7.8-1,1.1,0,.1-.3.2-.5.4-.2.3-.2.3-.3.4h0Z"></path><path d="M37.3,22.4c-.2,0-.5.3-.7.5-.2.4,0,.7,0,1.2,0,.3,0,0,0-.3,0-.7,0-.8.6-1.4h0Z"></path><path d="M38.1,19.9c0,0,.2.5.2.6,0,0,0-.2.1-.3,0,0,0,0,0,.2.2.3.2.7-.2,1-.5.4-.5.2-.6.9h0c0,.1,0,0,0,0,.1-.1.1-.8,0-.9,0,0-.2-.1-.2-.4,0-.3.1-.6,0-.8,0,0,.3,0,.4.6,0,0,0-.7.3-.9h0Z"></path><path d="M38.3,20.6s0-.2.1-.3h0s0,.1,0,.4c0,.5,0,.5-.4.8-.2.2-.2.3-.4.8h0c.1,0,.3-.6.2-1,0-.3,0-.5,0-.5,0,0,0-.7.3-.9,0,1.3-.2.2-.2,1.8.4-.6.4-.8.4-1.1h0Z"></path><path d="M37.7,21.8c0-.7-.2-.2-.3-.8,0-.3.1-.6,0-.8.4.2,0,.6.2.9.1.3.2.1.1.7h0Z"></path><path d="M33.7,26.3s.4,0,.6.1c0,0-.3-.1-.6,0-.3.2-.6.4-.8.4-.3,0-.5,0-.6,0,0,0,.2,0,.5-.2.3-.2.6-.3.9-.3h0Z"></path><path d="M36.4,24.6c-.3-.1-1.3.8-1.4,1.2.5-.5.5-.5,1-.8.2-.1.2-.3.4-.4h0Z"></path><path d="M37.7,22.3s-.2,0-.4.3c-.5.7-.4,1.3-.4,1.3,0,0,0-.1.2-.3.5-.6.2-.9.7-1.4h0Z"></path></g><g><path d="M30.6,26.8c-.7,0-1.2.6-.8.5,0,0,.1,0,.2-.1.3-.2.3-.2.7-.3h0Z"></path><path d="M29.7,27.2s0,.1.1.1c0,0,.1,0,.2-.1.3-.2.3-.2.7-.3h0c-.5.1-.4,0-.7.3,0,0-.2,0-.3,0h0Z"></path><path d="M24.3,20.2c0,0-.2.2-.1.3,0,0,.2,0,.2,0,0,0,0,.1,0,.2,0,.1-.2.1-.3.2s0,.2,0,.1c.4-.1.3,0,0,.3,0,0-.1.1-.1.2,0,0,0,0,0,0,0,0,0,0,0,.1,0,0,0,.2,0,.3,0,.3.1.3.1.7,0,0,0,0,0,0,0,0,0,0,0,0,0-.3,0-.4-.1-.7,0-.1-.4-.3-.4-.5-.2-.1-.6-.4-.3-.5,0,0,.2,0,.2,0,0,0,.1,0,0,0,0,0-.2-.3-.2-.4.1-.4.3.3.4,0,0-.4.2-.5.2-.4,0,0,0,.2.2,0,.2-.3.4,0,.2.2h0Z"></path><path d="M24.1,22.3c0-.2,0-.4-.1-.5,0-.1-.4-.3-.4-.5-.2-.1-.6-.4-.3-.5,0,0,.2,0,.2,0,0,0,.1,0,0,0,0,0-.2-.3-.2-.4.1-.4.3.3.4,0,0-.4.2-.5.2-.4,0,0,0,.2.2,0,.2-.2.2-.1.2-.1,0,0,0,.1-.1.2-.4.4-.3.2-.3,0,0,0,0,.2,0,.3,0,0,0,0,0,.1,0,0,0,0,0,.2,0,0,.3-.1.4-.2,0,0-.2.2-.4.3,0,0-.2-.2-.3-.3,0,0,0,.3.2.4v.2s.2,0,.3,0c0,0,0,0-.3.2,0,0-.3,0-.4-.2,0,0,.1.2.4.3v.2s0,0-.1,0c0,0,0,.1.2.1,0,0,0,0,.1,0,0,0,0,0,0,.1.1.3.2.4.2.7h0Z"></path><path d="M25.7,24.6c-.2-.1-.5-.4-.6-.6,0-.2.1-.5.1-.7,0-.3-.3.2-.2,0,0,0,0-.3,0-.4,0-.1,0-.2-.1-.3,0,0-.2,0-.2.2,0,0,0,.2,0,.2,0,0,0-.1,0-.2,0,0,0-.2,0-.3-.1,0-.1.3-.2.2,0-.2-.2-.3-.2,0,0,0-.1,0-.2,0,0,0,.3.3,0,.2,0,0-.2,0-.2,0,0,0,0,.2.1.2.1,0,.3,0,.4.1.1,0,0,.1,0,0,0,0-.2-.1-.3,0,0,0,0,.2,0,.3.1,0,.3,0,.4,0,0,0,.2,0,.2,0,0,0-.2,0-.3,0s-.1.1,0,.2c.1,0,.3,0,.4,0,0,0,.3.2.4.3,0,0,.4.3.6.5,0,0,0,0,0-.1h0Z"></path><path d="M25.2,24.1s0,0,0-.1c0-.2.1-.5.1-.7,0-.3-.3.2-.2,0,0,0,0-.3,0-.4,0-.1,0-.2-.1-.3,0,0-.2,0-.2.2,0,0,0,.2,0,.2,0,0,0-.1,0-.2,0,0,0-.2,0-.3-.1,0-.1.3-.2.2,0,0,0-.2-.2-.2h0s0,.2.2.4c0,0,0,0,.1-.2,0,0,0,0,0,.2,0,.1,0,.1,0,.1,0,0-.2,0-.4,0,.2.1.4,0,.5.2,0,0,.1.2.1.2l.2-.5s0,.6-.1.7c0,0-.4,0-.6,0,0,0,0,0,.6.2v.2c.1,0,.3-.2.3-.3,0,0,0,.3-.1.4,0,0-.3,0-.4,0,0,0,.2,0,.4,0,0,0,0,.1.2.2h0Z"></path><path d="M27.6,26.3c-.7-.6-.5-.4-.6-.9,0-.2-.2.3-.2,0,0-.3.1-.5-.2-.7,0,0-.1,0-.1,0,0,.1,0,.3,0,.3,0,0,0-.2,0-.3,0-.4-.2-.5-.2-.3,0,.3,0,.3-.1,0,0,0,0,0,0,0,0,0,0,0,0-.1,0-.1-.1,0,0,.3,0,0,0,0,0,0-.3,0-.2,0,0,.2.4.2.2.3,0,.2,0,0-.2-.1-.2,0,0,.3.2.4.5.4.4,0,.4.2,0,.1-.1,0-.3,0-.3,0,0,.1.3.5.5.4.1,0,.2-.1.2,0,0,0,0,.1,0,.2,0,0,0,0,.2,0,0,0,.2-.1.3,0,.4.1.7.5.7.5,0,0,0-.1,0-.2h0Z"></path><path d="M27.3,26c-.4-.2-.2-.9-.4-.5-.3.4,0-.4-.3-.7,0,0-.1,0-.1,0,0,.1,0,.3,0,.3,0,0,0-.2,0-.3,0-.4-.2-.5-.2-.3,0,.3,0,.3-.1,0,0,0,0,0,0,0,0,0,0,0,0-.1,0,0,0,0,0,0,0,.4.4.5,0,.5,0,0,0,0,.3,0,0,0,.1.2.2.2,0,0,0,0,0-.4,0,0,0,.3,0,.5,0,0,.1.1,0,.1,0,0-.3,0-.5,0,.2,0,.5.1.6.1l.2.2s.1-.2.1-.5c0,0,0,.2,0,.6,0,0-.1,0-.5.2,0,0,.2,0,.5,0,0,0,.1.1.2.2,0,0,0,0-.2.1,0,0,.2,0,.3,0h0s0,0,0-.3c0,0,0,0,0,.3,0,0,.4,0,.3,0Z"></path><path d="M30.7,26.6c-.1-.2-.7,0-.9,0-.2,0-.2,0-.3-.2,0-.1-.1,0-.1,0,0,.4,0,0-.3-.2-.2-.1-.5-.1-.4,0,.2.3.1.3,0,.3-.2-.2-.4-.4-.6-.4,0,0,0,0,0,.1.2.1.1.3,0,.2,0,0-.1-.2-.3-.2-.2,0-.2,0-.2.1,0,0,0,0,0,.1-.2,0-.5.4-.3.3,0,0,0,0,0,0,0,0,0,0,.1,0s.2,0,.3-.1c.2,0,.2,0,.2.1-.1.1-.3.2-.1.3.4,0,.3-.1.5-.2,0,0,.1,0,.1,0,0,0-.2.2-.2.2,0,0,0,.1,0,.2.2,0,.4-.1.6-.3,0,0,.2,0,.1,0,0,0,0,.1-.1.2,0,0,0,.2.1.1.2,0,.3-.3.5-.4,0,0,.2,0,.3,0,0,0,.1-.1.3-.2.4-.1.7.5.5,0h0Z"></path><path d="M29.8,26.6c-.2,0-.2,0-.3-.2,0-.1-.1,0-.1,0,0,.4,0,0-.3-.2-.2-.1-.5-.1-.4,0,.2.3.1.3,0,.3-.2-.2-.4-.4-.6-.4,0,0,0,0,0,.1.2.1.1.3,0,.2,0,0-.1-.2-.3-.2-.2,0-.2,0-.2.1,0,0,0,0,0,.1,0,0-.2,0-.3.2.2-.2.4-.1.7-.1,0,0-.1,0-.2-.2,0,0,.2.2.3.3.3,0,.2,0,0,.3,0,0,.3-.2.3-.2h.1s0-.2-.2-.4c0,0,.2.2.3.4.4,0,.1,0,0,.4,0,0,.2-.3.3-.3,0,0,.1,0,.2,0,0,0-.1-.2-.1-.4,0,0,.1.3.2.4.3,0,.1,0,0,.4,0,0,.2-.2.2-.3,0,0,.1,0,0-.2,0,0,0-.1,0-.2,0,0,.2.2.2.2,0,0,.2,0,0,0h0Z"></path></g><g><path d="M30.7,26.4c.8,0,.6-.1.6.5s0,.3-.2.4c-.2.1-.5.5-.6.6l-.2-.3s-.1,0-.4.1c0,0,.1-.4.8-.8v-.5s0,0,0,0h0Z"></path><path d="M31.1,26.4h.1c.1,0,.1.7-.1.9-.2.1-.5.5-.6.6l-.2-.2c.1-.2.3-.3.5-.5.3-.2.2-.5.2-.9h0Z"></path><path d="M30.7,26.4h.1c0,.9.1.5-.5,1,0,0-.2.2-.2.3h0c0,0-.2,0-.3.1,0,0,.1-.4.8-.8v-.5s0,0,0,0h0Z"></path><path d="M31.5,27.9s0-.1-.3-.2c-.2,0-.3-.3-.3-.3,0,0,.2-.1.2-.2.1,0,.2-.2.2-.3h0s0,.1.3.2c.2.1.3.1.6.4,0,0-.3,0-.4,0,0,0-.1,0-.2.3h0Z"></path><path d="M31.2,27.3c0,0,0-.1,0-.2h0s0,.1.3.2c.2.1.3.1.6.4,0,0-.2,0-.3,0-.2-.3-.3-.1-.5-.3,0,0,0,0-.1-.1h0Z"></path><path d="M31.5,27.9s0-.1-.3-.2c-.2,0-.3-.3-.3-.3,0,0,0,0,.1-.1,0,0,0,0,.1.1.2.2.3,0,.5.2,0,0,0,.1-.1.2h0Z"></path></g></g></svg>