<svg xmlns="http://www.w3.org/2000/svg" xmlns:xlink="http://www.w3.org/1999/xlink" version="1.1" id="Layer_1" x="0px" y="0px" viewBox="0 0 9.4 16" xml:space="preserve"><style type="text/css">
	.st0{fill:#FFFFFF;}</style><path id="map_1_" d="M7.8,0C7.8,0,7.8,0,7.8,0L2.4,0.6c0,0-0.1,0-0.1,0l-1,0.5L0.7,1c0,0-0.1,0-0.1,0  C0.5,0.9,0.4,1,0.4,1C0.3,1.1,0.2,1.2,0.2,1.3l0.4,4.3L1,9.9l-0.2,0.9c0,0.1,0,0.1,0,0.2L1.2,12L0,14.7c0,0.1,0,0.1,0,0.2l0.1,0.8  c0,0.1,0.1,0.2,0.2,0.3c0.1,0,0.1,0,0.2,0c0,0,0.1,0,0.1,0l1.5-0.6l0.6,0.3c0,0,0.1,0,0.1,0c0,0,0.1,0,0.1,0l1.3-0.3  c0.1,0,0.1,0,0.2-0.1l0.9-0.9l1,0.3c0,0,0.1,0,0.1,0c0.1,0,0.1,0,0.2-0.1c0.1,0,0.1-0.1,0.2-0.2l0.2-0.9l1.5-1.6l1-0.8  c0.1-0.1,0.1-0.2,0.1-0.3L9.3,9.9L8.8,5.4c0,0,0,0,0,0L8.2,0.5l0-0.2C8.1,0.1,8,0,7.8,0L7.8,0z"></path></svg>