<svg xmlns="http://www.w3.org/2000/svg" xmlns:xlink="http://www.w3.org/1999/xlink" version="1.1" id="Layer_1" x="0px" y="0px" viewBox="0 0 100 100" xml:space="preserve"><style type="text/css">
	.st0{fill:#1D252C;}
	.st1{fill:#F05423;}
	.st2{fill:#6EABDD;}
	.st3{fill:#6FC066;}
	.st4{fill:#FFD340;}
	.st5{fill:#373C57;}
	.st6{fill-rule:evenodd;clip-rule:evenodd;fill:#373C57;}
	.st7{fill-rule:evenodd;clip-rule:evenodd;fill:#6EABDD;}
	.st8{fill-rule:evenodd;clip-rule:evenodd;fill:#6FC066;}
	.st9{fill-rule:evenodd;clip-rule:evenodd;fill:#F05423;}</style><path d="M-30.6,8.2h-13.1c-4.3,0-7.7-3.5-7.7-7.7v0c0-4.3,3.5-7.7,7.7-7.7h13.1c4.3,0,7.7,3.5,7.7,7.7v0  C-22.8,4.7-26.3,8.2-30.6,8.2z"></path><path d="M-30.6,44.8h-13.1c-4.3,0-7.7-3.5-7.7-7.7v0c0-4.3,3.5-7.7,7.7-7.7h13.1c4.3,0,7.7,3.5,7.7,7.7v0  C-22.8,41.4-26.3,44.8-30.6,44.8z"></path><path d="M-30.6,63.2h-13.1c-4.3,0-7.7-3.5-7.7-7.7v0c0-4.3,3.5-7.7,7.7-7.7h13.1c4.3,0,7.7,3.5,7.7,7.7v0  C-22.8,59.8-26.3,63.2-30.6,63.2z"></path><path d="M-30.6,81.4h-13.1c-4.3,0-7.7-3.5-7.7-7.7v0c0-4.3,3.5-7.7,7.7-7.7h13.1c4.3,0,7.7,3.5,7.7,7.7v0  C-22.8,78-26.3,81.4-30.6,81.4z"></path><path d="M-30.6,100h-13.1c-4.3,0-7.7-3.5-7.7-7.7v0c0-4.3,3.5-7.7,7.7-7.7h13.1c4.3,0,7.7,3.5,7.7,7.7v0  C-22.8,96.5-26.3,100-30.6,100z"></path><path d="M-30.6,26.5h-13.1c-4.3,0-7.7-3.5-7.7-7.7v0c0-4.3,3.5-7.7,7.7-7.7h13.1c4.3,0,7.7,3.5,7.7,7.7v0  C-22.9,23.1-26.3,26.5-30.6,26.5z"></path><path d="M30.7,15.9l12.1-2.7c0.7-0.6,1-1.4-0.4-2.7C41.6,10,41,9.1,40.8,8.1c-0.5-2.2,0.9-4.3,3-4.8  c2.2-0.5,4.3,0.9,4.8,3c0.2,1,0,2-0.4,2.9c-0.7,1.7-0.1,2.3,0.8,2.6l12.1-2.7l2.7,12.1c0.6,0.7,1.4,1,2.7-0.4  c0.6-0.8,1.4-1.4,2.4-1.6c2.2-0.5,4.3,0.9,4.8,3c0.5,2.2-0.9,4.3-3.1,4.8c-1,0.2-2,0-2.9-0.4c-1.7-0.7-2.3-0.1-2.6,0.8L68,39.6  l-12.3,2.8c-0.8-0.3-1.3-0.9-0.6-2.5c0.5-0.8,0.7-1.8,0.4-2.9c-0.5-2.2-2.6-3.5-4.8-3.1c-2.2,0.5-3.5,2.6-3,4.8  c0.2,1,0.8,1.9,1.6,2.4c1.3,1.2,1.1,1.9,0.5,2.6l-12.3,2.7l-2.7-12.3c0.3-0.8,0.9-1.3,2.5-0.6c0.8,0.5,1.9,0.7,2.9,0.4  c2.2-0.5,3.5-2.6,3-4.8c-0.5-2.2-2.6-3.5-4.8-3.1c-1,0.2-1.9,0.8-2.4,1.6c-1.2,1.3-1.9,1.1-2.6,0.5L30.7,15.9z"></path><path d="M0.1,22.7L12.3,20c0.7-0.6,1-1.4-0.4-2.7c-0.8-0.6-1.4-1.4-1.6-2.4c-0.5-2.2,0.9-4.3,3.1-4.8  c2.2-0.5,4.3,0.9,4.8,3.1c0.2,1,0,2-0.4,2.9c-0.7,1.7-0.1,2.3,0.8,2.6l12.1-2.7l2.7,12.1c0.6,0.7,1.4,1,2.7-0.4  c0.6-0.8,1.4-1.4,2.4-1.6c2.2-0.5,4.3,0.9,4.8,3.1c0.5,2.2-0.9,4.3-3.1,4.8c-1,0.2-2,0-2.9-0.4c-1.7-0.7-2.3-0.1-2.6,0.8l2.7,12.1  l-12.3,2.7c-0.8-0.3-1.3-0.9-0.6-2.5c0.5-0.8,0.7-1.9,0.4-2.9c-0.5-2.2-2.6-3.5-4.8-3c-2.2,0.5-3.5,2.6-3,4.8c0.2,1,0.8,1.9,1.6,2.4  c1.3,1.2,1.1,1.9,0.5,2.6L6.9,53.2L4.2,40.9c0.3-0.8,0.9-1.3,2.5-0.6c0.8,0.5,1.9,0.7,2.9,0.4c2.2-0.5,3.5-2.6,3-4.8  c-0.5-2.2-2.6-3.5-4.8-3c-1,0.2-1.9,0.8-2.4,1.6c-1.2,1.3-1.9,1.1-2.6,0.5L0.1,22.7z"></path><path d="M62.5,48.3l12.2,2.2c0.9-0.3,1.5-0.9,0.7-2.6C74.9,47,74.7,46,74.9,45c0.4-2.2,2.5-3.6,4.7-3.2  c2.2,0.4,3.6,2.5,3.2,4.7c-0.2,1-0.7,1.9-1.5,2.5c-1.3,1.3-1,2.1-0.3,2.7l12.2,2.2l-2.2,12.2c0.3,0.9,0.9,1.5,2.6,0.7  c0.8-0.5,1.8-0.7,2.8-0.6c2.2,0.4,3.6,2.5,3.2,4.7c-0.4,2.2-2.5,3.6-4.7,3.2c-1-0.2-1.9-0.7-2.5-1.5c-1.3-1.3-2.1-1-2.7-0.3  l-2.2,12.2l-12.4-2.2c-0.6-0.6-0.8-1.4,0.4-2.6c0.8-0.6,1.3-1.4,1.5-2.5c0.4-2.2-1.1-4.3-3.2-4.7c-2.2-0.4-4.3,1.1-4.7,3.2  c-0.2,1,0,2,0.6,2.8c0.7,1.6,0.3,2.2-0.5,2.6L57,79.1l2.2-12.4c0.6-0.6,1.3-0.8,2.6,0.4c0.6,0.8,1.4,1.3,2.5,1.5  c2.2,0.4,4.3-1.1,4.7-3.2c0.4-2.2-1.1-4.3-3.2-4.7c-1-0.2-2,0-2.8,0.6c-1.6,0.7-2.2,0.3-2.6-0.5L62.5,48.3z"></path><path d="M10.3,66.4l12.1-3c0.7-0.7,0.9-1.4-0.4-2.7c-0.8-0.5-1.4-1.4-1.7-2.4c-0.5-2.1,0.8-4.3,2.9-4.9  c2.2-0.5,4.3,0.8,4.9,2.9c0.2,1,0.1,2-0.4,2.9c-0.7,1.7-0.1,2.3,0.9,2.6l12.1-3l3,12.1c0.7,0.7,1.5,1,2.7-0.4  c0.5-0.8,1.4-1.4,2.4-1.7c2.1-0.5,4.3,0.8,4.9,2.9c0.5,2.2-0.8,4.3-2.9,4.9c-1,0.2-2,0.1-2.9-0.4c-1.7-0.7-2.3-0.1-2.6,0.9l3,12.1  l-12.2,3c-0.8-0.3-1.3-0.9-0.7-2.5c0.5-0.9,0.6-1.9,0.4-2.9c-0.5-2.1-2.7-3.5-4.9-2.9c-2.2,0.5-3.5,2.7-2.9,4.9  c0.2,1,0.9,1.8,1.7,2.4c1.3,1.2,1.2,1.9,0.6,2.6l-12.2,3l-3-12.2c0.3-0.8,0.9-1.3,2.5-0.7c0.8,0.5,1.9,0.6,2.9,0.4  c2.2-0.5,3.5-2.7,2.9-4.9c-0.5-2.2-2.7-3.5-4.9-2.9c-1,0.2-1.8,0.9-2.4,1.7c-1.2,1.3-1.9,1.2-2.5,0.6L10.3,66.4z"></path></svg>