<svg xmlns="http://www.w3.org/2000/svg" width="100%" viewBox="0 0 92 100" fill="none" aria-labelledby="field-media-image-title-0"><path d="M14 28C21.732 28 28 21.732 28 14C28 6.26801 21.732 0 14 0C6.26801 0 0 6.26801 0 14C0 21.732 6.26801 28 14 28Z" fill="currentColor"></path><path d="M78 28C85.732 28 92 21.732 92 14C92 6.26801 85.732 0 78 0C70.268 0 64 6.26801 64 14C64 21.732 70.268 28 78 28Z" fill="currentColor"></path><path d="M78 40C70.2 40 64 46.4 64 54V58C64 65.8 57.8 72 50 72H42C34.2 72 28 65.8 28 58V54C28 46.4 21.6 40 14 40C7 40 0 45.6 0 54C0 61.8 6.2 68 14 68H18C25.8 68 32 74.4 32 82V86C32 93.8 38.2 100 46 100C53.8 100 60 93.8 60 86V82C60 74.4 66.2 68 74 68H78C85.8 68 92 61.8 92 54C92 46.4 85.8 40 78 40Z" fill="currentColor"></path></svg>