<svg xmlns="http://www.w3.org/2000/svg" width="100%" viewBox="0 0 128 128" blink-animation=""><path d="m112.35,43.04l-.74,4.12h-10.4v-3.17c0-4.42-3.58-8-8-8h-52c-4.42,0-8,3.58-8,8v37.99h-6.6v5c0,2.76,2.24,5,5,5h15.46s.09.01.14.01h14.64s.09-.01.14-.01h41.63c2.76,0,5-2.24,5-5v-5h-7.4v-10.56h5.86c1.28,0,2.38-.92,2.61-2.18l4.34-24.21h5.97v-2h-7.65Zm-68.6,46.94h-12.14c-1.65,0-3-1.35-3-3v-3h4.6v.06h10v3.95c0,.73.21,1.41.56,2,0,0,0-.01-.01-.02Zm18.09.01h-14.64c-1.1,0-2-.9-2-2v-33.16c0-1.1.9-2,2-2h14.64c1.1,0,2,.9,2,2v33.16c0,1.1-.9,2-2,2Zm15.68-.01h-12.23s0,.01-.01.02c.34-.59.56-1.27.56-2v-3.95h11.68v5.94Zm29.09-6v3c0,1.65-1.35,3-3,3h-24.09v-5.94h21.68v-.06h5.4Zm1.1-15.09c-.06.31-.32.53-.64.53h-28.31v2h20.44v10.56h-33.36v-27.15c0-2.21-1.79-4-4-4h-14.64c-2.21,0-4,1.79-4,4v27.15h-7.99v-37.99c0-3.31,2.69-6,6-6h52c3.31,0,6,2.69,6,6v3.17h-20.19c-.77,0-1.5.33-2,.91-.5.58-.73,1.35-.62,2.11l2.01,14.02c.19,1.3,1.31,2.27,2.62,2.27h27.12l-.43,2.41Zm.79-4.41h-27.48c-.32,0-.6-.24-.64-.56l-2.01-14.02c-.04-.26.08-.43.15-.52.07-.08.23-.22.49-.22h32.23l-2.75,15.32Z"></path><path d="m82.07,79.5c1.82,0,3.3-1.48,3.3-3.3s-1.48-3.3-3.3-3.3-3.3,1.48-3.3,3.3,1.48,3.3,3.3,3.3Zm0-4.6c.72,0,1.3.58,1.3,1.3s-.58,1.3-1.3,1.3-1.3-.58-1.3-1.3.58-1.3,1.3-1.3Z"></path><path d="m106.81,72.9c-1.82,0-3.3,1.48-3.3,3.3s1.48,3.3,3.3,3.3,3.3-1.48,3.3-3.3-1.48-3.3-3.3-3.3Zm0,4.6c-.72,0-1.3-.58-1.3-1.3s.58-1.3,1.3-1.3,1.3.58,1.3,1.3-.58,1.3-1.3,1.3Z"></path><rect x="52.47" y="54.84" width="4.12" height="2"></rect><path d="m54.53,82c-1.66,0-3,1.34-3,3s1.34,3,3,3,3-1.34,3-3-1.34-3-3-3Zm0,4c-.55,0-1-.45-1-1s.45-1,1-1,1,.45,1,1-.45,1-1,1Z"></path><path d="m18.09,36.32h-10.09v2h10.09c3.26,0,5.91,2.65,5.91,5.91v26.18c0,3.26-2.65,5.91-5.91,5.91h-10.09v2h10.09c4.37,0,7.91-3.54,7.91-7.91v-26.18c0-4.37-3.54-7.91-7.91-7.91Z"></path><g><path d="m15.65,49.43c-1.03-1.03-1.52-2.14-1.47-3.3.06-1.29.81-2.37,1.5-2.94l.64.77c-.5.42-1.1,1.25-1.14,2.22-.04.87.36,1.72,1.18,2.54l-.71.71Z"></path><path d="m15.65,63.43c-1.03-1.03-1.52-2.14-1.47-3.3.06-1.29.81-2.37,1.5-2.94l.64.77c-.5.42-1.1,1.25-1.14,2.22-.04.87.36,1.72,1.18,2.54l-.71.71Z"></path></g><g><circle cx="16" cy="46.32" r="4"></circle><circle cx="16" cy="60.32" r="4"></circle></g></svg>