<svg xmlns="http://www.w3.org/2000/svg" width="346" height="216" viewBox="0 0 346 216" fill="none"><path d="M0.5 16C0.5 7.16345 7.66344 0 16.5 0H329.5C338.337 0 345.5 7.16344 345.5 16V200C345.5 208.837 338.337 216 329.5 216H16.5C7.66345 216 0.5 208.837 0.5 200V16Z" fill="#F5F5F5"></path><path d="M27.728 27.3H29.144L32.42 36H31.1L30.416 34.116H26.42L25.748 36H24.5L27.728 27.3ZM26.792 33.072H30.032L28.4 28.536L26.792 33.072ZM35.9845 29.436C36.3845 29.436 36.7405 29.504 37.0525 29.64C37.3645 29.768 37.6325 29.94 37.8565 30.156C38.0805 30.372 38.2565 30.616 38.3845 30.888C38.5205 31.16 38.6085 31.432 38.6485 31.704L37.5445 31.704C37.4645 31.32 37.2805 31.008 36.9925 30.768C36.7125 30.52 36.3525 30.396 35.9125 30.396C35.6565 30.396 35.4165 30.444 35.1925 30.54C34.9765 30.636 34.7845 30.784 34.6165 30.984C34.4565 31.176 34.3285 31.42 34.2325 31.716C34.1365 32.012 34.0885 32.364 34.0885 32.772C34.0885 33.18 34.1365 33.536 34.2325 33.84C34.3285 34.144 34.4605 34.396 34.6285 34.596C34.7965 34.796 34.9885 34.948 35.2045 35.052C35.4285 35.148 35.6645 35.196 35.9125 35.196C36.1525 35.196 36.3645 35.16 36.5485 35.088C36.7405 35.016 36.9045 34.92 37.0405 34.8C37.1845 34.68 37.3005 34.544 37.3885 34.392C37.4845 34.232 37.5525 34.068 37.5925 33.9H38.7205C38.6645 34.204 38.5565 34.492 38.3965 34.764C38.2365 35.036 38.0325 35.276 37.7845 35.484C37.5445 35.692 37.2605 35.856 36.9325 35.976C36.6125 36.096 36.2605 36.156 35.8765 36.156C35.4045 36.156 34.9845 36.072 34.6165 35.904C34.2485 35.736 33.9365 35.504 33.6805 35.208C33.4245 34.912 33.2285 34.56 33.0925 34.152C32.9645 33.736 32.9005 33.28 32.9005 32.784C32.9005 32.304 32.9685 31.86 33.1045 31.452C33.2485 31.044 33.4525 30.692 33.7165 30.396C33.9805 30.092 34.3005 29.856 34.6765 29.688C35.0605 29.52 35.4965 29.436 35.9845 29.436ZM41.0458 36H39.9538V29.544H41.0458V30.516C41.2298 30.212 41.4778 29.956 41.7898 29.748C42.1018 29.54 42.5018 29.436 42.9898 29.436C43.4858 29.436 43.8818 29.536 44.1778 29.736C44.4818 29.936 44.7058 30.216 44.8498 30.576C45.1058 30.176 45.4178 29.888 45.7858 29.712C46.1538 29.528 46.5658 29.436 47.0218 29.436C47.3978 29.436 47.7178 29.496 47.9818 29.616C48.2458 29.736 48.4618 29.908 48.6298 30.132C48.7978 30.348 48.9178 30.608 48.9898 30.912C49.0698 31.216 49.1098 31.552 49.1098 31.92V36H48.0178V32.244C48.0178 31.996 48.0018 31.76 47.9698 31.536C47.9378 31.312 47.8698 31.116 47.7658 30.948C47.6698 30.772 47.5298 30.636 47.3458 30.54C47.1698 30.436 46.9338 30.384 46.6378 30.384C46.1658 30.384 45.7858 30.564 45.4978 30.924C45.2178 31.276 45.0778 31.8 45.0778 32.496V36H43.9858V32.244C43.9858 31.996 43.9698 31.76 43.9378 31.536C43.9058 31.312 43.8378 31.116 43.7338 30.948C43.6378 30.772 43.4978 30.636 43.3138 30.54C43.1378 30.436 42.9018 30.384 42.6058 30.384C42.1338 30.384 41.7538 30.564 41.4658 30.924C41.1858 31.276 41.0458 31.8 41.0458 32.496V36ZM53.4348 36.156C52.9148 36.156 52.4588 36.072 52.0668 35.904C51.6828 35.728 51.3588 35.488 51.0948 35.184C50.8308 34.88 50.6308 34.524 50.4948 34.116C50.3668 33.708 50.3028 33.264 50.3028 32.784C50.3028 32.272 50.3788 31.812 50.5308 31.404C50.6908 30.988 50.9068 30.636 51.1788 30.348C51.4588 30.052 51.7868 29.828 52.1628 29.676C52.5388 29.516 52.9508 29.436 53.3988 29.436C53.8948 29.436 54.3348 29.532 54.7188 29.724C55.1108 29.916 55.4348 30.18 55.6908 30.516C55.9468 30.852 56.1308 31.244 56.2428 31.692C56.3628 32.14 56.4068 32.62 56.3748 33.132L51.4908 33.132C51.4908 33.452 51.5388 33.74 51.6348 33.996C51.7388 34.252 51.8788 34.468 52.0548 34.644C52.2308 34.82 52.4348 34.956 52.6668 35.052C52.8988 35.148 53.1468 35.196 53.4108 35.196C53.9148 35.196 54.2988 35.1 54.5628 34.908C54.8268 34.708 55.0268 34.448 55.1628 34.128H56.2908C56.2188 34.408 56.1028 34.672 55.9428 34.92C55.7828 35.16 55.5828 35.372 55.3428 35.556C55.1108 35.74 54.8348 35.888 54.5148 36C54.1948 36.104 53.8348 36.156 53.4348 36.156ZM53.3988 30.372C52.8468 30.372 52.3988 30.532 52.0548 30.852C51.7108 31.164 51.5268 31.612 51.5028 32.196L55.2228 32.196C55.2148 31.972 55.1708 31.752 55.0908 31.536C55.0108 31.312 54.8948 31.116 54.7428 30.948C54.5908 30.772 54.4028 30.632 54.1788 30.528C53.9548 30.424 53.6948 30.372 53.3988 30.372ZM61.9005 36H60.6765V27.3H61.9005V36ZM64.8935 30.516C65.0775 30.212 65.3335 29.956 65.6615 29.748C65.9975 29.54 66.4375 29.436 66.9815 29.436C67.3735 29.436 67.7015 29.496 67.9655 29.616C68.2375 29.736 68.4575 29.908 68.6255 30.132C68.7935 30.348 68.9135 30.608 68.9855 30.912C69.0655 31.216 69.1055 31.552 69.1055 31.92V36H68.0135V32.244C68.0135 31.996 67.9975 31.76 67.9655 31.536C67.9335 31.312 67.8695 31.116 67.7735 30.948C67.6775 30.772 67.5335 30.636 67.3415 30.54C67.1575 30.436 66.9095 30.384 66.5975 30.384C66.0695 30.384 65.6535 30.564 65.3495 30.924C65.0455 31.276 64.8935 31.8 64.8935 32.496V36H63.8015V29.544H64.8935V30.516ZM73.379 29.436C73.779 29.436 74.135 29.504 74.447 29.64C74.759 29.768 75.027 29.94 75.251 30.156C75.475 30.372 75.651 30.616 75.779 30.888C75.915 31.16 76.003 31.432 76.043 31.704H74.939C74.859 31.32 74.675 31.008 74.387 30.768C74.107 30.52 73.747 30.396 73.307 30.396C73.051 30.396 72.811 30.444 72.587 30.54C72.371 30.636 72.179 30.784 72.011 30.984C71.851 31.176 71.723 31.42 71.627 31.716C71.531 32.012 71.483 32.364 71.483 32.772C71.483 33.18 71.531 33.536 71.627 33.84C71.723 34.144 71.855 34.396 72.023 34.596C72.191 34.796 72.383 34.948 72.599 35.052C72.823 35.148 73.059 35.196 73.307 35.196C73.547 35.196 73.759 35.16 73.943 35.088C74.135 35.016 74.299 34.92 74.435 34.8C74.579 34.68 74.695 34.544 74.783 34.392C74.879 34.232 74.947 34.068 74.987 33.9H76.115C76.059 34.204 75.951 34.492 75.791 34.764C75.631 35.036 75.427 35.276 75.179 35.484C74.939 35.692 74.655 35.856 74.327 35.976C74.007 36.096 73.655 36.156 73.271 36.156C72.799 36.156 72.379 36.072 72.011 35.904C71.643 35.736 71.331 35.504 71.075 35.208C70.819 34.912 70.623 34.56 70.487 34.152C70.359 33.736 70.295 33.28 70.295 32.784C70.295 32.304 70.363 31.86 70.499 31.452C70.643 31.044 70.847 30.692 71.111 30.396C71.375 30.092 71.695 29.856 72.071 29.688C72.455 29.52 72.891 29.436 73.379 29.436ZM77.03 36V34.62H78.41V36H77.03Z" fill="black" fill-opacity="0.5"></path><path d="M25.016 184.652C25.016 184.356 25.072 184.08 25.184 183.824C25.296 183.568 25.448 183.344 25.64 183.152C25.832 182.96 26.056 182.808 26.312 182.696C26.568 182.584 26.84 182.528 27.128 182.528C27.44 182.528 27.732 182.584 28.004 182.696C28.276 182.808 28.508 182.96 28.7 183.152C28.9 183.344 29.056 183.568 29.168 183.824C29.28 184.08 29.336 184.356 29.336 184.652C29.336 184.964 29.28 185.256 29.168 185.528C29.056 185.792 28.9 186.024 28.7 186.224C28.508 186.416 28.276 186.568 28.004 186.68C27.732 186.792 27.44 186.848 27.128 186.848C26.84 186.848 26.568 186.792 26.312 186.68C26.056 186.568 25.832 186.416 25.64 186.224C25.448 186.024 25.296 185.792 25.184 185.528C25.072 185.256 25.016 184.964 25.016 184.652ZM30.3832 184.652C30.3832 184.356 30.4392 184.08 30.5512 183.824C30.6632 183.568 30.8152 183.344 31.0072 183.152C31.1992 182.96 31.4232 182.808 31.6792 182.696C31.9352 182.584 32.2072 182.528 32.4952 182.528C32.8072 182.528 33.0992 182.584 33.3712 182.696C33.6432 182.808 33.8752 182.96 34.0672 183.152C34.2672 183.344 34.4232 183.568 34.5352 183.824C34.6472 184.08 34.7032 184.356 34.7032 184.652C34.7032 184.964 34.6472 185.256 34.5352 185.528C34.4232 185.792 34.2672 186.024 34.0672 186.224C33.8752 186.416 33.6432 186.568 33.3712 186.68C33.0992 186.792 32.8072 186.848 32.4952 186.848C32.2072 186.848 31.9352 186.792 31.6792 186.68C31.4232 186.568 31.1992 186.416 31.0072 186.224C30.8152 186.024 30.6632 185.792 30.5512 185.528C30.4392 185.256 30.3832 184.964 30.3832 184.652ZM35.7504 184.652C35.7504 184.356 35.8064 184.08 35.9184 183.824C36.0304 183.568 36.1824 183.344 36.3744 183.152C36.5664 182.96 36.7904 182.808 37.0464 182.696C37.3024 182.584 37.5744 182.528 37.8624 182.528C38.1744 182.528 38.4664 182.584 38.7384 182.696C39.0104 182.808 39.2424 182.96 39.4344 183.152C39.6344 183.344 39.7904 183.568 39.9024 183.824C40.0144 184.08 40.0704 184.356 40.0704 184.652C40.0704 184.964 40.0144 185.256 39.9024 185.528C39.7904 185.792 39.6344 186.024 39.4344 186.224C39.2424 186.416 39.0104 186.568 38.7384 186.68C38.4664 186.792 38.1744 186.848 37.8624 186.848C37.5744 186.848 37.3024 186.792 37.0464 186.68C36.7904 186.568 36.5664 186.416 36.3744 186.224C36.1824 186.024 36.0304 185.792 35.9184 185.528C35.8064 185.256 35.7504 184.964 35.7504 184.652ZM41.1176 184.652C41.1176 184.356 41.1736 184.08 41.2856 183.824C41.3976 183.568 41.5496 183.344 41.7416 183.152C41.9336 182.96 42.1576 182.808 42.4136 182.696C42.6696 182.584 42.9416 182.528 43.2296 182.528C43.5416 182.528 43.8336 182.584 44.1056 182.696C44.3776 182.808 44.6096 182.96 44.8016 183.152C45.0016 183.344 45.1576 183.568 45.2696 183.824C45.3816 184.08 45.4376 184.356 45.4376 184.652C45.4376 184.964 45.3816 185.256 45.2696 185.528C45.1576 185.792 45.0016 186.024 44.8016 186.224C44.6096 186.416 44.3776 186.568 44.1056 186.68C43.8336 186.792 43.5416 186.848 43.2296 186.848C42.9416 186.848 42.6696 186.792 42.4136 186.68C42.1576 186.568 41.9336 186.416 41.7416 186.224C41.5496 186.024 41.3976 185.792 41.2856 185.528C41.1736 185.256 41.1176 184.964 41.1176 184.652ZM49.3324 184.652C49.3324 184.356 49.3884 184.08 49.5004 183.824C49.6124 183.568 49.7644 183.344 49.9564 183.152C50.1484 182.96 50.3724 182.808 50.6284 182.696C50.8844 182.584 51.1564 182.528 51.4444 182.528C51.7564 182.528 52.0484 182.584 52.3204 182.696C52.5924 182.808 52.8244 182.96 53.0164 183.152C53.2164 183.344 53.3724 183.568 53.4844 183.824C53.5964 184.08 53.6524 184.356 53.6524 184.652C53.6524 184.964 53.5964 185.256 53.4844 185.528C53.3724 185.792 53.2164 186.024 53.0164 186.224C52.8244 186.416 52.5924 186.568 52.3204 186.68C52.0484 186.792 51.7564 186.848 51.4444 186.848C51.1564 186.848 50.8844 186.792 50.6284 186.68C50.3724 186.568 50.1484 186.416 49.9564 186.224C49.7644 186.024 49.6124 185.792 49.5004 185.528C49.3884 185.256 49.3324 184.964 49.3324 184.652ZM54.6996 184.652C54.6996 184.356 54.7556 184.08 54.8676 183.824C54.9796 183.568 55.1316 183.344 55.3236 183.152C55.5156 182.96 55.7396 182.808 55.9956 182.696C56.2516 182.584 56.5236 182.528 56.8116 182.528C57.1236 182.528 57.4156 182.584 57.6876 182.696C57.9596 182.808 58.1916 182.96 58.3836 183.152C58.5836 183.344 58.7396 183.568 58.8516 183.824C58.9636 184.08 59.0196 184.356 59.0196 184.652C59.0196 184.964 58.9636 185.256 58.8516 185.528C58.7396 185.792 58.5836 186.024 58.3836 186.224C58.1916 186.416 57.9596 186.568 57.6876 186.68C57.4156 186.792 57.1236 186.848 56.8116 186.848C56.5236 186.848 56.2516 186.792 55.9956 186.68C55.7396 186.568 55.5156 186.416 55.3236 186.224C55.1316 186.024 54.9796 185.792 54.8676 185.528C54.7556 185.256 54.6996 184.964 54.6996 184.652ZM60.0668 184.652C60.0668 184.356 60.1228 184.08 60.2348 183.824C60.3468 183.568 60.4988 183.344 60.6908 183.152C60.8828 182.96 61.1068 182.808 61.3628 182.696C61.6188 182.584 61.8908 182.528 62.1788 182.528C62.4908 182.528 62.7828 182.584 63.0548 182.696C63.3268 182.808 63.5588 182.96 63.7508 183.152C63.9508 183.344 64.1068 183.568 64.2188 183.824C64.3308 184.08 64.3868 184.356 64.3868 184.652C64.3868 184.964 64.3308 185.256 64.2188 185.528C64.1068 185.792 63.9508 186.024 63.7508 186.224C63.5588 186.416 63.3268 186.568 63.0548 186.68C62.7828 186.792 62.4908 186.848 62.1788 186.848C61.8908 186.848 61.6188 186.792 61.3628 186.68C61.1068 186.568 60.8828 186.416 60.6908 186.224C60.4988 186.024 60.3468 185.792 60.2348 185.528C60.1228 185.256 60.0668 184.964 60.0668 184.652ZM65.434 184.652C65.434 184.356 65.49 184.08 65.602 183.824C65.714 183.568 65.866 183.344 66.058 183.152C66.25 182.96 66.474 182.808 66.73 182.696C66.986 182.584 67.258 182.528 67.546 182.528C67.858 182.528 68.15 182.584 68.422 182.696C68.694 182.808 68.926 182.96 69.118 183.152C69.318 183.344 69.474 183.568 69.586 183.824C69.698 184.08 69.754 184.356 69.754 184.652C69.754 184.964 69.698 185.256 69.586 185.528C69.474 185.792 69.318 186.024 69.118 186.224C68.926 186.416 68.694 186.568 68.422 186.68C68.15 186.792 67.858 186.848 67.546 186.848C67.258 186.848 66.986 186.792 66.73 186.68C66.474 186.568 66.25 186.416 66.058 186.224C65.866 186.024 65.714 185.792 65.602 185.528C65.49 185.256 65.434 184.964 65.434 184.652ZM73.6488 184.652C73.6488 184.356 73.7048 184.08 73.8168 183.824C73.9288 183.568 74.0808 183.344 74.2728 183.152C74.4648 182.96 74.6888 182.808 74.9448 182.696C75.2008 182.584 75.4728 182.528 75.7608 182.528C76.0728 182.528 76.3648 182.584 76.6368 182.696C76.9088 182.808 77.1408 182.96 77.3328 183.152C77.5328 183.344 77.6888 183.568 77.8008 183.824C77.9128 184.08 77.9688 184.356 77.9688 184.652C77.9688 184.964 77.9128 185.256 77.8008 185.528C77.6888 185.792 77.5328 186.024 77.3328 186.224C77.1408 186.416 76.9088 186.568 76.6368 186.68C76.3648 186.792 76.0728 186.848 75.7608 186.848C75.4728 186.848 75.2008 186.792 74.9448 186.68C74.6888 186.568 74.4648 186.416 74.2728 186.224C74.0808 186.024 73.9288 185.792 73.8168 185.528C73.7048 185.256 73.6488 184.964 73.6488 184.652ZM79.016 184.652C79.016 184.356 79.072 184.08 79.184 183.824C79.296 183.568 79.448 183.344 79.64 183.152C79.832 182.96 80.056 182.808 80.312 182.696C80.568 182.584 80.84 182.528 81.128 182.528C81.44 182.528 81.732 182.584 82.004 182.696C82.276 182.808 82.508 182.96 82.7 183.152C82.9 183.344 83.056 183.568 83.168 183.824C83.28 184.08 83.336 184.356 83.336 184.652C83.336 184.964 83.28 185.256 83.168 185.528C83.056 185.792 82.9 186.024 82.7 186.224C82.508 186.416 82.276 186.568 82.004 186.68C81.732 186.792 81.44 186.848 81.128 186.848C80.84 186.848 80.568 186.792 80.312 186.68C80.056 186.568 79.832 186.416 79.64 186.224C79.448 186.024 79.296 185.792 79.184 185.528C79.072 185.256 79.016 184.964 79.016 184.652ZM84.3832 184.652C84.3832 184.356 84.4392 184.08 84.5512 183.824C84.6632 183.568 84.8152 183.344 85.0072 183.152C85.1992 182.96 85.4232 182.808 85.6792 182.696C85.9352 182.584 86.2072 182.528 86.4952 182.528C86.8072 182.528 87.0992 182.584 87.3712 182.696C87.6432 182.808 87.8752 182.96 88.0672 183.152C88.2672 183.344 88.4232 183.568 88.5352 183.824C88.6472 184.08 88.7032 184.356 88.7032 184.652C88.7032 184.964 88.6472 185.256 88.5352 185.528C88.4232 185.792 88.2672 186.024 88.0672 186.224C87.8752 186.416 87.6432 186.568 87.3712 186.68C87.0992 186.792 86.8072 186.848 86.4952 186.848C86.2072 186.848 85.9352 186.792 85.6792 186.68C85.4232 186.568 85.1992 186.416 85.0072 186.224C84.8152 186.024 84.6632 185.792 84.5512 185.528C84.4392 185.256 84.3832 184.964 84.3832 184.652ZM89.7504 184.652C89.7504 184.356 89.8064 184.08 89.9184 183.824C90.0304 183.568 90.1824 183.344 90.3744 183.152C90.5664 182.96 90.7904 182.808 91.0464 182.696C91.3024 182.584 91.5744 182.528 91.8624 182.528C92.1744 182.528 92.4664 182.584 92.7384 182.696C93.0104 182.808 93.2424 182.96 93.4344 183.152C93.6344 183.344 93.7904 183.568 93.9024 183.824C94.0144 184.08 94.0704 184.356 94.0704 184.652C94.0704 184.964 94.0144 185.256 93.9024 185.528C93.7904 185.792 93.6344 186.024 93.4344 186.224C93.2424 186.416 93.0104 186.568 92.7384 186.68C92.4664 186.792 92.1744 186.848 91.8624 186.848C91.5744 186.848 91.3024 186.792 91.0464 186.68C90.7904 186.568 90.5664 186.416 90.3744 186.224C90.1824 186.024 90.0304 185.792 89.9184 185.528C89.8064 185.256 89.7504 184.964 89.7504 184.652ZM104.265 186.992V188H98.7692V186.992H101.097V181.316H98.7812V180.56C99.1172 180.552 99.4212 180.532 99.6932 180.5C99.9652 180.468 100.209 180.412 100.425 180.332C100.649 180.252 100.845 180.14 101.013 179.996C101.181 179.844 101.325 179.648 101.445 179.408H102.189V186.992H104.265ZM109.77 179.144C110.17 179.144 110.538 179.196 110.874 179.3C111.218 179.396 111.51 179.54 111.75 179.732C111.998 179.924 112.19 180.164 112.326 180.452C112.462 180.732 112.53 181.056 112.53 181.424C112.53 181.928 112.406 182.42 112.158 182.9C111.918 183.372 111.59 183.84 111.174 184.304C110.758 184.76 110.274 185.212 109.722 185.66C109.178 186.1 108.602 186.54 107.994 186.98H112.77V188H106.506V187.016C107.274 186.448 107.958 185.92 108.558 185.432C109.166 184.936 109.678 184.468 110.094 184.028C110.51 183.58 110.826 183.156 111.042 182.756C111.266 182.348 111.378 181.952 111.378 181.568C111.378 181.112 111.234 180.748 110.946 180.476C110.666 180.196 110.266 180.056 109.746 180.056C109.514 180.056 109.286 180.092 109.062 180.164C108.838 180.228 108.638 180.34 108.462 180.5C108.294 180.652 108.154 180.852 108.042 181.1C107.938 181.348 107.882 181.652 107.874 182.012H106.746C106.738 181.58 106.802 181.188 106.938 180.836C107.082 180.484 107.286 180.184 107.55 179.936C107.814 179.68 108.134 179.484 108.51 179.348C108.886 179.212 109.306 179.144 109.77 179.144ZM117.771 187.244C118.347 187.244 118.819 187.1 119.187 186.812C119.555 186.524 119.739 186.108 119.739 185.564C119.739 185.252 119.671 184.992 119.535 184.784C119.407 184.568 119.231 184.396 119.007 184.268C118.783 184.14 118.515 184.048 118.203 183.992C117.899 183.936 117.575 183.908 117.231 183.908H117.051V182.912H117.195C117.955 182.912 118.531 182.8 118.923 182.576C119.315 182.352 119.511 181.984 119.511 181.472C119.511 181.24 119.467 181.036 119.379 180.86C119.291 180.684 119.167 180.536 119.007 180.416C118.855 180.296 118.675 180.208 118.467 180.152C118.267 180.088 118.051 180.056 117.819 180.056C117.235 180.056 116.783 180.216 116.463 180.536C116.151 180.848 115.971 181.252 115.923 181.748L114.795 181.748C114.827 181.364 114.919 181.012 115.071 180.692C115.223 180.372 115.427 180.1 115.683 179.876C115.939 179.644 116.247 179.464 116.607 179.336C116.975 179.208 117.387 179.144 117.843 179.144C118.219 179.144 118.575 179.184 118.911 179.264C119.255 179.344 119.555 179.472 119.811 179.648C120.075 179.824 120.283 180.052 120.435 180.332C120.587 180.612 120.663 180.952 120.663 181.352C120.663 181.8 120.539 182.204 120.291 182.564C120.051 182.916 119.703 183.184 119.247 183.368C119.567 183.472 119.835 183.6 120.051 183.752C120.267 183.904 120.435 184.076 120.555 184.268C120.683 184.46 120.771 184.668 120.819 184.892C120.875 185.108 120.903 185.328 120.903 185.552C120.903 185.992 120.815 186.376 120.639 186.704C120.471 187.024 120.243 187.292 119.955 187.508C119.667 187.724 119.331 187.888 118.947 188C118.571 188.104 118.175 188.156 117.759 188.156C117.247 188.156 116.803 188.084 116.427 187.94C116.051 187.788 115.735 187.588 115.479 187.34C115.231 187.092 115.039 186.804 114.903 186.476C114.775 186.14 114.695 185.792 114.663 185.432H115.791C115.855 185.968 116.047 186.404 116.367 186.74C116.687 187.076 117.155 187.244 117.771 187.244ZM123.612 184.82H126.72V180.8L123.612 184.82ZM129.42 185.852H127.824V188H126.72V185.852H122.4V184.82L126.708 179.3H127.824V184.82H129.42V185.852Z" fill="black"></path><path d="M31.44 166.69C31.36 167.09 31.2233 167.443 31.03 167.75C30.8433 168.05 30.6133 168.303 30.34 168.51C30.0667 168.717 29.7567 168.873 29.41 168.98C29.0633 169.08 28.6933 169.13 28.3 169.13C27.78 169.13 27.3167 169.037 26.91 168.85C26.5033 168.663 26.1567 168.403 25.87 168.07C25.59 167.737 25.3767 167.34 25.23 166.88C25.0833 166.42 25.01 165.913 25.01 165.36C25.01 164.8 25.09 164.29 25.25 163.83C25.41 163.37 25.6367 162.977 25.93 162.65C26.2233 162.323 26.5767 162.07 26.99 161.89C27.4033 161.71 27.8667 161.62 28.38 161.62C28.7533 161.62 29.1067 161.677 29.44 161.79C29.7733 161.897 30.07 162.053 30.33 162.26C30.5967 162.467 30.82 162.723 31 163.03C31.1867 163.33 31.32 163.673 31.4 164.06H30.41C30.3567 163.833 30.27 163.623 30.15 163.43C30.0367 163.237 29.8933 163.07 29.72 162.93C29.5467 162.79 29.3433 162.68 29.11 162.6C28.8767 162.52 28.6167 162.48 28.33 162.48C28.01 162.48 27.71 162.543 27.43 162.67C27.1567 162.79 26.9167 162.973 26.71 163.22C26.5033 163.46 26.34 163.76 26.22 164.12C26.1067 164.48 26.05 164.893 26.05 165.36C26.05 165.82 26.1067 166.23 26.22 166.59C26.3333 166.95 26.4933 167.257 26.7 167.51C26.9067 167.757 27.15 167.947 27.43 168.08C27.71 168.207 28.02 168.27 28.36 168.27C28.94 168.27 29.4033 168.123 29.75 167.83C30.1033 167.537 30.3367 167.157 30.45 166.69H31.44ZM35.8759 166.41C35.4625 166.45 35.0892 166.5 34.7559 166.56C34.4225 166.613 34.1392 166.683 33.9059 166.77C33.6725 166.85 33.4925 166.957 33.3659 167.09C33.2392 167.217 33.1759 167.373 33.1759 167.56C33.1759 167.813 33.2659 168.02 33.4459 168.18C33.6325 168.333 33.8892 168.41 34.2159 168.41C34.4292 168.41 34.6359 168.383 34.8359 168.33C35.0359 168.27 35.2125 168.173 35.3659 168.04C35.5192 167.9 35.6425 167.713 35.7359 167.48C35.8292 167.247 35.8759 166.95 35.8759 166.59V166.41ZM34.0159 169.13C33.7625 169.13 33.5225 169.093 33.2959 169.02C33.0759 168.953 32.8792 168.857 32.7059 168.73C32.5392 168.597 32.4059 168.437 32.3059 168.25C32.2125 168.057 32.1659 167.84 32.1659 167.6C32.1659 167.28 32.2525 167.013 32.4259 166.8C32.5992 166.58 32.8425 166.4 33.1559 166.26C33.4759 166.113 33.8592 165.997 34.3059 165.91C34.7525 165.823 35.2525 165.75 35.8059 165.69V165.54C35.8059 165.287 35.7725 165.077 35.7059 164.91C35.6459 164.743 35.5592 164.613 35.4459 164.52C35.3325 164.42 35.1992 164.35 35.0459 164.31C34.8925 164.27 34.7292 164.25 34.5559 164.25C34.1359 164.25 33.8192 164.347 33.6059 164.54C33.3925 164.727 33.2759 164.987 33.2559 165.32H32.3159C32.3359 165.033 32.4125 164.777 32.5459 164.55C32.6792 164.323 32.8492 164.133 33.0559 163.98C33.2625 163.827 33.4959 163.71 33.7559 163.63C34.0159 163.55 34.2859 163.51 34.5659 163.51C35.3125 163.51 35.8592 163.683 36.2059 164.03C36.5525 164.377 36.7225 164.937 36.7159 165.71L36.7059 166.97C36.6992 167.423 36.7059 167.813 36.7259 168.14C36.7525 168.46 36.7925 168.747 36.8459 169H35.9259C35.9125 168.9 35.8992 168.783 35.8859 168.65C35.8725 168.517 35.8625 168.37 35.8559 168.21C35.6892 168.49 35.4592 168.713 35.1659 168.88C34.8792 169.047 34.4959 169.13 34.0159 169.13ZM40.7418 164.57C40.6485 164.557 40.5585 164.547 40.4718 164.54C40.3851 164.533 40.3051 164.53 40.2318 164.53C39.8118 164.53 39.4951 164.657 39.2818 164.91C39.0751 165.163 38.9718 165.587 38.9718 166.18V169H38.0618V163.62H38.9518V164.56C39.0851 164.253 39.2818 164.02 39.5418 163.86C39.8085 163.693 40.1185 163.603 40.4718 163.59C40.5185 163.59 40.5618 163.59 40.6018 163.59C40.6418 163.59 40.6885 163.593 40.7418 163.6V164.57ZM45.1788 161.75H46.0888V169H45.1788V168.19C45.0122 168.477 44.7855 168.707 44.4988 168.88C44.2122 169.047 43.8522 169.13 43.4188 169.13C43.0988 169.13 42.8022 169.07 42.5288 168.95C42.2555 168.823 42.0155 168.64 41.8088 168.4C41.6022 168.16 41.4388 167.867 41.3188 167.52C41.2055 167.173 41.1488 166.777 41.1488 166.33C41.1488 165.89 41.2055 165.497 41.3188 165.15C41.4388 164.803 41.6022 164.51 41.8088 164.27C42.0155 164.03 42.2555 163.847 42.5288 163.72C42.8022 163.593 43.0988 163.53 43.4188 163.53C43.8522 163.53 44.2122 163.617 44.4988 163.79C44.7855 163.957 45.0122 164.183 45.1788 164.47V161.75ZM45.2188 166.33C45.2188 165.977 45.1755 165.673 45.0888 165.42C45.0022 165.16 44.8855 164.95 44.7388 164.79C44.5922 164.623 44.4222 164.503 44.2288 164.43C44.0422 164.35 43.8488 164.31 43.6488 164.31C43.1622 164.31 42.7888 164.487 42.5288 164.84C42.2688 165.187 42.1388 165.683 42.1388 166.33C42.1388 166.977 42.2688 167.477 42.5288 167.83C42.7888 168.177 43.1622 168.35 43.6488 168.35C43.8488 168.35 44.0422 168.313 44.2288 168.24C44.4222 168.16 44.5922 168.04 44.7388 167.88C44.8855 167.713 45.0022 167.503 45.0888 167.25C45.1755 166.99 45.2188 166.683 45.2188 166.33ZM54.3777 169L51.0577 162.81V169H50.0377V161.75H51.5377L54.8477 167.92V161.75H55.8677V169H54.3777ZM60.7766 168.23C60.6232 168.483 60.4132 168.697 60.1466 168.87C59.8866 169.043 59.5332 169.13 59.0866 169.13C58.7732 169.13 58.5066 169.08 58.2866 168.98C58.0732 168.88 57.8966 168.74 57.7566 168.56C57.6232 168.373 57.5232 168.153 57.4566 167.9C57.3966 167.647 57.3666 167.367 57.3666 167.06V163.62H58.2766V166.79C58.2766 166.997 58.2866 167.193 58.3066 167.38C58.3332 167.567 58.3866 167.733 58.4666 167.88C58.5466 168.02 58.6599 168.133 58.8066 168.22C58.9599 168.3 59.1599 168.34 59.4066 168.34C59.8399 168.34 60.1766 168.193 60.4166 167.9C60.6566 167.6 60.7766 167.16 60.7766 166.58V163.62H61.6866V169H60.7766V168.23ZM64.0402 169H63.1302V163.62H64.0402V164.43C64.1935 164.177 64.4002 163.963 64.6602 163.79C64.9202 163.617 65.2535 163.53 65.6602 163.53C66.0735 163.53 66.4035 163.613 66.6502 163.78C66.9035 163.947 67.0902 164.18 67.2102 164.48C67.4235 164.147 67.6835 163.907 67.9902 163.76C68.2968 163.607 68.6402 163.53 69.0202 163.53C69.3335 163.53 69.6002 163.58 69.8202 163.68C70.0402 163.78 70.2202 163.923 70.3602 164.11C70.5002 164.29 70.6002 164.507 70.6602 164.76C70.7268 165.013 70.7602 165.293 70.7602 165.6V169H69.8502V165.87C69.8502 165.663 69.8368 165.467 69.8102 165.28C69.7835 165.093 69.7268 164.93 69.6402 164.79C69.5602 164.643 69.4435 164.53 69.2902 164.45C69.1435 164.363 68.9468 164.32 68.7002 164.32C68.3068 164.32 67.9902 164.47 67.7502 164.77C67.5168 165.063 67.4002 165.5 67.4002 166.08V169H66.4902V165.87C66.4902 165.663 66.4768 165.467 66.4502 165.28C66.4235 165.093 66.3668 164.93 66.2802 164.79C66.2002 164.643 66.0835 164.53 65.9302 164.45C65.7835 164.363 65.5868 164.32 65.3402 164.32C64.9468 164.32 64.6302 164.47 64.3902 164.77C64.1568 165.063 64.0402 165.5 64.0402 166.08V169ZM72.9943 166.33C72.9943 166.683 73.0376 166.99 73.1243 167.25C73.211 167.503 73.3276 167.713 73.4743 167.88C73.621 168.04 73.7876 168.16 73.9743 168.24C74.1676 168.313 74.3643 168.35 74.5643 168.35C75.051 168.35 75.4243 168.177 75.6843 167.83C75.9443 167.477 76.0743 166.977 76.0743 166.33C76.0743 165.683 75.9443 165.187 75.6843 164.84C75.4243 164.487 75.051 164.31 74.5643 164.31C74.3643 164.31 74.1676 164.35 73.9743 164.43C73.7876 164.503 73.621 164.623 73.4743 164.79C73.3276 164.95 73.211 165.16 73.1243 165.42C73.0376 165.673 72.9943 165.977 72.9943 166.33ZM73.0343 161.75V164.47C73.201 164.183 73.4276 163.957 73.7143 163.79C74.001 163.617 74.361 163.53 74.7943 163.53C75.1143 163.53 75.411 163.593 75.6843 163.72C75.9576 163.847 76.1976 164.03 76.4043 164.27C76.611 164.51 76.771 164.803 76.8843 165.15C77.0043 165.497 77.0643 165.89 77.0643 166.33C77.0643 166.777 77.0043 167.173 76.8843 167.52C76.771 167.867 76.611 168.16 76.4043 168.4C76.1976 168.64 75.9576 168.823 75.6843 168.95C75.411 169.07 75.1143 169.13 74.7943 169.13C74.361 169.13 74.001 169.047 73.7143 168.88C73.4276 168.707 73.201 168.477 73.0343 168.19V169H72.1243V161.75H73.0343ZM80.4483 169.13C80.0149 169.13 79.6349 169.06 79.3083 168.92C78.9883 168.773 78.7183 168.573 78.4983 168.32C78.2783 168.067 78.1116 167.77 77.9983 167.43C77.8916 167.09 77.8383 166.72 77.8383 166.32C77.8383 165.893 77.9016 165.51 78.0283 165.17C78.1616 164.823 78.3416 164.53 78.5683 164.29C78.8016 164.043 79.0749 163.857 79.3883 163.73C79.7016 163.597 80.0449 163.53 80.4183 163.53C80.8316 163.53 81.1983 163.61 81.5183 163.77C81.8449 163.93 82.1149 164.15 82.3283 164.43C82.5416 164.71 82.6949 165.037 82.7883 165.41C82.8883 165.783 82.9249 166.183 82.8983 166.61H78.8283C78.8283 166.877 78.8683 167.117 78.9483 167.33C79.0349 167.543 79.1516 167.723 79.2983 167.87C79.4449 168.017 79.6149 168.13 79.8083 168.21C80.0016 168.29 80.2083 168.33 80.4283 168.33C80.8483 168.33 81.1683 168.25 81.3883 168.09C81.6083 167.923 81.7749 167.707 81.8883 167.44H82.8283C82.7683 167.673 82.6716 167.893 82.5383 168.1C82.4049 168.3 82.2383 168.477 82.0383 168.63C81.8449 168.783 81.6149 168.907 81.3483 169C81.0816 169.087 80.7816 169.13 80.4483 169.13ZM80.4183 164.31C79.9583 164.31 79.5849 164.443 79.2983 164.71C79.0116 164.97 78.8583 165.343 78.8383 165.83H81.9383C81.9316 165.643 81.8949 165.46 81.8283 165.28C81.7616 165.093 81.6649 164.93 81.5383 164.79C81.4116 164.643 81.2549 164.527 81.0683 164.44C80.8816 164.353 80.6649 164.31 80.4183 164.31ZM86.65 164.57C86.5567 164.557 86.4667 164.547 86.38 164.54C86.2933 164.533 86.2133 164.53 86.14 164.53C85.72 164.53 85.4033 164.657 85.19 164.91C84.9833 165.163 84.88 165.587 84.88 166.18V169H83.97V163.62H84.86V164.56C84.9933 164.253 85.19 164.02 85.45 163.86C85.7167 163.693 86.0267 163.603 86.38 163.59C86.4267 163.59 86.47 163.59 86.51 163.59C86.55 163.59 86.5967 163.593 86.65 163.6V164.57Z" fill="black" fill-opacity="0.5"></path><path d="M205.44 166.69C205.36 167.09 205.223 167.443 205.03 167.75C204.843 168.05 204.613 168.303 204.34 168.51C204.067 168.717 203.757 168.873 203.41 168.98C203.063 169.08 202.693 169.13 202.3 169.13C201.78 169.13 201.317 169.037 200.91 168.85C200.503 168.663 200.157 168.403 199.87 168.07C199.59 167.737 199.377 167.34 199.23 166.88C199.083 166.42 199.01 165.913 199.01 165.36C199.01 164.8 199.09 164.29 199.25 163.83C199.41 163.37 199.637 162.977 199.93 162.65C200.223 162.323 200.577 162.07 200.99 161.89C201.403 161.71 201.867 161.62 202.38 161.62C202.753 161.62 203.107 161.677 203.44 161.79C203.773 161.897 204.07 162.053 204.33 162.26C204.597 162.467 204.82 162.723 205 163.03C205.187 163.33 205.32 163.673 205.4 164.06H204.41C204.357 163.833 204.27 163.623 204.15 163.43C204.037 163.237 203.893 163.07 203.72 162.93C203.547 162.79 203.343 162.68 203.11 162.6C202.877 162.52 202.617 162.48 202.33 162.48C202.01 162.48 201.71 162.543 201.43 162.67C201.157 162.79 200.917 162.973 200.71 163.22C200.503 163.46 200.34 163.76 200.22 164.12C200.107 164.48 200.05 164.893 200.05 165.36C200.05 165.82 200.107 166.23 200.22 166.59C200.333 166.95 200.493 167.257 200.7 167.51C200.907 167.757 201.15 167.947 201.43 168.08C201.71 168.207 202.02 168.27 202.36 168.27C202.94 168.27 203.403 168.123 203.75 167.83C204.103 167.537 204.337 167.157 204.45 166.69H205.44ZM206.888 161.75L208.898 167.95L210.868 161.75H211.938L209.478 169H208.258L205.768 161.75H206.888ZM218.741 166.69C218.661 167.09 218.524 167.443 218.331 167.75C218.144 168.05 217.914 168.303 217.641 168.51C217.367 168.717 217.057 168.873 216.711 168.98C216.364 169.08 215.994 169.13 215.601 169.13C215.081 169.13 214.617 169.037 214.211 168.85C213.804 168.663 213.457 168.403 213.171 168.07C212.891 167.737 212.677 167.34 212.531 166.88C212.384 166.42 212.311 165.913 212.311 165.36C212.311 164.8 212.391 164.29 212.551 163.83C212.711 163.37 212.937 162.977 213.231 162.65C213.524 162.323 213.877 162.07 214.291 161.89C214.704 161.71 215.167 161.62 215.681 161.62C216.054 161.62 216.407 161.677 216.741 161.79C217.074 161.897 217.371 162.053 217.631 162.26C217.897 162.467 218.121 162.723 218.301 163.03C218.487 163.33 218.621 163.673 218.701 164.06H217.711C217.657 163.833 217.571 163.623 217.451 163.43C217.337 163.237 217.194 163.07 217.021 162.93C216.847 162.79 216.644 162.68 216.411 162.6C216.177 162.52 215.917 162.48 215.631 162.48C215.311 162.48 215.011 162.543 214.731 162.67C214.457 162.79 214.217 162.973 214.011 163.22C213.804 163.46 213.641 163.76 213.521 164.12C213.407 164.48 213.351 164.893 213.351 165.36C213.351 165.82 213.407 166.23 213.521 166.59C213.634 166.95 213.794 167.257 214.001 167.51C214.207 167.757 214.451 167.947 214.731 168.08C215.011 168.207 215.321 168.27 215.661 168.27C216.241 168.27 216.704 168.123 217.051 167.83C217.404 167.537 217.637 167.157 217.751 166.69H218.741Z" fill="black" fill-opacity="0.5"></path><path d="M278.36 161.75H283.28V162.63H279.38V164.83H283.05V165.71H279.38V168.12H283.28V169H278.36V161.75ZM286.743 166.19L288.753 169H287.663L286.203 166.95L284.753 169H283.713L285.693 166.23L283.833 163.62H284.923L286.233 165.47L287.553 163.62H288.573L286.743 166.19ZM290.458 163.62V164.47C290.625 164.183 290.851 163.957 291.138 163.79C291.425 163.617 291.785 163.53 292.218 163.53C292.538 163.53 292.835 163.593 293.108 163.72C293.381 163.847 293.621 164.03 293.828 164.27C294.035 164.51 294.195 164.803 294.308 165.15C294.428 165.497 294.488 165.89 294.488 166.33C294.488 166.777 294.428 167.173 294.308 167.52C294.195 167.867 294.035 168.16 293.828 168.4C293.621 168.64 293.381 168.823 293.108 168.95C292.835 169.07 292.538 169.13 292.218 169.13C291.785 169.13 291.425 169.047 291.138 168.88C290.851 168.707 290.625 168.477 290.458 168.19V170.75H289.548V163.62H290.458ZM290.418 166.33C290.418 166.683 290.461 166.99 290.548 167.25C290.635 167.503 290.751 167.713 290.898 167.88C291.045 168.04 291.211 168.16 291.398 168.24C291.591 168.313 291.788 168.35 291.988 168.35C292.475 168.35 292.848 168.177 293.108 167.83C293.368 167.477 293.498 166.977 293.498 166.33C293.498 165.683 293.368 165.187 293.108 164.84C292.848 164.487 292.475 164.31 291.988 164.31C291.788 164.31 291.591 164.35 291.398 164.43C291.211 164.503 291.045 164.623 290.898 164.79C290.751 164.95 290.635 165.16 290.548 165.42C290.461 165.673 290.418 165.977 290.418 166.33ZM296.464 163.62V169H295.554V163.62H296.464ZM296.464 161.75V162.85H295.554V161.75H296.464ZM300.588 164.57C300.494 164.557 300.404 164.547 300.318 164.54C300.231 164.533 300.151 164.53 300.078 164.53C299.658 164.53 299.341 164.657 299.128 164.91C298.921 165.163 298.818 165.587 298.818 166.18V169H297.908V163.62H298.798V164.56C298.931 164.253 299.128 164.02 299.388 163.86C299.654 163.693 299.964 163.603 300.318 163.59C300.364 163.59 300.408 163.59 300.448 163.59C300.488 163.59 300.534 163.593 300.588 163.6V164.57ZM303.605 169.13C303.171 169.13 302.791 169.06 302.465 168.92C302.145 168.773 301.875 168.573 301.655 168.32C301.435 168.067 301.268 167.77 301.155 167.43C301.048 167.09 300.995 166.72 300.995 166.32C300.995 165.893 301.058 165.51 301.185 165.17C301.318 164.823 301.498 164.53 301.725 164.29C301.958 164.043 302.231 163.857 302.545 163.73C302.858 163.597 303.201 163.53 303.575 163.53C303.988 163.53 304.355 163.61 304.675 163.77C305.001 163.93 305.271 164.15 305.485 164.43C305.698 164.71 305.851 165.037 305.945 165.41C306.045 165.783 306.081 166.183 306.055 166.61H301.985C301.985 166.877 302.025 167.117 302.105 167.33C302.191 167.543 302.308 167.723 302.455 167.87C302.601 168.017 302.771 168.13 302.965 168.21C303.158 168.29 303.365 168.33 303.585 168.33C304.005 168.33 304.325 168.25 304.545 168.09C304.765 167.923 304.931 167.707 305.045 167.44H305.985C305.925 167.673 305.828 167.893 305.695 168.1C305.561 168.3 305.395 168.477 305.195 168.63C305.001 168.783 304.771 168.907 304.505 169C304.238 169.087 303.938 169.13 303.605 169.13ZM303.575 164.31C303.115 164.31 302.741 164.443 302.455 164.71C302.168 164.97 302.015 165.343 301.995 165.83H305.095C305.088 165.643 305.051 165.46 304.985 165.28C304.918 165.093 304.821 164.93 304.695 164.79C304.568 164.643 304.411 164.527 304.225 164.44C304.038 164.353 303.821 164.31 303.575 164.31ZM310.266 165.19C310.192 164.87 310.039 164.643 309.806 164.51C309.579 164.37 309.296 164.3 308.956 164.3C308.816 164.3 308.676 164.313 308.536 164.34C308.396 164.36 308.269 164.4 308.156 164.46C308.049 164.513 307.959 164.583 307.886 164.67C307.819 164.757 307.786 164.86 307.786 164.98C307.786 165.193 307.859 165.353 308.006 165.46C308.152 165.567 308.366 165.65 308.646 165.71L309.406 165.86C309.659 165.913 309.899 165.977 310.126 166.05C310.359 166.123 310.559 166.223 310.726 166.35C310.899 166.47 311.036 166.62 311.136 166.8C311.236 166.98 311.286 167.2 311.286 167.46C311.286 167.727 311.229 167.963 311.116 168.17C311.002 168.377 310.846 168.553 310.646 168.7C310.446 168.84 310.209 168.947 309.936 169.02C309.669 169.093 309.376 169.13 309.056 169.13C308.696 169.13 308.372 169.077 308.086 168.97C307.806 168.863 307.566 168.723 307.366 168.55C307.172 168.377 307.019 168.177 306.906 167.95C306.799 167.723 306.732 167.493 306.706 167.26H307.666C307.739 167.607 307.886 167.877 308.106 168.07C308.332 168.263 308.656 168.36 309.076 168.36C309.442 168.36 309.749 168.29 309.996 168.15C310.242 168.01 310.366 167.813 310.366 167.56C310.366 167.427 310.336 167.31 310.276 167.21C310.216 167.11 310.132 167.027 310.026 166.96C309.926 166.887 309.806 166.83 309.666 166.79C309.532 166.743 309.389 166.703 309.236 166.67L308.436 166.51C308.242 166.47 308.052 166.417 307.866 166.35C307.679 166.283 307.509 166.193 307.356 166.08C307.209 165.967 307.089 165.827 306.996 165.66C306.909 165.487 306.866 165.273 306.866 165.02C306.866 164.78 306.922 164.57 307.036 164.39C307.149 164.203 307.302 164.047 307.496 163.92C307.696 163.787 307.929 163.687 308.196 163.62C308.462 163.553 308.749 163.52 309.056 163.52C309.662 163.52 310.152 163.67 310.526 163.97C310.899 164.27 311.129 164.677 311.216 165.19H310.266Z" fill="black" fill-opacity="0.5"></path><path d="M205.316 186.992V188H199.82V186.992H202.148V181.316H199.832V180.56C200.168 180.552 200.472 180.532 200.744 180.5C201.016 180.468 201.26 180.412 201.476 180.332C201.7 180.252 201.896 180.14 202.064 179.996C202.232 179.844 202.376 179.648 202.496 179.408H203.24V186.992H205.316ZM210.821 179.144C211.221 179.144 211.589 179.196 211.925 179.3C212.269 179.396 212.561 179.54 212.801 179.732C213.049 179.924 213.241 180.164 213.377 180.452C213.513 180.732 213.581 181.056 213.581 181.424C213.581 181.928 213.457 182.42 213.209 182.9C212.969 183.372 212.641 183.84 212.225 184.304C211.809 184.76 211.325 185.212 210.773 185.66C210.229 186.1 209.653 186.54 209.045 186.98H213.821V188H207.557V187.016C208.325 186.448 209.009 185.92 209.609 185.432C210.217 184.936 210.729 184.468 211.145 184.028C211.561 183.58 211.877 183.156 212.093 182.756C212.317 182.348 212.429 181.952 212.429 181.568C212.429 181.112 212.285 180.748 211.997 180.476C211.717 180.196 211.317 180.056 210.797 180.056C210.565 180.056 210.337 180.092 210.113 180.164C209.889 180.228 209.689 180.34 209.513 180.5C209.345 180.652 209.205 180.852 209.093 181.1C208.989 181.348 208.933 181.652 208.925 182.012H207.797C207.789 181.58 207.853 181.188 207.989 180.836C208.133 180.484 208.337 180.184 208.601 179.936C208.865 179.68 209.185 179.484 209.561 179.348C209.937 179.212 210.357 179.144 210.821 179.144ZM218.822 187.244C219.398 187.244 219.87 187.1 220.238 186.812C220.606 186.524 220.79 186.108 220.79 185.564C220.79 185.252 220.722 184.992 220.586 184.784C220.458 184.568 220.282 184.396 220.058 184.268C219.834 184.14 219.566 184.048 219.254 183.992C218.95 183.936 218.626 183.908 218.282 183.908H218.102V182.912H218.246C219.006 182.912 219.582 182.8 219.974 182.576C220.366 182.352 220.562 181.984 220.562 181.472C220.562 181.24 220.518 181.036 220.43 180.86C220.342 180.684 220.218 180.536 220.058 180.416C219.906 180.296 219.726 180.208 219.518 180.152C219.318 180.088 219.102 180.056 218.87 180.056C218.286 180.056 217.834 180.216 217.514 180.536C217.202 180.848 217.022 181.252 216.974 181.748H215.846C215.878 181.364 215.97 181.012 216.122 180.692C216.274 180.372 216.478 180.1 216.734 179.876C216.99 179.644 217.298 179.464 217.658 179.336C218.026 179.208 218.438 179.144 218.894 179.144C219.27 179.144 219.626 179.184 219.962 179.264C220.306 179.344 220.606 179.472 220.862 179.648C221.126 179.824 221.334 180.052 221.486 180.332C221.638 180.612 221.714 180.952 221.714 181.352C221.714 181.8 221.59 182.204 221.342 182.564C221.102 182.916 220.754 183.184 220.298 183.368C220.618 183.472 220.886 183.6 221.102 183.752C221.318 183.904 221.486 184.076 221.606 184.268C221.734 184.46 221.822 184.668 221.87 184.892C221.926 185.108 221.954 185.328 221.954 185.552C221.954 185.992 221.866 186.376 221.69 186.704C221.522 187.024 221.294 187.292 221.006 187.508C220.718 187.724 220.382 187.888 219.998 188C219.622 188.104 219.226 188.156 218.81 188.156C218.298 188.156 217.854 188.084 217.478 187.94C217.102 187.788 216.786 187.588 216.53 187.34C216.282 187.092 216.09 186.804 215.954 186.476C215.826 186.14 215.746 185.792 215.714 185.432H216.842C216.906 185.968 217.098 186.404 217.418 186.74C217.738 187.076 218.206 187.244 218.822 187.244Z" fill="black"></path><path d="M283.776 183.644C283.776 182.436 283.576 181.536 283.176 180.944C282.776 180.352 282.236 180.056 281.556 180.056C280.868 180.056 280.324 180.352 279.924 180.944C279.532 181.536 279.336 182.436 279.336 183.644C279.336 184.86 279.532 185.764 279.924 186.356C280.324 186.948 280.868 187.244 281.556 187.244C282.244 187.244 282.784 186.948 283.176 186.356C283.576 185.764 283.776 184.86 283.776 183.644ZM284.94 183.644C284.94 184.332 284.872 184.956 284.736 185.516C284.6 186.068 284.392 186.54 284.112 186.932C283.84 187.324 283.488 187.628 283.056 187.844C282.632 188.052 282.132 188.156 281.556 188.156C280.98 188.156 280.476 188.052 280.044 187.844C279.62 187.628 279.268 187.324 278.988 186.932C278.716 186.54 278.512 186.068 278.376 185.516C278.24 184.956 278.172 184.332 278.172 183.644C278.172 182.956 278.24 182.336 278.376 181.784C278.512 181.224 278.716 180.752 278.988 180.368C279.268 179.976 279.62 179.676 280.044 179.468C280.476 179.252 280.98 179.144 281.556 179.144C282.132 179.144 282.632 179.252 283.056 179.468C283.488 179.676 283.84 179.976 284.112 180.368C284.392 180.752 284.6 181.224 284.736 181.784C284.872 182.336 284.94 182.956 284.94 183.644ZM292.449 186.992V188H286.953V186.992H289.281V181.316H286.965V180.56C287.301 180.552 287.605 180.532 287.877 180.5C288.149 180.468 288.393 180.412 288.609 180.332C288.833 180.252 289.029 180.14 289.197 179.996C289.365 179.844 289.509 179.648 289.629 179.408H290.373V186.992H292.449ZM293.766 188L297.186 179.3H298.29L294.858 188H293.766ZM302.477 179.144C302.877 179.144 303.245 179.196 303.581 179.3C303.925 179.396 304.217 179.54 304.457 179.732C304.705 179.924 304.897 180.164 305.033 180.452C305.169 180.732 305.237 181.056 305.237 181.424C305.237 181.928 305.113 182.42 304.865 182.9C304.625 183.372 304.297 183.84 303.881 184.304C303.465 184.76 302.981 185.212 302.429 185.66C301.885 186.1 301.309 186.54 300.701 186.98H305.477V188H299.213V187.016C299.981 186.448 300.665 185.92 301.265 185.432C301.873 184.936 302.385 184.468 302.801 184.028C303.217 183.58 303.533 183.156 303.749 182.756C303.973 182.348 304.085 181.952 304.085 181.568C304.085 181.112 303.941 180.748 303.653 180.476C303.373 180.196 302.973 180.056 302.453 180.056C302.221 180.056 301.993 180.092 301.769 180.164C301.545 180.228 301.345 180.34 301.169 180.5C301.001 180.652 300.861 180.852 300.749 181.1C300.645 181.348 300.589 181.652 300.581 182.012H299.453C299.445 181.58 299.509 181.188 299.645 180.836C299.789 180.484 299.993 180.184 300.257 179.936C300.521 179.68 300.841 179.484 301.217 179.348C301.593 179.212 302.013 179.144 302.477 179.144ZM310.478 187.244C310.742 187.244 310.99 187.2 311.222 187.112C311.454 187.016 311.658 186.88 311.834 186.704C312.018 186.52 312.162 186.3 312.266 186.044C312.37 185.78 312.422 185.48 312.422 185.144C312.422 184.784 312.362 184.476 312.242 184.22C312.13 183.956 311.982 183.74 311.798 183.572C311.614 183.404 311.406 183.28 311.174 183.2C310.942 183.12 310.706 183.08 310.466 183.08C310.242 183.08 310.038 183.112 309.854 183.176C309.67 183.232 309.506 183.308 309.362 183.404C309.218 183.492 309.098 183.596 309.002 183.716C308.906 183.828 308.834 183.936 308.786 184.04L307.694 183.98L308.258 179.3H313.25V180.32H309.146L308.846 182.792C309.078 182.568 309.358 182.404 309.686 182.3C310.014 182.188 310.358 182.132 310.718 182.132C311.102 182.132 311.466 182.2 311.81 182.336C312.154 182.464 312.454 182.656 312.71 182.912C312.974 183.168 313.182 183.484 313.334 183.86C313.494 184.228 313.574 184.652 313.574 185.132C313.574 185.628 313.486 186.068 313.31 186.452C313.142 186.828 312.914 187.144 312.626 187.4C312.346 187.648 312.018 187.836 311.642 187.964C311.274 188.092 310.886 188.156 310.478 188.156C309.974 188.156 309.538 188.084 309.17 187.94C308.802 187.788 308.49 187.592 308.234 187.352C307.986 187.104 307.79 186.82 307.646 186.5C307.51 186.172 307.422 185.832 307.382 185.48H308.51C308.598 186.032 308.794 186.464 309.098 186.776C309.41 187.088 309.87 187.244 310.478 187.244Z" fill="black"></path></svg>