<svg xmlns="http://www.w3.org/2000/svg" xmlns:xlink="http://www.w3.org/1999/xlink" fill="none" height="280" viewBox="0 0 440 280" width="440"><clipPath id="a"><path d="m0 16c0-8.83656 7.16344-16 16-16h408c8.837 0 16 7.16344 16 16v248c0 8.837-7.163 16-16 16h-408c-8.83654 0-16-7.163-16-16z"></path></clipPath><g clip-path="url(#a)"><path d="m0 16c0-8.83656 7.16344-16 16-16h408c8.837 0 16 7.16344 16 16v248c0 8.837-7.163 16-16 16h-408c-8.83654 0-16-7.163-16-16z" fill="#000"></path><g fill="#fff"><path d="m0 0h392v24h-392z" fill-opacity=".1" transform="translate(24 24)"></path><path d="m0 0h44v24h-44z" fill-opacity=".1" transform="translate(24 24)"></path><path d="m35.64 31.75h1.02v4.95c0 .7933-.2033 1.3967-.61 1.81-.4.4133-.9567.62-1.67.62-.7067 0-1.2633-.1967-1.67-.59-.4-.4-.6-.9933-.6-1.78h.95c0 .2533.0333.4767.1.67.0733.1867.17.3467.29.48.12.1267.26.2233.42.29s.33.1.51.1c.1467 0 .2933-.02.44-.06.1533-.0467.29-.13.41-.25s.2167-.2833.29-.49c.08-.2133.12-.4833.12-.81zm2.4376 1.85c0-.3467.08-.6433.24-.89.1666-.2533.3766-.46.63-.62.2533-.16.5333-.2767.84-.35.3133-.08.6166-.12.91-.12.3266 0 .64.04.94.12.3.0733.57.19.81.35.2466.16.4566.3667.63.62.1733.2467.2966.5433.37.89h-.99c-.06-.2067-.1534-.38-.28-.52-.1267-.1467-.2734-.2633-.44-.35-.1667-.0933-.3434-.1567-.53-.19-.1867-.04-.37-.06-.55-.06-.14 0-.3.0167-.48.05-.1734.0333-.34.0933-.5.18-.16.08-.2934.19-.4.33-.1067.1333-.16.3-.16.5 0 .32.11.5667.33.74.2266.1733.51.2967.85.37l.84.19c.28.06.5633.1367.85.23.2866.0867.5466.21.78.37.24.16.4333.3633.58.61.1533.24.23.5433.23.91 0 .3533-.0767.6667-.23.94-.1534.2667-.3567.4933-.61.68-.2534.18-.5467.3167-.88.41-.3334.0933-.68.14-1.04.14-.4267 0-.8134-.0567-1.16-.17-.3467-.1133-.6467-.2733-.9-.48-.2534-.2067-.46-.4567-.62-.75-.1534-.2933-.2534-.62-.3-.98h1c.0933.5.31.88.65 1.14.34.2533.79.38 1.35.38.54 0 .9566-.1133 1.25-.34.2933-.2267.44-.52.44-.88 0-.1867-.04-.35-.12-.49-.0734-.14-.18-.26-.32-.36s-.3067-.1833-.5-.25c-.1867-.0667-.3934-.1267-.62-.18l-.9-.19c-.2467-.0533-.49-.13-.73-.23s-.4534-.23-.64-.39c-.1867-.16-.3367-.35-.45-.57-.1134-.2267-.17-.49-.17-.79zm7.4255 1.77c0 .4667.06.88.18 1.24.1267.36.2934.6633.5.91.2134.2467.4634.4333.75.56.2867.1267.5967.19.93.19.3267 0 .6334-.0633.92-.19.2934-.1267.5434-.3133.75-.56.2134-.2467.38-.55.5-.91.1267-.36.19-.7733.19-1.24s-.0633-.88-.19-1.24c-.12-.36-.2866-.66-.5-.9-.2066-.2467-.4566-.4333-.75-.56-.2866-.1267-.5933-.19-.92-.19-.3333 0-.6433.0633-.93.19-.2866.1267-.5366.3133-.75.56-.2066.24-.3733.54-.5.9-.12.36-.18.7733-.18 1.24zm5.76 0c0 .5467-.08 1.05-.24 1.51-.1533.46-.38.8567-.68 1.19-.2933.3333-.65.5933-1.07.78s-.89.28-1.41.28-.99-.0933-1.41-.28-.78-.4467-1.08-.78c-.2933-.3333-.52-.73-.68-1.19-.1533-.46-.23-.9633-.23-1.51s.0767-1.05.23-1.51c.16-.46.3867-.8533.68-1.18.3-.3333.66-.5933 1.08-.78s.89-.28 1.41-.28.99.0933 1.41.28.7767.4467 1.07.78c.3.3267.5267.72.68 1.18.16.46.24.9633.24 1.51zm5.7123 3.63-3.32-6.19v6.19h-1.02v-7.25h1.5l3.31 6.17v-6.17h1.02v7.25z" fill-opacity=".5"></path><path d="m28.1 83.75c-1.21 0-1.45-.36-1.45-1.48v-1.62c0-.63-.1-1.03-.76-1.03v-.74c.66 0 .76-.41.76-1.03v-1.62c0-1.12.24-1.48 1.45-1.48h.48v.77h-.46c-.47 0-.56.14-.56.7v1.65c0 .93-.31 1.23-.84 1.37v.02c.53.14.84.44.84 1.37v1.65c0 .56.09.7.56.7h.46v.77zm154.856 8.02h-1.15v-1.15h1.15zm0 4.23h-1.15v-1.15h1.15zm11.08-7.25h1.02l-.2 2.53h-.62zm1.54 0h1.02l-.2 2.53h-.62zm6.245 0h.6v6.46h1.52v.79h-4.29v-.79h1.85v-4.88h-1.85v-.63c1.21-.03 1.8-.16 2.17-.95zm6.535-.13c1.27 0 2.22.72 2.22 1.95 0 1.68-1.62 3.16-3.47 4.64h3.6v.79h-4.89v-.79c2.43-1.89 3.78-3.25 3.78-4.52 0-.75-.43-1.29-1.25-1.29-.75 0-1.44.46-1.46 1.65h-.94c-.02-1.38.94-2.43 2.41-2.43zm6.324 6.72c.92 0 1.55-.51 1.55-1.37 0-1.02-.87-1.39-1.98-1.39h-.14v-.81h.11c1.19 0 1.83-.39 1.83-1.23 0-.73-.6-1.14-1.34-1.14-.92 0-1.42.59-1.49 1.4h-.94c.1-1.28 1.04-2.18 2.46-2.18 1.17 0 2.29.51 2.29 1.83 0 .74-.4 1.38-1.13 1.68 1.02.35 1.31 1.09 1.31 1.83 0 1.44-1.26 2.17-2.54 2.17-1.61 0-2.4-1.11-2.49-2.29h.93c.1.88.6 1.5 1.57 1.5zm6.465 0c.92 0 1.55-.51 1.55-1.37 0-1.02-.87-1.39-1.98-1.39h-.14v-.81h.11c1.19 0 1.83-.39 1.83-1.23 0-.73-.6-1.14-1.34-1.14-.92 0-1.42.59-1.49 1.4h-.94c.1-1.28 1.04-2.18 2.46-2.18 1.17 0 2.29.51 2.29 1.83 0 .74-.4 1.38-1.13 1.68 1.02.35 1.31 1.09 1.31 1.83 0 1.44-1.26 2.17-2.54 2.17-1.61 0-2.4-1.11-2.49-2.29h.93c.1.88.6 1.5 1.57 1.5zm7.115-5.35-2.46 3.36h2.46zm2.13 3.36v.86h-1.21v1.79h-.92v-1.79h-3.42v-.86l3.41-4.6h.93v4.6zm3.705 1.99c.83 0 1.53-.62 1.53-1.72 0-1.18-.8-1.66-1.55-1.66-.69 0-1.17.41-1.32.76l-.96-.04.47-3.93h4.02v.78h-3.24l-.26 2.17c.38-.37.92-.54 1.5-.54 1.2 0 2.32.88 2.32 2.45 0 1.64-1.23 2.52-2.52 2.52-1.61 0-2.4-1.11-2.49-2.29h.93c.1.88.6 1.5 1.57 1.5zm5.005-1.66c0 .99.59 1.66 1.5 1.66.88 0 1.51-.68 1.51-1.66 0-.97-.62-1.68-1.5-1.68-.9 0-1.51.71-1.51 1.68zm1.64-4.28c-1.11 0-1.7 1.12-1.74 2.77.31-.56.9-.99 1.82-.99 1.28 0 2.27 1.02 2.27 2.46 0 1.33-1 2.49-2.48 2.49-1.72 0-2.56-1.27-2.56-3.47 0-2.04.75-4.04 2.74-4.04 1.35 0 2.04.89 2.18 1.79h-.99c-.11-.64-.58-1.01-1.24-1.01zm3.885.13v-.78h5.09v.78c-1.85 1.42-3.06 3.81-3.13 6.47h-1.05c.16-2.6 1.34-5.06 3.06-6.47zm8.875-.91c1.41 0 2.35.79 2.35 1.85 0 .58-.27 1.28-.95 1.66.9.39 1.17 1.18 1.17 1.83 0 1.36-1.15 2.17-2.57 2.17s-2.57-.81-2.57-2.17c0-.65.26-1.44 1.17-1.83-.69-.38-.96-1.08-.96-1.66 0-1.06.95-1.85 2.36-1.85zm0 3.92c-.97 0-1.6.58-1.6 1.42s.63 1.38 1.6 1.38 1.59-.54 1.59-1.38-.62-1.42-1.59-1.42zm1.43-1.98c0-.74-.57-1.15-1.43-1.15s-1.43.44-1.43 1.15c0 .72.57 1.27 1.43 1.27s1.43-.55 1.43-1.27zm3.754-1.81h1.02l-.2 2.53h-.62zm1.54 0h1.02l-.2 2.53h-.62zm5.625 7.25v-1.15h1.15v1.23l-.61 1.31h-.58l.53-1.39zm-147.541 9.77h-1.15v-1.15h1.15zm0 4.23h-1.15v-1.15h1.15zm11.08-7.25h1.02l-.2 2.53h-.62zm1.54 0h1.02l-.2 2.53h-.62zm4.184 0h1.78c1.59 0 2.81.43 2.81 2.23s-1.22 2.23-2.81 2.23h-.83v2.79h-.95zm1.9.9h-.95v2.66h.95c.97 0 1.71-.15 1.71-1.33s-.74-1.33-1.71-1.33zm6.215-.9h.92v1.09h-.92zm-1.52 1.87h2.44v4.59h1.53v.79h-3.97v-.79h1.52v-3.8h-1.52zm7.145 0v.81c.3-.52.79-.9 1.59-.9 1.24 0 2.17 1.03 2.17 2.8 0 1.78-.93 2.8-2.17 2.8-.8 0-1.29-.38-1.59-.89v2.51h-.92v-7.13zm-.04 2.71c0 1.42.67 2.04 1.44 2.04.92 0 1.39-.76 1.39-2.04s-.47-2.03-1.39-2.03c-.77 0-1.44.61-1.44 2.03zm7.745 2.8c-1.63 0-2.44-1.21-2.44-2.8 0-1.73 1.02-2.81 2.44-2.81 1.57 0 2.47 1.15 2.4 3.07h-3.87c0 1.08.6 1.79 1.45 1.79.8 0 1.2-.38 1.39-.99h.95c-.22 1.02-1.06 1.74-2.32 1.74zm0-4.85c-.87 0-1.42.51-1.46 1.55h2.88c.01-.88-.48-1.55-1.42-1.55zm10.59-1.63v-.9h4.61v.9h-1.83v5.45h1.83v.9h-4.61v-.9h1.83v-5.45zm7.604.97v.76c.27-.46.73-.85 1.58-.85 1.3 0 1.69.86 1.69 2.05v3.42h-.92v-3.1c0-.87-.07-1.59-1.07-1.59-.83 0-1.28.62-1.28 1.77v2.92h-.92v-5.38zm7.735-.09c1.25 0 2.08.91 2.16 1.88h-.93c-.12-.66-.61-1.12-1.27-1.12-.8 0-1.46.69-1.46 2.04 0 1.37.66 2.05 1.46 2.05.73 0 1.19-.53 1.31-1.11h.95c-.15 1.07-1.11 1.86-2.31 1.86-1.49 0-2.38-1.16-2.38-2.8 0-1.6.93-2.8 2.47-2.8zm5.085-1.78h1.02l-.2 2.53h-.62zm1.54 0h1.02l-.2 2.53h-.62zm5.625 7.25v-1.15h1.15v1.23l-.61 1.31h-.58l.53-1.39zm-50.569 9.77h-1.15v-1.15h1.15zm0 4.23h-1.15v-1.15h1.15zm13.23 1.75c-1.21 0-1.45-.36-1.45-1.48v-1.62c0-.63-.1-1.03-.76-1.03v-.74c.66 0 .76-.41.76-1.03v-1.62c0-1.12.24-1.48 1.45-1.48h.48v.77h-.46c-.47 0-.56.14-.56.7v1.65c0 .93-.31 1.23-.84 1.37v.02c.53.14.84.44.84 1.37v1.65c0 .56.09.7.56.7h.46v.77zm-64.9486 8.02h-1.15v-1.15h1.15zm0 4.23h-1.15v-1.15h1.15zm11.0796-7.25h1.02l-.2 2.53h-.62zm1.54 0h1.02l-.2 2.53h-.62zm3.765 0h.95v4.41c0 1.42.25 2.09 1.48 2.09 1.25 0 1.5-.77 1.5-2.2v-4.3h.95v4.22c0 2.12-.56 3.16-2.45 3.16-1.81 0-2.43-.82-2.43-3.08zm8.325 3.83c-.95-.21-1.83-.82-1.83-1.97 0-1.25 1.08-1.99 2.38-1.99 1.12 0 2.25.6 2.41 2.04h-.94c-.11-.87-.86-1.16-1.52-1.16s-1.35.33-1.35 1.08c0 .64.47.95 1.05 1.08l.72.16c1.17.26 2.19.77 2.19 2.15 0 1.35-1.05 2.16-2.45 2.16-1.47 0-2.54-.95-2.62-2.39h.94c.1.97.78 1.51 1.71 1.51.72 0 1.46-.38 1.46-1.21 0-.75-.57-1.09-1.36-1.27zm5.765-3.83h1.02l-.2 2.53h-.62zm1.54 0h1.02l-.2 2.53h-.62zm5.625 7.25v-1.15h1.15v1.23l-.61 1.31h-.58l.53-1.39zm-50.5692 9.77h-1.15v-1.15h1.15zm0 4.23h-1.15v-1.15h1.15zm13.2296 1.75c-1.21 0-1.45-.36-1.45-1.48v-1.62c0-.63-.1-1.03-.76-1.03v-.74c.66 0 .76-.41.76-1.03v-1.62c0-1.12.24-1.48 1.45-1.48h.48v.77h-.46c-.47 0-.56.14-.56.7v1.65c0 .93-.31 1.23-.84 1.37v.02c.53.14.84.44.84 1.37v1.65c0 .56.09.7.56.7h.46v.77zm6.1649 8.02h-1.15v-1.15h1.15zm0 4.23h-1.15v-1.15h1.15zm11.0797-7.25h1.02l-.2 2.53h-.62zm1.54 0h1.02l-.2 2.53h-.62zm6.195 7.38c-1.83 0-2.53-1.54-2.53-3.79s.7-3.72 2.53-3.72 2.54 1.47 2.54 3.72-.71 3.79-2.54 3.79zm-1.6-3.79c0 .13 0 .25.01.37l3.13-1.43c-.16-1.26-.67-1.88-1.54-1.88-1.09 0-1.6.96-1.6 2.94zm1.6 3c1.09 0 1.61-1.02 1.61-3 0-.11 0-.21-.01-.32l-3.13 1.45c.17 1.24.67 1.87 1.53 1.87zm6.465.79c-1.83 0-2.53-1.54-2.53-3.79s.7-3.72 2.53-3.72 2.54 1.47 2.54 3.72-.71 3.79-2.54 3.79zm-1.6-3.79c0 .13 0 .25.01.37l3.13-1.43c-.16-1.26-.67-1.88-1.54-1.88-1.09 0-1.6.96-1.6 2.94zm1.6 3c1.09 0 1.61-1.02 1.61-3 0-.11 0-.21-.01-.32l-3.13 1.45c.17 1.24.67 1.87 1.53 1.87zm6.515-6.59h.6v6.46h1.52v.79h-4.29v-.79h1.85v-4.88h-1.85v-.63c1.21-.03 1.8-.16 2.17-.95zm6.414 7.38c-1.83 0-2.53-1.54-2.53-3.79s.7-3.72 2.53-3.72 2.54 1.47 2.54 3.72-.71 3.79-2.54 3.79zm-1.6-3.79c0 .13 0 .25.01.37l3.13-1.43c-.16-1.26-.67-1.88-1.54-1.88-1.09 0-1.6.96-1.6 2.94zm1.6 3c1.09 0 1.61-1.02 1.61-3 0-.11 0-.21-.01-.32l-3.13 1.45c.17 1.24.67 1.87 1.53 1.87zm6.515-6.59h.6v6.46h1.52v.79h-4.29v-.79h1.85v-4.88h-1.85v-.63c1.21-.03 1.8-.16 2.17-.95zm6.415 7.38c-1.83 0-2.53-1.54-2.53-3.79s.7-3.72 2.53-3.72 2.54 1.47 2.54 3.72-.71 3.79-2.54 3.79zm-1.6-3.79c0 .13 0 .25.01.37l3.13-1.43c-.16-1.26-.67-1.88-1.54-1.88-1.09 0-1.6.96-1.6 2.94zm1.6 3c1.09 0 1.61-1.02 1.61-3 0-.11 0-.21-.01-.32l-3.13 1.45c.17 1.24.67 1.87 1.53 1.87zm6.465.79c-1.83 0-2.53-1.54-2.53-3.79s.7-3.72 2.53-3.72 2.54 1.47 2.54 3.72-.71 3.79-2.54 3.79zm-1.6-3.79c0 .13 0 .25.01.37l3.13-1.43c-.16-1.26-.67-1.88-1.54-1.88-1.09 0-1.6.96-1.6 2.94zm1.6 3c1.09 0 1.61-1.02 1.61-3 0-.11 0-.21-.01-.32l-3.13 1.45c.17 1.24.67 1.87 1.53 1.87zm6.465.79c-1.83 0-2.53-1.54-2.53-3.79s.7-3.72 2.53-3.72 2.54 1.47 2.54 3.72-.71 3.79-2.54 3.79zm-1.6-3.79c0 .13 0 .25.01.37l3.13-1.43c-.16-1.26-.67-1.88-1.54-1.88-1.09 0-1.6.96-1.6 2.94zm1.6 3c1.09 0 1.61-1.02 1.61-3 0-.11 0-.21-.01-.32l-3.13 1.45c.17 1.24.67 1.87 1.53 1.87zm6.515-6.59h.6v6.46h1.52v.79h-4.29v-.79h1.85v-4.88h-1.85v-.63c1.21-.03 1.8-.16 2.17-.95zm5.144 0h1.02l-.2 2.53h-.62zm1.54 0h1.02l-.2 2.53h-.62zm-124.4416 23v-.77h.45c.47 0 .56-.14.56-.7v-1.65c0-.93.31-1.23.84-1.37v-.02c-.53-.14-.84-.44-.84-1.37v-1.65c0-.56-.09-.7-.56-.7h-.45v-.77h.47c1.21 0 1.45.36 1.45 1.48v1.62c0 .62.1 1.03.77 1.03v.74c-.67 0-.77.4-.77 1.03v1.62c0 1.12-.24 1.48-1.45 1.48zm-12.9297 14v-.77h.45c.47 0 .56-.14.56-.7v-1.65c0-.93.31-1.23.84-1.37v-.02c-.53-.14-.84-.44-.84-1.37v-1.65c0-.56-.09-.7-.56-.7h-.45v-.77h.47c1.21 0 1.45.36 1.45 1.48v1.62c0 .62.1 1.03.77 1.03v.74c-.67 0-.77.4-.77 1.03v1.62c0 1.12-.24 1.48-1.45 1.48zm7.2348-1.75v-1.15h1.15v1.23l-.61 1.31h-.58l.53-1.39zm39.9391 9.77h-1.15v-1.15h1.15zm0 4.23h-1.15v-1.15h1.15zm11.0797-7.25h1.02l-.2 2.53h-.62zm1.54 0h1.02l-.2 2.53h-.62zm6.4747 2.46c.23-.42.58-.68 1.07-.68.56 0 1.11.26 1.11 1.68v3.79h-.92v-3.32c0-.78 0-1.38-.46-1.38s-.6.54-.6 1.65v3.05h-.92v-3.32c0-.78 0-1.38-.45-1.38-.47 0-.61.55-.61 1.67v3.03h-.92v-5.38h.88v.57c.18-.35.47-.66.98-.66.49 0 .72.32.84.68zm4.795 6.54h-1.06v-.79h.97c.56 0 .74-.07 1.02-.84l.04-.12-2.01-5.38h1.01l1.46 4.15 1.43-4.15h.95l-1.99 5.61c-.38 1.06-.68 1.52-1.82 1.52zm7.895-1.62c-1.63 0-2.44-1.21-2.44-2.8 0-1.73 1.02-2.81 2.44-2.81 1.57 0 2.47 1.15 2.4 3.07h-3.87c0 1.08.6 1.79 1.45 1.79.8 0 1.2-.38 1.39-.99h.95c-.22 1.02-1.06 1.74-2.32 1.74zm0-4.85c-.87 0-1.42.51-1.46 1.55h2.88c.01-.88-.48-1.55-1.42-1.55zm6.705-.07c.23-.42.58-.68 1.07-.68.56 0 1.11.26 1.11 1.68v3.79h-.92v-3.32c0-.78 0-1.38-.46-1.38s-.6.54-.6 1.65v3.05h-.92v-3.32c0-.78 0-1.38-.45-1.38-.47 0-.61.55-.61 1.67v3.03h-.92v-5.38h.88v.57c.18-.35.47-.66.98-.66.49 0 .72.32.84.68zm5.655 4.92c-.97 0-1.75-.56-1.75-1.53 0-1.28 1.36-1.67 3.56-1.91v-.23c0-.93-.51-1.21-1.21-1.21-.83 0-1.22.41-1.28 1.07h-.94c.09-1.16 1.11-1.81 2.23-1.81 1.49 0 2.13.66 2.11 2.15l-.01 1.31c-.01.9.04 1.67.07 2.03h-.88l-.01-.79c-.33.56-.89.92-1.89.92zm1.88-2.56v-.15c-1.64.16-2.64.39-2.64 1.16 0 .51.37.81 1.02.81.82 0 1.62-.39 1.62-1.82zm4.754-4.82h.92v1.09h-.92zm-1.52 1.87h2.44v4.59h1.53v.79h-3.97v-.79h1.52v-3.8h-1.52zm6.405-1.87h2.44v6.46h1.53v.79h-3.97v-.79h1.52v-5.68h-1.52zm9.905 5.69c-.41 0-.73-.33-.8-.93-.23.57-.63.9-1.19.9-.63 0-1.17-.58-1.17-1.83 0-1.15.61-2.35 1.61-2.35.44 0 .77.31.92.77l.06-.6h.56l-.24 2.2c-.03.35-.1 1.22.35 1.22.39 0 .75-.8.75-1.9 0-1.67-.9-2.71-2.21-2.71-1.46 0-2.45 1.51-2.45 3.25 0 1.64.81 3.02 2.14 3.02.49 0 1.09-.1 1.53-.39l.24.59c-.54.31-1.24.45-1.77.45-1.66 0-2.77-1.6-2.77-3.69 0-2.14 1.34-3.82 3.1-3.82 1.53 0 2.79 1.06 2.79 3.26 0 1.62-.73 2.56-1.45 2.56zm-1.54-3.55c-.58 0-.95.88-.95 1.7 0 .7.24 1.18.68 1.18.61 0 .96-.9.96-1.77 0-.62-.25-1.11-.69-1.11zm6.785.32c.23-.42.58-.68 1.07-.68.56 0 1.11.26 1.11 1.68v3.79h-.92v-3.32c0-.78 0-1.38-.46-1.38s-.6.54-.6 1.65v3.05h-.92v-3.32c0-.78 0-1.38-.45-1.38-.47 0-.61.55-.61 1.67v3.03h-.92v-5.38h.88v.57c.18-.35.47-.66.98-.66.49 0 .72.32.84.68zm4.795 6.54h-1.06v-.79h.97c.56 0 .74-.07 1.02-.84l.04-.12-2.01-5.38h1.01l1.46 4.15 1.43-4.15h.95l-1.99 5.61c-.38 1.06-.68 1.52-1.82 1.52zm7.965-7.22c1.25 0 2.08.91 2.16 1.88h-.93c-.12-.66-.61-1.12-1.27-1.12-.8 0-1.46.69-1.46 2.04 0 1.37.66 2.05 1.46 2.05.73 0 1.19-.53 1.31-1.11h.95c-.15 1.07-1.11 1.86-2.31 1.86-1.49 0-2.38-1.16-2.38-2.8 0-1.6.93-2.8 2.47-2.8zm4.844 2.8c0 1.43.7 2.03 1.52 2.03s1.52-.6 1.52-2.03-.7-2.03-1.52-2.03-1.52.6-1.52 2.03zm-.97 0c0-1.95 1.26-2.8 2.49-2.8s2.49.85 2.49 2.8-1.26 2.8-2.49 2.8-2.49-.85-2.49-2.8zm9.225-2.12c.23-.42.58-.68 1.07-.68.56 0 1.11.26 1.11 1.68v3.79h-.92v-3.32c0-.78 0-1.38-.46-1.38s-.6.54-.6 1.65v3.05h-.92v-3.32c0-.78 0-1.38-.45-1.38-.47 0-.61.55-.61 1.67v3.03h-.92v-5.38h.88v.57c.18-.35.47-.66.98-.66.49 0 .72.32.84.68zm4.985-.59v.81c.3-.52.79-.9 1.59-.9 1.24 0 2.17 1.03 2.17 2.8 0 1.78-.93 2.8-2.17 2.8-.8 0-1.29-.38-1.59-.89v2.51h-.92v-7.13zm-.04 2.71c0 1.42.67 2.04 1.44 2.04.92 0 1.39-.76 1.39-2.04s-.47-2.03-1.39-2.03c-.77 0-1.44.61-1.44 2.03zm7.175 2.8c-.97 0-1.75-.56-1.75-1.53 0-1.28 1.36-1.67 3.56-1.91v-.23c0-.93-.51-1.21-1.21-1.21-.83 0-1.22.41-1.28 1.07h-.94c.09-1.16 1.11-1.81 2.23-1.81 1.49 0 2.13.66 2.11 2.15l-.01 1.31c-.01.9.04 1.67.07 2.03h-.88l-.01-.79c-.33.56-.89.92-1.89.92zm1.88-2.56v-.15c-1.64.16-2.64.39-2.64 1.16 0 .51.37.81 1.02.81.82 0 1.62-.39 1.62-1.82zm3.955-2.95v.76c.27-.46.73-.85 1.58-.85 1.3 0 1.69.86 1.69 2.05v3.42h-.92v-3.1c0-.87-.07-1.59-1.07-1.59-.83 0-1.28.62-1.28 1.77v2.92h-.92v-5.38zm6.235 7.13h-1.06v-.79h.97c.56 0 .74-.07 1.02-.84l.04-.12-2.01-5.38h1.01l1.46 4.15 1.43-4.15h.95l-1.99 5.61c-.38 1.06-.68 1.52-1.82 1.52zm8.434-1.75h-1.15v-1.15h1.15zm5.995-5.47c1.25 0 2.08.91 2.16 1.88h-.93c-.12-.66-.61-1.12-1.27-1.12-.8 0-1.46.69-1.46 2.04 0 1.37.66 2.05 1.46 2.05.73 0 1.19-.53 1.31-1.11h.95c-.15 1.07-1.11 1.86-2.31 1.86-1.49 0-2.38-1.16-2.38-2.8 0-1.6.93-2.8 2.47-2.8zm4.845 2.8c0 1.43.7 2.03 1.52 2.03s1.52-.6 1.52-2.03-.7-2.03-1.52-2.03-1.52.6-1.52 2.03zm-.97 0c0-1.95 1.26-2.8 2.49-2.8s2.49.85 2.49 2.8-1.26 2.8-2.49 2.8-2.49-.85-2.49-2.8zm9.225-2.12c.23-.42.58-.68 1.07-.68.56 0 1.11.26 1.11 1.68v3.79h-.92v-3.32c0-.78 0-1.38-.46-1.38s-.6.54-.6 1.65v3.05h-.92v-3.32c0-.78 0-1.38-.45-1.38-.47 0-.61.55-.61 1.67v3.03h-.92v-5.38h.88v.57c.18-.35.47-.66.98-.66.49 0 .72.32.84.68zm4.915-2.46h1.02l-.2 2.53h-.62zm1.54 0h1.02l-.2 2.53h-.62zm5.625 7.25v-1.15h1.15v1.23l-.61 1.31h-.58l.53-1.39zm-115.217 9.77h-1.15v-1.15h1.15zm0 4.23h-1.15v-1.15h1.15zm11.079-7.25h1.02l-.2 2.53h-.62zm1.54 0h1.02l-.2 2.53h-.62zm6.665 7.25h-.92v-2.26h-2.26v-.86h2.26v-2.26h.92v2.26h2.26v.86h-2.26zm6.045-7.25h.6v6.46h1.52v.79h-4.29v-.79h1.85v-4.88h-1.85v-.63c1.21-.03 1.8-.16 2.17-.95zm6.535-.13c1.27 0 2.22.72 2.22 1.95 0 1.68-1.62 3.16-3.47 4.64h3.6v.79h-4.89v-.79c2.43-1.89 3.78-3.25 3.78-4.52 0-.75-.43-1.29-1.25-1.29-.75 0-1.44.46-1.46 1.65h-.94c-.02-1.38.94-2.43 2.41-2.43zm6.325 6.72c.92 0 1.55-.51 1.55-1.37 0-1.02-.87-1.39-1.98-1.39h-.14v-.81h.11c1.19 0 1.83-.39 1.83-1.23 0-.73-.6-1.14-1.34-1.14-.92 0-1.42.59-1.49 1.4h-.94c.1-1.28 1.04-2.18 2.46-2.18 1.17 0 2.29.51 2.29 1.83 0 .74-.4 1.38-1.13 1.68 1.02.35 1.31 1.09 1.31 1.83 0 1.44-1.26 2.17-2.54 2.17-1.61 0-2.4-1.11-2.49-2.29h.93c.1.88.6 1.5 1.57 1.5zm7.114-5.35-2.46 3.36h2.46zm2.13 3.36v.86h-1.21v1.79h-.92v-1.79h-3.42v-.86l3.41-4.6h.93v4.6zm3.705 1.99c.83 0 1.53-.62 1.53-1.72 0-1.18-.8-1.66-1.55-1.66-.69 0-1.17.41-1.32.76l-.96-.04.47-3.93h4.02v.78h-3.24l-.26 2.17c.38-.37.92-.54 1.5-.54 1.2 0 2.32.88 2.32 2.45 0 1.64-1.23 2.52-2.52 2.52-1.61 0-2.4-1.11-2.49-2.29h.93c.1.88.6 1.5 1.57 1.5zm5.005-1.66c0 .99.59 1.66 1.5 1.66.88 0 1.51-.68 1.51-1.66 0-.97-.62-1.68-1.5-1.68-.9 0-1.51.71-1.51 1.68zm1.64-4.28c-1.11 0-1.7 1.12-1.74 2.77.31-.56.9-.99 1.82-.99 1.28 0 2.27 1.02 2.27 2.46 0 1.33-1 2.49-2.48 2.49-1.72 0-2.56-1.27-2.56-3.47 0-2.04.75-4.04 2.74-4.04 1.35 0 2.04.89 2.18 1.79h-.99c-.11-.64-.58-1.01-1.24-1.01zm3.885.13v-.78h5.09v.78c-1.85 1.42-3.06 3.81-3.13 6.47h-1.05c.16-2.6 1.34-5.06 3.06-6.47zm8.875-.91c1.41 0 2.35.79 2.35 1.85 0 .58-.27 1.28-.95 1.66.9.39 1.17 1.18 1.17 1.83 0 1.36-1.15 2.17-2.57 2.17s-2.57-.81-2.57-2.17c0-.65.26-1.44 1.17-1.83-.69-.38-.96-1.08-.96-1.66 0-1.06.95-1.85 2.36-1.85zm0 3.92c-.97 0-1.6.58-1.6 1.42s.63 1.38 1.6 1.38 1.59-.54 1.59-1.38-.62-1.42-1.59-1.42zm1.43-1.98c0-.74-.57-1.15-1.43-1.15s-1.43.44-1.43 1.15c0 .72.57 1.27 1.43 1.27s1.43-.55 1.43-1.27zm6.495.51c0-.99-.58-1.67-1.49-1.67-.9 0-1.51.69-1.51 1.67 0 .97.61 1.67 1.49 1.67.91 0 1.51-.7 1.51-1.67zm-1.62 4.27c1.09 0 1.69-1.11 1.73-2.77-.31.56-.91.99-1.82.99-1.28 0-2.27-1.02-2.27-2.45 0-1.33.96-2.49 2.47-2.49 1.74 0 2.57 1.26 2.57 3.47 0 2.03-.74 4.04-2.73 4.04-1.34 0-2.05-.88-2.2-1.79h1c.11.65.58 1 1.25 1zm6.614.79c-1.83 0-2.53-1.54-2.53-3.79s.7-3.72 2.53-3.72 2.54 1.47 2.54 3.72-.71 3.79-2.54 3.79zm-1.6-3.79c0 .13 0 .25.01.37l3.13-1.43c-.16-1.26-.67-1.88-1.54-1.88-1.09 0-1.6.96-1.6 2.94zm1.6 3c1.09 0 1.61-1.02 1.61-3 0-.11 0-.21-.01-.32l-3.13 1.45c.17 1.24.67 1.87 1.53 1.87zm6.515-6.59h.6v6.46h1.52v.79h-4.29v-.79h1.85v-4.88h-1.85v-.63c1.21-.03 1.8-.16 2.17-.95zm5.145 0h1.02l-.2 2.53h-.62zm1.54 0h1.02l-.2 2.53h-.62zm5.625 7.25v-1.15h1.15v1.23l-.61 1.31h-.58l.53-1.39zm12.54 0h-.91l2.85-7.25h.91zm6.465 0h-.91l2.85-7.25h.91zm12.869-5.38v-.39c0-1.12.27-1.48 1.43-1.48h1.9v.78h-1.88c-.45 0-.53.14-.53.7v.39h2.41v.79h-2.41v4.59h-.92v-4.59h-1.43v-.79zm5.975 2.71c0 1.43.7 2.03 1.52 2.03s1.52-.6 1.52-2.03-.7-2.03-1.52-2.03-1.52.6-1.52 2.03zm-.97 0c0-1.95 1.26-2.8 2.49-2.8s2.49.85 2.49 2.8-1.26 2.8-2.49 2.8-2.49-.85-2.49-2.8zm6.585-2.71h2.43v.96c.26-.6.78-.96 1.44-.96h.92v.84h-.91c-1.03 0-1.43.68-1.43 1.86v1.89h1.84v.79h-4.28v-.79h1.52v-3.8h-1.53zm9.105.59c.23-.42.58-.68 1.07-.68.56 0 1.11.26 1.11 1.68v3.79h-.92v-3.32c0-.78 0-1.38-.46-1.38s-.6.54-.6 1.65v3.05h-.92v-3.32c0-.78 0-1.38-.45-1.38-.47 0-.61.55-.61 1.67v3.03h-.92v-5.38h.88v.57c.18-.35.47-.66.98-.66.49 0 .72.32.84.68zm5.655 4.92c-.97 0-1.75-.56-1.75-1.53 0-1.28 1.36-1.67 3.56-1.91v-.23c0-.93-.51-1.21-1.21-1.21-.83 0-1.22.41-1.28 1.07h-.94c.09-1.16 1.11-1.81 2.23-1.81 1.49 0 2.13.66 2.11 2.15l-.01 1.31c-.01.9.04 1.67.07 2.03h-.88l-.01-.79c-.33.56-.89.92-1.89.92zm1.88-2.56v-.15c-1.64.16-2.64.39-2.64 1.16 0 .51.37.81 1.02.81.82 0 1.62-.39 1.62-1.82zm3.864-2.95v-1.35h.92v1.35h2.2v.79h-2.2v3.11c0 .55.03.69.54.69h1.66v.79h-1.86c-.98 0-1.26-.23-1.26-1.35v-3.24h-1.53v-.79zm13.12 2.63c0-2.02.77-3.63 1.37-4.5h.76c-.66 1.07-1.2 2.62-1.2 4.5s.54 3.43 1.2 4.5h-.76c-.6-.87-1.37-2.48-1.37-4.5zm7.995 2.75h-.92v-2.26h-2.26v-.86h2.26v-2.26h.92v2.26h2.26v.86h-2.26zm6.045-7.25h.6v6.46h1.52v.79h-4.29v-.79h1.85v-4.88h-1.85v-.63c1.21-.03 1.8-.16 2.17-.95zm6.415 7.38c-1.83 0-2.53-1.54-2.53-3.79s.7-3.72 2.53-3.72 2.54 1.47 2.54 3.72-.71 3.79-2.54 3.79zm-1.6-3.79c0 .13 0 .25.01.37l3.13-1.43c-.16-1.26-.67-1.88-1.54-1.88-1.09 0-1.6.96-1.6 2.94zm1.6 3c1.09 0 1.61-1.02 1.61-3 0-.11 0-.21-.01-.32l-3.13 1.45c.17 1.24.67 1.87 1.53 1.87zm6.465.79c-1.83 0-2.53-1.54-2.53-3.79s.7-3.72 2.53-3.72c1.829 0 2.54 1.47 2.54 3.72s-.711 3.79-2.54 3.79zm-1.6-3.79c0 .13 0 .25.01.37l3.13-1.43c-.16-1.26-.67-1.88-1.54-1.88-1.09 0-1.6.96-1.6 2.94zm1.6 3c1.09 0 1.61-1.02 1.61-3 0-.11 0-.21-.01-.32l-3.13 1.45c.17 1.24.67 1.87 1.53 1.87zm6.464.79c-1.83 0-2.53-1.54-2.53-3.79s.7-3.72 2.53-3.72 2.54 1.47 2.54 3.72-.71 3.79-2.54 3.79zm-1.6-3.79c0 .13 0 .25.01.37l3.13-1.43c-.16-1.26-.67-1.88-1.54-1.88-1.09 0-1.6.96-1.6 2.94zm1.6 3c1.09 0 1.61-1.02 1.61-3 0-.11 0-.21-.01-.32l-3.13 1.45c.17 1.24.67 1.87 1.53 1.87zm6.465.79c-1.83 0-2.53-1.54-2.53-3.79s.7-3.72 2.53-3.72 2.54 1.47 2.54 3.72-.71 3.79-2.54 3.79zm-1.6-3.79c0 .13 0 .25.01.37l3.13-1.43c-.16-1.26-.67-1.88-1.54-1.88-1.09 0-1.6.96-1.6 2.94zm1.6 3c1.09 0 1.61-1.02 1.61-3 0-.11 0-.21-.01-.32l-3.13 1.45c.17 1.24.67 1.87 1.53 1.87zm6.465.79c-1.83 0-2.53-1.54-2.53-3.79s.7-3.72 2.53-3.72 2.54 1.47 2.54 3.72-.71 3.79-2.54 3.79zm-1.6-3.79c0 .13 0 .25.01.37l3.13-1.43c-.16-1.26-.67-1.88-1.54-1.88-1.09 0-1.6.96-1.6 2.94zm1.6 3c1.09 0 1.61-1.02 1.61-3 0-.11 0-.21-.01-.32l-3.13 1.45c.17 1.24.67 1.87 1.53 1.87zm6.465.79c-1.83 0-2.53-1.54-2.53-3.79s.7-3.72 2.53-3.72 2.54 1.47 2.54 3.72-.71 3.79-2.54 3.79zm-1.6-3.79c0 .13 0 .25.01.37l3.13-1.43c-.16-1.26-.67-1.88-1.54-1.88-1.09 0-1.6.96-1.6 2.94zm1.6 3c1.09 0 1.61-1.02 1.61-3 0-.11 0-.21-.01-.32l-3.13 1.45c.17 1.24.67 1.87 1.53 1.87zm6.465.79c-1.83 0-2.53-1.54-2.53-3.79s.7-3.72 2.53-3.72 2.54 1.47 2.54 3.72-.71 3.79-2.54 3.79zm-1.6-3.79c0 .13 0 .25.01.37l3.13-1.43c-.16-1.26-.67-1.88-1.54-1.88-1.09 0-1.6.96-1.6 2.94zm1.6 3c1.09 0 1.61-1.02 1.61-3 0-.11 0-.21-.01-.32l-3.13 1.45c.17 1.24.67 1.87 1.53 1.87zm6.465.79c-1.83 0-2.53-1.54-2.53-3.79s.7-3.72 2.53-3.72 2.54 1.47 2.54 3.72-.71 3.79-2.54 3.79zm-1.6-3.79c0 .13 0 .25.01.37l3.13-1.43c-.16-1.26-.67-1.88-1.54-1.88-1.09 0-1.6.96-1.6 2.94zm1.6 3c1.09 0 1.61-1.02 1.61-3 0-.11 0-.21-.01-.32l-3.13 1.45c.17 1.24.67 1.87 1.53 1.87zm6.464.79c-1.83 0-2.53-1.54-2.53-3.79s.7-3.72 2.53-3.72 2.54 1.47 2.54 3.72-.71 3.79-2.54 3.79zm-1.6-3.79c0 .13 0 .25.01.37l3.13-1.43c-.16-1.26-.67-1.88-1.54-1.88-1.09 0-1.6.96-1.6 2.94zm1.6 3c1.09 0 1.61-1.02 1.61-3 0-.11 0-.21-.01-.32l-3.13 1.45c.17 1.24.67 1.87 1.53 1.87zm6.465.79c-1.83 0-2.53-1.54-2.53-3.79s.7-3.72 2.53-3.72 2.54 1.47 2.54 3.72-.71 3.79-2.54 3.79zm-1.6-3.79c0 .13 0 .25.01.37l3.13-1.43c-.16-1.26-.67-1.88-1.54-1.88-1.09 0-1.6.96-1.6 2.94zm1.6 3c1.09 0 1.61-1.02 1.61-3 0-.11 0-.21-.01-.32l-3.13 1.45c.17 1.24.67 1.87 1.53 1.87zm6.465.79c-1.83 0-2.53-1.54-2.53-3.79s.7-3.72 2.53-3.72 2.54 1.47 2.54 3.72-.71 3.79-2.54 3.79zm-1.6-3.79c0 .13 0 .25.01.37l3.13-1.43c-.16-1.26-.67-1.88-1.54-1.88-1.09 0-1.6.96-1.6 2.94zm1.6 3c1.09 0 1.61-1.02 1.61-3 0-.11 0-.21-.01-.32l-3.13 1.45c.17 1.24.67 1.87 1.53 1.87zm7.545-2.09c0 2.02-.78 3.63-1.38 4.5h-.75c.65-1.07 1.19-2.62 1.19-4.5s-.54-3.43-1.19-4.5h.75c.6.87 1.38 2.48 1.38 4.5zm4.815 2.75v-1.15h1.15v1.23l-.61 1.31h-.58l.53-1.39zm-309.1627 9.77h-1.15v-1.15h1.15zm0 4.23h-1.15v-1.15h1.15zm11.0797-7.25h1.02l-.2 2.53h-.62zm1.54 0h1.02l-.2 2.53h-.62zm4.995 1.87v.81c.3-.52.79-.9 1.59-.9 1.24 0 2.17 1.03 2.17 2.8 0 1.78-.93 2.8-2.17 2.8-.8 0-1.29-.38-1.59-.89v2.51h-.92v-7.13zm-.04 2.71c0 1.42.67 2.04 1.44 2.04.92 0 1.39-.76 1.39-2.04s-.47-2.03-1.39-2.03c-.77 0-1.44.61-1.44 2.03zm7.345-4.58h.92v1.09h-.92zm-1.52 1.87h2.44v4.59h1.53v.79h-3.97v-.79h1.52v-3.8h-1.52zm7.145 0v.81c.3-.52.79-.9 1.59-.9 1.24 0 2.17 1.03 2.17 2.8 0 1.78-.93 2.8-2.17 2.8-.8 0-1.29-.38-1.59-.89v2.51h-.92v-7.13zm-.04 2.71c0 1.42.67 2.04 1.44 2.04.92 0 1.39-.76 1.39-2.04s-.47-2.03-1.39-2.03c-.77 0-1.44.61-1.44 2.03zm7.744 2.8c-1.63 0-2.44-1.21-2.44-2.8 0-1.73 1.02-2.81 2.44-2.81 1.57 0 2.47 1.15 2.4 3.07h-3.87c0 1.08.6 1.79 1.45 1.79.8 0 1.2-.38 1.39-.99h.95c-.22 1.02-1.06 1.74-2.32 1.74zm0-4.85c-.87 0-1.42.51-1.46 1.55h2.88c.01-.88-.48-1.55-1.42-1.55zm7.005 4.72h-1.15v-1.15h1.15zm5.995-5.47c1.25 0 2.08.91 2.16 1.88h-.93c-.12-.66-.61-1.12-1.27-1.12-.8 0-1.46.69-1.46 2.04 0 1.37.66 2.05 1.46 2.05.73 0 1.19-.53 1.31-1.11h.95c-.15 1.07-1.11 1.86-2.31 1.86-1.49 0-2.38-1.16-2.38-2.8 0-1.6.93-2.8 2.47-2.8zm4.845 2.8c0 1.43.7 2.03 1.52 2.03s1.52-.6 1.52-2.03-.7-2.03-1.52-2.03-1.52.6-1.52 2.03zm-.97 0c0-1.95 1.26-2.8 2.49-2.8s2.49.85 2.49 2.8-1.26 2.8-2.49 2.8-2.49-.85-2.49-2.8zm9.225-2.12c.23-.42.58-.68 1.07-.68.56 0 1.11.26 1.11 1.68v3.79h-.92v-3.32c0-.78 0-1.38-.46-1.38s-.6.54-.6 1.65v3.05h-.92v-3.32c0-.78 0-1.38-.45-1.38-.47 0-.61.55-.61 1.67v3.03h-.92v-5.38h.88v.57c.18-.35.47-.66.98-.66.49 0 .72.32.84.68zm4.915-2.46h1.02l-.2 2.53h-.62zm1.54 0h1.02l-.2 2.53h-.62zm5.624 7.25v-1.15h1.15v1.23l-.61 1.31h-.58l.53-1.39zm1.15 9.77h-1.15v-1.15h1.15zm0 4.23h-1.15v-1.15h1.15zm13.23 1.75c-1.21 0-1.45-.36-1.45-1.48v-1.62c0-.63-.1-1.03-.76-1.03v-.74c.66 0 .76-.41.76-1.03v-1.62c0-1.12.24-1.48 1.45-1.48h.48v.77h-.46c-.47 0-.56.14-.56.7v1.65c0 .93-.31 1.23-.84 1.37v.02c.53.14.84.44.84 1.37v1.65c0 .56.09.7.56.7h.46v.77zm-90.8077 8.02h-1.15v-1.15h1.15zm0 4.23h-1.15v-1.15h1.15zm11.0797-7.25h1.02l-.2 2.53h-.62zm1.54 0h1.02l-.2 2.53h-.62zm6.205-.13c1.41 0 2.35.79 2.35 1.85 0 .58-.27 1.28-.95 1.66.9.39 1.17 1.18 1.17 1.83 0 1.36-1.15 2.17-2.57 2.17s-2.57-.81-2.57-2.17c0-.65.26-1.44 1.17-1.83-.69-.38-.96-1.08-.96-1.66 0-1.06.95-1.85 2.36-1.85zm0 3.92c-.97 0-1.6.58-1.6 1.42s.63 1.38 1.6 1.38 1.59-.54 1.59-1.38-.62-1.42-1.59-1.42zm1.43-1.98c0-.74-.57-1.15-1.43-1.15s-1.43.44-1.43 1.15c0 .72.57 1.27 1.43 1.27s1.43-.55 1.43-1.27zm5.025 5.57c-1.83 0-2.53-1.54-2.53-3.79s.7-3.72 2.53-3.72 2.54 1.47 2.54 3.72-.71 3.79-2.54 3.79zm-1.6-3.79c0 .13 0 .25.01.37l3.13-1.43c-.16-1.26-.67-1.88-1.54-1.88-1.09 0-1.6.96-1.6 2.94zm1.6 3c1.09 0 1.61-1.02 1.61-3 0-.11 0-.21-.01-.32l-3.13 1.45c.17 1.24.67 1.87 1.53 1.87zm6.465.79c-1.83 0-2.53-1.54-2.53-3.79s.7-3.72 2.53-3.72c1.829 0 2.54 1.47 2.54 3.72s-.711 3.79-2.54 3.79zm-1.6-3.79c0 .13 0 .25.01.37l3.13-1.43c-.16-1.26-.67-1.88-1.54-1.88-1.09 0-1.6.96-1.6 2.94zm1.6 3c1.09 0 1.61-1.02 1.61-3 0-.11 0-.21-.01-.32l-3.13 1.45c.17 1.24.67 1.87 1.53 1.87zm13.419-1.84h-.96l-1.06-3.82v6.32h-.95v-7.25h1.49l1 3.71 1-3.71h1.49v7.25h-.95v-6.32zm5.445 2.63c-.97 0-1.75-.56-1.75-1.53 0-1.28 1.36-1.67 3.56-1.91v-.23c0-.93-.51-1.21-1.21-1.21-.83 0-1.22.41-1.28 1.07h-.94c.09-1.16 1.11-1.81 2.23-1.81 1.49 0 2.13.66 2.11 2.15l-.01 1.31c-.01.9.04 1.67.07 2.03h-.88l-.01-.79c-.33.56-.89.92-1.89.92zm1.88-2.56v-.15c-1.64.16-2.64.39-2.64 1.16 0 .51.37.81 1.02.81.82 0 1.62-.39 1.62-1.82zm6.335-2.14v-2.68h.92v7.25h-.91l-.01-.76c-.3.51-.78.89-1.59.89-1.24 0-2.17-1.02-2.17-2.8 0-1.77.93-2.8 2.17-2.8.81 0 1.29.38 1.59.9zm.04 1.9c0-1.42-.67-2.03-1.44-2.03-.92 0-1.39.75-1.39 2.03s.47 2.04 1.39 2.04c.77 0 1.44-.63 1.44-2.04zm4.845-4.58h.92v1.09h-.92zm-1.52 1.87h2.44v4.59h1.53v.79h-3.97v-.79h1.52v-3.8h-1.52zm10.425 1.47h-.96c-.12-.6-.59-.8-1.2-.8-.54 0-1.08.21-1.08.69 0 .42.28.61.81.72l.6.12c.93.18 1.93.53 1.93 1.61 0 1.14-.98 1.7-2.15 1.7-1.4 0-2.1-.88-2.2-1.74h.97c.12.62.5.98 1.25.98.57 0 1.2-.2 1.2-.83 0-.5-.45-.75-1.13-.87l-.67-.13c-.85-.17-1.52-.59-1.52-1.52 0-1.04 1.13-1.49 2.03-1.49 1.14 0 1.92.6 2.12 1.56zm2.874 1.24c0 1.43.7 2.03 1.52 2.03s1.52-.6 1.52-2.03-.7-2.03-1.52-2.03-1.52.6-1.52 2.03zm-.97 0c0-1.95 1.26-2.8 2.49-2.8s2.49.85 2.49 2.8-1.26 2.8-2.49 2.8-2.49-.85-2.49-2.8zm7.785-2.71v.76c.27-.46.73-.85 1.58-.85 1.3 0 1.69.86 1.69 2.05v3.42h-.92v-3.1c0-.87-.07-1.59-1.07-1.59-.83 0-1.28.62-1.28 1.77v2.92h-.92v-5.38zm14.61-1.87 2.38 7.25h-1.02l-.49-1.55h-2.77l-.48 1.55h-1.02l2.38-7.25zm-.51 1.27-1.11 3.54h2.21zm5.115.6 1.39 4.12 1.38-4.12h.96l-1.94 5.38h-.88l-1.94-5.38zm7.845 5.51c-1.63 0-2.44-1.21-2.44-2.8 0-1.73 1.02-2.81 2.44-2.81 1.57 0 2.47 1.15 2.4 3.07h-3.87c0 1.08.6 1.79 1.45 1.79.8 0 1.2-.38 1.39-.99h.95c-.22 1.02-1.06 1.74-2.32 1.74zm0-4.85c-.87 0-1.42.51-1.46 1.55h2.88c.01-.88-.48-1.55-1.42-1.55zm5.154-2.53h1.02l-.2 2.53h-.62zm1.54 0h1.02l-.2 2.53h-.62zm5.625 7.25v-1.15h1.15v1.23l-.61 1.31h-.58l.53-1.39zm-121.6817 9.77h-1.15v-1.15h1.15zm0 4.23h-1.15v-1.15h1.15zm11.0797-7.25h1.02l-.2 2.53h-.62zm1.54 0h1.02l-.2 2.53h-.62zm5.625 3.83c-.95-.21-1.83-.82-1.83-1.97 0-1.25 1.08-1.99 2.38-1.99 1.12 0 2.25.6 2.41 2.04h-.94c-.11-.87-.86-1.16-1.52-1.16s-1.35.33-1.35 1.08c0 .64.47.95 1.05 1.08l.72.16c1.17.26 2.19.77 2.19 2.15 0 1.35-1.05 2.16-2.45 2.16-1.47 0-2.54-.95-2.62-2.39h.94c.1.97.78 1.51 1.71 1.51.72 0 1.46-.38 1.46-1.21 0-.75-.57-1.09-1.36-1.27zm8.205 3.42v-.69c-.29.46-.72.82-1.58.82-1.3 0-1.67-.86-1.67-2.05v-3.46h.92v3.14c0 .87.05 1.58 1.05 1.58.83 0 1.28-.61 1.28-1.76v-2.96h.92v5.38zm4.935-7.25h.92v1.09h-.92zm-1.52 1.87h2.44v4.59h1.53v.79h-3.97v-.79h1.52v-3.8h-1.52zm7.094 0v-1.35h.92v1.35h2.2v.79h-2.2v3.11c0 .55.03.69.54.69h1.66v.79h-1.86c-.98 0-1.26-.23-1.26-1.35v-3.24h-1.53v-.79zm7.755 5.51c-1.63 0-2.44-1.21-2.44-2.8 0-1.73 1.02-2.81 2.44-2.81 1.57 0 2.47 1.15 2.4 3.07h-3.87c0 1.08.6 1.79 1.45 1.79.8 0 1.2-.38 1.39-.99h.95c-.22 1.02-1.06 1.74-2.32 1.74zm0-4.85c-.87 0-1.42.51-1.46 1.55h2.88c.01-.88-.48-1.55-1.42-1.55zm12.89 4.85c-1.83 0-2.53-1.54-2.53-3.79s.7-3.72 2.53-3.72 2.54 1.47 2.54 3.72-.71 3.79-2.54 3.79zm-1.6-3.79c0 .13 0 .25.01.37l3.13-1.43c-.16-1.26-.67-1.88-1.54-1.88-1.09 0-1.6.96-1.6 2.94zm1.6 3c1.09 0 1.61-1.02 1.61-3 0-.11 0-.21-.01-.32l-3.13 1.45c.17 1.24.67 1.87 1.53 1.87zm6.465.79c-1.83 0-2.53-1.54-2.53-3.79s.7-3.72 2.53-3.72 2.54 1.47 2.54 3.72-.71 3.79-2.54 3.79zm-1.6-3.79c0 .13 0 .25.01.37l3.13-1.43c-.16-1.26-.67-1.88-1.54-1.88-1.09 0-1.6.96-1.6 2.94zm1.6 3c1.09 0 1.61-1.02 1.61-3 0-.11 0-.21-.01-.32l-3.13 1.45c.17 1.24.67 1.87 1.53 1.87zm4.065-5.81v-.78h5.09v.78c-1.85 1.42-3.06 3.81-3.13 6.47h-1.05c.16-2.6 1.34-5.06 3.06-6.47zm7.594-.78h1.02l-.2 2.53h-.62zm1.54 0h1.02l-.2 2.53h-.62zm5.625 7.25v-1.15h1.15v1.23l-.61 1.31h-.58l.53-1.39zm-82.8927 9.77h-1.15v-1.15h1.15zm0 4.23h-1.15v-1.15h1.15zm11.0797-7.25h1.02l-.2 2.53h-.62zm1.54 0h1.02l-.2 2.53h-.62zm8.545 7.25h-1.42l-2.32-6.19v6.19h-.95v-7.25h1.42l2.32 6.17v-6.17h.95zm4.125-3.7 1.86-3.55h1.11l-2.5 4.53v2.72h-.95v-2.72l-2.5-4.53h1.11zm5.185-3.55h1.02l-.2 2.53h-.62zm1.54 0h1.02l-.2 2.53h-.62zm5.624 7.25v-1.15h1.15v1.23l-.61 1.31h-.58l.53-1.39zm-44.1036 9.77h-1.15v-1.15h1.15zm0 4.23h-1.15v-1.15h1.15zm11.0796-7.25h1.02l-.2 2.53h-.62zm1.54 0h1.02l-.2 2.53h-.62zm8.545 7.25h-1.42l-2.32-6.19v6.19h-.95v-7.25h1.42l2.32 6.17v-6.17h.95zm4.155.13c-1.63 0-2.44-1.21-2.44-2.8 0-1.73 1.02-2.81 2.44-2.81 1.57 0 2.47 1.15 2.4 3.07h-3.87c0 1.08.6 1.79 1.45 1.79.8 0 1.2-.38 1.39-.99h.95c-.22 1.02-1.06 1.74-2.32 1.74zm0-4.85c-.87 0-1.42.51-1.46 1.55h2.88c.01-.88-.48-1.55-1.42-1.55zm5.995.42h.86l.8 2.9.55-3.98h.93l-.9 5.38h-.93l-.88-3.25-.88 3.25h-.93l-.9-5.38h.94l.54 3.98zm13.369.6 1.86-3.55h1.11l-2.5 4.53v2.72h-.95v-2.72l-2.5-4.53h1.11zm4.945 1.03c0 1.43.7 2.03 1.52 2.03s1.52-.6 1.52-2.03-.7-2.03-1.52-2.03-1.52.6-1.52 2.03zm-.97 0c0-1.95 1.26-2.8 2.49-2.8s2.49.85 2.49 2.8-1.26 2.8-2.49 2.8-2.49-.85-2.49-2.8zm6.585-2.71h2.43v.96c.26-.6.78-.96 1.44-.96h.92v.84h-.91c-1.03 0-1.43.68-1.43 1.86v1.89h1.84v.79h-4.28v-.79h1.52v-3.8h-1.53zm6.815-1.87h.92v4.32l2.38-2.45h1.18l-2.11 2.09 2.32 3.29h-1.05l-1.89-2.68-.83.82v1.86h-.92zm7.205 0h1.02l-.2 2.53h-.62zm1.54 0h1.02l-.2 2.53h-.62zm5.625 7.25v-1.15h1.15v1.23l-.61 1.31h-.58l.53-1.39zm-31.175 9.77h-1.15v-1.15h1.15zm0 4.23h-1.15v-1.15h1.15zm11.08-7.25h1.02l-.2 2.53h-.62zm1.54 0h1.02l-.2 2.53h-.62zm6.245 0h.6v6.46h1.52v.79h-4.29v-.79h1.85v-4.88h-1.85v-.63c1.21-.03 1.8-.16 2.17-.95zm6.465 0h.6v6.46h1.52v.79h-4.29v-.79h1.85v-4.88h-1.85v-.63c1.21-.03 1.8-.16 2.17-.95zm6.535-.13c1.27 0 2.22.72 2.22 1.95 0 1.68-1.62 3.16-3.47 4.64h3.6v.79h-4.89v-.79c2.43-1.89 3.78-3.25 3.78-4.52 0-.75-.43-1.29-1.25-1.29-.75 0-1.44.46-1.46 1.65h-.94c-.02-1.38.94-2.43 2.41-2.43zm6.464 0c1.27 0 2.22.72 2.22 1.95 0 1.68-1.62 3.16-3.47 4.64h3.6v.79h-4.89v-.79c2.43-1.89 3.78-3.25 3.78-4.52 0-.75-.43-1.29-1.25-1.29-.75 0-1.44.46-1.46 1.65h-.94c-.02-1.38.94-2.43 2.41-2.43zm6.325 6.72c.92 0 1.55-.51 1.55-1.37 0-1.02-.87-1.39-1.98-1.39h-.14v-.81h.11c1.19 0 1.83-.39 1.83-1.23 0-.73-.6-1.14-1.34-1.14-.92 0-1.42.59-1.49 1.4h-.94c.1-1.28 1.04-2.18 2.46-2.18 1.17 0 2.29.51 2.29 1.83 0 .74-.4 1.38-1.13 1.68 1.02.35 1.31 1.09 1.31 1.83 0 1.44-1.26 2.17-2.54 2.17-1.61 0-2.4-1.11-2.49-2.29h.93c.1.88.6 1.5 1.57 1.5zm5.215-6.59h1.02l-.2 2.53h-.62zm1.54 0h1.02l-.2 2.53h-.62zm5.625 7.25v-1.15h1.15v1.23l-.61 1.31h-.58l.53-1.39zm-82.893 9.77h-1.15v-1.15h1.15zm0 4.23h-1.15v-1.15h1.15zm11.08-7.25h1.02l-.2 2.53h-.62zm1.54 0h1.02l-.2 2.53h-.62zm3.765 0h.95v4.41c0 1.42.25 2.09 1.48 2.09 1.25 0 1.5-.77 1.5-2.2v-4.3h.95v4.22c0 2.12-.56 3.16-2.45 3.16-1.81 0-2.43-.82-2.43-3.08zm8.324 3.83c-.95-.21-1.83-.82-1.83-1.97 0-1.25 1.08-1.99 2.38-1.99 1.12 0 2.25.6 2.41 2.04h-.94c-.11-.87-.86-1.16-1.52-1.16s-1.35.33-1.35 1.08c0 .64.47.95 1.05 1.08l.72.16c1.17.26 2.19.77 2.19 2.15 0 1.35-1.05 2.16-2.45 2.16-1.47 0-2.54-.95-2.62-2.39h.94c.1.97.78 1.51 1.71 1.51.72 0 1.46-.38 1.46-1.21 0-.75-.57-1.09-1.36-1.27zm5.765-3.83h1.02l-.2 2.53h-.62zm1.54 0h1.02l-.2 2.53h-.62zm11.7 7.25h-.91l2.85-7.25h.91zm6.465 0h-.91l2.85-7.25h.91zm13.929.13c-1.63 0-2.44-1.21-2.44-2.8 0-1.73 1.02-2.81 2.44-2.81 1.57 0 2.47 1.15 2.4 3.07h-3.87c0 1.08.6 1.79 1.45 1.79.8 0 1.2-.38 1.39-.99h.95c-.22 1.02-1.06 1.74-2.32 1.74zm0-4.85c-.87 0-1.42.51-1.46 1.55h2.88c.01-.88-.48-1.55-1.42-1.55zm5.265-.66v.76c.27-.46.73-.85 1.58-.85 1.3 0 1.69.86 1.69 2.05v3.42h-.92v-3.1c0-.87-.07-1.59-1.07-1.59-.83 0-1.28.62-1.28 1.77v2.92h-.92v-5.38zm8.795 5.38v-.69c-.29.46-.72.82-1.58.82-1.3 0-1.67-.86-1.67-2.05v-3.46h.92v3.14c0 .87.05 1.58 1.05 1.58.83 0 1.28-.61 1.28-1.76v-2.96h.92v5.38zm5.575-4.79c.23-.42.58-.68 1.07-.68.56 0 1.11.26 1.11 1.68v3.79h-.92v-3.32c0-.78 0-1.38-.46-1.38s-.6.54-.6 1.65v3.05h-.92v-3.32c0-.78 0-1.38-.45-1.38-.47 0-.61.55-.61 1.67v3.03h-.92v-5.38h.88v.57c.18-.35.47-.66.98-.66.49 0 .72.32.84.68zm8.265.88h-.96c-.12-.6-.59-.8-1.2-.8-.54 0-1.08.21-1.08.69 0 .42.28.61.81.72l.6.12c.93.18 1.93.53 1.93 1.61 0 1.14-.98 1.7-2.15 1.7-1.4 0-2.1-.88-2.2-1.74h.97c.12.62.5.98 1.25.98.57 0 1.2-.2 1.2-.83 0-.5-.45-.75-1.13-.87l-.67-.13c-.85-.17-1.52-.59-1.52-1.52 0-1.04 1.13-1.49 2.03-1.49 1.14 0 1.92.6 2.12 1.56zm10.969-3.47c1.27 0 2.22.72 2.22 1.95 0 1.68-1.62 3.16-3.47 4.64h3.6v.79h-4.89v-.79c2.43-1.89 3.78-3.25 3.78-4.52 0-.75-.43-1.29-1.25-1.29-.75 0-1.44.46-1.46 1.65h-.94c-.02-1.38.94-2.43 2.41-2.43zm14.03 2.81v-2.68h.92v7.25h-.91l-.01-.76c-.3.51-.78.89-1.59.89-1.24 0-2.17-1.02-2.17-2.8 0-1.77.93-2.8 2.17-2.8.81 0 1.29.38 1.59.9zm.04 1.9c0-1.42-.67-2.03-1.44-2.03-.92 0-1.39.75-1.39 2.03s.47 2.04 1.39 2.04c.77 0 1.44-.63 1.44-2.04zm4.845-4.58h.92v1.09h-.92zm-1.52 1.87h2.44v4.59h1.53v.79h-3.97v-.79h1.52v-3.8h-1.52zm9.585.81v-.81h.92v4.71c0 1.1-.14 1.55-.43 1.89-.38.45-1.12.71-1.88.71-1.17 0-2-.56-2.16-1.62h.97c.13.49.41.82 1.2.82.46 0 .88-.14 1.1-.4.18-.21.28-.46.28-1.19v-.52c-.3.52-.78.89-1.59.89-1.24 0-2.17-.91-2.17-2.69 0-1.77.93-2.69 2.17-2.69.81 0 1.29.38 1.59.9zm.04 1.79c0-1.42-.67-1.92-1.44-1.92-.92 0-1.39.64-1.39 1.92s.47 1.93 1.39 1.93c.77 0 1.44-.52 1.44-1.93zm4.825-4.47h.92v1.09h-.92zm-1.52 1.87h2.44v4.59h1.53v.79h-3.97v-.79h1.52v-3.8h-1.52zm7.095 0v-1.35h.92v1.35h2.2v.79h-2.2v3.11c0 .55.03.69.54.69h1.66v.79h-1.86c-.98 0-1.26-.23-1.26-1.35v-3.24h-1.53v-.79zm14.289-.09c1.25 0 2.08.91 2.16 1.88h-.93c-.12-.66-.61-1.12-1.27-1.12-.8 0-1.46.69-1.46 2.04 0 1.37.66 2.05 1.46 2.05.73 0 1.19-.53 1.31-1.11h.95c-.15 1.07-1.11 1.86-2.31 1.86-1.49 0-2.38-1.16-2.38-2.8 0-1.6.93-2.8 2.47-2.8zm4.845 2.8c0 1.43.7 2.03 1.52 2.03s1.52-.6 1.52-2.03-.7-2.03-1.52-2.03-1.52.6-1.52 2.03zm-.97 0c0-1.95 1.26-2.8 2.49-2.8s2.49.85 2.49 2.8-1.26 2.8-2.49 2.8-2.49-.85-2.49-2.8zm10.115 2.67v-.69c-.29.46-.72.82-1.58.82-1.3 0-1.67-.86-1.67-2.05v-3.46h.92v3.14c0 .87.05 1.58 1.05 1.58.83 0 1.28-.61 1.28-1.76v-2.96h.92v5.38zm4.135-5.38v.76c.27-.46.73-.85 1.58-.85 1.3 0 1.69.86 1.69 2.05v3.42h-.92v-3.1c0-.87-.07-1.59-1.07-1.59-.83 0-1.28.62-1.28 1.77v2.92h-.92v-5.38zm6.375 0v-1.35h.92v1.35h2.2v.79h-2.2v3.11c0 .55.03.69.54.69h1.66v.79h-1.86c-.98 0-1.26-.23-1.26-1.35v-3.24h-1.53v-.79zm5.354 0h2.43v.96c.26-.6.78-.96 1.44-.96h.92v.84h-.91c-1.03 0-1.43.68-1.43 1.86v1.89h1.84v.79h-4.28v-.79h1.52v-3.8h-1.53zm7.435 7.13h-1.06v-.79h.97c.56 0 .74-.07 1.02-.84l.04-.12-2.01-5.38h1.01l1.46 4.15 1.43-4.15h.95l-1.99 5.61c-.38 1.06-.68 1.52-1.82 1.52zm14.43-7.22c1.25 0 2.08.91 2.16 1.88h-.93c-.12-.66-.61-1.12-1.27-1.12-.8 0-1.46.69-1.46 2.04 0 1.37.66 2.05 1.46 2.05.73 0 1.19-.53 1.31-1.11h.95c-.15 1.07-1.11 1.86-2.31 1.86-1.49 0-2.38-1.16-2.38-2.8 0-1.6.93-2.8 2.47-2.8zm4.845 2.8c0 1.43.7 2.03 1.52 2.03s1.52-.6 1.52-2.03-.7-2.03-1.52-2.03-1.52.6-1.52 2.03zm-.97 0c0-1.95 1.26-2.8 2.49-2.8s2.49.85 2.49 2.8-1.26 2.8-2.49 2.8-2.49-.85-2.49-2.8zm10.165-1.9v-2.68h.92v7.25h-.91l-.01-.76c-.3.51-.78.89-1.59.89-1.24 0-2.17-1.02-2.17-2.8 0-1.77.93-2.8 2.17-2.8.81 0 1.29.38 1.59.9zm.04 1.9c0-1.42-.67-2.03-1.44-2.03-.92 0-1.39.75-1.39 2.03s.47 2.04 1.39 2.04c.77 0 1.44-.63 1.44-2.04zm5.245 2.8c-1.63 0-2.44-1.21-2.44-2.8 0-1.73 1.02-2.81 2.44-2.81 1.57 0 2.47 1.15 2.4 3.07h-3.87c0 1.08.6 1.79 1.45 1.79.8 0 1.2-.38 1.39-.99h.95c-.22 1.02-1.06 1.74-2.32 1.74zm0-4.85c-.87 0-1.42.51-1.46 1.55h2.88c.01-.88-.48-1.55-1.42-1.55zm8.504.81h-.96c-.12-.6-.59-.8-1.2-.8-.54 0-1.08.21-1.08.69 0 .42.28.61.81.72l.6.12c.93.18 1.93.53 1.93 1.61 0 1.14-.98 1.7-2.15 1.7-1.4 0-2.1-.88-2.2-1.74h.97c.12.62.5.98 1.25.98.57 0 1.2-.2 1.2-.83 0-.5-.45-.75-1.13-.87l-.67-.13c-.85-.17-1.52-.59-1.52-1.52 0-1.04 1.13-1.49 2.03-1.49 1.14 0 1.92.6 2.12 1.56zm-307.2673 19.66v-.77h.45c.47 0 .56-.14.56-.7v-1.65c0-.93.31-1.23.84-1.37v-.02c-.53-.14-.84-.44-.84-1.37v-1.65c0-.56-.09-.7-.56-.7h-.45v-.77h.47c1.21 0 1.45.36 1.45 1.48v1.62c0 .62.1 1.03.77 1.03v.74c-.67 0-.77.4-.77 1.03v1.62c0 1.12-.24 1.48-1.45 1.48zm7.2348-1.75v-1.15h1.15v1.23l-.61 1.31h-.58l.53-1.39zm136.9115 9.77h-1.15v-1.15h1.15zm0 4.23h-1.15v-1.15h1.15zm13.23 1.75c-1.21 0-1.45-.36-1.45-1.48v-1.62c0-.63-.1-1.03-.76-1.03v-.74c.66 0 .76-.41.76-1.03v-1.62c0-1.12.24-1.48 1.45-1.48h.48v.77h-.46c-.47 0-.56.14-.56.7v1.65c0 .93-.31 1.23-.84 1.37v.02c.53.14.84.44.84 1.37v1.65c0 .56.09.7.56.7h.46v.77zm-97.2727 8.02h-1.15v-1.15h1.15zm0 4.23h-1.15v-1.15h1.15zm11.0797-7.25h1.02l-.2 2.53h-.62zm1.54 0h1.02l-.2 2.53h-.62zm6.205-.13c1.41 0 2.35.79 2.35 1.85 0 .58-.27 1.28-.95 1.66.9.39 1.17 1.18 1.17 1.83 0 1.36-1.15 2.17-2.57 2.17s-2.57-.81-2.57-2.17c0-.65.26-1.44 1.17-1.83-.69-.38-.96-1.08-.96-1.66 0-1.06.95-1.85 2.36-1.85zm0 3.92c-.97 0-1.6.58-1.6 1.42s.63 1.38 1.6 1.38 1.59-.54 1.59-1.38-.62-1.42-1.59-1.42zm1.43-1.98c0-.74-.57-1.15-1.43-1.15s-1.43.44-1.43 1.15c0 .72.57 1.27 1.43 1.27s1.43-.55 1.43-1.27zm5.025 5.57c-1.83 0-2.53-1.54-2.53-3.79s.7-3.72 2.53-3.72 2.54 1.47 2.54 3.72-.71 3.79-2.54 3.79zm-1.6-3.79c0 .13 0 .25.01.37l3.13-1.43c-.16-1.26-.67-1.88-1.54-1.88-1.09 0-1.6.96-1.6 2.94zm1.6 3c1.09 0 1.61-1.02 1.61-3 0-.11 0-.21-.01-.32l-3.13 1.45c.17 1.24.67 1.87 1.53 1.87zm6.465.79c-1.83 0-2.53-1.54-2.53-3.79s.7-3.72 2.53-3.72c1.829 0 2.54 1.47 2.54 3.72s-.711 3.79-2.54 3.79zm-1.6-3.79c0 .13 0 .25.01.37l3.13-1.43c-.16-1.26-.67-1.88-1.54-1.88-1.09 0-1.6.96-1.6 2.94zm1.6 3c1.09 0 1.61-1.02 1.61-3 0-.11 0-.21-.01-.32l-3.13 1.45c.17 1.24.67 1.87 1.53 1.87zm13.419-1.84h-.96l-1.06-3.82v6.32h-.95v-7.25h1.49l1 3.71 1-3.71h1.49v7.25h-.95v-6.32zm5.445 2.63c-.97 0-1.75-.56-1.75-1.53 0-1.28 1.36-1.67 3.56-1.91v-.23c0-.93-.51-1.21-1.21-1.21-.83 0-1.22.41-1.28 1.07h-.94c.09-1.16 1.11-1.81 2.23-1.81 1.49 0 2.13.66 2.11 2.15l-.01 1.31c-.01.9.04 1.67.07 2.03h-.88l-.01-.79c-.33.56-.89.92-1.89.92zm1.88-2.56v-.15c-1.64.16-2.64.39-2.64 1.16 0 .51.37.81 1.02.81.82 0 1.62-.39 1.62-1.82zm6.335-2.14v-2.68h.92v7.25h-.91l-.01-.76c-.3.51-.78.89-1.59.89-1.24 0-2.17-1.02-2.17-2.8 0-1.77.93-2.8 2.17-2.8.81 0 1.29.38 1.59.9zm.04 1.9c0-1.42-.67-2.03-1.44-2.03-.92 0-1.39.75-1.39 2.03s.47 2.04 1.39 2.04c.77 0 1.44-.63 1.44-2.04zm4.845-4.58h.92v1.09h-.92zm-1.52 1.87h2.44v4.59h1.53v.79h-3.97v-.79h1.52v-3.8h-1.52zm10.425 1.47h-.96c-.12-.6-.59-.8-1.2-.8-.54 0-1.08.21-1.08.69 0 .42.28.61.81.72l.6.12c.93.18 1.93.53 1.93 1.61 0 1.14-.98 1.7-2.15 1.7-1.4 0-2.1-.88-2.2-1.74h.97c.12.62.5.98 1.25.98.57 0 1.2-.2 1.2-.83 0-.5-.45-.75-1.13-.87l-.67-.13c-.85-.17-1.52-.59-1.52-1.52 0-1.04 1.13-1.49 2.03-1.49 1.14 0 1.92.6 2.12 1.56zm2.874 1.24c0 1.43.7 2.03 1.52 2.03s1.52-.6 1.52-2.03-.7-2.03-1.52-2.03-1.52.6-1.52 2.03zm-.97 0c0-1.95 1.26-2.8 2.49-2.8s2.49.85 2.49 2.8-1.26 2.8-2.49 2.8-2.49-.85-2.49-2.8zm7.785-2.71v.76c.27-.46.73-.85 1.58-.85 1.3 0 1.69.86 1.69 2.05v3.42h-.92v-3.1c0-.87-.07-1.59-1.07-1.59-.83 0-1.28.62-1.28 1.77v2.92h-.92v-5.38zm14.61-1.87 2.38 7.25h-1.02l-.49-1.55h-2.77l-.48 1.55h-1.02l2.38-7.25zm-.51 1.27-1.11 3.54h2.21zm5.115.6 1.39 4.12 1.38-4.12h.96l-1.94 5.38h-.88l-1.94-5.38zm7.845 5.51c-1.63 0-2.44-1.21-2.44-2.8 0-1.73 1.02-2.81 2.44-2.81 1.57 0 2.47 1.15 2.4 3.07h-3.87c0 1.08.6 1.79 1.45 1.79.8 0 1.2-.38 1.39-.99h.95c-.22 1.02-1.06 1.74-2.32 1.74zm0-4.85c-.87 0-1.42.51-1.46 1.55h2.88c.01-.88-.48-1.55-1.42-1.55zm5.154-2.53h1.02l-.2 2.53h-.62zm1.54 0h1.02l-.2 2.53h-.62zm5.625 7.25v-1.15h1.15v1.23l-.61 1.31h-.58l.53-1.39zm-121.6817 9.77h-1.15v-1.15h1.15zm0 4.23h-1.15v-1.15h1.15zm11.0797-7.25h1.02l-.2 2.53h-.62zm1.54 0h1.02l-.2 2.53h-.62zm5.625 3.83c-.95-.21-1.83-.82-1.83-1.97 0-1.25 1.08-1.99 2.38-1.99 1.12 0 2.25.6 2.41 2.04h-.94c-.11-.87-.86-1.16-1.52-1.16s-1.35.33-1.35 1.08c0 .64.47.95 1.05 1.08l.72.16c1.17.26 2.19.77 2.19 2.15 0 1.35-1.05 2.16-2.45 2.16-1.47 0-2.54-.95-2.62-2.39h.94c.1.97.78 1.51 1.71 1.51.72 0 1.46-.38 1.46-1.21 0-.75-.57-1.09-1.36-1.27zm8.205 3.42v-.69c-.29.46-.72.82-1.58.82-1.3 0-1.67-.86-1.67-2.05v-3.46h.92v3.14c0 .87.05 1.58 1.05 1.58.83 0 1.28-.61 1.28-1.76v-2.96h.92v5.38zm4.935-7.25h.92v1.09h-.92zm-1.52 1.87h2.44v4.59h1.53v.79h-3.97v-.79h1.52v-3.8h-1.52zm7.094 0v-1.35h.92v1.35h2.2v.79h-2.2v3.11c0 .55.03.69.54.69h1.66v.79h-1.86c-.98 0-1.26-.23-1.26-1.35v-3.24h-1.53v-.79zm7.755 5.51c-1.63 0-2.44-1.21-2.44-2.8 0-1.73 1.02-2.81 2.44-2.81 1.57 0 2.47 1.15 2.4 3.07h-3.87c0 1.08.6 1.79 1.45 1.79.8 0 1.2-.38 1.39-.99h.95c-.22 1.02-1.06 1.74-2.32 1.74zm0-4.85c-.87 0-1.42.51-1.46 1.55h2.88c.01-.88-.48-1.55-1.42-1.55zm12.89 4.85c-1.83 0-2.53-1.54-2.53-3.79s.7-3.72 2.53-3.72 2.54 1.47 2.54 3.72-.71 3.79-2.54 3.79zm-1.6-3.79c0 .13 0 .25.01.37l3.13-1.43c-.16-1.26-.67-1.88-1.54-1.88-1.09 0-1.6.96-1.6 2.94zm1.6 3c1.09 0 1.61-1.02 1.61-3 0-.11 0-.21-.01-.32l-3.13 1.45c.17 1.24.67 1.87 1.53 1.87zm6.465.79c-1.83 0-2.53-1.54-2.53-3.79s.7-3.72 2.53-3.72 2.54 1.47 2.54 3.72-.71 3.79-2.54 3.79zm-1.6-3.79c0 .13 0 .25.01.37l3.13-1.43c-.16-1.26-.67-1.88-1.54-1.88-1.09 0-1.6.96-1.6 2.94zm1.6 3c1.09 0 1.61-1.02 1.61-3 0-.11 0-.21-.01-.32l-3.13 1.45c.17 1.24.67 1.87 1.53 1.87zm4.065-5.81v-.78h5.09v.78c-1.85 1.42-3.06 3.81-3.13 6.47h-1.05c.16-2.6 1.34-5.06 3.06-6.47zm7.594-.78h1.02l-.2 2.53h-.62zm1.54 0h1.02l-.2 2.53h-.62zm5.625 7.25v-1.15h1.15v1.23l-.61 1.31h-.58l.53-1.39zm-82.8927 9.77h-1.15v-1.15h1.15zm0 4.23h-1.15v-1.15h1.15zm11.0797-7.25h1.02l-.2 2.53h-.62zm1.54 0h1.02l-.2 2.53h-.62zm8.545 7.25h-1.42l-2.32-6.19v6.19h-.95v-7.25h1.42l2.32 6.17v-6.17h.95zm4.125-3.7 1.86-3.55h1.11l-2.5 4.53v2.72h-.95v-2.72l-2.5-4.53h1.11zm5.185-3.55h1.02l-.2 2.53h-.62zm1.54 0h1.02l-.2 2.53h-.62zm5.624 7.25v-1.15h1.15v1.23l-.61 1.31h-.58l.53-1.39zm-44.1036 9.77h-1.15v-1.15h1.15zm0 4.23h-1.15v-1.15h1.15zm11.0796-7.25h1.02l-.2 2.53h-.62zm1.54 0h1.02l-.2 2.53h-.62zm8.545 7.25h-1.42l-2.32-6.19v6.19h-.95v-7.25h1.42l2.32 6.17v-6.17h.95zm4.155.13c-1.63 0-2.44-1.21-2.44-2.8 0-1.73 1.02-2.81 2.44-2.81 1.57 0 2.47 1.15 2.4 3.07h-3.87c0 1.08.6 1.79 1.45 1.79.8 0 1.2-.38 1.39-.99h.95c-.22 1.02-1.06 1.74-2.32 1.74zm0-4.85c-.87 0-1.42.51-1.46 1.55h2.88c.01-.88-.48-1.55-1.42-1.55zm5.995.42h.86l.8 2.9.55-3.98h.93l-.9 5.38h-.93l-.88-3.25-.88 3.25h-.93l-.9-5.38h.94l.54 3.98zm13.369.6 1.86-3.55h1.11l-2.5 4.53v2.72h-.95v-2.72l-2.5-4.53h1.11zm4.945 1.03c0 1.43.7 2.03 1.52 2.03s1.52-.6 1.52-2.03-.7-2.03-1.52-2.03-1.52.6-1.52 2.03zm-.97 0c0-1.95 1.26-2.8 2.49-2.8s2.49.85 2.49 2.8-1.26 2.8-2.49 2.8-2.49-.85-2.49-2.8zm6.585-2.71h2.43v.96c.26-.6.78-.96 1.44-.96h.92v.84h-.91c-1.03 0-1.43.68-1.43 1.86v1.89h1.84v.79h-4.28v-.79h1.52v-3.8h-1.53zm6.815-1.87h.92v4.32l2.38-2.45h1.18l-2.11 2.09 2.32 3.29h-1.05l-1.89-2.68-.83.82v1.86h-.92zm7.205 0h1.02l-.2 2.53h-.62zm1.54 0h1.02l-.2 2.53h-.62zm5.625 7.25v-1.15h1.15v1.23l-.61 1.31h-.58l.53-1.39zm-31.175 9.77h-1.15v-1.15h1.15zm0 4.23h-1.15v-1.15h1.15zm11.08-7.25h1.02l-.2 2.53h-.62zm1.54 0h1.02l-.2 2.53h-.62zm6.245 0h.6v6.46h1.52v.79h-4.29v-.79h1.85v-4.88h-1.85v-.63c1.21-.03 1.8-.16 2.17-.95zm6.465 0h.6v6.46h1.52v.79h-4.29v-.79h1.85v-4.88h-1.85v-.63c1.21-.03 1.8-.16 2.17-.95zm6.535-.13c1.27 0 2.22.72 2.22 1.95 0 1.68-1.62 3.16-3.47 4.64h3.6v.79h-4.89v-.79c2.43-1.89 3.78-3.25 3.78-4.52 0-.75-.43-1.29-1.25-1.29-.75 0-1.44.46-1.46 1.65h-.94c-.02-1.38.94-2.43 2.41-2.43zm6.464 0c1.27 0 2.22.72 2.22 1.95 0 1.68-1.62 3.16-3.47 4.64h3.6v.79h-4.89v-.79c2.43-1.89 3.78-3.25 3.78-4.52 0-.75-.43-1.29-1.25-1.29-.75 0-1.44.46-1.46 1.65h-.94c-.02-1.38.94-2.43 2.41-2.43zm6.325 6.72c.92 0 1.55-.51 1.55-1.37 0-1.02-.87-1.39-1.98-1.39h-.14v-.81h.11c1.19 0 1.83-.39 1.83-1.23 0-.73-.6-1.14-1.34-1.14-.92 0-1.42.59-1.49 1.4h-.94c.1-1.28 1.04-2.18 2.46-2.18 1.17 0 2.29.51 2.29 1.83 0 .74-.4 1.38-1.13 1.68 1.02.35 1.31 1.09 1.31 1.83 0 1.44-1.26 2.17-2.54 2.17-1.61 0-2.4-1.11-2.49-2.29h.93c.1.88.6 1.5 1.57 1.5zm5.215-6.59h1.02l-.2 2.53h-.62zm1.54 0h1.02l-.2 2.53h-.62zm5.625 7.25v-1.15h1.15v1.23l-.61 1.31h-.58l.53-1.39zm-82.893 9.77h-1.15v-1.15h1.15zm0 4.23h-1.15v-1.15h1.15zm11.08-7.25h1.02l-.2 2.53h-.62zm1.54 0h1.02l-.2 2.53h-.62zm3.765 0h.95v4.41c0 1.42.25 2.09 1.48 2.09 1.25 0 1.5-.77 1.5-2.2v-4.3h.95v4.22c0 2.12-.56 3.16-2.45 3.16-1.81 0-2.43-.82-2.43-3.08zm8.324 3.83c-.95-.21-1.83-.82-1.83-1.97 0-1.25 1.08-1.99 2.38-1.99 1.12 0 2.25.6 2.41 2.04h-.94c-.11-.87-.86-1.16-1.52-1.16s-1.35.33-1.35 1.08c0 .64.47.95 1.05 1.08l.72.16c1.17.26 2.19.77 2.19 2.15 0 1.35-1.05 2.16-2.45 2.16-1.47 0-2.54-.95-2.62-2.39h.94c.1.97.78 1.51 1.71 1.51.72 0 1.46-.38 1.46-1.21 0-.75-.57-1.09-1.36-1.27zm5.765-3.83h1.02l-.2 2.53h-.62zm1.54 0h1.02l-.2 2.53h-.62zm11.7 7.25h-.91l2.85-7.25h.91zm6.465 0h-.91l2.85-7.25h.91zm13.929.13c-1.63 0-2.44-1.21-2.44-2.8 0-1.73 1.02-2.81 2.44-2.81 1.57 0 2.47 1.15 2.4 3.07h-3.87c0 1.08.6 1.79 1.45 1.79.8 0 1.2-.38 1.39-.99h.95c-.22 1.02-1.06 1.74-2.32 1.74zm0-4.85c-.87 0-1.42.51-1.46 1.55h2.88c.01-.88-.48-1.55-1.42-1.55zm5.265-.66v.76c.27-.46.73-.85 1.58-.85 1.3 0 1.69.86 1.69 2.05v3.42h-.92v-3.1c0-.87-.07-1.59-1.07-1.59-.83 0-1.28.62-1.28 1.77v2.92h-.92v-5.38zm8.795 5.38v-.69c-.29.46-.72.82-1.58.82-1.3 0-1.67-.86-1.67-2.05v-3.46h.92v3.14c0 .87.05 1.58 1.05 1.58.83 0 1.28-.61 1.28-1.76v-2.96h.92v5.38zm5.575-4.79c.23-.42.58-.68 1.07-.68.56 0 1.11.26 1.11 1.68v3.79h-.92v-3.32c0-.78 0-1.38-.46-1.38s-.6.54-.6 1.65v3.05h-.92v-3.32c0-.78 0-1.38-.45-1.38-.47 0-.61.55-.61 1.67v3.03h-.92v-5.38h.88v.57c.18-.35.47-.66.98-.66.49 0 .72.32.84.68zm8.265.88h-.96c-.12-.6-.59-.8-1.2-.8-.54 0-1.08.21-1.08.69 0 .42.28.61.81.72l.6.12c.93.18 1.93.53 1.93 1.61 0 1.14-.98 1.7-2.15 1.7-1.4 0-2.1-.88-2.2-1.74h.97c.12.62.5.98 1.25.98.57 0 1.2-.2 1.2-.83 0-.5-.45-.75-1.13-.87l-.67-.13c-.85-.17-1.52-.59-1.52-1.52 0-1.04 1.13-1.49 2.03-1.49 1.14 0 1.92.6 2.12 1.56zm10.969-3.47c1.27 0 2.22.72 2.22 1.95 0 1.68-1.62 3.16-3.47 4.64h3.6v.79h-4.89v-.79c2.43-1.89 3.78-3.25 3.78-4.52 0-.75-.43-1.29-1.25-1.29-.75 0-1.44.46-1.46 1.65h-.94c-.02-1.38.94-2.43 2.41-2.43zm14.03 2.81v-2.68h.92v7.25h-.91l-.01-.76c-.3.51-.78.89-1.59.89-1.24 0-2.17-1.02-2.17-2.8 0-1.77.93-2.8 2.17-2.8.81 0 1.29.38 1.59.9zm.04 1.9c0-1.42-.67-2.03-1.44-2.03-.92 0-1.39.75-1.39 2.03s.47 2.04 1.39 2.04c.77 0 1.44-.63 1.44-2.04zm4.845-4.58h.92v1.09h-.92zm-1.52 1.87h2.44v4.59h1.53v.79h-3.97v-.79h1.52v-3.8h-1.52zm9.585.81v-.81h.92v4.71c0 1.1-.14 1.55-.43 1.89-.38.45-1.12.71-1.88.71-1.17 0-2-.56-2.16-1.62h.97c.13.49.41.82 1.2.82.46 0 .88-.14 1.1-.4.18-.21.28-.46.28-1.19v-.52c-.3.52-.78.89-1.59.89-1.24 0-2.17-.91-2.17-2.69 0-1.77.93-2.69 2.17-2.69.81 0 1.29.38 1.59.9zm.04 1.79c0-1.42-.67-1.92-1.44-1.92-.92 0-1.39.64-1.39 1.92s.47 1.93 1.39 1.93c.77 0 1.44-.52 1.44-1.93zm4.825-4.47h.92v1.09h-.92zm-1.52 1.87h2.44v4.59h1.53v.79h-3.97v-.79h1.52v-3.8h-1.52zm7.095 0v-1.35h.92v1.35h2.2v.79h-2.2v3.11c0 .55.03.69.54.69h1.66v.79h-1.86c-.98 0-1.26-.23-1.26-1.35v-3.24h-1.53v-.79zm14.289-.09c1.25 0 2.08.91 2.16 1.88h-.93c-.12-.66-.61-1.12-1.27-1.12-.8 0-1.46.69-1.46 2.04 0 1.37.66 2.05 1.46 2.05.73 0 1.19-.53 1.31-1.11h.95c-.15 1.07-1.11 1.86-2.31 1.86-1.49 0-2.38-1.16-2.38-2.8 0-1.6.93-2.8 2.47-2.8zm4.845 2.8c0 1.43.7 2.03 1.52 2.03s1.52-.6 1.52-2.03-.7-2.03-1.52-2.03-1.52.6-1.52 2.03zm-.97 0c0-1.95 1.26-2.8 2.49-2.8s2.49.85 2.49 2.8-1.26 2.8-2.49 2.8-2.49-.85-2.49-2.8zm10.115 2.67v-.69c-.29.46-.72.82-1.58.82-1.3 0-1.67-.86-1.67-2.05v-3.46h.92v3.14c0 .87.05 1.58 1.05 1.58.83 0 1.28-.61 1.28-1.76v-2.96h.92v5.38zm4.135-5.38v.76c.27-.46.73-.85 1.58-.85 1.3 0 1.69.86 1.69 2.05v3.42h-.92v-3.1c0-.87-.07-1.59-1.07-1.59-.83 0-1.28.62-1.28 1.77v2.92h-.92v-5.38zm6.375 0v-1.35h.92v1.35h2.2v.79h-2.2v3.11c0 .55.03.69.54.69h1.66v.79h-1.86c-.98 0-1.26-.23-1.26-1.35v-3.24h-1.53v-.79zm5.354 0h2.43v.96c.26-.6.78-.96 1.44-.96h.92v.84h-.91c-1.03 0-1.43.68-1.43 1.86v1.89h1.84v.79h-4.28v-.79h1.52v-3.8h-1.53zm7.435 7.13h-1.06v-.79h.97c.56 0 .74-.07 1.02-.84l.04-.12-2.01-5.38h1.01l1.46 4.15 1.43-4.15h.95l-1.99 5.61c-.38 1.06-.68 1.52-1.82 1.52zm14.43-7.22c1.25 0 2.08.91 2.16 1.88h-.93c-.12-.66-.61-1.12-1.27-1.12-.8 0-1.46.69-1.46 2.04 0 1.37.66 2.05 1.46 2.05.73 0 1.19-.53 1.31-1.11h.95c-.15 1.07-1.11 1.86-2.31 1.86-1.49 0-2.38-1.16-2.38-2.8 0-1.6.93-2.8 2.47-2.8zm4.845 2.8c0 1.43.7 2.03 1.52 2.03s1.52-.6 1.52-2.03-.7-2.03-1.52-2.03-1.52.6-1.52 2.03zm-.97 0c0-1.95 1.26-2.8 2.49-2.8s2.49.85 2.49 2.8-1.26 2.8-2.49 2.8-2.49-.85-2.49-2.8zm10.165-1.9v-2.68h.92v7.25h-.91l-.01-.76c-.3.51-.78.89-1.59.89-1.24 0-2.17-1.02-2.17-2.8 0-1.77.93-2.8 2.17-2.8.81 0 1.29.38 1.59.9zm.04 1.9c0-1.42-.67-2.03-1.44-2.03-.92 0-1.39.75-1.39 2.03s.47 2.04 1.39 2.04c.77 0 1.44-.63 1.44-2.04zm5.245 2.8c-1.63 0-2.44-1.21-2.44-2.8 0-1.73 1.02-2.81 2.44-2.81 1.57 0 2.47 1.15 2.4 3.07h-3.87c0 1.08.6 1.79 1.45 1.79.8 0 1.2-.38 1.39-.99h.95c-.22 1.02-1.06 1.74-2.32 1.74zm0-4.85c-.87 0-1.42.51-1.46 1.55h2.88c.01-.88-.48-1.55-1.42-1.55zm8.504.81h-.96c-.12-.6-.59-.8-1.2-.8-.54 0-1.08.21-1.08.69 0 .42.28.61.81.72l.6.12c.93.18 1.93.53 1.93 1.61 0 1.14-.98 1.7-2.15 1.7-1.4 0-2.1-.88-2.2-1.74h.97c.12.62.5.98 1.25.98.57 0 1.2-.2 1.2-.83 0-.5-.45-.75-1.13-.87l-.67-.13c-.85-.17-1.52-.59-1.52-1.52 0-1.04 1.13-1.49 2.03-1.49 1.14 0 1.92.6 2.12 1.56zm-307.2673 19.66v-.77h.45c.47 0 .56-.14.56-.7v-1.65c0-.93.31-1.23.84-1.37v-.02c-.53-.14-.84-.44-.84-1.37v-1.65c0-.56-.09-.7-.56-.7h-.45v-.77h.47c1.21 0 1.45.36 1.45 1.48v1.62c0 .62.1 1.03.77 1.03v.74c-.67 0-.77.4-.77 1.03v1.62c0 1.12-.24 1.48-1.45 1.48zm-12.9297 14v-.77h.45c.47 0 .56-.14.56-.7v-1.65c0-.93.31-1.23.84-1.37v-.02c-.53-.14-.84-.44-.84-1.37v-1.65c0-.56-.09-.7-.56-.7h-.45v-.77h.47c1.21 0 1.45.36 1.45 1.48v1.62c0 .62.1 1.03.77 1.03v.74c-.67 0-.77.4-.77 1.03v1.62c0 1.12-.24 1.48-1.45 1.48z" fill-opacity=".5"></path><path d="m38.8797 88.75h1.02l-.2 2.53h-.62zm1.54 0h1.02l-.2 2.53h-.62zm6.2348 7.38c-1.63 0-2.44-1.21-2.44-2.8 0-1.73 1.02-2.81 2.44-2.81 1.57 0 2.47 1.15 2.4 3.07h-3.87c0 1.08.6 1.79 1.45 1.79.8 0 1.2-.38 1.39-.99h.95c-.22 1.02-1.06 1.74-2.32 1.74zm0-4.85c-.87 0-1.42.51-1.46 1.55h2.88c.01-.88-.48-1.55-1.42-1.55zm8.7149-.66-1.77 2.61 1.88 2.77h-1.04l-1.35-2-1.35 2h-1.04l1.87-2.76-1.76-2.62h1.03l1.25 1.85 1.26-1.85zm2.9248 0v-1.35h.92v1.35h2.2v.79h-2.2v3.11c0 .55.03.69.54.69h1.66v.79h-1.86c-.98 0-1.26-.23-1.26-1.35v-3.24h-1.53v-.79zm7.7549 5.51c-1.63 0-2.44-1.21-2.44-2.8 0-1.73 1.02-2.81 2.44-2.81 1.57 0 2.47 1.15 2.4 3.07h-3.87c0 1.08.6 1.79 1.45 1.79.8 0 1.2-.38 1.39-.99h.95c-.22 1.02-1.06 1.74-2.32 1.74zm0-4.85c-.87 0-1.42.51-1.46 1.55h2.88c.01-.88-.48-1.55-1.42-1.55zm4.0648-.66h2.43v.96c.26-.6.78-.96 1.44-.96h.92v.84h-.91c-1.03 0-1.43.68-1.43 1.86v1.89h1.84v.79h-4.28v-.79h1.52v-3.8h-1.53zm7.6649 0v.76c.27-.46.73-.85 1.58-.85 1.3 0 1.69.86 1.69 2.05v3.42h-.92v-3.1c0-.87-.07-1.59-1.07-1.59-.83 0-1.28.62-1.28 1.77v2.92h-.92v-5.38zm7.0948 5.51c-.97 0-1.75-.56-1.75-1.53 0-1.28 1.36-1.67 3.56-1.91v-.23c0-.93-.51-1.21-1.21-1.21-.83 0-1.22.41-1.28 1.07h-.94c.09-1.16 1.11-1.81 2.23-1.81 1.49 0 2.13.66 2.11 2.15l-.01 1.31c-.01.9.04 1.67.07 2.03h-.88l-.01-.79c-.33.56-.89.92-1.89.92zm1.88-2.56v-.15c-1.64.16-2.64.39-2.64 1.16 0 .51.37.81 1.02.81.82 0 1.62-.39 1.62-1.82zm3.1748-4.82h2.44v6.46h1.53v.79h-3.97v-.79h1.52v-5.68h-1.52zm10.3746 8.11h-3.9297v-.86h3.9297zm3.295-8.11v2.68c.31-.52.79-.9 1.6-.9 1.23 0 2.16 1.03 2.16 2.8 0 1.78-.93 2.8-2.16 2.8-.81 0-1.29-.38-1.6-.89l-.01.76h-.91v-7.25zm-.04 4.58c0 1.42.68 2.04 1.44 2.04.93 0 1.39-.76 1.39-2.04s-.46-2.03-1.39-2.03c-.76 0-1.44.61-1.44 2.03zm8.875 2.67v-.69c-.29.46-.72.82-1.58.82-1.3 0-1.67-.86-1.67-2.05v-3.46h.92v3.14c0 .87.05 1.58 1.05 1.58.83 0 1.28-.61 1.28-1.76v-2.96h.92v5.38zm7.375-3.91h-.96c-.12-.6-.59-.8-1.2-.8-.54 0-1.08.21-1.08.69 0 .42.28.61.81.72l.6.12c.93.18 1.93.53 1.93 1.61 0 1.14-.98 1.7-2.15 1.7-1.4 0-2.1-.88-2.2-1.74h.97c.12.62.5.98 1.25.98.57 0 1.2-.2 1.2-.83 0-.5-.45-.75-1.13-.87l-.67-.13c-.85-.17-1.52-.59-1.52-1.52 0-1.04 1.13-1.49 2.03-1.49 1.14 0 1.92.6 2.12 1.56zm4.025-3.34h.92v1.09h-.92zm-1.52 1.87h2.44v4.59h1.53v.79h-3.97v-.79h1.52v-3.8h-1.52zm7.185 0v.76c.27-.46.73-.85 1.58-.85 1.3 0 1.69.86 1.69 2.05v3.42h-.92v-3.1c0-.87-.07-1.59-1.07-1.59-.83 0-1.28.62-1.28 1.77v2.92h-.92v-5.38zm7.664 5.51c-1.63 0-2.44-1.21-2.44-2.8 0-1.73 1.02-2.81 2.44-2.81 1.57 0 2.47 1.15 2.4 3.07h-3.87c0 1.08.6 1.79 1.45 1.79.8 0 1.2-.38 1.39-.99h.95c-.22 1.02-1.06 1.74-2.32 1.74zm0-4.85c-.87 0-1.42.51-1.46 1.55h2.88c.01-.88-.48-1.55-1.42-1.55zm8.505.81h-.96c-.12-.6-.59-.8-1.2-.8-.54 0-1.08.21-1.08.69 0 .42.28.61.81.72l.6.12c.93.18 1.93.53 1.93 1.61 0 1.14-.98 1.7-2.15 1.7-1.4 0-2.1-.88-2.2-1.74h.97c.12.62.5.98 1.25.98.57 0 1.2-.2 1.2-.83 0-.5-.45-.75-1.13-.87l-.67-.13c-.85-.17-1.52-.59-1.52-1.52 0-1.04 1.13-1.49 2.03-1.49 1.14 0 1.92.6 2.12 1.56zm6.465 0h-.96c-.12-.6-.59-.8-1.2-.8-.54 0-1.08.21-1.08.69 0 .42.28.61.81.72l.6.12c.93.18 1.93.53 1.93 1.61 0 1.14-.98 1.7-2.15 1.7-1.4 0-2.1-.88-2.2-1.74h.97c.12.62.5.98 1.25.98.57 0 1.2-.2 1.2-.83 0-.5-.45-.75-1.13-.87l-.67-.13c-.85-.17-1.52-.59-1.52-1.52 0-1.04 1.13-1.49 2.03-1.49 1.14 0 1.92.6 2.12 1.56zm6.355 4.77h-3.93v-.86h3.93zm4.135-8.11h.92v1.09h-.92zm-1.52 1.87h2.44v4.59h1.53v.79h-3.97v-.79h1.52v-3.8h-1.52zm9.565.81v-2.68h.92v7.25h-.91l-.01-.76c-.3.51-.78.89-1.59.89-1.24 0-2.17-1.02-2.17-2.8 0-1.77.93-2.8 2.17-2.8.81 0 1.29.38 1.59.9zm.04 1.9c0-1.42-.67-2.03-1.44-2.03-.92 0-1.39.75-1.39 2.03s.47 2.04 1.39 2.04c.77 0 1.44-.63 1.44-2.04zm3.934-4.58h1.02l-.2 2.53h-.62zm1.54 0h1.02l-.2 2.53h-.62zm-137.3013 14h1.02l-.2 2.53h-.62zm1.54 0h1.02l-.2 2.53h-.62zm4.2548 0h2.44v6.46h1.53v.79h-3.97v-.79h1.52v-5.68h-1.52zm8.4449 7.38c-1.63 0-2.44-1.21-2.44-2.8 0-1.73 1.02-2.81 2.44-2.81 1.57 0 2.47 1.15 2.4 3.07h-3.87c0 1.08.6 1.79 1.45 1.79.8 0 1.2-.38 1.39-.99h.95c-.22 1.02-1.06 1.74-2.32 1.74zm0-4.85c-.87 0-1.42.51-1.46 1.55h2.88c.01-.88-.48-1.55-1.42-1.55zm7.6648.15v-.81h.92v4.71c0 1.1-.14 1.55-.43 1.89-.38.45-1.12.71-1.88.71-1.17 0-2-.56-2.16-1.62h.97c.13.49.41.82 1.2.82.46 0 .88-.14 1.1-.4.18-.21.28-.46.28-1.19v-.52c-.3.52-.78.89-1.59.89-1.24 0-2.17-.91-2.17-2.69 0-1.77.93-2.69 2.17-2.69.81 0 1.29.38 1.59.9zm.04 1.79c0-1.42-.67-1.92-1.44-1.92-.92 0-1.39.64-1.39 1.92s.47 1.93 1.39 1.93c.77 0 1.44-.52 1.44-1.93zm4.6549 2.91c-.97 0-1.75-.56-1.75-1.53 0-1.28 1.36-1.67 3.56-1.91v-.23c0-.93-.51-1.21-1.21-1.21-.83 0-1.22.41-1.28 1.07h-.94c.09-1.16 1.11-1.81 2.23-1.81 1.49 0 2.13.66 2.11 2.15l-.01 1.31c-.01.9.04 1.67.07 2.03h-.88l-.01-.79c-.33.56-.89.92-1.89.92zm1.88-2.56v-.15c-1.64.16-2.64.39-2.64 1.16 0 .51.37.81 1.02.81.82 0 1.62-.39 1.62-1.82zm3.1748-4.82h2.44v6.46h1.53v.79h-3.97v-.79h1.52v-5.68h-1.52zm10.3749 8.11h-3.93v-.86h3.93zm3.3348-6.24v.76c.27-.46.73-.85 1.58-.85 1.3 0 1.69.86 1.69 2.05v3.42h-.92v-3.1c0-.87-.07-1.59-1.07-1.59-.83 0-1.28.62-1.28 1.77v2.92h-.92v-5.38zm7.0948 5.51c-.97 0-1.75-.56-1.75-1.53 0-1.28 1.36-1.67 3.56-1.91v-.23c0-.93-.51-1.21-1.21-1.21-.83 0-1.22.41-1.28 1.07h-.94c.09-1.16 1.11-1.81 2.23-1.81 1.49 0 2.13.66 2.11 2.15l-.01 1.31c-.01.9.04 1.67.07 2.03h-.88l-.01-.79c-.33.56-.89.92-1.89.92zm1.88-2.56v-.15c-1.64.16-2.64.39-2.64 1.16 0 .51.37.81 1.02.81.82 0 1.62-.39 1.62-1.82zm5.3949-2.36c.23-.42.58-.68 1.07-.68.5597 0 1.1097.26 1.1097 1.68v3.79h-.9197v-3.32c0-.78 0-1.38-.46-1.38s-.6.54-.6 1.65v3.05h-.92v-3.32c0-.78 0-1.38-.45-1.38-.47 0-.61.55-.61 1.67v3.03h-.92v-5.38h.88v.57c.18-.35.47-.66.98-.66.49 0 .72.32.84.68zm6.2247 4.92c-1.63 0-2.44-1.21-2.44-2.8 0-1.73 1.02-2.81 2.44-2.81 1.57 0 2.47 1.15 2.4 3.07h-3.87c0 1.08.6 1.79 1.45 1.79.8 0 1.2-.38 1.39-.99h.95c-.22 1.02-1.06 1.74-2.32 1.74zm0-4.85c-.87 0-1.42.51-1.46 1.55h2.88c.01-.88-.48-1.55-1.42-1.55zm5.155-2.53h1.02l-.2 2.53h-.62zm1.54 0h1.02l-.2 2.53h-.62zm-72.6533 14h1.02l-.2 2.53h-.62zm1.54 0h1.02l-.2 2.53h-.62zm5.8348 0h.92v1.09h-.92zm-1.52 1.87h2.44v4.59h1.53v.79h-3.97v-.79h1.52v-3.8h-1.52zm9.5649.81v-2.68h.92v7.25h-.91l-.01-.76c-.3.51-.78.89-1.59.89-1.24 0-2.17-1.02-2.17-2.8 0-1.77.93-2.8 2.17-2.8.81 0 1.29.38 1.59.9zm.04 1.9c0-1.42-.67-2.03-1.44-2.03-.92 0-1.39.75-1.39 2.03s.47 2.04 1.39 2.04c.77 0 1.44-.63 1.44-2.04zm5.2448 2.8c-1.63 0-2.44-1.21-2.44-2.8 0-1.73 1.02-2.81 2.44-2.81 1.57 0 2.47 1.15 2.4 3.07h-3.87c0 1.08.6 1.79 1.45 1.79.8 0 1.2-.38 1.39-.99h.95c-.22 1.02-1.06 1.74-2.32 1.74zm0-4.85c-.87 0-1.42.51-1.46 1.55h2.88c.01-.88-.48-1.55-1.42-1.55zm5.2649-.66v.76c.27-.46.73-.85 1.58-.85 1.3 0 1.69.86 1.69 2.05v3.42h-.92v-3.1c0-.87-.07-1.59-1.07-1.59-.83 0-1.28.62-1.28 1.77v2.92h-.92v-5.38zm6.3748 0v-1.35h.92v1.35h2.2v.79h-2.2v3.11c0 .55.03.69.54.69h1.66v.79h-1.86c-.98 0-1.26-.23-1.26-1.35v-3.24h-1.53v-.79zm7.3549-1.87h.92v1.09h-.92zm-1.52 1.87h2.44v4.59h1.53v.79h-3.97v-.79h1.52v-3.8h-1.52zm7.3248 0v-.39c0-1.12.27-1.48 1.43-1.48h1.9v.78h-1.88c-.45 0-.53.14-.53.7v.39h2.41v.79h-2.41v4.59h-.92v-4.59h-1.43v-.79zm7.1248-1.87h.92v1.09h-.92zm-1.52 1.87h2.44v4.59h1.53v.79h-3.97v-.79h1.52v-3.8h-1.52zm8.4549-.09c1.25 0 2.0797.91 2.1597 1.88h-.9297c-.12-.66-.61-1.12-1.27-1.12-.8 0-1.46.69-1.46 2.04 0 1.37.66 2.05 1.46 2.05.73 0 1.19-.53 1.31-1.11h.9497c-.15 1.07-1.1097 1.86-2.3097 1.86-1.49 0-2.38-1.16-2.38-2.8 0-1.6.93-2.8 2.47-2.8zm5.8247 5.6c-.97 0-1.75-.56-1.75-1.53 0-1.28 1.36-1.67 3.56-1.91v-.23c0-.93-.51-1.21-1.21-1.21-.83 0-1.22.41-1.28 1.07h-.94c.09-1.16 1.11-1.81 2.23-1.81 1.49 0 2.13.66 2.11 2.15l-.01 1.31c-.01.9.04 1.67.07 2.03h-.88l-.01-.79c-.33.56-.89.92-1.89.92zm1.88-2.56v-.15c-1.64.16-2.64.39-2.64 1.16 0 .51.37.81 1.02.81.82 0 1.62-.39 1.62-1.82zm3.865-2.95v-1.35h.92v1.35h2.2v.79h-2.2v3.11c0 .55.03.69.54.69h1.66v.79h-1.86c-.98 0-1.26-.23-1.26-1.35v-3.24h-1.53v-.79zm7.355-1.87h.92v1.09h-.92zm-1.52 1.87h2.44v4.59h1.53v.79h-3.97v-.79h1.52v-3.8h-1.52zm6.835 2.71c0 1.43.7 2.03 1.52 2.03s1.52-.6 1.52-2.03-.7-2.03-1.52-2.03-1.52.6-1.52 2.03zm-.97 0c0-1.95 1.26-2.8 2.49-2.8s2.49.85 2.49 2.8-1.26 2.8-2.49 2.8-2.49-.85-2.49-2.8zm7.785-2.71v.76c.27-.46.73-.85 1.58-.85 1.3 0 1.69.86 1.69 2.05v3.42h-.92v-3.1c0-.87-.07-1.59-1.07-1.59-.83 0-1.28.62-1.28 1.77v2.92h-.92v-5.38zm6.354-1.87h1.02l-.2 2.53h-.62zm1.54 0h1.02l-.2 2.53h-.62zm-85.5826 14h1.02l-.2 2.53h-.62zm1.54 0h1.02l-.2 2.53h-.62zm4.9448 1.87v-1.35h.92v1.35h2.2v.79h-2.2v3.11c0 .55.03.69.54.69h1.66v.79h-1.86c-.98 0-1.26-.23-1.26-1.35v-3.24h-1.53v-.79zm6.3249 7.13h-1.06v-.79h.97c.56 0 .74-.07 1.02-.84l.04-.12-2.01-5.38h1.01l1.46 4.15 1.43-4.15h.95l-1.99 5.61c-.38 1.06-.68 1.52-1.82 1.52zm6.6548-7.13v.81c.3-.52.79-.9 1.59-.9 1.24 0 2.17 1.03 2.17 2.8 0 1.78-.93 2.8-2.17 2.8-.8 0-1.29-.38-1.59-.89v2.51h-.92v-7.13zm-.04 2.71c0 1.42.67 2.04 1.44 2.04.92 0 1.39-.76 1.39-2.04s-.47-2.03-1.39-2.03c-.77 0-1.44.61-1.44 2.03zm7.7449 2.8c-1.63 0-2.44-1.21-2.44-2.8 0-1.73 1.02-2.81 2.44-2.81 1.57 0 2.47 1.15 2.4 3.07h-3.87c0 1.08.6 1.79 1.45 1.79.8 0 1.2-.38 1.39-.99h.95c-.22 1.02-1.06 1.74-2.32 1.74zm0-4.85c-.87 0-1.42.51-1.46 1.55h2.88c.01-.88-.48-1.55-1.42-1.55zm5.1548-2.53h1.02l-.2 2.53h-.62zm1.54 0h1.02l-.2 2.53h-.62zm-33.8642 14h1.02l-.2 2.53h-.62zm1.54 0h1.02l-.2 2.53h-.62zm3.7648 0h.95v4.41c0 1.42.25 2.09 1.48 2.09 1.25 0 1.5-.77 1.5-2.2v-4.3h.95v4.22c0 2.12-.56 3.16-2.45 3.16-1.81 0-2.43-.82-2.43-3.08zm8.3249 3.83c-.95-.21-1.83-.82-1.83-1.97 0-1.25 1.08-1.99 2.38-1.99 1.12 0 2.25.6 2.41 2.04h-.94c-.11-.87-.86-1.16-1.52-1.16s-1.35.33-1.35 1.08c0 .64.47.95 1.05 1.08l.72.16c1.17.26 2.19.77 2.19 2.15 0 1.35-1.05 2.16-2.45 2.16-1.47 0-2.54-.95-2.62-2.39h.94c.1.97.78 1.51 1.71 1.51.72 0 1.46-.38 1.46-1.21 0-.75-.57-1.09-1.36-1.27zm5.7648-3.83h1.02l-.2 2.53h-.62zm1.54 0h1.02l-.2 2.53h-.62zm-8.0048 14h1.02l-.2 2.53h-.62zm1.54 0h1.02l-.2 2.53h-.62zm4.9448 1.87v-1.35h.92v1.35h2.2v.79h-2.2v3.11c0 .55.03.69.54.69h1.66v.79h-1.86c-.98 0-1.26-.23-1.26-1.35v-3.24h-1.53v-.79zm7.3549-1.87h.92v1.09h-.92zm-1.52 1.87h2.44v4.59h1.53v.79h-3.97v-.79h1.52v-3.8h-1.52zm7.1848 0v.76c.27-.46.73-.85 1.58-.85 1.3 0 1.69.86 1.69 2.05v3.42h-.92v-3.1c0-.87-.07-1.59-1.07-1.59-.83 0-1.28.62-1.28 1.77v2.92h-.92v-5.38zm6.3548-1.87h1.02l-.2 2.53h-.62zm1.54 0h1.02l-.2 2.53h-.62zm-53.2587 42h1.02l-.2 2.53h-.62zm1.54 0h1.02l-.2 2.53h-.62zm6.2348 7.38c-1.63 0-2.44-1.21-2.44-2.8 0-1.73 1.02-2.81 2.44-2.81 1.57 0 2.47 1.15 2.4 3.07h-3.87c0 1.08.6 1.79 1.45 1.79.8 0 1.2-.38 1.39-.99h.95c-.22 1.02-1.06 1.74-2.32 1.74zm0-4.85c-.87 0-1.42.51-1.46 1.55h2.88c.01-.88-.48-1.55-1.42-1.55zm6.7049-.07c.23-.42.58-.68 1.07-.68.56 0 1.11.26 1.11 1.68v3.79h-.92v-3.32c0-.78 0-1.38-.46-1.38s-.6.54-.6 1.65v3.05h-.92v-3.32c0-.78 0-1.38-.45-1.38-.47 0-.61.55-.61 1.67v3.03h-.92v-5.38h.88v.57c.18-.35.47-.66.98-.66.49 0 .72.32.84.68zm5.6548 4.92c-.97 0-1.75-.56-1.75-1.53 0-1.28 1.36-1.67 3.56-1.91v-.23c0-.93-.51-1.21-1.21-1.21-.83 0-1.22.41-1.28 1.07h-.94c.09-1.16 1.11-1.81 2.23-1.81 1.49 0 2.13.66 2.11 2.15l-.01 1.31c-.01.9.04 1.67.07 2.03h-.88l-.01-.79c-.33.56-.89.92-1.89.92zm1.88-2.56v-.15c-1.64.16-2.64.39-2.64 1.16 0 .51.37.81 1.02.81.82 0 1.62-.39 1.62-1.82zm4.7549-4.82h.92v1.09h-.92zm-1.52 1.87h2.44v4.59h1.53v.79h-3.97v-.79h1.52v-3.8h-1.52zm6.4048-1.87h2.44v6.46h1.53v.79h-3.97v-.79h1.52v-5.68h-1.52zm7.1349 0h1.02l-.2 2.53h-.62zm1.54 0h1.02l-.2 2.53h-.62zm-40.3291 14h1.02l-.2 2.53h-.62zm1.54 0h1.02l-.2 2.53h-.62zm4.9948 1.87v.81c.3-.52.79-.9 1.59-.9 1.24 0 2.17 1.03 2.17 2.8 0 1.78-.93 2.8-2.17 2.8-.8 0-1.29-.38-1.59-.89v2.51h-.92v-7.13zm-.04 2.71c0 1.42.67 2.04 1.44 2.04.92 0 1.39-.76 1.39-2.04s-.47-2.03-1.39-2.03c-.77 0-1.44.61-1.44 2.03zm8.1349-2.8c1.3 0 1.68.86 1.68 2.05v3.42h-.92v-3.1c0-.87-.06-1.6-1.06-1.6-.83 0-1.29.63-1.29 1.78v2.92h-.92v-7.25h.92v2.63c.28-.47.76-.85 1.59-.85zm4.5248 2.8c0 1.43.7 2.03 1.52 2.03s1.52-.6 1.52-2.03-.7-2.03-1.52-2.03-1.52.6-1.52 2.03zm-.97 0c0-1.95 1.26-2.8 2.49-2.8s2.49.85 2.49 2.8-1.26 2.8-2.49 2.8-2.49-.85-2.49-2.8zm7.7849-2.71v.76c.27-.46.73-.85 1.58-.85 1.3 0 1.69.86 1.69 2.05v3.42h-.92v-3.1c0-.87-.07-1.59-1.07-1.59-.83 0-1.28.62-1.28 1.77v2.92h-.92v-5.38zm7.6648 5.51c-1.63 0-2.44-1.21-2.44-2.8 0-1.73 1.02-2.81 2.44-2.81 1.57 0 2.47 1.15 2.4 3.07h-3.87c0 1.08.6 1.79 1.45 1.79.8 0 1.2-.38 1.39-.99h.95c-.22 1.02-1.06 1.74-2.32 1.74zm0-4.85c-.87 0-1.42.51-1.46 1.55h2.88c.01-.88-.48-1.55-1.42-1.55zm8.3949 5.58h-3.93v-.86h3.93zm3.3348-6.24v.76c.27-.46.73-.85 1.58-.85 1.3 0 1.69.86 1.69 2.05v3.42h-.92v-3.1c0-.87-.07-1.59-1.07-1.59-.83 0-1.28.62-1.28 1.77v2.92h-.92v-5.38zm8.7948 5.38v-.69c-.29.46-.72.82-1.58.82-1.3 0-1.67-.86-1.67-2.05v-3.46h.92v3.14c0 .87.05 1.58 1.05 1.58.83 0 1.28-.61 1.28-1.76v-2.96h.92v5.38zm5.5749-4.79c.23-.42.58-.68 1.07-.68.5597 0 1.1097.26 1.1097 1.68v3.79h-.9197v-3.32c0-.78 0-1.38-.46-1.38s-.6.54-.6 1.65v3.05h-.92v-3.32c0-.78 0-1.38-.45-1.38-.47 0-.61.55-.61 1.67v3.03h-.92v-5.38h.88v.57c.18-.35.47-.66.98-.66.49 0 .72.32.84.68zm4.9847-2.46v2.68c.31-.52.79-.9 1.6-.9 1.23 0 2.16 1.03 2.16 2.8 0 1.78-.93 2.8-2.16 2.8-.81 0-1.29-.38-1.6-.89l-.01.76h-.91v-7.25zm-.04 4.58c0 1.42.68 2.04 1.44 2.04.93 0 1.39-.76 1.39-2.04s-.46-2.03-1.39-2.03c-.76 0-1.44.61-1.44 2.03zm7.745 2.8c-1.63 0-2.44-1.21-2.44-2.8 0-1.73 1.02-2.81 2.44-2.81 1.57 0 2.47 1.15 2.4 3.07h-3.87c0 1.08.6 1.79 1.45 1.79.8 0 1.2-.38 1.39-.99h.95c-.22 1.02-1.06 1.74-2.32 1.74zm0-4.85c-.87 0-1.42.51-1.46 1.55h2.88c.01-.88-.48-1.55-1.42-1.55zm4.065-.66h2.43v.96c.26-.6.78-.96 1.44-.96h.92v.84h-.91c-1.03 0-1.43.68-1.43 1.86v1.89h1.84v.79h-4.28v-.79h1.52v-3.8h-1.53zm7.555-1.87h1.02l-.2 2.53h-.62zm1.54 0h1.02l-.2 2.53h-.62zm-85.5833 14h1.02l-.2 2.53h-.62zm1.54 0h1.02l-.2 2.53h-.62zm5.7648 2.95h.86l.8 2.9.55-3.98h.93l-.9 5.38h-.93l-.88-3.25-.88 3.25h-.93l-.9-5.38h.94l.54 3.98zm6.9349 4.43c-1.63 0-2.44-1.21-2.44-2.8 0-1.73 1.02-2.81 2.44-2.81 1.57 0 2.47 1.15 2.4 3.07h-3.87c0 1.08.6 1.79 1.45 1.79.8 0 1.2-.38 1.39-.99h.95c-.22 1.02-1.06 1.74-2.32 1.74zm0-4.85c-.87 0-1.42.51-1.46 1.55h2.88c.01-.88-.48-1.55-1.42-1.55zm5.2248-2.53v2.68c.31-.52.79-.9 1.6-.9 1.23 0 2.16 1.03 2.16 2.8 0 1.78-.93 2.8-2.16 2.8-.81 0-1.29-.38-1.6-.89l-.01.76h-.91v-7.25zm-.04 4.58c0 1.42.68 2.04 1.44 2.04.93 0 1.39-.76 1.39-2.04s-.46-2.03-1.39-2.03c-.76 0-1.44.61-1.44 2.03zm9.7849-1.24h-.96c-.12-.6-.59-.8-1.2-.8-.54 0-1.08.21-1.08.69 0 .42.28.61.81.72l.6.12c.93.18 1.93.53 1.93 1.61 0 1.14-.98 1.7-2.15 1.7-1.4 0-2.1-.88-2.2-1.74h.97c.12.62.5.98 1.25.98.57 0 1.2-.2 1.2-.83 0-.5-.45-.75-1.13-.87l-.67-.13c-.85-.17-1.52-.59-1.52-1.52 0-1.04 1.13-1.49 2.03-1.49 1.14 0 1.92.6 2.12 1.56zm4.0248-3.34h.92v1.09h-.92zm-1.52 1.87h2.44v4.59h1.53v.79h-3.97v-.79h1.52v-3.8h-1.52zm7.0949 0v-1.35h.92v1.35h2.2v.79h-2.2v3.11c0 .55.03.69.54.69h1.66v.79h-1.86c-.98 0-1.26-.23-1.26-1.35v-3.24h-1.53v-.79zm7.7548 5.51c-1.63 0-2.44-1.21-2.44-2.8 0-1.73 1.02-2.81 2.44-2.81 1.57 0 2.47 1.15 2.4 3.07h-3.87c0 1.08.6 1.79 1.45 1.79.8 0 1.2-.38 1.39-.99h.95c-.22 1.02-1.06 1.74-2.32 1.74zm0-4.85c-.87 0-1.42.51-1.46 1.55h2.88c.01-.88-.48-1.55-1.42-1.55zm5.1548-2.53h1.02l-.2 2.53h-.62zm1.54 0h1.02l-.2 2.53h-.62zm-53.2587 14h1.02l-.2 2.53h-.62zm1.54 0h1.02l-.2 2.53h-.62zm6.6248 1.78c1.3 0 1.68.86 1.68 2.05v3.42h-.92v-3.1c0-.87-.06-1.6-1.06-1.6-.83 0-1.29.63-1.29 1.78v2.92h-.92v-7.25h.92v2.63c.28-.47.76-.85 1.59-.85zm6.0749 5.6c-1.63 0-2.44-1.21-2.44-2.8 0-1.73 1.02-2.81 2.44-2.81 1.57 0 2.47 1.15 2.4 3.07h-3.87c0 1.08.6 1.79 1.45 1.79.8 0 1.2-.38 1.39-.99h.95c-.22 1.02-1.06 1.74-2.32 1.74zm0-4.85c-.87 0-1.42.51-1.46 1.55h2.88c.01-.88-.48-1.55-1.42-1.55zm5.8948 4.85c-.97 0-1.75-.56-1.75-1.53 0-1.28 1.36-1.67 3.56-1.91v-.23c0-.93-.51-1.21-1.21-1.21-.83 0-1.22.41-1.28 1.07h-.94c.09-1.16 1.11-1.81 2.23-1.81 1.49 0 2.13.66 2.11 2.15l-.01 1.31c-.01.9.04 1.67.07 2.03h-.88l-.01-.79c-.33.56-.89.92-1.89.92zm1.88-2.56v-.15c-1.64.16-2.64.39-2.64 1.16 0 .51.37.81 1.02.81.82 0 1.62-.39 1.62-1.82zm6.3349-2.14v-2.68h.92v7.25h-.91l-.01-.76c-.3.51-.78.89-1.59.89-1.24 0-2.17-1.02-2.17-2.8 0-1.77.93-2.8 2.17-2.8.81 0 1.29.38 1.59.9zm.04 1.9c0-1.42-.67-2.03-1.44-2.03-.92 0-1.39.75-1.39 2.03s.47 2.04 1.39 2.04c.77 0 1.44-.63 1.44-2.04zm7.1748 3.53h-3.93v-.86h3.93zm2.9849-3.53c0 1.43.7 2.03 1.52 2.03s1.52-.6 1.52-2.03-.7-2.03-1.52-2.03-1.52.6-1.52 2.03zm-.97 0c0-1.95 1.26-2.8 2.49-2.8s2.49.85 2.49 2.8-1.26 2.8-2.49 2.8-2.49-.85-2.49-2.8zm7.9248-2.71v-.39c0-1.12.27-1.48 1.43-1.48h1.9v.78h-1.88c-.45 0-.53.14-.53.7v.39h2.41v.79h-2.41v4.59h-.92v-4.59h-1.43v-.79zm6.4648 0v-.39c0-1.12.27-1.48 1.43-1.48h1.9v.78h-1.88c-.45 0-.53.14-.53.7v.39h2.41v.79h-2.41v4.59h-.92v-4.59h-1.43v-.79zm7.1249-1.87h.92v1.09h-.92zm-1.52 1.87h2.44v4.59h1.5297v.79h-3.9697v-.79h1.52v-3.8h-1.52zm8.4547-.09c1.25 0 2.08.91 2.16 1.88h-.93c-.12-.66-.61-1.12-1.27-1.12-.8 0-1.46.69-1.46 2.04 0 1.37.66 2.05 1.46 2.05.73 0 1.19-.53 1.31-1.11h.95c-.15 1.07-1.11 1.86-2.31 1.86-1.49 0-2.38-1.16-2.38-2.8 0-1.6.93-2.8 2.47-2.8zm6.395 5.6c-1.63 0-2.44-1.21-2.44-2.8 0-1.73 1.02-2.81 2.44-2.81 1.57 0 2.47 1.15 2.4 3.07h-3.87c0 1.08.6 1.79 1.45 1.79.8 0 1.2-.38 1.39-.99h.95c-.22 1.02-1.06 1.74-2.32 1.74zm0-4.85c-.87 0-1.42.51-1.46 1.55h2.88c.01-.88-.48-1.55-1.42-1.55zm8.395 5.58h-3.93v-.86h3.93zm3.965-.73c-.97 0-1.75-.56-1.75-1.53 0-1.28 1.36-1.67 3.56-1.91v-.23c0-.93-.51-1.21-1.21-1.21-.83 0-1.22.41-1.28 1.07h-.94c.09-1.16 1.11-1.81 2.23-1.81 1.49 0 2.13.66 2.11 2.15l-.01 1.31c-.01.9.04 1.67.07 2.03h-.88l-.01-.79c-.33.56-.89.92-1.89.92zm1.88-2.56v-.15c-1.64.16-2.64.39-2.64 1.16 0 .51.37.81 1.02.81.82 0 1.62-.39 1.62-1.82zm6.335-2.14v-2.68h.92v7.25h-.91l-.01-.76c-.3.51-.78.89-1.59.89-1.24 0-2.17-1.02-2.17-2.8 0-1.77.93-2.8 2.17-2.8.81 0 1.29.38 1.59.9zm.04 1.9c0-1.42-.67-2.03-1.44-2.03-.92 0-1.39.75-1.39 2.03s.47 2.04 1.39 2.04c.77 0 1.44-.63 1.44-2.04zm6.424-1.9v-2.68h.92v7.25h-.91l-.01-.76c-.3.51-.78.89-1.59.89-1.24 0-2.17-1.02-2.17-2.8 0-1.77.93-2.8 2.17-2.8.81 0 1.29.38 1.59.9zm.04 1.9c0-1.42-.67-2.03-1.44-2.03-.92 0-1.39.75-1.39 2.03s.47 2.04 1.39 2.04c.77 0 1.44-.63 1.44-2.04zm2.845-2.71h2.43v.96c.26-.6.78-.96 1.44-.96h.92v.84h-.91c-1.03 0-1.43.68-1.43 1.86v1.89h1.84v.79h-4.28v-.79h1.52v-3.8h-1.53zm8.865 5.51c-1.63 0-2.44-1.21-2.44-2.8 0-1.73 1.02-2.81 2.44-2.81 1.57 0 2.47 1.15 2.4 3.07h-3.87c0 1.08.6 1.79 1.45 1.79.8 0 1.2-.38 1.39-.99h.95c-.22 1.02-1.06 1.74-2.32 1.74zm0-4.85c-.87 0-1.42.51-1.46 1.55h2.88c.01-.88-.48-1.55-1.42-1.55zm8.505.81h-.96c-.12-.6-.59-.8-1.2-.8-.54 0-1.08.21-1.08.69 0 .42.28.61.81.72l.6.12c.93.18 1.93.53 1.93 1.61 0 1.14-.98 1.7-2.15 1.7-1.4 0-2.1-.88-2.2-1.74h.97c.12.62.5.98 1.25.98.57 0 1.2-.2 1.2-.83 0-.5-.45-.75-1.13-.87l-.67-.13c-.85-.17-1.52-.59-1.52-1.52 0-1.04 1.13-1.49 2.03-1.49 1.14 0 1.92.6 2.12 1.56zm6.465 0h-.96c-.12-.6-.59-.8-1.2-.8-.54 0-1.08.21-1.08.69 0 .42.28.61.81.72l.6.12c.93.18 1.93.53 1.93 1.61 0 1.14-.98 1.7-2.15 1.7-1.4 0-2.1-.88-2.2-1.74h.97c.12.62.5.98 1.25.98.57 0 1.2-.2 1.2-.83 0-.5-.45-.75-1.13-.87l-.67-.13c-.85-.17-1.52-.59-1.52-1.52 0-1.04 1.13-1.49 2.03-1.49 1.14 0 1.92.6 2.12 1.56zm3.115-3.34h1.02l-.2 2.53h-.62zm1.54 0h1.02l-.2 2.53h-.62zm-117.9076 14h1.02l-.2 2.53h-.62zm1.54 0h1.02l-.2 2.53h-.62zm4.2548 0h2.44v6.46h1.53v.79h-3.97v-.79h1.52v-5.68h-1.52zm8.0449 0h.92v1.09h-.92zm-1.52 1.87h2.44v4.59h1.53v.79h-3.97v-.79h1.52v-3.8h-1.52zm7.1848 0v.76c.27-.46.73-.85 1.58-.85 1.3 0 1.69.86 1.69 2.05v3.42h-.92v-3.1c0-.87-.07-1.59-1.07-1.59-.83 0-1.28.62-1.28 1.77v2.92h-.92v-5.38zm7.6649 5.51c-1.63 0-2.44-1.21-2.44-2.8 0-1.73 1.02-2.81 2.44-2.81 1.57 0 2.47 1.15 2.4 3.07h-3.87c0 1.08.6 1.79 1.45 1.79.8 0 1.2-.38 1.39-.99h.95c-.22 1.02-1.06 1.74-2.32 1.74zm0-4.85c-.87 0-1.42.51-1.46 1.55h2.88c.01-.88-.48-1.55-1.42-1.55zm6.4748-2.53h.6v6.46h1.52v.79h-4.29v-.79h1.85v-4.88h-1.85v-.63c1.21-.03 1.8-.16 2.17-.95zm5.1448 0h1.02l-.2 2.53h-.62zm1.54 0h1.02l-.2 2.53h-.62zm-40.329 14h1.02l-.2 2.53h-.62zm1.54 0h1.02l-.2 2.53h-.62zm4.2548 0h2.44v6.46h1.53v.79h-3.97v-.79h1.52v-5.68h-1.52zm8.0449 0h.92v1.09h-.92zm-1.52 1.87h2.44v4.59h1.53v.79h-3.97v-.79h1.52v-3.8h-1.52zm7.1848 0v.76c.27-.46.73-.85 1.58-.85 1.3 0 1.69.86 1.69 2.05v3.42h-.92v-3.1c0-.87-.07-1.59-1.07-1.59-.83 0-1.28.62-1.28 1.77v2.92h-.92v-5.38zm7.6649 5.51c-1.63 0-2.44-1.21-2.44-2.8 0-1.73 1.02-2.81 2.44-2.81 1.57 0 2.47 1.15 2.4 3.07h-3.87c0 1.08.6 1.79 1.45 1.79.8 0 1.2-.38 1.39-.99h.95c-.22 1.02-1.06 1.74-2.32 1.74zm0-4.85c-.87 0-1.42.51-1.46 1.55h2.88c.01-.88-.48-1.55-1.42-1.55zm6.5448-2.66c1.27 0 2.22.72 2.22 1.95 0 1.68-1.62 3.16-3.47 4.64h3.6v.79h-4.89v-.79c2.43-1.89 3.78-3.25 3.78-4.52 0-.75-.43-1.29-1.25-1.29-.75 0-1.44.46-1.46 1.65h-.94c-.02-1.38.94-2.43 2.41-2.43zm5.0748.13h1.02l-.2 2.53h-.62zm1.54 0h1.02l-.2 2.53h-.62zm-40.329 14h1.02l-.2 2.53h-.62zm1.54 0h1.02l-.2 2.53h-.62zm8.2748 3.34h-.96c-.12-.6-.59-.8-1.2-.8-.54 0-1.08.21-1.08.69 0 .42.28.61.81.72l.6.12c.93.18 1.93.53 1.93 1.61 0 1.14-.98 1.7-2.15 1.7-1.4 0-2.1-.88-2.2-1.74h.97c.12.62.5.98 1.25.98.57 0 1.2-.2 1.2-.83 0-.5-.45-.75-1.13-.87l-.67-.13c-.85-.17-1.52-.59-1.52-1.52 0-1.04 1.13-1.49 2.03-1.49 1.14 0 1.92.6 2.12 1.56zm3.1349-1.47v-1.35h.92v1.35h2.2v.79h-2.2v3.11c0 .55.03.69.54.69h1.66v.79h-1.86c-.98 0-1.26-.23-1.26-1.35v-3.24h-1.53v-.79zm7.1848 5.51c-.97 0-1.75-.56-1.75-1.53 0-1.28 1.36-1.67 3.56-1.91v-.23c0-.93-.51-1.21-1.21-1.21-.83 0-1.22.41-1.28 1.07h-.94c.09-1.16 1.11-1.81 2.23-1.81 1.49 0 2.13.66 2.11 2.15l-.01 1.31c-.01.9.04 1.67.07 2.03h-.88l-.01-.79c-.33.56-.89.92-1.89.92zm1.88-2.56v-.15c-1.64.16-2.64.39-2.64 1.16 0 .51.37.81 1.02.81.82 0 1.62-.39 1.62-1.82zm3.8649-2.95v-1.35h.92v1.35h2.2v.79h-2.2v3.11c0 .55.03.69.54.69h1.66v.79h-1.86c-.98 0-1.26-.23-1.26-1.35v-3.24h-1.53v-.79zm7.7548 5.51c-1.63 0-2.44-1.21-2.44-2.8 0-1.73 1.02-2.81 2.44-2.81 1.57 0 2.47 1.15 2.4 3.07h-3.87c0 1.08.6 1.79 1.45 1.79.8 0 1.2-.38 1.39-.99h.95c-.22 1.02-1.06 1.74-2.32 1.74zm0-4.85c-.87 0-1.42.51-1.46 1.55h2.88c.01-.88-.48-1.55-1.42-1.55zm5.1548-2.53h1.02l-.2 2.53h-.62zm1.54 0h1.02l-.2 2.53h-.62zm-40.329 14h1.02l-.2 2.53h-.62zm1.54 0h1.02l-.2 2.53h-.62zm6.3048 1.78c1.25 0 2.08.91 2.16 1.88h-.93c-.12-.66-.61-1.12-1.27-1.12-.8 0-1.46.69-1.46 2.04 0 1.37.66 2.05 1.46 2.05.73 0 1.19-.53 1.31-1.11h.95c-.15 1.07-1.11 1.86-2.31 1.86-1.49 0-2.38-1.16-2.38-2.8 0-1.6.93-2.8 2.47-2.8zm5.9949-1.78h.92v1.09h-.92zm-1.52 1.87h2.44v4.59h1.53v.79h-3.97v-.79h1.52v-3.8h-1.52zm7.0948 0v-1.35h.92v1.35h2.2v.79h-2.2v3.11c0 .55.03.69.54.69h1.66v.79h-1.86c-.98 0-1.26-.23-1.26-1.35v-3.24h-1.53v-.79zm6.3249 7.13h-1.06v-.79h.97c.56 0 .74-.07 1.02-.84l.04-.12-2.01-5.38h1.01l1.46 4.15 1.43-4.15h.95l-1.99 5.61c-.38 1.06-.68 1.52-1.82 1.52zm6.5848-9h1.02l-.2 2.53h-.62zm1.54 0h1.02l-.2 2.53h-.62zm-33.8642 14h1.02l-.2 2.53h-.62zm1.54 0h1.02l-.2 2.53h-.62zm4.9948 1.87v.81c.3-.52.79-.9 1.59-.9 1.24 0 2.17 1.03 2.17 2.8 0 1.78-.93 2.8-2.17 2.8-.8 0-1.29-.38-1.59-.89v2.51h-.92v-7.13zm-.04 2.71c0 1.42.67 2.04 1.44 2.04.92 0 1.39-.76 1.39-2.04s-.47-2.03-1.39-2.03c-.77 0-1.44.61-1.44 2.03zm6.1949 0c0 1.43.7 2.03 1.52 2.03s1.52-.6 1.52-2.03-.7-2.03-1.52-2.03-1.52.6-1.52 2.03zm-.97 0c0-1.95 1.26-2.8 2.49-2.8s2.49.85 2.49 2.8-1.26 2.8-2.49 2.8-2.49-.85-2.49-2.8zm11.0248-1.24h-.96c-.12-.6-.59-.8-1.2-.8-.54 0-1.08.21-1.08.69 0 .42.28.61.81.72l.6.12c.93.18 1.93.53 1.93 1.61 0 1.14-.98 1.7-2.15 1.7-1.4 0-2.1-.88-2.2-1.74h.97c.12.62.5.98 1.25.98.57 0 1.2-.2 1.2-.83 0-.5-.45-.75-1.13-.87l-.67-.13c-.85-.17-1.52-.59-1.52-1.52 0-1.04 1.13-1.49 2.03-1.49 1.14 0 1.92.6 2.12 1.56zm3.1349-1.47v-1.35h.92v1.35h2.2v.79h-2.2v3.11c0 .55.03.69.54.69h1.66v.79h-1.86c-.98 0-1.26-.23-1.26-1.35v-3.24h-1.53v-.79zm7.1848 5.51c-.97 0-1.75-.56-1.75-1.53 0-1.28 1.36-1.67 3.56-1.91v-.23c0-.93-.51-1.21-1.21-1.21-.83 0-1.22.41-1.28 1.07h-.94c.09-1.16 1.11-1.81 2.23-1.81 1.49 0 2.13.66 2.11 2.15l-.01 1.31c-.01.9.04 1.67.07 2.03h-.88l-.01-.79c-.33.56-.89.92-1.89.92zm1.88-2.56v-.15c-1.64.16-2.64.39-2.64 1.16 0 .51.37.81 1.02.81.82 0 1.62-.39 1.62-1.82zm3.1748-4.82h2.44v6.46h1.53v.79h-3.97v-.79h1.52v-5.68h-1.52zm10.3746 8.11h-3.9297v-.86h3.9297zm4.605-6.33c1.25 0 2.08.91 2.16 1.88h-.93c-.12-.66-.61-1.12-1.27-1.12-.8 0-1.46.69-1.46 2.04 0 1.37.66 2.05 1.46 2.05.73 0 1.19-.53 1.31-1.11h.95c-.15 1.07-1.11 1.86-2.31 1.86-1.49 0-2.38-1.16-2.38-2.8 0-1.6.93-2.8 2.47-2.8zm4.845 2.8c0 1.43.7 2.03 1.52 2.03s1.52-.6 1.52-2.03-.7-2.03-1.52-2.03-1.52.6-1.52 2.03zm-.97 0c0-1.95 1.26-2.8 2.49-2.8s2.49.85 2.49 2.8-1.26 2.8-2.49 2.8-2.49-.85-2.49-2.8zm10.165-1.9v-2.68h.92v7.25h-.91l-.01-.76c-.3.51-.78.89-1.59.89-1.24 0-2.17-1.02-2.17-2.8 0-1.77.93-2.8 2.17-2.8.81 0 1.29.38 1.59.9zm.04 1.9c0-1.42-.67-2.03-1.44-2.03-.92 0-1.39.75-1.39 2.03s.47 2.04 1.39 2.04c.77 0 1.44-.63 1.44-2.04zm5.245 2.8c-1.63 0-2.44-1.21-2.44-2.8 0-1.73 1.02-2.81 2.44-2.81 1.57 0 2.47 1.15 2.4 3.07h-3.87c0 1.08.6 1.79 1.45 1.79.8 0 1.2-.38 1.39-.99h.95c-.22 1.02-1.06 1.74-2.32 1.74zm0-4.85c-.87 0-1.42.51-1.46 1.55h2.88c.01-.88-.48-1.55-1.42-1.55zm5.155-2.53h1.02l-.2 2.53h-.62zm1.54 0h1.02l-.2 2.53h-.62zm-79.1186 14h1.02l-.2 2.53h-.62zm1.54 0h1.02l-.2 2.53h-.62zm6.3048 1.78c1.25 0 2.08.91 2.16 1.88h-.93c-.12-.66-.61-1.12-1.27-1.12-.8 0-1.46.69-1.46 2.04 0 1.37.66 2.05 1.46 2.05.73 0 1.19-.53 1.31-1.11h.95c-.15 1.07-1.11 1.86-2.31 1.86-1.49 0-2.38-1.16-2.38-2.8 0-1.6.93-2.8 2.47-2.8zm4.8449 2.8c0 1.43.7 2.03 1.52 2.03s1.52-.6 1.52-2.03-.7-2.03-1.52-2.03-1.52.6-1.52 2.03zm-.97 0c0-1.95 1.26-2.8 2.49-2.8s2.49.85 2.49 2.8-1.26 2.8-2.49 2.8-2.49-.85-2.49-2.8zm10.1148 2.67v-.69c-.29.46-.72.82-1.58.82-1.3 0-1.67-.86-1.67-2.05v-3.46h.92v3.14c0 .87.05 1.58 1.05 1.58.83 0 1.28-.61 1.28-1.76v-2.96h.92v5.38zm4.1349-5.38v.76c.27-.46.73-.85 1.58-.85 1.3 0 1.69.86 1.69 2.05v3.42h-.92v-3.1c0-.87-.07-1.59-1.07-1.59-.83 0-1.28.62-1.28 1.77v2.92h-.92v-5.38zm6.3748 0v-1.35h.92v1.35h2.2v.79h-2.2v3.11c0 .55.03.69.54.69h1.66v.79h-1.86c-.98 0-1.26-.23-1.26-1.35v-3.24h-1.53v-.79zm5.3548 0h2.43v.96c.26-.6.78-.96 1.44-.96h.92v.84h-.91c-1.03 0-1.43.68-1.43 1.86v1.89h1.84v.79h-4.28v-.79h1.52v-3.8h-1.53zm7.4349 7.13h-1.06v-.79h.97c.56 0 .74-.07 1.02-.84l.04-.12-2.01-5.38h1.01l1.46 4.15 1.43-4.15h.9497l-1.9897 5.61c-.38 1.06-.68 1.52-1.82 1.52zm6.5847-9h1.02l-.2 2.53h-.62zm1.54 0h1.02l-.2 2.53h-.62zm-66.1883 28h1.02l-.2 2.53h-.62zm1.54 0h1.02l-.2 2.53h-.62zm3.8348 1.87h2.43v.96c.26-.6.78-.96 1.44-.96h.92v.84h-.91c-1.03 0-1.43.68-1.43 1.86v1.89h1.84v.79h-4.28v-.79h1.52v-3.8h-1.53zm8.8649 5.51c-1.63 0-2.44-1.21-2.44-2.8 0-1.73 1.02-2.81 2.44-2.81 1.57 0 2.47 1.15 2.4 3.07h-3.87c0 1.08.6 1.79 1.45 1.79.8 0 1.2-.38 1.39-.99h.95c-.22 1.02-1.06 1.74-2.32 1.74zm0-4.85c-.87 0-1.42.51-1.46 1.55h2.88c.01-.88-.48-1.55-1.42-1.55zm7.6648.15v-.81h.92v4.71c0 1.1-.14 1.55-.43 1.89-.38.45-1.12.71-1.88.71-1.17 0-2-.56-2.16-1.62h.97c.13.49.41.82 1.2.82.46 0 .88-.14 1.1-.4.18-.21.28-.46.28-1.19v-.52c-.3.52-.78.89-1.59.89-1.24 0-2.17-.91-2.17-2.69 0-1.77.93-2.69 2.17-2.69.81 0 1.29.38 1.59.9zm.04 1.79c0-1.42-.67-1.92-1.44-1.92-.92 0-1.39.64-1.39 1.92s.47 1.93 1.39 1.93c.77 0 1.44-.52 1.44-1.93zm4.8249-4.47h.92v1.09h-.92zm-1.52 1.87h2.44v4.59h1.53v.79h-3.97v-.79h1.52v-3.8h-1.52zm10.4248 1.47h-.96c-.12-.6-.59-.8-1.2-.8-.54 0-1.08.21-1.08.69 0 .42.28.61.81.72l.6.12c.93.18 1.93.53 1.93 1.61 0 1.14-.98 1.7-2.15 1.7-1.4 0-2.1-.88-2.2-1.74h.97c.12.62.5.98 1.25.98.57 0 1.2-.2 1.2-.83 0-.5-.45-.75-1.13-.87l-.67-.13c-.85-.17-1.52-.59-1.52-1.52 0-1.04 1.13-1.49 2.03-1.49 1.14 0 1.92.6 2.12 1.56zm3.1349-1.47v-1.35h.92v1.35h2.2v.79h-2.2v3.11c0 .55.03.69.54.69h1.66v.79h-1.86c-.98 0-1.26-.23-1.26-1.35v-3.24h-1.53v-.79zm5.3548 0h2.43v.96c.26-.6.78-.96 1.44-.96h.92v.84h-.91c-1.03 0-1.43.68-1.43 1.86v1.89h1.84v.79h-4.28v-.79h1.52v-3.8h-1.53zm8.2948 5.51c-.97 0-1.75-.56-1.75-1.53 0-1.28 1.36-1.67 3.56-1.91v-.23c0-.93-.51-1.21-1.21-1.21-.83 0-1.22.41-1.28 1.07h-.94c.09-1.16 1.11-1.81 2.23-1.81 1.49 0 2.13.66 2.11 2.15l-.01 1.31c-.01.9.04 1.67.07 2.03h-.88l-.01-.79c-.33.56-.89.92-1.89.92zm1.88-2.56v-.15c-1.64.16-2.64.39-2.64 1.16 0 .51.37.81 1.02.81.82 0 1.62-.39 1.62-1.82zm3.8649-2.95v-1.35h.92v1.35h2.1997v.79h-2.1997v3.11c0 .55.03.69.54.69h1.6597v.79h-1.8597c-.98 0-1.26-.23-1.26-1.35v-3.24h-1.53v-.79zm7.3547-1.87h.92v1.09h-.92zm-1.52 1.87h2.44v4.59h1.53v.79h-3.97v-.79h1.52v-3.8h-1.52zm6.835 2.71c0 1.43.7 2.03 1.52 2.03s1.52-.6 1.52-2.03-.7-2.03-1.52-2.03-1.52.6-1.52 2.03zm-.97 0c0-1.95 1.26-2.8 2.49-2.8s2.49.85 2.49 2.8-1.26 2.8-2.49 2.8-2.49-.85-2.49-2.8zm7.785-2.71v.76c.27-.46.73-.85 1.58-.85 1.3 0 1.69.86 1.69 2.05v3.42h-.92v-3.1c0-.87-.07-1.59-1.07-1.59-.83 0-1.28.62-1.28 1.77v2.92h-.92v-5.38zm9.595 6.24h-3.93v-.86h3.93zm3.965-.73c-.97 0-1.75-.56-1.75-1.53 0-1.28 1.36-1.67 3.56-1.91v-.23c0-.93-.51-1.21-1.21-1.21-.83 0-1.22.41-1.28 1.07h-.94c.09-1.16 1.11-1.81 2.23-1.81 1.49 0 2.13.66 2.11 2.15l-.01 1.31c-.01.9.04 1.67.07 2.03h-.88l-.01-.79c-.33.56-.89.92-1.89.92zm1.88-2.56v-.15c-1.64.16-2.64.39-2.64 1.16 0 .51.37.81 1.02.81.82 0 1.62-.39 1.62-1.82zm6.334-2.14v-2.68h.92v7.25h-.91l-.01-.76c-.3.51-.78.89-1.59.89-1.24 0-2.17-1.02-2.17-2.8 0-1.77.93-2.8 2.17-2.8.81 0 1.29.38 1.59.9zm.04 1.9c0-1.42-.67-2.03-1.44-2.03-.92 0-1.39.75-1.39 2.03s.47 2.04 1.39 2.04c.77 0 1.44-.63 1.44-2.04zm6.425-1.9v-2.68h.92v7.25h-.91l-.01-.76c-.3.51-.78.89-1.59.89-1.24 0-2.17-1.02-2.17-2.8 0-1.77.93-2.8 2.17-2.8.81 0 1.29.38 1.59.9zm.04 1.9c0-1.42-.67-2.03-1.44-2.03-.92 0-1.39.75-1.39 2.03s.47 2.04 1.39 2.04c.77 0 1.44-.63 1.44-2.04zm2.845-2.71h2.43v.96c.26-.6.78-.96 1.44-.96h.92v.84h-.91c-1.03 0-1.43.68-1.43 1.86v1.89h1.84v.79h-4.28v-.79h1.52v-3.8h-1.53zm8.865 5.51c-1.63 0-2.44-1.21-2.44-2.8 0-1.73 1.02-2.81 2.44-2.81 1.57 0 2.47 1.15 2.4 3.07h-3.87c0 1.08.6 1.79 1.45 1.79.8 0 1.2-.38 1.39-.99h.95c-.22 1.02-1.06 1.74-2.32 1.74zm0-4.85c-.87 0-1.42.51-1.46 1.55h2.88c.01-.88-.48-1.55-1.42-1.55zm8.505.81h-.96c-.12-.6-.59-.8-1.2-.8-.54 0-1.08.21-1.08.69 0 .42.28.61.81.72l.6.12c.93.18 1.93.53 1.93 1.61 0 1.14-.98 1.7-2.15 1.7-1.4 0-2.1-.88-2.2-1.74h.97c.12.62.5.98 1.25.98.57 0 1.2-.2 1.2-.83 0-.5-.45-.75-1.13-.87l-.67-.13c-.85-.17-1.52-.59-1.52-1.52 0-1.04 1.13-1.49 2.03-1.49 1.14 0 1.92.6 2.12 1.56zm6.465 0h-.96c-.12-.6-.59-.8-1.2-.8-.54 0-1.08.21-1.08.69 0 .42.28.61.81.72l.6.12c.93.18 1.93.53 1.93 1.61 0 1.14-.98 1.7-2.15 1.7-1.4 0-2.1-.88-2.2-1.74h.97c.12.62.5.98 1.25.98.57 0 1.2-.2 1.2-.83 0-.5-.45-.75-1.13-.87l-.67-.13c-.85-.17-1.52-.59-1.52-1.52 0-1.04 1.13-1.49 2.03-1.49 1.14 0 1.92.6 2.12 1.56zm3.114-3.34h1.02l-.2 2.53h-.62zm1.54 0h1.02l-.2 2.53h-.62zm-124.3716 14h1.02l-.2 2.53h-.62zm1.54 0h1.02l-.2 2.53h-.62zm4.2548 0h2.44v6.46h1.53v.79h-3.97v-.79h1.52v-5.68h-1.52zm8.0449 0h.92v1.09h-.92zm-1.52 1.87h2.44v4.59h1.53v.79h-3.97v-.79h1.52v-3.8h-1.52zm7.1848 0v.76c.27-.46.73-.85 1.58-.85 1.3 0 1.69.86 1.69 2.05v3.42h-.92v-3.1c0-.87-.07-1.59-1.07-1.59-.83 0-1.28.62-1.28 1.77v2.92h-.92v-5.38zm7.6649 5.51c-1.63 0-2.44-1.21-2.44-2.8 0-1.73 1.02-2.81 2.44-2.81 1.57 0 2.47 1.15 2.4 3.07h-3.87c0 1.08.6 1.79 1.45 1.79.8 0 1.2-.38 1.39-.99h.95c-.22 1.02-1.06 1.74-2.32 1.74zm0-4.85c-.87 0-1.42.51-1.46 1.55h2.88c.01-.88-.48-1.55-1.42-1.55zm6.4748-2.53h.6v6.46h1.52v.79h-4.29v-.79h1.85v-4.88h-1.85v-.63c1.21-.03 1.8-.16 2.17-.95zm5.1448 0h1.02l-.2 2.53h-.62zm1.54 0h1.02l-.2 2.53h-.62zm-40.329 14h1.02l-.2 2.53h-.62zm1.54 0h1.02l-.2 2.53h-.62zm4.2548 0h2.44v6.46h1.53v.79h-3.97v-.79h1.52v-5.68h-1.52zm8.0449 0h.92v1.09h-.92zm-1.52 1.87h2.44v4.59h1.53v.79h-3.97v-.79h1.52v-3.8h-1.52zm7.1848 0v.76c.27-.46.73-.85 1.58-.85 1.3 0 1.69.86 1.69 2.05v3.42h-.92v-3.1c0-.87-.07-1.59-1.07-1.59-.83 0-1.28.62-1.28 1.77v2.92h-.92v-5.38zm7.6649 5.51c-1.63 0-2.44-1.21-2.44-2.8 0-1.73 1.02-2.81 2.44-2.81 1.57 0 2.47 1.15 2.4 3.07h-3.87c0 1.08.6 1.79 1.45 1.79.8 0 1.2-.38 1.39-.99h.95c-.22 1.02-1.06 1.74-2.32 1.74zm0-4.85c-.87 0-1.42.51-1.46 1.55h2.88c.01-.88-.48-1.55-1.42-1.55zm6.5448-2.66c1.27 0 2.22.72 2.22 1.95 0 1.68-1.62 3.16-3.47 4.64h3.6v.79h-4.89v-.79c2.43-1.89 3.78-3.25 3.78-4.52 0-.75-.43-1.29-1.25-1.29-.75 0-1.44.46-1.46 1.65h-.94c-.02-1.38.94-2.43 2.41-2.43zm5.0748.13h1.02l-.2 2.53h-.62zm1.54 0h1.02l-.2 2.53h-.62zm-40.329 14h1.02l-.2 2.53h-.62zm1.54 0h1.02l-.2 2.53h-.62zm8.2748 3.34h-.96c-.12-.6-.59-.8-1.2-.8-.54 0-1.08.21-1.08.69 0 .42.28.61.81.72l.6.12c.93.18 1.93.53 1.93 1.61 0 1.14-.98 1.7-2.15 1.7-1.4 0-2.1-.88-2.2-1.74h.97c.12.62.5.98 1.25.98.57 0 1.2-.2 1.2-.83 0-.5-.45-.75-1.13-.87l-.67-.13c-.85-.17-1.52-.59-1.52-1.52 0-1.04 1.13-1.49 2.03-1.49 1.14 0 1.92.6 2.12 1.56zm3.1349-1.47v-1.35h.92v1.35h2.2v.79h-2.2v3.11c0 .55.03.69.54.69h1.66v.79h-1.86c-.98 0-1.26-.23-1.26-1.35v-3.24h-1.53v-.79zm7.1848 5.51c-.97 0-1.75-.56-1.75-1.53 0-1.28 1.36-1.67 3.56-1.91v-.23c0-.93-.51-1.21-1.21-1.21-.83 0-1.22.41-1.28 1.07h-.94c.09-1.16 1.11-1.81 2.23-1.81 1.49 0 2.13.66 2.11 2.15l-.01 1.31c-.01.9.04 1.67.07 2.03h-.88l-.01-.79c-.33.56-.89.92-1.89.92zm1.88-2.56v-.15c-1.64.16-2.64.39-2.64 1.16 0 .51.37.81 1.02.81.82 0 1.62-.39 1.62-1.82zm3.8649-2.95v-1.35h.92v1.35h2.2v.79h-2.2v3.11c0 .55.03.69.54.69h1.66v.79h-1.86c-.98 0-1.26-.23-1.26-1.35v-3.24h-1.53v-.79zm7.7548 5.51c-1.63 0-2.44-1.21-2.44-2.8 0-1.73 1.02-2.81 2.44-2.81 1.57 0 2.47 1.15 2.4 3.07h-3.87c0 1.08.6 1.79 1.45 1.79.8 0 1.2-.38 1.39-.99h.95c-.22 1.02-1.06 1.74-2.32 1.74zm0-4.85c-.87 0-1.42.51-1.46 1.55h2.88c.01-.88-.48-1.55-1.42-1.55zm5.1548-2.53h1.02l-.2 2.53h-.62zm1.54 0h1.02l-.2 2.53h-.62zm-40.329 14h1.02l-.2 2.53h-.62zm1.54 0h1.02l-.2 2.53h-.62zm6.3048 1.78c1.25 0 2.08.91 2.16 1.88h-.93c-.12-.66-.61-1.12-1.27-1.12-.8 0-1.46.69-1.46 2.04 0 1.37.66 2.05 1.46 2.05.73 0 1.19-.53 1.31-1.11h.95c-.15 1.07-1.11 1.86-2.31 1.86-1.49 0-2.38-1.16-2.38-2.8 0-1.6.93-2.8 2.47-2.8zm5.9949-1.78h.92v1.09h-.92zm-1.52 1.87h2.44v4.59h1.53v.79h-3.97v-.79h1.52v-3.8h-1.52zm7.0948 0v-1.35h.92v1.35h2.2v.79h-2.2v3.11c0 .55.03.69.54.69h1.66v.79h-1.86c-.98 0-1.26-.23-1.26-1.35v-3.24h-1.53v-.79zm6.3249 7.13h-1.06v-.79h.97c.56 0 .74-.07 1.02-.84l.04-.12-2.01-5.38h1.01l1.46 4.15 1.43-4.15h.95l-1.99 5.61c-.38 1.06-.68 1.52-1.82 1.52zm6.5848-9h1.02l-.2 2.53h-.62zm1.54 0h1.02l-.2 2.53h-.62zm-33.8642 14h1.02l-.2 2.53h-.62zm1.54 0h1.02l-.2 2.53h-.62zm4.9948 1.87v.81c.3-.52.79-.9 1.59-.9 1.24 0 2.17 1.03 2.17 2.8 0 1.78-.93 2.8-2.17 2.8-.8 0-1.29-.38-1.59-.89v2.51h-.92v-7.13zm-.04 2.71c0 1.42.67 2.04 1.44 2.04.92 0 1.39-.76 1.39-2.04s-.47-2.03-1.39-2.03c-.77 0-1.44.61-1.44 2.03zm6.1949 0c0 1.43.7 2.03 1.52 2.03s1.52-.6 1.52-2.03-.7-2.03-1.52-2.03-1.52.6-1.52 2.03zm-.97 0c0-1.95 1.26-2.8 2.49-2.8s2.49.85 2.49 2.8-1.26 2.8-2.49 2.8-2.49-.85-2.49-2.8zm11.0248-1.24h-.96c-.12-.6-.59-.8-1.2-.8-.54 0-1.08.21-1.08.69 0 .42.28.61.81.72l.6.12c.93.18 1.93.53 1.93 1.61 0 1.14-.98 1.7-2.15 1.7-1.4 0-2.1-.88-2.2-1.74h.97c.12.62.5.98 1.25.98.57 0 1.2-.2 1.2-.83 0-.5-.45-.75-1.13-.87l-.67-.13c-.85-.17-1.52-.59-1.52-1.52 0-1.04 1.13-1.49 2.03-1.49 1.14 0 1.92.6 2.12 1.56zm3.1349-1.47v-1.35h.92v1.35h2.2v.79h-2.2v3.11c0 .55.03.69.54.69h1.66v.79h-1.86c-.98 0-1.26-.23-1.26-1.35v-3.24h-1.53v-.79zm7.1848 5.51c-.97 0-1.75-.56-1.75-1.53 0-1.28 1.36-1.67 3.56-1.91v-.23c0-.93-.51-1.21-1.21-1.21-.83 0-1.22.41-1.28 1.07h-.94c.09-1.16 1.11-1.81 2.23-1.81 1.49 0 2.13.66 2.11 2.15l-.01 1.31c-.01.9.04 1.67.07 2.03h-.88l-.01-.79c-.33.56-.89.92-1.89.92zm1.88-2.56v-.15c-1.64.16-2.64.39-2.64 1.16 0 .51.37.81 1.02.81.82 0 1.62-.39 1.62-1.82zm3.1748-4.82h2.44v6.46h1.53v.79h-3.97v-.79h1.52v-5.68h-1.52zm10.3746 8.11h-3.9297v-.86h3.9297zm4.605-6.33c1.25 0 2.08.91 2.16 1.88h-.93c-.12-.66-.61-1.12-1.27-1.12-.8 0-1.46.69-1.46 2.04 0 1.37.66 2.05 1.46 2.05.73 0 1.19-.53 1.31-1.11h.95c-.15 1.07-1.11 1.86-2.31 1.86-1.49 0-2.38-1.16-2.38-2.8 0-1.6.93-2.8 2.47-2.8zm4.845 2.8c0 1.43.7 2.03 1.52 2.03s1.52-.6 1.52-2.03-.7-2.03-1.52-2.03-1.52.6-1.52 2.03zm-.97 0c0-1.95 1.26-2.8 2.49-2.8s2.49.85 2.49 2.8-1.26 2.8-2.49 2.8-2.49-.85-2.49-2.8zm10.165-1.9v-2.68h.92v7.25h-.91l-.01-.76c-.3.51-.78.89-1.59.89-1.24 0-2.17-1.02-2.17-2.8 0-1.77.93-2.8 2.17-2.8.81 0 1.29.38 1.59.9zm.04 1.9c0-1.42-.67-2.03-1.44-2.03-.92 0-1.39.75-1.39 2.03s.47 2.04 1.39 2.04c.77 0 1.44-.63 1.44-2.04zm5.245 2.8c-1.63 0-2.44-1.21-2.44-2.8 0-1.73 1.02-2.81 2.44-2.81 1.57 0 2.47 1.15 2.4 3.07h-3.87c0 1.08.6 1.79 1.45 1.79.8 0 1.2-.38 1.39-.99h.95c-.22 1.02-1.06 1.74-2.32 1.74zm0-4.85c-.87 0-1.42.51-1.46 1.55h2.88c.01-.88-.48-1.55-1.42-1.55zm5.155-2.53h1.02l-.2 2.53h-.62zm1.54 0h1.02l-.2 2.53h-.62zm-79.1186 14h1.02l-.2 2.53h-.62zm1.54 0h1.02l-.2 2.53h-.62zm6.3048 1.78c1.25 0 2.08.91 2.16 1.88h-.93c-.12-.66-.61-1.12-1.27-1.12-.8 0-1.46.69-1.46 2.04 0 1.37.66 2.05 1.46 2.05.73 0 1.19-.53 1.31-1.11h.95c-.15 1.07-1.11 1.86-2.31 1.86-1.49 0-2.38-1.16-2.38-2.8 0-1.6.93-2.8 2.47-2.8zm4.8449 2.8c0 1.43.7 2.03 1.52 2.03s1.52-.6 1.52-2.03-.7-2.03-1.52-2.03-1.52.6-1.52 2.03zm-.97 0c0-1.95 1.26-2.8 2.49-2.8s2.49.85 2.49 2.8-1.26 2.8-2.49 2.8-2.49-.85-2.49-2.8zm10.1148 2.67v-.69c-.29.46-.72.82-1.58.82-1.3 0-1.67-.86-1.67-2.05v-3.46h.92v3.14c0 .87.05 1.58 1.05 1.58.83 0 1.28-.61 1.28-1.76v-2.96h.92v5.38zm4.1349-5.38v.76c.27-.46.73-.85 1.58-.85 1.3 0 1.69.86 1.69 2.05v3.42h-.92v-3.1c0-.87-.07-1.59-1.07-1.59-.83 0-1.28.62-1.28 1.77v2.92h-.92v-5.38zm6.3748 0v-1.35h.92v1.35h2.2v.79h-2.2v3.11c0 .55.03.69.54.69h1.66v.79h-1.86c-.98 0-1.26-.23-1.26-1.35v-3.24h-1.53v-.79zm5.3548 0h2.43v.96c.26-.6.78-.96 1.44-.96h.92v.84h-.91c-1.03 0-1.43.68-1.43 1.86v1.89h1.84v.79h-4.28v-.79h1.52v-3.8h-1.53zm7.4349 7.13h-1.06v-.79h.97c.56 0 .74-.07 1.02-.84l.04-.12-2.01-5.38h1.01l1.46 4.15 1.43-4.15h.9497l-1.9897 5.61c-.38 1.06-.68 1.52-1.82 1.52zm6.5847-9h1.02l-.2 2.53h-.62zm1.54 0h1.02l-.2 2.53h-.62z"></path></g></g></svg>