<svg xmlns="http://www.w3.org/2000/svg" width="100%" viewBox="0 0 245 62" fill="none" aria-labelledby="field-media-image-title-0"><path fill-rule="evenodd" clip-rule="evenodd" d="M51.5276 26.8074L51.5277 26.8075C51.7304 27.0284 51.9264 27.2418 52.1097 27.4473C53.8719 28.9956 54.9858 31.2639 54.9858 33.7937C54.9858 38.4595 51.2018 42.242 46.5338 42.242C41.8661 42.242 38.082 38.4595 38.082 33.7937C38.082 31.2694 39.1909 29.0052 40.9466 27.4572L40.9404 27.4521C41.1369 27.2322 41.3486 27.0032 41.568 26.7656L41.5682 26.7655C43.0267 25.1869 44.8302 23.2349 44.8302 21.121C44.8302 19.0074 43.0271 17.0556 41.5687 15.4769C41.349 15.2391 41.1372 15.0097 40.9404 14.7896C40.9419 14.7886 40.9433 14.7875 40.9447 14.7864L40.9466 14.7848C39.1909 13.2368 38.082 10.9726 38.082 8.44826C38.082 3.78248 41.8661 0 46.5338 0C51.2018 0 54.9858 3.78248 54.9858 8.44826C54.9858 10.9781 53.8719 13.2464 52.1097 14.7947C51.9263 15.0002 51.7304 15.2137 51.5276 15.4346C50.0717 17.0206 48.2653 18.9884 48.2653 21.121C48.2653 23.2536 50.0716 25.2214 51.5276 26.8074ZM16.9036 33.7935C16.9036 29.1277 13.1196 25.3452 8.45187 25.3452C3.78417 25.3452 0.000136472 29.1277 0.000136472 33.7935C0.000136472 38.4596 3.78417 42.2421 8.45187 42.2421C13.1196 42.2421 16.9036 38.4596 16.9036 33.7935ZM0 8.4484C0 13.1142 3.78404 16.8967 8.45173 16.8967C13.1198 16.8967 16.9038 13.1142 16.9038 8.4484C16.9038 3.78262 13.1198 0.000136416 8.45173 0.000136416C3.78404 0.000136416 0 3.78262 0 8.4484ZM27.4908 61.7442C22.8231 61.7442 19.0391 57.9617 19.0391 53.2959C19.0391 48.6301 22.8231 44.8477 27.4908 44.8477C32.1588 44.8477 35.9429 48.6301 35.9429 53.2959C35.9429 57.9617 32.1588 61.7442 27.4908 61.7442Z" fill="currentColor"></path><path fill-rule="evenodd" clip-rule="evenodd" d="M138.398 27.3579C138.398 25.3434 140.008 23.7104 141.993 23.7104C143.979 23.7104 145.588 25.3434 145.588 27.3579C145.588 29.3724 143.979 31.0057 141.993 31.0057C140.008 31.0057 138.398 29.3724 138.398 27.3579ZM136.842 33.9604H134.394C131.085 33.9604 129.376 36.0878 128.426 37.3316C128.063 37.8063 127.538 37.7677 127.538 37.0782V34.2707C127.538 34.0992 127.401 33.9604 127.232 33.9604H122.598C122.43 33.9604 122.293 34.0992 122.293 34.2707V61.4851C122.293 61.6563 122.43 61.7954 122.598 61.7954H127.547C127.715 61.7954 127.852 61.6563 127.852 61.4851V45.2884C127.852 41.0912 130.337 39.0606 134.398 39.0606L136.842 39.0599C137.011 39.0599 137.147 38.9211 137.147 38.7499V34.2707C137.147 34.0992 137.011 33.9604 136.842 33.9604ZM144.455 33.9604H139.532C139.363 33.9604 139.227 34.0993 139.227 34.2708V61.4852C139.227 61.6564 139.363 61.7955 139.532 61.7955H144.455C144.624 61.7955 144.761 61.6564 144.761 61.4852V34.2708C144.761 34.0993 144.624 33.9604 144.455 33.9604ZM162.983 38.3426V34.2702C162.983 34.099 162.846 33.9602 162.677 33.9602L157.158 33.9592V31.1688C157.158 30.4191 157.343 29.8523 157.724 29.4359C158.098 29.026 158.61 28.8268 159.289 28.8268H162.714L162.717 28.8267L162.718 28.8265L162.721 28.8262L162.723 28.8261H162.993C163.162 28.8261 163.299 28.6873 163.299 28.5161V28.2593V24.2944V24.0369C163.299 23.8654 163.162 23.7266 162.993 23.7266H162.714H161.868H158.908C154.058 23.7266 151.599 25.9273 151.599 30.2677V33.9602H147.095C146.926 33.9602 146.789 34.099 146.789 34.2702V38.3426C146.789 38.5138 146.926 38.6529 147.095 38.6529L151.599 38.659V60.0508V61.2274V61.4849C151.599 61.6561 151.736 61.7949 151.904 61.7949H152.183H156.599H156.852C157.021 61.7949 157.158 61.6561 157.158 61.4849V61.2366L157.158 61.2334L157.158 61.2318C157.158 61.2303 157.158 61.2289 157.158 61.2274V38.6584L162.677 38.6529C162.846 38.6529 162.983 38.5138 162.983 38.3426ZM106.555 38.751C101.476 38.751 99.4766 43.2868 99.4766 45.3644L113.505 45.3655C113.505 43.2868 112.117 38.751 106.555 38.751ZM93.6094 47.838C93.6094 42.7511 95.9229 33.6504 106.552 33.6504C117.145 33.6504 119.143 42.573 119.442 45.9804C119.557 47.2893 119.42 49.6326 119.42 49.6326C119.411 49.7966 119.277 49.9252 119.115 49.9252L99.4736 49.9249C99.4736 55.608 104.371 56.8998 106.552 56.8998C111.387 56.8998 112.726 53.7004 112.94 53.1889C112.949 53.1683 112.956 53.152 112.961 53.1405C113.01 53.0297 113.118 52.9605 113.238 52.9605H118.589C118.732 52.9605 118.832 53.0471 118.798 53.2381C118.604 54.1967 116.578 62.0001 106.552 62.0001C99.3224 62.0001 93.6094 57.1931 93.6094 47.838ZM224.984 45.3644C224.984 43.2868 226.984 38.751 232.063 38.751C237.625 38.751 239.013 43.2868 239.013 45.3655L224.984 45.3644ZM244.954 45.9804C244.655 42.573 242.657 33.6504 232.064 33.6504C221.435 33.6504 219.121 42.7511 219.121 47.838C219.121 57.1931 224.834 62.0001 232.064 62.0001C242.09 62.0001 244.116 54.1967 244.31 53.2381C244.344 53.0471 244.244 52.9605 244.101 52.9605H238.75C238.63 52.9605 238.522 53.0297 238.473 53.1405L238.462 53.1645L238.452 53.1889C238.238 53.7005 236.899 56.8998 232.064 56.8998C229.882 56.8998 224.985 55.608 224.985 49.9249L244.627 49.9252C244.789 49.9252 244.923 49.7966 244.932 49.6326C244.932 49.6326 245.069 47.2893 244.954 45.9804ZM183.764 48.369C183.765 48.355 183.765 48.341 183.766 48.3269C183.771 48.1656 183.774 48.0029 183.774 47.8379C183.774 47.6762 183.771 47.5166 183.766 47.3584C183.764 47.2921 183.76 47.2267 183.757 47.1612L183.756 47.1387L183.754 47.0995L183.751 47.0294L183.751 47.0291C183.749 46.983 183.747 46.9369 183.744 46.8915C183.737 46.7929 183.729 46.6957 183.72 46.5982L183.716 46.5407L183.716 46.54C183.713 46.5025 183.71 46.465 183.706 46.428C183.697 46.3409 183.687 46.2551 183.677 46.169L183.676 46.1634C183.668 46.0948 183.66 46.0263 183.652 45.9587C183.646 45.9166 183.639 45.8747 183.633 45.8329L183.623 45.7667C183.608 45.6682 183.593 45.5693 183.576 45.4724C183.572 45.4472 183.567 45.4223 183.562 45.397C183.262 43.7682 182.644 42.3754 181.713 41.2391C180.7 40.0038 179.395 39.2245 177.82 38.9098L177.805 38.9069L177.797 38.9055L177.797 38.9055C177.789 38.9041 177.782 38.9028 177.774 38.9012C177.663 38.8797 177.551 38.8606 177.437 38.8436L177.408 38.8397L177.379 38.8358L177.338 38.8307L177.29 38.8245L177.289 38.8245C177.202 38.8132 177.115 38.802 177.027 38.7935C176.962 38.7871 176.896 38.7826 176.83 38.778L176.781 38.7747L176.724 38.7705C176.68 38.7672 176.637 38.7639 176.592 38.7617C176.443 38.7546 176.291 38.7505 176.137 38.7505C175.984 38.7505 175.835 38.7546 175.688 38.7614C175.604 38.7654 175.523 38.7719 175.441 38.7784L175.415 38.7805C175.407 38.7812 175.399 38.7818 175.391 38.7824C175.377 38.7834 175.364 38.7844 175.35 38.7854C175.323 38.7873 175.295 38.7893 175.268 38.7918C173.339 38.9786 171.762 39.8036 170.573 41.252C169.462 42.6063 168.794 44.3129 168.578 46.3383L168.575 46.3639L168.572 46.3867C168.56 46.5051 168.551 46.6255 168.542 46.7458C168.541 46.7576 168.54 46.7694 168.539 46.7811C168.538 46.7907 168.537 46.8003 168.536 46.81L168.536 46.8117C168.535 46.8324 168.533 46.8532 168.531 46.8741C168.524 46.9842 168.519 47.0961 168.515 47.208C168.514 47.2277 168.513 47.2472 168.512 47.2668L168.512 47.2687L168.512 47.2707C168.51 47.2983 168.509 47.3258 168.508 47.3536C168.503 47.5135 168.5 47.6745 168.5 47.8379C168.5 48.0043 168.503 48.1687 168.508 48.3313C168.508 48.3396 168.509 48.3477 168.509 48.3557V48.3559C168.51 48.3638 168.51 48.3716 168.51 48.3794C168.599 50.8284 169.291 52.8556 170.573 54.4104C171.764 55.8554 173.346 56.677 175.283 56.8601C175.288 56.8608 175.292 56.8608 175.297 56.8611C175.427 56.8734 175.559 56.8826 175.692 56.8887C175.838 56.8956 175.986 56.8997 176.137 56.8997C176.29 56.8997 176.44 56.8956 176.588 56.8887C176.672 56.8848 176.754 56.8783 176.836 56.8719L176.864 56.8696C176.913 56.8659 176.962 56.8632 177.01 56.8587C178.953 56.6739 180.532 55.8571 181.713 54.4234C182.897 52.9862 183.575 51.1316 183.735 48.9009L183.738 48.8666C183.74 48.8495 183.741 48.8325 183.742 48.8153C183.75 48.6966 183.755 48.5759 183.76 48.4548C183.761 48.4369 183.762 48.419 183.763 48.4012L183.763 48.4009L183.764 48.369ZM189.321 47.1081C189.329 47.3482 189.334 47.5906 189.334 47.8379C189.334 48.0851 189.329 48.3276 189.321 48.5677L189.32 48.6305L189.319 48.6537C189.154 53.1452 187.631 56.3745 185.391 58.5302C183.209 60.7026 180.317 61.8628 176.778 61.987C176.565 61.9955 176.352 61.9999 176.138 61.9999C175.925 61.9999 175.713 61.9955 175.501 61.987C171.702 61.8567 168.658 60.5526 166.447 58.1015C166.378 58.0248 166.311 57.9457 166.245 57.8666L166.245 57.8662L166.191 57.8024C166.174 57.7826 166.157 57.7629 166.14 57.7431C166.122 57.7215 166.104 57.7001 166.086 57.6787C166.059 57.6475 166.032 57.6163 166.007 57.5845C164.368 55.6061 163.253 52.9126 162.998 49.4053C162.997 49.3944 162.997 49.3838 162.996 49.3729C162.979 49.1383 162.966 48.9002 162.957 48.6584L162.954 48.5609C162.947 48.3232 162.941 48.0828 162.941 47.8379C162.941 47.5954 162.946 47.3574 162.954 47.1217C162.955 47.0821 162.956 47.0419 162.958 47.0023C162.966 46.7755 162.978 46.5525 162.994 46.3322C162.995 46.3048 162.998 46.2774 163 46.25L163.003 46.2084C163.02 45.9833 163.04 45.7606 163.064 45.5423C163.066 45.5212 163.069 45.5 163.071 45.4789C163.097 45.2569 163.125 45.0383 163.158 44.8231C163.159 44.8157 163.16 44.8082 163.161 44.8009C163.162 44.793 163.163 44.7851 163.164 44.7774C163.198 44.5567 163.236 44.3402 163.277 44.1263L163.294 44.0404C163.335 43.8293 163.381 43.6213 163.43 43.417L163.439 43.3781L163.448 43.3392C163.5 43.1298 163.554 42.9235 163.612 42.7212L163.616 42.7081C163.619 42.6978 163.622 42.6875 163.625 42.6769C163.748 42.2564 163.885 41.8519 164.038 41.4631C164.047 41.44 164.055 41.4164 164.065 41.3932C164.133 41.2214 164.205 41.0532 164.279 40.8875C164.301 40.838 164.323 40.7879 164.345 40.7388C164.41 40.5996 164.476 40.4632 164.544 40.3288C164.585 40.2456 164.628 40.1631 164.671 40.0813C164.678 40.068 164.686 40.055 164.693 40.0417C165.178 39.1308 165.762 38.2932 166.448 37.5354C168.659 35.0918 171.705 33.7921 175.505 33.6629C175.716 33.6543 175.927 33.6499 176.138 33.6499C176.351 33.6499 176.564 33.6547 176.777 33.6632C180.326 33.7877 183.225 34.9588 185.41 37.151C187.64 39.3125 189.155 42.5425 189.319 47.0221C189.32 47.0508 189.32 47.0794 189.321 47.1081ZM205.536 33.6533C202.083 33.6499 199.366 36.0304 198.388 37.3915C198.052 37.858 197.417 37.7901 197.417 37.0119V34.2703C197.417 34.0987 197.28 33.9599 197.111 33.9599H192.478C192.309 33.9599 192.172 34.0987 192.172 34.2703V61.4846C192.172 61.6562 192.309 61.795 192.478 61.795H197.426C197.595 61.795 197.732 61.6562 197.732 61.4846V45.3207C197.732 42.1848 199.61 38.7502 204.277 38.7502C209.637 38.7502 210.874 42.9211 210.874 45.127V61.4846C210.874 61.6562 211.011 61.795 211.179 61.795H216.128C216.296 61.795 216.433 61.6562 216.433 61.4846V45.8172C216.433 39.1274 212.849 33.6608 205.536 33.6533ZM88.2374 33.9604H93.8839C94.0238 33.9604 94.1224 34.0992 94.0787 34.2335L85.4762 61.584C85.4342 61.7102 85.3176 61.7954 85.1862 61.7954H76.2473C76.1163 61.7954 75.9999 61.7105 75.9576 61.585L67.3503 34.2335C67.3066 34.0992 67.4052 33.9604 67.5451 33.9604H73.1756C73.294 33.9604 73.3984 34.0391 73.4322 34.1544L80.1995 56.3841C80.3691 56.895 81.0815 56.8943 81.2503 56.3835L87.9808 34.1548C88.0146 34.0395 88.119 33.9604 88.2374 33.9604Z" fill="currentColor"></path></svg>