<svg xmlns="http://www.w3.org/2000/svg" width="100%" viewBox="0 0 128 128" blink-animation=""><g><path d="m56.97,97.82c-.06,0-.11,0-.17,0-1.29-.06-2.37-.81-2.94-1.5l.77-.64c.44.52,1.25,1.1,2.22,1.14.86.03,1.73-.36,2.55-1.18l.71.71c-.98.98-2.03,1.47-3.13,1.47Z"></path><path d="m70.97,97.82c-.06,0-.11,0-.17,0-1.29-.06-2.37-.81-2.94-1.5l.77-.64c.44.52,1.25,1.1,2.22,1.14.86.03,1.73-.36,2.55-1.18l.71.71c-.98.98-2.03,1.47-3.13,1.47Z"></path></g><g><circle cx="57" cy="96" r="4"></circle><circle cx="71" cy="96" r="4"></circle></g><path d="m84,86h-40c-4.42,0-8,3.58-8,8v10h2v-10c0-3.31,2.69-6,6-6h40c3.31,0,6,2.69,6,6v10h2v-10c0-4.42-3.58-8-8-8Z"></path><path d="m39,56h-2v3h-1c-1.07,0-2.07.42-2.83,1.17-.76.76-1.17,1.76-1.17,2.83,0,2.21,1.79,4,4,4h4c1.1,0,2,.9,2,2s-.9,2-2,2h-8v2h5v3h2v-3h1c2.21,0,4-1.79,4-4s-1.79-4-4-4h-4c-1.1,0-2-.9-2-2,0-.53.21-1.04.59-1.41.38-.38.88-.59,1.41-.59h8s0-2,0-2h-5v-3Z"></path><path d="m62,64h34v-2h-4v-18c0-2.21-1.79-4-4-4s-4,1.79-4,4v18h-4v-12c0-2.21-1.79-4-4-4s-4,1.79-4,4v12h-4v-6c0-2.21-1.77-4-4-4s-4,1.79-4,4v6h-4v2h6Zm24-20c0-1.1.9-2,2-2s2,.9,2,2v18h-4v-18Zm-12,6c0-1.1.9-2,2-2s2,.9,2,2v12h-4v-12Zm-12,6c0-1.1.9-2,2.05-2,1.09,0,1.95.88,1.95,2v6h-4v-6Z"></path><path d="m33,28c-1.66,0-3,1.34-3,3s1.34,3,3,3,3-1.34,3-3-1.34-3-3-3Zm0,4c-.55,0-1-.45-1-1s.45-1,1-1,1,.45,1,1-.45,1-1,1Z"></path><path d="m41,28c-1.66,0-3,1.34-3,3s1.34,3,3,3,3-1.34,3-3-1.34-3-3-3Zm0,4c-.55,0-1-.45-1-1s.45-1,1-1,1,.45,1,1-.45,1-1,1Z"></path><path d="m49,28c-1.66,0-3,1.34-3,3s1.34,3,3,3,3-1.34,3-3-1.34-3-3-3Zm0,4c-.55,0-1-.45-1-1s.45-1,1-1,1,.45,1,1-.45,1-1,1Z"></path><path d="m100,24H28c-2.21,0-4,1.79-4,4v38s0,0,0,0c0-.42.03-.84.06-1.25-.04.41-.06.83-.06,1.25,0,7.73,6.27,14,14,14,6.34,0,11.69-4.22,13.41-10h48.59c2.21,0,4-1.79,4-4V28c0-2.21-1.79-4-4-4Zm-62,54c-6.62,0-12-5.38-12-12s5.38-12,12-12,12,5.38,12,12-5.38,12-12,12Zm64-12c0,1.1-.9,2-2,2h-48.15c-.02.12-.05.24-.07.36.13-.77.21-1.55.21-2.36,0-7.73-6.27-14-14-14-5.1,0-9.55,2.74-12,6.82,0,0,0,0,0,0v-20.82h76v28Zm0-30H26v-8c0-1.1.9-2,2-2h72c1.1,0,2,.9,2,2v8Z"></path></svg>