<svg xmlns="http://www.w3.org/2000/svg" aria-labelledby="field-media-image-title-0" width="100%" viewBox="0 0 32 32" fill="none"><path d="M32 16C32 24.8366 24.8366 32 16 32C7.16344 32 0 24.8366 0 16C0 7.16344 7.16344 0 16 0C24.8366 0 32 7.16344 32 16ZM6.66602 8.18354C6.66602 9.51206 7.73482 10.5893 9.0538 10.5893C10.3728 10.5893 11.441 9.51206 11.441 8.18354C11.441 6.85503 10.3728 5.77783 9.0538 5.77783C7.73482 5.77783 6.66602 6.85503 6.66602 8.18354ZM22.2039 25.3333H26.222V17.079C26.222 13.5866 24.2422 11.8979 21.477 11.8979C18.7104 11.8979 17.5461 14.0523 17.5461 14.0523V12.2963H13.6738V25.3333H17.5461V18.4896C17.5461 16.6559 18.3902 15.5647 20.0058 15.5647C21.491 15.5647 22.2039 16.6133 22.2039 18.4896V25.3333ZM7.05469 25.3334H11.0925V12.2964H7.05469V25.3334Z" fill="currentColor"></path></svg>