<svg xmlns="http://www.w3.org/2000/svg" width="345" height="272" viewBox="0 0 345 272" fill="none"><g clip-path="url(#clip0_11728_71426)"><rect width="345" height="80" fill="#FFFFFF"/><path d="M27.766 34.85H29.418L33.24 45H31.7L30.902 42.802H26.24L25.456 45H24L27.766 34.85ZM26.674 41.584H30.454L28.55 36.292L26.674 41.584ZM39.4425 34.85H40.7165V45H39.4425V43.866C39.2092 44.2673 38.8919 44.5893 38.4905 44.832C38.0892 45.0653 37.5852 45.182 36.9785 45.182C36.5305 45.182 36.1152 45.098 35.7325 44.93C35.3499 44.7527 35.0139 44.496 34.7245 44.16C34.4352 43.824 34.2065 43.4133 34.0385 42.928C33.8799 42.4427 33.8005 41.8873 33.8005 41.262C33.8005 40.646 33.8799 40.0953 34.0385 39.61C34.2065 39.1247 34.4352 38.714 34.7245 38.378C35.0139 38.042 35.3499 37.7853 35.7325 37.608C36.1152 37.4307 36.5305 37.342 36.9785 37.342C37.5852 37.342 38.0892 37.4633 38.4905 37.706C38.8919 37.9393 39.2092 38.2567 39.4425 38.658V34.85ZM39.4985 41.262C39.4985 40.7673 39.4379 40.3427 39.3165 39.988C39.1952 39.624 39.0319 39.33 38.8265 39.106C38.6212 38.8727 38.3832 38.7047 38.1125 38.602C37.8512 38.49 37.5805 38.434 37.3005 38.434C36.6192 38.434 36.0965 38.6813 35.7325 39.176C35.3685 39.6613 35.1865 40.3567 35.1865 41.262C35.1865 42.1673 35.3685 42.8673 35.7325 43.362C36.0965 43.8473 36.6192 44.09 37.3005 44.09C37.5805 44.09 37.8512 44.0387 38.1125 43.936C38.3832 43.824 38.6212 43.656 38.8265 43.432C39.0319 43.1987 39.1952 42.9047 39.3165 42.55C39.4379 42.186 39.4985 41.7567 39.4985 41.262ZM45.1768 43.236L47.2208 37.468H48.5368L45.6948 45H44.5608L41.7188 37.468H43.1328L45.1768 43.236ZM54.0356 41.374C53.4569 41.43 52.9342 41.5 52.4676 41.584C52.0009 41.6587 51.6042 41.7567 51.2776 41.878C50.9509 41.99 50.6989 42.1393 50.5216 42.326C50.3442 42.5033 50.2556 42.7227 50.2556 42.984C50.2556 43.3387 50.3816 43.628 50.6336 43.852C50.8949 44.0667 51.2542 44.174 51.7116 44.174C52.0102 44.174 52.2996 44.1367 52.5796 44.062C52.8596 43.978 53.1069 43.8427 53.3216 43.656C53.5362 43.46 53.7089 43.1987 53.8396 42.872C53.9702 42.5453 54.0356 42.13 54.0356 41.626V41.374ZM51.4316 45.182C51.0769 45.182 50.7409 45.1307 50.4236 45.028C50.1156 44.9347 49.8402 44.7993 49.5976 44.622C49.3642 44.4353 49.1776 44.2113 49.0376 43.95C48.9069 43.6793 48.8416 43.376 48.8416 43.04C48.8416 42.592 48.9629 42.2187 49.2056 41.92C49.4482 41.612 49.7889 41.36 50.2276 41.164C50.6756 40.9587 51.2122 40.7953 51.8376 40.674C52.4629 40.5527 53.1629 40.45 53.9376 40.366V40.156C53.9376 39.8013 53.8909 39.5073 53.7976 39.274C53.7136 39.0407 53.5922 38.8587 53.4336 38.728C53.2749 38.588 53.0882 38.49 52.8736 38.434C52.6589 38.378 52.4302 38.35 52.1876 38.35C51.5996 38.35 51.1562 38.4853 50.8576 38.756C50.5589 39.0173 50.3956 39.3813 50.3676 39.848H49.0516C49.0796 39.4467 49.1869 39.0873 49.3736 38.77C49.5602 38.4527 49.7982 38.1867 50.0876 37.972C50.3769 37.7573 50.7036 37.594 51.0676 37.482C51.4316 37.37 51.8096 37.314 52.2016 37.314C53.2469 37.314 54.0122 37.5567 54.4976 38.042C54.9829 38.5273 55.2209 39.3113 55.2116 40.394L55.1976 42.158C55.1882 42.7927 55.1976 43.3387 55.2256 43.796C55.2629 44.244 55.3189 44.6453 55.3936 45H54.1056C54.0869 44.86 54.0682 44.6967 54.0496 44.51C54.0309 44.3233 54.0169 44.118 54.0076 43.894C53.7742 44.286 53.4522 44.5987 53.0416 44.832C52.6402 45.0653 52.1036 45.182 51.4316 45.182ZM58.3699 38.602C58.5846 38.2473 58.8832 37.9487 59.2659 37.706C59.6579 37.4633 60.1712 37.342 60.8059 37.342C61.2632 37.342 61.6459 37.412 61.9539 37.552C62.2712 37.692 62.5279 37.8927 62.7239 38.154C62.9199 38.406 63.0599 38.7093 63.1439 39.064C63.2372 39.4187 63.2839 39.8107 63.2839 40.24V45H62.0099V40.618C62.0099 40.3287 61.9912 40.0533 61.9539 39.792C61.9166 39.5307 61.8419 39.302 61.7299 39.106C61.6179 38.9007 61.4499 38.742 61.2259 38.63C61.0112 38.5087 60.7219 38.448 60.3579 38.448C59.7419 38.448 59.2566 38.658 58.9019 39.078C58.5472 39.4887 58.3699 40.1 58.3699 40.912V45H57.0959V37.468H58.3699V38.602ZM68.2696 37.342C68.7363 37.342 69.1516 37.4213 69.5156 37.58C69.8796 37.7293 70.1923 37.93 70.4536 38.182C70.715 38.434 70.9203 38.7187 71.0696 39.036C71.2283 39.3533 71.331 39.6707 71.3776 39.988H70.0896C69.9963 39.54 69.7816 39.176 69.4456 38.896C69.119 38.6067 68.699 38.462 68.1856 38.462C67.887 38.462 67.607 38.518 67.3456 38.63C67.0936 38.742 66.8696 38.9147 66.6736 39.148C66.487 39.372 66.3376 39.6567 66.2256 40.002C66.1136 40.3473 66.0576 40.758 66.0576 41.234C66.0576 41.71 66.1136 42.1253 66.2256 42.48C66.3376 42.8347 66.4916 43.1287 66.6876 43.362C66.8836 43.5953 67.1076 43.7727 67.3596 43.894C67.621 44.006 67.8963 44.062 68.1856 44.062C68.4656 44.062 68.713 44.02 68.9276 43.936C69.1516 43.852 69.343 43.74 69.5016 43.6C69.6696 43.46 69.805 43.3013 69.9076 43.124C70.0196 42.9373 70.099 42.746 70.1456 42.55H71.4616C71.3963 42.9047 71.2703 43.2407 71.0836 43.558C70.897 43.8753 70.659 44.1553 70.3696 44.398C70.0896 44.6407 69.7583 44.832 69.3756 44.972C69.0023 45.112 68.5916 45.182 68.1436 45.182C67.593 45.182 67.103 45.084 66.6736 44.888C66.2443 44.692 65.8803 44.4213 65.5816 44.076C65.283 43.7307 65.0543 43.32 64.8956 42.844C64.7463 42.3587 64.6716 41.8267 64.6716 41.248C64.6716 40.688 64.751 40.17 64.9096 39.694C65.0776 39.218 65.3156 38.8073 65.6236 38.462C65.9316 38.1073 66.305 37.832 66.7436 37.636C67.1916 37.44 67.7003 37.342 68.2696 37.342ZM76.1049 45.182C75.4983 45.182 74.9663 45.084 74.5089 44.888C74.0609 44.6827 73.6829 44.4027 73.3749 44.048C73.0669 43.6933 72.8336 43.278 72.6749 42.802C72.5256 42.326 72.4509 41.808 72.4509 41.248C72.4509 40.6507 72.5396 40.114 72.7169 39.638C72.9036 39.1527 73.1556 38.742 73.4729 38.406C73.7996 38.0607 74.1823 37.7993 74.6209 37.622C75.0596 37.4353 75.5403 37.342 76.0629 37.342C76.6416 37.342 77.1549 37.454 77.6029 37.678C78.0603 37.902 78.4383 38.21 78.7369 38.602C79.0356 38.994 79.2503 39.4513 79.3809 39.974C79.5209 40.4967 79.5723 41.0567 79.5349 41.654H73.8369C73.8369 42.0273 73.8929 42.3633 74.0049 42.662C74.1263 42.9607 74.2896 43.2127 74.4949 43.418C74.7003 43.6233 74.9383 43.782 75.2089 43.894C75.4796 44.006 75.7689 44.062 76.0769 44.062C76.6649 44.062 77.1129 43.95 77.4209 43.726C77.7289 43.4927 77.9623 43.1893 78.1209 42.816H79.4369C79.3529 43.1427 79.2176 43.4507 79.0309 43.74C78.8443 44.02 78.6109 44.2673 78.3309 44.482C78.0603 44.6967 77.7383 44.8693 77.3649 45C76.9916 45.1213 76.5716 45.182 76.1049 45.182ZM76.0629 38.434C75.4189 38.434 74.8963 38.6207 74.4949 38.994C74.0936 39.358 73.8789 39.8807 73.8509 40.562H78.1909C78.1816 40.3007 78.1303 40.044 78.0369 39.792C77.9436 39.5307 77.8083 39.302 77.6309 39.106C77.4536 38.9007 77.2343 38.7373 76.9729 38.616C76.7116 38.4947 76.4083 38.434 76.0629 38.434ZM85.4307 39.666C85.328 39.218 85.1134 38.9007 84.7867 38.714C84.4694 38.518 84.0727 38.42 83.5967 38.42C83.4007 38.42 83.2047 38.4387 83.0087 38.476C82.8127 38.504 82.6354 38.56 82.4767 38.644C82.3274 38.7187 82.2014 38.8167 82.0987 38.938C82.0054 39.0593 81.9587 39.204 81.9587 39.372C81.9587 39.6707 82.0614 39.8947 82.2667 40.044C82.472 40.1933 82.7707 40.31 83.1627 40.394L84.2267 40.604C84.5814 40.6787 84.9174 40.7673 85.2347 40.87C85.5614 40.9727 85.8414 41.1127 86.0747 41.29C86.3174 41.458 86.5087 41.668 86.6487 41.92C86.7887 42.172 86.8587 42.48 86.8587 42.844C86.8587 43.2173 86.7794 43.5487 86.6207 43.838C86.462 44.1273 86.2427 44.3747 85.9627 44.58C85.6827 44.776 85.3514 44.9253 84.9687 45.028C84.5954 45.1307 84.1847 45.182 83.7367 45.182C83.2327 45.182 82.78 45.1073 82.3787 44.958C81.9867 44.8087 81.6507 44.6127 81.3707 44.37C81.1 44.1273 80.8854 43.8473 80.7267 43.53C80.5774 43.2127 80.484 42.8907 80.4467 42.564H81.7907C81.8934 43.0493 82.0987 43.4273 82.4067 43.698C82.724 43.9687 83.1767 44.104 83.7647 44.104C84.278 44.104 84.7074 44.006 85.0527 43.81C85.398 43.614 85.5707 43.3387 85.5707 42.984C85.5707 42.7973 85.5287 42.634 85.4447 42.494C85.3607 42.354 85.244 42.2373 85.0947 42.144C84.9547 42.0413 84.7867 41.962 84.5907 41.906C84.404 41.8407 84.2034 41.7847 83.9887 41.738L82.8687 41.514C82.598 41.458 82.332 41.3833 82.0707 41.29C81.8094 41.1967 81.5714 41.0707 81.3567 40.912C81.1514 40.7533 80.9834 40.5573 80.8527 40.324C80.7314 40.0813 80.6707 39.7827 80.6707 39.428C80.6707 39.092 80.75 38.798 80.9087 38.546C81.0674 38.2847 81.282 38.0653 81.5527 37.888C81.8327 37.7013 82.1594 37.5613 82.5327 37.468C82.906 37.3747 83.3074 37.328 83.7367 37.328C84.586 37.328 85.272 37.538 85.7947 37.958C86.3174 38.378 86.6394 38.9473 86.7607 39.666H85.4307Z" fill="black"/><path d="M172 32C172 27.5817 175.582 24 180 24H313C317.418 24 321 27.5817 321 32V48C321 52.4183 317.418 56 313 56H180C175.582 56 172 52.4183 172 48V32Z" fill="black" fill-opacity="0.04"/><path d="M313 23.5C317.694 23.5 321.5 27.3056 321.5 32V48C321.5 52.6944 317.694 56.5 313 56.5H180C175.306 56.5 171.5 52.6944 171.5 48V32C171.5 27.3056 175.306 23.5 180 23.5H313Z" stroke="black" stroke-opacity="0.04"/><path d="M172 32C172 27.5817 175.582 24 180 24H202C206.418 24 210 27.5817 210 32V48C210 52.4183 206.418 56 202 56H180C175.582 56 172 52.4183 172 48V32Z" fill="#FFFFFF"/><path d="M187.228 35.3H188.644L191.92 44H190.6L189.916 42.116H185.92L185.248 44H184L187.228 35.3ZM186.292 41.072H189.532L187.9 36.536L186.292 41.072ZM193.878 44H192.786V35.3H193.878V44ZM196.702 44H195.61V35.3H196.702V44Z" fill="black"/><path d="M227.228 35.3H228.644L231.92 44H230.6L229.916 42.116H225.92L225.248 44H224L227.228 35.3ZM226.292 41.072H229.532L227.9 36.536L226.292 41.072ZM235.484 37.436C235.884 37.436 236.24 37.504 236.552 37.64C236.864 37.768 237.132 37.94 237.356 38.156C237.58 38.372 237.756 38.616 237.884 38.888C238.02 39.16 238.108 39.432 238.148 39.704H237.044C236.964 39.32 236.78 39.008 236.492 38.768C236.212 38.52 235.852 38.396 235.412 38.396C235.156 38.396 234.916 38.444 234.692 38.54C234.476 38.636 234.284 38.784 234.116 38.984C233.956 39.176 233.828 39.42 233.732 39.716C233.636 40.012 233.588 40.364 233.588 40.772C233.588 41.18 233.636 41.536 233.732 41.84C233.828 42.144 233.96 42.396 234.128 42.596C234.296 42.796 234.488 42.948 234.704 43.052C234.928 43.148 235.164 43.196 235.412 43.196C235.652 43.196 235.864 43.16 236.048 43.088C236.24 43.016 236.404 42.92 236.54 42.8C236.684 42.68 236.8 42.544 236.888 42.392C236.984 42.232 237.052 42.068 237.092 41.9H238.22C238.164 42.204 238.056 42.492 237.896 42.764C237.736 43.036 237.532 43.276 237.284 43.484C237.044 43.692 236.76 43.856 236.432 43.976C236.112 44.096 235.76 44.156 235.376 44.156C234.904 44.156 234.484 44.072 234.116 43.904C233.748 43.736 233.436 43.504 233.18 43.208C232.924 42.912 232.728 42.56 232.592 42.152C232.464 41.736 232.4 41.28 232.4 40.784C232.4 40.304 232.468 39.86 232.604 39.452C232.748 39.044 232.952 38.692 233.216 38.396C233.48 38.092 233.8 37.856 234.176 37.688C234.56 37.52 234.996 37.436 235.484 37.436ZM239.766 35.924H240.858V37.544H242.082V38.42H240.858V42.248C240.858 42.416 240.862 42.556 240.87 42.668C240.886 42.772 240.914 42.856 240.954 42.92C241.002 42.984 241.07 43.028 241.158 43.052C241.246 43.076 241.37 43.088 241.53 43.088H242.082V44H241.29C240.978 44 240.722 43.98 240.522 43.94C240.33 43.892 240.178 43.812 240.066 43.7C239.954 43.58 239.874 43.416 239.826 43.208C239.786 42.992 239.766 42.716 239.766 42.38V38.42H238.746V37.544H239.766V35.924ZM244.565 37.544V44H243.473V37.544H244.565ZM244.565 35.3V36.62H243.473V35.3H244.565ZM248.398 42.488L250.15 37.544H251.278L248.842 44H247.87L245.434 37.544H246.646L248.398 42.488ZM254.716 44.156C254.196 44.156 253.74 44.072 253.348 43.904C252.964 43.728 252.64 43.488 252.376 43.184C252.112 42.88 251.912 42.524 251.776 42.116C251.648 41.708 251.584 41.264 251.584 40.784C251.584 40.272 251.66 39.812 251.812 39.404C251.972 38.988 252.188 38.636 252.46 38.348C252.74 38.052 253.068 37.828 253.444 37.676C253.82 37.516 254.232 37.436 254.68 37.436C255.176 37.436 255.616 37.532 256 37.724C256.392 37.916 256.716 38.18 256.972 38.516C257.228 38.852 257.412 39.244 257.524 39.692C257.644 40.14 257.688 40.62 257.656 41.132H252.772C252.772 41.452 252.82 41.74 252.916 41.996C253.02 42.252 253.16 42.468 253.336 42.644C253.512 42.82 253.716 42.956 253.948 43.052C254.18 43.148 254.428 43.196 254.692 43.196C255.196 43.196 255.58 43.1 255.844 42.908C256.108 42.708 256.308 42.448 256.444 42.128H257.572C257.5 42.408 257.384 42.672 257.224 42.92C257.064 43.16 256.864 43.372 256.624 43.556C256.392 43.74 256.116 43.888 255.796 44C255.476 44.104 255.116 44.156 254.716 44.156ZM254.68 38.372C254.128 38.372 253.68 38.532 253.336 38.852C252.992 39.164 252.808 39.612 252.784 40.196H256.504C256.496 39.972 256.452 39.752 256.372 39.536C256.292 39.312 256.176 39.116 256.024 38.948C255.872 38.772 255.684 38.632 255.46 38.528C255.236 38.424 254.976 38.372 254.68 38.372Z" fill="black" fill-opacity="0.5"/><path d="M288.756 35.3C289.284 35.3 289.768 35.336 290.208 35.408C290.656 35.48 291.04 35.616 291.36 35.816C291.68 36.008 291.928 36.276 292.104 36.62C292.28 36.956 292.368 37.392 292.368 37.928C292.368 38.472 292.28 38.916 292.104 39.26C291.928 39.596 291.68 39.86 291.36 40.052C291.04 40.244 290.656 40.376 290.208 40.448C289.768 40.52 289.284 40.556 288.756 40.556H287.256V44H286.032V35.3H288.756ZM287.256 36.332V39.488H288.852C289.172 39.488 289.468 39.476 289.74 39.452C290.02 39.42 290.26 39.352 290.46 39.248C290.668 39.136 290.828 38.98 290.94 38.78C291.06 38.572 291.12 38.288 291.12 37.928C291.12 37.576 291.06 37.296 290.94 37.088C290.828 36.872 290.668 36.708 290.46 36.596C290.26 36.484 290.02 36.412 289.74 36.38C289.468 36.348 289.172 36.332 288.852 36.332H287.256ZM297.034 40.892C296.538 40.94 296.09 41 295.69 41.072C295.29 41.136 294.95 41.22 294.67 41.324C294.39 41.42 294.174 41.548 294.022 41.708C293.87 41.86 293.794 42.048 293.794 42.272C293.794 42.576 293.902 42.824 294.118 43.016C294.342 43.2 294.65 43.292 295.042 43.292C295.298 43.292 295.546 43.26 295.786 43.196C296.026 43.124 296.238 43.008 296.422 42.848C296.606 42.68 296.754 42.456 296.866 42.176C296.978 41.896 297.034 41.54 297.034 41.108V40.892ZM294.802 44.156C294.498 44.156 294.21 44.112 293.938 44.024C293.674 43.944 293.438 43.828 293.23 43.676C293.03 43.516 292.87 43.324 292.75 43.1C292.638 42.868 292.582 42.608 292.582 42.32C292.582 41.936 292.686 41.616 292.894 41.36C293.102 41.096 293.394 40.88 293.77 40.712C294.154 40.536 294.614 40.396 295.15 40.292C295.686 40.188 296.286 40.1 296.95 40.028V39.848C296.95 39.544 296.91 39.292 296.83 39.092C296.758 38.892 296.654 38.736 296.518 38.624C296.382 38.504 296.222 38.42 296.038 38.372C295.854 38.324 295.658 38.3 295.45 38.3C294.946 38.3 294.566 38.416 294.31 38.648C294.054 38.872 293.914 39.184 293.89 39.584H292.762C292.786 39.24 292.878 38.932 293.038 38.66C293.198 38.388 293.402 38.16 293.65 37.976C293.898 37.792 294.178 37.652 294.49 37.556C294.802 37.46 295.126 37.412 295.462 37.412C296.358 37.412 297.014 37.62 297.43 38.036C297.846 38.452 298.05 39.124 298.042 40.052L298.03 41.564C298.022 42.108 298.03 42.576 298.054 42.968C298.086 43.352 298.134 43.696 298.198 44H297.094C297.078 43.88 297.062 43.74 297.046 43.58C297.03 43.42 297.018 43.244 297.01 43.052C296.81 43.388 296.534 43.656 296.182 43.856C295.838 44.056 295.378 44.156 294.802 44.156ZM300.749 37.544V44H299.657V37.544H300.749ZM300.749 35.3V36.62H299.657V35.3H300.749ZM306.873 35.3H307.965V44H306.873V43.028C306.673 43.372 306.401 43.648 306.057 43.856C305.713 44.056 305.281 44.156 304.761 44.156C304.377 44.156 304.021 44.084 303.693 43.94C303.365 43.788 303.077 43.568 302.829 43.28C302.581 42.992 302.385 42.64 302.241 42.224C302.105 41.808 302.037 41.332 302.037 40.796C302.037 40.268 302.105 39.796 302.241 39.38C302.385 38.964 302.581 38.612 302.829 38.324C303.077 38.036 303.365 37.816 303.693 37.664C304.021 37.512 304.377 37.436 304.761 37.436C305.281 37.436 305.713 37.54 306.057 37.748C306.401 37.948 306.673 38.22 306.873 38.564V35.3ZM306.921 40.796C306.921 40.372 306.869 40.008 306.765 39.704C306.661 39.392 306.521 39.14 306.345 38.948C306.169 38.748 305.965 38.604 305.733 38.516C305.509 38.42 305.277 38.372 305.037 38.372C304.453 38.372 304.005 38.584 303.693 39.008C303.381 39.424 303.225 40.02 303.225 40.796C303.225 41.572 303.381 42.172 303.693 42.596C304.005 43.012 304.453 43.22 305.037 43.22C305.277 43.22 305.509 43.176 305.733 43.088C305.965 42.992 306.169 42.848 306.345 42.656C306.521 42.456 306.661 42.204 306.765 41.9C306.869 41.588 306.921 41.22 306.921 40.796Z" fill="black" fill-opacity="0.5"/><rect width="345" height="192" transform="translate(0 80)" fill="#FFFFFF"/><path d="M24 112C24 107.582 27.5817 104 32 104H56C60.4183 104 64 107.582 64 112V136C64 140.418 60.4183 144 56 144H32C27.5817 144 24 140.418 24 136V112Z" fill="black" fill-opacity="0.04"/><path d="M42.5387 121.88C42.4057 121.5 42.3334 121.092 42.3334 120.667C42.3334 119.028 43.409 117.64 44.893 117.17C44.4544 116.853 43.9157 116.667 43.3334 116.667C41.8606 116.667 40.6667 117.861 40.6667 119.333C40.6667 120.529 41.4541 121.542 42.5387 121.88Z" fill="black" fill-opacity="0.5"/><path d="M46 118C45.6544 118 45.3225 118.066 45.0176 118.187C44.0322 118.578 43.3334 119.54 43.3334 120.667C43.3334 120.909 43.3658 121.144 43.4268 121.368C43.7349 122.5 44.7693 123.333 46 123.333C47.4728 123.333 48.6667 122.14 48.6667 120.667C48.6667 119.194 47.4728 118 46 118Z" fill="black" fill-opacity="0.5"/><path fill-rule="evenodd" clip-rule="evenodd" d="M37.3334 124H41V124.693C42.641 124.309 44.0233 124.198 45.1201 124.269C46.3299 124.347 47.269 124.652 47.7876 125.134C47.9678 125.302 48.1128 125.508 48.1826 125.743C48.2969 125.659 48.4078 125.574 48.514 125.49C49.2364 124.916 50.3572 124.946 50.9763 125.721C51.4462 126.309 51.4717 127.177 50.9364 127.766C49.3122 129.555 47.254 130.783 44.6387 130.658C44.0249 130.629 43.2929 130.442 42.7405 130.276C42.4587 130.191 42.2127 130.108 42.037 130.046C41.9553 130.017 41.8885 129.993 41.84 129.975H41V130.667H37.3334V124ZM41 128.975H42.0241L42.111 129.008L42.1144 129.01L42.1267 129.014C42.1379 129.019 42.1549 129.025 42.1771 129.033C42.2216 129.05 42.2871 129.074 42.3694 129.103C42.5342 129.161 42.7652 129.239 43.029 129.318C43.5679 129.481 44.2018 129.636 44.6863 129.659C46.9146 129.765 48.704 128.737 50.1962 127.094C50.3725 126.9 50.386 126.584 50.1951 126.345C49.9623 126.054 49.4819 125.998 49.1361 126.273C48.5364 126.749 47.6902 127.329 46.845 127.563C46.5619 127.642 46.2807 127.704 46.0201 127.752C45.6327 127.833 45.1978 127.89 44.7181 127.921L44.7055 127.922L44.6949 127.922L44.6937 127.923L44.6918 127.923L44.6908 127.923C44.6908 127.923 44.6902 127.923 44.6625 127.424L44.6908 127.923L44.6313 126.924C44.6396 126.924 44.6479 126.923 44.6561 126.923L44.6733 126.922C44.7006 126.92 44.7417 126.917 44.7946 126.912C44.9004 126.903 45.0531 126.888 45.237 126.864C45.4113 126.841 45.6117 126.811 45.8256 126.771C46.4446 126.642 46.8429 126.458 47.0578 126.284C47.2154 126.155 47.2269 126.073 47.2278 126.058C47.2284 126.047 47.2294 125.981 47.1065 125.866C46.8405 125.619 46.1842 125.34 45.0556 125.267C44.0267 125.201 42.6669 125.31 41 125.721V128.975Z" fill="black" fill-opacity="0.5"/><path d="M79.816 109.268V110.144C80.632 110.208 81.276 110.48 81.748 110.96C82.228 111.44 82.464 112.076 82.456 112.868H81.328C81.32 112.556 81.272 112.292 81.184 112.076C81.104 111.86 80.992 111.68 80.848 111.536C80.712 111.392 80.552 111.284 80.368 111.212C80.192 111.132 80.008 111.08 79.816 111.056V114.032L79.996 114.08C80.324 114.168 80.648 114.272 80.968 114.392C81.288 114.512 81.572 114.668 81.82 114.86C82.076 115.052 82.28 115.288 82.432 115.568C82.584 115.848 82.66 116.196 82.66 116.612C82.66 117.02 82.584 117.376 82.432 117.68C82.28 117.984 82.076 118.24 81.82 118.448C81.564 118.656 81.26 118.82 80.908 118.94C80.564 119.052 80.2 119.12 79.816 119.144V120.164H79.156V119.144C78.74 119.112 78.36 119.016 78.016 118.856C77.68 118.696 77.388 118.492 77.14 118.244C76.9 117.988 76.712 117.692 76.576 117.356C76.448 117.012 76.388 116.64 76.396 116.24H77.524C77.532 116.56 77.58 116.84 77.668 117.08C77.764 117.312 77.888 117.512 78.04 117.68C78.192 117.84 78.364 117.968 78.556 118.064C78.748 118.152 78.948 118.208 79.156 118.232V114.98L78.892 114.908C78.564 114.82 78.26 114.704 77.98 114.56C77.708 114.416 77.472 114.244 77.272 114.044C77.072 113.836 76.912 113.6 76.792 113.336C76.68 113.064 76.624 112.76 76.624 112.424C76.624 112.08 76.696 111.776 76.84 111.512C76.984 111.24 77.172 111.008 77.404 110.816C77.636 110.624 77.904 110.472 78.208 110.36C78.512 110.248 78.828 110.176 79.156 110.144V109.268H79.816ZM81.532 116.78C81.532 116.524 81.492 116.312 81.412 116.144C81.332 115.968 81.216 115.82 81.064 115.7C80.92 115.58 80.74 115.48 80.524 115.4C80.316 115.312 80.08 115.232 79.816 115.16V118.244C80.04 118.228 80.256 118.188 80.464 118.124C80.672 118.052 80.856 117.956 81.016 117.836C81.176 117.716 81.3 117.568 81.388 117.392C81.484 117.216 81.532 117.012 81.532 116.78ZM77.752 112.412C77.752 112.772 77.864 113.068 78.088 113.3C78.32 113.532 78.672 113.716 79.144 113.852L79.156 113.864V111.044C78.98 111.06 78.808 111.1 78.64 111.164C78.472 111.22 78.32 111.304 78.184 111.416C78.056 111.528 77.952 111.668 77.872 111.836C77.792 111.996 77.752 112.188 77.752 112.412ZM87.099 118.244C87.363 118.244 87.611 118.2 87.843 118.112C88.075 118.016 88.279 117.88 88.455 117.704C88.639 117.52 88.783 117.3 88.887 117.044C88.991 116.78 89.043 116.48 89.043 116.144C89.043 115.784 88.983 115.476 88.863 115.22C88.751 114.956 88.603 114.74 88.419 114.572C88.235 114.404 88.027 114.28 87.795 114.2C87.563 114.12 87.327 114.08 87.087 114.08C86.863 114.08 86.659 114.112 86.475 114.176C86.291 114.232 86.127 114.308 85.983 114.404C85.839 114.492 85.719 114.596 85.623 114.716C85.527 114.828 85.455 114.936 85.407 115.04L84.315 114.98L84.879 110.3H89.871V111.32H85.767L85.467 113.792C85.699 113.568 85.979 113.404 86.307 113.3C86.635 113.188 86.979 113.132 87.339 113.132C87.723 113.132 88.087 113.2 88.431 113.336C88.775 113.464 89.075 113.656 89.331 113.912C89.595 114.168 89.803 114.484 89.955 114.86C90.115 115.228 90.195 115.652 90.195 116.132C90.195 116.628 90.107 117.068 89.931 117.452C89.763 117.828 89.535 118.144 89.247 118.4C88.967 118.648 88.639 118.836 88.263 118.964C87.895 119.092 87.507 119.156 87.099 119.156C86.595 119.156 86.159 119.084 85.791 118.94C85.423 118.788 85.111 118.592 84.855 118.352C84.607 118.104 84.411 117.82 84.267 117.5C84.131 117.172 84.043 116.832 84.003 116.48H85.131C85.219 117.032 85.415 117.464 85.719 117.776C86.031 118.088 86.491 118.244 87.099 118.244ZM91.9558 117.62H93.3358V119.096L92.6038 120.668H91.9078L92.5438 119H91.9558V117.62ZM100.393 114.644C100.393 113.436 100.193 112.536 99.7932 111.944C99.3932 111.352 98.8532 111.056 98.1732 111.056C97.4852 111.056 96.9412 111.352 96.5412 111.944C96.1492 112.536 95.9532 113.436 95.9532 114.644C95.9532 115.86 96.1492 116.764 96.5412 117.356C96.9412 117.948 97.4852 118.244 98.1732 118.244C98.8612 118.244 99.4012 117.948 99.7932 117.356C100.193 116.764 100.393 115.86 100.393 114.644ZM101.557 114.644C101.557 115.332 101.489 115.956 101.353 116.516C101.217 117.068 101.009 117.54 100.729 117.932C100.457 118.324 100.105 118.628 99.6732 118.844C99.2492 119.052 98.7492 119.156 98.1732 119.156C97.5972 119.156 97.0932 119.052 96.6612 118.844C96.2372 118.628 95.8852 118.324 95.6052 117.932C95.3332 117.54 95.1292 117.068 94.9932 116.516C94.8572 115.956 94.7892 115.332 94.7892 114.644C94.7892 113.956 94.8572 113.336 94.9932 112.784C95.1292 112.224 95.3332 111.752 95.6052 111.368C95.8852 110.976 96.2372 110.676 96.6612 110.468C97.0932 110.252 97.5972 110.144 98.1732 110.144C98.7492 110.144 99.2492 110.252 99.6732 110.468C100.105 110.676 100.457 110.976 100.729 111.368C101.009 111.752 101.217 112.224 101.353 112.784C101.489 113.336 101.557 113.956 101.557 114.644ZM108.526 114.644C108.526 113.436 108.326 112.536 107.926 111.944C107.526 111.352 106.986 111.056 106.306 111.056C105.618 111.056 105.074 111.352 104.674 111.944C104.282 112.536 104.086 113.436 104.086 114.644C104.086 115.86 104.282 116.764 104.674 117.356C105.074 117.948 105.618 118.244 106.306 118.244C106.994 118.244 107.534 117.948 107.926 117.356C108.326 116.764 108.526 115.86 108.526 114.644ZM109.69 114.644C109.69 115.332 109.622 115.956 109.486 116.516C109.35 117.068 109.142 117.54 108.862 117.932C108.59 118.324 108.238 118.628 107.806 118.844C107.382 119.052 106.882 119.156 106.306 119.156C105.73 119.156 105.226 119.052 104.794 118.844C104.37 118.628 104.018 118.324 103.738 117.932C103.466 117.54 103.262 117.068 103.126 116.516C102.99 115.956 102.922 115.332 102.922 114.644C102.922 113.956 102.99 113.336 103.126 112.784C103.262 112.224 103.466 111.752 103.738 111.368C104.018 110.976 104.37 110.676 104.794 110.468C105.226 110.252 105.73 110.144 106.306 110.144C106.882 110.144 107.382 110.252 107.806 110.468C108.238 110.676 108.59 110.976 108.862 111.368C109.142 111.752 109.35 112.224 109.486 112.784C109.622 113.336 109.69 113.956 109.69 114.644ZM116.659 114.644C116.659 113.436 116.459 112.536 116.059 111.944C115.659 111.352 115.119 111.056 114.439 111.056C113.751 111.056 113.207 111.352 112.807 111.944C112.415 112.536 112.219 113.436 112.219 114.644C112.219 115.86 112.415 116.764 112.807 117.356C113.207 117.948 113.751 118.244 114.439 118.244C115.127 118.244 115.667 117.948 116.059 117.356C116.459 116.764 116.659 115.86 116.659 114.644ZM117.823 114.644C117.823 115.332 117.755 115.956 117.619 116.516C117.483 117.068 117.275 117.54 116.995 117.932C116.723 118.324 116.371 118.628 115.939 118.844C115.515 119.052 115.015 119.156 114.439 119.156C113.863 119.156 113.359 119.052 112.927 118.844C112.503 118.628 112.151 118.324 111.871 117.932C111.599 117.54 111.395 117.068 111.259 116.516C111.123 115.956 111.055 115.332 111.055 114.644C111.055 113.956 111.123 113.336 111.259 112.784C111.395 112.224 111.599 111.752 111.871 111.368C112.151 110.976 112.503 110.676 112.927 110.468C113.359 110.252 113.863 110.144 114.439 110.144C115.015 110.144 115.515 110.252 115.939 110.468C116.371 110.676 116.723 110.976 116.995 111.368C117.275 111.752 117.483 112.224 117.619 112.784C117.755 113.336 117.823 113.956 117.823 114.644Z" fill="black"/><path d="M80.368 128.3H81.592V134.24C81.592 135.192 81.348 135.916 80.86 136.412C80.38 136.908 79.712 137.156 78.856 137.156C78.008 137.156 77.34 136.92 76.852 136.448C76.372 135.968 76.132 135.256 76.132 134.312H77.272C77.272 134.616 77.312 134.884 77.392 135.116C77.48 135.34 77.596 135.532 77.74 135.692C77.884 135.844 78.052 135.96 78.244 136.04C78.436 136.12 78.64 136.16 78.856 136.16C79.032 136.16 79.208 136.136 79.384 136.088C79.568 136.032 79.732 135.932 79.876 135.788C80.02 135.644 80.136 135.448 80.224 135.2C80.32 134.944 80.368 134.62 80.368 134.228V128.3ZM87.5065 133.892C87.0105 133.94 86.5625 134 86.1625 134.072C85.7625 134.136 85.4225 134.22 85.1425 134.324C84.8625 134.42 84.6465 134.548 84.4945 134.708C84.3425 134.86 84.2665 135.048 84.2665 135.272C84.2665 135.576 84.3745 135.824 84.5905 136.016C84.8145 136.2 85.1225 136.292 85.5145 136.292C85.7705 136.292 86.0185 136.26 86.2585 136.196C86.4985 136.124 86.7105 136.008 86.8945 135.848C87.0785 135.68 87.2265 135.456 87.3385 135.176C87.4505 134.896 87.5065 134.54 87.5065 134.108V133.892ZM85.2745 137.156C84.9705 137.156 84.6825 137.112 84.4105 137.024C84.1465 136.944 83.9105 136.828 83.7025 136.676C83.5025 136.516 83.3425 136.324 83.2225 136.1C83.1105 135.868 83.0545 135.608 83.0545 135.32C83.0545 134.936 83.1585 134.616 83.3665 134.36C83.5745 134.096 83.8665 133.88 84.2425 133.712C84.6265 133.536 85.0865 133.396 85.6225 133.292C86.1585 133.188 86.7585 133.1 87.4225 133.028V132.848C87.4225 132.544 87.3825 132.292 87.3025 132.092C87.2305 131.892 87.1265 131.736 86.9905 131.624C86.8545 131.504 86.6945 131.42 86.5105 131.372C86.3265 131.324 86.1305 131.3 85.9225 131.3C85.4185 131.3 85.0385 131.416 84.7825 131.648C84.5265 131.872 84.3865 132.184 84.3625 132.584H83.2345C83.2585 132.24 83.3505 131.932 83.5105 131.66C83.6705 131.388 83.8745 131.16 84.1225 130.976C84.3705 130.792 84.6505 130.652 84.9625 130.556C85.2745 130.46 85.5985 130.412 85.9345 130.412C86.8305 130.412 87.4865 130.62 87.9025 131.036C88.3185 131.452 88.5225 132.124 88.5145 133.052L88.5025 134.564C88.4945 135.108 88.5025 135.576 88.5265 135.968C88.5585 136.352 88.6065 136.696 88.6705 137H87.5665C87.5505 136.88 87.5345 136.74 87.5185 136.58C87.5025 136.42 87.4905 136.244 87.4825 136.052C87.2825 136.388 87.0065 136.656 86.6545 136.856C86.3105 137.056 85.8505 137.156 85.2745 137.156ZM91.2216 131.516C91.4056 131.212 91.6616 130.956 91.9896 130.748C92.3256 130.54 92.7656 130.436 93.3096 130.436C93.7016 130.436 94.0296 130.496 94.2936 130.616C94.5656 130.736 94.7856 130.908 94.9536 131.132C95.1216 131.348 95.2416 131.608 95.3136 131.912C95.3936 132.216 95.4336 132.552 95.4336 132.92V137H94.3416V133.244C94.3416 132.996 94.3256 132.76 94.2936 132.536C94.2616 132.312 94.1976 132.116 94.1016 131.948C94.0056 131.772 93.8616 131.636 93.6696 131.54C93.4856 131.436 93.2376 131.384 92.9256 131.384C92.3976 131.384 91.9816 131.564 91.6776 131.924C91.3736 132.276 91.2216 132.8 91.2216 133.496V137H90.1296V130.544H91.2216V131.516ZM101.063 136.076C100.879 136.38 100.627 136.636 100.307 136.844C99.9951 137.052 99.5711 137.156 99.0351 137.156C98.6591 137.156 98.3391 137.096 98.0751 136.976C97.8191 136.856 97.6071 136.688 97.4391 136.472C97.2791 136.248 97.1591 135.984 97.0791 135.68C97.0071 135.376 96.9711 135.04 96.9711 134.672V130.544H98.0631V134.348C98.0631 134.596 98.0751 134.832 98.0991 135.056C98.1311 135.28 98.1951 135.48 98.2911 135.656C98.3871 135.824 98.5231 135.96 98.6991 136.064C98.8831 136.16 99.1231 136.208 99.4191 136.208C99.9391 136.208 100.343 136.032 100.631 135.68C100.919 135.32 101.063 134.792 101.063 134.096V130.544H102.155V137H101.063V136.076ZM107.967 133.892C107.471 133.94 107.023 134 106.623 134.072C106.223 134.136 105.883 134.22 105.603 134.324C105.323 134.42 105.107 134.548 104.955 134.708C104.803 134.86 104.727 135.048 104.727 135.272C104.727 135.576 104.835 135.824 105.051 136.016C105.275 136.2 105.583 136.292 105.975 136.292C106.231 136.292 106.479 136.26 106.719 136.196C106.959 136.124 107.171 136.008 107.355 135.848C107.539 135.68 107.687 135.456 107.799 135.176C107.911 134.896 107.967 134.54 107.967 134.108V133.892ZM105.735 137.156C105.431 137.156 105.143 137.112 104.871 137.024C104.607 136.944 104.371 136.828 104.163 136.676C103.963 136.516 103.803 136.324 103.683 136.1C103.571 135.868 103.515 135.608 103.515 135.32C103.515 134.936 103.619 134.616 103.827 134.36C104.035 134.096 104.327 133.88 104.703 133.712C105.087 133.536 105.547 133.396 106.083 133.292C106.619 133.188 107.219 133.1 107.883 133.028V132.848C107.883 132.544 107.843 132.292 107.763 132.092C107.691 131.892 107.587 131.736 107.451 131.624C107.315 131.504 107.155 131.42 106.971 131.372C106.787 131.324 106.591 131.3 106.383 131.3C105.879 131.3 105.499 131.416 105.243 131.648C104.987 131.872 104.847 132.184 104.823 132.584H103.695C103.719 132.24 103.811 131.932 103.971 131.66C104.131 131.388 104.335 131.16 104.583 130.976C104.831 130.792 105.111 130.652 105.423 130.556C105.735 130.46 106.059 130.412 106.395 130.412C107.291 130.412 107.947 130.62 108.363 131.036C108.779 131.452 108.983 132.124 108.975 133.052L108.963 134.564C108.955 135.108 108.963 135.576 108.987 135.968C109.019 136.352 109.067 136.696 109.131 137H108.027C108.011 136.88 107.995 136.74 107.979 136.58C107.963 136.42 107.951 136.244 107.943 136.052C107.743 136.388 107.467 136.656 107.115 136.856C106.771 137.056 106.311 137.156 105.735 137.156ZM113.807 131.684C113.695 131.668 113.587 131.656 113.483 131.648C113.379 131.64 113.283 131.636 113.195 131.636C112.691 131.636 112.311 131.788 112.055 132.092C111.807 132.396 111.683 132.904 111.683 133.616V137H110.591V130.544H111.659V131.672C111.819 131.304 112.055 131.024 112.367 130.832C112.687 130.632 113.059 130.524 113.483 130.508C113.539 130.508 113.591 130.508 113.639 130.508C113.687 130.508 113.743 130.512 113.807 130.52V131.684ZM119.584 130.544L117.28 137.276C117.16 137.628 117.044 137.92 116.932 138.152C116.82 138.384 116.684 138.568 116.524 138.704C116.364 138.848 116.164 138.948 115.924 139.004C115.692 139.068 115.396 139.1 115.036 139.1H114.472V138.188H114.916C115.092 138.188 115.248 138.18 115.384 138.164C115.528 138.148 115.652 138.104 115.756 138.032C115.86 137.968 115.952 137.864 116.032 137.72C116.12 137.584 116.2 137.388 116.272 137.132L116.32 137L113.992 130.544H115.204L116.848 135.524L118.444 130.544H119.584ZM129.246 135.992V137H123.75V135.992H126.078V130.316H123.762V129.56C124.098 129.552 124.402 129.532 124.674 129.5C124.946 129.468 125.19 129.412 125.406 129.332C125.63 129.252 125.826 129.14 125.994 128.996C126.162 128.844 126.306 128.648 126.426 128.408H127.17V135.992H129.246ZM131.343 135.62H132.723V137.096L131.991 138.668H131.295L131.931 137H131.343V135.62ZM140.54 128.144C140.94 128.144 141.308 128.196 141.644 128.3C141.988 128.396 142.28 128.54 142.52 128.732C142.768 128.924 142.96 129.164 143.096 129.452C143.232 129.732 143.3 130.056 143.3 130.424C143.3 130.928 143.176 131.42 142.928 131.9C142.688 132.372 142.36 132.84 141.944 133.304C141.528 133.76 141.044 134.212 140.492 134.66C139.948 135.1 139.372 135.54 138.764 135.98H143.54V137H137.276V136.016C138.044 135.448 138.728 134.92 139.328 134.432C139.936 133.936 140.448 133.468 140.864 133.028C141.28 132.58 141.596 132.156 141.812 131.756C142.036 131.348 142.148 130.952 142.148 130.568C142.148 130.112 142.004 129.748 141.716 129.476C141.436 129.196 141.036 129.056 140.516 129.056C140.284 129.056 140.056 129.092 139.832 129.164C139.608 129.228 139.408 129.34 139.232 129.5C139.064 129.652 138.924 129.852 138.812 130.1C138.708 130.348 138.652 130.652 138.644 131.012H137.516C137.508 130.58 137.572 130.188 137.708 129.836C137.852 129.484 138.056 129.184 138.32 128.936C138.584 128.68 138.904 128.484 139.28 128.348C139.656 128.212 140.076 128.144 140.54 128.144ZM150.76 132.644C150.76 131.436 150.56 130.536 150.16 129.944C149.76 129.352 149.22 129.056 148.54 129.056C147.852 129.056 147.308 129.352 146.908 129.944C146.516 130.536 146.32 131.436 146.32 132.644C146.32 133.86 146.516 134.764 146.908 135.356C147.308 135.948 147.852 136.244 148.54 136.244C149.228 136.244 149.768 135.948 150.16 135.356C150.56 134.764 150.76 133.86 150.76 132.644ZM151.924 132.644C151.924 133.332 151.856 133.956 151.72 134.516C151.584 135.068 151.376 135.54 151.096 135.932C150.824 136.324 150.472 136.628 150.04 136.844C149.616 137.052 149.116 137.156 148.54 137.156C147.964 137.156 147.46 137.052 147.028 136.844C146.604 136.628 146.252 136.324 145.972 135.932C145.7 135.54 145.496 135.068 145.36 134.516C145.224 133.956 145.156 133.332 145.156 132.644C145.156 131.956 145.224 131.336 145.36 130.784C145.496 130.224 145.7 129.752 145.972 129.368C146.252 128.976 146.604 128.676 147.028 128.468C147.46 128.252 147.964 128.144 148.54 128.144C149.116 128.144 149.616 128.252 150.04 128.468C150.472 128.676 150.824 128.976 151.096 129.368C151.376 129.752 151.584 130.224 151.72 130.784C151.856 131.336 151.924 131.956 151.924 132.644ZM156.805 128.144C157.205 128.144 157.573 128.196 157.909 128.3C158.253 128.396 158.545 128.54 158.785 128.732C159.033 128.924 159.225 129.164 159.361 129.452C159.497 129.732 159.565 130.056 159.565 130.424C159.565 130.928 159.441 131.42 159.193 131.9C158.953 132.372 158.625 132.84 158.209 133.304C157.793 133.76 157.309 134.212 156.757 134.66C156.213 135.1 155.637 135.54 155.029 135.98H159.805V137H153.541V136.016C154.309 135.448 154.993 134.92 155.593 134.432C156.201 133.936 156.713 133.468 157.129 133.028C157.545 132.58 157.861 132.156 158.077 131.756C158.301 131.348 158.413 130.952 158.413 130.568C158.413 130.112 158.269 129.748 157.981 129.476C157.701 129.196 157.301 129.056 156.781 129.056C156.549 129.056 156.321 129.092 156.097 129.164C155.873 129.228 155.673 129.34 155.497 129.5C155.329 129.652 155.189 129.852 155.077 130.1C154.973 130.348 154.917 130.652 154.909 131.012H153.781C153.773 130.58 153.837 130.188 153.973 129.836C154.117 129.484 154.321 129.184 154.585 128.936C154.849 128.68 155.169 128.484 155.545 128.348C155.921 128.212 156.341 128.144 156.805 128.144ZM164.806 136.244C165.07 136.244 165.318 136.2 165.55 136.112C165.782 136.016 165.986 135.88 166.162 135.704C166.346 135.52 166.49 135.3 166.594 135.044C166.698 134.78 166.75 134.48 166.75 134.144C166.75 133.784 166.69 133.476 166.57 133.22C166.458 132.956 166.31 132.74 166.126 132.572C165.942 132.404 165.734 132.28 165.502 132.2C165.27 132.12 165.034 132.08 164.794 132.08C164.57 132.08 164.366 132.112 164.182 132.176C163.998 132.232 163.834 132.308 163.69 132.404C163.546 132.492 163.426 132.596 163.33 132.716C163.234 132.828 163.162 132.936 163.114 133.04L162.022 132.98L162.586 128.3H167.578V129.32H163.474L163.174 131.792C163.406 131.568 163.686 131.404 164.014 131.3C164.342 131.188 164.686 131.132 165.046 131.132C165.43 131.132 165.794 131.2 166.138 131.336C166.482 131.464 166.782 131.656 167.038 131.912C167.302 132.168 167.51 132.484 167.662 132.86C167.822 133.228 167.902 133.652 167.902 134.132C167.902 134.628 167.814 135.068 167.638 135.452C167.47 135.828 167.242 136.144 166.954 136.4C166.674 136.648 166.346 136.836 165.97 136.964C165.602 137.092 165.214 137.156 164.806 137.156C164.302 137.156 163.866 137.084 163.498 136.94C163.13 136.788 162.818 136.592 162.562 136.352C162.314 136.104 162.118 135.82 161.974 135.5C161.838 135.172 161.75 134.832 161.71 134.48H162.838C162.926 135.032 163.122 135.464 163.426 135.776C163.738 136.088 164.198 136.244 164.806 136.244Z" fill="black" fill-opacity="0.5"/><path d="M261 124C261 119.582 264.582 116 269 116H285C289.418 116 293 119.582 293 124V124C293 128.418 289.418 132 285 132H269C264.582 132 261 128.418 261 124V124Z" fill="black" fill-opacity="0.04"/><path d="M268.63 121.62V122.47C268.797 122.183 269.023 121.957 269.31 121.79C269.597 121.617 269.957 121.53 270.39 121.53C270.71 121.53 271.007 121.593 271.28 121.72C271.553 121.847 271.793 122.03 272 122.27C272.207 122.51 272.367 122.803 272.48 123.15C272.6 123.497 272.66 123.89 272.66 124.33C272.66 124.777 272.6 125.173 272.48 125.52C272.367 125.867 272.207 126.16 272 126.4C271.793 126.64 271.553 126.823 271.28 126.95C271.007 127.07 270.71 127.13 270.39 127.13C269.957 127.13 269.597 127.047 269.31 126.88C269.023 126.707 268.797 126.477 268.63 126.19V128.75H267.72V121.62H268.63ZM268.59 124.33C268.59 124.683 268.633 124.99 268.72 125.25C268.807 125.503 268.923 125.713 269.07 125.88C269.217 126.04 269.383 126.16 269.57 126.24C269.763 126.313 269.96 126.35 270.16 126.35C270.647 126.35 271.02 126.177 271.28 125.83C271.54 125.477 271.67 124.977 271.67 124.33C271.67 123.683 271.54 123.187 271.28 122.84C271.02 122.487 270.647 122.31 270.16 122.31C269.96 122.31 269.763 122.35 269.57 122.43C269.383 122.503 269.217 122.623 269.07 122.79C268.923 122.95 268.807 123.16 268.72 123.42C268.633 123.673 268.59 123.977 268.59 124.33ZM277.126 124.41C276.713 124.45 276.339 124.5 276.006 124.56C275.673 124.613 275.389 124.683 275.156 124.77C274.923 124.85 274.743 124.957 274.616 125.09C274.489 125.217 274.426 125.373 274.426 125.56C274.426 125.813 274.516 126.02 274.696 126.18C274.883 126.333 275.139 126.41 275.466 126.41C275.679 126.41 275.886 126.383 276.086 126.33C276.286 126.27 276.463 126.173 276.616 126.04C276.769 125.9 276.893 125.713 276.986 125.48C277.079 125.247 277.126 124.95 277.126 124.59V124.41ZM275.266 127.13C275.013 127.13 274.773 127.093 274.546 127.02C274.326 126.953 274.129 126.857 273.956 126.73C273.789 126.597 273.656 126.437 273.556 126.25C273.463 126.057 273.416 125.84 273.416 125.6C273.416 125.28 273.503 125.013 273.676 124.8C273.849 124.58 274.093 124.4 274.406 124.26C274.726 124.113 275.109 123.997 275.556 123.91C276.003 123.823 276.503 123.75 277.056 123.69V123.54C277.056 123.287 277.023 123.077 276.956 122.91C276.896 122.743 276.809 122.613 276.696 122.52C276.583 122.42 276.449 122.35 276.296 122.31C276.143 122.27 275.979 122.25 275.806 122.25C275.386 122.25 275.069 122.347 274.856 122.54C274.643 122.727 274.526 122.987 274.506 123.32H273.566C273.586 123.033 273.663 122.777 273.796 122.55C273.929 122.323 274.099 122.133 274.306 121.98C274.513 121.827 274.746 121.71 275.006 121.63C275.266 121.55 275.536 121.51 275.816 121.51C276.563 121.51 277.109 121.683 277.456 122.03C277.803 122.377 277.973 122.937 277.966 123.71L277.956 124.97C277.949 125.423 277.956 125.813 277.976 126.14C278.003 126.46 278.043 126.747 278.096 127H277.176C277.163 126.9 277.149 126.783 277.136 126.65C277.123 126.517 277.113 126.37 277.106 126.21C276.939 126.49 276.709 126.713 276.416 126.88C276.129 127.047 275.746 127.13 275.266 127.13ZM280.222 121.62V127H279.312V121.62H280.222ZM280.222 119.75V120.85H279.312V119.75H280.222ZM285.325 119.75H286.235V127H285.325V126.19C285.159 126.477 284.932 126.707 284.645 126.88C284.359 127.047 283.999 127.13 283.565 127.13C283.245 127.13 282.949 127.07 282.675 126.95C282.402 126.823 282.162 126.64 281.955 126.4C281.749 126.16 281.585 125.867 281.465 125.52C281.352 125.173 281.295 124.777 281.295 124.33C281.295 123.89 281.352 123.497 281.465 123.15C281.585 122.803 281.749 122.51 281.955 122.27C282.162 122.03 282.402 121.847 282.675 121.72C282.949 121.593 283.245 121.53 283.565 121.53C283.999 121.53 284.359 121.617 284.645 121.79C284.932 121.957 285.159 122.183 285.325 122.47V119.75ZM285.365 124.33C285.365 123.977 285.322 123.673 285.235 123.42C285.149 123.16 285.032 122.95 284.885 122.79C284.739 122.623 284.569 122.503 284.375 122.43C284.189 122.35 283.995 122.31 283.795 122.31C283.309 122.31 282.935 122.487 282.675 122.84C282.415 123.187 282.285 123.683 282.285 124.33C282.285 124.977 282.415 125.477 282.675 125.83C282.935 126.177 283.309 126.35 283.795 126.35C283.995 126.35 284.189 126.313 284.375 126.24C284.569 126.16 284.739 126.04 284.885 125.88C285.032 125.713 285.149 125.503 285.235 125.25C285.322 124.99 285.365 124.683 285.365 124.33Z" fill="black" fill-opacity="0.5"/><path d="M314.083 119.333L318.75 124L314.083 128.667M307.25 124L318.333 124" stroke="black" stroke-width="1.5"/><path d="M24 164C24 159.582 27.5817 156 32 156H56C60.4183 156 64 159.582 64 164V188C64 192.418 60.4183 196 56 196H32C27.5817 196 24 192.418 24 188V164Z" fill="black" fill-opacity="0.04"/><path d="M42.5387 173.88C42.4057 173.5 42.3334 173.092 42.3334 172.667C42.3334 171.028 43.409 169.64 44.893 169.17C44.4544 168.853 43.9157 168.667 43.3334 168.667C41.8606 168.667 40.6667 169.861 40.6667 171.333C40.6667 172.529 41.4541 173.542 42.5387 173.88Z" fill="black" fill-opacity="0.5"/><path d="M46 170C45.6544 170 45.3225 170.066 45.0176 170.187C44.0322 170.578 43.3334 171.54 43.3334 172.667C43.3334 172.909 43.3658 173.144 43.4268 173.368C43.7349 174.5 44.7693 175.333 46 175.333C47.4728 175.333 48.6667 174.14 48.6667 172.667C48.6667 171.194 47.4728 170 46 170Z" fill="black" fill-opacity="0.5"/><path fill-rule="evenodd" clip-rule="evenodd" d="M37.3334 176H41V176.693C42.641 176.309 44.0233 176.198 45.1201 176.269C46.3299 176.347 47.269 176.652 47.7876 177.134C47.9678 177.302 48.1128 177.508 48.1826 177.743C48.2969 177.659 48.4078 177.574 48.514 177.49C49.2364 176.916 50.3572 176.946 50.9763 177.721C51.4462 178.309 51.4717 179.177 50.9364 179.766C49.3122 181.555 47.254 182.783 44.6387 182.658C44.0249 182.629 43.2929 182.442 42.7405 182.276C42.4587 182.191 42.2127 182.108 42.037 182.046C41.9553 182.017 41.8885 181.993 41.84 181.975H41V182.667H37.3334V176ZM41 180.975H42.0241L42.111 181.008L42.1144 181.01L42.1267 181.014C42.1379 181.019 42.1549 181.025 42.1771 181.033C42.2216 181.05 42.2871 181.074 42.3694 181.103C42.5342 181.161 42.7652 181.239 43.029 181.318C43.5679 181.481 44.2018 181.636 44.6863 181.659C46.9146 181.765 48.704 180.737 50.1962 179.094C50.3725 178.9 50.386 178.584 50.1951 178.345C49.9623 178.054 49.4819 177.998 49.1361 178.273C48.5364 178.749 47.6902 179.329 46.845 179.563C46.5619 179.642 46.2807 179.704 46.0201 179.752C45.6327 179.833 45.1978 179.89 44.7181 179.921L44.7055 179.922L44.6949 179.922L44.6937 179.923L44.6918 179.923L44.6908 179.923C44.6908 179.923 44.6902 179.923 44.6625 179.424L44.6908 179.923L44.6313 178.924C44.6396 178.924 44.6479 178.923 44.6561 178.923L44.6733 178.922C44.7006 178.92 44.7417 178.917 44.7946 178.912C44.9004 178.903 45.0531 178.888 45.237 178.864C45.4113 178.841 45.6117 178.811 45.8256 178.771C46.4446 178.642 46.8429 178.458 47.0578 178.284C47.2154 178.155 47.2269 178.073 47.2278 178.058C47.2284 178.047 47.2294 177.981 47.1065 177.866C46.8405 177.619 46.1842 177.34 45.0556 177.267C44.0267 177.201 42.6669 177.31 41 177.721V180.975Z" fill="black" fill-opacity="0.5"/><path d="M79.816 161.268V162.144C80.632 162.208 81.276 162.48 81.748 162.96C82.228 163.44 82.464 164.076 82.456 164.868H81.328C81.32 164.556 81.272 164.292 81.184 164.076C81.104 163.86 80.992 163.68 80.848 163.536C80.712 163.392 80.552 163.284 80.368 163.212C80.192 163.132 80.008 163.08 79.816 163.056V166.032L79.996 166.08C80.324 166.168 80.648 166.272 80.968 166.392C81.288 166.512 81.572 166.668 81.82 166.86C82.076 167.052 82.28 167.288 82.432 167.568C82.584 167.848 82.66 168.196 82.66 168.612C82.66 169.02 82.584 169.376 82.432 169.68C82.28 169.984 82.076 170.24 81.82 170.448C81.564 170.656 81.26 170.82 80.908 170.94C80.564 171.052 80.2 171.12 79.816 171.144V172.164H79.156V171.144C78.74 171.112 78.36 171.016 78.016 170.856C77.68 170.696 77.388 170.492 77.14 170.244C76.9 169.988 76.712 169.692 76.576 169.356C76.448 169.012 76.388 168.64 76.396 168.24H77.524C77.532 168.56 77.58 168.84 77.668 169.08C77.764 169.312 77.888 169.512 78.04 169.68C78.192 169.84 78.364 169.968 78.556 170.064C78.748 170.152 78.948 170.208 79.156 170.232V166.98L78.892 166.908C78.564 166.82 78.26 166.704 77.98 166.56C77.708 166.416 77.472 166.244 77.272 166.044C77.072 165.836 76.912 165.6 76.792 165.336C76.68 165.064 76.624 164.76 76.624 164.424C76.624 164.08 76.696 163.776 76.84 163.512C76.984 163.24 77.172 163.008 77.404 162.816C77.636 162.624 77.904 162.472 78.208 162.36C78.512 162.248 78.828 162.176 79.156 162.144V161.268H79.816ZM81.532 168.78C81.532 168.524 81.492 168.312 81.412 168.144C81.332 167.968 81.216 167.82 81.064 167.7C80.92 167.58 80.74 167.48 80.524 167.4C80.316 167.312 80.08 167.232 79.816 167.16V170.244C80.04 170.228 80.256 170.188 80.464 170.124C80.672 170.052 80.856 169.956 81.016 169.836C81.176 169.716 81.3 169.568 81.388 169.392C81.484 169.216 81.532 169.012 81.532 168.78ZM77.752 164.412C77.752 164.772 77.864 165.068 78.088 165.3C78.32 165.532 78.672 165.716 79.144 165.852L79.156 165.864V163.044C78.98 163.06 78.808 163.1 78.64 163.164C78.472 163.22 78.32 163.304 78.184 163.416C78.056 163.528 77.952 163.668 77.872 163.836C77.792 163.996 77.752 164.188 77.752 164.412ZM89.859 169.992V171H84.363V169.992H86.691V164.316H84.375V163.56C84.711 163.552 85.015 163.532 85.287 163.5C85.559 163.468 85.803 163.412 86.019 163.332C86.243 163.252 86.439 163.14 86.607 162.996C86.775 162.844 86.919 162.648 87.039 162.408H87.783V169.992H89.859ZM91.9558 169.62H93.3358V171.096L92.6038 172.668H91.9078L92.5438 171H91.9558V169.62ZM98.1732 170.244C98.4372 170.244 98.6852 170.2 98.9172 170.112C99.1492 170.016 99.3532 169.88 99.5292 169.704C99.7132 169.52 99.8572 169.3 99.9612 169.044C100.065 168.78 100.117 168.48 100.117 168.144C100.117 167.784 100.057 167.476 99.9372 167.22C99.8252 166.956 99.6772 166.74 99.4932 166.572C99.3092 166.404 99.1012 166.28 98.8692 166.2C98.6372 166.12 98.4012 166.08 98.1612 166.08C97.9372 166.08 97.7332 166.112 97.5492 166.176C97.3652 166.232 97.2012 166.308 97.0572 166.404C96.9132 166.492 96.7932 166.596 96.6972 166.716C96.6012 166.828 96.5292 166.936 96.4812 167.04L95.3892 166.98L95.9532 162.3H100.945V163.32H96.8412L96.5412 165.792C96.7732 165.568 97.0532 165.404 97.3812 165.3C97.7092 165.188 98.0532 165.132 98.4132 165.132C98.7972 165.132 99.1612 165.2 99.5052 165.336C99.8492 165.464 100.149 165.656 100.405 165.912C100.669 166.168 100.877 166.484 101.029 166.86C101.189 167.228 101.269 167.652 101.269 168.132C101.269 168.628 101.181 169.068 101.005 169.452C100.837 169.828 100.609 170.144 100.321 170.4C100.041 170.648 99.7132 170.836 99.3372 170.964C98.9692 171.092 98.5812 171.156 98.1732 171.156C97.6692 171.156 97.2332 171.084 96.8652 170.94C96.4972 170.788 96.1852 170.592 95.9292 170.352C95.6812 170.104 95.4852 169.82 95.3412 169.5C95.2052 169.172 95.1172 168.832 95.0772 168.48H96.2052C96.2932 169.032 96.4892 169.464 96.7932 169.776C97.1052 170.088 97.5652 170.244 98.1732 170.244ZM108.526 166.644C108.526 165.436 108.326 164.536 107.926 163.944C107.526 163.352 106.986 163.056 106.306 163.056C105.618 163.056 105.074 163.352 104.674 163.944C104.282 164.536 104.086 165.436 104.086 166.644C104.086 167.86 104.282 168.764 104.674 169.356C105.074 169.948 105.618 170.244 106.306 170.244C106.994 170.244 107.534 169.948 107.926 169.356C108.326 168.764 108.526 167.86 108.526 166.644ZM109.69 166.644C109.69 167.332 109.622 167.956 109.486 168.516C109.35 169.068 109.142 169.54 108.862 169.932C108.59 170.324 108.238 170.628 107.806 170.844C107.382 171.052 106.882 171.156 106.306 171.156C105.73 171.156 105.226 171.052 104.794 170.844C104.37 170.628 104.018 170.324 103.738 169.932C103.466 169.54 103.262 169.068 103.126 168.516C102.99 167.956 102.922 167.332 102.922 166.644C102.922 165.956 102.99 165.336 103.126 164.784C103.262 164.224 103.466 163.752 103.738 163.368C104.018 162.976 104.37 162.676 104.794 162.468C105.226 162.252 105.73 162.144 106.306 162.144C106.882 162.144 107.382 162.252 107.806 162.468C108.238 162.676 108.59 162.976 108.862 163.368C109.142 163.752 109.35 164.224 109.486 164.784C109.622 165.336 109.69 165.956 109.69 166.644ZM116.659 166.644C116.659 165.436 116.459 164.536 116.059 163.944C115.659 163.352 115.119 163.056 114.439 163.056C113.751 163.056 113.207 163.352 112.807 163.944C112.415 164.536 112.219 165.436 112.219 166.644C112.219 167.86 112.415 168.764 112.807 169.356C113.207 169.948 113.751 170.244 114.439 170.244C115.127 170.244 115.667 169.948 116.059 169.356C116.459 168.764 116.659 167.86 116.659 166.644ZM117.823 166.644C117.823 167.332 117.755 167.956 117.619 168.516C117.483 169.068 117.275 169.54 116.995 169.932C116.723 170.324 116.371 170.628 115.939 170.844C115.515 171.052 115.015 171.156 114.439 171.156C113.863 171.156 113.359 171.052 112.927 170.844C112.503 170.628 112.151 170.324 111.871 169.932C111.599 169.54 111.395 169.068 111.259 168.516C111.123 167.956 111.055 167.332 111.055 166.644C111.055 165.956 111.123 165.336 111.259 164.784C111.395 164.224 111.599 163.752 111.871 163.368C112.151 162.976 112.503 162.676 112.927 162.468C113.359 162.252 113.863 162.144 114.439 162.144C115.015 162.144 115.515 162.252 115.939 162.468C116.371 162.676 116.723 162.976 116.995 163.368C117.275 163.752 117.483 164.224 117.619 164.784C117.755 165.336 117.823 165.956 117.823 166.644Z" fill="black"/><path d="M80.656 189L78.256 181.416V189H77.032V180.3H79.084L81.304 187.548L83.524 180.3H85.576V189H84.352V181.416L81.952 189H80.656ZM91.5495 185.892C91.0535 185.94 90.6055 186 90.2055 186.072C89.8055 186.136 89.4655 186.22 89.1855 186.324C88.9055 186.42 88.6895 186.548 88.5375 186.708C88.3855 186.86 88.3095 187.048 88.3095 187.272C88.3095 187.576 88.4175 187.824 88.6335 188.016C88.8575 188.2 89.1655 188.292 89.5575 188.292C89.8135 188.292 90.0615 188.26 90.3015 188.196C90.5415 188.124 90.7535 188.008 90.9375 187.848C91.1215 187.68 91.2695 187.456 91.3815 187.176C91.4935 186.896 91.5495 186.54 91.5495 186.108V185.892ZM89.3175 189.156C89.0135 189.156 88.7255 189.112 88.4535 189.024C88.1895 188.944 87.9535 188.828 87.7455 188.676C87.5455 188.516 87.3855 188.324 87.2655 188.1C87.1535 187.868 87.0975 187.608 87.0975 187.32C87.0975 186.936 87.2015 186.616 87.4095 186.36C87.6175 186.096 87.9095 185.88 88.2855 185.712C88.6695 185.536 89.1295 185.396 89.6655 185.292C90.2015 185.188 90.8015 185.1 91.4655 185.028V184.848C91.4655 184.544 91.4255 184.292 91.3455 184.092C91.2735 183.892 91.1695 183.736 91.0335 183.624C90.8975 183.504 90.7375 183.42 90.5535 183.372C90.3695 183.324 90.1735 183.3 89.9655 183.3C89.4615 183.3 89.0815 183.416 88.8255 183.648C88.5695 183.872 88.4295 184.184 88.4055 184.584H87.2775C87.3015 184.24 87.3935 183.932 87.5535 183.66C87.7135 183.388 87.9175 183.16 88.1655 182.976C88.4135 182.792 88.6935 182.652 89.0055 182.556C89.3175 182.46 89.6415 182.412 89.9775 182.412C90.8735 182.412 91.5295 182.62 91.9455 183.036C92.3615 183.452 92.5655 184.124 92.5575 185.052L92.5455 186.564C92.5375 187.108 92.5455 187.576 92.5695 187.968C92.6015 188.352 92.6495 188.696 92.7135 189H91.6095C91.5935 188.88 91.5775 188.74 91.5615 188.58C91.5455 188.42 91.5335 188.244 91.5255 188.052C91.3255 188.388 91.0495 188.656 90.6975 188.856C90.3535 189.056 89.8935 189.156 89.3175 189.156ZM97.3886 183.684C97.2766 183.668 97.1686 183.656 97.0646 183.648C96.9606 183.64 96.8646 183.636 96.7766 183.636C96.2726 183.636 95.8926 183.788 95.6366 184.092C95.3886 184.396 95.2646 184.904 95.2646 185.616V189H94.1726V182.544H95.2406V183.672C95.4006 183.304 95.6366 183.024 95.9486 182.832C96.2686 182.632 96.6406 182.524 97.0646 182.508C97.1206 182.508 97.1726 182.508 97.2206 182.508C97.2686 182.508 97.3246 182.512 97.3886 182.52V183.684ZM100.961 182.436C101.361 182.436 101.717 182.504 102.029 182.64C102.341 182.768 102.609 182.94 102.833 183.156C103.057 183.372 103.233 183.616 103.361 183.888C103.497 184.16 103.585 184.432 103.625 184.704H102.521C102.441 184.32 102.257 184.008 101.969 183.768C101.689 183.52 101.329 183.396 100.889 183.396C100.633 183.396 100.393 183.444 100.169 183.54C99.953 183.636 99.761 183.784 99.593 183.984C99.433 184.176 99.305 184.42 99.209 184.716C99.113 185.012 99.065 185.364 99.065 185.772C99.065 186.18 99.113 186.536 99.209 186.84C99.305 187.144 99.437 187.396 99.605 187.596C99.773 187.796 99.965 187.948 100.181 188.052C100.405 188.148 100.641 188.196 100.889 188.196C101.129 188.196 101.341 188.16 101.525 188.088C101.717 188.016 101.881 187.92 102.017 187.8C102.161 187.68 102.277 187.544 102.365 187.392C102.461 187.232 102.529 187.068 102.569 186.9H103.697C103.641 187.204 103.533 187.492 103.373 187.764C103.213 188.036 103.009 188.276 102.761 188.484C102.521 188.692 102.237 188.856 101.909 188.976C101.589 189.096 101.237 189.156 100.853 189.156C100.381 189.156 99.961 189.072 99.593 188.904C99.225 188.736 98.913 188.504 98.657 188.208C98.401 187.912 98.205 187.56 98.069 187.152C97.941 186.736 97.877 186.28 97.877 185.784C97.877 185.304 97.945 184.86 98.081 184.452C98.225 184.044 98.429 183.692 98.693 183.396C98.957 183.092 99.277 182.856 99.653 182.688C100.037 182.52 100.473 182.436 100.961 182.436ZM106.022 183.516C106.206 183.212 106.462 182.956 106.79 182.748C107.126 182.54 107.566 182.436 108.11 182.436C108.502 182.436 108.83 182.496 109.094 182.616C109.366 182.736 109.586 182.908 109.754 183.132C109.922 183.348 110.042 183.608 110.114 183.912C110.194 184.216 110.234 184.552 110.234 184.92V189H109.142V185.244C109.142 184.996 109.126 184.76 109.094 184.536C109.062 184.312 108.998 184.116 108.902 183.948C108.806 183.772 108.662 183.636 108.47 183.54C108.286 183.436 108.038 183.384 107.726 183.384C107.198 183.384 106.782 183.564 106.478 183.924C106.174 184.276 106.022 184.8 106.022 185.496V189H104.93V180.3H106.022V183.516ZM120.668 187.992V189H115.172V187.992H117.5V182.316H115.184V181.56C115.52 181.552 115.824 181.532 116.096 181.5C116.368 181.468 116.612 181.412 116.828 181.332C117.052 181.252 117.248 181.14 117.416 180.996C117.584 180.844 117.728 180.648 117.848 180.408H118.592V187.992H120.668ZM126.04 188.244C126.304 188.244 126.552 188.2 126.784 188.112C127.016 188.016 127.22 187.88 127.396 187.704C127.58 187.52 127.724 187.3 127.828 187.044C127.932 186.78 127.984 186.48 127.984 186.144C127.984 185.784 127.924 185.476 127.804 185.22C127.692 184.956 127.544 184.74 127.36 184.572C127.176 184.404 126.968 184.28 126.736 184.2C126.504 184.12 126.268 184.08 126.028 184.08C125.804 184.08 125.6 184.112 125.416 184.176C125.232 184.232 125.068 184.308 124.924 184.404C124.78 184.492 124.66 184.596 124.564 184.716C124.468 184.828 124.396 184.936 124.348 185.04L123.256 184.98L123.82 180.3H128.812V181.32H124.708L124.408 183.792C124.64 183.568 124.92 183.404 125.248 183.3C125.576 183.188 125.92 183.132 126.28 183.132C126.664 183.132 127.028 183.2 127.372 183.336C127.716 183.464 128.016 183.656 128.272 183.912C128.536 184.168 128.744 184.484 128.896 184.86C129.056 185.228 129.136 185.652 129.136 186.132C129.136 186.628 129.048 187.068 128.872 187.452C128.704 187.828 128.476 188.144 128.188 188.4C127.908 188.648 127.58 188.836 127.204 188.964C126.836 189.092 126.448 189.156 126.04 189.156C125.536 189.156 125.1 189.084 124.732 188.94C124.364 188.788 124.052 188.592 123.796 188.352C123.548 188.104 123.352 187.82 123.208 187.5C123.072 187.172 122.984 186.832 122.944 186.48H124.072C124.16 187.032 124.356 187.464 124.66 187.776C124.972 188.088 125.432 188.244 126.04 188.244ZM130.897 187.62H132.277V189.096L131.545 190.668H130.849L131.485 189H130.897V187.62ZM140.094 180.144C140.494 180.144 140.862 180.196 141.198 180.3C141.542 180.396 141.834 180.54 142.074 180.732C142.322 180.924 142.514 181.164 142.65 181.452C142.786 181.732 142.854 182.056 142.854 182.424C142.854 182.928 142.73 183.42 142.482 183.9C142.242 184.372 141.914 184.84 141.498 185.304C141.082 185.76 140.598 186.212 140.046 186.66C139.502 187.1 138.926 187.54 138.318 187.98H143.094V189H136.83V188.016C137.598 187.448 138.282 186.92 138.882 186.432C139.49 185.936 140.002 185.468 140.418 185.028C140.834 184.58 141.15 184.156 141.366 183.756C141.59 183.348 141.702 182.952 141.702 182.568C141.702 182.112 141.558 181.748 141.27 181.476C140.99 181.196 140.59 181.056 140.07 181.056C139.838 181.056 139.61 181.092 139.386 181.164C139.162 181.228 138.962 181.34 138.786 181.5C138.618 181.652 138.478 181.852 138.366 182.1C138.262 182.348 138.206 182.652 138.198 183.012H137.07C137.062 182.58 137.126 182.188 137.262 181.836C137.406 181.484 137.61 181.184 137.874 180.936C138.138 180.68 138.458 180.484 138.834 180.348C139.21 180.212 139.63 180.144 140.094 180.144ZM150.315 184.644C150.315 183.436 150.115 182.536 149.715 181.944C149.315 181.352 148.775 181.056 148.095 181.056C147.407 181.056 146.863 181.352 146.463 181.944C146.071 182.536 145.875 183.436 145.875 184.644C145.875 185.86 146.071 186.764 146.463 187.356C146.863 187.948 147.407 188.244 148.095 188.244C148.783 188.244 149.323 187.948 149.715 187.356C150.115 186.764 150.315 185.86 150.315 184.644ZM151.479 184.644C151.479 185.332 151.411 185.956 151.275 186.516C151.139 187.068 150.931 187.54 150.651 187.932C150.379 188.324 150.027 188.628 149.595 188.844C149.171 189.052 148.671 189.156 148.095 189.156C147.519 189.156 147.015 189.052 146.583 188.844C146.159 188.628 145.807 188.324 145.527 187.932C145.255 187.54 145.051 187.068 144.915 186.516C144.779 185.956 144.711 185.332 144.711 184.644C144.711 183.956 144.779 183.336 144.915 182.784C145.051 182.224 145.255 181.752 145.527 181.368C145.807 180.976 146.159 180.676 146.583 180.468C147.015 180.252 147.519 180.144 148.095 180.144C148.671 180.144 149.171 180.252 149.595 180.468C150.027 180.676 150.379 180.976 150.651 181.368C150.931 181.752 151.139 182.224 151.275 182.784C151.411 183.336 151.479 183.956 151.479 184.644ZM156.36 180.144C156.76 180.144 157.128 180.196 157.464 180.3C157.808 180.396 158.1 180.54 158.34 180.732C158.588 180.924 158.78 181.164 158.916 181.452C159.052 181.732 159.12 182.056 159.12 182.424C159.12 182.928 158.996 183.42 158.748 183.9C158.508 184.372 158.18 184.84 157.764 185.304C157.348 185.76 156.864 186.212 156.312 186.66C155.768 187.1 155.192 187.54 154.584 187.98H159.36V189H153.096V188.016C153.864 187.448 154.548 186.92 155.148 186.432C155.756 185.936 156.268 185.468 156.684 185.028C157.1 184.58 157.416 184.156 157.632 183.756C157.856 183.348 157.968 182.952 157.968 182.568C157.968 182.112 157.824 181.748 157.536 181.476C157.256 181.196 156.856 181.056 156.336 181.056C156.104 181.056 155.876 181.092 155.652 181.164C155.428 181.228 155.228 181.34 155.052 181.5C154.884 181.652 154.744 181.852 154.632 182.1C154.528 182.348 154.472 182.652 154.464 183.012H153.336C153.328 182.58 153.392 182.188 153.528 181.836C153.672 181.484 153.876 181.184 154.14 180.936C154.404 180.68 154.724 180.484 155.1 180.348C155.476 180.212 155.896 180.144 156.36 180.144ZM164.361 188.244C164.625 188.244 164.873 188.2 165.105 188.112C165.337 188.016 165.541 187.88 165.717 187.704C165.901 187.52 166.045 187.3 166.149 187.044C166.253 186.78 166.305 186.48 166.305 186.144C166.305 185.784 166.245 185.476 166.125 185.22C166.013 184.956 165.865 184.74 165.681 184.572C165.497 184.404 165.289 184.28 165.057 184.2C164.825 184.12 164.589 184.08 164.349 184.08C164.125 184.08 163.921 184.112 163.737 184.176C163.553 184.232 163.389 184.308 163.245 184.404C163.101 184.492 162.981 184.596 162.885 184.716C162.789 184.828 162.717 184.936 162.669 185.04L161.577 184.98L162.141 180.3H167.133V181.32H163.029L162.729 183.792C162.961 183.568 163.241 183.404 163.569 183.3C163.897 183.188 164.241 183.132 164.601 183.132C164.985 183.132 165.349 183.2 165.693 183.336C166.037 183.464 166.337 183.656 166.593 183.912C166.857 184.168 167.065 184.484 167.217 184.86C167.377 185.228 167.457 185.652 167.457 186.132C167.457 186.628 167.369 187.068 167.193 187.452C167.025 187.828 166.797 188.144 166.509 188.4C166.229 188.648 165.901 188.836 165.525 188.964C165.157 189.092 164.769 189.156 164.361 189.156C163.857 189.156 163.421 189.084 163.053 188.94C162.685 188.788 162.373 188.592 162.117 188.352C161.869 188.104 161.673 187.82 161.529 187.5C161.393 187.172 161.305 186.832 161.265 186.48H162.393C162.481 187.032 162.677 187.464 162.981 187.776C163.293 188.088 163.753 188.244 164.361 188.244Z" fill="black" fill-opacity="0.5"/><path d="M261 176C261 171.582 264.582 168 269 168H285C289.418 168 293 171.582 293 176V176C293 180.418 289.418 184 285 184H269C264.582 184 261 180.418 261 176V176Z" fill="black" fill-opacity="0.04"/><path d="M268.63 173.62V174.47C268.797 174.183 269.023 173.957 269.31 173.79C269.597 173.617 269.957 173.53 270.39 173.53C270.71 173.53 271.007 173.593 271.28 173.72C271.553 173.847 271.793 174.03 272 174.27C272.207 174.51 272.367 174.803 272.48 175.15C272.6 175.497 272.66 175.89 272.66 176.33C272.66 176.777 272.6 177.173 272.48 177.52C272.367 177.867 272.207 178.16 272 178.4C271.793 178.64 271.553 178.823 271.28 178.95C271.007 179.07 270.71 179.13 270.39 179.13C269.957 179.13 269.597 179.047 269.31 178.88C269.023 178.707 268.797 178.477 268.63 178.19V180.75H267.72V173.62H268.63ZM268.59 176.33C268.59 176.683 268.633 176.99 268.72 177.25C268.807 177.503 268.923 177.713 269.07 177.88C269.217 178.04 269.383 178.16 269.57 178.24C269.763 178.313 269.96 178.35 270.16 178.35C270.647 178.35 271.02 178.177 271.28 177.83C271.54 177.477 271.67 176.977 271.67 176.33C271.67 175.683 271.54 175.187 271.28 174.84C271.02 174.487 270.647 174.31 270.16 174.31C269.96 174.31 269.763 174.35 269.57 174.43C269.383 174.503 269.217 174.623 269.07 174.79C268.923 174.95 268.807 175.16 268.72 175.42C268.633 175.673 268.59 175.977 268.59 176.33ZM277.126 176.41C276.713 176.45 276.339 176.5 276.006 176.56C275.673 176.613 275.389 176.683 275.156 176.77C274.923 176.85 274.743 176.957 274.616 177.09C274.489 177.217 274.426 177.373 274.426 177.56C274.426 177.813 274.516 178.02 274.696 178.18C274.883 178.333 275.139 178.41 275.466 178.41C275.679 178.41 275.886 178.383 276.086 178.33C276.286 178.27 276.463 178.173 276.616 178.04C276.769 177.9 276.893 177.713 276.986 177.48C277.079 177.247 277.126 176.95 277.126 176.59V176.41ZM275.266 179.13C275.013 179.13 274.773 179.093 274.546 179.02C274.326 178.953 274.129 178.857 273.956 178.73C273.789 178.597 273.656 178.437 273.556 178.25C273.463 178.057 273.416 177.84 273.416 177.6C273.416 177.28 273.503 177.013 273.676 176.8C273.849 176.58 274.093 176.4 274.406 176.26C274.726 176.113 275.109 175.997 275.556 175.91C276.003 175.823 276.503 175.75 277.056 175.69V175.54C277.056 175.287 277.023 175.077 276.956 174.91C276.896 174.743 276.809 174.613 276.696 174.52C276.583 174.42 276.449 174.35 276.296 174.31C276.143 174.27 275.979 174.25 275.806 174.25C275.386 174.25 275.069 174.347 274.856 174.54C274.643 174.727 274.526 174.987 274.506 175.32H273.566C273.586 175.033 273.663 174.777 273.796 174.55C273.929 174.323 274.099 174.133 274.306 173.98C274.513 173.827 274.746 173.71 275.006 173.63C275.266 173.55 275.536 173.51 275.816 173.51C276.563 173.51 277.109 173.683 277.456 174.03C277.803 174.377 277.973 174.937 277.966 175.71L277.956 176.97C277.949 177.423 277.956 177.813 277.976 178.14C278.003 178.46 278.043 178.747 278.096 179H277.176C277.163 178.9 277.149 178.783 277.136 178.65C277.123 178.517 277.113 178.37 277.106 178.21C276.939 178.49 276.709 178.713 276.416 178.88C276.129 179.047 275.746 179.13 275.266 179.13ZM280.222 173.62V179H279.312V173.62H280.222ZM280.222 171.75V172.85H279.312V171.75H280.222ZM285.325 171.75H286.235V179H285.325V178.19C285.159 178.477 284.932 178.707 284.645 178.88C284.359 179.047 283.999 179.13 283.565 179.13C283.245 179.13 282.949 179.07 282.675 178.95C282.402 178.823 282.162 178.64 281.955 178.4C281.749 178.16 281.585 177.867 281.465 177.52C281.352 177.173 281.295 176.777 281.295 176.33C281.295 175.89 281.352 175.497 281.465 175.15C281.585 174.803 281.749 174.51 281.955 174.27C282.162 174.03 282.402 173.847 282.675 173.72C282.949 173.593 283.245 173.53 283.565 173.53C283.999 173.53 284.359 173.617 284.645 173.79C284.932 173.957 285.159 174.183 285.325 174.47V171.75ZM285.365 176.33C285.365 175.977 285.322 175.673 285.235 175.42C285.149 175.16 285.032 174.95 284.885 174.79C284.739 174.623 284.569 174.503 284.375 174.43C284.189 174.35 283.995 174.31 283.795 174.31C283.309 174.31 282.935 174.487 282.675 174.84C282.415 175.187 282.285 175.683 282.285 176.33C282.285 176.977 282.415 177.477 282.675 177.83C282.935 178.177 283.309 178.35 283.795 178.35C283.995 178.35 284.189 178.313 284.375 178.24C284.569 178.16 284.739 178.04 284.885 177.88C285.032 177.713 285.149 177.503 285.235 177.25C285.322 176.99 285.365 176.683 285.365 176.33Z" fill="black" fill-opacity="0.5"/><path d="M314.083 171.333L318.75 176L314.083 180.667M307.25 176L318.333 176" stroke="black" stroke-width="1.5"/><path d="M24 216C24 211.582 27.5817 208 32 208H56C60.4183 208 64 211.582 64 216V240C64 244.418 60.4183 248 56 248H32C27.5817 248 24 244.418 24 240V216Z" fill="black" fill-opacity="0.04"/><path d="M42.5387 225.879C42.4057 225.5 42.3334 225.092 42.3334 224.667C42.3334 223.027 43.409 221.639 44.893 221.17C44.4544 220.853 43.9157 220.667 43.3334 220.667C41.8606 220.667 40.6667 221.86 40.6667 223.333C40.6667 224.529 41.4541 225.541 42.5387 225.879Z" fill="black" fill-opacity="0.5"/><path d="M46 222C45.6544 222 45.3225 222.066 45.0176 222.187C44.0322 222.577 43.3334 223.54 43.3334 224.667C43.3334 224.908 43.3658 225.144 43.4268 225.368C43.7349 226.5 44.7693 227.333 46 227.333C47.4728 227.333 48.6667 226.139 48.6667 224.667C48.6667 223.194 47.4728 222 46 222Z" fill="black" fill-opacity="0.5"/><path fill-rule="evenodd" clip-rule="evenodd" d="M37.3334 228H41V228.693C42.641 228.309 44.0233 228.198 45.1201 228.269C46.3299 228.347 47.269 228.651 47.7876 229.134C47.9678 229.302 48.1128 229.507 48.1826 229.742C48.2969 229.659 48.4078 229.574 48.514 229.49C49.2364 228.916 50.3572 228.946 50.9763 229.721C51.4462 230.309 51.4717 231.177 50.9364 231.766C49.3122 233.555 47.254 234.783 44.6387 234.658C44.0249 234.629 43.2929 234.442 42.7405 234.276C42.4587 234.191 42.2127 234.108 42.037 234.046C41.9553 234.017 41.8885 233.993 41.84 233.975H41V234.667H37.3334V228ZM41 232.975H42.0241L42.111 233.008L42.1144 233.009L42.1267 233.014C42.1379 233.018 42.1549 233.025 42.1771 233.033C42.2216 233.05 42.2871 233.074 42.3694 233.103C42.5342 233.161 42.7652 233.239 43.029 233.318C43.5679 233.481 44.2018 233.636 44.6863 233.659C46.9146 233.765 48.704 232.737 50.1962 231.094C50.3725 230.9 50.386 230.584 50.1951 230.345C49.9623 230.054 49.4819 229.998 49.1361 230.273C48.5364 230.749 47.6902 231.329 46.845 231.563C46.5619 231.642 46.2807 231.704 46.0201 231.752C45.6327 231.833 45.1978 231.89 44.7181 231.921L44.7055 231.922L44.6949 231.922L44.6937 231.922L44.6918 231.922L44.6908 231.922C44.6908 231.922 44.6902 231.922 44.6625 231.423L44.6908 231.922L44.6313 230.924C44.6396 230.924 44.6479 230.923 44.6561 230.923L44.6733 230.922C44.7006 230.92 44.7417 230.916 44.7946 230.912C44.9004 230.903 45.0531 230.887 45.237 230.863C45.4113 230.841 45.6117 230.811 45.8256 230.771C46.4446 230.641 46.8429 230.458 47.0578 230.283C47.2154 230.155 47.2269 230.073 47.2278 230.057C47.2284 230.047 47.2294 229.98 47.1065 229.866C46.8405 229.619 46.1842 229.34 45.0556 229.267C44.0267 229.2 42.6669 229.31 41 229.721V232.975Z" fill="black" fill-opacity="0.5"/><path d="M79.816 213.268V214.144C80.632 214.208 81.276 214.48 81.748 214.96C82.228 215.44 82.464 216.076 82.456 216.868H81.328C81.32 216.556 81.272 216.292 81.184 216.076C81.104 215.86 80.992 215.68 80.848 215.536C80.712 215.392 80.552 215.284 80.368 215.212C80.192 215.132 80.008 215.08 79.816 215.056V218.032L79.996 218.08C80.324 218.168 80.648 218.272 80.968 218.392C81.288 218.512 81.572 218.668 81.82 218.86C82.076 219.052 82.28 219.288 82.432 219.568C82.584 219.848 82.66 220.196 82.66 220.612C82.66 221.02 82.584 221.376 82.432 221.68C82.28 221.984 82.076 222.24 81.82 222.448C81.564 222.656 81.26 222.82 80.908 222.94C80.564 223.052 80.2 223.12 79.816 223.144V224.164H79.156V223.144C78.74 223.112 78.36 223.016 78.016 222.856C77.68 222.696 77.388 222.492 77.14 222.244C76.9 221.988 76.712 221.692 76.576 221.356C76.448 221.012 76.388 220.64 76.396 220.24H77.524C77.532 220.56 77.58 220.84 77.668 221.08C77.764 221.312 77.888 221.512 78.04 221.68C78.192 221.84 78.364 221.968 78.556 222.064C78.748 222.152 78.948 222.208 79.156 222.232V218.98L78.892 218.908C78.564 218.82 78.26 218.704 77.98 218.56C77.708 218.416 77.472 218.244 77.272 218.044C77.072 217.836 76.912 217.6 76.792 217.336C76.68 217.064 76.624 216.76 76.624 216.424C76.624 216.08 76.696 215.776 76.84 215.512C76.984 215.24 77.172 215.008 77.404 214.816C77.636 214.624 77.904 214.472 78.208 214.36C78.512 214.248 78.828 214.176 79.156 214.144V213.268H79.816ZM81.532 220.78C81.532 220.524 81.492 220.312 81.412 220.144C81.332 219.968 81.216 219.82 81.064 219.7C80.92 219.58 80.74 219.48 80.524 219.4C80.316 219.312 80.08 219.232 79.816 219.16V222.244C80.04 222.228 80.256 222.188 80.464 222.124C80.672 222.052 80.856 221.956 81.016 221.836C81.176 221.716 81.3 221.568 81.388 221.392C81.484 221.216 81.532 221.012 81.532 220.78ZM77.752 216.412C77.752 216.772 77.864 217.068 78.088 217.3C78.32 217.532 78.672 217.716 79.144 217.852L79.156 217.864V215.044C78.98 215.06 78.808 215.1 78.64 215.164C78.472 215.22 78.32 215.304 78.184 215.416C78.056 215.528 77.952 215.668 77.872 215.836C77.792 215.996 77.752 216.188 77.752 216.412ZM87.231 214.144C87.631 214.144 87.999 214.196 88.335 214.3C88.679 214.396 88.971 214.54 89.211 214.732C89.459 214.924 89.651 215.164 89.787 215.452C89.923 215.732 89.991 216.056 89.991 216.424C89.991 216.928 89.867 217.42 89.619 217.9C89.379 218.372 89.051 218.84 88.635 219.304C88.219 219.76 87.735 220.212 87.183 220.66C86.639 221.1 86.063 221.54 85.455 221.98H90.231V223H83.967V222.016C84.735 221.448 85.419 220.92 86.019 220.432C86.627 219.936 87.139 219.468 87.555 219.028C87.971 218.58 88.287 218.156 88.503 217.756C88.727 217.348 88.839 216.952 88.839 216.568C88.839 216.112 88.695 215.748 88.407 215.476C88.127 215.196 87.727 215.056 87.207 215.056C86.975 215.056 86.747 215.092 86.523 215.164C86.299 215.228 86.099 215.34 85.923 215.5C85.755 215.652 85.615 215.852 85.503 216.1C85.399 216.348 85.343 216.652 85.335 217.012H84.207C84.199 216.58 84.263 216.188 84.399 215.836C84.543 215.484 84.747 215.184 85.011 214.936C85.275 214.68 85.595 214.484 85.971 214.348C86.347 214.212 86.767 214.144 87.231 214.144ZM91.9558 221.62H93.3358V223.096L92.6038 224.668H91.9078L92.5438 223H91.9558V221.62ZM98.3052 214.144C98.7052 214.144 99.0732 214.196 99.4092 214.3C99.7532 214.396 100.045 214.54 100.285 214.732C100.533 214.924 100.725 215.164 100.861 215.452C100.997 215.732 101.065 216.056 101.065 216.424C101.065 216.928 100.941 217.42 100.693 217.9C100.453 218.372 100.125 218.84 99.7092 219.304C99.2932 219.76 98.8092 220.212 98.2572 220.66C97.7132 221.1 97.1372 221.54 96.5292 221.98H101.305V223H95.0412V222.016C95.8092 221.448 96.4932 220.92 97.0932 220.432C97.7012 219.936 98.2132 219.468 98.6292 219.028C99.0452 218.58 99.3612 218.156 99.5772 217.756C99.8012 217.348 99.9132 216.952 99.9132 216.568C99.9132 216.112 99.7692 215.748 99.4812 215.476C99.2012 215.196 98.8012 215.056 98.2812 215.056C98.0492 215.056 97.8212 215.092 97.5972 215.164C97.3732 215.228 97.1732 215.34 96.9972 215.5C96.8292 215.652 96.6892 215.852 96.5772 216.1C96.4732 216.348 96.4172 216.652 96.4092 217.012H95.2812C95.2732 216.58 95.3372 216.188 95.4732 215.836C95.6172 215.484 95.8212 215.184 96.0852 214.936C96.3492 214.68 96.6692 214.484 97.0452 214.348C97.4212 214.212 97.8412 214.144 98.3052 214.144ZM106.306 222.244C106.57 222.244 106.818 222.2 107.05 222.112C107.282 222.016 107.486 221.88 107.662 221.704C107.846 221.52 107.99 221.3 108.094 221.044C108.198 220.78 108.25 220.48 108.25 220.144C108.25 219.784 108.19 219.476 108.07 219.22C107.958 218.956 107.81 218.74 107.626 218.572C107.442 218.404 107.234 218.28 107.002 218.2C106.77 218.12 106.534 218.08 106.294 218.08C106.07 218.08 105.866 218.112 105.682 218.176C105.498 218.232 105.334 218.308 105.19 218.404C105.046 218.492 104.926 218.596 104.83 218.716C104.734 218.828 104.662 218.936 104.614 219.04L103.522 218.98L104.086 214.3H109.078V215.32H104.974L104.674 217.792C104.906 217.568 105.186 217.404 105.514 217.3C105.842 217.188 106.186 217.132 106.546 217.132C106.93 217.132 107.294 217.2 107.638 217.336C107.982 217.464 108.282 217.656 108.538 217.912C108.802 218.168 109.01 218.484 109.162 218.86C109.322 219.228 109.402 219.652 109.402 220.132C109.402 220.628 109.314 221.068 109.138 221.452C108.97 221.828 108.742 222.144 108.454 222.4C108.174 222.648 107.846 222.836 107.47 222.964C107.102 223.092 106.714 223.156 106.306 223.156C105.802 223.156 105.366 223.084 104.998 222.94C104.63 222.788 104.318 222.592 104.062 222.352C103.814 222.104 103.618 221.82 103.474 221.5C103.338 221.172 103.25 220.832 103.21 220.48H104.338C104.426 221.032 104.622 221.464 104.926 221.776C105.238 222.088 105.698 222.244 106.306 222.244ZM116.659 218.644C116.659 217.436 116.459 216.536 116.059 215.944C115.659 215.352 115.119 215.056 114.439 215.056C113.751 215.056 113.207 215.352 112.807 215.944C112.415 216.536 112.219 217.436 112.219 218.644C112.219 219.86 112.415 220.764 112.807 221.356C113.207 221.948 113.751 222.244 114.439 222.244C115.127 222.244 115.667 221.948 116.059 221.356C116.459 220.764 116.659 219.86 116.659 218.644ZM117.823 218.644C117.823 219.332 117.755 219.956 117.619 220.516C117.483 221.068 117.275 221.54 116.995 221.932C116.723 222.324 116.371 222.628 115.939 222.844C115.515 223.052 115.015 223.156 114.439 223.156C113.863 223.156 113.359 223.052 112.927 222.844C112.503 222.628 112.151 222.324 111.871 221.932C111.599 221.54 111.395 221.068 111.259 220.516C111.123 219.956 111.055 219.332 111.055 218.644C111.055 217.956 111.123 217.336 111.259 216.784C111.395 216.224 111.599 215.752 111.871 215.368C112.151 214.976 112.503 214.676 112.927 214.468C113.359 214.252 113.863 214.144 114.439 214.144C115.015 214.144 115.515 214.252 115.939 214.468C116.371 214.676 116.723 214.976 116.995 215.368C117.275 215.752 117.483 216.224 117.619 216.784C117.755 217.336 117.823 217.956 117.823 218.644Z" fill="black"/><path d="M79.228 232.3H80.644L83.92 241H82.6L81.916 239.116H77.92L77.248 241H76L79.228 232.3ZM78.292 238.072H81.532L79.9 233.536L78.292 238.072ZM88.6647 240.076C88.4807 240.38 88.2287 240.636 87.9087 240.844C87.5967 241.052 87.1727 241.156 86.6367 241.156C86.2607 241.156 85.9407 241.096 85.6767 240.976C85.4207 240.856 85.2087 240.688 85.0407 240.472C84.8807 240.248 84.7607 239.984 84.6807 239.68C84.6087 239.376 84.5727 239.04 84.5727 238.672V234.544H85.6647V238.348C85.6647 238.596 85.6767 238.832 85.7007 239.056C85.7327 239.28 85.7967 239.48 85.8927 239.656C85.9887 239.824 86.1247 239.96 86.3007 240.064C86.4847 240.16 86.7247 240.208 87.0207 240.208C87.5407 240.208 87.9447 240.032 88.2327 239.68C88.5207 239.32 88.6647 238.792 88.6647 238.096V234.544H89.7567V241H88.6647V240.076ZM95.773 234.544H96.865V240.136C96.865 240.464 96.849 240.748 96.817 240.988C96.793 241.228 96.753 241.436 96.697 241.612C96.641 241.788 96.577 241.936 96.505 242.056C96.433 242.184 96.349 242.3 96.253 242.404C96.021 242.676 95.709 242.884 95.317 243.028C94.933 243.18 94.501 243.256 94.021 243.256C93.285 243.256 92.685 243.088 92.221 242.752C91.757 242.424 91.473 241.932 91.369 241.276H92.533C92.565 241.42 92.613 241.552 92.677 241.672C92.749 241.8 92.841 241.908 92.953 241.996C93.073 242.092 93.217 242.164 93.385 242.212C93.561 242.268 93.777 242.296 94.033 242.296C94.617 242.296 95.057 242.136 95.353 241.816C95.409 241.752 95.461 241.684 95.509 241.612C95.565 241.54 95.613 241.448 95.653 241.336C95.693 241.232 95.721 241.104 95.737 240.952C95.761 240.792 95.773 240.604 95.773 240.388V239.776C95.573 240.12 95.309 240.392 94.981 240.592C94.661 240.792 94.241 240.892 93.721 240.892C93.337 240.892 92.981 240.824 92.653 240.688C92.333 240.544 92.053 240.336 91.813 240.064C91.581 239.784 91.397 239.444 91.261 239.044C91.125 238.644 91.057 238.184 91.057 237.664C91.057 237.152 91.125 236.696 91.261 236.296C91.397 235.888 91.581 235.548 91.813 235.276C92.053 235.004 92.333 234.796 92.653 234.652C92.981 234.508 93.337 234.436 93.721 234.436C94.241 234.436 94.661 234.54 94.981 234.748C95.309 234.948 95.573 235.22 95.773 235.564V234.544ZM95.821 237.664C95.821 237.256 95.769 236.908 95.665 236.62C95.569 236.332 95.437 236.096 95.269 235.912C95.101 235.72 94.905 235.584 94.681 235.504C94.465 235.416 94.237 235.372 93.997 235.372C93.413 235.372 92.973 235.572 92.677 235.972C92.389 236.364 92.245 236.928 92.245 237.664C92.245 238.408 92.389 238.98 92.677 239.38C92.973 239.772 93.413 239.968 93.997 239.968C94.237 239.968 94.465 239.928 94.681 239.848C94.905 239.76 95.101 239.624 95.269 239.44C95.437 239.248 95.569 239.008 95.665 238.72C95.769 238.424 95.821 238.072 95.821 237.664ZM102.587 240.076C102.403 240.38 102.151 240.636 101.831 240.844C101.519 241.052 101.095 241.156 100.559 241.156C100.183 241.156 99.8626 241.096 99.5986 240.976C99.3426 240.856 99.1306 240.688 98.9626 240.472C98.8026 240.248 98.6826 239.984 98.6026 239.68C98.5306 239.376 98.4946 239.04 98.4946 238.672V234.544H99.5866V238.348C99.5866 238.596 99.5986 238.832 99.6226 239.056C99.6546 239.28 99.7186 239.48 99.8146 239.656C99.9106 239.824 100.047 239.96 100.223 240.064C100.407 240.16 100.647 240.208 100.943 240.208C101.463 240.208 101.867 240.032 102.155 239.68C102.443 239.32 102.587 238.792 102.587 238.096V234.544H103.679V241H102.587V240.076ZM109.155 236.428C109.067 236.044 108.883 235.772 108.603 235.612C108.331 235.444 107.991 235.36 107.583 235.36C107.415 235.36 107.247 235.376 107.079 235.408C106.911 235.432 106.759 235.48 106.623 235.552C106.495 235.616 106.387 235.7 106.299 235.804C106.219 235.908 106.179 236.032 106.179 236.176C106.179 236.432 106.267 236.624 106.443 236.752C106.619 236.88 106.875 236.98 107.211 237.052L108.123 237.232C108.427 237.296 108.715 237.372 108.987 237.46C109.267 237.548 109.507 237.668 109.707 237.82C109.915 237.964 110.079 238.144 110.199 238.36C110.319 238.576 110.379 238.84 110.379 239.152C110.379 239.472 110.311 239.756 110.175 240.004C110.039 240.252 109.851 240.464 109.611 240.64C109.371 240.808 109.087 240.936 108.759 241.024C108.439 241.112 108.087 241.156 107.703 241.156C107.271 241.156 106.883 241.092 106.539 240.964C106.203 240.836 105.915 240.668 105.675 240.46C105.443 240.252 105.259 240.012 105.123 239.74C104.995 239.468 104.915 239.192 104.883 238.912H106.035C106.123 239.328 106.299 239.652 106.563 239.884C106.835 240.116 107.223 240.232 107.727 240.232C108.167 240.232 108.535 240.148 108.831 239.98C109.127 239.812 109.275 239.576 109.275 239.272C109.275 239.112 109.239 238.972 109.167 238.852C109.095 238.732 108.995 238.632 108.867 238.552C108.747 238.464 108.603 238.396 108.435 238.348C108.275 238.292 108.103 238.244 107.919 238.204L106.959 238.012C106.727 237.964 106.499 237.9 106.275 237.82C106.051 237.74 105.847 237.632 105.663 237.496C105.487 237.36 105.343 237.192 105.231 236.992C105.127 236.784 105.075 236.528 105.075 236.224C105.075 235.936 105.143 235.684 105.279 235.468C105.415 235.244 105.599 235.056 105.831 234.904C106.071 234.744 106.351 234.624 106.671 234.544C106.991 234.464 107.335 234.424 107.703 234.424C108.431 234.424 109.019 234.604 109.467 234.964C109.915 235.324 110.191 235.812 110.295 236.428H109.155ZM112.028 232.924H113.12V234.544H114.344V235.42H113.12V239.248C113.12 239.416 113.124 239.556 113.132 239.668C113.148 239.772 113.176 239.856 113.216 239.92C113.264 239.984 113.332 240.028 113.42 240.052C113.508 240.076 113.632 240.088 113.792 240.088H114.344V241H113.552C113.24 241 112.984 240.98 112.784 240.94C112.592 240.892 112.44 240.812 112.328 240.7C112.216 240.58 112.136 240.416 112.088 240.208C112.048 239.992 112.028 239.716 112.028 239.38V235.42H111.008V234.544H112.028V232.924ZM124.418 239.992V241H118.922V239.992H121.25V234.316H118.934V233.56C119.27 233.552 119.574 233.532 119.846 233.5C120.118 233.468 120.362 233.412 120.578 233.332C120.802 233.252 120.998 233.14 121.166 232.996C121.334 232.844 121.478 232.648 121.598 232.408H122.342V239.992H124.418ZM126.514 239.62H127.894V241.096L127.162 242.668H126.466L127.102 241H126.514V239.62ZM135.711 232.144C136.111 232.144 136.479 232.196 136.815 232.3C137.159 232.396 137.451 232.54 137.691 232.732C137.939 232.924 138.131 233.164 138.267 233.452C138.403 233.732 138.471 234.056 138.471 234.424C138.471 234.928 138.347 235.42 138.099 235.9C137.859 236.372 137.531 236.84 137.115 237.304C136.699 237.76 136.215 238.212 135.663 238.66C135.119 239.1 134.543 239.54 133.935 239.98H138.711V241H132.447V240.016C133.215 239.448 133.899 238.92 134.499 238.432C135.107 237.936 135.619 237.468 136.035 237.028C136.451 236.58 136.767 236.156 136.983 235.756C137.207 235.348 137.319 234.952 137.319 234.568C137.319 234.112 137.175 233.748 136.887 233.476C136.607 233.196 136.207 233.056 135.687 233.056C135.455 233.056 135.227 233.092 135.003 233.164C134.779 233.228 134.579 233.34 134.403 233.5C134.235 233.652 134.095 233.852 133.983 234.1C133.879 234.348 133.823 234.652 133.815 235.012H132.687C132.679 234.58 132.743 234.188 132.879 233.836C133.023 233.484 133.227 233.184 133.491 232.936C133.755 232.68 134.075 232.484 134.451 232.348C134.827 232.212 135.247 232.144 135.711 232.144ZM145.932 236.644C145.932 235.436 145.732 234.536 145.332 233.944C144.932 233.352 144.392 233.056 143.712 233.056C143.024 233.056 142.48 233.352 142.08 233.944C141.688 234.536 141.492 235.436 141.492 236.644C141.492 237.86 141.688 238.764 142.08 239.356C142.48 239.948 143.024 240.244 143.712 240.244C144.4 240.244 144.94 239.948 145.332 239.356C145.732 238.764 145.932 237.86 145.932 236.644ZM147.096 236.644C147.096 237.332 147.028 237.956 146.892 238.516C146.756 239.068 146.548 239.54 146.268 239.932C145.996 240.324 145.644 240.628 145.212 240.844C144.788 241.052 144.288 241.156 143.712 241.156C143.136 241.156 142.632 241.052 142.2 240.844C141.776 240.628 141.424 240.324 141.144 239.932C140.872 239.54 140.668 239.068 140.532 238.516C140.396 237.956 140.328 237.332 140.328 236.644C140.328 235.956 140.396 235.336 140.532 234.784C140.668 234.224 140.872 233.752 141.144 233.368C141.424 232.976 141.776 232.676 142.2 232.468C142.632 232.252 143.136 232.144 143.712 232.144C144.288 232.144 144.788 232.252 145.212 232.468C145.644 232.676 145.996 232.976 146.268 233.368C146.548 233.752 146.756 234.224 146.892 234.784C147.028 235.336 147.096 235.956 147.096 236.644ZM151.977 232.144C152.377 232.144 152.745 232.196 153.081 232.3C153.425 232.396 153.717 232.54 153.957 232.732C154.205 232.924 154.397 233.164 154.533 233.452C154.669 233.732 154.737 234.056 154.737 234.424C154.737 234.928 154.613 235.42 154.365 235.9C154.125 236.372 153.797 236.84 153.381 237.304C152.965 237.76 152.481 238.212 151.929 238.66C151.385 239.1 150.809 239.54 150.201 239.98H154.977V241H148.713V240.016C149.481 239.448 150.165 238.92 150.765 238.432C151.373 237.936 151.885 237.468 152.301 237.028C152.717 236.58 153.033 236.156 153.249 235.756C153.473 235.348 153.585 234.952 153.585 234.568C153.585 234.112 153.441 233.748 153.153 233.476C152.873 233.196 152.473 233.056 151.953 233.056C151.721 233.056 151.493 233.092 151.269 233.164C151.045 233.228 150.845 233.34 150.669 233.5C150.501 233.652 150.361 233.852 150.249 234.1C150.145 234.348 150.089 234.652 150.081 235.012H148.953C148.945 234.58 149.009 234.188 149.145 233.836C149.289 233.484 149.493 233.184 149.757 232.936C150.021 232.68 150.341 232.484 150.717 232.348C151.093 232.212 151.513 232.144 151.977 232.144ZM159.978 240.244C160.242 240.244 160.49 240.2 160.722 240.112C160.954 240.016 161.158 239.88 161.334 239.704C161.518 239.52 161.662 239.3 161.766 239.044C161.87 238.78 161.922 238.48 161.922 238.144C161.922 237.784 161.862 237.476 161.742 237.22C161.63 236.956 161.482 236.74 161.298 236.572C161.114 236.404 160.906 236.28 160.674 236.2C160.442 236.12 160.206 236.08 159.966 236.08C159.742 236.08 159.538 236.112 159.354 236.176C159.17 236.232 159.006 236.308 158.862 236.404C158.718 236.492 158.598 236.596 158.502 236.716C158.406 236.828 158.334 236.936 158.286 237.04L157.194 236.98L157.758 232.3H162.75V233.32H158.646L158.346 235.792C158.578 235.568 158.858 235.404 159.186 235.3C159.514 235.188 159.858 235.132 160.218 235.132C160.602 235.132 160.966 235.2 161.31 235.336C161.654 235.464 161.954 235.656 162.21 235.912C162.474 236.168 162.682 236.484 162.834 236.86C162.994 237.228 163.074 237.652 163.074 238.132C163.074 238.628 162.986 239.068 162.81 239.452C162.642 239.828 162.414 240.144 162.126 240.4C161.846 240.648 161.518 240.836 161.142 240.964C160.774 241.092 160.386 241.156 159.978 241.156C159.474 241.156 159.038 241.084 158.67 240.94C158.302 240.788 157.99 240.592 157.734 240.352C157.486 240.104 157.29 239.82 157.146 239.5C157.01 239.172 156.922 238.832 156.882 238.48H158.01C158.098 239.032 158.294 239.464 158.598 239.776C158.91 240.088 159.37 240.244 159.978 240.244Z" fill="black" fill-opacity="0.5"/><path d="M261 228C261 223.582 264.582 220 269 220H285C289.418 220 293 223.582 293 228V228C293 232.418 289.418 236 285 236H269C264.582 236 261 232.418 261 228V228Z" fill="black" fill-opacity="0.04"/><path d="M268.63 225.62V226.47C268.797 226.183 269.023 225.957 269.31 225.79C269.597 225.617 269.957 225.53 270.39 225.53C270.71 225.53 271.007 225.593 271.28 225.72C271.553 225.847 271.793 226.03 272 226.27C272.207 226.51 272.367 226.803 272.48 227.15C272.6 227.497 272.66 227.89 272.66 228.33C272.66 228.777 272.6 229.173 272.48 229.52C272.367 229.867 272.207 230.16 272 230.4C271.793 230.64 271.553 230.823 271.28 230.95C271.007 231.07 270.71 231.13 270.39 231.13C269.957 231.13 269.597 231.047 269.31 230.88C269.023 230.707 268.797 230.477 268.63 230.19V232.75H267.72V225.62H268.63ZM268.59 228.33C268.59 228.683 268.633 228.99 268.72 229.25C268.807 229.503 268.923 229.713 269.07 229.88C269.217 230.04 269.383 230.16 269.57 230.24C269.763 230.313 269.96 230.35 270.16 230.35C270.647 230.35 271.02 230.177 271.28 229.83C271.54 229.477 271.67 228.977 271.67 228.33C271.67 227.683 271.54 227.187 271.28 226.84C271.02 226.487 270.647 226.31 270.16 226.31C269.96 226.31 269.763 226.35 269.57 226.43C269.383 226.503 269.217 226.623 269.07 226.79C268.923 226.95 268.807 227.16 268.72 227.42C268.633 227.673 268.59 227.977 268.59 228.33ZM277.126 228.41C276.713 228.45 276.339 228.5 276.006 228.56C275.673 228.613 275.389 228.683 275.156 228.77C274.923 228.85 274.743 228.957 274.616 229.09C274.489 229.217 274.426 229.373 274.426 229.56C274.426 229.813 274.516 230.02 274.696 230.18C274.883 230.333 275.139 230.41 275.466 230.41C275.679 230.41 275.886 230.383 276.086 230.33C276.286 230.27 276.463 230.173 276.616 230.04C276.769 229.9 276.893 229.713 276.986 229.48C277.079 229.247 277.126 228.95 277.126 228.59V228.41ZM275.266 231.13C275.013 231.13 274.773 231.093 274.546 231.02C274.326 230.953 274.129 230.857 273.956 230.73C273.789 230.597 273.656 230.437 273.556 230.25C273.463 230.057 273.416 229.84 273.416 229.6C273.416 229.28 273.503 229.013 273.676 228.8C273.849 228.58 274.093 228.4 274.406 228.26C274.726 228.113 275.109 227.997 275.556 227.91C276.003 227.823 276.503 227.75 277.056 227.69V227.54C277.056 227.287 277.023 227.077 276.956 226.91C276.896 226.743 276.809 226.613 276.696 226.52C276.583 226.42 276.449 226.35 276.296 226.31C276.143 226.27 275.979 226.25 275.806 226.25C275.386 226.25 275.069 226.347 274.856 226.54C274.643 226.727 274.526 226.987 274.506 227.32H273.566C273.586 227.033 273.663 226.777 273.796 226.55C273.929 226.323 274.099 226.133 274.306 225.98C274.513 225.827 274.746 225.71 275.006 225.63C275.266 225.55 275.536 225.51 275.816 225.51C276.563 225.51 277.109 225.683 277.456 226.03C277.803 226.377 277.973 226.937 277.966 227.71L277.956 228.97C277.949 229.423 277.956 229.813 277.976 230.14C278.003 230.46 278.043 230.747 278.096 231H277.176C277.163 230.9 277.149 230.783 277.136 230.65C277.123 230.517 277.113 230.37 277.106 230.21C276.939 230.49 276.709 230.713 276.416 230.88C276.129 231.047 275.746 231.13 275.266 231.13ZM280.222 225.62V231H279.312V225.62H280.222ZM280.222 223.75V224.85H279.312V223.75H280.222ZM285.325 223.75H286.235V231H285.325V230.19C285.159 230.477 284.932 230.707 284.645 230.88C284.359 231.047 283.999 231.13 283.565 231.13C283.245 231.13 282.949 231.07 282.675 230.95C282.402 230.823 282.162 230.64 281.955 230.4C281.749 230.16 281.585 229.867 281.465 229.52C281.352 229.173 281.295 228.777 281.295 228.33C281.295 227.89 281.352 227.497 281.465 227.15C281.585 226.803 281.749 226.51 281.955 226.27C282.162 226.03 282.402 225.847 282.675 225.72C282.949 225.593 283.245 225.53 283.565 225.53C283.999 225.53 284.359 225.617 284.645 225.79C284.932 225.957 285.159 226.183 285.325 226.47V223.75ZM285.365 228.33C285.365 227.977 285.322 227.673 285.235 227.42C285.149 227.16 285.032 226.95 284.885 226.79C284.739 226.623 284.569 226.503 284.375 226.43C284.189 226.35 283.995 226.31 283.795 226.31C283.309 226.31 282.935 226.487 282.675 226.84C282.415 227.187 282.285 227.683 282.285 228.33C282.285 228.977 282.415 229.477 282.675 229.83C282.935 230.177 283.309 230.35 283.795 230.35C283.995 230.35 284.189 230.313 284.375 230.24C284.569 230.16 284.739 230.04 284.885 229.88C285.032 229.713 285.149 229.503 285.235 229.25C285.322 228.99 285.365 228.683 285.365 228.33Z" fill="black" fill-opacity="0.5"/><path d="M314.083 223.333L318.75 228L314.083 232.667M307.25 228L318.333 228" stroke="black" stroke-width="1.5"/></g><defs><clipPath id="clip0_11728_71426"><path d="M0 16C0 7.16344 7.16344 0 16 0H329C337.837 0 345 7.16344 345 16V256C345 264.837 337.837 272 329 272H16C7.16345 272 0 264.837 0 256V16Z" fill="white"/></clipPath></defs></svg>