<svg xmlns="http://www.w3.org/2000/svg" width="112" height="40" viewBox="0 0 112 40" fill="none"><g clip-path="url(#clip0_2909_998)"><path d="M62.4001 24.6027L56.4495 7.64949H50.6191L58.4021 29.8252H60.5644C59.1824 33.762 58.3677 34.9337 55.7344 34.9337H53.4277V39.9972H56.1573C61.5235 39.9972 63.6892 37.5294 65.6178 32.0373L74.1811 7.64258H68.3508L62.4001 24.5958V24.6027Z" fill="#0F2832"></path><path d="M112.001 12.7158V7.65229H107.903V0L102.337 3.24894V7.64884H99.1816V12.7123H102.337V23.9005C102.337 26.987 103.489 29.8211 107.48 29.8211H112.004V24.7576H109.508C108.429 24.7576 107.907 24.2565 107.907 23.147V12.7123H112.004L112.001 12.7158Z" fill="#0F2832"></path><path d="M11.6916 7.04102C9.96931 7.04102 7.5698 7.60094 5.56562 9.64708V7.64587H0V39.0673H5.56562V27.7617C8.04076 30.3608 11.1175 30.4991 11.7432 30.4991C17.0131 30.4991 22.4619 26.0439 22.4619 18.592C22.4619 15.2221 21.3584 12.3119 19.2683 10.1759C17.2916 8.15741 14.6033 7.04447 11.695 7.04447M11.0797 12.1253C14.3902 12.1253 16.7966 14.9318 16.7966 18.7994C16.7966 22.667 14.3936 25.4217 11.0797 25.4217C8.18514 25.4217 5.26311 23.3894 5.26311 18.8513C5.26311 13.888 8.39828 12.1253 11.0797 12.1253Z" fill="#0F2832"></path><path d="M42.0017 9.65099C40.0526 7.51498 37.629 7.04492 35.8758 7.04492C29.6363 7.04492 25.1055 11.946 25.1055 18.6962C25.1055 21.8103 26.0955 24.7171 27.8969 26.8773C29.8701 29.2483 32.6134 30.503 35.8242 30.503C37.543 30.503 39.9529 30.0536 42.0017 27.9971V29.8359H47.5673V7.64978H42.0017V9.65099ZM36.4911 25.4187C33.1806 25.4187 30.7742 22.6329 30.7742 18.7964C30.7742 14.9599 33.1772 12.1223 36.4911 12.1223C39.1759 12.1223 42.3077 13.885 42.3077 18.8483C42.3077 23.3864 39.3856 25.4187 36.4911 25.4187Z" fill="#0F2832"></path><path d="M82.7688 9.65054V7.64933H77.2031V29.8285H82.7688V18.3224C82.7688 14.8177 84.4188 12.0872 87.0487 12.0872C89.3279 12.0872 90.7167 13.4836 90.7167 16.3593V29.832H96.2823V15.5643C96.2823 9.77842 93.2468 7.04102 88.5063 7.04102C84.577 7.04102 82.7688 9.64708 82.7688 9.64708V9.65054Z" fill="#0F2832"></path></g><defs><clipPath id="clip0_2909_998"><rect width="112" height="40" fill="white"></rect></clipPath></defs></svg>