<svg xmlns="http://www.w3.org/2000/svg" width="92" height="65" viewBox="0 0 92 65" fill="none"><g clip-path="url(#clip0_11277_33719)"><mask id="mask0_11277_33719" style="mask-type:luminance" maskUnits="userSpaceOnUse" x="0" y="0" width="92" height="65"><path d="M0.0214844 0.175781H91.6845V64.2051H0.0214844V0.175781Z" fill="white"></path></mask><g mask="url(#mask0_11277_33719)"><path fill-rule="evenodd" clip-rule="evenodd" d="M38.0814 7.18341C41.0402 4.10326 45.1583 2.19586 49.7078 2.19586C55.7737 2.19586 61.0308 5.56582 63.8616 10.5871C66.3744 9.46378 69.096 8.88384 71.8484 8.88524C82.7671 8.88524 91.6301 17.8156 91.6301 28.8354C91.6301 39.8552 82.7671 48.7856 71.8484 48.7856C70.5139 48.7856 69.2131 48.6515 67.9393 48.3981C65.4623 52.8127 60.7275 55.812 55.3356 55.812C53.1404 55.8163 50.9732 55.3183 49.0001 54.3562C46.4894 60.2536 40.6426 64.3986 33.8352 64.3986C26.7246 64.3986 20.6924 59.9166 18.3671 53.6148C17.3322 53.8332 16.2773 53.943 15.2196 53.9423C6.76095 53.9423 -0.0800781 47.0002 -0.0800781 38.4742C-0.0800781 32.7453 3.00007 27.7577 7.56974 25.0617C6.60028 22.8285 6.10127 20.4194 6.1038 17.9848C6.1038 8.14452 14.0906 0.191406 23.9309 0.191406C29.6935 0.191406 34.8496 2.93793 38.0848 7.20093" fill="#00A1E0"></path></g><path fill-rule="evenodd" clip-rule="evenodd" d="M13.2787 33.4654C13.221 33.6157 13.2992 33.6471 13.3177 33.6737C13.49 33.7984 13.6649 33.8887 13.8401 33.9901C14.7769 34.4855 15.6599 34.6304 16.5832 34.6304C18.4637 34.6304 19.6331 33.6296 19.6331 32.0187V31.987C19.6331 30.4975 18.312 29.9549 17.0786 29.5674L16.9172 29.5152C15.9837 29.2125 15.1783 28.949 15.1783 28.3357V28.3043C15.1783 27.7786 15.6501 27.3911 16.378 27.3911C17.1868 27.3911 18.1506 27.6603 18.7673 28.001C18.7673 28.001 18.95 28.119 19.0164 27.9427C19.0524 27.8474 19.3668 27.0059 19.4005 26.9115C19.4363 26.8128 19.3736 26.7383 19.3092 26.6999C18.6015 26.2685 17.6242 25.9754 16.6132 25.9754L16.4255 25.976C14.7035 25.976 13.5004 27.0173 13.5004 28.5069V28.5389C13.5004 30.1093 14.8282 30.6215 16.0683 30.9754L16.2678 31.0374C17.171 31.3151 17.9528 31.5563 17.9528 32.1899V32.2216C17.9528 32.8046 17.4439 33.2393 16.6284 33.2393C16.3113 33.2393 15.3006 33.2339 14.2054 32.5417C14.073 32.4646 13.9975 32.4089 13.8954 32.3466C13.8414 32.3139 13.7066 32.2549 13.648 32.4315L13.2773 33.4627M40.8099 33.4627C40.7523 33.613 40.8305 33.6444 40.8497 33.671C41.0212 33.7957 41.1968 33.886 41.372 33.9874C42.3089 34.4828 43.1918 34.6277 44.1152 34.6277C45.9956 34.6277 47.165 33.6269 47.165 32.016V31.9843C47.165 30.4948 45.8473 29.9522 44.6105 29.5647L44.4491 29.5125C43.5157 29.2098 42.7102 28.9463 42.7102 28.333V28.3016C42.7102 27.7759 43.182 27.3884 43.9099 27.3884C44.7187 27.3884 45.6792 27.6576 46.2992 27.9983C46.2992 27.9983 46.4819 28.1163 46.5486 27.94C46.5843 27.8447 46.8991 27.0032 46.9294 26.9088C46.9655 26.8101 46.9025 26.7356 46.8384 26.6972C46.1307 26.2658 45.1535 25.9727 44.1425 25.9727L43.9544 25.9733C42.2324 25.9733 41.0293 27.0146 41.0293 28.5042V28.5362C41.0293 30.1066 42.3571 30.6188 43.5972 30.9727L43.7964 31.0347C44.7029 31.3124 45.4813 31.5537 45.4813 32.1872V32.2189C45.4813 32.8019 44.9725 33.2366 44.157 33.2366C43.8392 33.2366 42.8258 33.2312 41.7339 32.539C41.6015 32.4619 41.524 32.4086 41.4236 32.3439C41.3895 32.3223 41.2308 32.2603 41.1766 32.4288L40.8059 33.46M59.6103 30.3058C59.6103 31.2156 59.4404 31.9334 59.1081 32.4423C58.7765 32.9444 58.2758 33.1904 57.5782 33.1904C56.8806 33.1904 56.3818 32.9465 56.0549 32.4457C55.7257 31.9402 55.5596 31.219 55.5596 30.3091C55.5596 29.3992 55.7267 28.6848 56.0549 28.1827C56.3812 27.6839 56.8772 27.4447 57.5782 27.4447C58.2791 27.4447 58.7779 27.6863 59.1081 28.1827C59.4424 28.6848 59.6103 29.3992 59.6103 30.3091M61.1807 28.6208C61.026 28.0984 60.7864 27.6401 60.4662 27.2559C60.1457 26.8718 59.7417 26.5617 59.2598 26.3393C58.7812 26.1152 58.2151 26.0023 57.5748 26.0023C56.9345 26.0023 56.3717 26.1159 55.8898 26.3393C55.4113 26.5631 55.0035 26.8718 54.6834 27.2559C54.3639 27.6401 54.124 28.0984 53.9689 28.6208C53.8156 29.1397 53.7378 29.7059 53.7378 30.3091C53.7378 30.9123 53.8156 31.4785 53.9689 31.9975C54.1229 32.5198 54.3632 32.9781 54.6834 33.3623C55.0039 33.7465 55.4113 34.0532 55.8898 34.2722C56.3717 34.4906 56.9379 34.6018 57.5748 34.6018C58.2117 34.6018 58.7779 34.4906 59.2564 34.2722C59.735 34.0538 60.1427 33.7465 60.4629 33.3623C60.7827 32.9781 61.0223 32.5198 61.1773 31.9975C61.3303 31.4785 61.4081 30.9123 61.4081 30.3091C61.4081 29.7093 61.3303 29.1397 61.1773 28.6208M74.0843 32.9343C74.0327 32.7817 73.8837 32.8393 73.8837 32.8393C73.6556 32.9266 73.4119 33.0075 73.1525 33.0479C72.8909 33.089 72.5998 33.1096 72.2931 33.1096C71.5349 33.1096 70.9283 32.8834 70.4969 32.4356C70.0622 31.9874 69.8196 31.2662 69.8229 30.2889C69.8253 29.3992 70.0403 28.732 70.4262 28.2197C70.807 27.7143 71.3933 27.4514 72.1684 27.4514C72.8155 27.4514 73.3108 27.5265 73.8298 27.689C73.8298 27.689 73.9528 27.7426 74.0118 27.5805C74.1496 27.1997 74.2514 26.9267 74.3993 26.5088C74.4411 26.3892 74.3387 26.3386 74.3013 26.3241C74.0977 26.2446 73.6172 26.1142 73.2532 26.0593C72.9129 26.0074 72.5186 25.9804 72.0737 25.9804C71.4132 25.9804 70.8268 26.0933 70.3247 26.3171C69.8226 26.5405 69.398 26.8495 69.061 27.2337C68.724 27.6179 68.4679 28.0762 68.296 28.5985C68.1258 29.1175 68.0399 29.687 68.0399 30.2903C68.0399 31.5911 68.3904 32.6459 69.0846 33.4176C69.7788 34.1927 70.8235 34.5836 72.1849 34.5836C72.9904 34.5836 73.816 34.4208 74.4091 34.1859C74.4091 34.1859 74.5224 34.1313 74.4732 33.9992L74.0856 32.9343M76.8321 29.4296C76.9073 28.9241 77.0458 28.5028 77.2635 28.1759C77.5894 27.6772 78.0857 27.4042 78.7833 27.4042C79.4809 27.4042 79.9426 27.6785 80.2729 28.1759C80.4919 28.5045 80.5876 28.9409 80.6233 29.4296L76.8153 29.4289L76.8321 29.4296ZM82.123 28.3175C81.9892 27.8154 81.6579 27.3065 81.4422 27.074C81.0985 26.7066 80.7649 26.4471 80.4312 26.3056C79.9496 26.1008 79.4314 25.9957 78.908 25.9966C78.2441 25.9966 77.6409 26.1088 77.1523 26.3369C76.6636 26.5668 76.2525 26.8795 75.929 27.2704C75.6058 27.6613 75.3628 28.123 75.2078 28.6521C75.0528 29.1745 74.9746 29.7474 74.9746 30.3472C74.9746 30.9605 75.0558 31.5301 75.2155 32.0457C75.377 32.5646 75.6368 33.0196 75.9873 33.397C76.3377 33.7778 76.786 34.0744 77.3251 34.2833C77.861 34.4906 78.5114 34.5981 79.2561 34.5957C80.7928 34.5907 81.6016 34.2486 81.9319 34.0633C81.9909 34.0302 82.0465 33.9733 81.9771 33.8092L81.6299 32.8352C81.5767 32.69 81.4298 32.7426 81.4298 32.7426C81.049 32.8848 80.5098 33.1402 79.246 33.1369C78.4204 33.1355 77.8104 32.8919 77.4262 32.51C77.0353 32.1191 76.8399 31.5496 76.8095 30.7408L82.1341 30.7449C82.1341 30.7449 82.2743 30.7435 82.2888 30.6067C82.2945 30.5501 82.4711 29.5148 82.13 28.3185L82.123 28.3175ZM34.2695 29.4296C34.3446 28.9241 34.4835 28.5028 34.7008 28.1759C35.0271 27.6772 35.5231 27.4042 36.2207 27.4042C36.9183 27.4042 37.38 27.6785 37.7102 28.1759C37.9289 28.5045 38.0246 28.9409 38.0607 29.4296L34.2526 29.4289L34.2695 29.4296ZM39.5603 28.3175C39.4269 27.8154 39.0953 27.3065 38.8796 27.074C38.5359 26.7066 38.2022 26.4471 37.8686 26.3056C37.3869 26.1008 36.8688 25.9957 36.3454 25.9966C35.6815 25.9966 35.0783 26.1088 34.5896 26.3369C34.101 26.5668 33.6898 26.8795 33.3663 27.2704C33.0438 27.6613 32.8002 28.123 32.6452 28.6521C32.4905 29.1745 32.4126 29.7474 32.4126 30.3472C32.4126 30.9605 32.4932 31.5301 32.6539 32.0457C32.815 32.5646 33.0752 33.0196 33.4223 33.397C33.7728 33.7778 34.221 34.0744 34.7601 34.2833C35.296 34.4906 35.943 34.5981 36.6911 34.5957C38.2278 34.5907 39.0366 34.2486 39.3669 34.0633C39.4255 34.0302 39.4815 33.9733 39.4117 33.8092L39.0646 32.8352C39.011 32.69 38.8641 32.7426 38.8641 32.7426C38.4833 32.8848 37.9441 33.1402 36.6804 33.1369C35.8581 33.1355 35.2447 32.8919 34.8606 32.51C34.4697 32.1191 34.2742 31.5496 34.2439 30.7408L39.5684 30.7449C39.5684 30.7449 39.7086 30.7435 39.7231 30.6067C39.7288 30.5501 39.9054 29.5148 39.564 28.3185L39.5603 28.3175ZM22.7779 32.9006C22.5693 32.7342 22.5403 32.6934 22.4712 32.5852C22.3658 32.4224 22.3118 32.1909 22.3118 31.8944C22.3118 31.4293 22.4669 31.0923 22.787 30.8665C22.7836 30.8672 23.2453 30.4689 24.3304 30.4823C24.8134 30.491 25.2953 30.5321 25.7728 30.6053V33.0216H25.7735C25.7735 33.0216 25.0995 33.1669 24.3379 33.2127C23.2561 33.2777 22.7776 32.9013 22.7809 32.9023L22.7779 32.9006ZM24.8942 29.16C24.6786 29.1441 24.3989 29.1364 24.0652 29.1364C23.6103 29.1364 23.1688 29.193 22.7577 29.3042C22.3432 29.4161 21.9691 29.5893 21.649 29.8198C21.3279 30.0488 21.0639 30.3486 20.8772 30.696C20.6889 31.0465 20.5928 31.4576 20.5928 31.9227C20.5928 32.3945 20.6747 32.8022 20.8365 33.1358C20.995 33.4668 21.2336 33.7529 21.5307 33.9682C21.8262 34.1832 22.1912 34.3423 22.6124 34.4367C23.0303 34.532 23.5021 34.5802 24.0211 34.5802C24.567 34.5802 25.1096 34.5344 25.6353 34.4458C26.0831 34.3685 26.5291 34.2818 26.9732 34.1856C27.1504 34.1448 27.3472 34.0912 27.3472 34.0912C27.4787 34.0579 27.4686 33.9173 27.4686 33.9173L27.4655 29.0646C27.4655 27.9997 27.1811 27.2077 26.6197 26.7191C26.0603 26.2305 25.2414 25.9844 24.1798 25.9844C23.7822 25.9844 23.1385 26.0384 22.7543 26.1155C22.7543 26.1155 21.5951 26.3407 21.1165 26.7154C21.1165 26.7154 21.0114 26.7801 21.0687 26.9267L21.4461 27.9377C21.4929 28.0688 21.6207 28.024 21.6207 28.024C21.6207 28.024 21.6608 28.0081 21.7079 27.9801C22.729 27.4241 24.0231 27.4409 24.0231 27.4409C24.596 27.4409 25.0408 27.5572 25.3374 27.7847C25.6275 28.0074 25.7755 28.3441 25.7755 29.0518V29.2766C25.3205 29.2105 24.8993 29.1724 24.8993 29.1724L24.8942 29.16ZM67.6928 26.4202C67.7004 26.4024 67.7045 26.3833 67.7046 26.3639C67.7047 26.3446 67.7009 26.3254 67.6934 26.3075C67.686 26.2897 67.675 26.2735 67.6612 26.26C67.6474 26.2464 67.6309 26.2358 67.6129 26.2288C67.5223 26.1944 67.0703 26.099 66.7232 26.0775C66.056 26.0357 65.6853 26.1482 65.3517 26.2979C65.0221 26.4465 64.6575 26.6854 64.4553 26.9617L64.4546 26.3147C64.4546 26.2257 64.3916 26.154 64.3019 26.154H62.9405C62.8522 26.154 62.7881 26.2257 62.7881 26.3147V34.2341C62.7882 34.2769 62.8053 34.3179 62.8355 34.3482C62.8658 34.3784 62.9068 34.3955 62.9496 34.3955H64.3447C64.3875 34.3955 64.4284 34.3784 64.4586 34.3481C64.4888 34.3179 64.5058 34.2769 64.5058 34.2341V30.2576C64.5058 29.7251 64.5644 29.196 64.6814 28.8624C64.7966 28.5325 64.9533 28.2693 65.1464 28.0806C65.3307 27.8983 65.5561 27.7631 65.8036 27.6863C66.0359 27.6196 66.2763 27.5858 66.518 27.5859C66.796 27.5859 67.101 27.6573 67.101 27.6573C67.2035 27.6688 67.2604 27.6061 67.2951 27.5137C67.3865 27.2708 67.6456 26.5432 67.6962 26.3983" fill="#FFFFFE"></path><path fill-rule="evenodd" clip-rule="evenodd" d="M54.6614 22.7707C54.4889 22.7186 54.3135 22.677 54.136 22.646C53.8973 22.6062 53.6555 22.5875 53.4135 22.5901C52.452 22.5901 51.6941 22.8617 51.162 23.3982C50.6336 23.9307 50.274 24.7418 50.0937 25.8091L50.0287 26.1693H48.8219C48.8219 26.1693 48.6746 26.1633 48.6436 26.324L48.4455 27.4294C48.4317 27.5352 48.4772 27.6012 48.6187 27.6005H49.7935L48.6015 34.2539C48.5082 34.7897 48.4013 35.2305 48.2831 35.5644C48.1665 35.894 48.0525 36.141 47.9124 36.3203C47.7765 36.4939 47.6478 36.6216 47.4257 36.6961C47.2424 36.7577 47.0314 36.7861 46.8003 36.7861C46.6715 36.7861 46.5003 36.7645 46.374 36.7392C46.2476 36.7143 46.1819 36.686 46.0872 36.6462C46.0872 36.6462 45.9494 36.5936 45.8951 36.7318C45.851 36.8447 45.5379 37.7057 45.5008 37.8122C45.4631 37.9174 45.516 38.0003 45.5827 38.0242C45.7391 38.0801 45.8553 38.1158 46.0683 38.1661C46.3642 38.2358 46.6136 38.2402 46.8471 38.2402C47.3364 38.2402 47.7823 38.1714 48.152 38.038C48.524 37.9035 48.8479 37.6693 49.1343 37.3522C49.444 37.0102 49.6388 36.6519 49.8252 36.1633C50.0095 35.679 50.1665 35.0778 50.2922 34.3772L51.4899 27.6005H53.2409C53.2409 27.6005 53.3885 27.6059 53.4192 27.4459L53.6174 26.3405C53.6312 26.2347 53.586 26.1687 53.4438 26.1693H51.7443C51.7528 26.1309 51.8299 25.5331 52.0251 24.9703C52.1083 24.73 52.265 24.5362 52.3978 24.4031C52.5217 24.2763 52.6744 24.1813 52.8429 24.1261C53.0277 24.069 53.2202 24.0413 53.4135 24.0439C53.5736 24.0439 53.7306 24.0631 53.8502 24.088C54.015 24.1231 54.0791 24.1416 54.1222 24.1544C54.2954 24.2073 54.3187 24.1561 54.3527 24.0722L54.7591 22.9561C54.8009 22.8361 54.6991 22.7855 54.6614 22.7707ZM30.9119 34.268C30.9119 34.357 30.8485 34.4294 30.7596 34.4294H29.3499C29.2606 34.4294 29.1973 34.357 29.1973 34.268V22.922C29.1973 22.8334 29.2606 22.7616 29.3499 22.7616H30.7596C30.8485 22.7616 30.9119 22.8334 30.9119 22.922V34.268Z" fill="#FFFFFE"></path></g><defs><clipPath id="clip0_11277_33719"><rect width="92" height="64.3663" fill="white"></rect></clipPath></defs></svg>