<svg xmlns="http://www.w3.org/2000/svg" width="90" height="45" viewBox="0 0 90 45" fill="none"><g clip-path="url(#clip0_11277_33739)"><path fill-rule="evenodd" clip-rule="evenodd" d="M0 44.522H45.4852L90 0H0V44.522Z" fill="url(#paint0_linear_11277_33739)"></path><path fill-rule="evenodd" clip-rule="evenodd" d="M53.4115 8.37463L44.5522 8.36917V29.4338L36.8133 8.36917H29.1398L22.5319 25.9851C21.8283 21.5433 17.2336 20.0095 13.6188 18.8596C11.2319 18.0931 8.69934 16.9656 8.72269 15.7197C8.74255 14.6968 10.0813 13.7467 12.7334 13.8897C14.5164 13.9842 16.0885 14.128 19.2174 15.637L22.2951 10.2775C19.4387 8.82443 15.4927 7.90584 12.2591 7.90234H12.2404C8.46974 7.90234 5.32701 9.12408 3.37917 11.1376C2.02147 12.5438 1.29013 14.3297 1.25957 16.3054C1.21003 19.0235 2.20697 20.9523 4.30147 22.4901C6.07013 23.7873 8.33203 24.6276 10.3257 25.2456C12.7853 26.0078 14.7925 26.6699 14.7692 28.0833C14.7511 28.5972 14.5559 29.0767 14.1862 29.4663C13.5736 30.0985 12.6315 30.3362 11.3307 30.3607C8.82155 30.4137 6.96014 30.0204 3.99549 28.2688L1.25957 33.7037C4.21592 35.3853 7.71658 36.3714 11.2884 36.3714L11.748 36.3661C14.8573 36.3102 17.3667 35.4242 19.3711 33.81C19.4861 33.7192 19.5896 33.6256 19.6958 33.5313L18.8069 35.9045H26.8547L28.2054 31.7967C29.619 32.2799 31.2275 32.5468 32.9361 32.5468C34.5987 32.5468 36.1651 32.2915 37.5533 31.8371L38.8552 35.9045H51.9798V27.3997H54.8416C61.7613 27.3997 65.8534 23.8757 65.8534 17.9711C65.8534 11.3934 61.8772 8.37506 53.411 8.37506L53.4115 8.37463ZM32.9366 26.3989C31.9027 26.3989 30.9337 26.2181 30.0981 25.9023L32.906 17.0431H32.9593L35.7185 25.9274C34.889 26.2219 33.9425 26.3989 32.9368 26.3989H32.9366ZM53.9315 21.3085H51.9802V14.1695H53.9315C56.5346 14.1695 58.6101 15.0339 58.6101 17.6917C58.6101 20.4421 56.5346 21.3085 53.9315 21.3085Z" fill="white"></path></g><defs><linearGradient id="paint0_linear_11277_33739" x1="45" y1="0" x2="45" y2="44.522" gradientUnits="userSpaceOnUse"><stop stop-color="#00B1EB"></stop><stop offset="0.212" stop-color="#009AD9"></stop><stop offset="0.519" stop-color="#007FC4"></stop><stop offset="0.792" stop-color="#006EB8"></stop><stop offset="1" stop-color="#0069B4"></stop></linearGradient><clipPath id="clip0_11277_33739"><rect width="90" height="44.522" fill="white"></rect></clipPath></defs></svg>