<svg xmlns="http://www.w3.org/2000/svg" width="114" height="33" viewBox="0 0 114 33" fill="none"><g id="shopify_logo_whitebg 1" clip-path="url(#clip0_81_1265)"><g id="Group"><g id="Group_2"><path id="Vector" d="M25.0438 6.77941C25.0214 6.62255 24.8869 6.53291 24.7749 6.53291C24.6628 6.53291 22.4443 6.48809 22.4443 6.48809C22.4443 6.48809 20.5844 4.69538 20.4051 4.49369C20.2259 4.31442 19.8673 4.35924 19.7329 4.40406C19.7329 4.40406 19.3743 4.5161 18.7917 4.69538C18.7021 4.38165 18.5452 4.0007 18.3435 3.59734C17.6936 2.34243 16.7077 1.67017 15.5424 1.67017C15.4528 1.67017 15.3855 1.67017 15.2959 1.69257C15.2511 1.64776 15.2287 1.60294 15.1838 1.58053C14.6684 1.04271 14.0186 0.773807 13.2343 0.796216C11.7329 0.841034 10.2315 1.93907 8.99897 3.86624C8.14743 5.23319 7.49757 6.93627 7.29589 8.2584C5.5704 8.79622 4.36032 9.17717 4.3155 9.17717C3.44155 9.44608 3.41914 9.46848 3.30709 10.2976C3.26228 10.9251 0.976562 28.6057 0.976562 28.6057L20.1586 31.9223L28.4724 29.8606C28.4499 29.8606 25.0662 6.93627 25.0438 6.77941ZM17.8281 5.0091C17.3799 5.14356 16.8869 5.30042 16.3491 5.47969C16.3491 4.71778 16.2371 3.64215 15.9009 2.7458C17.0438 2.92507 17.604 4.22479 17.8281 5.0091ZM15.3407 5.77101C14.3323 6.08473 13.2343 6.42087 12.1362 6.757C12.45 5.56932 13.0326 4.40406 13.7497 3.61975C14.0186 3.32843 14.3995 3.0147 14.8253 2.83543C15.2735 3.70938 15.3631 4.94187 15.3407 5.77101ZM13.2791 1.80462C13.6376 1.80462 13.9289 1.87185 14.1754 2.05112C13.7721 2.2528 13.3687 2.56652 13.0102 2.96989C12.0466 4.0007 11.3071 5.59173 11.0158 7.13795C10.097 7.42927 9.20065 7.69818 8.39393 7.94467C8.93174 5.5021 10.971 1.87185 13.2791 1.80462Z" fill="#95BF47"></path><g id="Group_3"><path id="Vector_2" d="M24.7744 6.53407C24.6624 6.53407 22.4439 6.48925 22.4439 6.48925C22.4439 6.48925 20.584 4.69654 20.4047 4.49486C20.3375 4.42763 20.2478 4.38281 20.1582 4.38281V31.9234L28.4719 29.8618C28.4719 29.8618 25.0882 6.93743 25.0658 6.78057C25.0209 6.62371 24.8865 6.53407 24.7744 6.53407Z" fill="#5E8E3E"></path><path id="Vector_3" d="M15.5425 10.8149L14.5789 14.4228C14.5789 14.4228 13.5033 13.9298 12.226 14.0194C10.3436 14.1315 10.3436 15.3191 10.3436 15.6105C10.4557 17.2239 14.691 17.5824 14.9375 21.3696C15.1167 24.3499 13.3689 26.3892 10.8142 26.546C7.76661 26.7029 6.08594 24.9102 6.08594 24.9102L6.7358 22.1539C6.7358 22.1539 8.43888 23.4312 9.78342 23.3415C10.6574 23.2967 10.9935 22.5572 10.9487 22.0642C10.8142 19.9578 7.36325 20.0922 7.13916 16.6189C6.95989 13.7057 8.86465 10.7701 13.0775 10.5012C14.7134 10.3892 15.5425 10.8149 15.5425 10.8149Z" fill="white"></path></g></g><g id="Group_4"><path id="s_4_" d="M39.7213 18.4997C38.7578 17.9842 38.2648 17.5361 38.2648 16.931C38.2648 16.1691 38.9594 15.6761 40.0351 15.6761C41.29 15.6761 42.4104 16.1915 42.4104 16.1915L43.2844 13.5025C43.2844 13.5025 42.4777 12.875 40.1023 12.875C36.7858 12.875 34.4777 14.7798 34.4777 17.4464C34.4777 18.9702 35.5533 20.1131 36.9875 20.9422C38.1527 21.5921 38.5561 22.0627 38.5561 22.7574C38.5561 23.4744 37.9735 24.0571 36.8978 24.0571C35.3068 24.0571 33.783 23.2279 33.783 23.2279L32.8418 25.917C32.8418 25.917 34.2312 26.8582 36.5841 26.8582C39.9903 26.8582 42.4552 25.1775 42.4552 22.1523C42.4328 20.5165 41.2003 19.3512 39.7213 18.4997Z" fill="black"></path><path id="h_4_" d="M53.3008 12.8297C51.6202 12.8297 50.298 13.6364 49.2896 14.8465L49.2448 14.8241L50.7014 7.20508H46.9143L43.2168 26.6112H47.0039L48.2588 19.9782C48.7518 17.4684 50.0515 15.9222 51.2616 15.9222C52.1132 15.9222 52.4493 16.5048 52.4493 17.3339C52.4493 17.8493 52.4045 18.4992 52.2924 19.0146L50.8583 26.6112H54.6454L56.1244 18.7681C56.2812 17.939 56.3933 16.953 56.3933 16.2807C56.4157 14.1294 55.2952 12.8297 53.3008 12.8297Z" fill="black"></path><path id="o_4_" d="M64.999 12.8281C60.4276 12.8281 57.4023 16.9514 57.4023 21.5452C57.4023 24.4808 59.2175 26.8561 62.6236 26.8561C67.1054 26.8561 70.1306 22.8449 70.1306 18.139C70.153 15.4276 68.562 12.8281 64.999 12.8281ZM63.139 23.9654C61.8393 23.9654 61.3015 22.8673 61.3015 21.478C61.3015 19.3043 62.4219 15.7637 64.4836 15.7637C65.8281 15.7637 66.2763 16.929 66.2763 18.0494C66.2763 20.3799 65.1334 23.9654 63.139 23.9654Z" fill="black"></path><path id="p_4_" d="M79.8572 12.8281C77.3026 12.8281 75.846 15.0914 75.846 15.0914H75.8012L76.0253 13.0522H72.664C72.5071 14.4192 72.1934 16.5256 71.9021 18.0942L69.2578 31.9878H73.0449L74.0981 26.3631H74.1878C74.1878 26.3631 74.9721 26.8561 76.4063 26.8561C80.8657 26.8561 83.7788 22.2847 83.7788 17.6685C83.7788 15.1138 82.636 12.8281 79.8572 12.8281ZM76.227 24.0102C75.241 24.0102 74.6584 23.45 74.6584 23.45L75.2858 19.9094C75.734 17.534 76.9665 15.9654 78.2886 15.9654C79.4539 15.9654 79.8124 17.041 79.8124 18.0494C79.8124 20.5144 78.3558 24.0102 76.227 24.0102Z" fill="black"></path><path id="dot_4_" d="M89.201 7.38281C87.9909 7.38281 87.0273 8.3464 87.0273 9.57889C87.0273 10.6993 87.7444 11.4837 88.8201 11.4837H88.8649C90.0526 11.4837 91.061 10.6769 91.0834 9.28757C91.0834 8.18954 90.3439 7.38281 89.201 7.38281Z" fill="black"></path><path id="i_4_" d="M83.8887 26.588H87.6758L90.2528 13.1426H86.4433L83.8887 26.588Z" fill="black"></path><path id="f_4_" d="M99.9128 13.1204H97.2685L97.403 12.493C97.6271 11.1932 98.389 10.0504 99.6663 10.0504C100.339 10.0504 100.876 10.2521 100.876 10.2521L101.616 7.27168C101.616 7.27168 100.966 6.93555 99.5543 6.93555C98.2097 6.93555 96.8652 7.3165 95.8344 8.19045C94.5347 9.28849 93.9296 10.8795 93.6383 12.493L93.5262 13.1204H91.7559L91.1957 15.9888H92.966L90.9492 26.6106H94.7363L96.7531 15.9888H99.375L99.9128 13.1204Z" fill="black"></path><path id="y_4_" d="M109.055 13.1426C109.055 13.1426 106.68 19.1258 105.626 22.3975H105.582C105.514 21.3443 104.64 13.1426 104.64 13.1426H100.652L102.937 25.4899C102.982 25.7588 102.96 25.9381 102.848 26.1174C102.399 26.9689 101.66 27.798 100.786 28.4031C100.069 28.9185 99.2622 29.2546 98.6348 29.4787L99.688 32.7056C100.45 32.5487 102.063 31.8989 103.408 30.644C105.133 29.0305 106.747 26.5207 108.383 23.1146L113.021 13.1426H109.055Z" fill="black"></path></g></g></g><defs><clipPath id="clip0_81_1265"><rect width="112.045" height="32" fill="white" transform="translate(0.978516 0.707031)"></rect></clipPath></defs></svg>