<svg xmlns="http://www.w3.org/2000/svg" width="124" height="24" viewBox="0 0 124 24" fill="none"><g clip-path="url(#clip0_8733_29214)"><path d="M12.6927 12.5628C12.6927 14.3983 12.1464 15.9444 11.0499 17.1959C9.90564 18.5073 8.41877 19.1656 6.59866 19.1656C4.77372 19.1656 3.29168 18.5073 2.14736 17.1959C1.0504 15.9444 0.5 14.3983 0.5 12.5628C0.5 10.7222 1.0504 9.1766 2.14736 7.92954C3.30438 6.63044 4.7913 5.98121 6.59866 5.98121C8.41877 5.98121 9.90564 6.63044 11.0499 7.92954C12.1464 9.1766 12.6927 10.7222 12.6927 12.5628ZM9.06886 12.5628C9.06886 11.7314 8.86967 11.0296 8.4709 10.4623C8.02473 9.81737 7.40033 9.49701 6.59866 9.49701C5.79669 9.49701 5.17254 9.81737 4.72592 10.4623C4.32302 11.0296 4.12363 11.7314 4.12363 12.5628C4.12363 13.3895 4.32302 14.0997 4.72592 14.6841C5.17254 15.329 5.79669 15.6499 6.59866 15.6499C7.40033 15.6499 8.02473 15.329 8.4709 14.6841C8.86967 14.0997 9.06886 13.3895 9.06886 12.5628ZM25.7955 12.5628C25.7955 14.2773 25.3013 15.7754 24.3086 17.057C23.2467 18.4598 21.8771 19.1656 20.2127 19.1656C19.0379 19.1656 18.0413 18.8236 17.2264 18.1483C17.2264 18.3038 17.2437 18.6806 17.2785 19.283C17.3131 19.8885 17.3302 20.3822 17.3302 20.7719C17.3302 22.9245 16.6888 23.998 15.4061 23.998C14.8814 23.998 14.4525 23.8118 14.1099 23.4436C13.7719 23.0716 13.6028 22.6248 13.6028 22.0972V8.09852C13.6028 7.58754 13.7763 7.1457 14.1229 6.7737C14.4696 6.40554 14.8989 6.21978 15.4104 6.21978C16.1816 6.21978 16.7452 6.60427 17.1008 7.37129C17.8592 6.44468 18.8952 5.98121 20.2084 5.98121C21.8771 5.98121 23.2424 6.67362 24.3086 8.06395C25.297 9.35011 25.7955 10.8482 25.7955 12.5628ZM22.1716 12.5628C22.1716 11.7314 21.9684 11.0296 21.5696 10.4623C21.1227 9.81737 20.4988 9.49701 19.6968 9.49701C18.8952 9.49701 18.271 9.81737 17.8244 10.4623C17.4256 11.0296 17.2264 11.7314 17.2264 12.5628C17.2264 13.3895 17.4256 14.0997 17.8244 14.6841C18.271 15.329 18.8952 15.6499 19.6968 15.6499C20.4988 15.6499 21.1227 15.329 21.5696 14.6841C21.9684 14.0997 22.1716 13.3895 22.1716 12.5628ZM38.9804 12.1735C38.9804 12.779 38.8373 13.1947 38.5512 13.4289C38.2653 13.6581 37.8189 13.775 37.2164 13.775H30.6757C30.6757 14.4679 31.0009 15.0002 31.651 15.3722C32.1755 15.6628 32.817 15.8104 33.5754 15.8104C34.1652 15.8104 34.8715 15.6148 35.6994 15.2301C36.5273 14.8401 37.0602 14.6493 37.2904 14.6493C37.7105 14.6493 38.0658 14.801 38.3606 15.1128C38.6508 15.4204 38.7986 15.7927 38.7986 16.2215C38.7986 17.2125 38.0575 17.9841 36.5746 18.538C35.4436 18.9534 34.295 19.1656 33.1206 19.1656C31.2308 19.1656 29.705 18.538 28.5391 17.2869C27.373 16.0353 26.7882 14.4635 26.7882 12.5628C26.7882 10.7524 27.3948 9.20685 28.6083 7.91704C29.8175 6.62611 31.3219 5.98121 33.1161 5.98121C34.7848 5.98121 36.1804 6.59178 37.299 7.81268C38.4169 9.03403 38.9804 10.4887 38.9804 12.1735ZM35.3571 11.2636C35.3395 10.7092 35.0839 10.2071 34.5898 9.75211C34.0955 9.29778 33.5713 9.07293 33.0163 9.07293C32.4443 9.07293 31.911 9.29778 31.417 9.75211C30.9231 10.2071 30.6757 10.7092 30.6757 11.2636H35.3571ZM51.1555 17.0263C51.1555 17.555 50.9866 18.0007 50.6489 18.3731C50.3063 18.7415 49.877 18.9278 49.3526 18.9278C48.087 18.9278 47.4539 17.9231 47.4539 15.9184C47.4539 15.533 47.4801 14.927 47.532 14.0913C47.5885 13.2597 47.6147 12.6494 47.6147 12.2639C47.6147 10.1375 46.9254 9.07293 45.5514 9.07293C44.1772 9.07293 43.4925 10.1375 43.4925 12.2639C43.4925 12.6494 43.5142 13.2597 43.5531 14.0913C43.5966 14.927 43.6182 15.533 43.6182 15.9184C43.6182 17.9231 42.994 18.9278 41.7459 18.9278C41.2212 18.9278 40.7924 18.7415 40.4541 18.3731C40.1118 18.0007 39.9427 17.555 39.9427 17.0263V8.09468C39.9427 7.56978 40.1118 7.1246 40.4541 6.76504C40.7924 6.40121 41.2258 6.21978 41.7503 6.21978C42.6171 6.21978 43.2194 6.60427 43.5574 7.37129C44.1426 6.44468 45.1784 5.98121 46.6609 5.98121C48.0349 5.98121 49.1273 6.3446 49.9292 7.0677C50.7484 7.84337 51.1555 8.90803 51.1555 10.2635V17.0263ZM62.5244 16.6415C62.5244 17.4597 61.9922 18.1089 60.9254 18.5858C60.0806 18.9706 59.1624 19.1684 58.2339 19.1656C56.4084 19.1656 54.9266 18.5073 53.7825 17.1959C52.6856 15.9444 52.1352 14.3983 52.1352 12.5628C52.1352 10.7222 52.6945 9.16819 53.8169 7.89501C54.9394 6.61795 56.4084 5.98121 58.2339 5.98121C59.287 5.98121 60.1928 6.13701 60.9475 6.44468C62.0001 6.86036 62.5244 7.50954 62.5244 8.39301C62.5244 8.83868 62.386 9.23276 62.1084 9.57501C61.8312 9.91268 61.4753 10.0859 61.0425 10.0859C60.7471 10.0859 60.3223 9.98635 59.7679 9.79194C59.2131 9.59227 58.7715 9.49701 58.4466 9.49701C57.5836 9.49701 56.9116 9.80444 56.4306 10.419C55.9841 10.9735 55.7586 11.6836 55.7586 12.5628C55.7586 13.3895 55.958 14.0913 56.3617 14.6584C56.8072 15.321 57.4364 15.6499 58.2379 15.6499C58.5938 15.6499 59.0787 15.5459 59.6985 15.3333C60.3188 15.1262 60.7654 15.0179 61.0425 15.0179C61.4457 15.0179 61.7918 15.1908 62.0872 15.5287C62.3777 15.8707 62.5244 16.2384 62.5244 16.6415ZM75.6966 17.0263C75.6966 17.555 75.5277 18.0007 75.1895 18.3731C74.8473 18.7415 74.4141 18.9278 73.8888 18.9278C73.1001 18.9278 72.5369 18.5421 72.1987 17.7758C71.4406 18.7027 70.4042 19.1656 69.0913 19.1656C67.41 19.1656 66.0316 18.4598 64.9647 17.057C63.9939 15.7754 63.505 14.2773 63.505 12.5628C63.505 10.8482 63.9939 9.35011 64.9647 8.06395C66.0488 6.67362 67.4223 5.98121 69.0913 5.98121C70.4042 5.98121 71.4406 6.44468 72.1987 7.37129C72.5369 6.60427 73.1001 6.21978 73.8888 6.21978C74.4008 6.21978 74.8301 6.40554 75.1772 6.7737C75.5233 7.1457 75.6966 7.58321 75.6966 8.09468V17.0263ZM72.0732 12.5628C72.0732 11.7314 71.8743 11.0296 71.475 10.4623C71.0113 9.81737 70.387 9.49701 69.6028 9.49701C68.8008 9.49701 68.177 9.81737 67.73 10.4623C67.3273 11.0296 67.1284 11.7314 67.1284 12.5628C67.1284 13.3895 67.3224 14.0997 67.7079 14.6841C68.1682 15.329 68.8008 15.6499 69.6028 15.6499C70.4043 15.6499 71.0285 15.329 71.475 14.6841C71.8743 14.0997 72.0732 13.3895 72.0732 12.5628ZM84.9421 7.85586C84.9421 8.63085 84.565 9.16337 83.8108 9.45329C83.1132 9.68754 82.419 9.92611 81.7258 10.1721C80.9667 10.6055 80.5901 11.4108 80.5901 12.58V17.0263C80.5901 17.555 80.4163 18.0007 80.0791 18.3731C79.7359 18.7415 79.3027 18.9278 78.7784 18.9278C78.2502 18.9278 77.8159 18.7415 77.4787 18.3731C77.1356 18.0007 76.9667 17.555 76.9667 17.0263V8.09468C76.9667 7.56978 77.1356 7.1246 77.4738 6.76504C77.8159 6.40121 78.2502 6.21978 78.7745 6.21978C79.6409 6.21978 80.243 6.60427 80.5817 7.37129C81.3576 6.44468 82.1901 5.98121 83.0871 5.98121C83.5981 5.98121 84.0362 6.16701 84.4001 6.53513C84.7594 6.90762 84.9421 7.34921 84.9421 7.85586ZM94.3954 8.02052C94.3954 8.8257 94.0788 9.33235 93.4511 9.54929C93.1425 9.65729 92.4961 9.71345 91.5124 9.71345V17.0263C91.5124 17.555 91.3391 18.0007 91.0019 18.3731C90.6588 18.7415 90.2255 18.9278 89.7012 18.9278C89.1902 18.9278 88.756 18.7415 88.4089 18.3731C88.0628 18.0007 87.8895 17.555 87.8895 17.0263V9.71345C87.1437 9.71345 86.6022 9.61819 86.26 9.43244C85.7923 9.17252 85.5609 8.70044 85.5609 8.02052C85.5609 7.34104 85.7997 6.87762 86.2807 6.63044C86.6061 6.44852 87.1437 6.3537 87.8895 6.3537V4.80354C87.8895 2.98077 88.4911 2.07162 89.7012 2.07162C90.9059 2.07162 91.5124 2.98077 91.5124 4.80354V6.3537C92.4961 6.3537 93.1425 6.40986 93.4511 6.51786C94.0788 6.73436 94.3954 7.23713 94.3954 8.02052ZM123.506 5.82186C123.496 4.71044 121.44 4.20595 116.118 4.20595C103.632 4.20595 100.464 3.67313 97.0735 0.109375C98.4998 2.24921 99.2801 6.26277 112.478 6.06304C126.249 5.85113 117.848 9.61003 115.404 13.8568C119.812 9.9266 123.493 7.33603 123.506 5.83795V5.82186ZM105.959 17.2346C105.959 18.2677 105.108 19.1176 104.074 19.1179C103.029 19.1179 102.184 18.274 102.184 17.2346C102.184 17.2341 102.184 17.2336 102.184 17.2331C102.184 16.1983 103.036 15.3468 104.073 15.3468C104.073 15.3468 104.073 15.3468 104.074 15.3468C105.115 15.3468 105.959 16.1908 105.959 17.2346ZM114.558 17.2346C114.558 18.2677 113.707 19.1176 112.673 19.1179C111.629 19.1179 110.784 18.274 110.784 17.2346C110.784 17.2341 110.784 17.2336 110.784 17.2331C110.784 16.1983 111.636 15.3468 112.672 15.3468C112.672 15.3468 112.672 15.3468 112.673 15.3468C113.714 15.3468 114.558 16.1908 114.558 17.2346Z" fill="url(#paint0_linear_8733_29214)"></path></g><defs><linearGradient id="paint0_linear_8733_29214" x1="62.003" y1="19.0063" x2="62.003" y2="0.109425" gradientUnits="userSpaceOnUse"><stop stop-color="#04B6F0"></stop><stop offset="1" stop-color="#3ECAF0"></stop></linearGradient><clipPath id="clip0_8733_29214"><rect width="123.077" height="24" fill="white" transform="translate(0.460938)"></rect></clipPath></defs></svg>