<svg xmlns="http://www.w3.org/2000/svg" width="124" height="31" viewBox="0 0 124 31" fill="none"><g id="bigcommerce-black 2"><path id="Vector" d="M35.2292 15.0712C35.9596 15.0487 36.6847 15.2029 37.3427 15.5206C38.0007 15.8384 38.5723 16.3104 39.0088 16.8965V2.45294C39.0081 2.38929 38.9899 2.32705 38.9563 2.27303C38.9226 2.219 38.8748 2.17526 38.818 2.14659C38.7611 2.11792 38.6975 2.10542 38.6341 2.11047C38.5706 2.11551 38.5098 2.13789 38.4582 2.17518L20.5848 15.2324H21.061C22.916 15.2324 23.8684 16.4129 23.8684 17.7124C23.8848 18.1426 23.7765 18.5684 23.5565 18.9384C23.3365 19.3085 23.0142 19.607 22.6284 19.7981C22.6018 19.8096 22.5792 19.8287 22.5633 19.8529C22.5475 19.8772 22.539 19.9055 22.539 19.9345C22.539 19.9634 22.5475 19.9918 22.5633 20.016C22.5792 20.0402 22.6018 20.0593 22.6284 20.0709C23.0612 20.2638 23.4276 20.5801 23.6816 20.9802C23.9357 21.3803 24.0662 21.8464 24.0568 22.3202C24.0568 23.7933 23.0921 24.9614 21.2222 24.9614H16.1208C16.07 24.9614 16.0211 24.9414 15.9849 24.9056C15.9487 24.8699 15.928 24.8213 15.9274 24.7705V18.63L2.60235 28.3441C2.55011 28.3817 2.51122 28.435 2.49135 28.4963C2.47147 28.5575 2.47164 28.6235 2.49183 28.6846C2.51202 28.7457 2.55118 28.7988 2.60361 28.8361C2.65605 28.8735 2.71903 28.8931 2.78339 28.8922H38.7037C38.7842 28.8922 38.8614 28.8604 38.9185 28.8038C38.9757 28.7471 39.0081 28.6701 39.0088 28.5897V23.6743C37.9871 24.635 36.6314 25.1599 35.2292 25.1375C32.3648 25.1375 30.0212 23.1684 30.0212 20.1031C30.0212 17.0378 32.3648 15.0712 35.2292 15.0712ZM28.1067 24.7853C28.1067 24.832 28.0881 24.8768 28.0551 24.9098C28.0221 24.9429 27.9773 24.9614 27.9306 24.9614H26.1946C26.1479 24.9614 26.1031 24.9429 26.0701 24.9098C26.0371 24.8768 26.0185 24.832 26.0185 24.7853V15.4085C26.0185 15.3618 26.0371 15.317 26.0701 15.2839C26.1031 15.2509 26.1479 15.2324 26.1946 15.2324H27.9306C27.9773 15.2324 28.0221 15.2509 28.0551 15.2839C28.0881 15.317 28.1067 15.3618 28.1067 15.4085V24.7853ZM17.9932 18.9053V17.1544C17.9929 17.1415 17.9952 17.1286 17.9999 17.1166C18.0046 17.1046 18.0117 17.0936 18.0207 17.0844C18.0297 17.0751 18.0405 17.0678 18.0524 17.0628C18.0643 17.0578 18.077 17.0552 18.09 17.0552H20.5848C21.2867 17.0552 21.7256 17.4768 21.7256 18.0769C21.7256 18.6771 21.2966 19.0962 20.5848 19.0962H18.1842C18.159 19.0966 18.134 19.0918 18.1107 19.0824C18.0874 19.0729 18.0662 19.0588 18.0484 19.041C18.0306 19.0232 18.0166 19.002 18.0071 18.9787C17.9976 18.9554 17.9929 18.9304 17.9932 18.9053ZM17.9932 22.9452V21.1125C17.9929 21.0873 17.9976 21.0623 18.0071 21.039C18.0166 21.0157 18.0306 20.9945 18.0484 20.9767C18.0662 20.9589 18.0874 20.9448 18.1107 20.9354C18.134 20.9259 18.159 20.9212 18.1842 20.9215H20.6816C21.4876 20.9215 21.9216 21.4175 21.9216 22.0301C21.9216 22.7294 21.4553 23.1386 20.6816 23.1386H18.1842C18.1589 23.1386 18.1339 23.1336 18.1105 23.1238C18.0872 23.1141 18.066 23.0998 18.0483 23.0818C18.0305 23.0638 18.0165 23.0425 18.0071 23.019C17.9976 22.9956 17.9929 22.9705 17.9932 22.9452ZM37.6968 18.0893L39.0063 17.3776V19.5773H34.9242C34.8696 19.5773 34.8172 19.599 34.7786 19.6376C34.74 19.6762 34.7184 19.7286 34.7184 19.7832V21.1819C34.7184 21.2365 34.74 21.2888 34.7786 21.3274C34.8172 21.3661 34.8696 21.3877 34.9242 21.3877H37.1364C37.1771 21.3877 37.2162 21.4039 37.2451 21.4328C37.2739 21.4616 37.2901 21.5007 37.2901 21.5415V22.4789C37.2909 22.5024 37.2864 22.5257 37.277 22.5472C37.2675 22.5686 37.2534 22.5877 37.2356 22.6029C36.6619 23.0499 35.9564 23.2941 35.2292 23.2973C33.4461 23.2973 32.159 21.9408 32.159 20.1031C32.159 18.2654 33.4461 16.9089 35.2292 16.9089C35.6582 16.9136 36.0802 17.0173 36.4626 17.2117C36.845 17.4061 37.1774 17.6861 37.434 18.0298C37.4642 18.0685 37.5069 18.0955 37.5548 18.1064C37.6027 18.1172 37.6529 18.1112 37.6968 18.0893ZM40.5265 20.0882C40.5265 17.0825 42.6841 15.0563 45.4642 15.0563C46.2006 15.0391 46.9284 15.2172 47.5736 15.5727C48.2188 15.9282 48.7582 16.4483 49.1371 17.08C49.1493 17.0991 49.1574 17.1205 49.1609 17.1429C49.1644 17.1654 49.1632 17.1882 49.1573 17.2102C49.1515 17.2321 49.1412 17.2526 49.127 17.2703C49.1129 17.288 49.0952 17.3026 49.0751 17.3131L47.964 17.9157C47.9285 17.9343 47.8873 17.9387 47.8487 17.9281C47.81 17.9175 47.7768 17.8927 47.7557 17.8587C47.5107 17.4707 47.1729 17.1499 46.7728 16.9252C46.3727 16.7005 45.923 16.5789 45.4642 16.5716C43.6017 16.5716 42.2204 18.0323 42.2204 20.0882C42.2204 22.1441 43.6017 23.6049 45.4642 23.6049C45.923 23.5946 46.3723 23.4715 46.7723 23.2467C47.1724 23.0218 47.5109 22.7019 47.7582 22.3153C47.7789 22.2814 47.8115 22.2565 47.8496 22.2455C47.8876 22.2345 47.9285 22.2381 47.964 22.2557L49.0825 22.8361C49.1054 22.8457 49.1257 22.8604 49.1419 22.8791C49.1582 22.8979 49.1698 22.9201 49.1761 22.9441C49.1823 22.9681 49.1829 22.9932 49.1779 23.0175C49.1729 23.0418 49.1623 23.0645 49.147 23.0841C48.4204 24.1877 47.2696 25.135 45.4642 25.135C42.6841 25.1301 40.5265 23.0865 40.5265 20.0882ZM50.0968 20.0882C50.0968 17.6677 51.4807 15.7854 53.5688 15.2249C57.1128 14.2801 60.364 17.5933 59.5928 21.291C59.3951 22.3839 58.8139 23.3703 57.9537 24.0727C57.0935 24.7751 56.0109 25.1474 54.9006 25.1226C52.0808 25.1301 50.0968 22.9997 50.0968 20.0882ZM58.0328 20.0882C58.0328 18.0745 56.7928 16.5716 54.913 16.5716C53.0332 16.5716 51.7907 18.0819 51.7907 20.0882C51.7907 22.0945 53.0059 23.6049 54.9105 23.6049C56.8152 23.6049 58.0328 22.0945 58.0328 20.0882ZM69.8426 24.8325V17.4421L66.8815 24.9019C66.8754 24.9173 66.8649 24.9306 66.8511 24.9399C66.8374 24.9492 66.8212 24.9541 66.8046 24.954H66.1846C66.1684 24.954 66.1525 24.9489 66.1392 24.9396C66.1259 24.9303 66.1158 24.9171 66.1102 24.9019L63.1342 17.4421V24.8399C63.1336 24.87 63.1213 24.8986 63.1001 24.9199C63.0788 24.9411 63.0502 24.9533 63.0201 24.954H61.5321C61.5016 24.954 61.4723 24.942 61.4506 24.9207C61.4288 24.8994 61.4162 24.8704 61.4156 24.8399V15.339C61.4156 15.3081 61.4278 15.2785 61.4497 15.2566C61.4716 15.2347 61.5012 15.2225 61.5321 15.2225H63.6724C63.7184 15.2244 63.7629 15.2391 63.801 15.265C63.8391 15.2908 63.8693 15.3268 63.8881 15.3688L66.4921 22.0474L69.0812 15.3762C69.0985 15.3331 69.1283 15.2961 69.1667 15.2701C69.2052 15.244 69.2505 15.23 69.297 15.2299H71.4372C71.4677 15.2305 71.4967 15.2431 71.5181 15.2649C71.5394 15.2867 71.5513 15.316 71.5513 15.3465V24.8473C71.5507 24.8774 71.5385 24.906 71.5172 24.9273C71.4959 24.9486 71.4673 24.9608 71.4372 24.9614H69.9492C69.9187 24.9595 69.8902 24.9457 69.8698 24.923C69.8494 24.9002 69.8388 24.8704 69.8401 24.8399L69.8426 24.8325ZM86.6892 24.7705V15.3985C86.6892 15.3518 86.7078 15.3071 86.7408 15.274C86.7738 15.241 86.8186 15.2225 86.8653 15.2225H93.1943C93.241 15.2225 93.2858 15.241 93.3188 15.274C93.3518 15.3071 93.3704 15.3518 93.3704 15.3985V16.5493C93.3704 16.596 93.3518 16.6407 93.3188 16.6738C93.2858 16.7068 93.241 16.7253 93.1943 16.7253H88.574C88.5273 16.7253 88.4825 16.7439 88.4495 16.7769C88.4165 16.8099 88.398 16.8547 88.398 16.9014V19.059C88.398 19.1057 88.4165 19.1505 88.4495 19.1835C88.4825 19.2165 88.5273 19.2351 88.574 19.2351H93.0901C93.1368 19.2351 93.1816 19.2536 93.2146 19.2867C93.2477 19.3197 93.2662 19.3645 93.2662 19.4112V20.5619C93.2662 20.6086 93.2477 20.6534 93.2146 20.6864C93.1816 20.7194 93.1368 20.738 93.0901 20.738H88.574C88.5273 20.738 88.4825 20.7565 88.4495 20.7896C88.4165 20.8226 88.398 20.8674 88.398 20.9141V23.275C88.398 23.3217 88.4165 23.3665 88.4495 23.3995C88.4825 23.4325 88.5273 23.4511 88.574 23.4511H93.1918C93.2385 23.4511 93.2833 23.4696 93.3163 23.5027C93.3493 23.5357 93.3679 23.5805 93.3679 23.6272V24.7779C93.3679 24.8246 93.3493 24.8694 93.3163 24.9024C93.2833 24.9354 93.2385 24.954 93.1918 24.954H86.8628C86.8161 24.954 86.7713 24.9354 86.7383 24.9024C86.7053 24.8694 86.6868 24.8246 86.6868 24.7779L86.6892 24.7705ZM101.321 24.8597L99.2752 21.3877C99.2597 21.3614 99.2376 21.3395 99.2111 21.3243C99.1846 21.3091 99.1545 21.301 99.124 21.3009H97.688C97.6418 21.3009 97.5974 21.3191 97.5644 21.3516C97.5314 21.3841 97.5126 21.4283 97.512 21.4745V24.7804C97.512 24.8264 97.4937 24.8706 97.4611 24.9031C97.4286 24.9357 97.3844 24.954 97.3384 24.954H95.9768C95.9306 24.954 95.8861 24.9358 95.8532 24.9033C95.8202 24.8708 95.8014 24.8266 95.8008 24.7804V15.3985C95.8008 15.3518 95.8193 15.3071 95.8523 15.274C95.8854 15.241 95.9301 15.2225 95.9768 15.2225H100.086C102.016 15.2225 103.288 16.4625 103.288 18.2729C103.288 19.8749 102.296 20.8074 101.21 21.0802C101.182 21.0861 101.157 21.0984 101.135 21.1162C101.113 21.1339 101.096 21.1566 101.085 21.1823C101.074 21.208 101.069 21.236 101.071 21.264C101.073 21.292 101.081 21.3191 101.096 21.3431L103.194 24.6886C103.21 24.715 103.219 24.7453 103.22 24.7764C103.221 24.8075 103.213 24.8382 103.198 24.8653C103.182 24.8924 103.16 24.9149 103.133 24.9305C103.107 24.9461 103.076 24.9542 103.045 24.954H101.473C101.442 24.9543 101.411 24.9465 101.384 24.9312C101.357 24.916 101.334 24.8939 101.319 24.8672L101.321 24.8597ZM101.535 18.2505C101.535 17.3156 100.833 16.7179 99.868 16.7179H97.688C97.6413 16.7179 97.5965 16.7364 97.5635 16.7695C97.5305 16.8025 97.512 16.8473 97.512 16.894V19.6443C97.512 19.6673 97.5165 19.6901 97.5254 19.7113C97.5343 19.7325 97.5473 19.7518 97.5637 19.7679C97.5801 19.7841 97.5995 19.7968 97.6208 19.8054C97.6422 19.814 97.665 19.8182 97.688 19.8179H99.868C100.83 19.8179 101.532 19.2053 101.532 18.258L101.535 18.2505ZM114.842 24.7754V15.3961C114.842 15.3734 114.846 15.3509 114.855 15.3298C114.863 15.3088 114.876 15.2896 114.891 15.2735C114.907 15.2573 114.926 15.2445 114.947 15.2357C114.968 15.227 114.991 15.2225 115.013 15.2225H121.352C121.375 15.2225 121.397 15.227 121.418 15.2357C121.439 15.2445 121.458 15.2573 121.474 15.2735C121.49 15.2896 121.503 15.3088 121.511 15.3298C121.519 15.3509 121.524 15.3734 121.523 15.3961V16.5542C121.523 16.5996 121.505 16.6431 121.473 16.6752C121.441 16.7073 121.398 16.7253 121.352 16.7253H116.722C116.676 16.7253 116.633 16.7433 116.6 16.7753C116.568 16.8073 116.549 16.8508 116.548 16.8965V19.064C116.549 19.1096 116.568 19.1531 116.6 19.1851C116.633 19.2172 116.676 19.2351 116.722 19.2351H121.246C121.268 19.2348 121.291 19.239 121.312 19.2474C121.333 19.2559 121.352 19.2684 121.368 19.2843C121.384 19.3003 121.397 19.3192 121.406 19.3402C121.415 19.3611 121.419 19.3835 121.419 19.4062V20.5669C121.419 20.5895 121.415 20.612 121.406 20.6329C121.397 20.6538 121.384 20.6728 121.368 20.6887C121.352 20.7047 121.333 20.7172 121.312 20.7257C121.291 20.7341 121.268 20.7383 121.246 20.738H116.722C116.676 20.738 116.633 20.7559 116.6 20.7879C116.568 20.82 116.549 20.8635 116.548 20.9091V23.28C116.549 23.3256 116.568 23.3691 116.6 23.4011C116.633 23.4332 116.676 23.4511 116.722 23.4511H121.35C121.395 23.4511 121.439 23.4691 121.471 23.5012C121.503 23.5333 121.521 23.5768 121.521 23.6222V24.7829C121.521 24.8282 121.503 24.8718 121.471 24.9039C121.439 24.9359 121.395 24.954 121.35 24.954H115.011C114.965 24.954 114.922 24.9359 114.89 24.9039C114.858 24.8718 114.84 24.8282 114.84 24.7829L114.842 24.7754ZM104.538 20.056C104.538 17.0502 106.695 15.0216 109.475 15.0216C110.212 15.0046 110.94 15.1831 111.585 15.5391C112.23 15.895 112.77 16.4155 113.148 17.0477C113.161 17.0667 113.169 17.0879 113.172 17.1101C113.176 17.1324 113.174 17.1551 113.168 17.1768C113.163 17.1985 113.152 17.2188 113.138 17.2363C113.124 17.2538 113.106 17.2681 113.086 17.2784L111.975 17.8835C111.94 17.9018 111.898 17.9059 111.859 17.8948C111.821 17.8838 111.788 17.8584 111.767 17.824C111.522 17.4366 111.184 17.1164 110.784 16.8922C110.384 16.6679 109.934 16.5467 109.475 16.5393C107.613 16.5393 106.232 17.9976 106.232 20.056C106.232 22.1144 107.613 23.5602 109.475 23.5602C109.934 23.5507 110.383 23.4282 110.782 23.2037C111.182 22.9792 111.52 22.6595 111.767 22.2731C111.789 22.2395 111.822 22.2149 111.86 22.2039C111.898 22.193 111.939 22.1964 111.975 22.2136L113.089 22.8013C113.111 22.8117 113.131 22.8268 113.146 22.8456C113.162 22.8644 113.173 22.8865 113.179 22.9101C113.186 22.9338 113.187 22.9586 113.182 22.9827C113.177 23.0067 113.168 23.0295 113.153 23.0493C112.427 24.1505 111.276 25.0978 109.471 25.0978C106.695 25.0879 104.538 23.0469 104.538 20.056ZM82.4658 24.8399V17.4421L79.5096 24.9019C79.5036 24.9173 79.493 24.9306 79.4793 24.9399C79.4656 24.9492 79.4493 24.9541 79.4328 24.954H78.8128C78.7965 24.954 78.7807 24.9489 78.7674 24.9396C78.7541 24.9303 78.7439 24.9171 78.7383 24.9019L75.7624 17.4421V24.8399C75.7624 24.8702 75.7503 24.8992 75.7289 24.9206C75.7075 24.942 75.6785 24.954 75.6483 24.954H74.1603C74.1298 24.954 74.1005 24.942 74.0787 24.9207C74.0569 24.8994 74.0444 24.8704 74.0437 24.8399V15.339C74.0437 15.3081 74.056 15.2785 74.0779 15.2566C74.0997 15.2347 74.1294 15.2225 74.1603 15.2225H76.3005C76.3465 15.2244 76.3911 15.2391 76.4292 15.265C76.4673 15.2908 76.4974 15.3268 76.5163 15.3688L79.1128 22.0474L81.7119 15.3762C81.7307 15.3342 81.7609 15.2983 81.799 15.2724C81.8371 15.2466 81.8816 15.2319 81.9276 15.2299H84.0728C84.088 15.2299 84.1031 15.2329 84.1171 15.2388C84.1311 15.2447 84.1438 15.2533 84.1544 15.2642C84.165 15.275 84.1734 15.2879 84.1789 15.302C84.1845 15.3162 84.1872 15.3313 84.1869 15.3465V24.8473C84.1869 24.8776 84.1749 24.9066 84.1535 24.928C84.1321 24.9494 84.1031 24.9614 84.0728 24.9614H82.5848C82.5693 24.9611 82.554 24.9577 82.5398 24.9514C82.5256 24.9451 82.5129 24.936 82.5022 24.9247C82.4916 24.9133 82.4833 24.9 82.4779 24.8855C82.4725 24.8709 82.4701 24.8554 82.4708 24.8399H82.4658Z" fill="#121118"></path></g></svg>