<svg xmlns="http://www.w3.org/2000/svg" width="32" height="32" viewBox="0 0 32 32" fill="none"><path d="M16 32C7.1648 32 0 24.8352 0 16C0 7.1648 7.1648 0 16 0C24.8352 0 32 7.1648 32 16C32 24.8352 24.8352 32 16 32Z" fill="#0F2832"></path><path d="M26.1814 10.8509C25.9382 9.92932 25.2182 9.20612 24.303 8.95972C22.6454 8.51172 16.0022 8.51172 16.0022 8.51172C16.0022 8.51172 9.3558 8.51172 7.7014 8.95972C6.7862 9.20612 6.0662 9.92932 5.823 10.8509C5.375 12.5181 5.375 15.9997 5.375 15.9997C5.375 15.9997 5.375 19.4813 5.8198 21.1485C6.063 22.0701 6.783 22.7933 7.6982 23.0397C9.3558 23.4877 15.999 23.4877 15.999 23.4877C15.999 23.4877 22.6454 23.4877 24.2998 23.0397C25.215 22.7933 25.935 22.0701 26.1782 21.1485C26.623 19.4813 26.623 15.9997 26.623 15.9997C26.623 15.9997 26.623 12.5181 26.1814 10.8509ZM13.8262 19.1581V12.8413L19.3782 15.9997L13.8262 19.1581Z" fill="white"></path></svg>